<svg width="46" height="46" viewBox="0 0 46 46" fill="none" xmlns="http://www.w3.org/2000/svg">
<rect width="46" height="46" fill="white" fill-opacity="0.7"/>
<path d="M26.5075 36.4165C26.2211 36.4175 25.9382 36.3543 25.6795 36.2316C25.4208 36.1089 25.1929 35.9297 25.0125 35.7074L15.755 24.2074C15.4731 23.8644 15.319 23.4342 15.319 22.9903C15.319 22.5463 15.4731 22.1162 15.755 21.7732L25.3383 10.2732C25.6637 9.8818 26.1312 9.63565 26.638 9.58892C27.1448 9.54219 27.6494 9.69871 28.0408 10.024C28.4322 10.3494 28.6784 10.8169 28.7251 11.3237C28.7718 11.8305 28.6153 12.3351 28.29 12.7265L19.7225 22.9999L28.0025 33.2732C28.2369 33.5545 28.3857 33.8971 28.4315 34.2604C28.4773 34.6237 28.418 34.9925 28.2608 35.3232C28.1035 35.6539 27.8548 35.9326 27.5441 36.1264C27.2333 36.3201 26.8736 36.4208 26.5075 36.4165Z" fill="#4D5E3B"/>
</svg>