<svg width="47" height="46" viewBox="0 0 47 46" fill="none" xmlns="http://www.w3.org/2000/svg">
<rect width="47" height="46" transform="matrix(-1 0 0 1 47 0)" fill="white" fill-opacity="0.7"/>
<path d="M19.9163 36.4165C20.2088 36.4175 20.4979 36.3543 20.7622 36.2316C21.0266 36.1089 21.2595 35.9297 21.4438 35.7074L30.9025 24.2074C31.1906 23.8644 31.348 23.4342 31.348 22.9903C31.348 22.5463 31.1906 22.1162 30.9025 21.7732L21.1109 10.2732C20.7785 9.8818 20.3008 9.63565 19.783 9.58892C19.2651 9.54219 18.7495 9.69871 18.3496 10.024C17.9497 10.3494 17.6982 10.8169 17.6504 11.3237C17.6027 11.8305 17.7626 12.3351 18.095 12.7265L26.8488 22.9999L18.3888 33.2732C18.1493 33.5545 17.9972 33.8971 17.9504 34.2604C17.9037 34.6237 17.9642 34.9925 18.1249 35.3232C18.2856 35.6539 18.5397 35.9326 18.8572 36.1264C19.1746 36.3201 19.5422 36.4208 19.9163 36.4165Z" fill="#4D5E3B"/>
</svg>