<svg width="224" height="166" viewBox="0 0 224 166" fill="none" xmlns="http://www.w3.org/2000/svg">
<g clip-path="url(#clip0)">
<path d="M68.1536 157.881C64.4685 162.812 56.8189 163.331 56.8189 163.331C56.8189 163.331 55.1441 155.855 58.8292 150.924C62.5143 145.993 70.1639 145.474 70.1639 145.474C70.1639 145.474 71.8387 152.95 68.1536 157.881Z" fill="#E6E6E6"/>
<path d="M49.3811 159.735C51.8127 162.989 56.8605 163.332 56.8605 163.332C56.8605 163.332 57.9656 158.398 55.5339 155.144C53.1022 151.89 48.0545 151.548 48.0545 151.548C48.0545 151.548 46.9493 156.481 49.3811 159.735Z" fill="#E6E6E6"/>
<path d="M65.8679 163.628H0V163.09H65.9655L65.8679 163.628Z" fill="#3F3D56"/>
<path d="M224 15.2471H180.13V80.6831H224V15.2471Z" fill="#E6E6E6"/>
<path d="M221.657 18.7412H182.472V77.1889H221.657V18.7412Z" fill="white"/>
<path d="M210.008 60.3301H208.111V66.8903H210.008V60.3301Z" fill="#3F3D56"/>
<path d="M211.3 65.9289L206.579 60.2578H197.388L191.771 65.7246L191.884 65.7974H191.844V77.1684H211.248V65.7974L211.3 65.9289Z" fill="#3F3D56"/>
<path d="M206.652 60.1846L200.889 66.9358V77.1681H211.248V65.6513L206.652 60.1846Z" fill="#E7936D"/>
<path d="M207.163 71.5098H205.047V73.3782H207.163V71.5098Z" fill="#3F3D56"/>
<path d="M207.163 68.2754H205.047V70.1142H207.163V68.2754Z" fill="#3F3D56"/>
<path d="M207.163 71.5098H205.047V73.3782H207.163V71.5098Z" fill="white"/>
<path d="M207.163 68.2754H205.047V70.1142H207.163V68.2754Z" fill="white"/>
<path d="M199.453 76.8344C199.453 76.8344 199.498 75.8849 200.428 75.9953L199.453 76.8344Z" fill="#E6E6E6"/>
<path d="M199.19 75.9318C199.447 75.9318 199.655 75.7237 199.655 75.4669C199.655 75.2101 199.447 75.002 199.19 75.002C198.933 75.002 198.725 75.2101 198.725 75.4669C198.725 75.7237 198.933 75.9318 199.19 75.9318Z" fill="#E7936D"/>
<path d="M199.246 76.249H199.114V77.1677H199.246V76.249Z" fill="#E6E6E6"/>
<path d="M163.917 15.2471H120.047V80.6831H163.917V15.2471Z" fill="#E6E6E6"/>
<path d="M161.574 18.7412H122.389V77.1889H161.574V18.7412Z" fill="white"/>
<path d="M194.021 40.5048L195.151 39.6025C194.273 39.5058 193.913 39.9838 193.765 40.3621C193.295 40.2061 192.782 40.2377 192.334 40.4504L194.593 41.2699C194.479 40.9658 194.281 40.7004 194.021 40.5048Z" fill="#3F3D56"/>
<path d="M145.266 38.7383L146.395 37.8359C145.518 37.7392 145.157 38.2172 145.01 38.5955C144.539 38.4395 144.026 38.4711 143.579 38.6838L145.838 39.5033C145.724 39.1992 145.525 38.9338 145.266 38.7383Z" fill="#3F3D56"/>
<path d="M209.388 31.9814L210.518 31.079C209.64 30.9823 209.28 31.4604 209.132 31.8387C208.662 31.6827 208.149 31.7143 207.701 31.927L209.96 32.7465C209.846 32.4423 209.648 32.1769 209.388 31.9814Z" fill="#3F3D56"/>
<path d="M151.355 53.8516H149.459V60.4117H151.355V53.8516Z" fill="#3F3D56"/>
<path d="M151.355 53.1953H149.459V59.7555H151.355V53.1953Z" fill="#3F3D56"/>
<path d="M154.221 61.5622L147.748 53.8789H135.045L127.283 61.434L127.439 61.5346H127.383V77.2491H154.199V61.5346L154.221 61.5622Z" fill="#3F3D56"/>
<path d="M147.848 53.7783L139.884 63.1082V77.2491H154.2V61.3332L147.848 53.7783Z" fill="#E7936D"/>
<path d="M146.536 69.1826H143.612V72.0107H146.536V69.1826Z" fill="#3F3D56"/>
<path d="M146.536 64.96H143.612V67.788H146.536V64.96Z" fill="#3F3D56"/>
<path d="M146.536 69.1826H143.612V72.0107H146.536V69.1826Z" fill="white"/>
<path d="M146.536 64.96H143.612V67.788H146.536V64.96Z" fill="white"/>
<path d="M150.812 69.1826H147.889V72.0107H150.812V69.1826Z" fill="#3F3D56"/>
<path d="M150.812 64.96H147.889V67.788H150.812V64.96Z" fill="#3F3D56"/>
<path d="M150.812 69.1826H147.889V72.0107H150.812V69.1826Z" fill="white"/>
<path d="M150.812 64.96H147.889V67.788H150.812V64.96Z" fill="white"/>
<path d="M100.547 22.4914C106.762 22.4914 111.801 17.4565 111.801 11.2457C111.801 5.03488 106.762 0 100.547 0C94.3308 0 89.292 5.03488 89.292 11.2457C89.292 17.4565 94.3308 22.4914 100.547 22.4914Z" fill="#F3D990"/>
<path d="M103.834 15.2471H59.9639V80.6831H103.834V15.2471Z" fill="#E6E6E6"/>
<path d="M101.492 18.7412H62.3066V77.1889H101.492V18.7412Z" fill="white"/>
<path d="M98.5071 57.9932L90.6066 48.5918H75.0741L65.5818 57.8303L65.7737 57.9534H65.7052V77.1691H98.4961V57.9534L98.5071 57.9932Z" fill="#3F3D56"/>
<path d="M88.8973 37.862L89.9635 37.01C89.1352 36.9187 88.7949 37.37 88.6557 37.7273C88.2113 37.58 87.7271 37.6098 87.3042 37.8107L89.4374 38.5845C89.3298 38.2973 89.1424 38.0466 88.8973 37.862Z" fill="#3F3D56"/>
<path d="M93.754 47.7119H91.9631V53.9063H93.754V47.7119Z" fill="#3F3D56"/>
<path d="M90.7299 48.4688L80.9912 59.8773V77.1691H98.4962V57.707L90.7299 48.4688Z" fill="#E7936D"/>
<path d="M73.1111 76.8545C73.1111 76.8545 73.1539 75.9579 74.0318 76.0621L73.1111 76.8545Z" fill="#E6E6E6"/>
<path d="M72.8632 76.0021C73.1058 76.0021 73.3026 75.8055 73.3026 75.563C73.3026 75.3206 73.1058 75.124 72.8632 75.124C72.6205 75.124 72.4238 75.3206 72.4238 75.563C72.4238 75.8055 72.6205 76.0021 72.8632 76.0021Z" fill="#E7936D"/>
<path d="M72.9155 76.3018H72.7915V77.1692H72.9155V76.3018Z" fill="#E6E6E6"/>
<path d="M77.0371 76.8545C77.0371 76.8545 77.0799 75.9579 77.9578 76.0621L77.0371 76.8545Z" fill="#E6E6E6"/>
<path d="M76.7892 76.0021C77.0319 76.0021 77.2286 75.8055 77.2286 75.563C77.2286 75.3206 77.0319 75.124 76.7892 75.124C76.5466 75.124 76.3499 75.3206 76.3499 75.563C76.3499 75.8055 76.5466 76.0021 76.7892 76.0021Z" fill="#E7936D"/>
<path d="M76.8418 76.3018H76.7178V77.1692H76.8418V76.3018Z" fill="#E6E6E6"/>
<path d="M67.7383 76.8545C67.7383 76.8545 67.7811 75.9579 68.659 76.0621L67.7383 76.8545Z" fill="#E6E6E6"/>
<path d="M67.4904 76.0021C67.733 76.0021 67.9298 75.8055 67.9298 75.563C67.9298 75.3206 67.733 75.124 67.4904 75.124C67.2477 75.124 67.051 75.3206 67.051 75.563C67.051 75.8055 67.2477 76.0021 67.4904 76.0021Z" fill="#E7936D"/>
<path d="M67.543 76.3018H67.4189V77.1692H67.543V76.3018Z" fill="#E6E6E6"/>
<path d="M86.8167 62.1416H83.2417V65.7941H86.8167V62.1416Z" fill="#3F3D56"/>
<path d="M86.8167 67.1113H83.2417V70.7639H86.8167V67.1113Z" fill="#3F3D56"/>
<path d="M86.8167 62.1416H83.2417V65.7941H86.8167V62.1416Z" fill="white"/>
<path d="M86.8167 67.1113H83.2417V70.7639H86.8167V67.1113Z" fill="white"/>
<path d="M91.761 62.1416H88.186V65.7941H91.761V62.1416Z" fill="#3F3D56"/>
<path d="M91.761 67.1113H88.186V70.7639H91.761V67.1113Z" fill="#3F3D56"/>
<path d="M91.761 62.1416H88.186V65.7941H91.761V62.1416Z" fill="white"/>
<path d="M91.761 67.1113H88.186V70.7639H91.761V67.1113Z" fill="white"/>
<path d="M96.7054 62.1416H93.1304V65.7941H96.7054V62.1416Z" fill="#3F3D56"/>
<path d="M96.7054 67.1113H93.1304V70.7639H96.7054V67.1113Z" fill="#3F3D56"/>
<path d="M96.7054 62.1416H93.1304V65.7941H96.7054V62.1416Z" fill="white"/>
<path d="M96.7054 67.1113H93.1304V70.7639H96.7054V67.1113Z" fill="white"/>
<path d="M223.625 81.0165H60.0315C60.0315 81.0165 93.2467 73.0244 142.169 73.115C142.443 73.115 142.718 73.1158 142.992 73.1174C143.968 73.1209 144.95 73.1276 145.937 73.1374C146.71 73.1456 147.486 73.1558 148.265 73.168C148.602 73.1727 148.938 73.1786 149.277 73.1845C149.412 73.1869 149.546 73.1892 149.679 73.1916C149.989 73.1975 150.301 73.2037 150.616 73.2104C151.204 73.2222 151.795 73.2355 152.387 73.2504C152.906 73.2634 153.427 73.2775 153.951 73.2928C154.151 73.2975 154.354 73.3034 154.555 73.3105C155.505 73.3376 156.458 73.369 157.415 73.4047C157.637 73.4129 157.859 73.4212 158.083 73.4294C158.389 73.44 158.697 73.453 159.004 73.4648C159.41 73.4812 159.816 73.4981 160.222 73.5154C160.751 73.5378 161.277 73.5613 161.806 73.586C162.911 73.6367 164.023 73.6924 165.142 73.7533C165.973 73.7968 166.806 73.8439 167.642 73.8946C167.998 73.9158 168.355 73.9381 168.712 73.9605C169.26 73.9935 169.808 74.0284 170.358 74.0653C170.707 74.0889 171.059 74.1124 171.409 74.136C171.832 74.1642 172.253 74.1937 172.676 74.2243C173.097 74.2549 173.522 74.2855 173.946 74.3173C174.37 74.3491 174.795 74.3813 175.22 74.4139C175.647 74.4468 176.072 74.4798 176.499 74.5151C176.92 74.5481 177.341 74.5834 177.765 74.6188C179.566 74.7683 181.381 74.9312 183.208 75.1075C183.558 75.1404 183.912 75.1746 184.263 75.2099C184.626 75.2452 184.99 75.2817 185.356 75.3194C185.863 75.3701 186.373 75.4227 186.884 75.4772C187.323 75.5231 187.761 75.5698 188.201 75.6173C188.598 75.6597 188.998 75.7033 189.397 75.7481L189.521 75.7622C189.961 75.8105 190.403 75.8611 190.843 75.9117C191.285 75.9624 191.728 76.0142 192.17 76.066C192.614 76.1178 193.058 76.1708 193.502 76.225C193.947 76.2791 194.391 76.3333 194.837 76.3887C195.185 76.4322 195.531 76.4758 195.878 76.5194C196.051 76.5417 196.224 76.5629 196.397 76.5853C196.77 76.6336 197.143 76.6823 197.518 76.7313C197.966 76.7902 198.414 76.8495 198.863 76.9091C198.913 76.9162 198.962 76.9233 199.013 76.9292C199.709 77.0234 200.405 77.1191 201.102 77.2165C201.196 77.2294 201.292 77.2436 201.388 77.2565C201.753 77.3072 202.118 77.359 202.482 77.412C202.847 77.4649 203.212 77.5168 203.579 77.5709C203.594 77.5721 203.609 77.5745 203.624 77.5768C204.141 77.6522 204.656 77.7287 205.175 77.8076C205.433 77.8453 205.69 77.8842 205.948 77.9242C206.301 77.9772 206.653 78.0314 207.007 78.0867C207.238 78.1232 207.469 78.1597 207.702 78.1962C207.873 78.2209 208.045 78.248 208.216 78.2763C208.577 78.3316 208.938 78.3889 209.301 78.4482C209.637 78.5024 209.974 78.5569 210.31 78.6119C210.32 78.6129 210.329 78.6145 210.339 78.6166C210.419 78.6296 210.498 78.6425 210.579 78.6555C210.826 78.6955 211.072 78.7367 211.32 78.7779C211.574 78.8203 211.83 78.8627 212.085 78.9063C212.309 78.944 212.535 78.9816 212.759 79.0205C212.765 79.0206 212.771 79.0214 212.777 79.0229C212.809 79.0276 212.841 79.0335 212.873 79.0393C213.133 79.0829 213.392 79.1265 213.652 79.1724C213.911 79.2172 214.171 79.2619 214.432 79.3078C214.459 79.3114 214.485 79.3161 214.511 79.3208C214.712 79.3549 214.914 79.3903 215.115 79.4268C215.115 79.4268 215.115 79.4256 215.117 79.4268C215.231 79.4456 215.346 79.4668 215.461 79.4868C215.767 79.541 216.074 79.5955 216.38 79.6505C216.578 79.6858 216.777 79.7211 216.974 79.7576C217.525 79.8577 218.078 79.9586 218.631 80.0603C219.184 80.1627 219.739 80.2664 220.292 80.3712C220.624 80.4336 220.955 80.4972 221.288 80.5619C221.6 80.6208 221.912 80.6809 222.225 80.7421C222.691 80.8328 223.159 80.9234 223.625 81.0165Z" fill="#E6E6E6"/>
<path d="M223.575 81.2664C223.161 81.1837 222.744 81.1028 222.329 81.0221L222.176 80.9923C221.864 80.931 221.552 80.871 221.241 80.8125C220.907 80.7474 220.577 80.684 220.244 80.6217C219.691 80.5169 219.138 80.4133 218.584 80.3109C218.101 80.2212 217.617 80.1328 217.134 80.0456L216.929 80.0084C216.76 79.9772 216.59 79.9471 216.422 79.9169L216.335 79.9014C216.057 79.851 215.778 79.8014 215.5 79.7525L215.37 79.7297V79.7323L215.069 79.6776L215.052 79.6746L215.024 79.6694C214.839 79.636 214.654 79.6035 214.468 79.5721C214.442 79.5674 214.42 79.5634 214.399 79.5605L213.608 79.4236C213.361 79.3797 213.114 79.3383 212.868 79.2969L212.831 79.2907C212.798 79.2847 212.769 79.2792 212.74 79.275C212.518 79.2373 212.319 79.2039 212.121 79.1707L210.269 78.8634C209.933 78.808 209.596 78.7535 209.26 78.6999C208.898 78.6409 208.537 78.5837 208.177 78.5282C208.005 78.4998 207.835 78.473 207.666 78.4486L206.967 78.3385C206.614 78.2832 206.263 78.2292 205.91 78.1762C205.652 78.1362 205.395 78.0974 205.138 78.0598C204.618 77.9807 204.103 77.9043 203.587 77.8291L203.541 77.8231C203.306 77.7883 203.072 77.7543 202.838 77.7209L202.446 77.6643C202.081 77.6113 201.717 77.5595 201.353 77.509L201.067 77.469C200.369 77.3713 199.673 77.2755 198.979 77.1817C198.939 77.1772 198.896 77.1713 198.853 77.1651L194.805 76.6416C194.36 76.5863 193.916 76.5322 193.471 76.478C193.027 76.4239 192.584 76.3709 192.141 76.3191C191.699 76.2674 191.255 76.2155 190.814 76.165C190.374 76.1144 189.932 76.0638 189.493 76.0156L189.368 76.0013C188.97 75.9568 188.57 75.9131 188.174 75.8707C187.762 75.8256 187.352 75.7819 186.943 75.7396L186.858 75.7307C186.346 75.6766 185.837 75.6241 185.33 75.5731C184.965 75.5354 184.601 75.4989 184.238 75.4635C183.887 75.4282 183.534 75.3942 183.184 75.3613C181.396 75.1883 179.565 75.0241 177.743 74.8729C177.312 74.8368 176.896 74.8019 176.479 74.7692C176.051 74.7338 175.627 74.701 175.201 74.668C174.776 74.6351 174.351 74.6029 173.927 74.5715C173.547 74.5431 173.167 74.5155 172.789 74.4881L172.658 74.4786C172.235 74.4479 171.814 74.4185 171.392 74.3904L170.34 74.3196C169.792 74.2832 169.244 74.2483 168.697 74.2149L168.601 74.2089C168.276 74.1886 167.951 74.1686 167.627 74.1489C166.791 74.0997 165.958 74.0526 165.128 74.0078C164.011 73.9465 162.9 73.8909 161.794 73.8407C161.266 73.816 160.74 73.7924 160.212 73.77C159.843 73.754 159.475 73.7387 159.106 73.724L158.683 73.7073C158.48 73.6992 158.276 73.6912 158.074 73.6842L157.405 73.6595C156.449 73.6241 155.497 73.5927 154.548 73.5652C154.346 73.5583 154.144 73.5523 153.945 73.5477C153.42 73.5323 152.899 73.5181 152.381 73.5053C151.789 73.4912 151.199 73.4778 150.61 73.4653L149.272 73.4394C148.934 73.4335 148.597 73.4279 148.262 73.4229C147.481 73.41 146.707 73.4005 145.934 73.3923C144.948 73.3817 143.967 73.375 142.991 73.3722L142.917 73.3719C142.667 73.3709 142.418 73.3702 142.169 73.3699C141.898 73.3694 141.624 73.3691 141.353 73.3691C93.459 73.3691 60.4213 81.1848 60.0913 81.2643L59.9717 80.7678C60.3022 80.6882 93.4041 72.8584 141.353 72.8584C141.627 72.8584 141.895 72.8587 142.169 72.8591C142.419 72.8591 142.668 72.8599 142.919 72.8613L142.993 72.8615C143.97 72.8651 144.952 72.8718 145.94 72.8816C146.713 72.8898 147.488 72.8993 148.269 72.9121C148.606 72.9169 148.943 72.9224 149.281 72.9287L150.621 72.9545C151.21 72.9664 151.8 72.9798 152.393 72.9948C152.913 73.0077 153.435 73.0218 153.959 73.0372C154.158 73.0418 154.362 73.0478 154.564 73.0548C155.512 73.0818 156.466 73.1133 157.424 73.149L158.092 73.1737C158.295 73.1808 158.499 73.1888 158.703 73.1969L159.127 73.2138C159.496 73.2287 159.865 73.2441 160.233 73.2598C160.762 73.2822 161.289 73.3058 161.818 73.3305C162.924 73.3811 164.037 73.4369 165.156 73.4978C165.987 73.5414 166.821 73.5886 167.657 73.6392C167.982 73.6585 168.307 73.6785 168.633 73.6992L168.728 73.7052C169.276 73.7382 169.824 73.7732 170.375 73.81L171.426 73.8808C171.849 73.909 172.271 73.9385 172.695 73.9691L172.826 73.9787C173.204 74.0062 173.585 74.0337 173.965 74.0623C174.39 74.0941 174.815 74.1262 175.24 74.1588C175.668 74.1918 176.093 74.2249 176.52 74.2602C176.937 74.2928 177.355 74.3271 177.774 74.3629C179.61 74.5153 181.443 74.6799 183.233 74.8528C183.583 74.8857 183.937 74.92 184.289 74.9553C184.651 74.9907 185.017 75.0272 185.382 75.065C185.889 75.1156 186.399 75.1682 186.912 75.2227L186.996 75.2317C187.406 75.2747 187.817 75.3185 188.229 75.363C188.625 75.4054 189.026 75.4491 189.425 75.4938L189.55 75.508C189.989 75.5563 190.432 75.6069 190.872 75.6575C191.314 75.7083 191.758 75.7602 192.2 75.8119C192.644 75.8638 193.088 75.9168 193.532 75.971C193.978 76.0252 194.422 76.0793 194.868 76.1348L198.924 76.6594C198.963 76.6649 199.002 76.6704 199.042 76.675C199.744 76.7699 200.44 76.8652 201.138 76.9631L201.422 77.0029C201.789 77.0538 202.154 77.1057 202.519 77.1588L202.911 77.2154C203.145 77.2492 203.381 77.2833 203.616 77.3179C203.622 77.3199 203.642 77.3207 203.664 77.3241C204.178 77.399 204.695 77.4759 205.213 77.5546C205.47 77.5922 205.728 77.6311 205.987 77.6713C206.34 77.7242 206.692 77.7784 207.046 77.8339L207.742 77.9435C207.912 77.968 208.085 77.9953 208.257 78.024C208.616 78.0789 208.977 78.1362 209.342 78.1958C209.678 78.2498 210.015 78.3043 210.352 78.3594C210.368 78.3614 210.385 78.3644 210.401 78.3684L212.206 78.667C212.397 78.6992 212.59 78.7316 212.781 78.7646L212.828 78.7721C212.85 78.775 212.885 78.7812 212.919 78.7877L212.953 78.7932C213.201 78.8349 213.449 78.8766 213.697 78.9205L214.477 79.0559C214.495 79.0581 214.524 79.0632 214.554 79.0685C214.726 79.0978 214.898 79.1279 215.07 79.1587L215.123 79.1296L215.209 79.1828C215.268 79.1928 215.327 79.2033 215.386 79.2137L215.589 79.2496C215.868 79.299 216.147 79.3487 216.426 79.3988L216.512 79.4141C216.682 79.4444 216.852 79.4748 217.021 79.506L217.225 79.543C217.708 79.6309 218.193 79.7195 218.678 79.8086C219.231 79.9112 219.786 80.0148 220.339 80.1198C220.672 80.1822 221.004 80.2459 221.337 80.3108C221.648 80.3694 221.961 80.4297 222.274 80.491L222.427 80.5208C222.843 80.6016 223.26 80.6827 223.675 80.7656L223.575 81.2664Z" fill="#3F3D56"/>
<path d="M172.552 42.7397C183.193 42.7397 191.82 34.1197 191.82 23.4865C191.82 12.8533 183.193 4.2334 172.552 4.2334C161.91 4.2334 153.284 12.8533 153.284 23.4865C153.284 34.1197 161.91 42.7397 172.552 42.7397Z" fill="#A5BF84"/>
<path opacity="0.2" d="M186.885 10.627C188.682 14.8278 188.926 19.5305 187.573 23.8944C186.22 28.2584 183.357 31.9994 179.498 34.4489C175.638 36.8984 171.033 37.8968 166.504 37.2657C161.976 36.6346 157.82 34.4152 154.778 31.0039C155.876 33.5705 157.519 35.8679 159.594 37.7369C161.669 39.6059 164.125 41.0018 166.794 41.828C169.462 42.6542 172.278 42.8908 175.047 42.5215C177.816 42.1522 180.471 41.1858 182.829 39.6893C185.187 38.1928 187.191 36.2019 188.703 33.8546C190.214 31.5073 191.197 28.8597 191.583 26.0953C191.968 23.3308 191.748 20.5156 190.937 17.8447C190.126 15.1737 188.743 12.711 186.885 10.627Z" fill="black"/>
<path d="M172.605 23.4863H172.658L173.611 78.0719H171.599L172.605 23.4863Z" fill="#3F3D56"/>
<path d="M176.113 53.2194L175.669 52.377L172.484 54.0525L172.928 54.895L176.113 53.2194Z" fill="#3F3D56"/>
<path d="M126.55 78.5346C126.55 78.5346 126.631 76.8307 128.3 77.0287L126.55 78.5346Z" fill="#3F3D56"/>
<path d="M126.079 76.9128C126.54 76.9128 126.914 76.5393 126.914 76.0785C126.914 75.6177 126.54 75.2441 126.079 75.2441C125.617 75.2441 125.244 75.6177 125.244 76.0785C125.244 76.5393 125.617 76.9128 126.079 76.9128Z" fill="#E7936D"/>
<path d="M126.179 77.4834H125.943V79.132H126.179V77.4834Z" fill="#3F3D56"/>
<path d="M156.955 78.8871C156.955 78.8871 157.036 77.1832 158.705 77.3813L156.955 78.8871Z" fill="#3F3D56"/>
<path d="M156.484 77.2663C156.945 77.2663 157.319 76.8928 157.319 76.432C157.319 75.9712 156.945 75.5977 156.484 75.5977C156.023 75.5977 155.649 75.9712 155.649 76.432C155.649 76.8928 156.023 77.2663 156.484 77.2663Z" fill="#E7936D"/>
<path d="M156.583 77.8369H156.348V79.4855H156.583V77.8369Z" fill="#3F3D56"/>
<path d="M106.87 75.9438C106.87 75.9438 106.951 74.2398 108.619 74.4379L106.87 75.9438Z" fill="#3F3D56"/>
<path d="M106.398 74.322C106.859 74.322 107.233 73.9484 107.233 73.4877C107.233 73.0269 106.859 72.6533 106.398 72.6533C105.937 72.6533 105.563 73.0269 105.563 73.4877C105.563 73.9484 105.937 74.322 106.398 74.322Z" fill="#E7936D"/>
<path d="M106.498 74.8926H106.262V76.5412H106.498V74.8926Z" fill="#3F3D56"/>
<path d="M119.715 73.7065C119.715 73.7065 119.796 72.0025 121.465 72.2006L119.715 73.7065Z" fill="#3F3D56"/>
<path d="M119.243 72.0847C119.705 72.0847 120.078 71.7111 120.078 71.2503C120.078 70.7896 119.705 70.416 119.243 70.416C118.782 70.416 118.408 70.7896 118.408 71.2503C118.408 71.7111 118.782 72.0847 119.243 72.0847Z" fill="#E7936D"/>
<path d="M119.343 72.6553H119.108V74.3039H119.343V72.6553Z" fill="#3F3D56"/>
<path d="M151.887 76.8861C151.887 76.8861 151.969 75.1822 153.637 75.3803L151.887 76.8861Z" fill="#3F3D56"/>
<path d="M151.416 75.2644C151.877 75.2644 152.251 74.8908 152.251 74.43C152.251 73.9693 151.877 73.5957 151.416 73.5957C150.955 73.5957 150.581 73.9693 150.581 74.43C150.581 74.8908 150.955 75.2644 151.416 75.2644Z" fill="#E7936D"/>
<path d="M151.516 75.835H151.28V77.4835H151.516V75.835Z" fill="#3F3D56"/>
<path d="M128.511 4.64771L129.596 3.7807C128.753 3.68779 128.407 4.14707 128.265 4.51059C127.813 4.36067 127.32 4.39107 126.89 4.59543L129.061 5.38283C128.951 5.09057 128.761 4.83557 128.511 4.64771Z" fill="#3F3D56"/>
<path d="M145.01 13.4797L146.095 12.6127C145.252 12.5198 144.906 12.9791 144.764 13.3426C144.312 13.1927 143.819 13.2231 143.389 13.4275L145.56 14.2149C145.45 13.9226 145.259 13.6676 145.01 13.4797Z" fill="#3F3D56"/>
<path d="M127.215 21.0149L128.3 20.1479C127.457 20.055 127.111 20.5143 126.969 20.8778C126.517 20.7279 126.024 20.7583 125.594 20.9626L127.764 21.75C127.655 21.4578 127.464 21.2028 127.215 21.0149Z" fill="#3F3D56"/>
<path d="M38.1284 83.8467C39.2426 83.5006 39.7247 81.8663 39.2052 80.1963C38.6857 78.5264 37.3613 77.4531 36.2471 77.7992C35.133 78.1452 34.6509 79.7796 35.1704 81.4495C35.6899 83.1195 37.0142 84.1927 38.1284 83.8467Z" fill="#2F2E41"/>
<path d="M13.4209 67.207C13.4209 67.207 12.7871 79.8728 14.0547 88.3167C15.3223 96.7606 16.8011 104.782 16.8011 104.782C16.8011 104.782 20.3925 102.038 22.5052 102.882L18.7024 73.5399L13.4209 67.207Z" fill="#E7936D"/>
<path d="M26.8361 53.3796C30.6865 53.3796 33.8078 50.2608 33.8078 46.4135C33.8078 42.5661 30.6865 39.4473 26.8361 39.4473C22.9858 39.4473 19.8645 42.5661 19.8645 46.4135C19.8645 50.2608 22.9858 53.3796 26.8361 53.3796Z" fill="#FFB8B8"/>
<path d="M22.2938 48.208L19.3362 55.8076L23.5614 57.7074L27.7866 50.1079L22.2938 48.208Z" fill="#FFB8B8"/>
<path d="M24.823 55.4389C24.823 55.4389 20.6038 52.6415 18.7025 53.697L17.0124 57.7078C17.0124 57.7078 11.0971 65.0962 13.4209 70.5847C15.7448 76.0732 21.0264 82.4061 21.0264 82.4061L21.6601 85.3614C21.6601 85.3614 13.4209 96.1273 14.266 104.149L4.33667 131.169C4.33667 131.169 9.82947 133.491 28.2093 134.336C46.589 135.18 46.589 134.336 46.589 134.336C46.589 134.336 44.2652 89.3723 37.0822 82.195L36.0259 78.8174C36.0259 78.8174 37.5048 69.3181 34.1246 65.3073L32.9825 63.0248C31.2667 59.596 28.3691 56.902 24.823 55.4389Z" fill="#2F2E41"/>
<path d="M35.3921 100.771L35.8146 106.471C35.8146 106.471 35.1808 113.859 39.4061 112.381C43.6313 110.904 40.2511 102.671 40.2511 102.671L39.6173 100.138L35.3921 100.771Z" fill="#FFB8B8"/>
<path d="M6.0266 130.113L3.70272 152.701C3.70272 152.701 0.745055 154.389 2.22389 159.033C3.70272 163.678 3.2802 166 3.2802 166L4.75903 165.577L5.39282 159.878C5.39282 159.878 7.87514 163.044 10.0406 163.678C11.5443 164.117 13.0991 164.455 14.121 163.278C15.3115 161.906 14.7371 159.787 13.0915 159.017C12.925 158.938 12.7525 158.873 12.5757 158.822C11.0969 158.4 9.61806 152.701 9.61806 152.701L12.1532 142.357L15.9559 130.958L6.0266 130.113Z" fill="#2F2E41"/>
<path d="M34.7583 130.113L32.4344 152.701C32.4344 152.701 29.4767 154.389 30.9556 159.033C32.4344 163.678 32.0119 166 32.0119 166L33.4907 165.577L34.1245 159.878C34.1245 159.878 36.6068 163.044 38.7723 163.678C40.276 164.117 41.8308 164.455 42.8527 163.278C44.0432 161.906 43.4688 159.787 41.8231 159.017C41.6567 158.938 41.4842 158.873 41.3074 158.822C39.8286 158.4 38.3497 152.701 38.3497 152.701L40.8849 142.357L44.6876 130.958L34.7583 130.113Z" fill="#2F2E41"/>
<path opacity="0.4" d="M25.8855 59.3962C25.8855 59.3962 20.8152 62.3515 22.294 69.1066C23.7729 75.8617 34.1247 104.782 34.1247 104.782C35.0289 103.902 36.1529 103.282 37.3793 102.984C38.6057 102.687 39.8894 102.725 41.0963 103.093L31.5896 66.5735C31.5896 66.5735 32.2233 58.3407 25.8855 59.3962Z" fill="black"/>
<path d="M26.7304 58.1296C26.7304 58.1296 21.6602 61.0849 23.139 67.84C24.6178 74.5951 34.9697 103.515 34.9697 103.515C35.8738 102.636 36.9978 102.015 38.2242 101.718C39.4506 101.421 40.7344 101.458 41.9413 101.827L32.4345 65.3069C32.4345 65.3069 33.0683 57.0741 26.7304 58.1296Z" fill="#E7936D"/>
<path d="M33.2812 43.7124C33.2812 43.7124 34.3552 35.3606 25.5922 38.0994C25.5922 38.0994 19.3336 36.9519 17.2811 44.7743L15.2029 52.9742L16.2157 52.4234L16.6879 53.4547L18.3291 53.87L19.0315 52.4771L19.3712 54.1686L32.814 55.5077C32.814 55.5077 26.7933 51.9499 26.6978 45.5734L27.8446 46.7843L33.2812 43.7124Z" fill="#2F2E41"/>
<path d="M18.3856 41.5588C20.2524 41.5588 21.7657 40.0466 21.7657 38.1813C21.7657 36.3159 20.2524 34.8037 18.3856 34.8037C16.5187 34.8037 15.0054 36.3159 15.0054 38.1813C15.0054 40.0466 16.5187 41.5588 18.3856 41.5588Z" fill="#2F2E41"/>
<path d="M21.8686 37.3539C21.813 36.497 21.4327 35.6935 20.805 35.107C20.1772 34.5204 19.3494 34.1951 18.49 34.1972C18.5598 34.1883 18.629 34.1775 18.7001 34.173C19.1431 34.1445 19.5874 34.2035 20.0075 34.3466C20.4277 34.4897 20.8155 34.7141 21.1489 35.007C21.4823 35.2998 21.7546 35.6554 21.9505 36.0535C22.1463 36.4515 22.2617 36.8842 22.2902 37.3269C22.3187 37.7695 22.2597 38.2134 22.1165 38.6332C21.9732 39.053 21.7487 39.4406 21.4556 39.7737C21.1625 40.1068 20.8066 40.379 20.4083 40.5746C20.0099 40.7703 19.5769 40.8857 19.1339 40.9141C19.0627 40.9187 18.9927 40.9169 18.9224 40.9171C19.775 40.8091 20.5543 40.3805 21.1017 39.7185C21.6491 39.0565 21.9233 38.2109 21.8686 37.3539Z" fill="#2F2E41"/>
<path d="M26.8361 48.5247C27.4195 48.5247 27.8924 47.8631 27.8924 47.047C27.8924 46.2309 27.4195 45.5693 26.8361 45.5693C26.2527 45.5693 25.7798 46.2309 25.7798 47.047C25.7798 47.8631 26.2527 48.5247 26.8361 48.5247Z" fill="#FFB8B8"/>
</g>
<defs>
<clipPath id="clip0">
<rect width="224" height="166" fill="white"/>
</clipPath>
</defs>
</svg>
