<svg width="24" height="24" viewBox="0 0 24 24" fill="none" xmlns="http://www.w3.org/2000/svg">
<path d="M10.3633 3.9041L2.25653 17.1828C2.08938 17.4668 2.00094 17.7888 2.00001 18.1167C1.99907 18.4447 2.08567 18.7671 2.25119 19.052C2.41671 19.337 2.65538 19.5744 2.94346 19.7407C3.23153 19.907 3.55897 19.9964 3.8932 20H20.1068C20.441 19.9964 20.7685 19.907 21.0565 19.7407C21.3446 19.5744 21.5833 19.337 21.7488 19.052C21.9143 18.7671 22.0009 18.4447 22 18.1167C21.9991 17.7888 21.9106 17.4668 21.7435 17.1828L13.6367 3.9041C13.466 3.62811 13.2258 3.39992 12.9391 3.24156C12.6524 3.0832 12.329 3 12 3C11.671 3 11.3476 3.0832 11.0609 3.24156C10.7742 3.39992 10.534 3.62811 10.3633 3.9041V3.9041Z" stroke="#E16161" stroke-width="1.87817" stroke-linecap="round" stroke-linejoin="round"/>
<path d="M12 8.73096V12.4873" stroke="#E16161" stroke-width="1.87817" stroke-linecap="round" stroke-linejoin="round"/>
<path d="M12 16.2437H12.01" stroke="#E16161" stroke-width="1.87817" stroke-linecap="round" stroke-linejoin="round"/>
</svg>
