<svg width="24" height="24" viewBox="0 0 24 24" fill="none" xmlns="http://www.w3.org/2000/svg">
<path d="M19.5748 10.9471C19.5813 9.09163 18.846 7.30932 17.5299 5.99082C16.2137 4.67231 14.4243 3.9252 12.5537 3.91324L12.4997 3.91307C10.6213 3.9154 8.8207 4.65778 7.49407 5.9769C6.16744 7.29601 5.42341 9.08382 5.42565 10.9471C5.42565 13.7477 4.85293 15.3128 4.37249 16.1326C4.22341 16.3877 4.14455 16.6773 4.1438 16.9722C4.14306 17.267 4.22047 17.5569 4.36827 17.8128C4.51466 18.0688 4.72722 18.2813 4.98402 18.4287C5.24083 18.576 5.5326 18.6527 5.82926 18.6509H8.80139C8.88559 19.5662 9.31166 20.4172 9.99595 21.0368C10.6802 21.6565 11.5733 22 12.4999 22C13.4264 22 14.3195 21.6565 15.0038 21.0368C15.6881 20.4172 16.1142 19.5662 16.1984 18.6509H19.1706C19.4672 18.6527 19.7589 18.576 20.0157 18.4287C20.2724 18.2813 20.485 18.0688 20.6313 17.8129C20.7791 17.5571 20.8566 17.2672 20.8559 16.9724C20.8552 16.6775 20.7764 16.3881 20.6274 16.1329C20.1472 15.3132 19.5748 13.7478 19.5748 10.9471ZM12.4999 19.9907C12.1108 19.9903 11.7339 19.8567 11.4325 19.6127C11.1311 19.3686 10.9238 19.0289 10.8455 18.6509H14.1543C14.076 19.0289 13.8686 19.3686 13.5673 19.6127C13.2659 19.8567 12.8889 19.9903 12.4999 19.9907ZM6.39066 16.6412C7.25961 14.8368 7.45184 12.5844 7.45184 10.9471C7.4496 9.61677 7.98021 8.34009 8.92695 7.39786C9.87369 6.45562 11.159 5.92502 12.5001 5.92278L12.5387 5.92295C13.8745 5.93095 15.1525 6.46458 16.0919 7.40662C17.0313 8.34866 17.5553 9.62206 17.5487 10.9471C17.5487 12.5844 17.7407 14.8367 18.6092 16.6412H6.39066ZM21.4346 7.70958C21.3153 7.768 21.1855 7.80251 21.0527 7.81114C20.92 7.81976 20.7868 7.80234 20.6608 7.75986C20.5348 7.71737 20.4185 7.65067 20.3185 7.56356C20.2186 7.47646 20.1369 7.37065 20.0782 7.25221C19.3871 5.86121 18.3213 4.68712 16.9989 3.85998C16.8864 3.78955 16.7889 3.69783 16.7122 3.59005C16.6354 3.48227 16.5808 3.36055 16.5514 3.23184C16.5221 3.10313 16.5186 2.96994 16.5412 2.83989C16.5637 2.70984 16.6119 2.58546 16.6829 2.47387C16.7539 2.36228 16.8463 2.26565 16.955 2.1895C17.0637 2.11336 17.1864 2.05919 17.3161 2.03008C17.4459 2.00098 17.5802 1.99751 17.7113 2.01988C17.8424 2.04224 17.9678 2.09001 18.0803 2.16044C19.7189 3.18545 21.0395 4.64039 21.8957 6.36408C21.9545 6.48246 21.9892 6.61117 21.9979 6.74285C22.0065 6.87454 21.9889 7.00662 21.9461 7.13156C21.9033 7.2565 21.8361 7.37186 21.7483 7.47103C21.6605 7.57021 21.5539 7.65127 21.4346 7.70958ZM4.0121 7.81325C3.84001 7.813 3.67083 7.7693 3.52048 7.68626C3.37013 7.60323 3.24357 7.48358 3.15273 7.33862C3.06189 7.19365 3.00976 7.02812 3.00124 6.85764C2.99273 6.68716 3.02811 6.51733 3.10406 6.36417C3.9603 4.64048 5.28087 3.18554 6.91948 2.16052C7.03198 2.08852 7.15775 2.03935 7.28953 2.01585C7.4213 1.99236 7.55647 1.995 7.6872 2.02364C7.81794 2.05228 7.94166 2.10634 8.05121 2.18269C8.16075 2.25905 8.25395 2.35618 8.32542 2.46849C8.39688 2.58079 8.4452 2.70603 8.46757 2.83697C8.48994 2.9679 8.48592 3.10194 8.45574 3.23133C8.42557 3.36071 8.36983 3.48289 8.29176 3.59078C8.2137 3.69867 8.11484 3.79014 8.00091 3.8599C6.67847 4.68706 5.61267 5.86118 4.92157 7.25221C4.83796 7.42067 4.70844 7.56252 4.54769 7.66169C4.38694 7.76085 4.2014 7.81336 4.0121 7.81325Z" fill="#F3D990"/>
</svg>
