<svg width="23" height="23" viewBox="0 0 23 23" fill="none" xmlns="http://www.w3.org/2000/svg">
<path fill-rule="evenodd" clip-rule="evenodd" d="M11.5 21.5625C14.1687 21.5625 16.7282 20.5023 18.6153 18.6153C20.5023 16.7282 21.5625 14.1687 21.5625 11.5C21.5625 8.83126 20.5023 6.27182 18.6153 4.38474C16.7282 2.49765 14.1687 1.4375 11.5 1.4375C8.83126 1.4375 6.27182 2.49765 4.38474 4.38474C2.49765 6.27182 1.4375 8.83126 1.4375 11.5C1.4375 14.1687 2.49765 16.7282 4.38474 18.6153C6.27182 20.5023 8.83126 21.5625 11.5 21.5625ZM11.5 23C14.55 23 17.4751 21.7884 19.6317 19.6317C21.7884 17.4751 23 14.55 23 11.5C23 8.45001 21.7884 5.52494 19.6317 3.36827C17.4751 1.2116 14.55 0 11.5 0C8.45001 0 5.52494 1.2116 3.36827 3.36827C1.2116 5.52494 0 8.45001 0 11.5C0 14.55 1.2116 17.4751 3.36827 19.6317C5.52494 21.7884 8.45001 23 11.5 23Z" fill="#E7936D"/>
<path d="M12.8369 9.47021L9.54498 9.88278L9.4271 10.429L10.074 10.5483C10.4966 10.649 10.58 10.8013 10.488 11.2225L9.4271 16.2078C9.14823 17.4972 9.57804 18.1038 10.5886 18.1038C11.372 18.1038 12.282 17.7416 12.6945 17.2442L12.821 16.6462C12.5335 16.8992 12.1138 16.9998 11.8349 16.9998C11.4396 16.9998 11.2959 16.7224 11.3979 16.2337L12.8369 9.47021Z" fill="#E7936D"/>
<path d="M11.5 7.90625C12.2939 7.90625 12.9375 7.26266 12.9375 6.46875C12.9375 5.67484 12.2939 5.03125 11.5 5.03125C10.7061 5.03125 10.0625 5.67484 10.0625 6.46875C10.0625 7.26266 10.7061 7.90625 11.5 7.90625Z" fill="#E7936D"/>
</svg>
