<svg width="293" height="49" viewBox="0 0 293 49" fill="none" xmlns="http://www.w3.org/2000/svg">
<path d="M0 10C0 4.47715 4.47715 0 10 0H283C288.523 0 293 4.47715 293 10V39C293 44.5228 288.523 49 283 49H10C4.47715 49 0 44.5228 0 39V10Z" fill="white"/>
<path d="M31.992 16.2H39.624C41.448 16.2 43.056 16.552 44.448 17.256C45.856 17.944 46.944 18.92 47.712 20.184C48.496 21.448 48.888 22.92 48.888 24.6C48.888 26.28 48.496 27.752 47.712 29.016C46.944 30.28 45.856 31.264 44.448 31.968C43.056 32.656 41.448 33 39.624 33H31.992V16.2ZM39.432 29.808C41.112 29.808 42.448 29.344 43.44 28.416C44.448 27.472 44.952 26.2 44.952 24.6C44.952 23 44.448 21.736 43.44 20.808C42.448 19.864 41.112 19.392 39.432 19.392H35.88V29.808H39.432ZM51.5561 20.088H55.3001V33H51.5561V20.088ZM53.4281 18.288C52.7401 18.288 52.1801 18.088 51.7481 17.688C51.3161 17.288 51.1001 16.792 51.1001 16.2C51.1001 15.608 51.3161 15.112 51.7481 14.712C52.1801 14.312 52.7401 14.112 53.4281 14.112C54.1161 14.112 54.6761 14.304 55.1081 14.688C55.5401 15.072 55.7561 15.552 55.7561 16.128C55.7561 16.752 55.5401 17.272 55.1081 17.688C54.6761 18.088 54.1161 18.288 53.4281 18.288ZM63.1189 33.192C62.0469 33.192 60.9989 33.064 59.9749 32.808C58.9509 32.536 58.1349 32.2 57.5269 31.8L58.7749 29.112C59.3509 29.48 60.0469 29.784 60.8629 30.024C61.6789 30.248 62.4789 30.36 63.2629 30.36C64.8469 30.36 65.6389 29.968 65.6389 29.184C65.6389 28.816 65.4229 28.552 64.9909 28.392C64.5589 28.232 63.8949 28.096 62.9989 27.984C61.9429 27.824 61.0709 27.64 60.3829 27.432C59.6949 27.224 59.0949 26.856 58.5829 26.328C58.0869 25.8 57.8389 25.048 57.8389 24.072C57.8389 23.256 58.0709 22.536 58.5349 21.912C59.0149 21.272 59.7029 20.776 60.5989 20.424C61.5109 20.072 62.5829 19.896 63.8149 19.896C64.7269 19.896 65.6309 20 66.5269 20.208C67.4389 20.4 68.1909 20.672 68.7829 21.024L67.5349 23.688C66.3989 23.048 65.1589 22.728 63.8149 22.728C63.0149 22.728 62.4149 22.84 62.0149 23.064C61.6149 23.288 61.4149 23.576 61.4149 23.928C61.4149 24.328 61.6309 24.608 62.0629 24.768C62.4949 24.928 63.1829 25.08 64.1269 25.224C65.1829 25.4 66.0469 25.592 66.7189 25.8C67.3909 25.992 67.9749 26.352 68.4709 26.88C68.9669 27.408 69.2149 28.144 69.2149 29.088C69.2149 29.888 68.9749 30.6 68.4949 31.224C68.0149 31.848 67.3109 32.336 66.3829 32.688C65.4709 33.024 64.3829 33.192 63.1189 33.192ZM79.8529 32.376C79.4849 32.648 79.0289 32.856 78.4849 33C77.9569 33.128 77.3969 33.192 76.8049 33.192C75.2689 33.192 74.0769 32.8 73.2289 32.016C72.3969 31.232 71.9809 30.08 71.9809 28.56V23.256H69.9889V20.376H71.9809V17.232H75.7249V20.376H78.9409V23.256H75.7249V28.512C75.7249 29.056 75.8609 29.48 76.1329 29.784C76.4209 30.072 76.8209 30.216 77.3329 30.216C77.9249 30.216 78.4289 30.056 78.8449 29.736L79.8529 32.376ZM87.1626 19.896C89.1626 19.896 90.6986 20.376 91.7706 21.336C92.8426 22.28 93.3786 23.712 93.3786 25.632V33H89.8746V31.392C89.1706 32.592 87.8586 33.192 85.9386 33.192C84.9466 33.192 84.0826 33.024 83.3466 32.688C82.6266 32.352 82.0746 31.888 81.6906 31.296C81.3066 30.704 81.1146 30.032 81.1146 29.28C81.1146 28.08 81.5626 27.136 82.4586 26.448C83.3706 25.76 84.7706 25.416 86.6586 25.416H89.6346C89.6346 24.6 89.3866 23.976 88.8906 23.544C88.3946 23.096 87.6506 22.872 86.6586 22.872C85.9706 22.872 85.2906 22.984 84.6186 23.208C83.9626 23.416 83.4026 23.704 82.9386 24.072L81.5946 21.456C82.2986 20.96 83.1386 20.576 84.1146 20.304C85.1066 20.032 86.1226 19.896 87.1626 19.896ZM86.8746 30.672C87.5146 30.672 88.0826 30.528 88.5786 30.24C89.0746 29.936 89.4266 29.496 89.6346 28.92V27.6H87.0666C85.5306 27.6 84.7626 28.104 84.7626 29.112C84.7626 29.592 84.9466 29.976 85.3146 30.264C85.6986 30.536 86.2186 30.672 86.8746 30.672ZM104.615 19.896C106.215 19.896 107.503 20.376 108.479 21.336C109.471 22.296 109.967 23.72 109.967 25.608V33H106.223V26.184C106.223 25.16 105.999 24.4 105.551 23.904C105.103 23.392 104.455 23.136 103.607 23.136C102.663 23.136 101.911 23.432 101.351 24.024C100.791 24.6 100.511 25.464 100.511 26.616V33H96.7671V20.088H100.343V21.6C100.839 21.056 101.455 20.64 102.191 20.352C102.927 20.048 103.735 19.896 104.615 19.896ZM119.741 33.192C118.365 33.192 117.125 32.912 116.021 32.352C114.933 31.776 114.077 30.984 113.453 29.976C112.845 28.968 112.541 27.824 112.541 26.544C112.541 25.264 112.845 24.12 113.453 23.112C114.077 22.104 114.933 21.32 116.021 20.76C117.125 20.184 118.365 19.896 119.741 19.896C121.101 19.896 122.285 20.184 123.293 20.76C124.317 21.32 125.061 22.128 125.525 23.184L122.621 24.744C121.949 23.56 120.981 22.968 119.717 22.968C118.741 22.968 117.933 23.288 117.293 23.928C116.653 24.568 116.333 25.44 116.333 26.544C116.333 27.648 116.653 28.52 117.293 29.16C117.933 29.8 118.741 30.12 119.717 30.12C120.997 30.12 121.965 29.528 122.621 28.344L125.525 29.928C125.061 30.952 124.317 31.752 123.293 32.328C122.285 32.904 121.101 33.192 119.741 33.192ZM140.165 26.592C140.165 26.64 140.141 26.976 140.093 27.6H130.325C130.501 28.4 130.917 29.032 131.573 29.496C132.229 29.96 133.045 30.192 134.021 30.192C134.693 30.192 135.285 30.096 135.797 29.904C136.325 29.696 136.813 29.376 137.261 28.944L139.253 31.104C138.037 32.496 136.261 33.192 133.925 33.192C132.469 33.192 131.181 32.912 130.061 32.352C128.941 31.776 128.077 30.984 127.469 29.976C126.861 28.968 126.557 27.824 126.557 26.544C126.557 25.28 126.853 24.144 127.445 23.136C128.053 22.112 128.877 21.32 129.917 20.76C130.973 20.184 132.149 19.896 133.445 19.896C134.709 19.896 135.853 20.168 136.877 20.712C137.901 21.256 138.701 22.04 139.277 23.064C139.869 24.072 140.165 25.248 140.165 26.592ZM133.469 22.728C132.621 22.728 131.909 22.968 131.333 23.448C130.757 23.928 130.405 24.584 130.277 25.416H136.637C136.509 24.6 136.157 23.952 135.581 23.472C135.005 22.976 134.301 22.728 133.469 22.728ZM157.783 32.376C157.415 32.648 156.959 32.856 156.415 33C155.887 33.128 155.327 33.192 154.735 33.192C153.199 33.192 152.007 32.8 151.159 32.016C150.327 31.232 149.911 30.08 149.911 28.56V23.256H147.919V20.376H149.911V17.232H153.655V20.376H156.871V23.256H153.655V28.512C153.655 29.056 153.791 29.48 154.063 29.784C154.351 30.072 154.751 30.216 155.263 30.216C155.855 30.216 156.359 30.056 156.775 29.736L157.783 32.376ZM165.63 33.192C164.27 33.192 163.046 32.912 161.958 32.352C160.886 31.776 160.046 30.984 159.438 29.976C158.83 28.968 158.526 27.824 158.526 26.544C158.526 25.264 158.83 24.12 159.438 23.112C160.046 22.104 160.886 21.32 161.958 20.76C163.046 20.184 164.27 19.896 165.63 19.896C166.99 19.896 168.206 20.184 169.278 20.76C170.35 21.32 171.19 22.104 171.798 23.112C172.406 24.12 172.71 25.264 172.71 26.544C172.71 27.824 172.406 28.968 171.798 29.976C171.19 30.984 170.35 31.776 169.278 32.352C168.206 32.912 166.99 33.192 165.63 33.192ZM165.63 30.12C166.59 30.12 167.374 29.8 167.982 29.16C168.606 28.504 168.918 27.632 168.918 26.544C168.918 25.456 168.606 24.592 167.982 23.952C167.374 23.296 166.59 22.968 165.63 22.968C164.67 22.968 163.878 23.296 163.254 23.952C162.63 24.592 162.318 25.456 162.318 26.544C162.318 27.632 162.63 28.504 163.254 29.16C163.878 29.8 164.67 30.12 165.63 30.12ZM186.353 33.192C185.281 33.192 184.233 33.064 183.209 32.808C182.185 32.536 181.369 32.2 180.761 31.8L182.009 29.112C182.585 29.48 183.281 29.784 184.097 30.024C184.913 30.248 185.713 30.36 186.497 30.36C188.081 30.36 188.873 29.968 188.873 29.184C188.873 28.816 188.657 28.552 188.225 28.392C187.793 28.232 187.129 28.096 186.233 27.984C185.177 27.824 184.305 27.64 183.617 27.432C182.929 27.224 182.329 26.856 181.817 26.328C181.321 25.8 181.073 25.048 181.073 24.072C181.073 23.256 181.305 22.536 181.769 21.912C182.249 21.272 182.937 20.776 183.833 20.424C184.745 20.072 185.817 19.896 187.049 19.896C187.961 19.896 188.865 20 189.761 20.208C190.673 20.4 191.425 20.672 192.017 21.024L190.769 23.688C189.633 23.048 188.393 22.728 187.049 22.728C186.249 22.728 185.649 22.84 185.249 23.064C184.849 23.288 184.649 23.576 184.649 23.928C184.649 24.328 184.865 24.608 185.297 24.768C185.729 24.928 186.417 25.08 187.361 25.224C188.417 25.4 189.281 25.592 189.953 25.8C190.625 25.992 191.209 26.352 191.705 26.88C192.201 27.408 192.449 28.144 192.449 29.088C192.449 29.888 192.209 30.6 191.729 31.224C191.249 31.848 190.545 32.336 189.617 32.688C188.705 33.024 187.617 33.192 186.353 33.192ZM200.999 33.192C199.623 33.192 198.383 32.912 197.279 32.352C196.191 31.776 195.335 30.984 194.711 29.976C194.103 28.968 193.799 27.824 193.799 26.544C193.799 25.264 194.103 24.12 194.711 23.112C195.335 22.104 196.191 21.32 197.279 20.76C198.383 20.184 199.623 19.896 200.999 19.896C202.359 19.896 203.543 20.184 204.551 20.76C205.575 21.32 206.319 22.128 206.783 23.184L203.879 24.744C203.207 23.56 202.239 22.968 200.975 22.968C199.999 22.968 199.191 23.288 198.551 23.928C197.911 24.568 197.591 25.44 197.591 26.544C197.591 27.648 197.911 28.52 198.551 29.16C199.191 29.8 199.999 30.12 200.975 30.12C202.255 30.12 203.223 29.528 203.879 28.344L206.783 29.928C206.319 30.952 205.575 31.752 204.551 32.328C203.543 32.904 202.359 33.192 200.999 33.192ZM216.693 19.896C218.293 19.896 219.581 20.376 220.557 21.336C221.549 22.296 222.045 23.72 222.045 25.608V33H218.301V26.184C218.301 25.16 218.077 24.4 217.629 23.904C217.181 23.392 216.533 23.136 215.685 23.136C214.741 23.136 213.989 23.432 213.429 24.024C212.869 24.6 212.589 25.464 212.589 26.616V33H208.845V15.192H212.589V21.432C213.085 20.936 213.685 20.56 214.389 20.304C215.093 20.032 215.861 19.896 216.693 19.896ZM231.724 33.192C230.364 33.192 229.14 32.912 228.052 32.352C226.98 31.776 226.14 30.984 225.532 29.976C224.924 28.968 224.62 27.824 224.62 26.544C224.62 25.264 224.924 24.12 225.532 23.112C226.14 22.104 226.98 21.32 228.052 20.76C229.14 20.184 230.364 19.896 231.724 19.896C233.084 19.896 234.3 20.184 235.372 20.76C236.444 21.32 237.284 22.104 237.892 23.112C238.5 24.12 238.804 25.264 238.804 26.544C238.804 27.824 238.5 28.968 237.892 29.976C237.284 30.984 236.444 31.776 235.372 32.352C234.3 32.912 233.084 33.192 231.724 33.192ZM231.724 30.12C232.684 30.12 233.468 29.8 234.076 29.16C234.7 28.504 235.012 27.632 235.012 26.544C235.012 25.456 234.7 24.592 234.076 23.952C233.468 23.296 232.684 22.968 231.724 22.968C230.764 22.968 229.972 23.296 229.348 23.952C228.724 24.592 228.412 25.456 228.412 26.544C228.412 27.632 228.724 28.504 229.348 29.16C229.972 29.8 230.764 30.12 231.724 30.12ZM247.45 33.192C246.09 33.192 244.866 32.912 243.778 32.352C242.706 31.776 241.866 30.984 241.258 29.976C240.65 28.968 240.346 27.824 240.346 26.544C240.346 25.264 240.65 24.12 241.258 23.112C241.866 22.104 242.706 21.32 243.778 20.76C244.866 20.184 246.09 19.896 247.45 19.896C248.81 19.896 250.026 20.184 251.098 20.76C252.17 21.32 253.01 22.104 253.618 23.112C254.226 24.12 254.53 25.264 254.53 26.544C254.53 27.824 254.226 28.968 253.618 29.976C253.01 30.984 252.17 31.776 251.098 32.352C250.026 32.912 248.81 33.192 247.45 33.192ZM247.45 30.12C248.41 30.12 249.194 29.8 249.802 29.16C250.426 28.504 250.738 27.632 250.738 26.544C250.738 25.456 250.426 24.592 249.802 23.952C249.194 23.296 248.41 22.968 247.45 22.968C246.49 22.968 245.698 23.296 245.074 23.952C244.45 24.592 244.138 25.456 244.138 26.544C244.138 27.632 244.45 28.504 245.074 29.16C245.698 29.8 246.49 30.12 247.45 30.12ZM257.033 15.192H260.777V33H257.033V15.192Z" fill="#E7936D"/>
<path d="M10 3H283V-3H10V3ZM290 10V39H296V10H290ZM283 46H10V52H283V46ZM3 39V10H-3V39H3ZM10 46C6.134 46 3 42.866 3 39H-3C-3 46.1797 2.82029 52 10 52V46ZM290 39C290 42.866 286.866 46 283 46V52C290.18 52 296 46.1797 296 39H290ZM283 3C286.866 3 290 6.13401 290 10H296C296 2.8203 290.18 -3 283 -3V3ZM10 -3C2.8203 -3 -3 2.8203 -3 10H3C3 6.13401 6.13401 3 10 3V-3Z" fill="#E7936D"/>
</svg>
