<svg width="124" height="49" viewBox="0 0 124 49" fill="none" xmlns="http://www.w3.org/2000/svg">
<path d="M0.5 10C0.5 4.47715 4.97715 0 10.5 0H113.5C119.023 0 123.5 4.47715 123.5 10V39C123.5 44.5228 119.023 49 113.5 49H10.5C4.97715 49 0.5 44.5228 0.5 39V10Z" fill="white"/>
<path d="M35.972 19.368H30.596V16.2H45.236V19.368H39.86V33H35.972V19.368ZM46.7827 20.088H50.5267V33H46.7827V20.088ZM48.6547 18.288C47.9667 18.288 47.4067 18.088 46.9747 17.688C46.5427 17.288 46.3267 16.792 46.3267 16.2C46.3267 15.608 46.5427 15.112 46.9747 14.712C47.4067 14.312 47.9667 14.112 48.6547 14.112C49.3427 14.112 49.9027 14.304 50.3347 14.688C50.7667 15.072 50.9827 15.552 50.9827 16.128C50.9827 16.752 50.7667 17.272 50.3347 17.688C49.9027 18.088 49.3427 18.288 48.6547 18.288ZM70.5374 19.896C72.1534 19.896 73.4334 20.376 74.3774 21.336C75.3374 22.28 75.8174 23.704 75.8174 25.608V33H72.0734V26.184C72.0734 25.16 71.8574 24.4 71.4254 23.904C71.0094 23.392 70.4094 23.136 69.6254 23.136C68.7454 23.136 68.0494 23.424 67.5374 24C67.0254 24.56 66.7694 25.4 66.7694 26.52V33H63.0254V26.184C63.0254 24.152 62.2094 23.136 60.5774 23.136C59.7134 23.136 59.0254 23.424 58.5134 24C58.0014 24.56 57.7454 25.4 57.7454 26.52V33H54.0014V20.088H57.5774V21.576C58.0574 21.032 58.6414 20.616 59.3294 20.328C60.0334 20.04 60.8014 19.896 61.6334 19.896C62.5454 19.896 63.3694 20.08 64.1054 20.448C64.8414 20.8 65.4334 21.32 65.8814 22.008C66.4094 21.336 67.0734 20.816 67.8734 20.448C68.6894 20.08 69.5774 19.896 70.5374 19.896ZM91.9619 26.592C91.9619 26.64 91.9379 26.976 91.8899 27.6H82.1219C82.2979 28.4 82.7139 29.032 83.3699 29.496C84.0259 29.96 84.8419 30.192 85.8179 30.192C86.4899 30.192 87.0819 30.096 87.5939 29.904C88.1219 29.696 88.6099 29.376 89.0579 28.944L91.0499 31.104C89.8339 32.496 88.0579 33.192 85.7219 33.192C84.2659 33.192 82.9779 32.912 81.8579 32.352C80.7379 31.776 79.8739 30.984 79.2659 29.976C78.6579 28.968 78.3539 27.824 78.3539 26.544C78.3539 25.28 78.6499 24.144 79.2419 23.136C79.8499 22.112 80.6739 21.32 81.7139 20.76C82.7699 20.184 83.9459 19.896 85.2419 19.896C86.5059 19.896 87.6499 20.168 88.6739 20.712C89.6979 21.256 90.4979 22.04 91.0739 23.064C91.6659 24.072 91.9619 25.248 91.9619 26.592ZM85.2659 22.728C84.4179 22.728 83.7059 22.968 83.1299 23.448C82.5539 23.928 82.2019 24.584 82.0739 25.416H88.4339C88.3059 24.6 87.9539 23.952 87.3779 23.472C86.8019 22.976 86.0979 22.728 85.2659 22.728Z" fill="#E7936D"/>
<path d="M10.5 3H113.5V-3H10.5V3ZM120.5 10V39H126.5V10H120.5ZM113.5 46H10.5V52H113.5V46ZM3.5 39V10H-2.5V39H3.5ZM10.5 46C6.63401 46 3.5 42.866 3.5 39H-2.5C-2.5 46.1797 3.3203 52 10.5 52V46ZM120.5 39C120.5 42.866 117.366 46 113.5 46V52C120.68 52 126.5 46.1797 126.5 39H120.5ZM113.5 3C117.366 3 120.5 6.13401 120.5 10H126.5C126.5 2.8203 120.68 -3 113.5 -3V3ZM10.5 -3C3.3203 -3 -2.5 2.8203 -2.5 10H3.5C3.5 6.13401 6.63401 3 10.5 3V-3Z" fill="#E7936D"/>
</svg>
