<svg width="146" height="49" viewBox="0 0 146 49" fill="none" xmlns="http://www.w3.org/2000/svg">
<path d="M0 10C0 4.47715 4.47715 0 10 0H136C141.523 0 146 4.47715 146 10V39C146 44.5228 141.523 49 136 49H10C4.47715 49 0 44.5228 0 39V10Z" fill="white"/>
<path d="M40.128 33.288C38.384 33.288 36.808 32.912 35.4 32.16C34.008 31.408 32.912 30.376 32.112 29.064C31.328 27.736 30.936 26.248 30.936 24.6C30.936 22.952 31.328 21.472 32.112 20.16C32.912 18.832 34.008 17.792 35.4 17.04C36.808 16.288 38.384 15.912 40.128 15.912C41.872 15.912 43.44 16.288 44.832 17.04C46.224 17.792 47.32 18.832 48.12 20.16C48.92 21.472 49.32 22.952 49.32 24.6C49.32 26.248 48.92 27.736 48.12 29.064C47.32 30.376 46.224 31.408 44.832 32.16C43.44 32.912 41.872 33.288 40.128 33.288ZM40.128 29.976C41.12 29.976 42.016 29.752 42.816 29.304C43.616 28.84 44.24 28.2 44.688 27.384C45.152 26.568 45.384 25.64 45.384 24.6C45.384 23.56 45.152 22.632 44.688 21.816C44.24 21 43.616 20.368 42.816 19.92C42.016 19.456 41.12 19.224 40.128 19.224C39.136 19.224 38.24 19.456 37.44 19.92C36.64 20.368 36.008 21 35.544 21.816C35.096 22.632 34.872 23.56 34.872 24.6C34.872 25.64 35.096 26.568 35.544 27.384C36.008 28.2 36.64 28.84 37.44 29.304C38.24 29.752 39.136 29.976 40.128 29.976ZM60.4232 32.376C60.0552 32.648 59.5992 32.856 59.0552 33C58.5272 33.128 57.9672 33.192 57.3752 33.192C55.8392 33.192 54.6472 32.8 53.7992 32.016C52.9672 31.232 52.5512 30.08 52.5512 28.56V23.256H50.5592V20.376H52.5512V17.232H56.2952V20.376H59.5112V23.256H56.2952V28.512C56.2952 29.056 56.4312 29.48 56.7032 29.784C56.9912 30.072 57.3912 30.216 57.9032 30.216C58.4952 30.216 58.9992 30.056 59.4152 29.736L60.4232 32.376ZM70.3729 19.896C71.9729 19.896 73.2609 20.376 74.2369 21.336C75.2289 22.296 75.7249 23.72 75.7249 25.608V33H71.9809V26.184C71.9809 25.16 71.7569 24.4 71.3089 23.904C70.8609 23.392 70.2129 23.136 69.3649 23.136C68.4209 23.136 67.6689 23.432 67.1089 24.024C66.5489 24.6 66.2689 25.464 66.2689 26.616V33H62.5249V15.192H66.2689V21.432C66.7649 20.936 67.3649 20.56 68.0689 20.304C68.7729 20.032 69.5409 19.896 70.3729 19.896ZM91.9073 26.592C91.9073 26.64 91.8833 26.976 91.8353 27.6H82.0673C82.2433 28.4 82.6593 29.032 83.3153 29.496C83.9713 29.96 84.7873 30.192 85.7633 30.192C86.4353 30.192 87.0273 30.096 87.5393 29.904C88.0673 29.696 88.5553 29.376 89.0033 28.944L90.9953 31.104C89.7793 32.496 88.0033 33.192 85.6673 33.192C84.2113 33.192 82.9233 32.912 81.8033 32.352C80.6833 31.776 79.8193 30.984 79.2113 29.976C78.6033 28.968 78.2993 27.824 78.2993 26.544C78.2993 25.28 78.5953 24.144 79.1873 23.136C79.7953 22.112 80.6193 21.32 81.6593 20.76C82.7153 20.184 83.8913 19.896 85.1873 19.896C86.4513 19.896 87.5953 20.168 88.6193 20.712C89.6433 21.256 90.4433 22.04 91.0193 23.064C91.6113 24.072 91.9073 25.248 91.9073 26.592ZM85.2113 22.728C84.3633 22.728 83.6513 22.968 83.0753 23.448C82.4993 23.928 82.1473 24.584 82.0193 25.416H88.3793C88.2513 24.6 87.8993 23.952 87.3233 23.472C86.7473 22.976 86.0433 22.728 85.2113 22.728ZM97.9759 21.792C98.4239 21.168 99.0239 20.696 99.7759 20.376C100.544 20.056 101.424 19.896 102.416 19.896V23.352C102 23.32 101.72 23.304 101.576 23.304C100.504 23.304 99.6639 23.608 99.0559 24.216C98.4479 24.808 98.1439 25.704 98.1439 26.904V33H94.3999V20.088H97.9759V21.792ZM109.033 33.192C107.961 33.192 106.913 33.064 105.889 32.808C104.865 32.536 104.049 32.2 103.441 31.8L104.689 29.112C105.265 29.48 105.961 29.784 106.777 30.024C107.593 30.248 108.393 30.36 109.177 30.36C110.761 30.36 111.553 29.968 111.553 29.184C111.553 28.816 111.337 28.552 110.905 28.392C110.473 28.232 109.809 28.096 108.913 27.984C107.857 27.824 106.985 27.64 106.297 27.432C105.609 27.224 105.009 26.856 104.497 26.328C104.001 25.8 103.753 25.048 103.753 24.072C103.753 23.256 103.985 22.536 104.449 21.912C104.929 21.272 105.617 20.776 106.513 20.424C107.425 20.072 108.497 19.896 109.729 19.896C110.641 19.896 111.545 20 112.441 20.208C113.353 20.4 114.105 20.672 114.697 21.024L113.449 23.688C112.313 23.048 111.073 22.728 109.729 22.728C108.929 22.728 108.329 22.84 107.929 23.064C107.529 23.288 107.329 23.576 107.329 23.928C107.329 24.328 107.545 24.608 107.977 24.768C108.409 24.928 109.097 25.08 110.041 25.224C111.097 25.4 111.961 25.592 112.633 25.8C113.305 25.992 113.889 26.352 114.385 26.88C114.881 27.408 115.129 28.144 115.129 29.088C115.129 29.888 114.889 30.6 114.409 31.224C113.929 31.848 113.225 32.336 112.297 32.688C111.385 33.024 110.297 33.192 109.033 33.192Z" fill="#E7936D"/>
<path d="M10 3H136V-3H10V3ZM143 10V39H149V10H143ZM136 46H10V52H136V46ZM3 39V10H-3V39H3ZM10 46C6.134 46 3 42.866 3 39H-3C-3 46.1797 2.82029 52 10 52V46ZM143 39C143 42.866 139.866 46 136 46V52C143.18 52 149 46.1797 149 39H143ZM136 3C139.866 3 143 6.13401 143 10H149C149 2.8203 143.18 -3 136 -3V3ZM10 -3C2.8203 -3 -3 2.8203 -3 10H3C3 6.13401 6.13401 3 10 3V-3Z" fill="#E7936D"/>
</svg>
