<svg width="216" height="49" viewBox="0 0 216 49" fill="none" xmlns="http://www.w3.org/2000/svg">
<path d="M0 10C0 4.47715 4.47715 0 10 0H206C211.523 0 216 4.47715 216 10V39C216 44.5228 211.523 49 206 49H10C4.47715 49 0 44.5228 0 39V10Z" fill="white"/>
<path d="M35.472 19.368H30.096V16.2H44.736V19.368H39.36V33H35.472V19.368ZM58.6065 20.088L52.7745 33.792C52.1825 35.28 51.4465 36.328 50.5665 36.936C49.7025 37.544 48.6545 37.848 47.4225 37.848C46.7505 37.848 46.0865 37.744 45.4305 37.536C44.7745 37.328 44.2385 37.04 43.8225 36.672L45.1905 34.008C45.4785 34.264 45.8065 34.464 46.1745 34.608C46.5585 34.752 46.9345 34.824 47.3025 34.824C47.8145 34.824 48.2305 34.696 48.5505 34.44C48.8705 34.2 49.1585 33.792 49.4145 33.216L49.4625 33.096L43.8705 20.088H47.7345L51.3585 28.848L55.0065 20.088H58.6065ZM67.7663 19.896C68.9663 19.896 70.0543 20.176 71.0303 20.736C72.0223 21.28 72.7983 22.056 73.3583 23.064C73.9183 24.056 74.1983 25.216 74.1983 26.544C74.1983 27.872 73.9183 29.04 73.3583 30.048C72.7983 31.04 72.0223 31.816 71.0303 32.376C70.0543 32.92 68.9663 33.192 67.7663 33.192C66.1183 33.192 64.8223 32.672 63.8783 31.632V37.656H60.1343V20.088H63.7103V21.576C64.6383 20.456 65.9903 19.896 67.7663 19.896ZM67.1183 30.12C68.0783 30.12 68.8623 29.8 69.4703 29.16C70.0943 28.504 70.4062 27.632 70.4062 26.544C70.4062 25.456 70.0943 24.592 69.4703 23.952C68.8623 23.296 68.0783 22.968 67.1183 22.968C66.1583 22.968 65.3663 23.296 64.7422 23.952C64.1343 24.592 63.8303 25.456 63.8303 26.544C63.8303 27.632 64.1343 28.504 64.7422 29.16C65.3663 29.8 66.1583 30.12 67.1183 30.12ZM89.3526 26.592C89.3526 26.64 89.3286 26.976 89.2806 27.6H79.5126C79.6886 28.4 80.1046 29.032 80.7606 29.496C81.4166 29.96 82.2326 30.192 83.2086 30.192C83.8806 30.192 84.4726 30.096 84.9846 29.904C85.5126 29.696 86.0006 29.376 86.4486 28.944L88.4406 31.104C87.2246 32.496 85.4486 33.192 83.1126 33.192C81.6566 33.192 80.3686 32.912 79.2486 32.352C78.1286 31.776 77.2646 30.984 76.6566 29.976C76.0486 28.968 75.7446 27.824 75.7446 26.544C75.7446 25.28 76.0406 24.144 76.6326 23.136C77.2406 22.112 78.0646 21.32 79.1046 20.76C80.1606 20.184 81.3366 19.896 82.6326 19.896C83.8966 19.896 85.0406 20.168 86.0646 20.712C87.0886 21.256 87.8886 22.04 88.4646 23.064C89.0566 24.072 89.3526 25.248 89.3526 26.592ZM82.6566 22.728C81.8086 22.728 81.0966 22.968 80.5206 23.448C79.9446 23.928 79.5926 24.584 79.4646 25.416H85.8246C85.6966 24.6 85.3446 23.952 84.7686 23.472C84.1926 22.976 83.4886 22.728 82.6566 22.728ZM111.818 33.288L109.802 31.416C108.202 32.664 106.33 33.288 104.186 33.288C102.97 33.288 101.874 33.096 100.898 32.712C99.9221 32.312 99.1541 31.76 98.5941 31.056C98.0501 30.352 97.7781 29.56 97.7781 28.68C97.7781 27.64 98.0661 26.728 98.6421 25.944C99.2341 25.144 100.178 24.384 101.474 23.664C100.866 23.04 100.426 22.448 100.154 21.888C99.8821 21.312 99.7461 20.72 99.7461 20.112C99.7461 19.296 99.9621 18.576 100.394 17.952C100.826 17.328 101.434 16.848 102.218 16.512C103.018 16.16 103.938 15.984 104.978 15.984C106.434 15.984 107.602 16.336 108.482 17.04C109.362 17.728 109.802 18.664 109.802 19.848C109.802 20.712 109.538 21.48 109.01 22.152C108.498 22.824 107.666 23.472 106.514 24.096L109.586 26.952C109.954 26.184 110.234 25.312 110.426 24.336L113.426 25.272C113.106 26.76 112.594 28.032 111.89 29.088L113.858 30.912L111.818 33.288ZM104.978 18.528C104.418 18.528 103.97 18.672 103.634 18.96C103.314 19.248 103.154 19.616 103.154 20.064C103.154 20.4 103.242 20.72 103.418 21.024C103.594 21.312 103.938 21.704 104.45 22.2C105.266 21.768 105.834 21.384 106.154 21.048C106.474 20.696 106.634 20.32 106.634 19.92C106.634 19.504 106.49 19.168 106.202 18.912C105.914 18.656 105.506 18.528 104.978 18.528ZM104.45 30.36C105.618 30.36 106.666 30.032 107.594 29.376L103.538 25.584C102.786 26.016 102.25 26.44 101.93 26.856C101.61 27.272 101.45 27.744 101.45 28.272C101.45 28.896 101.722 29.4 102.266 29.784C102.81 30.168 103.538 30.36 104.45 30.36ZM130.436 16.2C131.924 16.2 133.212 16.448 134.3 16.944C135.404 17.44 136.252 18.144 136.844 19.056C137.436 19.968 137.732 21.048 137.732 22.296C137.732 23.528 137.436 24.608 136.844 25.536C136.252 26.448 135.404 27.152 134.3 27.648C133.212 28.128 131.924 28.368 130.436 28.368H127.052V33H123.164V16.2H130.436ZM130.22 25.2C131.388 25.2 132.276 24.952 132.884 24.456C133.492 23.944 133.796 23.224 133.796 22.296C133.796 21.352 133.492 20.632 132.884 20.136C132.276 19.624 131.388 19.368 130.22 19.368H127.052V25.2H130.22ZM143.82 21.792C144.268 21.168 144.868 20.696 145.62 20.376C146.388 20.056 147.268 19.896 148.26 19.896V23.352C147.844 23.32 147.564 23.304 147.42 23.304C146.348 23.304 145.508 23.608 144.9 24.216C144.292 24.808 143.988 25.704 143.988 26.904V33H140.244V20.088H143.82V21.792ZM150.486 20.088H154.23V33H150.486V20.088ZM152.358 18.288C151.67 18.288 151.11 18.088 150.678 17.688C150.246 17.288 150.03 16.792 150.03 16.2C150.03 15.608 150.246 15.112 150.678 14.712C151.11 14.312 151.67 14.112 152.358 14.112C153.046 14.112 153.606 14.304 154.038 14.688C154.47 15.072 154.686 15.552 154.686 16.128C154.686 16.752 154.47 17.272 154.038 17.688C153.606 18.088 153.046 18.288 152.358 18.288ZM163.945 33.192C162.569 33.192 161.329 32.912 160.225 32.352C159.137 31.776 158.281 30.984 157.657 29.976C157.049 28.968 156.745 27.824 156.745 26.544C156.745 25.264 157.049 24.12 157.657 23.112C158.281 22.104 159.137 21.32 160.225 20.76C161.329 20.184 162.569 19.896 163.945 19.896C165.305 19.896 166.489 20.184 167.497 20.76C168.521 21.32 169.265 22.128 169.729 23.184L166.825 24.744C166.153 23.56 165.185 22.968 163.921 22.968C162.945 22.968 162.137 23.288 161.497 23.928C160.857 24.568 160.537 25.44 160.537 26.544C160.537 27.648 160.857 28.52 161.497 29.16C162.137 29.8 162.945 30.12 163.921 30.12C165.201 30.12 166.169 29.528 166.825 28.344L169.729 29.928C169.265 30.952 168.521 31.752 167.497 32.328C166.489 32.904 165.305 33.192 163.945 33.192ZM184.368 26.592C184.368 26.64 184.344 26.976 184.296 27.6H174.528C174.704 28.4 175.12 29.032 175.776 29.496C176.432 29.96 177.248 30.192 178.224 30.192C178.896 30.192 179.488 30.096 180 29.904C180.528 29.696 181.016 29.376 181.464 28.944L183.456 31.104C182.24 32.496 180.464 33.192 178.128 33.192C176.672 33.192 175.384 32.912 174.264 32.352C173.144 31.776 172.28 30.984 171.672 29.976C171.064 28.968 170.76 27.824 170.76 26.544C170.76 25.28 171.056 24.144 171.648 23.136C172.256 22.112 173.08 21.32 174.12 20.76C175.176 20.184 176.352 19.896 177.648 19.896C178.912 19.896 180.056 20.168 181.08 20.712C182.104 21.256 182.904 22.04 183.48 23.064C184.072 24.072 184.368 25.248 184.368 26.592ZM177.672 22.728C176.824 22.728 176.112 22.968 175.536 23.448C174.96 23.928 174.608 24.584 174.48 25.416H180.84C180.712 24.6 180.36 23.952 179.784 23.472C179.208 22.976 178.504 22.728 177.672 22.728Z" fill="#E7936D"/>
<path d="M10 3H206V-3H10V3ZM213 10V39H219V10H213ZM206 46H10V52H206V46ZM3 39V10H-3V39H3ZM10 46C6.13401 46 3 42.866 3 39H-3C-3 46.1797 2.8203 52 10 52V46ZM213 39C213 42.866 209.866 46 206 46V52C213.18 52 219 46.1797 219 39H213ZM206 3C209.866 3 213 6.13401 213 10H219C219 2.8203 213.18 -3 206 -3V3ZM10 -3C2.8203 -3 -3 2.8203 -3 10H3C3 6.13401 6.13401 3 10 3V-3Z" fill="#E7936D"/>
</svg>
