<svg width="34" height="46" viewBox="0 0 34 46" fill="none" xmlns="http://www.w3.org/2000/svg">
<circle cx="17" cy="17" r="9" fill="white"/>
<path d="M16.6552 0C7.44724 0 0 7.39497 0 16.5383C0 26.3903 10.5166 39.9753 14.8469 45.1495C15.7986 46.2835 17.5355 46.2835 18.4872 45.1495C22.7938 39.9753 33.3103 26.3903 33.3103 16.5383C33.3103 7.39497 25.8631 0 16.6552 0ZM16.6552 22.4448C15.0776 22.4448 13.5646 21.8225 12.4491 20.7148C11.3336 19.6071 10.7069 18.1048 10.7069 16.5383C10.7069 14.9718 11.3336 13.4694 12.4491 12.3617C13.5646 11.254 15.0776 10.6317 16.6552 10.6317C18.2328 10.6317 19.7457 11.254 20.8612 12.3617C21.9768 13.4694 22.6034 14.9718 22.6034 16.5383C22.6034 18.1048 21.9768 19.6071 20.8612 20.7148C19.7457 21.8225 18.2328 22.4448 16.6552 22.4448Z" fill="#E7936D"/>
</svg>
