<svg width="33" height="36" viewBox="0 0 33 36" fill="current" stroke="current" xmlns="http://www.w3.org/2000/svg">
<path fill-rule="evenodd" clip-rule="evenodd" d="M7.08601 16.7227C6.2852 16.7227 5.5616 17.2003 5.24691 17.9367L3.05629 23.0628C2.90412 23.4188 2.65186 23.7231 2.33013 23.9386L1.38705 24.5702C0.832704 24.9415 0.5 25.5647 0.5 26.2319V33.5699C0.5 34.2114 1.02005 34.7315 1.66156 34.7315H2.11965C2.50816 34.7315 2.82312 34.4165 2.82312 34.028C2.82312 33.6395 3.13807 33.3245 3.52659 33.3245H23.6472C24.0357 33.3245 24.3507 33.6395 24.3507 34.028C24.3507 34.4165 24.6656 34.7315 25.0541 34.7315H25.6671C26.3942 34.7315 26.9835 34.1421 26.9835 33.415V26.3055C26.9835 25.5982 26.61 24.9435 26.0011 24.5837L24.8968 23.9311C24.5415 23.7211 24.2598 23.4063 24.0904 23.0298L21.7838 17.9022C21.4609 17.1843 20.7469 16.7227 19.9598 16.7227H7.08601ZM4.31006 29.6398C5.24427 29.6398 6.00159 28.8825 6.00159 27.9483C6.00159 27.0141 5.24427 26.2567 4.31006 26.2567C3.37586 26.2567 2.61853 27.0141 2.61853 27.9483C2.61853 28.8825 3.37586 29.6398 4.31006 29.6398ZM25.0696 27.9483C25.0696 28.8825 24.3123 29.6398 23.3781 29.6398C22.4439 29.6398 21.6866 28.8825 21.6866 27.9483C21.6866 27.0141 22.4439 26.2567 23.3781 26.2567C24.3123 26.2567 25.0696 27.0141 25.0696 27.9483ZM9.79471 29.6094C9.17191 29.6094 8.66703 30.1143 8.66703 30.7371C8.66703 31.3599 9.17191 31.8647 9.79471 31.8647H17.6885C18.3113 31.8647 18.8162 31.3599 18.8162 30.7371C18.8162 30.1143 18.3113 29.6094 17.6885 29.6094H9.79471Z" fill="current" stroke="current"/>
<path fill-rule="evenodd" clip-rule="evenodd" d="M32.5 0C32.5 0 28.8177 0.634361 26.9146 2.85463C25.4003 4.62127 23.6852 5.91935 22.9411 6.48255C22.75 6.62716 22.623 6.72332 22.5798 6.76652C22.3683 6.97797 21.5609 8.0199 21.311 8.98678C21.0734 9.90622 20.9435 10.5429 21.311 11.4185C21.5053 11.8813 21.9257 12.0764 22.334 12.2659C22.782 12.4739 23.2155 12.6751 23.3199 13.2159C23.4081 13.6734 23.1961 13.9953 22.9767 14.3284C22.7841 14.6207 22.5859 14.9216 22.5798 15.3304C22.5661 16.2443 22.8324 16.7776 23.3199 17.5507C23.5942 17.9857 23.9564 18.206 24.3155 18.4243C24.6913 18.6529 25.0637 18.8794 25.3287 19.348C25.5581 19.7539 25.5598 20.1475 25.5615 20.5347C25.5634 20.9546 25.5652 21.3671 25.8573 21.7797C26.6503 22.8999 29.1348 23.0485 29.1348 23.0485H30.1738V35.489H32.4998V23.0485H32.5V0Z" fill="current" stroke="current"/>
</svg>
