<svg width="35" height="27" viewBox="0 0 35 27" fill="current" stroke="current" xmlns="http://www.w3.org/2000/svg">
<path d="M5.83325 7.24967V3.66634C5.83325 1.83301 7.33325 0.333008 9.16659 0.333008H25.8333C27.6666 0.333008 29.1666 1.83301 29.1666 3.66634V7.26634C27.2333 7.94967 25.8333 9.78301 25.8333 11.9497V15.333H9.16659V11.933C9.16659 9.78301 7.76659 7.93301 5.83325 7.24967ZM30.8333 8.66634C28.9999 8.66634 27.4999 10.1663 27.4999 11.9997V16.9997H7.49992V11.9997C7.49992 11.1156 7.14873 10.2678 6.52361 9.64265C5.89849 9.01753 5.05064 8.66634 4.16659 8.66634C3.28253 8.66634 2.43468 9.01753 1.80956 9.64265C1.18444 10.2678 0.833252 11.1156 0.833252 11.9997V20.333C0.833252 22.1663 2.33325 23.6663 4.16659 23.6663V26.9997H7.49992V23.6663H27.4999V26.9997H30.8333V23.6663C32.6666 23.6663 34.1666 22.1663 34.1666 20.333V11.9997C34.1666 10.1663 32.6666 8.66634 30.8333 8.66634Z" fill="current" stroke="current"/>
</svg>
