<svg width="40" height="40" viewBox="0 0 40 40" fill="current" stroke="current" xmlns="http://www.w3.org/2000/svg">
<path fill-rule="evenodd" clip-rule="evenodd" d="M28.6367 20.5753C28.6367 19.9394 29.1523 19.4238 29.7882 19.4238C30.4242 19.4238 30.9397 19.9394 30.9397 20.5753V21.7269C30.9397 22.3628 30.4242 22.8784 29.7882 22.8784C29.1523 22.8784 28.6367 22.3628 28.6367 21.7269V20.5753Z" fill="current" stroke="current"/>
<path fill-rule="evenodd" clip-rule="evenodd" d="M32.0908 20.5753C32.0908 19.9394 32.6064 19.4238 33.2423 19.4238C33.8783 19.4238 34.3939 19.9394 34.3939 20.5753V21.7269C34.3939 22.3628 33.8783 22.8784 33.2423 22.8784C32.6064 22.8784 32.0908 22.3628 32.0908 21.7269V20.5753Z" fill="current" stroke="current"/>
<path fill-rule="evenodd" clip-rule="evenodd" d="M6.75806 21.1511C6.75806 20.1972 7.53138 19.4238 8.48533 19.4238H25.7581C26.712 19.4238 27.4853 20.1972 27.4853 21.1511C27.4853 22.105 26.712 22.8784 25.7581 22.8784H8.48533C7.53138 22.8784 6.75806 22.105 6.75806 21.1511Z" fill="current" stroke="current"/>
<path fill-rule="evenodd" clip-rule="evenodd" d="M31.8814 13.5734C30.7654 12.734 29.727 12.5412 28.4803 12.1806C25.729 11.3847 24.4978 8.13903 24.3704 5.6084C24.0066 7.30585 24.1839 9.02195 24.417 10.1443C24.759 11.8293 25.7041 13.4117 27.2243 14.2604C28.5052 14.9661 30.2026 15.0252 31.5706 15.7278C32.8949 16.4024 33.9955 17.3102 34.3903 17.8792C34.3934 17.8792 33.6784 14.9257 31.8814 13.5734Z" fill="current" stroke="current"/>
<path fill-rule="evenodd" clip-rule="evenodd" d="M20.0012 1C9.52238 1 1 9.5207 1 20.0024C1 30.4793 9.52238 39 20.0012 39C30.4752 39 39 30.4793 39 20.0024C39 9.5231 30.4752 1 20.0012 1ZM36.9672 20.1865C36.9696 23.7338 35.8638 27.183 33.8196 30.0562C33.4757 30.5395 32.7831 30.5728 32.3645 30.1526L9.97873 7.68343C9.56083 7.26397 9.59568 6.573 10.0784 6.23013C12.9435 4.19509 16.3761 3.09428 19.9058 3.0949C29.3133 3.0949 36.9672 10.7595 36.9672 20.1865ZM3.23319 19.9378C3.23319 16.22 4.43192 12.7757 6.45941 9.97933C6.80586 9.50148 7.49436 9.47163 7.91056 9.89013L30.1301 32.2329C30.5439 32.649 30.5134 33.3327 30.0392 33.6785C27.1692 35.7711 23.7026 36.9048 20.1348 36.9003C10.8131 36.9003 3.23319 29.2884 3.23319 19.9378Z" fill="current" stroke="current" stroke="#4D5E3B"/>
</svg>
