<svg width="40" height="29" viewBox="0 0 40 29" fill="current" stroke="current" xmlns="http://www.w3.org/2000/svg">
<path d="M39 24.3609H38C36.3725 24.3609 35.1375 23.8267 34.4944 23.2253C33.9381 22.7045 33.2656 22.3308 32.5088 22.3308H31.49C30.7331 22.3308 30.0606 22.7045 29.5044 23.2253C28.8625 23.8267 27.6275 24.3609 26 24.3609C24.3725 24.3609 23.1375 23.8267 22.4944 23.2253C21.9381 22.7045 21.2656 22.3308 20.5088 22.3308H19.49C18.7331 22.3308 18.0606 22.7045 17.5044 23.2253C16.8625 23.8267 15.6275 24.3609 14 24.3609C12.3725 24.3609 11.1375 23.8267 10.4944 23.2253C9.93813 22.7045 9.26562 22.3308 8.50875 22.3308H7.49C6.73312 22.3308 6.06063 22.7045 5.50437 23.2253C4.8625 23.8267 3.6275 24.3609 2 24.3609H1C0.4475 24.3609 0 24.8151 0 25.3759V27.406C0 27.9668 0.4475 28.4211 1 28.4211H2C4.41375 28.4211 6.545 27.6477 8 26.4011C9.455 27.6484 11.5863 28.4211 14 28.4211C16.4137 28.4211 18.545 27.6477 20 26.4011C21.455 27.6484 23.5863 28.4211 26 28.4211C28.4137 28.4211 30.545 27.6477 32 26.4011C33.455 27.6484 35.5863 28.4211 38 28.4211H39C39.5525 28.4211 40 27.9668 40 27.406V25.3759C40 24.8151 39.5525 24.3609 39 24.3609ZM14 22.3308V16.2406H26V22.3308C27.195 22.3308 27.9288 21.94 28.1494 21.7332C28.7225 21.1965 29.3494 20.8235 30 20.5869V6.09023C30 4.97115 30.8975 4.06015 32 4.06015C33.1025 4.06015 34 4.97115 34 6.09023V7.10526C34 7.66607 34.4475 8.1203 35 8.1203H37C37.5525 8.1203 38 7.66607 38 7.10526V6.09023C38 2.73172 35.3088 0 32 0C28.6912 0 26 2.73172 26 6.09023V12.1805H14V6.09023C14 4.97115 14.8975 4.06015 16 4.06015C17.1025 4.06015 18 4.97115 18 6.09023V7.10526C18 7.66607 18.4475 8.1203 19 8.1203H21C21.5525 8.1203 22 7.66607 22 7.10526V6.09023C22 2.73172 19.3088 0 16 0C12.6912 0 10 2.73172 10 6.09023V20.5862C10.6506 20.8229 11.2775 21.1965 11.8506 21.7326C12.0712 21.94 12.805 22.3308 14 22.3308Z" fill="current" stroke="current"/>
</svg>
