<svg width="30" height="30" viewBox="0 0 30 30" fill="none" xmlns="http://www.w3.org/2000/svg">
<path d="M26.6667 0H3.33333C1.5 0 0 1.5 0 3.33333V26.6667C0 28.5 1.5 30 3.33333 30H26.6667C28.5 30 30 28.5 30 26.6667V3.33333C30 1.5 28.5 0 26.6667 0ZM9.16667 5C9.7192 5 10.2491 5.21949 10.6398 5.61019C11.0305 6.0009 11.25 6.5308 11.25 7.08333C11.25 7.63587 11.0305 8.16577 10.6398 8.55647C10.2491 8.94717 9.7192 9.16667 9.16667 9.16667C8.61413 9.16667 8.08423 8.94717 7.69353 8.55647C7.30283 8.16577 7.08333 7.63587 7.08333 7.08333C7.08333 6.5308 7.30283 6.0009 7.69353 5.61019C8.08423 5.21949 8.61413 5 9.16667 5ZM13.3333 16.6667C13.3333 17.5833 12.5833 18.3333 11.6667 18.3333V23.3333C11.6667 24.25 10.9167 25 10 25H8.33333C7.41667 25 6.66667 24.25 6.66667 23.3333V18.3333C5.75 18.3333 5 17.5833 5 16.6667V14.1667C5 12.3333 6.5 10.8333 8.33333 10.8333H10C11.8333 10.8333 13.3333 12.3333 13.3333 14.1667V16.6667ZM24.2 17.9333L21.5333 22.2C21.2 22.7167 20.45 22.7167 20.1167 22.2L17.45 17.9333C17.1167 17.3833 17.5167 16.6667 18.1667 16.6667H23.5C24.15 16.6667 24.55 17.3833 24.2 17.9333ZM23.5 13.3333H18.1667C17.5167 13.3333 17.1167 12.6167 17.4667 12.05L20.1333 7.78333C20.4667 7.26667 21.2167 7.26667 21.55 7.78333L24.2167 12.05C24.55 12.6167 24.15 13.3333 23.5 13.3333Z" fill="#4D5E3B"/>
</svg>
