<svg width="38" height="27" viewBox="0 0 38 27" fill="none" xmlns="http://www.w3.org/2000/svg">
<path d="M37.05 23.1429H36.1C34.5539 23.1429 33.3806 22.6354 32.7697 22.0641C32.2412 21.5693 31.6023 21.2143 30.8833 21.2143H29.9155C29.1965 21.2143 28.5576 21.5693 28.0292 22.0641C27.4194 22.6354 26.2461 23.1429 24.7 23.1429C23.1539 23.1429 21.9806 22.6354 21.3697 22.0641C20.8412 21.5693 20.2023 21.2143 19.4833 21.2143H18.5155C17.7965 21.2143 17.1576 21.5693 16.6292 22.0641C16.0194 22.6354 14.8461 23.1429 13.3 23.1429C11.7539 23.1429 10.5806 22.6354 9.96966 22.0641C9.44122 21.5693 8.80234 21.2143 8.08331 21.2143H7.1155C6.39647 21.2143 5.75759 21.5693 5.22916 22.0641C4.61937 22.6354 3.44613 23.1429 1.9 23.1429H0.95C0.425125 23.1429 0 23.5744 0 24.1071V26.0357C0 26.5685 0.425125 27 0.95 27H1.9C4.19306 27 6.21775 26.2653 7.6 25.0811C8.98225 26.2659 11.0069 27 13.3 27C15.5931 27 17.6178 26.2653 19 25.0811C20.3822 26.2659 22.4069 27 24.7 27C26.9931 27 29.0177 26.2653 30.4 25.0811C31.7822 26.2659 33.8069 27 36.1 27H37.05C37.5749 27 38 26.5685 38 26.0357V24.1071C38 23.5744 37.5749 23.1429 37.05 23.1429ZM13.3 21.2143V15.4286H24.7V21.2143C25.8352 21.2143 26.5323 20.843 26.7419 20.6466C27.2864 20.1367 27.8819 19.7823 28.5 19.5575V5.78571C28.5 4.72259 29.3526 3.85714 30.4 3.85714C31.4474 3.85714 32.3 4.72259 32.3 5.78571V6.75C32.3 7.28277 32.7251 7.71429 33.25 7.71429H35.15C35.6749 7.71429 36.1 7.28277 36.1 6.75V5.78571C36.1 2.59513 33.5433 0 30.4 0C27.2567 0 24.7 2.59513 24.7 5.78571V11.5714H13.3V5.78571C13.3 4.72259 14.1526 3.85714 15.2 3.85714C16.2474 3.85714 17.1 4.72259 17.1 5.78571V6.75C17.1 7.28277 17.5251 7.71429 18.05 7.71429H19.95C20.4749 7.71429 20.9 7.28277 20.9 6.75V5.78571C20.9 2.59513 18.3433 0 15.2 0C12.0567 0 9.5 2.59513 9.5 5.78571V19.5569C10.1181 19.7817 10.7136 20.1367 11.2581 20.646C11.4677 20.843 12.1648 21.2143 13.3 21.2143Z" fill="#4D5E3B"/>
</svg>
