<svg width="41" height="40" viewBox="0 0 41 40" fill="current" stroke="current" xmlns="http://www.w3.org/2000/svg">
<path d="M32.3656 19.644C33.8701 20.4187 35.0288 21.3642 35.8417 22.4807C36.6546 23.5971 37.0914 24.7477 37.1521 25.9325C37.2127 27.1173 37.0853 28.2565 36.7699 29.3502C36.4544 30.4438 35.9812 31.4691 35.3503 32.4261C34.5495 33.6565 33.5789 34.6419 32.4384 35.3824C31.2979 36.1229 30.0664 36.5444 28.7439 36.6469C27.4214 36.7495 26.0686 36.459 24.6854 35.7754C24.37 35.6159 24.1091 35.3824 23.9029 35.0748C23.6966 34.7672 23.5389 34.4482 23.4297 34.1179C23.3205 33.7875 23.2477 33.3432 23.2113 32.785C23.1749 32.2267 23.1567 31.754 23.1567 31.3666C23.1567 30.9793 23.1627 30.4097 23.1749 29.6578C23.187 28.9059 23.1931 28.3249 23.1931 27.9148C23.1688 26.1376 23.0111 24.554 22.7199 23.1642C22.1132 23.4148 21.4945 23.5401 20.8635 23.5401C20.2812 23.5401 19.7109 23.4376 19.1528 23.2325C17.5998 24.9186 16.3137 26.0692 15.2945 26.6844C14.0327 27.4363 12.7648 27.8407 11.4908 27.8977C10.2169 27.9546 9.07636 27.7154 8.06932 27.18C7.06229 26.6445 6.17658 25.9895 5.4122 25.2148C4.64783 24.4401 3.98658 23.5743 3.42846 22.6174C2.74901 21.4098 2.34256 20.1965 2.2091 18.9775C2.07563 17.7586 2.25763 16.6136 2.75508 15.5428C3.25253 14.4719 4.07151 13.5947 5.21201 12.9112C5.60026 12.7517 5.97639 12.6605 6.34038 12.6377C6.70436 12.615 7.16542 12.7004 7.72354 12.8941C8.28165 13.0877 8.80337 13.3099 9.28869 13.5605C9.77401 13.8111 10.3382 14.1244 10.9812 14.5004C11.6243 14.8763 12.2309 15.2352 12.8012 15.5769C13.3714 15.9187 13.9963 16.2662 14.6757 16.6193C15.3552 16.9725 15.9861 17.263 16.5685 17.4908C16.8111 16.944 17.163 16.4542 17.624 16.0212C16.6777 13.4238 16.2045 11.4188 16.2045 10.0061C16.2045 8.79855 16.4229 7.71059 16.8597 6.74225C17.2965 5.7739 17.8728 4.98214 18.5886 4.36696C19.3045 3.75178 20.1295 3.23343 21.0637 2.81191C21.998 2.3904 22.9322 2.0942 23.8665 1.92332C24.8007 1.75243 25.741 1.66699 26.6874 1.66699C29.0169 1.66699 30.9582 2.21952 32.5112 3.32457C34.0642 4.42962 34.8407 5.96188 34.8407 7.92134C34.8407 8.5821 34.4403 9.25424 33.6396 9.93777C32.8388 10.6213 31.9228 11.2251 30.8915 11.7491C29.8602 12.2732 28.6287 12.9169 27.197 13.6801C25.7653 14.4434 24.6248 15.144 23.7755 15.782C24.4306 16.2833 24.9038 16.8871 25.195 17.5934C28.4952 18.1858 30.8854 18.8693 32.3656 19.644ZM20.8454 16.9782C20.2023 16.9782 19.6563 17.1946 19.2074 17.6276C18.7585 18.0605 18.534 18.5788 18.534 19.1826C18.534 19.7864 18.7585 20.299 19.2074 20.7206C19.6563 21.1421 20.2023 21.3528 20.8454 21.3528C21.4884 21.3528 22.0404 21.1421 22.5015 20.7206C22.9626 20.299 23.1931 19.7864 23.1931 19.1826C23.1931 18.5788 22.9626 18.0605 22.5015 17.6276C22.0404 17.1946 21.4884 16.9782 20.8454 16.9782Z" fill="current" stroke="current"/>
</svg>
