<svg width="39" height="38" viewBox="0 0 39 38" fill="current" stroke="current" xmlns="http://www.w3.org/2000/svg">
<path d="M34.2778 0H4.72222C2.4 0 0.5 1.9 0.5 4.22222V33.7778C0.5 36.1 2.4 38 4.72222 38H34.2778C36.6 38 38.5 36.1 38.5 33.7778V4.22222C38.5 1.9 36.6 0 34.2778 0ZM12.1111 6.33333C12.811 6.33333 13.4822 6.61136 13.9771 7.10625C14.472 7.60113 14.75 8.27235 14.75 8.97222C14.75 9.6721 14.472 10.3433 13.9771 10.8382C13.4822 11.3331 12.811 11.6111 12.1111 11.6111C11.4112 11.6111 10.74 11.3331 10.2451 10.8382C9.75025 10.3433 9.47222 9.6721 9.47222 8.97222C9.47222 8.27235 9.75025 7.60113 10.2451 7.10625C10.74 6.61136 11.4112 6.33333 12.1111 6.33333ZM17.3889 21.1111C17.3889 22.2722 16.4389 23.2222 15.2778 23.2222V29.5556C15.2778 30.7167 14.3278 31.6667 13.1667 31.6667H11.0556C9.89444 31.6667 8.94444 30.7167 8.94444 29.5556V23.2222C7.78333 23.2222 6.83333 22.2722 6.83333 21.1111V17.9444C6.83333 15.6222 8.73333 13.7222 11.0556 13.7222H13.1667C15.4889 13.7222 17.3889 15.6222 17.3889 17.9444V21.1111ZM31.1533 22.7156L27.7756 28.12C27.3533 28.7744 26.4033 28.7744 25.9811 28.12L22.6033 22.7156C22.1811 22.0189 22.6878 21.1111 23.5111 21.1111H30.2667C31.09 21.1111 31.5967 22.0189 31.1533 22.7156ZM30.2667 16.8889H23.5111C22.6878 16.8889 22.1811 15.9811 22.6244 15.2633L26.0022 9.85889C26.4244 9.20444 27.3744 9.20444 27.7967 9.85889L31.1744 15.2633C31.5967 15.9811 31.09 16.8889 30.2667 16.8889Z" fill="current" stroke="current"/>
</svg>
