<svg width="40" height="40" viewBox="0 0 40 40" fill="current" stroke="current" xmlns="http://www.w3.org/2000/svg">
<path d="M14.0322 36.8506C14.1848 37.016 14.2659 37.2348 14.2579 37.4597C14.25 37.6845 14.1536 37.8971 13.9898 38.0513L12.1481 39.7735C11.9836 39.9263 11.7652 40.0076 11.5409 39.9994C11.3166 39.9913 11.1046 39.8945 10.9516 39.7302L0.225834 28.1709C0.073414 28.0055 -0.00754377 27.7865 0.000553895 27.5617C0.00865156 27.3369 0.10515 27.1243 0.26908 26.9702L2.11338 25.2506C2.19476 25.1748 2.29027 25.1158 2.39446 25.077C2.49864 25.0382 2.60946 25.0203 2.72057 25.0243C2.83169 25.0283 2.94092 25.0542 3.04203 25.1004C3.14314 25.1467 3.23415 25.2124 3.30984 25.2938L14.0322 36.8506ZM27.7182 15.1006C27.8706 15.266 27.9516 15.485 27.9435 15.7098C27.9354 15.9346 27.8389 16.1472 27.675 16.3013L16.0834 27.1296C15.919 27.2824 15.7006 27.3637 15.4763 27.3556C15.2519 27.3475 15.04 27.2507 14.887 27.0864L12.1201 24.1008C11.9677 23.9353 11.8867 23.7163 11.8948 23.4915C11.9029 23.2667 11.9994 23.0541 12.1633 22.9001L23.7523 12.0717C23.8336 11.9959 23.9291 11.937 24.0332 11.8982C24.1373 11.8593 24.2481 11.8414 24.3591 11.8454C24.4701 11.8495 24.5793 11.8753 24.6804 11.9216C24.7814 11.9678 24.8723 12.0335 24.9479 12.1149L27.7182 15.1006ZM17.9761 33.1645C18.2932 33.5063 18.2737 34.0464 17.9328 34.3652L16.0885 36.0866C16.0071 36.1623 15.9116 36.2213 15.8074 36.2602C15.7033 36.299 15.5924 36.3169 15.4813 36.3129C15.3702 36.3089 15.261 36.283 15.1599 36.2368C15.0588 36.1905 14.9678 36.1248 14.8921 36.0433L4.17221 24.484C4.01969 24.3187 3.93858 24.0998 3.94652 23.875C3.95446 23.6501 4.0508 23.4375 4.21461 23.2833L6.05552 21.5628C6.21998 21.41 6.43836 21.3288 6.6627 21.3369C6.88704 21.345 7.09899 21.4418 7.25199 21.6061L17.9761 33.1645ZM35.8365 15.5152C35.9888 15.6808 36.0697 15.8998 36.0614 16.1246C36.0531 16.3495 35.9565 16.562 35.7924 16.7159L33.949 18.4373C33.7845 18.5902 33.566 18.6717 33.3416 18.6637C33.1171 18.6558 32.9049 18.5591 32.7517 18.3949L22.0301 6.83811C21.8774 6.67284 21.7962 6.45392 21.8041 6.22903C21.812 6.00413 21.9085 5.79149 22.0725 5.63741L23.9211 3.91182C24.0024 3.83608 24.0978 3.77712 24.2019 3.7383C24.3061 3.69948 24.4168 3.68157 24.5278 3.68559C24.6389 3.6896 24.7481 3.71547 24.8491 3.76171C24.9501 3.80795 25.0411 3.87365 25.1167 3.95507L35.8365 15.5152ZM39.7744 11.8351C39.9267 12.0008 40.0075 12.2199 39.9994 12.4448C39.9913 12.6697 39.895 12.8823 39.7312 13.0367L37.8911 14.7572C37.8099 14.8329 37.7145 14.892 37.6104 14.9309C37.5063 14.9697 37.3956 14.9877 37.2845 14.9838C37.1735 14.9799 37.0643 14.9541 36.9632 14.9079C36.8622 14.8617 36.7712 14.7961 36.6955 14.7148L25.9757 3.1529C25.8233 2.98729 25.7423 2.76832 25.7502 2.54342C25.7582 2.31852 25.8544 2.10581 26.0181 1.95135L27.8598 0.22746C27.941 0.151594 28.0363 0.0924944 28.1403 0.0535522C28.2443 0.01461 28.355 -0.0034084 28.466 0.000530757C28.577 0.00446991 28.6862 0.0302891 28.7872 0.076507C28.8882 0.122725 28.979 0.188432 29.0546 0.269857L39.7744 11.8351Z" fill="current" stroke="current"/>
</svg>
