<svg width="43" height="43" viewBox="0 0 43 43" fill="current" stroke="current" xmlns="http://www.w3.org/2000/svg">
<rect width="5.1073" height="15.33" transform="matrix(0.739133 0.67356 -0.742524 0.66982 14.2456 4.12793)" fill="current" stroke="current" stroke-width="2" stroke-linecap="round" stroke-linejoin="round"/>
<rect width="5.1073" height="15.33" transform="matrix(0.739133 0.67356 -0.742524 0.66982 37.7241 4.12793)" fill="current" stroke="current" stroke-width="2" stroke-linecap="round" stroke-linejoin="round"/>
<rect width="5.1073" height="15.33" transform="matrix(0.739133 0.67356 -0.742524 0.66982 14.2456 11.5801)" fill="current" stroke="current" stroke-width="2" stroke-linecap="round" stroke-linejoin="round"/>
<rect width="5.1073" height="15.33" transform="matrix(0.739133 -0.67356 -0.742524 -0.66982 25.9849 36.9961)" fill="current" stroke="current" stroke-width="2" stroke-linecap="round" stroke-linejoin="round"/>
<rect width="5.1073" height="15.33" transform="matrix(-0.739133 -0.67356 0.742524 -0.66982 30.1172 40.1904)" fill="current" stroke="current" stroke-width="2" stroke-linecap="round" stroke-linejoin="round"/>
<rect width="5.1073" height="15.33" transform="matrix(0.739133 0.67356 -0.742524 0.66982 14.2456 19.0293)" fill="current" stroke="current" stroke-width="2" stroke-linecap="round" stroke-linejoin="round"/>
<rect width="5.1073" height="15.33" transform="matrix(0.739133 -0.67356 -0.742524 -0.66982 25.9849 29.5449)" fill="current" stroke="current" stroke-width="2" stroke-linecap="round" stroke-linejoin="round"/>
<rect width="5.1073" height="15.33" transform="matrix(-0.739133 -0.67356 0.742524 -0.66982 30.1172 32.7383)" fill="current" stroke="current" stroke-width="2" stroke-linecap="round" stroke-linejoin="round"/>
<rect width="5.1073" height="15.33" transform="matrix(0.739133 0.67356 -0.742524 0.66982 14.2456 26.4814)" fill="current" stroke="current" stroke-width="2" stroke-linecap="round" stroke-linejoin="round"/>
<rect width="5.1073" height="15.33" transform="matrix(0.739133 -0.67356 -0.742524 -0.66982 25.9849 22.0947)" fill="current" stroke="current" stroke-width="2" stroke-linecap="round" stroke-linejoin="round"/>
<rect width="5.1073" height="15.33" transform="matrix(-0.739133 -0.67356 0.742524 -0.66982 30.1172 25.2891)" fill="current" stroke="current" stroke-width="2" stroke-linecap="round" stroke-linejoin="round"/>
<path d="M5.60344 11.1359L1.67685 7.75964L5.98685 4.22624" fill="current" stroke="current" stroke-width="2" stroke-linecap="round" stroke-linejoin="round"/>
<path d="M37.2901 33.9305L41.2167 37.3068L36.9067 40.8402" fill="current" stroke="current" stroke-width="2" stroke-linecap="round" stroke-linejoin="round"/>
<path d="M15.355 33.9311L19.347 37.6546M22.8687 40.8478L19.347 37.6546M15.355 41.3797L19.347 37.6546" fill="current" stroke="current" stroke-width="2" stroke-linecap="round" stroke-linejoin="round"/>
<path d="M30.9694 10.0689L26.9774 6.34545M23.4557 3.1522L26.9774 6.34545M30.9695 2.62034L26.9774 6.34545" fill="current" stroke="current" stroke-width="2" stroke-linecap="round" stroke-linejoin="round"/>
</svg>
