<svg width="33" height="33" viewBox="0 0 33 33" fill="current" stroke="current" xmlns="http://www.w3.org/2000/svg">
<path fill-rule="evenodd" clip-rule="evenodd" d="M5.63033 5.34885L14.1247 0.406921C14.9757 -0.088137 16.0153 -0.134206 16.9067 0.283647L31.2733 7.01832C32.327 7.51225 33 8.57097 33 9.73467V15.5742V20.5319V23.9404V29.6165C33 31.2733 31.6569 32.6165 30 32.6165H3C1.34314 32.6165 0 31.2733 0 29.6165V9.78479C0 8.59543 0.702626 7.51838 1.79116 7.03913L5.63033 5.34885ZM8.45193 14.2141C8.76662 13.4777 9.49023 13 10.291 13H22.2973C23.0844 13 23.7983 13.4617 24.1212 14.1795L26.2544 18.9214C26.4237 19.2979 26.7054 19.6127 27.0608 19.8228L28.0175 20.3881C28.6264 20.748 29 21.4027 29 22.11V28.7573C29 29.4436 28.4436 30 27.7573 30H27.1787C26.8119 30 26.5146 29.7027 26.5146 29.3359C26.5146 28.9692 26.2173 28.6719 25.8506 28.6719H6.85704C6.49029 28.6719 6.19298 28.9692 6.19298 29.3359C6.19298 29.7027 5.89567 30 5.52892 30H5.09649C4.49092 30 4 29.5091 4 28.9035V22.0364C4 21.3692 4.3327 20.7459 4.88705 20.3746L5.69999 19.8302C6.02172 19.6147 6.27398 19.3105 6.42615 18.9544L8.45193 14.2141ZM7.59673 25.1935C8.4786 25.1935 9.1935 24.4786 9.1935 23.5968C9.1935 22.7149 8.4786 22 7.59673 22C6.71485 22 5.99995 22.7149 5.99995 23.5968C5.99995 24.4786 6.71485 25.1935 7.59673 25.1935ZM27.1935 23.5968C27.1935 24.4786 26.4786 25.1935 25.5967 25.1935C24.7149 25.1935 24 24.4786 24 23.5968C24 22.7149 24.7149 22 25.5967 22C26.4786 22 27.1935 22.7149 27.1935 23.5968ZM12.7742 25.1648C12.1863 25.1648 11.7097 25.6414 11.7097 26.2294C11.7097 26.8173 12.1863 27.2939 12.7742 27.2939H20.2258C20.8137 27.2939 21.2903 26.8173 21.2903 26.2294C21.2903 25.6414 20.8137 25.1648 20.2258 25.1648H12.7742Z" fill="current" stroke="current"/>
</svg>
