<svg width="31" height="34" viewBox="0 0 31 34" fill="current" stroke="current" xmlns="http://www.w3.org/2000/svg">
<path d="M1.7 34H28.9C29.3509 34 29.7833 33.8209 30.1021 33.5021C30.4209 33.1833 30.6 32.7509 30.6 32.3V5.1C30.6 2.2882 28.3118 0 25.5 0H5.1C2.2882 0 0 2.2882 0 5.1V32.3C0 32.7509 0.179107 33.1833 0.497918 33.5021C0.81673 33.8209 1.24913 34 1.7 34ZM25.5 3.2708C25.7232 3.2708 25.9443 3.31477 26.1506 3.40021C26.3568 3.48564 26.5442 3.61086 26.7021 3.76872C26.8599 3.92658 26.9852 4.11398 27.0706 4.32024C27.156 4.52649 27.2 4.74755 27.2 4.9708C27.2 5.19405 27.156 5.41511 27.0706 5.62136C26.9852 5.82762 26.8599 6.01502 26.7021 6.17288C26.5442 6.33074 26.3568 6.45596 26.1506 6.5414C25.9443 6.62683 25.7232 6.6708 25.5 6.6708C25.0491 6.6708 24.6167 6.49169 24.2979 6.17288C23.9791 5.85407 23.8 5.42167 23.8 4.9708C23.8 4.51993 23.9791 4.08753 24.2979 3.76872C24.6167 3.44991 25.0491 3.2708 25.5 3.2708ZM20.4 3.2708C20.6232 3.2708 20.8443 3.31477 21.0506 3.40021C21.2568 3.48564 21.4442 3.61086 21.6021 3.76872C21.7599 3.92658 21.8852 4.11398 21.9706 4.32024C22.056 4.52649 22.1 4.74755 22.1 4.9708C22.1 5.19405 22.056 5.41511 21.9706 5.62136C21.8852 5.82762 21.7599 6.01502 21.6021 6.17288C21.4442 6.33074 21.2568 6.45596 21.0506 6.5414C20.8443 6.62683 20.6232 6.6708 20.4 6.6708C19.9491 6.6708 19.5167 6.49169 19.1979 6.17288C18.8791 5.85407 18.7 5.42167 18.7 4.9708C18.7 4.51993 18.8791 4.08753 19.1979 3.76872C19.5167 3.44991 19.9491 3.2708 20.4 3.2708ZM15.3 8.5C20.9253 8.5 25.5 13.0747 25.5 18.7C25.5 24.3253 20.9253 28.9 15.3 28.9C9.6747 28.9 5.1 24.3253 5.1 18.7C5.1 13.0747 9.6747 8.5 15.3 8.5Z" fill="current" stroke="current"/>
<path d="M16.6025 25.3784C18.9808 24.9347 20.9732 23.1429 21.7416 20.8479C22.298 19.2371 22.2047 17.4729 21.4815 15.9298C21.4023 15.7601 21.2673 15.6226 21.099 15.5403C20.9307 15.458 20.7393 15.4359 20.5567 15.4776C19.5299 15.7309 18.8244 16.2392 18.0067 16.8393C16.6705 17.8202 15.0062 19.0391 11.9003 19.0391C10.5182 19.0391 9.43532 18.7909 8.52752 18.4373L8.50542 18.4526C8.46947 19.4759 8.66473 20.4941 9.07668 21.4315C9.48862 22.369 10.1067 23.2014 10.8848 23.867C11.6629 24.5325 12.5811 25.0141 13.571 25.2757C14.561 25.5374 15.5972 25.5725 16.6025 25.3784Z" fill="current" stroke="current"/>
</svg>
