<svg width="41" height="40" viewBox="0 0 41 40" fill="current" stroke="current" xmlns="http://www.w3.org/2000/svg">
<path d="M7.99992 20.0003C10.3011 20.0003 12.1666 18.1348 12.1666 15.8337C12.1666 13.5325 10.3011 11.667 7.99992 11.667C5.69873 11.667 3.83325 13.5325 3.83325 15.8337C3.83325 18.1348 5.69873 20.0003 7.99992 20.0003Z" fill="current" stroke="current"/>
<path d="M15.4999 13.3333C17.8011 13.3333 19.6666 11.4679 19.6666 9.16667C19.6666 6.86548 17.8011 5 15.4999 5C13.1987 5 11.3333 6.86548 11.3333 9.16667C11.3333 11.4679 13.1987 13.3333 15.4999 13.3333Z" fill="current" stroke="current"/>
<path d="M25.4999 13.3333C27.8011 13.3333 29.6666 11.4679 29.6666 9.16667C29.6666 6.86548 27.8011 5 25.4999 5C23.1987 5 21.3333 6.86548 21.3333 9.16667C21.3333 11.4679 23.1987 13.3333 25.4999 13.3333Z" fill="current" stroke="current"/>
<path d="M32.9999 20.0003C35.3011 20.0003 37.1666 18.1348 37.1666 15.8337C37.1666 13.5325 35.3011 11.667 32.9999 11.667C30.6987 11.667 28.8333 13.5325 28.8333 15.8337C28.8333 18.1348 30.6987 20.0003 32.9999 20.0003Z" fill="current" stroke="current"/>
<path d="M29.3999 24.7667C27.9499 23.0667 26.7332 21.6167 25.2666 19.9167C24.4999 19.0167 23.5166 18.1167 22.3499 17.7167C22.1666 17.65 21.9832 17.6 21.7999 17.5667C21.3832 17.5 20.9332 17.5 20.4999 17.5C20.0666 17.5 19.6166 17.5 19.1832 17.5833C18.9999 17.6167 18.8166 17.6667 18.6332 17.7333C17.4666 18.1333 16.4999 19.0333 15.7166 19.9333C14.2666 21.6333 13.0499 23.0833 11.5832 24.7833C9.39991 26.9667 6.71658 29.3833 7.21658 32.7667C7.69991 34.4667 8.91658 36.15 11.0999 36.6333C12.3166 36.8833 16.1999 35.9 20.3332 35.9H20.6332C24.7666 35.9 28.6499 36.8667 29.8666 36.6333C32.0499 36.15 33.2666 34.45 33.7499 32.7667C34.2666 29.3667 31.5832 26.95 29.3999 24.7667Z" fill="current" stroke="current"/>
</svg>
