<svg viewBox="0 0 359 408" fill="none" xmlns="http://www.w3.org/2000/svg">
<g clip-path="url(#clip0)">
<path d="M239.846 404.713C239.849 403.028 215.55 401.623 185.572 401.575C155.595 401.527 131.291 402.854 131.288 404.539C131.285 406.224 155.585 407.628 185.562 407.676C215.54 407.725 239.844 406.398 239.846 404.713Z" fill="#E6E6E6"/>
<path d="M178.708 296.952C146.261 296.951 114.818 285.702 89.7358 265.121C64.6527 244.54 47.4832 215.9 41.1527 184.08C34.8223 152.261 39.7226 119.231 55.0187 90.6189C70.3148 62.0069 95.0602 39.5828 125.039 27.1675C155.017 14.7522 188.374 13.1138 219.425 22.5314C250.476 31.949 277.301 51.8399 295.328 78.8151C313.356 105.79 321.47 138.181 318.29 170.467C315.109 202.753 300.832 232.937 277.889 255.877C277.888 255.877 277.888 255.878 277.887 255.878M178.708 296.952C178.709 296.952 178.71 296.952 178.712 296.952V295.845C197.563 295.845 215.551 292.077 231.961 285.256C248.947 278.196 264.243 267.864 277.058 255.051L277.886 255.88C277.886 255.879 277.887 255.879 277.887 255.878M178.708 296.952L178.711 295.845L178.708 296.952ZM178.708 296.952C197.135 297.002 215.389 293.397 232.413 286.347C249.437 279.297 264.893 268.941 277.887 255.878M178.708 296.952L277.887 255.878M42.5654 156.722C42.5654 81.666 103.641 20.6003 178.712 20.6003C253.782 20.6003 314.858 81.666 314.858 156.722C314.858 231.779 253.782 292.845 178.712 292.845C103.641 292.845 42.5654 231.779 42.5654 156.722Z" fill="#FDF4F0" stroke="#FDF4F0" stroke-width="3"/>
<path d="M85.4657 223.31H73.7192V233.691H85.4657V223.31Z" fill="#3F3D56"/>
<path d="M85.4657 205.342H73.7192V215.558H85.4657V205.342Z" fill="#3F3D56"/>
<path d="M33.263 220.555H21.5166V230.936H33.263V220.555Z" fill="#3F3D56"/>
<path d="M33.263 202.587H21.5166V212.803H33.263V202.587Z" fill="#3F3D56"/>
<path d="M101.263 153.875H90.7314V190.323H101.263V153.875Z" fill="#3F3D56"/>
<path d="M108.217 183.466L82.6037 153L31.1891 153.47L0 183.843L0.630436 184.248H0.405161V247.425H108.148V184.248L108.217 183.466Z" fill="#3F3D56"/>
<path d="M82.6307 153.065L50.6318 190.573V247.425H108.149V183.438L82.6307 153.065Z" fill="#E7936D"/>
<path d="M85.4662 215.985H73.7197V226.366H85.4662V215.985Z" fill="white"/>
<path d="M85.4662 198.018H73.7197V208.234H85.4662V198.018Z" fill="white"/>
<path d="M33.263 213.23H21.5166V223.611H33.263V213.23Z" fill="white"/>
<path d="M33.263 195.263H21.5166V205.479H33.263V195.263Z" fill="white"/>
<path d="M285.281 62.9854H273.534V73.366H285.281V62.9854Z" fill="#3F3D56"/>
<path d="M285.281 45.0176H273.534V55.2336H285.281V45.0176Z" fill="#3F3D56"/>
<path d="M337.482 60.2305H325.736V70.6111H337.482V60.2305Z" fill="#3F3D56"/>
<path d="M337.482 42.2627H325.736V52.4787H337.482V42.2627Z" fill="#3F3D56"/>
<path d="M268.485 6.87451H257.954V43.3225H268.485V6.87451Z" fill="#3F3D56"/>
<path d="M251.069 37.2484V136.948H358.812V37.2484H358.587L359.217 36.8433L328.028 6.46984L276.614 6L251 36.4664L251.069 37.2484Z" fill="#3F3D56"/>
<path d="M251.068 36.4384V136.948H308.585V43.5739L276.586 6.06494L251.068 36.4384Z" fill="#E7936D"/>
<path d="M285.497 68.9854H273.751V79.366H285.497V68.9854Z" fill="white"/>
<path d="M285.497 51.0176H273.751V61.2336H285.497V51.0176Z" fill="white"/>
<path d="M337.7 66.2305H325.953V76.6111H337.7V66.2305Z" fill="white"/>
<path d="M337.7 48.2627H325.953V58.4787H337.7V48.2627Z" fill="white"/>
<path d="M285.497 105.508H273.751V115.889H285.497V105.508Z" fill="white"/>
<path d="M285.497 87.5405H273.751V97.7566H285.497V87.5405Z" fill="white"/>
<path d="M337.7 102.754H325.953V113.135H337.7V102.754Z" fill="white"/>
<path d="M337.7 84.7861H325.953V95.0022H337.7V84.7861Z" fill="white"/>
<mask id="path-29-inside-1" fill="white">
<path fill-rule="evenodd" clip-rule="evenodd" d="M194.063 113.965C198.848 110.974 202.032 105.659 202.032 99.6004C202.032 90.2516 194.452 82.6729 185.101 82.6729C175.751 82.6729 168.171 90.2516 168.171 99.6004C168.171 104.617 170.354 109.124 173.821 112.224C175.051 118.233 173.015 124.243 167.713 130.252L196.541 129.795C194.488 124.138 193.398 118.78 194.063 113.965Z"/>
</mask>
<path d="M194.063 113.965L193.533 113.117L193.136 113.365L193.072 113.828L194.063 113.965ZM173.821 112.224L174.801 112.023L174.735 111.699L174.488 111.478L173.821 112.224ZM167.713 130.252L166.963 129.591L165.466 131.288L167.729 131.252L167.713 130.252ZM196.541 129.795L196.557 130.795L197.96 130.773L197.481 129.454L196.541 129.795ZM194.592 114.813C199.658 111.647 203.032 106.018 203.032 99.6004H201.032C201.032 105.3 198.038 110.301 193.533 113.117L194.592 114.813ZM203.032 99.6004C203.032 89.6991 195.004 81.6729 185.101 81.6729V83.6729C193.9 83.6729 201.032 90.804 201.032 99.6004H203.032ZM185.101 81.6729C175.199 81.6729 167.171 89.6991 167.171 99.6004H169.171C169.171 90.804 176.303 83.6729 185.101 83.6729V81.6729ZM167.171 99.6004C167.171 104.914 169.484 109.688 173.155 112.969L174.488 111.478C171.223 108.56 169.171 104.321 169.171 99.6004H167.171ZM172.842 112.424C173.99 118.036 172.127 123.738 166.963 129.591L168.463 130.914C173.903 124.748 176.112 118.43 174.801 112.023L172.842 112.424ZM167.729 131.252L196.557 130.795L196.525 128.795L167.698 129.253L167.729 131.252ZM197.481 129.454C195.451 123.861 194.421 118.683 195.053 114.102L193.072 113.828C192.375 118.878 193.525 124.416 195.601 130.136L197.481 129.454Z" fill="black" mask="url(#path-29-inside-1)"/>
<path d="M147.688 235.949L147.666 236.081L147.713 236.206L152.5 248.969C152.884 249.993 153.031 251.091 152.929 252.18C152.827 253.27 152.479 254.321 151.912 255.257C151.344 256.192 150.572 256.986 149.653 257.58C148.733 258.173 147.692 258.55 146.605 258.683C145.566 258.809 144.512 258.709 143.516 258.388C142.519 258.068 141.604 257.535 140.834 256.826C140.064 256.117 139.457 255.25 139.055 254.283L138.593 254.475L139.055 254.283C138.652 253.317 138.465 252.275 138.505 251.229L139.071 236.515L139.072 236.507L143.155 161.66L159.056 166.386L147.688 235.949Z" stroke="black"/>
<path d="M205.235 93.1952C205.235 93.1952 200.659 103.26 197.456 103.718C194.253 104.175 188.762 109.208 189.677 111.495C190.593 113.783 190.135 120.645 180.983 119.73C171.832 118.815 172.289 117.9 172.289 117.9C172.289 117.9 157.647 89.9927 172.747 82.6727C187.847 75.3527 201.117 80.8427 205.235 93.1952Z" fill="#2F2E41"/>
<path fill-rule="evenodd" clip-rule="evenodd" d="M170.347 383.393L170.602 383.364L182.893 245.235L199.836 383.113L198.649 389.346L197.388 399.941C196.726 405.494 200.296 405.074 205.26 404.491C207.003 404.286 208.918 404.061 210.882 404.067C221.331 404.067 212.949 390.995 212.949 390.995L213.499 379.448L213.063 379.391L216.124 231H155.124L156.88 379.415L156.631 379.448L157.181 390.995C157.181 390.995 148.799 404.067 159.248 404.067C161.212 404.061 163.127 404.286 164.87 404.491C169.834 405.074 173.403 405.494 172.742 399.941L171.481 389.346L170.347 383.393Z" fill="#2F2E41"/>
<path d="M282.741 137.351L282.667 137.382L282.606 137.434L244.803 170.073L214.62 155.248L219.766 140.746L241.61 153.999L241.893 154.171L242.161 153.978L276.166 129.581L276.214 129.546L276.253 129.501L284.929 119.397C285.776 118.41 286.843 117.636 288.045 117.137C289.246 116.637 290.548 116.427 291.845 116.522C293.143 116.618 294.4 117.017 295.515 117.686C296.63 118.356 297.572 119.278 298.266 120.379C298.911 121.401 299.324 122.552 299.479 123.751C299.633 124.949 299.523 126.167 299.158 127.319C298.793 128.472 298.181 129.53 297.365 130.422C296.548 131.313 295.547 132.016 294.432 132.48L282.741 137.351Z" stroke="black"/>
<path d="M172.979 174.665L135 168.26L141.257 152.728C143.457 147.266 146.81 142.343 151.087 138.295C155.364 134.247 160.463 131.17 166.038 129.272L172.5 127.5L172.979 174.665Z" fill="#F3D990"/>
<path d="M218.42 161.718L230.687 141.236L224.815 136.912C218.201 127.973 208.075 126.291 197.201 125.494L193.598 125.231L198.336 153.17L218.42 161.718Z" fill="#F3D990"/>
<path d="M149 235H217.624C213.978 207.5 210.978 194 210.978 188.5C210.978 185.317 206.978 151.041 206.978 148C206.978 145 200.978 133 198.978 131L193.978 126L172.293 127.358L159.478 138C156.654 139.77 153.978 150 153.978 150C153.978 150 153.978 154.28 154.978 157C167.603 191.342 153.359 201.34 149 235Z" fill="#ECECEC"/>
</g>
<defs>
<clipPath id="clip0">
<rect width="359" height="407.678" fill="white"/>
</clipPath>
</defs>
</svg>
