<svg width="24" height="27" viewBox="0 0 40 27" fill="none" xmlns="http://www.w3.org/2000/svg">
<path d="M18.5593 12.5248C12.6396 12.5248 7.17178 10.1059 1.15643 10.1059C0.79651 10.4658 3.45381 14.1209 4.48246 14.9438C7.07266 17.0159 11.5 17.9999 15 18.4999C18.2511 18.9643 24.4532 17.1111 25.3122 20.1176C25.7243 21.5599 26 23.9094 26 25.4999C26 27.2377 29.0507 23.8655 29.8477 23.41C31.4918 22.4705 32.9539 21.4726 34.4168 20.0504C35.3301 19.1625 36.57 17.8839 37.7428 17.3627C38.1462 17.1834 39.0982 16.9375 38.7843 16.6236C34.9377 12.777 31.8546 8.5088 28 4.5C27.0355 3.49694 25.3633 0.0590597 24.741 1.30369C23.3523 4.08108 24.2475 8.78395 24.1363 11.7857C24.084 13.1987 19.5518 12.5248 18.5593 12.5248Z" fill="#F2DED1" stroke="#F2DED1" stroke-linecap="round" stroke-linejoin="round"/>
</svg>
