<svg width="118" height="122" viewBox="0 0 118 122" fill="none" xmlns="http://www.w3.org/2000/svg">
<path d="M0.00991249 8.66898C0.00683022 8.13203 0.137039 7.6031 0.388281 7.13201C0.639523 6.66092 1.00353 6.26316 1.44602 5.9762C1.88852 5.68923 2.39494 5.5225 2.9176 5.4917C3.44027 5.4609 3.96198 5.56704 4.4336 5.80014C4.46477 5.2594 4.6274 4.73526 4.90668 4.2755C5.18596 3.81575 5.573 3.43502 6.03251 3.16801C6.49202 2.901 7.00939 2.75622 7.53744 2.74686C8.06549 2.73749 8.58743 2.86386 9.05567 3.11442C9.10847 2.3368 9.42425 1.60248 9.94852 1.03814C10.4728 0.473805 11.1727 0.114852 11.9274 0.0232146C12.6821 -0.0684228 13.4443 0.113002 14.0826 0.536188C14.7208 0.959374 15.195 1.59778 15.4234 2.34125C15.9208 2.03527 16.4899 1.87353 17.0699 1.87329C17.4967 1.87462 17.919 1.96232 18.3126 2.13137C18.7063 2.30042 19.0635 2.54749 19.3639 2.85842C19.6643 3.16935 19.9019 3.53803 20.0631 3.94332C20.2243 4.34862 20.306 4.78255 20.3033 5.22027V18.0995C21.5729 16.4718 22.8127 14.8645 23.0012 14.5898C23.288 14.1226 23.6864 13.7382 24.1584 13.473C24.6305 13.2077 25.1608 13.0704 25.6991 13.074C26.1556 13.0598 26.6102 13.1418 27.0346 13.3148C27.4591 13.4879 27.8445 13.7483 28.167 14.0801C28.4895 14.4118 28.7423 14.8078 28.9098 15.2437C29.0773 15.6796 29.1559 16.146 29.1408 16.6143C29.0515 18.4454 25.5999 24.9156 23.2789 28.4355C19.7677 33.7663 16.4153 34.5394 16.2665 34.5394H5.83212C5.63468 34.5372 5.44326 34.4694 5.2866 34.3461C3.5055 32.6626 2.21743 30.503 1.56713 28.11C0.575272 24.9665 0.0495872 20.4496 -5.72205e-06 14.3151L0.00991249 8.66898ZM3.26321 27.5403C3.82013 29.4765 4.81989 31.2483 6.17928 32.7083H16.0086C16.4748 32.5658 19.0536 31.5892 21.8308 27.3673C24.608 23.1454 27.3059 17.5197 27.3555 16.5227C27.3635 16.3097 27.3279 16.0974 27.251 15.8994C27.1741 15.7014 27.0577 15.5221 26.9091 15.3731C26.7628 15.2187 26.5867 15.0973 26.3919 15.0167C26.1972 14.9361 25.9883 14.8981 25.7784 14.9052C25.5164 14.8895 25.2553 14.9488 25.0241 15.0763C24.793 15.2038 24.6009 15.3946 24.4692 15.6275C24.1815 16.0649 22.1284 18.6794 20.9282 20.2359L18.518 18.5675V5.22027C18.5347 5.01283 18.5092 4.8041 18.4433 4.60725C18.3773 4.41041 18.2723 4.22973 18.1348 4.07662C17.9973 3.92352 17.8304 3.80131 17.6445 3.71772C17.4587 3.63414 17.2579 3.59098 17.055 3.59098C16.8521 3.59098 16.6513 3.63414 16.4655 3.71772C16.2796 3.80131 16.1127 3.92352 15.9752 4.07662C15.8377 4.22973 15.7327 4.41041 15.6668 4.60725C15.6008 4.8041 15.5753 5.01283 15.592 5.22027V16.5532H13.8067V3.32805C13.7645 2.9537 13.5895 2.60832 13.3152 2.35762C13.0409 2.10693 12.6863 1.9684 12.3189 1.9684C11.9515 1.9684 11.5969 2.10693 11.3225 2.35762C11.0482 2.60832 10.8733 2.9537 10.8311 3.32805V16.6855H9.04575V6.05447C9.06214 5.85389 9.03778 5.652 8.97419 5.46157C8.9106 5.27114 8.80918 5.09632 8.67634 4.94816C8.54349 4.8 8.38211 4.68173 8.20241 4.60083C8.02271 4.51993 7.8286 4.47816 7.63235 4.47816C7.4361 4.47816 7.24199 4.51993 7.06228 4.60083C6.88258 4.68173 6.7212 4.8 6.58836 4.94816C6.45551 5.09632 6.35409 5.27114 6.2905 5.46157C6.22692 5.652 6.20255 5.85389 6.21895 6.05447V17.6926H4.4336V8.63846C4.40501 8.30118 4.25417 7.98715 4.01087 7.75836C3.76756 7.52957 3.44947 7.40264 3.11939 7.40264C2.7893 7.40264 2.47122 7.52957 2.22791 7.75836C1.98461 7.98715 1.83377 8.30118 1.80518 8.63846V14.2846C1.83493 20.297 2.31102 24.5799 3.26321 27.5403Z" fill="#E7936D"/>
<path d="M2.15869 31.1421V39.6284C2.15869 63.1072 14.6469 83.6441 33.2381 95.0724V121.663H118V110.348C118 95.2987 87.8812 87.7176 72.7936 87.7176H71.3809C44.5396 87.7176 21.9365 65.0874 21.9365 39.6284V31.1421H2.15869ZM72.7936 31.1421C66.7989 31.1421 61.0497 33.5263 56.8108 37.7703C52.5718 42.0143 50.1904 47.7704 50.1904 53.7723C50.1904 59.7742 52.5718 65.5303 56.8108 69.7743C61.0497 74.0182 66.7989 76.4025 72.7936 76.4025C78.7884 76.4025 84.5376 74.0182 88.7765 69.7743C93.0154 65.5303 95.3968 59.7742 95.3968 53.7723C95.3968 47.7704 93.0154 42.0143 88.7765 37.7703C84.5376 33.5263 78.7884 31.1421 72.7936 31.1421Z" fill="#A5BF84"/>
</svg>
