<svg width="173" height="176" viewBox="0 0 173 176" fill="none" xmlns="http://www.w3.org/2000/svg">
<path d="M162.616 82.4263C167.504 155.357 94.5735 160.831 54.295 160.831C14.0165 160.831 0.506875 136.195 16.7543 82.4263C52.1442 -34.6927 78.54 6.34998 89.6849 9.49569C138.175 23.1825 157.346 3.8062 162.616 82.4263Z" fill="#E7936D" fill-opacity="0.1"/>
<path d="M8.9808 69.1934C30.5338 69.1934 52.0012 72.8925 72.6651 79.0506C87.3484 83.4264 100.651 91.6263 115.583 95.3593C124.131 97.4963 132.052 101.313 140.586 103.334C150.652 105.718 159.7 106.573 169.964 106.573" stroke="#D7AC89" stroke-opacity="0.3" stroke-width="5" stroke-linecap="round" stroke-linejoin="round"/>
<path d="M31.4088 23.8386C39.1319 23.8386 47.3598 22.9835 54.8612 25.1123C61.9593 27.1266 68.9093 29.2415 75.5171 32.5883C88.5524 39.1906 101.473 46.2575 115.251 51.2506C124.106 54.4601 132.55 57.6552 141.832 59.4465C150.784 61.174 160.151 62.0049 168.967 64.209" stroke="#D7AC89" stroke-opacity="0.3" stroke-width="5" stroke-linecap="round" stroke-linejoin="round"/>
<path d="M3 117.538C9.7466 117.538 15.1509 118.226 21.2746 121.359C26.8203 124.196 32.1846 127.571 37.3895 130.994C44.9191 135.946 51.8167 142.869 59.8175 146.943C74.678 154.511 90.8118 154.918 107.165 154.918" stroke="#D7AC89" stroke-opacity="0.3" stroke-width="5" stroke-linecap="round" stroke-linejoin="round"/>
<path d="M13.9648 161.397C15.3088 154.229 19.9184 147.673 23.3236 141.295C25.7611 136.729 27.9829 132.306 29.9136 127.506C34.0882 117.126 39.3317 107.275 43.1765 96.7434C48.6813 81.6652 54.5934 66.6325 63.7217 53.355C70.3475 43.7174 76.2985 33.5723 79.7535 22.3435" stroke="#D7AC89" stroke-opacity="0.3" stroke-width="5" stroke-linecap="round" stroke-linejoin="round"/>
<path d="M140.06 9.38501C139.624 18.9727 134.129 27.6645 129.704 35.9109C125.493 43.7594 123.809 52.9569 119.875 60.997C117.945 64.9394 116.464 69.0932 114.669 73.097C112.679 77.5358 110.272 81.7697 108.771 86.4154C106.439 93.6373 103.252 101.486 99.4126 108.068C96.1138 113.723 94.0229 120.135 91.4382 126.121C88.9139 131.967 85.6841 137.152 82.2455 142.458C79.4927 146.705 77.6982 151.616 74.2434 155.416C69.433 160.707 65.6414 166.841 61.8111 172.86" stroke="#D7AC89" stroke-opacity="0.3" stroke-width="5" stroke-linecap="round" stroke-linejoin="round"/>
<path d="M70.3355 104.144C70.0049 103.813 69.5567 103.628 69.0893 103.628C68.6219 103.628 68.1736 103.813 67.843 104.144L55.5043 116.482C55.1832 116.815 55.0056 117.26 55.0096 117.722C55.0136 118.185 55.199 118.627 55.5258 118.953C55.8526 119.28 56.2947 119.466 56.7569 119.47C57.219 119.474 57.6643 119.296 57.9967 118.975L58.5132 118.458V130.067C58.5132 130.535 58.6989 130.983 59.0295 131.314C59.3601 131.644 59.8084 131.83 60.2759 131.83H63.8012C64.2687 131.83 64.7171 131.644 65.0476 131.314C65.3782 130.983 65.5639 130.535 65.5639 130.067V126.542C65.5639 126.075 65.7496 125.626 66.0802 125.296C66.4108 124.965 66.8591 124.779 67.3266 124.779H70.8519C71.3194 124.779 71.7678 124.965 72.0983 125.296C72.4289 125.626 72.6146 126.075 72.6146 126.542V130.067C72.6146 130.535 72.8003 130.983 73.1309 131.314C73.4615 131.644 73.9098 131.83 74.3773 131.83H77.9026C78.3701 131.83 78.8185 131.644 79.149 131.314C79.4796 130.983 79.6653 130.535 79.6653 130.067V118.458L80.1818 118.975C80.5142 119.296 80.9595 119.474 81.4216 119.47C81.8838 119.466 82.3259 119.28 82.6527 118.953C82.9795 118.627 83.1649 118.185 83.1689 117.722C83.1729 117.26 82.9953 116.815 82.6742 116.482L70.3355 104.144Z" fill="#A5BF84"/>
<path d="M92.3259 8.38767C91.9954 8.05722 91.5471 7.87158 91.0797 7.87158C90.6123 7.87158 90.1641 8.05722 89.8335 8.38767L77.4948 20.7264C77.1737 21.0588 76.9961 21.5041 77.0001 21.9663C77.0041 22.4284 77.1895 22.8705 77.5163 23.1973C77.8431 23.5242 78.2852 23.7095 78.7474 23.7136C79.2095 23.7176 79.6548 23.5399 79.9872 23.2188L80.5037 22.7024V34.3113C80.5037 34.7788 80.6894 35.2272 81.02 35.5577C81.3505 35.8883 81.7989 36.074 82.2664 36.074H85.7917C86.2592 36.074 86.7075 35.8883 87.0381 35.5577C87.3687 35.2272 87.5544 34.7788 87.5544 34.3113V30.786C87.5544 30.3185 87.7401 29.8701 88.0707 29.5396C88.4012 29.209 88.8496 29.0233 89.3171 29.0233H92.8424C93.3099 29.0233 93.7582 29.209 94.0888 29.5396C94.4194 29.8701 94.6051 30.3185 94.6051 30.786V34.3113C94.6051 34.7788 94.7908 35.2272 95.1214 35.5577C95.4519 35.8883 95.9003 36.074 96.3678 36.074H99.8931C100.361 36.074 100.809 35.8883 101.14 35.5577C101.47 35.2272 101.656 34.7788 101.656 34.3113V22.7024L102.172 23.2188C102.505 23.5399 102.95 23.7176 103.412 23.7136C103.874 23.7095 104.316 23.5242 104.643 23.1973C104.97 22.8705 105.155 22.4284 105.159 21.9663C105.163 21.5041 104.986 21.0588 104.665 20.7264L92.3259 8.38767Z" fill="#A5BF84"/>
<path d="M141.506 69.3408C141.176 69.0103 140.728 68.8247 140.26 68.8247C139.793 68.8247 139.344 69.0103 139.014 69.3408L126.675 81.6795C126.354 82.012 126.176 82.4572 126.18 82.9194C126.185 83.3816 126.37 83.8237 126.697 84.1505C127.024 84.4773 127.466 84.6627 127.928 84.6667C128.39 84.6707 128.835 84.493 129.168 84.1719L129.684 83.6555V95.2645C129.684 95.7319 129.87 96.1803 130.2 96.5109C130.531 96.8414 130.979 97.0271 131.447 97.0271H134.972C135.44 97.0271 135.888 96.8414 136.219 96.5109C136.549 96.1803 136.735 95.7319 136.735 95.2645V91.7391C136.735 91.2716 136.921 90.8233 137.251 90.4927C137.582 90.1621 138.03 89.9764 138.497 89.9764H142.023C142.49 89.9764 142.939 90.1621 143.269 90.4927C143.6 90.8233 143.786 91.2716 143.786 91.7391V95.2645C143.786 95.7319 143.971 96.1803 144.302 96.5109C144.632 96.8414 145.081 97.0271 145.548 97.0271H149.074C149.541 97.0271 149.989 96.8414 150.32 96.5109C150.65 96.1803 150.836 95.7319 150.836 95.2645V83.6555L151.353 84.1719C151.685 84.493 152.13 84.6707 152.593 84.6667C153.055 84.6627 153.497 84.4773 153.824 84.1505C154.15 83.8237 154.336 83.3816 154.34 82.9194C154.344 82.4572 154.166 82.012 153.845 81.6795L141.506 69.3408Z" fill="#A5BF84"/>
<path d="M119.999 111.574C119.668 111.244 119.22 111.058 118.752 111.058C118.285 111.058 117.837 111.244 117.506 111.574L105.168 123.913C104.846 124.245 104.669 124.691 104.673 125.153C104.677 125.615 104.862 126.057 105.189 126.384C105.516 126.711 105.958 126.896 106.42 126.9C106.882 126.904 107.328 126.726 107.66 126.405L108.176 125.889V137.498C108.176 137.965 108.362 138.414 108.693 138.744C109.023 139.075 109.472 139.261 109.939 139.261H113.464C113.932 139.261 114.38 139.075 114.711 138.744C115.041 138.414 115.227 137.965 115.227 137.498V133.973C115.227 133.505 115.413 133.057 115.743 132.726C116.074 132.396 116.522 132.21 116.99 132.21H120.515C120.983 132.21 121.431 132.396 121.762 132.726C122.092 133.057 122.278 133.505 122.278 133.973V137.498C122.278 137.965 122.464 138.414 122.794 138.744C123.125 139.075 123.573 139.261 124.04 139.261H127.566C128.033 139.261 128.482 139.075 128.812 138.744C129.143 138.414 129.329 137.965 129.329 137.498V125.889L129.845 126.405C130.177 126.726 130.623 126.904 131.085 126.9C131.547 126.896 131.989 126.711 132.316 126.384C132.643 126.057 132.828 125.615 132.832 125.153C132.836 124.691 132.658 124.245 132.337 123.913L119.999 111.574Z" fill="#A5BF84"/>
<path d="M18.3259 71.2959C17.9954 70.9654 17.5471 70.7798 17.0797 70.7798C16.6123 70.7798 16.1641 70.9654 15.8335 71.2959L3.4948 83.6346C3.17372 83.967 2.99605 84.4123 3.00007 84.8745C3.00408 85.3366 3.18946 85.7787 3.51628 86.1055C3.84309 86.4324 4.28519 86.6177 4.74736 86.6218C5.20953 86.6258 5.65478 86.4481 5.98723 86.127L6.50369 85.6106V97.2195C6.50369 97.687 6.6894 98.1354 7.01997 98.4659C7.35053 98.7965 7.79887 98.9822 8.26636 98.9822H11.7917C12.2592 98.9822 12.7075 98.7965 13.0381 98.4659C13.3687 98.1354 13.5544 97.687 13.5544 97.2195V93.6942C13.5544 93.2267 13.7401 92.7783 14.0707 92.4478C14.4012 92.1172 14.8496 91.9315 15.3171 91.9315H18.8424C19.3099 91.9315 19.7582 92.1172 20.0888 92.4478C20.4194 92.7783 20.6051 93.2267 20.6051 93.6942V97.2195C20.6051 97.687 20.7908 98.1354 21.1214 98.4659C21.4519 98.7965 21.9003 98.9822 22.3678 98.9822H25.8931C26.3606 98.9822 26.8089 98.7965 27.1395 98.4659C27.4701 98.1354 27.6558 97.687 27.6558 97.2195V85.6106L28.1723 86.127C28.5047 86.4481 28.95 86.6258 29.4121 86.6218C29.8743 86.6177 30.3164 86.4324 30.6432 86.1055C30.97 85.7787 31.1554 85.3366 31.1594 84.8745C31.1634 84.4123 30.9858 83.967 30.6647 83.6346L18.3259 71.2959Z" fill="#A5BF84"/>
<path d="M45.3083 37.2746C44.9778 36.9442 44.5295 36.7585 44.0621 36.7585C43.5947 36.7585 43.1464 36.9442 42.8159 37.2746L30.4772 49.6134C30.1561 49.9458 29.9784 50.3911 29.9824 50.8532C29.9864 51.3154 30.1718 51.7575 30.4986 52.0843C30.8255 52.4111 31.2676 52.5965 31.7297 52.6005C32.1919 52.6045 32.6371 52.4269 32.9696 52.1058L33.4861 51.5893V63.1983C33.4861 63.6658 33.6718 64.1141 34.0023 64.4447C34.3329 64.7753 34.7812 64.961 35.2487 64.961H38.7741C39.2416 64.961 39.6899 64.7753 40.0205 64.4447C40.351 64.1141 40.5367 63.6658 40.5367 63.1983V59.6729C40.5367 59.2055 40.7225 58.7571 41.053 58.4265C41.3836 58.096 41.8319 57.9103 42.2994 57.9103H45.8248C46.2923 57.9103 46.7406 58.096 47.0712 58.4265C47.4017 58.7571 47.5874 59.2055 47.5874 59.6729V63.1983C47.5874 63.6658 47.7732 64.1141 48.1037 64.4447C48.4343 64.7753 48.8826 64.961 49.3501 64.961H52.8755C53.343 64.961 53.7913 64.7753 54.1219 64.4447C54.4524 64.1141 54.6381 63.6658 54.6381 63.1983V51.5893L55.1546 52.1058C55.4871 52.4269 55.9323 52.6045 56.3945 52.6005C56.8566 52.5965 57.2987 52.4111 57.6256 52.0843C57.9524 51.7575 58.1378 51.3154 58.1418 50.8532C58.1458 50.3911 57.9681 49.9458 57.647 49.6134L45.3083 37.2746Z" fill="#A5BF84"/>
<path d="M88.7109 49.6027C88.2426 49.1346 87.6076 48.8716 86.9455 48.8716C86.2834 48.8716 85.6483 49.1346 85.1801 49.6027L67.7009 67.0818C67.2461 67.5528 66.9944 68.1835 67.0001 68.8382C67.0058 69.4929 67.2684 70.1192 67.7314 70.5822C68.1943 71.0452 68.8206 71.3078 69.4753 71.3134C70.13 71.3191 70.7608 71.0675 71.2317 70.6126L71.9634 69.881V86.3263C71.9634 86.9886 72.2264 87.6237 72.6947 88.092C73.163 88.5603 73.7981 88.8234 74.4604 88.8234H79.4544C80.1167 88.8234 80.7518 88.5603 81.2201 88.092C81.6884 87.6237 81.9514 86.9886 81.9514 86.3263V81.3323C81.9514 80.6701 82.2145 80.0349 82.6828 79.5666C83.1511 79.0984 83.7862 78.8353 84.4485 78.8353H89.4425C90.1047 78.8353 90.7399 79.0984 91.2082 79.5666C91.6764 80.0349 91.9395 80.6701 91.9395 81.3323V86.3263C91.9395 86.9886 92.2026 87.6237 92.6709 88.092C93.1392 88.5603 93.7743 88.8234 94.4365 88.8234H99.4306C100.093 88.8234 100.728 88.5603 101.196 88.092C101.665 87.6237 101.928 86.9886 101.928 86.3263V69.881L102.659 70.6126C103.13 71.0675 103.761 71.3191 104.416 71.3134C105.07 71.3078 105.697 71.0452 106.16 70.5822C106.623 70.1192 106.885 69.4929 106.891 68.8382C106.897 68.1835 106.645 67.5528 106.19 67.0818L88.7109 49.6027Z" fill="#E7936D"/>
<path d="M150.109 23.197C149.779 22.8665 149.331 22.6809 148.863 22.6809C148.396 22.6809 147.948 22.8665 147.617 23.197L135.278 35.5357C134.957 35.8682 134.78 36.3134 134.784 36.7756C134.788 37.2378 134.973 37.6799 135.3 38.0067C135.627 38.3335 136.069 38.5189 136.531 38.5229C136.993 38.5269 137.438 38.3492 137.771 38.0281L138.287 37.5117V49.1207C138.287 49.5881 138.473 50.0365 138.803 50.3671C139.134 50.6976 139.582 50.8833 140.05 50.8833H143.575C144.043 50.8833 144.491 50.6976 144.822 50.3671C145.152 50.0365 145.338 49.5881 145.338 49.1207V45.5953C145.338 45.1278 145.524 44.6795 145.854 44.3489C146.185 44.0183 146.633 43.8326 147.101 43.8326H150.626C151.093 43.8326 151.542 44.0183 151.872 44.3489C152.203 44.6795 152.389 45.1278 152.389 45.5953V49.1207C152.389 49.5881 152.574 50.0365 152.905 50.3671C153.235 50.6976 153.684 50.8833 154.151 50.8833H157.677C158.144 50.8833 158.592 50.6976 158.923 50.3671C159.254 50.0365 159.439 49.5881 159.439 49.1207V37.5117L159.956 38.0281C160.288 38.3492 160.733 38.5269 161.196 38.5229C161.658 38.5189 162.1 38.3335 162.427 38.0067C162.754 37.6799 162.939 37.2378 162.943 36.7756C162.947 36.3134 162.769 35.8682 162.448 35.5357L150.109 23.197Z" fill="#A5BF84"/>
</svg>
