<svg width="160" height="44" viewBox="0 0 160 44" fill="none" xmlns="http://www.w3.org/2000/svg">
<path d="M0 10C0 4.47715 4.47715 0 10 0H150C155.523 0 160 4.47715 160 10V34C160 39.5228 155.523 44 150 44H10C4.47715 44 0 39.5228 0 34V10Z" fill="white"/>
<path d="M42.5 26.4V29H31.66V15H42.24V17.6H34.88V20.64H41.38V23.16H34.88V26.4H42.5ZM49.1198 18.08C50.7865 18.08 52.0665 18.48 52.9598 19.28C53.8532 20.0667 54.2998 21.26 54.2998 22.86V29H51.3798V27.66C50.7932 28.66 49.6998 29.16 48.0998 29.16C47.2732 29.16 46.5532 29.02 45.9398 28.74C45.3398 28.46 44.8798 28.0733 44.5598 27.58C44.2398 27.0867 44.0798 26.5267 44.0798 25.9C44.0798 24.9 44.4532 24.1133 45.1998 23.54C45.9598 22.9667 47.1265 22.68 48.6998 22.68H51.1798C51.1798 22 50.9732 21.48 50.5598 21.12C50.1465 20.7467 49.5265 20.56 48.6998 20.56C48.1265 20.56 47.5598 20.6533 46.9998 20.84C46.4532 21.0133 45.9865 21.2533 45.5998 21.56L44.4798 19.38C45.0665 18.9667 45.7665 18.6467 46.5798 18.42C47.4065 18.1933 48.2532 18.08 49.1198 18.08ZM48.8798 27.06C49.4132 27.06 49.8865 26.94 50.2998 26.7C50.7132 26.4467 51.0065 26.08 51.1798 25.6V24.5H49.0398C47.7598 24.5 47.1198 24.92 47.1198 25.76C47.1198 26.16 47.2732 26.48 47.5798 26.72C47.8998 26.9467 48.3332 27.06 48.8798 27.06ZM60.1036 19.66C60.4769 19.14 60.9769 18.7467 61.6036 18.48C62.2436 18.2133 62.9769 18.08 63.8036 18.08V20.96C63.4569 20.9333 63.2236 20.92 63.1036 20.92C62.2103 20.92 61.5103 21.1733 61.0036 21.68C60.4969 22.1733 60.2436 22.92 60.2436 23.92V29H57.1236V18.24H60.1036V19.66ZM65.6588 14.16H68.7788V29H65.6588V14.16ZM82.3544 18.24L77.4944 29.66C77.001 30.9 76.3877 31.7733 75.6544 32.28C74.9344 32.7867 74.061 33.04 73.0344 33.04C72.4744 33.04 71.921 32.9533 71.3744 32.78C70.8277 32.6067 70.381 32.3667 70.0344 32.06L71.1744 29.84C71.4144 30.0533 71.6877 30.22 71.9944 30.34C72.3144 30.46 72.6277 30.52 72.9344 30.52C73.361 30.52 73.7077 30.4133 73.9744 30.2C74.241 30 74.481 29.66 74.6944 29.18L74.7344 29.08L70.0744 18.24H73.2944L76.3144 25.54L79.3544 18.24H82.3544ZM95.6516 18.08C96.6516 18.08 97.5582 18.3133 98.3716 18.78C99.1982 19.2333 99.8449 19.88 100.312 20.72C100.778 21.5467 101.012 22.5133 101.012 23.62C101.012 24.7267 100.778 25.7 100.312 26.54C99.8449 27.3667 99.1982 28.0133 98.3716 28.48C97.5582 28.9333 96.6516 29.16 95.6516 29.16C94.1716 29.16 93.0449 28.6933 92.2716 27.76V29H89.2916V14.16H92.4116V19.38C93.1982 18.5133 94.2782 18.08 95.6516 18.08ZM95.1116 26.6C95.9116 26.6 96.5649 26.3333 97.0716 25.8C97.5916 25.2533 97.8516 24.5267 97.8516 23.62C97.8516 22.7133 97.5916 21.9933 97.0716 21.46C96.5649 20.9133 95.9116 20.64 95.1116 20.64C94.3116 20.64 93.6516 20.9133 93.1316 21.46C92.6249 21.9933 92.3716 22.7133 92.3716 23.62C92.3716 24.5267 92.6249 25.2533 93.1316 25.8C93.6516 26.3333 94.3116 26.6 95.1116 26.6ZM103.1 18.24H106.22V29H103.1V18.24ZM104.66 16.74C104.087 16.74 103.62 16.5733 103.26 16.24C102.9 15.9067 102.72 15.4933 102.72 15C102.72 14.5067 102.9 14.0933 103.26 13.76C103.62 13.4267 104.087 13.26 104.66 13.26C105.233 13.26 105.7 13.42 106.06 13.74C106.42 14.06 106.6 14.46 106.6 14.94C106.6 15.46 106.42 15.8933 106.06 16.24C105.7 16.5733 105.233 16.74 104.66 16.74ZM112.096 19.66C112.469 19.14 112.969 18.7467 113.596 18.48C114.236 18.2133 114.969 18.08 115.796 18.08V20.96C115.449 20.9333 115.216 20.92 115.096 20.92C114.202 20.92 113.502 21.1733 112.996 21.68C112.489 22.1733 112.236 22.92 112.236 23.92V29H109.116V18.24H112.096V19.66ZM128.513 14.16V29H125.533V27.76C124.76 28.6933 123.64 29.16 122.173 29.16C121.16 29.16 120.24 28.9333 119.413 28.48C118.6 28.0267 117.96 27.38 117.493 26.54C117.027 25.7 116.793 24.7267 116.793 23.62C116.793 22.5133 117.027 21.54 117.493 20.7C117.96 19.86 118.6 19.2133 119.413 18.76C120.24 18.3067 121.16 18.08 122.173 18.08C123.547 18.08 124.62 18.5133 125.393 19.38V14.16H128.513ZM122.713 26.6C123.5 26.6 124.153 26.3333 124.673 25.8C125.193 25.2533 125.453 24.5267 125.453 23.62C125.453 22.7133 125.193 21.9933 124.673 21.46C124.153 20.9133 123.5 20.64 122.713 20.64C121.913 20.64 121.253 20.9133 120.733 21.46C120.213 21.9933 119.953 22.7133 119.953 23.62C119.953 24.5267 120.213 25.2533 120.733 25.8C121.253 26.3333 121.913 26.6 122.713 26.6Z" fill="#D3AB98"/>
<path d="M10 3H150V-3H10V3ZM157 10V34H163V10H157ZM150 41H10V47H150V41ZM3 34V10H-3V34H3ZM10 41C6.13401 41 3 37.866 3 34H-3C-3 41.1797 2.8203 47 10 47V41ZM157 34C157 37.866 153.866 41 150 41V47C157.18 47 163 41.1797 163 34H157ZM150 3C153.866 3 157 6.13401 157 10H163C163 2.8203 157.18 -3 150 -3V3ZM10 -3C2.8203 -3 -3 2.8203 -3 10H3C3 6.13401 6.13401 3 10 3V-3Z" fill="#D3AB98"/>
</svg>
