<svg width="166" height="44" viewBox="0 0 166 44" fill="none" xmlns="http://www.w3.org/2000/svg">
<path d="M0 10C0 4.47715 4.47715 0 10 0H156C161.523 0 166 4.47715 166 10V34C166 39.5228 161.523 44 156 44H10C4.47716 44 0 39.5228 0 34V10Z" fill="#E7936D"/>
<path d="M34.9 17.6V21.3H41.38V23.9H34.9V29H31.66V15H42.24V17.6H34.9ZM54.78 18.24V29H51.82V27.72C51.4067 28.1867 50.9133 28.5467 50.34 28.8C49.7667 29.04 49.1467 29.16 48.48 29.16C47.0667 29.16 45.9467 28.7533 45.12 27.94C44.2933 27.1267 43.88 25.92 43.88 24.32V18.24H47V23.86C47 25.5933 47.7267 26.46 49.18 26.46C49.9267 26.46 50.5267 26.22 50.98 25.74C51.4333 25.2467 51.66 24.52 51.66 23.56V18.24H54.78ZM60.6505 19.66C61.0238 19.14 61.5238 18.7467 62.1505 18.48C62.7905 18.2133 63.5238 18.08 64.3505 18.08V20.96C64.0038 20.9333 63.7705 20.92 63.6505 20.92C62.7571 20.92 62.0571 21.1733 61.5505 21.68C61.0438 22.1733 60.7905 22.92 60.7905 23.92V29H57.6705V18.24H60.6505V19.66ZM72.7456 18.08C74.079 18.08 75.1523 18.48 75.9656 19.28C76.7923 20.08 77.2056 21.2667 77.2056 22.84V29H74.0856V23.32C74.0856 22.4667 73.899 21.8333 73.5256 21.42C73.1523 20.9933 72.6123 20.78 71.9056 20.78C71.119 20.78 70.4923 21.0267 70.0256 21.52C69.559 22 69.3256 22.72 69.3256 23.68V29H66.2056V18.24H69.1856V19.5C69.599 19.0467 70.1123 18.7 70.7256 18.46C71.339 18.2067 72.0123 18.08 72.7456 18.08ZM80.0338 18.24H83.1538V29H80.0338V18.24ZM81.5938 16.74C81.0204 16.74 80.5538 16.5733 80.1938 16.24C79.8338 15.9067 79.6538 15.4933 79.6538 15C79.6538 14.5067 79.8338 14.0933 80.1938 13.76C80.5538 13.4267 81.0204 13.26 81.5938 13.26C82.1671 13.26 82.6338 13.42 82.9938 13.74C83.3538 14.06 83.5338 14.46 83.5338 14.94C83.5338 15.46 83.3538 15.8933 82.9938 16.24C82.6338 16.5733 82.1671 16.74 81.5938 16.74ZM89.6694 29.16C88.776 29.16 87.9027 29.0533 87.0494 28.84C86.196 28.6133 85.516 28.3333 85.0094 28L86.0494 25.76C86.5294 26.0667 87.1094 26.32 87.7894 26.52C88.4694 26.7067 89.136 26.8 89.7894 26.8C91.1094 26.8 91.7694 26.4733 91.7694 25.82C91.7694 25.5133 91.5894 25.2933 91.2294 25.16C90.8694 25.0267 90.316 24.9133 89.5694 24.82C88.6894 24.6867 87.9627 24.5333 87.3894 24.36C86.816 24.1867 86.316 23.88 85.8894 23.44C85.476 23 85.2694 22.3733 85.2694 21.56C85.2694 20.88 85.4627 20.28 85.8494 19.76C86.2494 19.2267 86.8227 18.8133 87.5694 18.52C88.3294 18.2267 89.2227 18.08 90.2494 18.08C91.0094 18.08 91.7627 18.1667 92.5094 18.34C93.2694 18.5 93.896 18.7267 94.3894 19.02L93.3494 21.24C92.4027 20.7067 91.3694 20.44 90.2494 20.44C89.5827 20.44 89.0827 20.5333 88.7494 20.72C88.416 20.9067 88.2494 21.1467 88.2494 21.44C88.2494 21.7733 88.4294 22.0067 88.7894 22.14C89.1494 22.2733 89.7227 22.4 90.5094 22.52C91.3894 22.6667 92.1094 22.8267 92.6694 23C93.2294 23.16 93.716 23.46 94.1294 23.9C94.5427 24.34 94.7494 24.9533 94.7494 25.74C94.7494 26.4067 94.5494 27 94.1494 27.52C93.7494 28.04 93.1627 28.4467 92.3894 28.74C91.6294 29.02 90.7227 29.16 89.6694 29.16ZM103.214 18.08C104.548 18.08 105.621 18.48 106.434 19.28C107.261 20.08 107.674 21.2667 107.674 22.84V29H104.554V23.32C104.554 22.4667 104.368 21.8333 103.994 21.42C103.621 20.9933 103.081 20.78 102.374 20.78C101.588 20.78 100.961 21.0267 100.494 21.52C100.028 22 99.7944 22.72 99.7944 23.68V29H96.6744V14.16H99.7944V19.36C100.208 18.9467 100.708 18.6333 101.294 18.42C101.881 18.1933 102.521 18.08 103.214 18.08ZM121.16 23.66C121.16 23.7 121.14 23.98 121.1 24.5H112.96C113.106 25.1667 113.453 25.6933 114 26.08C114.546 26.4667 115.226 26.66 116.04 26.66C116.6 26.66 117.093 26.58 117.52 26.42C117.96 26.2467 118.366 25.98 118.74 25.62L120.4 27.42C119.386 28.58 117.906 29.16 115.96 29.16C114.746 29.16 113.673 28.9267 112.74 28.46C111.806 27.98 111.086 27.32 110.58 26.48C110.073 25.64 109.82 24.6867 109.82 23.62C109.82 22.5667 110.066 21.62 110.56 20.78C111.066 19.9267 111.753 19.2667 112.62 18.8C113.5 18.32 114.48 18.08 115.56 18.08C116.613 18.08 117.566 18.3067 118.42 18.76C119.273 19.2133 119.94 19.8667 120.42 20.72C120.913 21.56 121.16 22.54 121.16 23.66ZM115.58 20.44C114.873 20.44 114.28 20.64 113.8 21.04C113.32 21.44 113.026 21.9867 112.92 22.68H118.22C118.113 22 117.82 21.46 117.34 21.06C116.86 20.6467 116.273 20.44 115.58 20.44ZM134.197 14.16V29H131.217V27.76C130.444 28.6933 129.324 29.16 127.857 29.16C126.844 29.16 125.924 28.9333 125.097 28.48C124.284 28.0267 123.644 27.38 123.177 26.54C122.71 25.7 122.477 24.7267 122.477 23.62C122.477 22.5133 122.71 21.54 123.177 20.7C123.644 19.86 124.284 19.2133 125.097 18.76C125.924 18.3067 126.844 18.08 127.857 18.08C129.23 18.08 130.304 18.5133 131.077 19.38V14.16H134.197ZM128.397 26.6C129.184 26.6 129.837 26.3333 130.357 25.8C130.877 25.2533 131.137 24.5267 131.137 23.62C131.137 22.7133 130.877 21.9933 130.357 21.46C129.837 20.9133 129.184 20.64 128.397 20.64C127.597 20.64 126.937 20.9133 126.417 21.46C125.897 21.9933 125.637 22.7133 125.637 23.62C125.637 24.5267 125.897 25.2533 126.417 25.8C126.937 26.3333 127.597 26.6 128.397 26.6Z" fill="white"/>
<path d="M10 3H156V-3H10V3ZM163 10V34H169V10H163ZM156 41H10V47H156V41ZM3 34V10H-3V34H3ZM10 41C6.13401 41 3 37.866 3 34H-3C-3 41.1797 2.8203 47 10 47V41ZM163 34C163 37.866 159.866 41 156 41V47C163.18 47 169 41.1797 169 34H163ZM156 3C159.866 3 163 6.13401 163 10H169C169 2.8203 163.18 -3 156 -3V3ZM10 -3C2.8203 -3 -3 2.8203 -3 10H3C3 6.13401 6.13401 3 10 3V-3Z" fill="#E7936D"/>
</svg>
