<svg width="309" height="44" viewBox="0 0 309 44" fill="none" xmlns="http://www.w3.org/2000/svg">
<path d="M0 10C0 4.47715 4.47715 0 10 0H299C304.523 0 309 4.47715 309 10V34C309 39.5228 304.523 44 299 44H10C4.47715 44 0 39.5228 0 34V10Z" fill="white"/>
<path d="M38.36 29.24C36.9333 29.24 35.64 28.9333 34.48 28.32C33.3333 27.6933 32.4267 26.8333 31.76 25.74C31.1067 24.6333 30.78 23.3867 30.78 22C30.78 20.6133 31.1067 19.3733 31.76 18.28C32.4267 17.1733 33.3333 16.3133 34.48 15.7C35.64 15.0733 36.94 14.76 38.38 14.76C39.5933 14.76 40.6867 14.9733 41.66 15.4C42.6467 15.8267 43.4733 16.44 44.14 17.24L42.06 19.16C41.1133 18.0667 39.94 17.52 38.54 17.52C37.6733 17.52 36.9 17.7133 36.22 18.1C35.54 18.4733 35.0067 19 34.62 19.68C34.2467 20.36 34.06 21.1333 34.06 22C34.06 22.8667 34.2467 23.64 34.62 24.32C35.0067 25 35.54 25.5333 36.22 25.92C36.9 26.2933 37.6733 26.48 38.54 26.48C39.94 26.48 41.1133 25.9267 42.06 24.82L44.14 26.74C43.4733 27.5533 42.6467 28.1733 41.66 28.6C40.6733 29.0267 39.5733 29.24 38.36 29.24ZM46.108 14.16H49.228V29H46.108V14.16ZM57.2436 29.16C56.1103 29.16 55.0903 28.9267 54.1836 28.46C53.2903 27.98 52.5903 27.32 52.0836 26.48C51.5769 25.64 51.3236 24.6867 51.3236 23.62C51.3236 22.5533 51.5769 21.6 52.0836 20.76C52.5903 19.92 53.2903 19.2667 54.1836 18.8C55.0903 18.32 56.1103 18.08 57.2436 18.08C58.3769 18.08 59.3903 18.32 60.2836 18.8C61.1769 19.2667 61.8769 19.92 62.3836 20.76C62.8903 21.6 63.1436 22.5533 63.1436 23.62C63.1436 24.6867 62.8903 25.64 62.3836 26.48C61.8769 27.32 61.1769 27.98 60.2836 28.46C59.3903 28.9267 58.3769 29.16 57.2436 29.16ZM57.2436 26.6C58.0436 26.6 58.6969 26.3333 59.2036 25.8C59.7236 25.2533 59.9836 24.5267 59.9836 23.62C59.9836 22.7133 59.7236 21.9933 59.2036 21.46C58.6969 20.9133 58.0436 20.64 57.2436 20.64C56.4436 20.64 55.7836 20.9133 55.2636 21.46C54.7436 21.9933 54.4836 22.7133 54.4836 23.62C54.4836 24.5267 54.7436 25.2533 55.2636 25.8C55.7836 26.3333 56.4436 26.6 57.2436 26.6ZM68.8491 29.16C67.9557 29.16 67.0824 29.0533 66.2291 28.84C65.3757 28.6133 64.6957 28.3333 64.1891 28L65.2291 25.76C65.7091 26.0667 66.2891 26.32 66.9691 26.52C67.6491 26.7067 68.3157 26.8 68.9691 26.8C70.2891 26.8 70.9491 26.4733 70.9491 25.82C70.9491 25.5133 70.7691 25.2933 70.4091 25.16C70.0491 25.0267 69.4957 24.9133 68.7491 24.82C67.8691 24.6867 67.1424 24.5333 66.5691 24.36C65.9957 24.1867 65.4957 23.88 65.0691 23.44C64.6557 23 64.4491 22.3733 64.4491 21.56C64.4491 20.88 64.6424 20.28 65.0291 19.76C65.4291 19.2267 66.0024 18.8133 66.7491 18.52C67.5091 18.2267 68.4024 18.08 69.4291 18.08C70.1891 18.08 70.9424 18.1667 71.6891 18.34C72.4491 18.5 73.0757 18.7267 73.5691 19.02L72.5291 21.24C71.5824 20.7067 70.5491 20.44 69.4291 20.44C68.7624 20.44 68.2624 20.5333 67.9291 20.72C67.5957 20.9067 67.4291 21.1467 67.4291 21.44C67.4291 21.7733 67.6091 22.0067 67.9691 22.14C68.3291 22.2733 68.9024 22.4 69.6891 22.52C70.5691 22.6667 71.2891 22.8267 71.8491 23C72.4091 23.16 72.8957 23.46 73.3091 23.9C73.7224 24.34 73.9291 24.9533 73.9291 25.74C73.9291 26.4067 73.7291 27 73.3291 27.52C72.9291 28.04 72.3424 28.4467 71.5691 28.74C70.8091 29.02 69.9024 29.16 68.8491 29.16ZM86.3941 23.66C86.3941 23.7 86.3741 23.98 86.3341 24.5H78.1941C78.3407 25.1667 78.6874 25.6933 79.2341 26.08C79.7807 26.4667 80.4607 26.66 81.2741 26.66C81.8341 26.66 82.3274 26.58 82.7541 26.42C83.1941 26.2467 83.6007 25.98 83.9741 25.62L85.6341 27.42C84.6207 28.58 83.1407 29.16 81.1941 29.16C79.9807 29.16 78.9074 28.9267 77.9741 28.46C77.0407 27.98 76.3207 27.32 75.8141 26.48C75.3074 25.64 75.0541 24.6867 75.0541 23.62C75.0541 22.5667 75.3007 21.62 75.7941 20.78C76.3007 19.9267 76.9874 19.2667 77.8541 18.8C78.7341 18.32 79.7141 18.08 80.7941 18.08C81.8474 18.08 82.8007 18.3067 83.6541 18.76C84.5074 19.2133 85.1741 19.8667 85.6541 20.72C86.1474 21.56 86.3941 22.54 86.3941 23.66ZM80.8141 20.44C80.1074 20.44 79.5141 20.64 79.0341 21.04C78.5541 21.44 78.2607 21.9867 78.1541 22.68H83.4541C83.3474 22 83.0541 21.46 82.5741 21.06C82.0941 20.6467 81.5074 20.44 80.8141 20.44ZM91.4513 19.66C91.8246 19.14 92.3246 18.7467 92.9513 18.48C93.5913 18.2133 94.3246 18.08 95.1513 18.08V20.96C94.8046 20.9333 94.5713 20.92 94.4513 20.92C93.5579 20.92 92.8579 21.1733 92.3513 21.68C91.8446 22.1733 91.5913 22.92 91.5913 23.92V29H88.4713V18.24H91.4513V19.66ZM109.689 28.48C109.382 28.7067 109.002 28.88 108.549 29C108.109 29.1067 107.642 29.16 107.149 29.16C105.869 29.16 104.875 28.8333 104.169 28.18C103.475 27.5267 103.129 26.5667 103.129 25.3V20.88H101.469V18.48H103.129V15.86H106.249V18.48H108.929V20.88H106.249V25.26C106.249 25.7133 106.362 26.0667 106.589 26.32C106.829 26.56 107.162 26.68 107.589 26.68C108.082 26.68 108.502 26.5467 108.849 26.28L109.689 28.48ZM116.228 29.16C115.095 29.16 114.075 28.9267 113.168 28.46C112.275 27.98 111.575 27.32 111.068 26.48C110.561 25.64 110.308 24.6867 110.308 23.62C110.308 22.5533 110.561 21.6 111.068 20.76C111.575 19.92 112.275 19.2667 113.168 18.8C114.075 18.32 115.095 18.08 116.228 18.08C117.361 18.08 118.375 18.32 119.268 18.8C120.161 19.2667 120.861 19.92 121.368 20.76C121.875 21.6 122.128 22.5533 122.128 23.62C122.128 24.6867 121.875 25.64 121.368 26.48C120.861 27.32 120.161 27.98 119.268 28.46C118.375 28.9267 117.361 29.16 116.228 29.16ZM116.228 26.6C117.028 26.6 117.681 26.3333 118.188 25.8C118.708 25.2533 118.968 24.5267 118.968 23.62C118.968 22.7133 118.708 21.9933 118.188 21.46C117.681 20.9133 117.028 20.64 116.228 20.64C115.428 20.64 114.768 20.9133 114.248 21.46C113.728 21.9933 113.468 22.7133 113.468 23.62C113.468 24.5267 113.728 25.2533 114.248 25.8C114.768 26.3333 115.428 26.6 116.228 26.6ZM140.978 18.24V27.2C140.978 29.1733 140.464 30.64 139.438 31.6C138.411 32.56 136.911 33.04 134.938 33.04C133.898 33.04 132.911 32.9133 131.978 32.66C131.044 32.4067 130.271 32.04 129.658 31.56L130.898 29.32C131.351 29.6933 131.924 29.9867 132.618 30.2C133.311 30.4267 134.004 30.54 134.698 30.54C135.778 30.54 136.571 30.2933 137.078 29.8C137.598 29.32 137.858 28.5867 137.858 27.6V27.14C137.044 28.0333 135.911 28.48 134.458 28.48C133.471 28.48 132.564 28.2667 131.738 27.84C130.924 27.4 130.278 26.7867 129.798 26C129.318 25.2133 129.078 24.3067 129.078 23.28C129.078 22.2533 129.318 21.3467 129.798 20.56C130.278 19.7733 130.924 19.1667 131.738 18.74C132.564 18.3 133.471 18.08 134.458 18.08C136.018 18.08 137.204 18.5933 138.018 19.62V18.24H140.978ZM135.078 25.92C135.904 25.92 136.578 25.68 137.098 25.2C137.631 24.7067 137.898 24.0667 137.898 23.28C137.898 22.4933 137.631 21.86 137.098 21.38C136.578 20.8867 135.904 20.64 135.078 20.64C134.251 20.64 133.571 20.8867 133.038 21.38C132.504 21.86 132.238 22.4933 132.238 23.28C132.238 24.0667 132.504 24.7067 133.038 25.2C133.571 25.68 134.251 25.92 135.078 25.92ZM146.861 19.66C147.235 19.14 147.735 18.7467 148.361 18.48C149.001 18.2133 149.735 18.08 150.561 18.08V20.96C150.215 20.9333 149.981 20.92 149.861 20.92C148.968 20.92 148.268 21.1733 147.761 21.68C147.255 22.1733 147.001 22.92 147.001 23.92V29H143.881V18.24H146.861V19.66ZM157.439 29.16C156.306 29.16 155.286 28.9267 154.379 28.46C153.486 27.98 152.786 27.32 152.279 26.48C151.772 25.64 151.519 24.6867 151.519 23.62C151.519 22.5533 151.772 21.6 152.279 20.76C152.786 19.92 153.486 19.2667 154.379 18.8C155.286 18.32 156.306 18.08 157.439 18.08C158.572 18.08 159.586 18.32 160.479 18.8C161.372 19.2667 162.072 19.92 162.579 20.76C163.086 21.6 163.339 22.5533 163.339 23.62C163.339 24.6867 163.086 25.64 162.579 26.48C162.072 27.32 161.372 27.98 160.479 28.46C159.586 28.9267 158.572 29.16 157.439 29.16ZM157.439 26.6C158.239 26.6 158.892 26.3333 159.399 25.8C159.919 25.2533 160.179 24.5267 160.179 23.62C160.179 22.7133 159.919 21.9933 159.399 21.46C158.892 20.9133 158.239 20.64 157.439 20.64C156.639 20.64 155.979 20.9133 155.459 21.46C154.939 21.9933 154.679 22.7133 154.679 23.62C154.679 24.5267 154.939 25.2533 155.459 25.8C155.979 26.3333 156.639 26.6 157.439 26.6ZM170.624 29.16C169.478 29.16 168.444 28.9267 167.524 28.46C166.618 27.98 165.904 27.32 165.384 26.48C164.878 25.64 164.624 24.6867 164.624 23.62C164.624 22.5533 164.878 21.6 165.384 20.76C165.904 19.92 166.618 19.2667 167.524 18.8C168.444 18.32 169.478 18.08 170.624 18.08C171.758 18.08 172.744 18.32 173.584 18.8C174.438 19.2667 175.058 19.94 175.444 20.82L173.024 22.12C172.464 21.1333 171.658 20.64 170.604 20.64C169.791 20.64 169.118 20.9067 168.584 21.44C168.051 21.9733 167.784 22.7 167.784 23.62C167.784 24.54 168.051 25.2667 168.584 25.8C169.118 26.3333 169.791 26.6 170.604 26.6C171.671 26.6 172.478 26.1067 173.024 25.12L175.444 26.44C175.058 27.2933 174.438 27.96 173.584 28.44C172.744 28.92 171.758 29.16 170.624 29.16ZM187.644 23.66C187.644 23.7 187.624 23.98 187.584 24.5H179.444C179.591 25.1667 179.937 25.6933 180.484 26.08C181.031 26.4667 181.711 26.66 182.524 26.66C183.084 26.66 183.577 26.58 184.004 26.42C184.444 26.2467 184.851 25.98 185.224 25.62L186.884 27.42C185.871 28.58 184.391 29.16 182.444 29.16C181.231 29.16 180.157 28.9267 179.224 28.46C178.291 27.98 177.571 27.32 177.064 26.48C176.557 25.64 176.304 24.6867 176.304 23.62C176.304 22.5667 176.551 21.62 177.044 20.78C177.551 19.9267 178.237 19.2667 179.104 18.8C179.984 18.32 180.964 18.08 182.044 18.08C183.097 18.08 184.051 18.3067 184.904 18.76C185.757 19.2133 186.424 19.8667 186.904 20.72C187.397 21.56 187.644 22.54 187.644 23.66ZM182.064 20.44C181.357 20.44 180.764 20.64 180.284 21.04C179.804 21.44 179.511 21.9867 179.404 22.68H184.704C184.597 22 184.304 21.46 183.824 21.06C183.344 20.6467 182.757 20.44 182.064 20.44ZM192.701 19.66C193.075 19.14 193.575 18.7467 194.201 18.48C194.841 18.2133 195.575 18.08 196.401 18.08V20.96C196.055 20.9333 195.821 20.92 195.701 20.92C194.808 20.92 194.108 21.1733 193.601 21.68C193.095 22.1733 192.841 22.92 192.841 23.92V29H189.721V18.24H192.701V19.66ZM209.308 18.24L204.448 29.66C203.954 30.9 203.341 31.7733 202.608 32.28C201.888 32.7867 201.014 33.04 199.988 33.04C199.428 33.04 198.874 32.9533 198.328 32.78C197.781 32.6067 197.334 32.3667 196.987 32.06L198.128 29.84C198.368 30.0533 198.641 30.22 198.948 30.34C199.268 30.46 199.581 30.52 199.888 30.52C200.314 30.52 200.661 30.4133 200.928 30.2C201.194 30 201.434 29.66 201.648 29.18L201.688 29.08L197.027 18.24H200.248L203.268 25.54L206.308 18.24H209.308ZM219.865 29.16C218.971 29.16 218.098 29.0533 217.245 28.84C216.391 28.6133 215.711 28.3333 215.205 28L216.245 25.76C216.725 26.0667 217.305 26.32 217.985 26.52C218.665 26.7067 219.331 26.8 219.985 26.8C221.305 26.8 221.965 26.4733 221.965 25.82C221.965 25.5133 221.785 25.2933 221.425 25.16C221.065 25.0267 220.511 24.9133 219.765 24.82C218.885 24.6867 218.158 24.5333 217.585 24.36C217.011 24.1867 216.511 23.88 216.085 23.44C215.671 23 215.465 22.3733 215.465 21.56C215.465 20.88 215.658 20.28 216.045 19.76C216.445 19.2267 217.018 18.8133 217.765 18.52C218.525 18.2267 219.418 18.08 220.445 18.08C221.205 18.08 221.958 18.1667 222.705 18.34C223.465 18.5 224.091 18.7267 224.585 19.02L223.545 21.24C222.598 20.7067 221.565 20.44 220.445 20.44C219.778 20.44 219.278 20.5333 218.945 20.72C218.611 20.9067 218.445 21.1467 218.445 21.44C218.445 21.7733 218.625 22.0067 218.985 22.14C219.345 22.2733 219.918 22.4 220.705 22.52C221.585 22.6667 222.305 22.8267 222.865 23C223.425 23.16 223.911 23.46 224.325 23.9C224.738 24.34 224.945 24.9533 224.945 25.74C224.945 26.4067 224.745 27 224.345 27.52C223.945 28.04 223.358 28.4467 222.585 28.74C221.825 29.02 220.918 29.16 219.865 29.16ZM233.81 28.48C233.503 28.7067 233.123 28.88 232.67 29C232.23 29.1067 231.763 29.16 231.27 29.16C229.99 29.16 228.996 28.8333 228.29 28.18C227.596 27.5267 227.25 26.5667 227.25 25.3V20.88H225.59V18.48H227.25V15.86H230.37V18.48H233.05V20.88H230.37V25.26C230.37 25.7133 230.483 26.0667 230.71 26.32C230.95 26.56 231.283 26.68 231.71 26.68C232.203 26.68 232.623 26.5467 232.97 26.28L233.81 28.48ZM240.349 29.16C239.216 29.16 238.196 28.9267 237.289 28.46C236.396 27.98 235.696 27.32 235.189 26.48C234.682 25.64 234.429 24.6867 234.429 23.62C234.429 22.5533 234.682 21.6 235.189 20.76C235.696 19.92 236.396 19.2667 237.289 18.8C238.196 18.32 239.216 18.08 240.349 18.08C241.482 18.08 242.496 18.32 243.389 18.8C244.282 19.2667 244.982 19.92 245.489 20.76C245.996 21.6 246.249 22.5533 246.249 23.62C246.249 24.6867 245.996 25.64 245.489 26.48C244.982 27.32 244.282 27.98 243.389 28.46C242.496 28.9267 241.482 29.16 240.349 29.16ZM240.349 26.6C241.149 26.6 241.802 26.3333 242.309 25.8C242.829 25.2533 243.089 24.5267 243.089 23.62C243.089 22.7133 242.829 21.9933 242.309 21.46C241.802 20.9133 241.149 20.64 240.349 20.64C239.549 20.64 238.889 20.9133 238.369 21.46C237.849 21.9933 237.589 22.7133 237.589 23.62C237.589 24.5267 237.849 25.2533 238.369 25.8C238.889 26.3333 239.549 26.6 240.349 26.6ZM251.315 19.66C251.688 19.14 252.188 18.7467 252.815 18.48C253.455 18.2133 254.188 18.08 255.015 18.08V20.96C254.668 20.9333 254.435 20.92 254.315 20.92C253.421 20.92 252.721 21.1733 252.215 21.68C251.708 22.1733 251.455 22.92 251.455 23.92V29H248.335V18.24H251.315V19.66ZM267.312 23.66C267.312 23.7 267.292 23.98 267.252 24.5H259.112C259.259 25.1667 259.605 25.6933 260.152 26.08C260.699 26.4667 261.379 26.66 262.192 26.66C262.752 26.66 263.245 26.58 263.672 26.42C264.112 26.2467 264.519 25.98 264.892 25.62L266.552 27.42C265.539 28.58 264.059 29.16 262.112 29.16C260.899 29.16 259.825 28.9267 258.892 28.46C257.959 27.98 257.239 27.32 256.732 26.48C256.225 25.64 255.972 24.6867 255.972 23.62C255.972 22.5667 256.219 21.62 256.712 20.78C257.219 19.9267 257.905 19.2667 258.772 18.8C259.652 18.32 260.632 18.08 261.712 18.08C262.765 18.08 263.719 18.3067 264.572 18.76C265.425 19.2133 266.092 19.8667 266.572 20.72C267.065 21.56 267.312 22.54 267.312 23.66ZM261.732 20.44C261.025 20.44 260.432 20.64 259.952 21.04C259.472 21.44 259.179 21.9867 259.072 22.68H264.372C264.265 22 263.972 21.46 263.492 21.06C263.012 20.6467 262.425 20.44 261.732 20.44ZM273.009 29.16C272.116 29.16 271.243 29.0533 270.389 28.84C269.536 28.6133 268.856 28.3333 268.349 28L269.389 25.76C269.869 26.0667 270.449 26.32 271.129 26.52C271.809 26.7067 272.476 26.8 273.129 26.8C274.449 26.8 275.109 26.4733 275.109 25.82C275.109 25.5133 274.929 25.2933 274.569 25.16C274.209 25.0267 273.656 24.9133 272.909 24.82C272.029 24.6867 271.303 24.5333 270.729 24.36C270.156 24.1867 269.656 23.88 269.229 23.44C268.816 23 268.609 22.3733 268.609 21.56C268.609 20.88 268.803 20.28 269.189 19.76C269.589 19.2267 270.163 18.8133 270.909 18.52C271.669 18.2267 272.563 18.08 273.589 18.08C274.349 18.08 275.103 18.1667 275.849 18.34C276.609 18.5 277.236 18.7267 277.729 19.02L276.689 21.24C275.743 20.7067 274.709 20.44 273.589 20.44C272.923 20.44 272.423 20.5333 272.089 20.72C271.756 20.9067 271.589 21.1467 271.589 21.44C271.589 21.7733 271.769 22.0067 272.129 22.14C272.489 22.2733 273.063 22.4 273.849 22.52C274.729 22.6667 275.449 22.8267 276.009 23C276.569 23.16 277.056 23.46 277.469 23.9C277.883 24.34 278.089 24.9533 278.089 25.74C278.089 26.4067 277.889 27 277.489 27.52C277.089 28.04 276.503 28.4467 275.729 28.74C274.969 29.02 274.063 29.16 273.009 29.16Z" fill="#D3AB98"/>
<path d="M10 3H299V-3H10V3ZM306 10V34H312V10H306ZM299 41H10V47H299V41ZM3 34V10H-3V34H3ZM10 41C6.13401 41 3 37.866 3 34H-3C-3 41.1797 2.8203 47 10 47V41ZM306 34C306 37.866 302.866 41 299 41V47C306.18 47 312 41.1797 312 34H306ZM299 3C302.866 3 306 6.13401 306 10H312C312 2.8203 306.18 -3 299 -3V3ZM10 -3C2.8203 -3 -3 2.8203 -3 10H3C3 6.13401 6.13401 3 10 3V-3Z" fill="#D3AB98"/>
</svg>
