<svg width="359" height="44" viewBox="0 0 359 44" fill="none" xmlns="http://www.w3.org/2000/svg">
<path d="M0 10C0 4.47715 4.47715 0 10 0H349C354.523 0 359 4.47715 359 10V34C359 39.5228 354.523 44 349 44H10C4.47715 44 0 39.5228 0 34V10Z" fill="white"/>
<path d="M44.5 15V29H41.84L34.86 20.5V29H31.66V15H34.34L41.3 23.5V15H44.5ZM52.7123 29.16C51.579 29.16 50.559 28.9267 49.6523 28.46C48.759 27.98 48.059 27.32 47.5523 26.48C47.0457 25.64 46.7923 24.6867 46.7923 23.62C46.7923 22.5533 47.0457 21.6 47.5523 20.76C48.059 19.92 48.759 19.2667 49.6523 18.8C50.559 18.32 51.579 18.08 52.7123 18.08C53.8457 18.08 54.859 18.32 55.7523 18.8C56.6457 19.2667 57.3457 19.92 57.8523 20.76C58.359 21.6 58.6123 22.5533 58.6123 23.62C58.6123 24.6867 58.359 25.64 57.8523 26.48C57.3457 27.32 56.6457 27.98 55.7523 28.46C54.859 28.9267 53.8457 29.16 52.7123 29.16ZM52.7123 26.6C53.5123 26.6 54.1657 26.3333 54.6723 25.8C55.1923 25.2533 55.4523 24.5267 55.4523 23.62C55.4523 22.7133 55.1923 21.9933 54.6723 21.46C54.1657 20.9133 53.5123 20.64 52.7123 20.64C51.9123 20.64 51.2523 20.9133 50.7323 21.46C50.2123 21.9933 49.9523 22.7133 49.9523 23.62C49.9523 24.5267 50.2123 25.2533 50.7323 25.8C51.2523 26.3333 51.9123 26.6 52.7123 26.6ZM72.7219 18.08C73.7219 18.08 74.6285 18.3133 75.4419 18.78C76.2685 19.2333 76.9152 19.88 77.3819 20.72C77.8485 21.5467 78.0819 22.5133 78.0819 23.62C78.0819 24.7267 77.8485 25.7 77.3819 26.54C76.9152 27.3667 76.2685 28.0133 75.4419 28.48C74.6285 28.9333 73.7219 29.16 72.7219 29.16C71.3485 29.16 70.2685 28.7267 69.4819 27.86V32.88H66.3619V18.24H69.3419V19.48C70.1152 18.5467 71.2419 18.08 72.7219 18.08ZM72.1819 26.6C72.9819 26.6 73.6352 26.3333 74.1419 25.8C74.6619 25.2533 74.9219 24.5267 74.9219 23.62C74.9219 22.7133 74.6619 21.9933 74.1419 21.46C73.6352 20.9133 72.9819 20.64 72.1819 20.64C71.3819 20.64 70.7219 20.9133 70.2019 21.46C69.6952 21.9933 69.4419 22.7133 69.4419 23.62C69.4419 24.5267 69.6952 25.2533 70.2019 25.8C70.7219 26.3333 71.3819 26.6 72.1819 26.6ZM90.7105 23.66C90.7105 23.7 90.6905 23.98 90.6505 24.5H82.5105C82.6571 25.1667 83.0038 25.6933 83.5505 26.08C84.0971 26.4667 84.7771 26.66 85.5905 26.66C86.1505 26.66 86.6438 26.58 87.0705 26.42C87.5105 26.2467 87.9171 25.98 88.2905 25.62L89.9505 27.42C88.9371 28.58 87.4571 29.16 85.5105 29.16C84.2971 29.16 83.2238 28.9267 82.2905 28.46C81.3571 27.98 80.6371 27.32 80.1305 26.48C79.6238 25.64 79.3705 24.6867 79.3705 23.62C79.3705 22.5667 79.6171 21.62 80.1105 20.78C80.6171 19.9267 81.3038 19.2667 82.1705 18.8C83.0505 18.32 84.0305 18.08 85.1105 18.08C86.1638 18.08 87.1171 18.3067 87.9705 18.76C88.8238 19.2133 89.4905 19.8667 89.9705 20.72C90.4638 21.56 90.7105 22.54 90.7105 23.66ZM85.1305 20.44C84.4238 20.44 83.8305 20.64 83.3505 21.04C82.8705 21.44 82.5771 21.9867 82.4705 22.68H87.7705C87.6638 22 87.3705 21.46 86.8905 21.06C86.4105 20.6467 85.8238 20.44 85.1305 20.44ZM97.9077 29.16C96.7743 29.16 95.7543 28.9267 94.8477 28.46C93.9543 27.98 93.2543 27.32 92.7477 26.48C92.241 25.64 91.9877 24.6867 91.9877 23.62C91.9877 22.5533 92.241 21.6 92.7477 20.76C93.2543 19.92 93.9543 19.2667 94.8477 18.8C95.7543 18.32 96.7743 18.08 97.9077 18.08C99.041 18.08 100.054 18.32 100.948 18.8C101.841 19.2667 102.541 19.92 103.048 20.76C103.554 21.6 103.808 22.5533 103.808 23.62C103.808 24.6867 103.554 25.64 103.048 26.48C102.541 27.32 101.841 27.98 100.948 28.46C100.054 28.9267 99.041 29.16 97.9077 29.16ZM97.9077 26.6C98.7077 26.6 99.361 26.3333 99.8677 25.8C100.388 25.2533 100.648 24.5267 100.648 23.62C100.648 22.7133 100.388 21.9933 99.8677 21.46C99.361 20.9133 98.7077 20.64 97.9077 20.64C97.1077 20.64 96.4477 20.9133 95.9277 21.46C95.4077 21.9933 95.1477 22.7133 95.1477 23.62C95.1477 24.5267 95.4077 25.2533 95.9277 25.8C96.4477 26.3333 97.1077 26.6 97.9077 26.6ZM112.253 18.08C113.253 18.08 114.16 18.3133 114.973 18.78C115.8 19.2333 116.446 19.88 116.913 20.72C117.38 21.5467 117.613 22.5133 117.613 23.62C117.613 24.7267 117.38 25.7 116.913 26.54C116.446 27.3667 115.8 28.0133 114.973 28.48C114.16 28.9333 113.253 29.16 112.253 29.16C110.88 29.16 109.8 28.7267 109.013 27.86V32.88H105.893V18.24H108.873V19.48C109.646 18.5467 110.773 18.08 112.253 18.08ZM111.713 26.6C112.513 26.6 113.166 26.3333 113.673 25.8C114.193 25.2533 114.453 24.5267 114.453 23.62C114.453 22.7133 114.193 21.9933 113.673 21.46C113.166 20.9133 112.513 20.64 111.713 20.64C110.913 20.64 110.253 20.9133 109.733 21.46C109.226 21.9933 108.973 22.7133 108.973 23.62C108.973 24.5267 109.226 25.2533 109.733 25.8C110.253 26.3333 110.913 26.6 111.713 26.6ZM119.702 14.16H122.822V29H119.702V14.16ZM136.257 23.66C136.257 23.7 136.237 23.98 136.197 24.5H128.057C128.204 25.1667 128.551 25.6933 129.097 26.08C129.644 26.4667 130.324 26.66 131.137 26.66C131.697 26.66 132.191 26.58 132.617 26.42C133.057 26.2467 133.464 25.98 133.837 25.62L135.497 27.42C134.484 28.58 133.004 29.16 131.057 29.16C129.844 29.16 128.771 28.9267 127.837 28.46C126.904 27.98 126.184 27.32 125.677 26.48C125.171 25.64 124.917 24.6867 124.917 23.62C124.917 22.5667 125.164 21.62 125.657 20.78C126.164 19.9267 126.851 19.2667 127.717 18.8C128.597 18.32 129.577 18.08 130.657 18.08C131.711 18.08 132.664 18.3067 133.517 18.76C134.371 19.2133 135.037 19.8667 135.517 20.72C136.011 21.56 136.257 22.54 136.257 23.66ZM130.677 20.44C129.971 20.44 129.377 20.64 128.897 21.04C128.417 21.44 128.124 21.9867 128.017 22.68H133.317C133.211 22 132.917 21.46 132.437 21.06C131.957 20.6467 131.371 20.44 130.677 20.44ZM143.999 18.24H147.119V29H143.999V18.24ZM145.559 16.74C144.985 16.74 144.519 16.5733 144.159 16.24C143.799 15.9067 143.619 15.4933 143.619 15C143.619 14.5067 143.799 14.0933 144.159 13.76C144.519 13.4267 144.985 13.26 145.559 13.26C146.132 13.26 146.599 13.42 146.959 13.74C147.319 14.06 147.499 14.46 147.499 14.94C147.499 15.46 147.319 15.8933 146.959 16.24C146.599 16.5733 146.132 16.74 145.559 16.74ZM156.554 18.08C157.888 18.08 158.961 18.48 159.774 19.28C160.601 20.08 161.014 21.2667 161.014 22.84V29H157.894V23.32C157.894 22.4667 157.708 21.8333 157.334 21.42C156.961 20.9933 156.421 20.78 155.714 20.78C154.928 20.78 154.301 21.0267 153.834 21.52C153.368 22 153.134 22.72 153.134 23.68V29H150.014V18.24H152.994V19.5C153.408 19.0467 153.921 18.7 154.534 18.46C155.148 18.2067 155.821 18.08 156.554 18.08ZM176.446 28.48C176.14 28.7067 175.76 28.88 175.306 29C174.866 29.1067 174.4 29.16 173.906 29.16C172.626 29.16 171.633 28.8333 170.926 28.18C170.233 27.5267 169.886 26.5667 169.886 25.3V20.88H168.226V18.48H169.886V15.86H173.006V18.48H175.686V20.88H173.006V25.26C173.006 25.7133 173.12 26.0667 173.346 26.32C173.586 26.56 173.92 26.68 174.346 26.68C174.84 26.68 175.26 26.5467 175.606 26.28L176.446 28.48ZM184.738 18.08C186.071 18.08 187.144 18.48 187.958 19.28C188.784 20.08 189.198 21.2667 189.198 22.84V29H186.078V23.32C186.078 22.4667 185.891 21.8333 185.518 21.42C185.144 20.9933 184.604 20.78 183.898 20.78C183.111 20.78 182.484 21.0267 182.018 21.52C181.551 22 181.318 22.72 181.318 23.68V29H178.198V14.16H181.318V19.36C181.731 18.9467 182.231 18.6333 182.818 18.42C183.404 18.1933 184.044 18.08 184.738 18.08ZM202.683 23.66C202.683 23.7 202.663 23.98 202.623 24.5H194.483C194.63 25.1667 194.976 25.6933 195.523 26.08C196.07 26.4667 196.75 26.66 197.563 26.66C198.123 26.66 198.616 26.58 199.043 26.42C199.483 26.2467 199.89 25.98 200.263 25.62L201.923 27.42C200.91 28.58 199.43 29.16 197.483 29.16C196.27 29.16 195.196 28.9267 194.263 28.46C193.33 27.98 192.61 27.32 192.103 26.48C191.596 25.64 191.343 24.6867 191.343 23.62C191.343 22.5667 191.59 21.62 192.083 20.78C192.59 19.9267 193.276 19.2667 194.143 18.8C195.023 18.32 196.003 18.08 197.083 18.08C198.136 18.08 199.09 18.3067 199.943 18.76C200.796 19.2133 201.463 19.8667 201.943 20.72C202.436 21.56 202.683 22.54 202.683 23.66ZM197.103 20.44C196.396 20.44 195.803 20.64 195.323 21.04C194.843 21.44 194.55 21.9867 194.443 22.68H199.743C199.636 22 199.343 21.46 198.863 21.06C198.383 20.6467 197.796 20.44 197.103 20.44ZM210.424 14.16H213.544V29H210.424V14.16ZM216.44 18.24H219.56V29H216.44V18.24ZM218 16.74C217.427 16.74 216.96 16.5733 216.6 16.24C216.24 15.9067 216.06 15.4933 216.06 15C216.06 14.5067 216.24 14.0933 216.6 13.76C216.96 13.4267 217.427 13.26 218 13.26C218.573 13.26 219.04 13.42 219.4 13.74C219.76 14.06 219.94 14.46 219.94 14.94C219.94 15.46 219.76 15.8933 219.4 16.24C219.04 16.5733 218.573 16.74 218 16.74ZM233.136 18.24L228.596 29H225.376L220.856 18.24H224.076L227.056 25.56L230.136 18.24H233.136ZM234.409 18.24H237.529V29H234.409V18.24ZM235.969 16.74C235.395 16.74 234.929 16.5733 234.569 16.24C234.209 15.9067 234.029 15.4933 234.029 15C234.029 14.5067 234.209 14.0933 234.569 13.76C234.929 13.4267 235.395 13.26 235.969 13.26C236.542 13.26 237.009 13.42 237.369 13.74C237.729 14.06 237.909 14.46 237.909 14.94C237.909 15.46 237.729 15.8933 237.369 16.24C237.009 16.5733 236.542 16.74 235.969 16.74ZM246.964 18.08C248.298 18.08 249.371 18.48 250.184 19.28C251.011 20.08 251.424 21.2667 251.424 22.84V29H248.304V23.32C248.304 22.4667 248.118 21.8333 247.744 21.42C247.371 20.9933 246.831 20.78 246.124 20.78C245.338 20.78 244.711 21.0267 244.244 21.52C243.778 22 243.544 22.72 243.544 23.68V29H240.424V18.24H243.404V19.5C243.818 19.0467 244.331 18.7 244.944 18.46C245.558 18.2067 246.231 18.08 246.964 18.08ZM265.47 18.24V27.2C265.47 29.1733 264.956 30.64 263.93 31.6C262.903 32.56 261.403 33.04 259.43 33.04C258.39 33.04 257.403 32.9133 256.47 32.66C255.536 32.4067 254.763 32.04 254.15 31.56L255.39 29.32C255.843 29.6933 256.416 29.9867 257.11 30.2C257.803 30.4267 258.496 30.54 259.19 30.54C260.27 30.54 261.063 30.2933 261.57 29.8C262.09 29.32 262.35 28.5867 262.35 27.6V27.14C261.536 28.0333 260.403 28.48 258.95 28.48C257.963 28.48 257.056 28.2667 256.23 27.84C255.416 27.4 254.77 26.7867 254.29 26C253.81 25.2133 253.57 24.3067 253.57 23.28C253.57 22.2533 253.81 21.3467 254.29 20.56C254.77 19.7733 255.416 19.1667 256.23 18.74C257.056 18.3 257.963 18.08 258.95 18.08C260.51 18.08 261.696 18.5933 262.51 19.62V18.24H265.47ZM259.57 25.92C260.396 25.92 261.07 25.68 261.59 25.2C262.123 24.7067 262.39 24.0667 262.39 23.28C262.39 22.4933 262.123 21.86 261.59 21.38C261.07 20.8867 260.396 20.64 259.57 20.64C258.743 20.64 258.063 20.8867 257.53 21.38C256.996 21.86 256.73 22.4933 256.73 23.28C256.73 24.0667 256.996 24.7067 257.53 25.2C258.063 25.68 258.743 25.92 259.57 25.92ZM277.018 19.66C277.391 19.14 277.891 18.7467 278.518 18.48C279.158 18.2133 279.891 18.08 280.718 18.08V20.96C280.371 20.9333 280.138 20.92 280.018 20.92C279.124 20.92 278.424 21.1733 277.918 21.68C277.411 22.1733 277.158 22.92 277.158 23.92V29H274.038V18.24H277.018V19.66ZM287.595 29.16C286.462 29.16 285.442 28.9267 284.535 28.46C283.642 27.98 282.942 27.32 282.435 26.48C281.928 25.64 281.675 24.6867 281.675 23.62C281.675 22.5533 281.928 21.6 282.435 20.76C282.942 19.92 283.642 19.2667 284.535 18.8C285.442 18.32 286.462 18.08 287.595 18.08C288.728 18.08 289.742 18.32 290.635 18.8C291.528 19.2667 292.228 19.92 292.735 20.76C293.242 21.6 293.495 22.5533 293.495 23.62C293.495 24.6867 293.242 25.64 292.735 26.48C292.228 27.32 291.528 27.98 290.635 28.46C289.742 28.9267 288.728 29.16 287.595 29.16ZM287.595 26.6C288.395 26.6 289.048 26.3333 289.555 25.8C290.075 25.2533 290.335 24.5267 290.335 23.62C290.335 22.7133 290.075 21.9933 289.555 21.46C289.048 20.9133 288.395 20.64 287.595 20.64C286.795 20.64 286.135 20.9133 285.615 21.46C285.095 21.9933 284.835 22.7133 284.835 23.62C284.835 24.5267 285.095 25.2533 285.615 25.8C286.135 26.3333 286.795 26.6 287.595 26.6ZM300.701 29.16C299.567 29.16 298.547 28.9267 297.641 28.46C296.747 27.98 296.047 27.32 295.541 26.48C295.034 25.64 294.781 24.6867 294.781 23.62C294.781 22.5533 295.034 21.6 295.541 20.76C296.047 19.92 296.747 19.2667 297.641 18.8C298.547 18.32 299.567 18.08 300.701 18.08C301.834 18.08 302.847 18.32 303.741 18.8C304.634 19.2667 305.334 19.92 305.841 20.76C306.347 21.6 306.601 22.5533 306.601 23.62C306.601 24.6867 306.347 25.64 305.841 26.48C305.334 27.32 304.634 27.98 303.741 28.46C302.847 28.9267 301.834 29.16 300.701 29.16ZM300.701 26.6C301.501 26.6 302.154 26.3333 302.661 25.8C303.181 25.2533 303.441 24.5267 303.441 23.62C303.441 22.7133 303.181 21.9933 302.661 21.46C302.154 20.9133 301.501 20.64 300.701 20.64C299.901 20.64 299.241 20.9133 298.721 21.46C298.201 21.9933 297.941 22.7133 297.941 23.62C297.941 24.5267 298.201 25.2533 298.721 25.8C299.241 26.3333 299.901 26.6 300.701 26.6ZM322.466 18.08C323.813 18.08 324.879 18.48 325.666 19.28C326.466 20.0667 326.866 21.2533 326.866 22.84V29H323.746V23.32C323.746 22.4667 323.566 21.8333 323.206 21.42C322.859 20.9933 322.359 20.78 321.706 20.78C320.973 20.78 320.393 21.02 319.966 21.5C319.539 21.9667 319.326 22.6667 319.326 23.6V29H316.206V23.32C316.206 21.6267 315.526 20.78 314.166 20.78C313.446 20.78 312.873 21.02 312.446 21.5C312.019 21.9667 311.806 22.6667 311.806 23.6V29H308.686V18.24H311.666V19.48C312.066 19.0267 312.553 18.68 313.126 18.44C313.713 18.2 314.353 18.08 315.046 18.08C315.806 18.08 316.493 18.2333 317.106 18.54C317.719 18.8333 318.213 19.2667 318.586 19.84C319.026 19.28 319.579 18.8467 320.246 18.54C320.926 18.2333 321.666 18.08 322.466 18.08Z" fill="#D3AB98"/>
<path d="M10 3H349V-3H10V3ZM356 10V34H362V10H356ZM349 41H10V47H349V41ZM3 34V10H-3V34H3ZM10 41C6.13401 41 3 37.866 3 34H-3C-3 41.1797 2.8203 47 10 47V41ZM356 34C356 37.866 352.866 41 349 41V47C356.18 47 362 41.1797 362 34H356ZM349 3C352.866 3 356 6.13401 356 10H362C362 2.8203 356.18 -3 349 -3V3ZM10 -3C2.8203 -3 -3 2.8203 -3 10H3C3 6.13401 6.13401 3 10 3V-3Z" fill="#D3AB98"/>
</svg>
