<svg width="162" height="44" viewBox="0 0 162 44" fill="none" xmlns="http://www.w3.org/2000/svg">
<path d="M0 10C0 4.47715 4.47715 0 10 0H152C157.523 0 162 4.47715 162 10V34C162 39.5228 157.523 44 152 44H10C4.47716 44 0 39.5228 0 34V10Z" fill="white"/>
<path d="M44.5 15V29H41.84L34.86 20.5V29H31.66V15H34.34L41.3 23.5V15H44.5ZM47.5923 18.24H50.7123V29H47.5923V18.24ZM49.1523 16.74C48.579 16.74 48.1123 16.5733 47.7523 16.24C47.3923 15.9067 47.2123 15.4933 47.2123 15C47.2123 14.5067 47.3923 14.0933 47.7523 13.76C48.1123 13.4267 48.579 13.26 49.1523 13.26C49.7257 13.26 50.1923 13.42 50.5523 13.74C50.9123 14.06 51.0923 14.46 51.0923 14.94C51.0923 15.46 50.9123 15.8933 50.5523 16.24C50.1923 16.5733 49.7257 16.74 49.1523 16.74ZM64.708 18.24V27.2C64.708 29.1733 64.1946 30.64 63.168 31.6C62.1413 32.56 60.6413 33.04 58.668 33.04C57.628 33.04 56.6413 32.9133 55.708 32.66C54.7746 32.4067 54.0013 32.04 53.388 31.56L54.628 29.32C55.0813 29.6933 55.6546 29.9867 56.348 30.2C57.0413 30.4267 57.7346 30.54 58.428 30.54C59.508 30.54 60.3013 30.2933 60.808 29.8C61.328 29.32 61.588 28.5867 61.588 27.6V27.14C60.7746 28.0333 59.6413 28.48 58.188 28.48C57.2013 28.48 56.2946 28.2667 55.468 27.84C54.6546 27.4 54.008 26.7867 53.528 26C53.048 25.2133 52.808 24.3067 52.808 23.28C52.808 22.2533 53.048 21.3467 53.528 20.56C54.008 19.7733 54.6546 19.1667 55.468 18.74C56.2946 18.3 57.2013 18.08 58.188 18.08C59.748 18.08 60.9346 18.5933 61.748 19.62V18.24H64.708ZM58.808 25.92C59.6346 25.92 60.308 25.68 60.828 25.2C61.3613 24.7067 61.628 24.0667 61.628 23.28C61.628 22.4933 61.3613 21.86 60.828 21.38C60.308 20.8867 59.6346 20.64 58.808 20.64C57.9813 20.64 57.3013 20.8867 56.768 21.38C56.2346 21.86 55.968 22.4933 55.968 23.28C55.968 24.0667 56.2346 24.7067 56.768 25.2C57.3013 25.68 57.9813 25.92 58.808 25.92ZM74.1519 18.08C75.4852 18.08 76.5585 18.48 77.3719 19.28C78.1985 20.08 78.6119 21.2667 78.6119 22.84V29H75.4919V23.32C75.4919 22.4667 75.3052 21.8333 74.9319 21.42C74.5585 20.9933 74.0185 20.78 73.3119 20.78C72.5252 20.78 71.8985 21.0267 71.4319 21.52C70.9652 22 70.7319 22.72 70.7319 23.68V29H67.6119V14.16H70.7319V19.36C71.1452 18.9467 71.6452 18.6333 72.2319 18.42C72.8185 18.1933 73.4585 18.08 74.1519 18.08ZM88.38 28.48C88.0733 28.7067 87.6933 28.88 87.24 29C86.8 29.1067 86.3333 29.16 85.84 29.16C84.56 29.16 83.5667 28.8333 82.86 28.18C82.1667 27.5267 81.82 26.5667 81.82 25.3V20.88H80.16V18.48H81.82V15.86H84.94V18.48H87.62V20.88H84.94V25.26C84.94 25.7133 85.0533 26.0667 85.28 26.32C85.52 26.56 85.8533 26.68 86.28 26.68C86.7733 26.68 87.1933 26.5467 87.54 26.28L88.38 28.48ZM100.915 29.16C99.7821 29.16 98.7621 28.9267 97.8555 28.46C96.9621 27.98 96.2621 27.32 95.7555 26.48C95.2488 25.64 94.9955 24.6867 94.9955 23.62C94.9955 22.5533 95.2488 21.6 95.7555 20.76C96.2621 19.92 96.9621 19.2667 97.8555 18.8C98.7621 18.32 99.7821 18.08 100.915 18.08C102.049 18.08 103.062 18.32 103.955 18.8C104.849 19.2667 105.549 19.92 106.055 20.76C106.562 21.6 106.815 22.5533 106.815 23.62C106.815 24.6867 106.562 25.64 106.055 26.48C105.549 27.32 104.849 27.98 103.955 28.46C103.062 28.9267 102.049 29.16 100.915 29.16ZM100.915 26.6C101.715 26.6 102.369 26.3333 102.875 25.8C103.395 25.2533 103.655 24.5267 103.655 23.62C103.655 22.7133 103.395 21.9933 102.875 21.46C102.369 20.9133 101.715 20.64 100.915 20.64C100.115 20.64 99.4555 20.9133 98.9355 21.46C98.4155 21.9933 98.1555 22.7133 98.1555 23.62C98.1555 24.5267 98.4155 25.2533 98.9355 25.8C99.4555 26.3333 100.115 26.6 100.915 26.6ZM125.888 18.24L121.988 29H118.988L116.568 22.32L114.068 29H111.068L107.188 18.24H110.128L112.668 25.52L115.308 18.24H117.948L120.508 25.52L123.128 18.24H125.888ZM127.338 14.16H130.458V29H127.338V14.16Z" fill="#D3AB98"/>
<path d="M10 3H152V-3H10V3ZM159 10V34H165V10H159ZM152 41H10V47H152V41ZM3 34V10H-3V34H3ZM10 41C6.13401 41 3 37.866 3 34H-3C-3 41.1797 2.8203 47 10 47V41ZM159 34C159 37.866 155.866 41 152 41V47C159.18 47 165 41.1797 165 34H159ZM152 3C155.866 3 159 6.13401 159 10H165C165 2.8203 159.18 -3 152 -3V3ZM10 -3C2.8203 -3 -3 2.8203 -3 10H3C3 6.13401 6.13401 3 10 3V-3Z" fill="#D3AB98"/>
</svg>
