<svg width="225" height="44" viewBox="0 0 225 44" fill="none" xmlns="http://www.w3.org/2000/svg">
<path d="M0 10C0 4.47715 4.47715 0 10 0H215C220.523 0 225 4.47715 225 10V34C225 39.5228 220.523 44 215 44H10C4.47715 44 0 39.5228 0 34V10Z" fill="white"/>
<path d="M36.26 29.24C35.1533 29.24 34.08 29.0933 33.04 28.8C32.0133 28.4933 31.1867 28.1 30.56 27.62L31.66 25.18C32.26 25.62 32.9733 25.9733 33.8 26.24C34.6267 26.5067 35.4533 26.64 36.28 26.64C37.2 26.64 37.88 26.5067 38.32 26.24C38.76 25.96 38.98 25.5933 38.98 25.14C38.98 24.8067 38.8467 24.5333 38.58 24.32C38.3267 24.0933 37.9933 23.9133 37.58 23.78C37.18 23.6467 36.6333 23.5 35.94 23.34C34.8733 23.0867 34 22.8333 33.32 22.58C32.64 22.3267 32.0533 21.92 31.56 21.36C31.08 20.8 30.84 20.0533 30.84 19.12C30.84 18.3067 31.06 17.5733 31.5 16.92C31.94 16.2533 32.6 15.7267 33.48 15.34C34.3733 14.9533 35.46 14.76 36.74 14.76C37.6333 14.76 38.5067 14.8667 39.36 15.08C40.2133 15.2933 40.96 15.6 41.6 16L40.6 18.46C39.3067 17.7267 38.0133 17.36 36.72 17.36C35.8133 17.36 35.14 17.5067 34.7 17.8C34.2733 18.0933 34.06 18.48 34.06 18.96C34.06 19.44 34.3067 19.8 34.8 20.04C35.3067 20.2667 36.0733 20.4933 37.1 20.72C38.1667 20.9733 39.04 21.2267 39.72 21.48C40.4 21.7333 40.98 22.1333 41.46 22.68C41.9533 23.2267 42.2 23.9667 42.2 24.9C42.2 25.7 41.9733 26.4333 41.52 27.1C41.08 27.7533 40.4133 28.2733 39.52 28.66C38.6267 29.0467 37.54 29.24 36.26 29.24ZM61.2786 18.24L57.3786 29H54.3786L51.9586 22.32L49.4586 29H46.4586L42.5786 18.24H45.5186L48.0586 25.52L50.6986 18.24H53.3386L55.8986 25.52L58.5186 18.24H61.2786ZM62.7291 18.24H65.8491V29H62.7291V18.24ZM64.2891 16.74C63.7157 16.74 63.2491 16.5733 62.8891 16.24C62.5291 15.9067 62.3491 15.4933 62.3491 15C62.3491 14.5067 62.5291 14.0933 62.8891 13.76C63.2491 13.4267 63.7157 13.26 64.2891 13.26C64.8624 13.26 65.3291 13.42 65.6891 13.74C66.0491 14.06 66.2291 14.46 66.2291 14.94C66.2291 15.46 66.0491 15.8933 65.6891 16.24C65.3291 16.5733 64.8624 16.74 64.2891 16.74ZM82.5247 18.08C83.8714 18.08 84.938 18.48 85.7247 19.28C86.5247 20.0667 86.9247 21.2533 86.9247 22.84V29H83.8047V23.32C83.8047 22.4667 83.6247 21.8333 83.2647 21.42C82.918 20.9933 82.418 20.78 81.7647 20.78C81.0314 20.78 80.4514 21.02 80.0247 21.5C79.598 21.9667 79.3847 22.6667 79.3847 23.6V29H76.2647V23.32C76.2647 21.6267 75.5847 20.78 74.2247 20.78C73.5047 20.78 72.9314 21.02 72.5047 21.5C72.078 21.9667 71.8647 22.6667 71.8647 23.6V29H68.7447V18.24H71.7247V19.48C72.1247 19.0267 72.6114 18.68 73.1847 18.44C73.7714 18.2 74.4114 18.08 75.1047 18.08C75.8647 18.08 76.5514 18.2333 77.1647 18.54C77.778 18.8333 78.2714 19.2667 78.6447 19.84C79.0847 19.28 79.638 18.8467 80.3047 18.54C80.9847 18.2333 81.7247 18.08 82.5247 18.08ZM103.501 18.08C104.848 18.08 105.915 18.48 106.701 19.28C107.501 20.0667 107.901 21.2533 107.901 22.84V29H104.781V23.32C104.781 22.4667 104.601 21.8333 104.241 21.42C103.895 20.9933 103.395 20.78 102.741 20.78C102.008 20.78 101.428 21.02 101.001 21.5C100.575 21.9667 100.361 22.6667 100.361 23.6V29H97.2413V23.32C97.2413 21.6267 96.5613 20.78 95.2013 20.78C94.4813 20.78 93.9079 21.02 93.4813 21.5C93.0546 21.9667 92.8413 22.6667 92.8413 23.6V29H89.7213V18.24H92.7013V19.48C93.1013 19.0267 93.5879 18.68 94.1612 18.44C94.7479 18.2 95.3879 18.08 96.0813 18.08C96.8413 18.08 97.5279 18.2333 98.1413 18.54C98.7546 18.8333 99.2479 19.2667 99.6213 19.84C100.061 19.28 100.615 18.8467 101.281 18.54C101.961 18.2333 102.701 18.08 103.501 18.08ZM110.698 18.24H113.818V29H110.698V18.24ZM112.258 16.74C111.684 16.74 111.218 16.5733 110.858 16.24C110.498 15.9067 110.318 15.4933 110.318 15C110.318 14.5067 110.498 14.0933 110.858 13.76C111.218 13.4267 111.684 13.26 112.258 13.26C112.831 13.26 113.298 13.42 113.658 13.74C114.018 14.06 114.198 14.46 114.198 14.94C114.198 15.46 114.018 15.8933 113.658 16.24C113.298 16.5733 112.831 16.74 112.258 16.74ZM123.253 18.08C124.587 18.08 125.66 18.48 126.473 19.28C127.3 20.08 127.713 21.2667 127.713 22.84V29H124.593V23.32C124.593 22.4667 124.407 21.8333 124.033 21.42C123.66 20.9933 123.12 20.78 122.413 20.78C121.627 20.78 121 21.0267 120.533 21.52C120.067 22 119.833 22.72 119.833 23.68V29H116.713V18.24H119.693V19.5C120.107 19.0467 120.62 18.7 121.233 18.46C121.847 18.2067 122.52 18.08 123.253 18.08ZM141.759 18.24V27.2C141.759 29.1733 141.245 30.64 140.219 31.6C139.192 32.56 137.692 33.04 135.719 33.04C134.679 33.04 133.692 32.9133 132.759 32.66C131.825 32.4067 131.052 32.04 130.439 31.56L131.679 29.32C132.132 29.6933 132.705 29.9867 133.399 30.2C134.092 30.4267 134.785 30.54 135.479 30.54C136.559 30.54 137.352 30.2933 137.859 29.8C138.379 29.32 138.639 28.5867 138.639 27.6V27.14C137.825 28.0333 136.692 28.48 135.239 28.48C134.252 28.48 133.345 28.2667 132.519 27.84C131.705 27.4 131.059 26.7867 130.579 26C130.099 25.2133 129.859 24.3067 129.859 23.28C129.859 22.2533 130.099 21.3467 130.579 20.56C131.059 19.7733 131.705 19.1667 132.519 18.74C133.345 18.3 134.252 18.08 135.239 18.08C136.799 18.08 137.985 18.5933 138.799 19.62V18.24H141.759ZM135.859 25.92C136.685 25.92 137.359 25.68 137.879 25.2C138.412 24.7067 138.679 24.0667 138.679 23.28C138.679 22.4933 138.412 21.86 137.879 21.38C137.359 20.8867 136.685 20.64 135.859 20.64C135.032 20.64 134.352 20.8867 133.819 21.38C133.285 21.86 133.019 22.4933 133.019 23.28C133.019 24.0667 133.285 24.7067 133.819 25.2C134.352 25.68 135.032 25.92 135.859 25.92ZM156.687 18.08C157.687 18.08 158.593 18.3133 159.407 18.78C160.233 19.2333 160.88 19.88 161.347 20.72C161.813 21.5467 162.047 22.5133 162.047 23.62C162.047 24.7267 161.813 25.7 161.347 26.54C160.88 27.3667 160.233 28.0133 159.407 28.48C158.593 28.9333 157.687 29.16 156.687 29.16C155.313 29.16 154.233 28.7267 153.447 27.86V32.88H150.327V18.24H153.307V19.48C154.08 18.5467 155.207 18.08 156.687 18.08ZM156.147 26.6C156.947 26.6 157.6 26.3333 158.107 25.8C158.627 25.2533 158.887 24.5267 158.887 23.62C158.887 22.7133 158.627 21.9933 158.107 21.46C157.6 20.9133 156.947 20.64 156.147 20.64C155.347 20.64 154.687 20.9133 154.167 21.46C153.66 21.9933 153.407 22.7133 153.407 23.62C153.407 24.5267 153.66 25.2533 154.167 25.8C154.687 26.3333 155.347 26.6 156.147 26.6ZM169.255 29.16C168.122 29.16 167.102 28.9267 166.195 28.46C165.302 27.98 164.602 27.32 164.095 26.48C163.589 25.64 163.335 24.6867 163.335 23.62C163.335 22.5533 163.589 21.6 164.095 20.76C164.602 19.92 165.302 19.2667 166.195 18.8C167.102 18.32 168.122 18.08 169.255 18.08C170.389 18.08 171.402 18.32 172.295 18.8C173.189 19.2667 173.889 19.92 174.395 20.76C174.902 21.6 175.155 22.5533 175.155 23.62C175.155 24.6867 174.902 25.64 174.395 26.48C173.889 27.32 173.189 27.98 172.295 28.46C171.402 28.9267 170.389 29.16 169.255 29.16ZM169.255 26.6C170.055 26.6 170.709 26.3333 171.215 25.8C171.735 25.2533 171.995 24.5267 171.995 23.62C171.995 22.7133 171.735 21.9933 171.215 21.46C170.709 20.9133 170.055 20.64 169.255 20.64C168.455 20.64 167.795 20.9133 167.275 21.46C166.755 21.9933 166.495 22.7133 166.495 23.62C166.495 24.5267 166.755 25.2533 167.275 25.8C167.795 26.3333 168.455 26.6 169.255 26.6ZM182.361 29.16C181.227 29.16 180.207 28.9267 179.301 28.46C178.407 27.98 177.707 27.32 177.201 26.48C176.694 25.64 176.441 24.6867 176.441 23.62C176.441 22.5533 176.694 21.6 177.201 20.76C177.707 19.92 178.407 19.2667 179.301 18.8C180.207 18.32 181.227 18.08 182.361 18.08C183.494 18.08 184.507 18.32 185.401 18.8C186.294 19.2667 186.994 19.92 187.501 20.76C188.007 21.6 188.261 22.5533 188.261 23.62C188.261 24.6867 188.007 25.64 187.501 26.48C186.994 27.32 186.294 27.98 185.401 28.46C184.507 28.9267 183.494 29.16 182.361 29.16ZM182.361 26.6C183.161 26.6 183.814 26.3333 184.321 25.8C184.841 25.2533 185.101 24.5267 185.101 23.62C185.101 22.7133 184.841 21.9933 184.321 21.46C183.814 20.9133 183.161 20.64 182.361 20.64C181.561 20.64 180.901 20.9133 180.381 21.46C179.861 21.9933 179.601 22.7133 179.601 23.62C179.601 24.5267 179.861 25.2533 180.381 25.8C180.901 26.3333 181.561 26.6 182.361 26.6ZM190.346 14.16H193.466V29H190.346V14.16Z" fill="#D3AB98"/>
<path d="M10 3H215V-3H10V3ZM222 10V34H228V10H222ZM215 41H10V47H215V41ZM3 34V10H-3V34H3ZM10 41C6.13401 41 3 37.866 3 34H-3C-3 41.1797 2.8203 47 10 47V41ZM222 34C222 37.866 218.866 41 215 41V47C222.18 47 228 41.1797 228 34H222ZM215 3C218.866 3 222 6.13401 222 10H228C228 2.8203 222.18 -3 215 -3V3ZM10 -3C2.8203 -3 -3 2.8203 -3 10H3C3 6.13401 6.13401 3 10 3V-3Z" fill="#D3AB98"/>
</svg>
