<svg width="296" height="44" viewBox="0 0 296 44" fill="none" xmlns="http://www.w3.org/2000/svg">
<path d="M0 10C0 4.47715 4.47715 0 10 0H286C291.523 0 296 4.47715 296 10V34C296 39.5228 291.523 44 286 44H10C4.47716 44 0 39.5228 0 34V10Z" fill="white"/>
<path d="M31.66 15H34.9V29H31.66V15ZM44.5425 18.08C45.8758 18.08 46.9492 18.48 47.7625 19.28C48.5892 20.08 49.0025 21.2667 49.0025 22.84V29H45.8825V23.32C45.8825 22.4667 45.6958 21.8333 45.3225 21.42C44.9492 20.9933 44.4092 20.78 43.7025 20.78C42.9158 20.78 42.2892 21.0267 41.8225 21.52C41.3558 22 41.1225 22.72 41.1225 23.68V29H38.0025V18.24H40.9825V19.5C41.3958 19.0467 41.9092 18.7 42.5225 18.46C43.1358 18.2067 43.8092 18.08 44.5425 18.08ZM62.9078 14.16V29H59.9278V27.76C59.1545 28.6933 58.0345 29.16 56.5678 29.16C55.5545 29.16 54.6345 28.9333 53.8078 28.48C52.9945 28.0267 52.3545 27.38 51.8878 26.54C51.4211 25.7 51.1878 24.7267 51.1878 23.62C51.1878 22.5133 51.4211 21.54 51.8878 20.7C52.3545 19.86 52.9945 19.2133 53.8078 18.76C54.6345 18.3067 55.5545 18.08 56.5678 18.08C57.9411 18.08 59.0145 18.5133 59.7878 19.38V14.16H62.9078ZM57.1078 26.6C57.8945 26.6 58.5478 26.3333 59.0678 25.8C59.5878 25.2533 59.8478 24.5267 59.8478 23.62C59.8478 22.7133 59.5878 21.9933 59.0678 21.46C58.5478 20.9133 57.8945 20.64 57.1078 20.64C56.3078 20.64 55.6478 20.9133 55.1278 21.46C54.6078 21.9933 54.3478 22.7133 54.3478 23.62C54.3478 24.5267 54.6078 25.2533 55.1278 25.8C55.6478 26.3333 56.3078 26.6 57.1078 26.6ZM70.9155 29.16C69.7821 29.16 68.7621 28.9267 67.8555 28.46C66.9621 27.98 66.2621 27.32 65.7555 26.48C65.2488 25.64 64.9955 24.6867 64.9955 23.62C64.9955 22.5533 65.2488 21.6 65.7555 20.76C66.2621 19.92 66.9621 19.2667 67.8555 18.8C68.7621 18.32 69.7821 18.08 70.9155 18.08C72.0488 18.08 73.0621 18.32 73.9555 18.8C74.8488 19.2667 75.5488 19.92 76.0555 20.76C76.5621 21.6 76.8155 22.5533 76.8155 23.62C76.8155 24.6867 76.5621 25.64 76.0555 26.48C75.5488 27.32 74.8488 27.98 73.9555 28.46C73.0621 28.9267 72.0488 29.16 70.9155 29.16ZM70.9155 26.6C71.7155 26.6 72.3688 26.3333 72.8755 25.8C73.3955 25.2533 73.6555 24.5267 73.6555 23.62C73.6555 22.7133 73.3955 21.9933 72.8755 21.46C72.3688 20.9133 71.7155 20.64 70.9155 20.64C70.1155 20.64 69.4555 20.9133 68.9355 21.46C68.4155 21.9933 68.1555 22.7133 68.1555 23.62C68.1555 24.5267 68.4155 25.2533 68.9355 25.8C69.4555 26.3333 70.1155 26.6 70.9155 26.6ZM84.0209 29.16C82.8876 29.16 81.8676 28.9267 80.9609 28.46C80.0676 27.98 79.3676 27.32 78.8609 26.48C78.3543 25.64 78.1009 24.6867 78.1009 23.62C78.1009 22.5533 78.3543 21.6 78.8609 20.76C79.3676 19.92 80.0676 19.2667 80.9609 18.8C81.8676 18.32 82.8876 18.08 84.0209 18.08C85.1543 18.08 86.1676 18.32 87.0609 18.8C87.9543 19.2667 88.6543 19.92 89.1609 20.76C89.6676 21.6 89.9209 22.5533 89.9209 23.62C89.9209 24.6867 89.6676 25.64 89.1609 26.48C88.6543 27.32 87.9543 27.98 87.0609 28.46C86.1676 28.9267 85.1543 29.16 84.0209 29.16ZM84.0209 26.6C84.8209 26.6 85.4743 26.3333 85.9809 25.8C86.5009 25.2533 86.7609 24.5267 86.7609 23.62C86.7609 22.7133 86.5009 21.9933 85.9809 21.46C85.4743 20.9133 84.8209 20.64 84.0209 20.64C83.2209 20.64 82.5609 20.9133 82.0409 21.46C81.5209 21.9933 81.2609 22.7133 81.2609 23.62C81.2609 24.5267 81.5209 25.2533 82.0409 25.8C82.5609 26.3333 83.2209 26.6 84.0209 26.6ZM94.9864 19.66C95.3597 19.14 95.8597 18.7467 96.4864 18.48C97.1264 18.2133 97.8597 18.08 98.6864 18.08V20.96C98.3397 20.9333 98.1064 20.92 97.9864 20.92C97.0931 20.92 96.3931 21.1733 95.8864 21.68C95.3797 22.1733 95.1264 22.92 95.1264 23.92V29H92.0064V18.24H94.9864V19.66ZM123.564 18.24L119.664 29H116.664L114.244 22.32L111.744 29H108.744L104.864 18.24H107.804L110.344 25.52L112.984 18.24H115.624L118.184 25.52L120.804 18.24H123.564ZM129.003 18.08C130.669 18.08 131.949 18.48 132.843 19.28C133.736 20.0667 134.183 21.26 134.183 22.86V29H131.263V27.66C130.676 28.66 129.583 29.16 127.983 29.16C127.156 29.16 126.436 29.02 125.823 28.74C125.223 28.46 124.763 28.0733 124.443 27.58C124.123 27.0867 123.963 26.5267 123.963 25.9C123.963 24.9 124.336 24.1133 125.083 23.54C125.843 22.9667 127.009 22.68 128.583 22.68H131.063C131.063 22 130.856 21.48 130.443 21.12C130.029 20.7467 129.409 20.56 128.583 20.56C128.009 20.56 127.443 20.6533 126.883 20.84C126.336 21.0133 125.869 21.2533 125.483 21.56L124.363 19.38C124.949 18.9667 125.649 18.6467 126.463 18.42C127.289 18.1933 128.136 18.08 129.003 18.08ZM128.763 27.06C129.296 27.06 129.769 26.94 130.183 26.7C130.596 26.4467 130.889 26.08 131.063 25.6V24.5H128.923C127.643 24.5 127.003 24.92 127.003 25.76C127.003 26.16 127.156 26.48 127.463 26.72C127.783 26.9467 128.216 27.06 128.763 27.06ZM140.626 29.16C139.733 29.16 138.86 29.0533 138.006 28.84C137.153 28.6133 136.473 28.3333 135.966 28L137.006 25.76C137.486 26.0667 138.066 26.32 138.746 26.52C139.426 26.7067 140.093 26.8 140.746 26.8C142.066 26.8 142.726 26.4733 142.726 25.82C142.726 25.5133 142.546 25.2933 142.186 25.16C141.826 25.0267 141.273 24.9133 140.526 24.82C139.646 24.6867 138.92 24.5333 138.346 24.36C137.773 24.1867 137.273 23.88 136.846 23.44C136.433 23 136.226 22.3733 136.226 21.56C136.226 20.88 136.42 20.28 136.806 19.76C137.206 19.2267 137.78 18.8133 138.526 18.52C139.286 18.2267 140.18 18.08 141.206 18.08C141.966 18.08 142.72 18.1667 143.466 18.34C144.226 18.5 144.853 18.7267 145.346 19.02L144.306 21.24C143.36 20.7067 142.326 20.44 141.206 20.44C140.54 20.44 140.04 20.5333 139.706 20.72C139.373 20.9067 139.206 21.1467 139.206 21.44C139.206 21.7733 139.386 22.0067 139.746 22.14C140.106 22.2733 140.68 22.4 141.466 22.52C142.346 22.6667 143.066 22.8267 143.626 23C144.186 23.16 144.673 23.46 145.086 23.9C145.5 24.34 145.706 24.9533 145.706 25.74C145.706 26.4067 145.506 27 145.106 27.52C144.706 28.04 144.12 28.4467 143.346 28.74C142.586 29.02 141.68 29.16 140.626 29.16ZM154.171 18.08C155.505 18.08 156.578 18.48 157.391 19.28C158.218 20.08 158.631 21.2667 158.631 22.84V29H155.511V23.32C155.511 22.4667 155.325 21.8333 154.951 21.42C154.578 20.9933 154.038 20.78 153.331 20.78C152.545 20.78 151.918 21.0267 151.451 21.52C150.985 22 150.751 22.72 150.751 23.68V29H147.631V14.16H150.751V19.36C151.165 18.9467 151.665 18.6333 152.251 18.42C152.838 18.1933 153.478 18.08 154.171 18.08ZM172.117 23.66C172.117 23.7 172.097 23.98 172.057 24.5H163.917C164.063 25.1667 164.41 25.6933 164.957 26.08C165.503 26.4667 166.183 26.66 166.997 26.66C167.557 26.66 168.05 26.58 168.477 26.42C168.917 26.2467 169.323 25.98 169.697 25.62L171.357 27.42C170.343 28.58 168.863 29.16 166.917 29.16C165.703 29.16 164.63 28.9267 163.697 28.46C162.763 27.98 162.043 27.32 161.537 26.48C161.03 25.64 160.777 24.6867 160.777 23.62C160.777 22.5667 161.023 21.62 161.517 20.78C162.023 19.9267 162.71 19.2667 163.577 18.8C164.457 18.32 165.437 18.08 166.517 18.08C167.57 18.08 168.523 18.3067 169.377 18.76C170.23 19.2133 170.897 19.8667 171.377 20.72C171.87 21.56 172.117 22.54 172.117 23.66ZM166.537 20.44C165.83 20.44 165.237 20.64 164.757 21.04C164.277 21.44 163.983 21.9867 163.877 22.68H169.177C169.07 22 168.777 21.46 168.297 21.06C167.817 20.6467 167.23 20.44 166.537 20.44ZM177.174 19.66C177.547 19.14 178.047 18.7467 178.674 18.48C179.314 18.2133 180.047 18.08 180.874 18.08V20.96C180.527 20.9333 180.294 20.92 180.174 20.92C179.281 20.92 178.581 21.1733 178.074 21.68C177.567 22.1733 177.314 22.92 177.314 23.92V29H174.194V18.24H177.174V19.66ZM199.451 29.24L197.771 27.68C196.438 28.72 194.878 29.24 193.091 29.24C192.078 29.24 191.165 29.08 190.351 28.76C189.538 28.4267 188.898 27.9667 188.431 27.38C187.978 26.7933 187.751 26.1333 187.751 25.4C187.751 24.5333 187.991 23.7733 188.471 23.12C188.965 22.4533 189.751 21.82 190.831 21.22C190.325 20.7 189.958 20.2067 189.731 19.74C189.505 19.26 189.391 18.7667 189.391 18.26C189.391 17.58 189.571 16.98 189.931 16.46C190.291 15.94 190.798 15.54 191.451 15.26C192.118 14.9667 192.885 14.82 193.751 14.82C194.965 14.82 195.938 15.1133 196.671 15.7C197.405 16.2733 197.771 17.0533 197.771 18.04C197.771 18.76 197.551 19.4 197.111 19.96C196.685 20.52 195.991 21.06 195.031 21.58L197.591 23.96C197.898 23.32 198.131 22.5933 198.291 21.78L200.791 22.56C200.525 23.8 200.098 24.86 199.511 25.74L201.151 27.26L199.451 29.24ZM193.751 16.94C193.285 16.94 192.911 17.06 192.631 17.3C192.365 17.54 192.231 17.8467 192.231 18.22C192.231 18.5 192.305 18.7667 192.451 19.02C192.598 19.26 192.885 19.5867 193.311 20C193.991 19.64 194.465 19.32 194.731 19.04C194.998 18.7467 195.131 18.4333 195.131 18.1C195.131 17.7533 195.011 17.4733 194.771 17.26C194.531 17.0467 194.191 16.94 193.751 16.94ZM193.311 26.8C194.285 26.8 195.158 26.5267 195.931 25.98L192.551 22.82C191.925 23.18 191.478 23.5333 191.211 23.88C190.945 24.2267 190.811 24.62 190.811 25.06C190.811 25.58 191.038 26 191.491 26.32C191.945 26.64 192.551 26.8 193.311 26.8ZM208.906 15H215.266C216.786 15 218.126 15.2933 219.286 15.88C220.459 16.4533 221.366 17.2667 222.006 18.32C222.659 19.3733 222.986 20.6 222.986 22C222.986 23.4 222.659 24.6267 222.006 25.68C221.366 26.7333 220.459 27.5533 219.286 28.14C218.126 28.7133 216.786 29 215.266 29H208.906V15ZM215.106 26.34C216.506 26.34 217.619 25.9533 218.446 25.18C219.286 24.3933 219.706 23.3333 219.706 22C219.706 20.6667 219.286 19.6133 218.446 18.84C217.619 18.0533 216.506 17.66 215.106 17.66H212.146V26.34H215.106ZM228.19 19.66C228.563 19.14 229.063 18.7467 229.69 18.48C230.33 18.2133 231.063 18.08 231.89 18.08V20.96C231.543 20.9333 231.31 20.92 231.19 20.92C230.296 20.92 229.596 21.1733 229.09 21.68C228.583 22.1733 228.33 22.92 228.33 23.92V29H225.21V18.24H228.19V19.66ZM244.796 18.24L239.936 29.66C239.442 30.9 238.829 31.7733 238.096 32.28C237.376 32.7867 236.502 33.04 235.476 33.04C234.916 33.04 234.362 32.9533 233.816 32.78C233.269 32.6067 232.822 32.3667 232.476 32.06L233.616 29.84C233.856 30.0533 234.129 30.22 234.436 30.34C234.756 30.46 235.069 30.52 235.376 30.52C235.802 30.52 236.149 30.4133 236.416 30.2C236.682 30 236.922 29.66 237.136 29.18L237.176 29.08L232.516 18.24H235.736L238.756 25.54L241.796 18.24H244.796ZM256.316 23.66C256.316 23.7 256.296 23.98 256.256 24.5H248.116C248.263 25.1667 248.609 25.6933 249.156 26.08C249.703 26.4667 250.383 26.66 251.196 26.66C251.756 26.66 252.249 26.58 252.676 26.42C253.116 26.2467 253.523 25.98 253.896 25.62L255.556 27.42C254.543 28.58 253.063 29.16 251.116 29.16C249.903 29.16 248.829 28.9267 247.896 28.46C246.963 27.98 246.243 27.32 245.736 26.48C245.229 25.64 244.976 24.6867 244.976 23.62C244.976 22.5667 245.223 21.62 245.716 20.78C246.223 19.9267 246.909 19.2667 247.776 18.8C248.656 18.32 249.636 18.08 250.716 18.08C251.769 18.08 252.723 18.3067 253.576 18.76C254.429 19.2133 255.096 19.8667 255.576 20.72C256.069 21.56 256.316 22.54 256.316 23.66ZM250.736 20.44C250.029 20.44 249.436 20.64 248.956 21.04C248.476 21.44 248.183 21.9867 248.076 22.68H253.376C253.269 22 252.976 21.46 252.496 21.06C252.016 20.6467 251.429 20.44 250.736 20.44ZM261.373 19.66C261.746 19.14 262.246 18.7467 262.873 18.48C263.513 18.2133 264.246 18.08 265.073 18.08V20.96C264.726 20.9333 264.493 20.92 264.373 20.92C263.48 20.92 262.78 21.1733 262.273 21.68C261.766 22.1733 261.513 22.92 261.513 23.92V29H258.393V18.24H261.373V19.66Z" fill="#D3AB98"/>
<path d="M10 3H286V-3H10V3ZM293 10V34H299V10H293ZM286 41H10V47H286V41ZM3 34V10H-3V34H3ZM10 41C6.13401 41 3 37.866 3 34H-3C-3 41.1797 2.8203 47 10 47V41ZM293 34C293 37.866 289.866 41 286 41V47C293.18 47 299 41.1797 299 34H293ZM286 3C289.866 3 293 6.13401 293 10H299C299 2.8203 293.18 -3 286 -3V3ZM10 -3C2.8203 -3 -3 2.8203 -3 10H3C3 6.13401 6.13401 3 10 3V-3Z" fill="#D3AB98"/>
</svg>
