<svg width="83" height="96" viewBox="0 0 83 96" fill="none" xmlns="http://www.w3.org/2000/svg">
<path d="M0 14C0 6.26801 6.26801 0 14 0H69C76.732 0 83 6.26801 83 14V82C83 89.732 76.732 96 69 96H14C6.26801 96 0 89.732 0 82V14Z" fill="#E7936D"/>
<path d="M45.6623 27.0678C46.305 27.0678 46.8964 27.1867 47.4368 27.4244C49.0409 28.1975 49.988 29.6668 50 31.3052V42.591C49.6991 44.3851 47.5545 43.8973 47.5026 42.591V31.9346C47.3115 31.3269 46.086 31.5788 46.0567 31.9346V56.3941C45.7451 58.8917 42.3746 58.1585 42.2887 56.3521V41.3743C42.0732 40.4083 40.6548 40.8472 40.6237 41.4163C40.6839 46.3947 40.6675 51.3735 40.6675 56.3521C40.3314 58.8369 36.9773 58.2011 36.8995 56.3941L36.8557 31.9346C36.6593 31.34 35.5237 31.568 35.4974 31.9346V42.591C35.1965 44.3851 33.0519 43.8973 33 42.591V31.3052C33.0303 29.7367 33.6307 28.1653 35.0593 27.4244C35.5267 27.1867 36.0962 27.0678 36.768 27.0678L45.6623 27.0678ZM45.6182 21.9426C45.6182 24.12 43.7747 25.8852 41.5008 25.8852C39.2269 25.8852 37.3834 24.12 37.3834 21.9426C37.3834 19.7652 39.2268 18 41.5007 18C43.7747 18 45.6182 19.7652 45.6182 21.9426Z" fill="white"/>
<path d="M14.26 76.24C13.1533 76.24 12.08 76.0933 11.04 75.8C10.0133 75.4933 9.18666 75.1 8.56 74.62L9.66 72.18C10.26 72.62 10.9733 72.9733 11.8 73.24C12.6267 73.5067 13.4533 73.64 14.28 73.64C15.2 73.64 15.88 73.5067 16.32 73.24C16.76 72.96 16.98 72.5933 16.98 72.14C16.98 71.8067 16.8467 71.5333 16.58 71.32C16.3267 71.0933 15.9933 70.9133 15.58 70.78C15.18 70.6467 14.6333 70.5 13.94 70.34C12.8733 70.0867 12 69.8333 11.32 69.58C10.64 69.3267 10.0533 68.92 9.56 68.36C9.08 67.8 8.84 67.0533 8.84 66.12C8.84 65.3067 9.06 64.5733 9.5 63.92C9.94 63.2533 10.6 62.7267 11.48 62.34C12.3733 61.9533 13.46 61.76 14.74 61.76C15.6333 61.76 16.5067 61.8667 17.36 62.08C18.2133 62.2933 18.96 62.6 19.6 63L18.6 65.46C17.3067 64.7267 16.0133 64.36 14.72 64.36C13.8133 64.36 13.14 64.5067 12.7 64.8C12.2733 65.0933 12.06 65.48 12.06 65.96C12.06 66.44 12.3067 66.8 12.8 67.04C13.3067 67.2667 14.0733 67.4933 15.1 67.72C16.1667 67.9733 17.04 68.2267 17.72 68.48C18.4 68.7333 18.98 69.1333 19.46 69.68C19.9533 70.2267 20.2 70.9667 20.2 71.9C20.2 72.7 19.9733 73.4333 19.52 74.1C19.08 74.7533 18.4133 75.2733 17.52 75.66C16.6267 76.0467 15.54 76.24 14.26 76.24Z" fill="white"/>
<path d="M22.1939 65.24H25.3139V76H22.1939V65.24ZM23.7539 63.74C23.1806 63.74 22.7139 63.5733 22.3539 63.24C21.9939 62.9067 21.8139 62.4933 21.8139 62C21.8139 61.5067 21.9939 61.0933 22.3539 60.76C22.7139 60.4267 23.1806 60.26 23.7539 60.26C24.3272 60.26 24.7939 60.42 25.1539 60.74C25.5139 61.06 25.6939 61.46 25.6939 61.94C25.6939 62.46 25.5139 62.8933 25.1539 63.24C24.7939 63.5733 24.3272 63.74 23.7539 63.74Z" fill="white"/>
<path d="M34.7495 65.08C36.0829 65.08 37.1562 65.48 37.9695 66.28C38.7962 67.08 39.2095 68.2667 39.2095 69.84V76H36.0895V70.32C36.0895 69.4667 35.9029 68.8333 35.5295 68.42C35.1562 67.9933 34.6162 67.78 33.9095 67.78C33.1229 67.78 32.4962 68.0267 32.0295 68.52C31.5629 69 31.3295 69.72 31.3295 70.68V76H28.2095V65.24H31.1895V66.5C31.6029 66.0467 32.1162 65.7 32.7295 65.46C33.3429 65.2067 34.0162 65.08 34.7495 65.08Z" fill="white"/>
<path d="M53.2548 65.24V74.2C53.2548 76.1733 52.7415 77.64 51.7148 78.6C50.6882 79.56 49.1882 80.04 47.2148 80.04C46.1748 80.04 45.1882 79.9133 44.2548 79.66C43.3215 79.4067 42.5482 79.04 41.9348 78.56L43.1748 76.32C43.6282 76.6933 44.2015 76.9867 44.8948 77.2C45.5882 77.4267 46.2815 77.54 46.9748 77.54C48.0548 77.54 48.8482 77.2933 49.3548 76.8C49.8748 76.32 50.1348 75.5867 50.1348 74.6V74.14C49.3215 75.0333 48.1882 75.48 46.7348 75.48C45.7482 75.48 44.8415 75.2667 44.0148 74.84C43.2015 74.4 42.5548 73.7867 42.0748 73C41.5948 72.2133 41.3548 71.3067 41.3548 70.28C41.3548 69.2533 41.5948 68.3467 42.0748 67.56C42.5548 66.7733 43.2015 66.1667 44.0148 65.74C44.8415 65.3 45.7482 65.08 46.7348 65.08C48.2948 65.08 49.4815 65.5933 50.2948 66.62V65.24H53.2548ZM47.3548 72.92C48.1815 72.92 48.8548 72.68 49.3748 72.2C49.9082 71.7067 50.1748 71.0667 50.1748 70.28C50.1748 69.4933 49.9082 68.86 49.3748 68.38C48.8548 67.8867 48.1815 67.64 47.3548 67.64C46.5282 67.64 45.8482 67.8867 45.3148 68.38C44.7815 68.86 44.5148 69.4933 44.5148 70.28C44.5148 71.0667 44.7815 71.7067 45.3148 72.2C45.8482 72.68 46.5282 72.92 47.3548 72.92Z" fill="white"/>
<path d="M56.1587 61.16H59.2787V76H56.1587V61.16Z" fill="white"/>
<path d="M72.7144 70.66C72.7144 70.7 72.6944 70.98 72.6544 71.5H64.5144C64.661 72.1667 65.0077 72.6933 65.5544 73.08C66.101 73.4667 66.781 73.66 67.5944 73.66C68.1544 73.66 68.6477 73.58 69.0744 73.42C69.5144 73.2467 69.921 72.98 70.2944 72.62L71.9544 74.42C70.941 75.58 69.461 76.16 67.5144 76.16C66.301 76.16 65.2277 75.9267 64.2944 75.46C63.361 74.98 62.641 74.32 62.1344 73.48C61.6277 72.64 61.3744 71.6867 61.3744 70.62C61.3744 69.5667 61.621 68.62 62.1144 67.78C62.621 66.9267 63.3077 66.2667 64.1744 65.8C65.0544 65.32 66.0344 65.08 67.1144 65.08C68.1677 65.08 69.121 65.3067 69.9744 65.76C70.8277 66.2133 71.4944 66.8667 71.9744 67.72C72.4677 68.56 72.7144 69.54 72.7144 70.66ZM67.1344 67.44C66.4277 67.44 65.8344 67.64 65.3544 68.04C64.8744 68.44 64.581 68.9867 64.4744 69.68H69.7744C69.6677 69 69.3744 68.46 68.8944 68.06C68.4144 67.6467 67.8277 67.44 67.1344 67.44Z" fill="white"/>
</svg>
