<svg width="96" height="96" viewBox="0 0 96 96" fill="none" xmlns="http://www.w3.org/2000/svg">
<rect x="0.5" y="0.5" width="95" height="95" rx="13.5" fill="#E7936D" stroke="#E7936D"/>
<path d="M30.5 38H57.5C58.325 38 59 38.6923 59 39.5385C59 40.2087 58.5765 40.7824 57.9903 40.992C57.7303 41.085 57.5 41.3008 57.5 41.5769V57.5C57.5 57.7761 57.2761 58 57 58H55C54.7239 58 54.5 57.7761 54.5 57.5V55.4231C54.5 55.1469 54.2761 54.9231 54 54.9231H49C48.7239 54.9231 48.5 55.1469 48.5 55.4231V57.5C48.5 57.7761 48.2761 58 48 58H46C45.7239 58 45.5 57.7761 45.5 57.5V41.5769C45.5 41.3008 45.2761 41.0769 45 41.0769H34C33.7239 41.0769 33.5 41.3008 33.5 41.5769V57.5C33.5 57.7761 33.2761 58 33 58H31C30.7239 58 30.5 57.7761 30.5 57.5V41.5769C30.5 41.3008 30.2697 41.085 30.0097 40.992C29.4235 40.7824 29 40.2087 29 39.5385C29 38.6923 29.675 38 30.5 38ZM50 44.9231V46.3889C50 46.665 50.2239 46.8889 50.5 46.8889H52.5C52.7761 46.8889 53 46.665 53 46.3889V44.9231C53 44.4923 52.67 44.1538 52.25 44.1538H50.75C50.33 44.1538 50 44.4923 50 44.9231Z" fill="white"/>
<path d="M65.5666 21C65.9142 21 66.2221 21.2245 66.3283 21.5555L68.6648 28.8355C68.8305 29.3519 68.4453 29.88 67.9031 29.88H58.0969C57.5547 29.88 57.1695 29.3519 57.3352 28.8355L59.6717 21.5555C59.7779 21.2245 60.0858 21 60.4334 21H65.5666ZM61.9599 32.1698C61.9545 31.7242 62.3142 31.36 62.7599 31.36H63.25C63.6918 31.36 64.05 31.7182 64.05 32.16V54.98C64.05 55.4218 64.4082 55.78 64.85 55.78H66.4C66.8418 55.78 67.2 56.1382 67.2 56.58V57.2C67.2 57.6418 66.8418 58 66.4 58H59.6C59.1582 58 58.8 57.6418 58.8 57.2V56.58C58.8 56.1382 59.1582 55.78 59.6 55.78H61.4401C61.8858 55.78 62.2455 55.4158 62.2401 54.9702L61.9599 32.1698Z" fill="white"/>
<path d="M19.26 78.24C18.1533 78.24 17.08 78.0933 16.04 77.8C15.0133 77.4933 14.1867 77.1 13.56 76.62L14.66 74.18C15.26 74.62 15.9733 74.9733 16.8 75.24C17.6267 75.5067 18.4533 75.64 19.28 75.64C20.2 75.64 20.88 75.5067 21.32 75.24C21.76 74.96 21.98 74.5933 21.98 74.14C21.98 73.8067 21.8467 73.5333 21.58 73.32C21.3267 73.0933 20.9933 72.9133 20.58 72.78C20.18 72.6467 19.6333 72.5 18.94 72.34C17.8733 72.0867 17 71.8333 16.32 71.58C15.64 71.3267 15.0533 70.92 14.56 70.36C14.08 69.8 13.84 69.0533 13.84 68.12C13.84 67.3067 14.06 66.5733 14.5 65.92C14.94 65.2533 15.6 64.7267 16.48 64.34C17.3733 63.9533 18.46 63.76 19.74 63.76C20.6333 63.76 21.5067 63.8667 22.36 64.08C23.2133 64.2933 23.96 64.6 24.6 65L23.6 67.46C22.3067 66.7267 21.0133 66.36 19.72 66.36C18.8133 66.36 18.14 66.5067 17.7 66.8C17.2733 67.0933 17.06 67.48 17.06 67.96C17.06 68.44 17.3067 68.8 17.8 69.04C18.3067 69.2667 19.0733 69.4933 20.1 69.72C21.1667 69.9733 22.04 70.2267 22.72 70.48C23.4 70.7333 23.98 71.1333 24.46 71.68C24.9533 72.2267 25.2 72.9667 25.2 73.9C25.2 74.7 24.9733 75.4333 24.52 76.1C24.08 76.7533 23.4133 77.2733 22.52 77.66C21.6267 78.0467 20.54 78.24 19.26 78.24ZM34.1339 77.48C33.8272 77.7067 33.4472 77.88 32.9939 78C32.5539 78.1067 32.0872 78.16 31.5939 78.16C30.3139 78.16 29.3206 77.8333 28.6139 77.18C27.9206 76.5267 27.5739 75.5667 27.5739 74.3V69.88H25.9139V67.48H27.5739V64.86H30.6939V67.48H33.3739V69.88H30.6939V74.26C30.6939 74.7133 30.8072 75.0667 31.0339 75.32C31.2739 75.56 31.6072 75.68 32.0339 75.68C32.5272 75.68 32.9472 75.5467 33.2939 75.28L34.1339 77.48ZM46.7253 67.24V78H43.7653V76.72C43.352 77.1867 42.8586 77.5467 42.2853 77.8C41.712 78.04 41.092 78.16 40.4253 78.16C39.012 78.16 37.892 77.7533 37.0653 76.94C36.2386 76.1267 35.8253 74.92 35.8253 73.32V67.24H38.9453V72.86C38.9453 74.5933 39.672 75.46 41.1253 75.46C41.872 75.46 42.472 75.22 42.9253 74.74C43.3786 74.2467 43.6053 73.52 43.6053 72.56V67.24H46.7253ZM60.5758 63.16V78H57.5958V76.76C56.8224 77.6933 55.7024 78.16 54.2358 78.16C53.2224 78.16 52.3024 77.9333 51.4758 77.48C50.6624 77.0267 50.0224 76.38 49.5558 75.54C49.0891 74.7 48.8558 73.7267 48.8558 72.62C48.8558 71.5133 49.0891 70.54 49.5558 69.7C50.0224 68.86 50.6624 68.2133 51.4758 67.76C52.3024 67.3067 53.2224 67.08 54.2358 67.08C55.6091 67.08 56.6824 67.5133 57.4558 68.38V63.16H60.5758ZM54.7758 75.6C55.5624 75.6 56.2158 75.3333 56.7358 74.8C57.2558 74.2533 57.5158 73.5267 57.5158 72.62C57.5158 71.7133 57.2558 70.9933 56.7358 70.46C56.2158 69.9133 55.5624 69.64 54.7758 69.64C53.9758 69.64 53.3158 69.9133 52.7958 70.46C52.2758 70.9933 52.0158 71.7133 52.0158 72.62C52.0158 73.5267 52.2758 74.2533 52.7958 74.8C53.3158 75.3333 53.9758 75.6 54.7758 75.6ZM63.4634 67.24H66.5834V78H63.4634V67.24ZM65.0234 65.74C64.4501 65.74 63.9834 65.5733 63.6234 65.24C63.2634 64.9067 63.0834 64.4933 63.0834 64C63.0834 63.5067 63.2634 63.0933 63.6234 62.76C63.9834 62.4267 64.4501 62.26 65.0234 62.26C65.5968 62.26 66.0634 62.42 66.4234 62.74C66.7834 63.06 66.9634 63.46 66.9634 63.94C66.9634 64.46 66.7834 64.8933 66.4234 65.24C66.0634 65.5733 65.5968 65.74 65.0234 65.74ZM74.5991 78.16C73.4657 78.16 72.4457 77.9267 71.5391 77.46C70.6457 76.98 69.9457 76.32 69.4391 75.48C68.9324 74.64 68.6791 73.6867 68.6791 72.62C68.6791 71.5533 68.9324 70.6 69.4391 69.76C69.9457 68.92 70.6457 68.2667 71.5391 67.8C72.4457 67.32 73.4657 67.08 74.5991 67.08C75.7324 67.08 76.7457 67.32 77.6391 67.8C78.5324 68.2667 79.2324 68.92 79.7391 69.76C80.2457 70.6 80.4991 71.5533 80.4991 72.62C80.4991 73.6867 80.2457 74.64 79.7391 75.48C79.2324 76.32 78.5324 76.98 77.6391 77.46C76.7457 77.9267 75.7324 78.16 74.5991 78.16ZM74.5991 75.6C75.3991 75.6 76.0524 75.3333 76.5591 74.8C77.0791 74.2533 77.3391 73.5267 77.3391 72.62C77.3391 71.7133 77.0791 70.9933 76.5591 70.46C76.0524 69.9133 75.3991 69.64 74.5991 69.64C73.7991 69.64 73.1391 69.9133 72.6191 70.46C72.0991 70.9933 71.8391 71.7133 71.8391 72.62C71.8391 73.5267 72.0991 74.2533 72.6191 74.8C73.1391 75.3333 73.7991 75.6 74.5991 75.6Z" fill="white"/>
</svg>
