<svg width="188" height="44" viewBox="0 0 188 44" fill="none" xmlns="http://www.w3.org/2000/svg">
<path d="M0 10C0 4.47715 4.47715 0 10 0H178C183.523 0 188 4.47715 188 10V34C188 39.5228 183.523 44 178 44H10C4.47715 44 0 39.5228 0 34V10Z" fill="white"/>
<path d="M43.6 26.06H41.32V29H38.16V26.06H30.62V23.88L37.22 15H40.62L34.5 23.42H38.26V20.8H41.32V23.42H43.6V26.06ZM54.99 26.36V29H44.41V26.9L49.81 21.8C50.3833 21.2533 50.77 20.7867 50.97 20.4C51.17 20 51.27 19.6067 51.27 19.22C51.27 18.66 51.0767 18.2333 50.69 17.94C50.3167 17.6333 49.7633 17.48 49.03 17.48C48.4167 17.48 47.8633 17.6 47.37 17.84C46.8767 18.0667 46.4633 18.4133 46.13 18.88L43.77 17.36C44.3167 16.5467 45.07 15.9133 46.03 15.46C46.99 14.9933 48.09 14.76 49.33 14.76C50.37 14.76 51.2767 14.9333 52.05 15.28C52.8367 15.6133 53.4433 16.0933 53.87 16.72C54.31 17.3333 54.53 18.06 54.53 18.9C54.53 19.66 54.37 20.3733 54.05 21.04C53.73 21.7067 53.11 22.4667 52.19 23.32L48.97 26.36H54.99ZM62.2878 29.24C61.1278 29.24 60.0945 28.9533 59.1878 28.38C58.2811 27.8067 57.5678 26.98 57.0478 25.9C56.5411 24.8067 56.2878 23.5067 56.2878 22C56.2878 20.4933 56.5411 19.2 57.0478 18.12C57.5678 17.0267 58.2811 16.1933 59.1878 15.62C60.0945 15.0467 61.1278 14.76 62.2878 14.76C63.4478 14.76 64.4811 15.0467 65.3878 15.62C66.2945 16.1933 67.0011 17.0267 67.5078 18.12C68.0278 19.2 68.2878 20.4933 68.2878 22C68.2878 23.5067 68.0278 24.8067 67.5078 25.9C67.0011 26.98 66.2945 27.8067 65.3878 28.38C64.4811 28.9533 63.4478 29.24 62.2878 29.24ZM62.2878 26.5C63.1411 26.5 63.8078 26.1333 64.2878 25.4C64.7811 24.6667 65.0278 23.5333 65.0278 22C65.0278 20.4667 64.7811 19.3333 64.2878 18.6C63.8078 17.8667 63.1411 17.5 62.2878 17.5C61.4478 17.5 60.7811 17.8667 60.2878 18.6C59.8078 19.3333 59.5678 20.4667 59.5678 22C59.5678 23.5333 59.8078 24.6667 60.2878 25.4C60.7811 26.1333 61.4478 26.5 62.2878 26.5ZM79.6061 18.48H82.3661V20.88H79.6861V29H76.5661V20.88H74.9061V18.48H76.5661V18C76.5661 16.7733 76.9261 15.8 77.6461 15.08C78.3794 14.36 79.4061 14 80.7261 14C81.1928 14 81.6328 14.0533 82.0461 14.16C82.4728 14.2533 82.8261 14.3933 83.1061 14.58L82.2861 16.84C81.9261 16.5867 81.5061 16.46 81.0261 16.46C80.0794 16.46 79.6061 16.98 79.6061 18.02V18.48ZM88.502 19.66C88.8754 19.14 89.3754 18.7467 90.002 18.48C90.642 18.2133 91.3754 18.08 92.202 18.08V20.96C91.8554 20.9333 91.622 20.92 91.502 20.92C90.6087 20.92 89.9087 21.1733 89.402 21.68C88.8954 22.1733 88.642 22.92 88.642 23.92V29H85.522V18.24H88.502V19.66ZM94.0572 18.24H97.1772V29H94.0572V18.24ZM95.6172 16.74C95.0439 16.74 94.5772 16.5733 94.2172 16.24C93.8572 15.9067 93.6772 15.4933 93.6772 15C93.6772 14.5067 93.8572 14.0933 94.2172 13.76C94.5772 13.4267 95.0439 13.26 95.6172 13.26C96.1905 13.26 96.6572 13.42 97.0172 13.74C97.3772 14.06 97.5572 14.46 97.5572 14.94C97.5572 15.46 97.3772 15.8933 97.0172 16.24C96.6572 16.5733 96.1905 16.74 95.6172 16.74ZM110.613 23.66C110.613 23.7 110.593 23.98 110.553 24.5H102.413C102.559 25.1667 102.906 25.6933 103.453 26.08C103.999 26.4667 104.679 26.66 105.493 26.66C106.053 26.66 106.546 26.58 106.973 26.42C107.413 26.2467 107.819 25.98 108.193 25.62L109.853 27.42C108.839 28.58 107.359 29.16 105.413 29.16C104.199 29.16 103.126 28.9267 102.193 28.46C101.259 27.98 100.539 27.32 100.033 26.48C99.5261 25.64 99.2728 24.6867 99.2728 23.62C99.2728 22.5667 99.5195 21.62 100.013 20.78C100.519 19.9267 101.206 19.2667 102.073 18.8C102.953 18.32 103.933 18.08 105.013 18.08C106.066 18.08 107.019 18.3067 107.873 18.76C108.726 19.2133 109.393 19.8667 109.873 20.72C110.366 21.56 110.613 22.54 110.613 23.66ZM105.033 20.44C104.326 20.44 103.733 20.64 103.253 21.04C102.773 21.44 102.479 21.9867 102.373 22.68H107.673C107.566 22 107.273 21.46 106.793 21.06C106.313 20.6467 105.726 20.44 105.033 20.44ZM119.23 18.08C120.563 18.08 121.637 18.48 122.45 19.28C123.277 20.08 123.69 21.2667 123.69 22.84V29H120.57V23.32C120.57 22.4667 120.383 21.8333 120.01 21.42C119.637 20.9933 119.097 20.78 118.39 20.78C117.603 20.78 116.977 21.0267 116.51 21.52C116.043 22 115.81 22.72 115.81 23.68V29H112.69V18.24H115.67V19.5C116.083 19.0467 116.597 18.7 117.21 18.46C117.823 18.2067 118.497 18.08 119.23 18.08ZM137.595 14.16V29H134.615V27.76C133.842 28.6933 132.722 29.16 131.255 29.16C130.242 29.16 129.322 28.9333 128.495 28.48C127.682 28.0267 127.042 27.38 126.575 26.54C126.109 25.7 125.875 24.7267 125.875 23.62C125.875 22.5133 126.109 21.54 126.575 20.7C127.042 19.86 127.682 19.2133 128.495 18.76C129.322 18.3067 130.242 18.08 131.255 18.08C132.629 18.08 133.702 18.5133 134.475 19.38V14.16H137.595ZM131.795 26.6C132.582 26.6 133.235 26.3333 133.755 25.8C134.275 25.2533 134.535 24.5267 134.535 23.62C134.535 22.7133 134.275 21.9933 133.755 21.46C133.235 20.9133 132.582 20.64 131.795 20.64C130.995 20.64 130.335 20.9133 129.815 21.46C129.295 21.9933 129.035 22.7133 129.035 23.62C129.035 24.5267 129.295 25.2533 129.815 25.8C130.335 26.3333 130.995 26.6 131.795 26.6ZM140.483 14.16H143.603V29H140.483V14.16ZM157.179 18.24L152.319 29.66C151.825 30.9 151.212 31.7733 150.479 32.28C149.759 32.7867 148.885 33.04 147.859 33.04C147.299 33.04 146.745 32.9533 146.199 32.78C145.652 32.6067 145.205 32.3667 144.859 32.06L145.999 29.84C146.239 30.0533 146.512 30.22 146.819 30.34C147.139 30.46 147.452 30.52 147.759 30.52C148.185 30.52 148.532 30.4133 148.799 30.2C149.065 30 149.305 29.66 149.519 29.18L149.559 29.08L144.899 18.24H148.119L151.139 25.54L154.179 18.24H157.179Z" fill="#D3AB98"/>
<path d="M10 3H178V-3H10V3ZM185 10V34H191V10H185ZM178 41H10V47H178V41ZM3 34V10H-3V34H3ZM10 41C6.13401 41 3 37.866 3 34H-3C-3 41.1797 2.8203 47 10 47V41ZM185 34C185 37.866 181.866 41 178 41V47C185.18 47 191 41.1797 191 34H185ZM178 3C181.866 3 185 6.13401 185 10H191C191 2.8203 185.18 -3 178 -3V3ZM10 -3C2.8203 -3 -3 2.8203 -3 10H3C3 6.13401 6.13401 3 10 3V-3Z" fill="#D3AB98"/>
</svg>
