<svg width="146" height="44" viewBox="0 0 146 44" fill="none" xmlns="http://www.w3.org/2000/svg">
<path d="M0 10C0 4.47715 4.47715 0 10 0H136C141.523 0 146 4.47715 146 10V34C146 39.5228 141.523 44 136 44H10C4.47715 44 0 39.5228 0 34V10Z" fill="#E7936D"/>
<path d="M42.5 26.4V29H31.66V15H42.24V17.6H34.88V20.64H41.38V23.16H34.88V26.4H42.5ZM44.858 14.16H47.978V29H44.858V14.16ZM61.4136 23.66C61.4136 23.7 61.3936 23.98 61.3536 24.5H53.2136C53.3603 25.1667 53.7069 25.6933 54.2536 26.08C54.8003 26.4667 55.4803 26.66 56.2936 26.66C56.8536 26.66 57.3469 26.58 57.7736 26.42C58.2136 26.2467 58.6203 25.98 58.9936 25.62L60.6536 27.42C59.6403 28.58 58.1603 29.16 56.2136 29.16C55.0003 29.16 53.9269 28.9267 52.9936 28.46C52.0603 27.98 51.3403 27.32 50.8336 26.48C50.3269 25.64 50.0736 24.6867 50.0736 23.62C50.0736 22.5667 50.3203 21.62 50.8136 20.78C51.3203 19.9267 52.0069 19.2667 52.8736 18.8C53.7536 18.32 54.7336 18.08 55.8136 18.08C56.8669 18.08 57.8203 18.3067 58.6736 18.76C59.5269 19.2133 60.1936 19.8667 60.6736 20.72C61.1669 21.56 61.4136 22.54 61.4136 23.66ZM55.8336 20.44C55.1269 20.44 54.5336 20.64 54.0536 21.04C53.5736 21.44 53.2803 21.9867 53.1736 22.68H58.4736C58.3669 22 58.0736 21.46 57.5936 21.06C57.1136 20.6467 56.5269 20.44 55.8336 20.44ZM73.9755 18.24L69.4355 29H66.2155L61.6955 18.24H64.9155L67.8955 25.56L70.9755 18.24H73.9755ZM79.237 18.08C80.9037 18.08 82.1837 18.48 83.077 19.28C83.9704 20.0667 84.417 21.26 84.417 22.86V29H81.497V27.66C80.9104 28.66 79.817 29.16 78.217 29.16C77.3904 29.16 76.6704 29.02 76.057 28.74C75.457 28.46 74.997 28.0733 74.677 27.58C74.357 27.0867 74.197 26.5267 74.197 25.9C74.197 24.9 74.5704 24.1133 75.317 23.54C76.077 22.9667 77.2437 22.68 78.817 22.68H81.297C81.297 22 81.0904 21.48 80.677 21.12C80.2637 20.7467 79.6437 20.56 78.817 20.56C78.2437 20.56 77.677 20.6533 77.117 20.84C76.5704 21.0133 76.1037 21.2533 75.717 21.56L74.597 19.38C75.1837 18.9667 75.8837 18.6467 76.697 18.42C77.5237 18.1933 78.3704 18.08 79.237 18.08ZM78.997 27.06C79.5304 27.06 80.0037 26.94 80.417 26.7C80.8304 26.4467 81.1237 26.08 81.297 25.6V24.5H79.157C77.877 24.5 77.237 24.92 77.237 25.76C77.237 26.16 77.3904 26.48 77.697 26.72C78.017 26.9467 78.4504 27.06 78.997 27.06ZM94.1808 28.48C93.8741 28.7067 93.4941 28.88 93.0408 29C92.6008 29.1067 92.1341 29.16 91.6408 29.16C90.3608 29.16 89.3674 28.8333 88.6608 28.18C87.9674 27.5267 87.6208 26.5667 87.6208 25.3V20.88H85.9608V18.48H87.6208V15.86H90.7408V18.48H93.4208V20.88H90.7408V25.26C90.7408 25.7133 90.8541 26.0667 91.0808 26.32C91.3208 26.56 91.6541 26.68 92.0808 26.68C92.5741 26.68 92.9941 26.5467 93.3408 26.28L94.1808 28.48ZM100.72 29.16C99.5868 29.16 98.5668 28.9267 97.6602 28.46C96.7668 27.98 96.0668 27.32 95.5602 26.48C95.0535 25.64 94.8002 24.6867 94.8002 23.62C94.8002 22.5533 95.0535 21.6 95.5602 20.76C96.0668 19.92 96.7668 19.2667 97.6602 18.8C98.5668 18.32 99.5868 18.08 100.72 18.08C101.853 18.08 102.867 18.32 103.76 18.8C104.653 19.2667 105.353 19.92 105.86 20.76C106.367 21.6 106.62 22.5533 106.62 23.62C106.62 24.6867 106.367 25.64 105.86 26.48C105.353 27.32 104.653 27.98 103.76 28.46C102.867 28.9267 101.853 29.16 100.72 29.16ZM100.72 26.6C101.52 26.6 102.173 26.3333 102.68 25.8C103.2 25.2533 103.46 24.5267 103.46 23.62C103.46 22.7133 103.2 21.9933 102.68 21.46C102.173 20.9133 101.52 20.64 100.72 20.64C99.9202 20.64 99.2602 20.9133 98.7402 21.46C98.2202 21.9933 97.9602 22.7133 97.9602 23.62C97.9602 24.5267 98.2202 25.2533 98.7402 25.8C99.2602 26.3333 99.9202 26.6 100.72 26.6ZM111.686 19.66C112.059 19.14 112.559 18.7467 113.186 18.48C113.826 18.2133 114.559 18.08 115.386 18.08V20.96C115.039 20.9333 114.806 20.92 114.686 20.92C113.792 20.92 113.092 21.1733 112.586 21.68C112.079 22.1733 111.826 22.92 111.826 23.92V29H108.706V18.24H111.686V19.66Z" fill="white"/>
<path d="M10 3H136V-3H10V3ZM143 10V34H149V10H143ZM136 41H10V47H136V41ZM3 34V10H-3V34H3ZM10 41C6.13401 41 3 37.866 3 34H-3C-3 41.1797 2.82029 47 10 47V41ZM143 34C143 37.866 139.866 41 136 41V47C143.18 47 149 41.1797 149 34H143ZM136 3C139.866 3 143 6.13401 143 10H149C149 2.8203 143.18 -3 136 -3V3ZM10 -3C2.8203 -3 -3 2.8203 -3 10H3C3 6.13401 6.13401 3 10 3V-3Z" fill="#E7936D"/>
</svg>
