<svg width="314" height="44" viewBox="0 0 314 44" fill="none" xmlns="http://www.w3.org/2000/svg">
<path d="M0 10C0 4.47715 4.47715 0 10 0H304C309.523 0 314 4.47715 314 10V34C314 39.5228 309.523 44 304 44H10C4.47715 44 0 39.5228 0 34V10Z" fill="#E7936D"/>
<path d="M34.9 17.6V21.3H41.38V23.9H34.9V29H31.66V15H42.24V17.6H34.9ZM54.48 23.66C54.48 23.7 54.46 23.98 54.42 24.5H46.28C46.4267 25.1667 46.7733 25.6933 47.32 26.08C47.8667 26.4667 48.5467 26.66 49.36 26.66C49.92 26.66 50.4133 26.58 50.84 26.42C51.28 26.2467 51.6867 25.98 52.06 25.62L53.72 27.42C52.7067 28.58 51.2267 29.16 49.28 29.16C48.0667 29.16 46.9933 28.9267 46.06 28.46C45.1267 27.98 44.4067 27.32 43.9 26.48C43.3933 25.64 43.14 24.6867 43.14 23.62C43.14 22.5667 43.3867 21.62 43.88 20.78C44.3867 19.9267 45.0733 19.2667 45.94 18.8C46.82 18.32 47.8 18.08 48.88 18.08C49.9333 18.08 50.8867 18.3067 51.74 18.76C52.5933 19.2133 53.26 19.8667 53.74 20.72C54.2333 21.56 54.48 22.54 54.48 23.66ZM48.9 20.44C48.1933 20.44 47.6 20.64 47.12 21.04C46.64 21.44 46.3467 21.9867 46.24 22.68H51.54C51.4333 22 51.14 21.46 50.66 21.06C50.18 20.6467 49.5933 20.44 48.9 20.44ZM70.3372 18.08C71.6839 18.08 72.7505 18.48 73.5372 19.28C74.3372 20.0667 74.7372 21.2533 74.7372 22.84V29H71.6172V23.32C71.6172 22.4667 71.4372 21.8333 71.0772 21.42C70.7305 20.9933 70.2305 20.78 69.5772 20.78C68.8439 20.78 68.2639 21.02 67.8372 21.5C67.4105 21.9667 67.1972 22.6667 67.1972 23.6V29H64.0772V23.32C64.0772 21.6267 63.3972 20.78 62.0372 20.78C61.3172 20.78 60.7439 21.02 60.3172 21.5C59.8905 21.9667 59.6772 22.6667 59.6772 23.6V29H56.5572V18.24H59.5372V19.48C59.9372 19.0267 60.4239 18.68 60.9972 18.44C61.5839 18.2 62.2239 18.08 62.9172 18.08C63.6772 18.08 64.3639 18.2333 64.9772 18.54C65.5905 18.8333 66.0839 19.2667 66.4572 19.84C66.8972 19.28 67.4505 18.8467 68.1172 18.54C68.7972 18.2333 69.5372 18.08 70.3372 18.08ZM81.8738 18.08C83.5404 18.08 84.8204 18.48 85.7138 19.28C86.6071 20.0667 87.0538 21.26 87.0538 22.86V29H84.1338V27.66C83.5471 28.66 82.4538 29.16 80.8538 29.16C80.0271 29.16 79.3071 29.02 78.6938 28.74C78.0938 28.46 77.6338 28.0733 77.3138 27.58C76.9938 27.0867 76.8338 26.5267 76.8338 25.9C76.8338 24.9 77.2071 24.1133 77.9538 23.54C78.7138 22.9667 79.8804 22.68 81.4538 22.68H83.9338C83.9338 22 83.7271 21.48 83.3138 21.12C82.9004 20.7467 82.2804 20.56 81.4538 20.56C80.8804 20.56 80.3138 20.6533 79.7538 20.84C79.2071 21.0133 78.7404 21.2533 78.3538 21.56L77.2338 19.38C77.8204 18.9667 78.5204 18.6467 79.3338 18.42C80.1604 18.1933 81.0071 18.08 81.8738 18.08ZM81.6338 27.06C82.1671 27.06 82.6404 26.94 83.0538 26.7C83.4671 26.4467 83.7604 26.08 83.9338 25.6V24.5H81.7938C80.5138 24.5 79.8738 24.92 79.8738 25.76C79.8738 26.16 80.0271 26.48 80.3338 26.72C80.6538 26.9467 81.0871 27.06 81.6338 27.06ZM89.8775 14.16H92.9975V29H89.8775V14.16ZM106.433 23.66C106.433 23.7 106.413 23.98 106.373 24.5H98.2331C98.3798 25.1667 98.7265 25.6933 99.2731 26.08C99.8198 26.4667 100.5 26.66 101.313 26.66C101.873 26.66 102.366 26.58 102.793 26.42C103.233 26.2467 103.64 25.98 104.013 25.62L105.673 27.42C104.66 28.58 103.18 29.16 101.233 29.16C100.02 29.16 98.9465 28.9267 98.0131 28.46C97.0798 27.98 96.3598 27.32 95.8531 26.48C95.3465 25.64 95.0931 24.6867 95.0931 23.62C95.0931 22.5667 95.3398 21.62 95.8331 20.78C96.3398 19.9267 97.0265 19.2667 97.8931 18.8C98.7731 18.32 99.7531 18.08 100.833 18.08C101.886 18.08 102.84 18.3067 103.693 18.76C104.546 19.2133 105.213 19.8667 105.693 20.72C106.186 21.56 106.433 22.54 106.433 23.66ZM100.853 20.44C100.146 20.44 99.5531 20.64 99.0731 21.04C98.5931 21.44 98.2998 21.9867 98.1931 22.68H103.493C103.386 22 103.093 21.46 102.613 21.06C102.133 20.6467 101.546 20.44 100.853 20.44ZM117.154 19.66C117.528 19.14 118.028 18.7467 118.654 18.48C119.294 18.2133 120.028 18.08 120.854 18.08V20.96C120.508 20.9333 120.274 20.92 120.154 20.92C119.261 20.92 118.561 21.1733 118.054 21.68C117.548 22.1733 117.294 22.92 117.294 23.92V29H114.174V18.24H117.154V19.66ZM127.732 29.16C126.599 29.16 125.579 28.9267 124.672 28.46C123.779 27.98 123.079 27.32 122.572 26.48C122.065 25.64 121.812 24.6867 121.812 23.62C121.812 22.5533 122.065 21.6 122.572 20.76C123.079 19.92 123.779 19.2667 124.672 18.8C125.579 18.32 126.599 18.08 127.732 18.08C128.865 18.08 129.879 18.32 130.772 18.8C131.665 19.2667 132.365 19.92 132.872 20.76C133.379 21.6 133.632 22.5533 133.632 23.62C133.632 24.6867 133.379 25.64 132.872 26.48C132.365 27.32 131.665 27.98 130.772 28.46C129.879 28.9267 128.865 29.16 127.732 29.16ZM127.732 26.6C128.532 26.6 129.185 26.3333 129.692 25.8C130.212 25.2533 130.472 24.5267 130.472 23.62C130.472 22.7133 130.212 21.9933 129.692 21.46C129.185 20.9133 128.532 20.64 127.732 20.64C126.932 20.64 126.272 20.9133 125.752 21.46C125.232 21.9933 124.972 22.7133 124.972 23.62C124.972 24.5267 125.232 25.2533 125.752 25.8C126.272 26.3333 126.932 26.6 127.732 26.6ZM140.837 29.16C139.704 29.16 138.684 28.9267 137.777 28.46C136.884 27.98 136.184 27.32 135.677 26.48C135.171 25.64 134.917 24.6867 134.917 23.62C134.917 22.5533 135.171 21.6 135.677 20.76C136.184 19.92 136.884 19.2667 137.777 18.8C138.684 18.32 139.704 18.08 140.837 18.08C141.971 18.08 142.984 18.32 143.877 18.8C144.771 19.2667 145.471 19.92 145.977 20.76C146.484 21.6 146.737 22.5533 146.737 23.62C146.737 24.6867 146.484 25.64 145.977 26.48C145.471 27.32 144.771 27.98 143.877 28.46C142.984 28.9267 141.971 29.16 140.837 29.16ZM140.837 26.6C141.637 26.6 142.291 26.3333 142.797 25.8C143.317 25.2533 143.577 24.5267 143.577 23.62C143.577 22.7133 143.317 21.9933 142.797 21.46C142.291 20.9133 141.637 20.64 140.837 20.64C140.037 20.64 139.377 20.9133 138.857 21.46C138.337 21.9933 138.077 22.7133 138.077 23.62C138.077 24.5267 138.337 25.2533 138.857 25.8C139.377 26.3333 140.037 26.6 140.837 26.6ZM162.603 18.08C163.949 18.08 165.016 18.48 165.803 19.28C166.603 20.0667 167.003 21.2533 167.003 22.84V29H163.883V23.32C163.883 22.4667 163.703 21.8333 163.343 21.42C162.996 20.9933 162.496 20.78 161.843 20.78C161.109 20.78 160.529 21.02 160.103 21.5C159.676 21.9667 159.463 22.6667 159.463 23.6V29H156.343V23.32C156.343 21.6267 155.663 20.78 154.303 20.78C153.583 20.78 153.009 21.02 152.583 21.5C152.156 21.9667 151.943 22.6667 151.943 23.6V29H148.823V18.24H151.803V19.48C152.203 19.0267 152.689 18.68 153.263 18.44C153.849 18.2 154.489 18.08 155.183 18.08C155.943 18.08 156.629 18.2333 157.243 18.54C157.856 18.8333 158.349 19.2667 158.723 19.84C159.163 19.28 159.716 18.8467 160.383 18.54C161.063 18.2333 161.803 18.08 162.603 18.08ZM183.579 18.08C184.926 18.08 185.993 18.48 186.779 19.28C187.579 20.0667 187.979 21.2533 187.979 22.84V29H184.859V23.32C184.859 22.4667 184.679 21.8333 184.319 21.42C183.973 20.9933 183.473 20.78 182.819 20.78C182.086 20.78 181.506 21.02 181.079 21.5C180.653 21.9667 180.439 22.6667 180.439 23.6V29H177.319V23.32C177.319 21.6267 176.639 20.78 175.279 20.78C174.559 20.78 173.986 21.02 173.559 21.5C173.133 21.9667 172.919 22.6667 172.919 23.6V29H169.799V18.24H172.779V19.48C173.179 19.0267 173.666 18.68 174.239 18.44C174.826 18.2 175.466 18.08 176.159 18.08C176.919 18.08 177.606 18.2333 178.219 18.54C178.833 18.8333 179.326 19.2667 179.699 19.84C180.139 19.28 180.693 18.8467 181.359 18.54C182.039 18.2333 182.779 18.08 183.579 18.08ZM195.116 18.08C196.783 18.08 198.063 18.48 198.956 19.28C199.849 20.0667 200.296 21.26 200.296 22.86V29H197.376V27.66C196.789 28.66 195.696 29.16 194.096 29.16C193.269 29.16 192.549 29.02 191.936 28.74C191.336 28.46 190.876 28.0733 190.556 27.58C190.236 27.0867 190.076 26.5267 190.076 25.9C190.076 24.9 190.449 24.1133 191.196 23.54C191.956 22.9667 193.123 22.68 194.696 22.68H197.176C197.176 22 196.969 21.48 196.556 21.12C196.143 20.7467 195.523 20.56 194.696 20.56C194.123 20.56 193.556 20.6533 192.996 20.84C192.449 21.0133 191.983 21.2533 191.596 21.56L190.476 19.38C191.063 18.9667 191.763 18.6467 192.576 18.42C193.403 18.1933 194.249 18.08 195.116 18.08ZM194.876 27.06C195.409 27.06 195.883 26.94 196.296 26.7C196.709 26.4467 197.003 26.08 197.176 25.6V24.5H195.036C193.756 24.5 193.116 24.92 193.116 25.76C193.116 26.16 193.269 26.48 193.576 26.72C193.896 26.9467 194.329 27.06 194.876 27.06ZM210.06 28.48C209.753 28.7067 209.373 28.88 208.92 29C208.48 29.1067 208.013 29.16 207.52 29.16C206.24 29.16 205.246 28.8333 204.54 28.18C203.846 27.5267 203.5 26.5667 203.5 25.3V20.88H201.84V18.48H203.5V15.86H206.62V18.48H209.3V20.88H206.62V25.26C206.62 25.7133 206.733 26.0667 206.96 26.32C207.2 26.56 207.533 26.68 207.96 26.68C208.453 26.68 208.873 26.5467 209.22 26.28L210.06 28.48ZM222.019 23.66C222.019 23.7 221.999 23.98 221.959 24.5H213.819C213.966 25.1667 214.312 25.6933 214.859 26.08C215.406 26.4667 216.086 26.66 216.899 26.66C217.459 26.66 217.952 26.58 218.379 26.42C218.819 26.2467 219.226 25.98 219.599 25.62L221.259 27.42C220.246 28.58 218.766 29.16 216.819 29.16C215.606 29.16 214.532 28.9267 213.599 28.46C212.666 27.98 211.946 27.32 211.439 26.48C210.932 25.64 210.679 24.6867 210.679 23.62C210.679 22.5667 210.926 21.62 211.419 20.78C211.926 19.9267 212.612 19.2667 213.479 18.8C214.359 18.32 215.339 18.08 216.419 18.08C217.472 18.08 218.426 18.3067 219.279 18.76C220.132 19.2133 220.799 19.8667 221.279 20.72C221.772 21.56 222.019 22.54 222.019 23.66ZM216.439 20.44C215.732 20.44 215.139 20.64 214.659 21.04C214.179 21.44 213.886 21.9867 213.779 22.68H219.079C218.972 22 218.679 21.46 218.199 21.06C217.719 20.6467 217.132 20.44 216.439 20.44ZM227.716 29.16C226.823 29.16 225.95 29.0533 225.096 28.84C224.243 28.6133 223.563 28.3333 223.056 28L224.096 25.76C224.576 26.0667 225.156 26.32 225.836 26.52C226.516 26.7067 227.183 26.8 227.836 26.8C229.156 26.8 229.816 26.4733 229.816 25.82C229.816 25.5133 229.636 25.2933 229.276 25.16C228.916 25.0267 228.363 24.9133 227.616 24.82C226.736 24.6867 226.01 24.5333 225.436 24.36C224.863 24.1867 224.363 23.88 223.936 23.44C223.523 23 223.316 22.3733 223.316 21.56C223.316 20.88 223.51 20.28 223.896 19.76C224.296 19.2267 224.87 18.8133 225.616 18.52C226.376 18.2267 227.27 18.08 228.296 18.08C229.056 18.08 229.81 18.1667 230.556 18.34C231.316 18.5 231.943 18.7267 232.436 19.02L231.396 21.24C230.45 20.7067 229.416 20.44 228.296 20.44C227.63 20.44 227.13 20.5333 226.796 20.72C226.463 20.9067 226.296 21.1467 226.296 21.44C226.296 21.7733 226.476 22.0067 226.836 22.14C227.196 22.2733 227.77 22.4 228.556 22.52C229.436 22.6667 230.156 22.8267 230.716 23C231.276 23.16 231.763 23.46 232.176 23.9C232.59 24.34 232.796 24.9533 232.796 25.74C232.796 26.4067 232.596 27 232.196 27.52C231.796 28.04 231.21 28.4467 230.436 28.74C229.676 29.02 228.77 29.16 227.716 29.16ZM245.505 29.16C244.372 29.16 243.352 28.9267 242.445 28.46C241.552 27.98 240.852 27.32 240.345 26.48C239.839 25.64 239.585 24.6867 239.585 23.62C239.585 22.5533 239.839 21.6 240.345 20.76C240.852 19.92 241.552 19.2667 242.445 18.8C243.352 18.32 244.372 18.08 245.505 18.08C246.639 18.08 247.652 18.32 248.545 18.8C249.439 19.2667 250.139 19.92 250.645 20.76C251.152 21.6 251.405 22.5533 251.405 23.62C251.405 24.6867 251.152 25.64 250.645 26.48C250.139 27.32 249.439 27.98 248.545 28.46C247.652 28.9267 246.639 29.16 245.505 29.16ZM245.505 26.6C246.305 26.6 246.959 26.3333 247.465 25.8C247.985 25.2533 248.245 24.5267 248.245 23.62C248.245 22.7133 247.985 21.9933 247.465 21.46C246.959 20.9133 246.305 20.64 245.505 20.64C244.705 20.64 244.045 20.9133 243.525 21.46C243.005 21.9933 242.745 22.7133 242.745 23.62C242.745 24.5267 243.005 25.2533 243.525 25.8C244.045 26.3333 244.705 26.6 245.505 26.6ZM260.031 18.08C261.364 18.08 262.437 18.48 263.251 19.28C264.077 20.08 264.491 21.2667 264.491 22.84V29H261.371V23.32C261.371 22.4667 261.184 21.8333 260.811 21.42C260.437 20.9933 259.897 20.78 259.191 20.78C258.404 20.78 257.777 21.0267 257.311 21.52C256.844 22 256.611 22.72 256.611 23.68V29H253.491V18.24H256.471V19.5C256.884 19.0467 257.397 18.7 258.011 18.46C258.624 18.2067 259.297 18.08 260.031 18.08ZM267.319 14.16H270.439V29H267.319V14.16ZM284.015 18.24L279.155 29.66C278.661 30.9 278.048 31.7733 277.315 32.28C276.595 32.7867 275.721 33.04 274.695 33.04C274.135 33.04 273.581 32.9533 273.035 32.78C272.488 32.6067 272.041 32.3667 271.695 32.06L272.835 29.84C273.075 30.0533 273.348 30.22 273.655 30.34C273.975 30.46 274.288 30.52 274.595 30.52C275.021 30.52 275.368 30.4133 275.635 30.2C275.901 30 276.141 29.66 276.355 29.18L276.395 29.08L271.735 18.24H274.955L277.975 25.54L281.015 18.24H284.015Z" fill="white"/>
<path d="M10 3H304V-3H10V3ZM311 10V34H317V10H311ZM304 41H10V47H304V41ZM3 34V10H-3V34H3ZM10 41C6.134 41 3 37.866 3 34H-3C-3 41.1797 2.82029 47 10 47V41ZM311 34C311 37.866 307.866 41 304 41V47C311.18 47 317 41.1797 317 34H311ZM304 3C307.866 3 311 6.13401 311 10H317C317 2.8203 311.18 -3 304 -3V3ZM10 -3C2.8203 -3 -3 2.8203 -3 10H3C3 6.13401 6.13401 3 10 3V-3Z" fill="#E7936D"/>
</svg>
