<svg width="170" height="44" viewBox="0 0 170 44" fill="none" xmlns="http://www.w3.org/2000/svg">
<path d="M0 10C0 4.47715 4.47715 0 10 0H160C165.523 0 170 4.47715 170 10V34C170 39.5228 165.523 44 160 44H10C4.47715 44 0 39.5228 0 34V10Z" fill="#E7936D"/>
<path d="M41.12 21.78H44.08V27.46C43.32 28.0333 42.44 28.4733 41.44 28.78C40.44 29.0867 39.4333 29.24 38.42 29.24C36.9667 29.24 35.66 28.9333 34.5 28.32C33.34 27.6933 32.4267 26.8333 31.76 25.74C31.1067 24.6333 30.78 23.3867 30.78 22C30.78 20.6133 31.1067 19.3733 31.76 18.28C32.4267 17.1733 33.3467 16.3133 34.52 15.7C35.6933 15.0733 37.0133 14.76 38.48 14.76C39.7067 14.76 40.82 14.9667 41.82 15.38C42.82 15.7933 43.66 16.3933 44.34 17.18L42.26 19.1C41.26 18.0467 40.0533 17.52 38.64 17.52C37.7467 17.52 36.9533 17.7067 36.26 18.08C35.5667 18.4533 35.0267 18.98 34.64 19.66C34.2533 20.34 34.06 21.12 34.06 22C34.06 22.8667 34.2533 23.64 34.64 24.32C35.0267 25 35.56 25.5333 36.24 25.92C36.9333 26.2933 37.72 26.48 38.6 26.48C39.5333 26.48 40.3733 26.28 41.12 25.88V21.78ZM57.5497 18.24L52.6897 29.66C52.1964 30.9 51.583 31.7733 50.8497 32.28C50.1297 32.7867 49.2564 33.04 48.2297 33.04C47.6697 33.04 47.1164 32.9533 46.5697 32.78C46.023 32.6067 45.5764 32.3667 45.2297 32.06L46.3697 29.84C46.6097 30.0533 46.883 30.22 47.1897 30.34C47.5097 30.46 47.823 30.52 48.1297 30.52C48.5564 30.52 48.903 30.4133 49.1697 30.2C49.4364 30 49.6764 29.66 49.8897 29.18L49.9297 29.08L45.2697 18.24H48.4897L51.5097 25.54L54.5497 18.24H57.5497ZM72.6028 18.08C73.9495 18.08 75.0161 18.48 75.8028 19.28C76.6028 20.0667 77.0028 21.2533 77.0028 22.84V29H73.8828V23.32C73.8828 22.4667 73.7028 21.8333 73.3428 21.42C72.9961 20.9933 72.4961 20.78 71.8428 20.78C71.1095 20.78 70.5295 21.02 70.1028 21.5C69.6761 21.9667 69.4628 22.6667 69.4628 23.6V29H66.3428V23.32C66.3428 21.6267 65.6628 20.78 64.3028 20.78C63.5828 20.78 63.0095 21.02 62.5828 21.5C62.1561 21.9667 61.9428 22.6667 61.9428 23.6V29H58.8228V18.24H61.8028V19.48C62.2028 19.0267 62.6895 18.68 63.2628 18.44C63.8495 18.2 64.4895 18.08 65.1828 18.08C65.9428 18.08 66.6295 18.2333 67.2428 18.54C67.8561 18.8333 68.3495 19.2667 68.7228 19.84C69.1628 19.28 69.7161 18.8467 70.3828 18.54C71.0628 18.2333 71.8028 18.08 72.6028 18.08ZM88.4434 19.66C88.8168 19.14 89.3168 18.7467 89.9434 18.48C90.5834 18.2133 91.3168 18.08 92.1434 18.08V20.96C91.7968 20.9333 91.5634 20.92 91.4434 20.92C90.5501 20.92 89.8501 21.1733 89.3434 21.68C88.8368 22.1733 88.5834 22.92 88.5834 23.92V29H85.4634V18.24H88.4434V19.66ZM99.0209 29.16C97.8876 29.16 96.8676 28.9267 95.9609 28.46C95.0676 27.98 94.3676 27.32 93.8609 26.48C93.3543 25.64 93.1009 24.6867 93.1009 23.62C93.1009 22.5533 93.3543 21.6 93.8609 20.76C94.3676 19.92 95.0676 19.2667 95.9609 18.8C96.8676 18.32 97.8876 18.08 99.0209 18.08C100.154 18.08 101.168 18.32 102.061 18.8C102.954 19.2667 103.654 19.92 104.161 20.76C104.668 21.6 104.921 22.5533 104.921 23.62C104.921 24.6867 104.668 25.64 104.161 26.48C103.654 27.32 102.954 27.98 102.061 28.46C101.168 28.9267 100.154 29.16 99.0209 29.16ZM99.0209 26.6C99.8209 26.6 100.474 26.3333 100.981 25.8C101.501 25.2533 101.761 24.5267 101.761 23.62C101.761 22.7133 101.501 21.9933 100.981 21.46C100.474 20.9133 99.8209 20.64 99.0209 20.64C98.2209 20.64 97.5609 20.9133 97.0409 21.46C96.5209 21.9933 96.2609 22.7133 96.2609 23.62C96.2609 24.5267 96.5209 25.2533 97.0409 25.8C97.5609 26.3333 98.2209 26.6 99.0209 26.6ZM112.126 29.16C110.993 29.16 109.973 28.9267 109.066 28.46C108.173 27.98 107.473 27.32 106.966 26.48C106.46 25.64 106.206 24.6867 106.206 23.62C106.206 22.5533 106.46 21.6 106.966 20.76C107.473 19.92 108.173 19.2667 109.066 18.8C109.973 18.32 110.993 18.08 112.126 18.08C113.26 18.08 114.273 18.32 115.166 18.8C116.06 19.2667 116.76 19.92 117.266 20.76C117.773 21.6 118.026 22.5533 118.026 23.62C118.026 24.6867 117.773 25.64 117.266 26.48C116.76 27.32 116.06 27.98 115.166 28.46C114.273 28.9267 113.26 29.16 112.126 29.16ZM112.126 26.6C112.926 26.6 113.58 26.3333 114.086 25.8C114.606 25.2533 114.866 24.5267 114.866 23.62C114.866 22.7133 114.606 21.9933 114.086 21.46C113.58 20.9133 112.926 20.64 112.126 20.64C111.326 20.64 110.666 20.9133 110.146 21.46C109.626 21.9933 109.366 22.7133 109.366 23.62C109.366 24.5267 109.626 25.2533 110.146 25.8C110.666 26.3333 111.326 26.6 112.126 26.6ZM133.892 18.08C135.239 18.08 136.305 18.48 137.092 19.28C137.892 20.0667 138.292 21.2533 138.292 22.84V29H135.172V23.32C135.172 22.4667 134.992 21.8333 134.632 21.42C134.285 20.9933 133.785 20.78 133.132 20.78C132.399 20.78 131.819 21.02 131.392 21.5C130.965 21.9667 130.752 22.6667 130.752 23.6V29H127.632V23.32C127.632 21.6267 126.952 20.78 125.592 20.78C124.872 20.78 124.299 21.02 123.872 21.5C123.445 21.9667 123.232 22.6667 123.232 23.6V29H120.112V18.24H123.092V19.48C123.492 19.0267 123.979 18.68 124.552 18.44C125.139 18.2 125.779 18.08 126.472 18.08C127.232 18.08 127.919 18.2333 128.532 18.54C129.145 18.8333 129.639 19.2667 130.012 19.84C130.452 19.28 131.005 18.8467 131.672 18.54C132.352 18.2333 133.092 18.08 133.892 18.08Z" fill="white"/>
<path d="M10 3H160V-3H10V3ZM167 10V34H173V10H167ZM160 41H10V47H160V41ZM3 34V10H-3V34H3ZM10 41C6.13401 41 3 37.866 3 34H-3C-3 41.1797 2.8203 47 10 47V41ZM167 34C167 37.866 163.866 41 160 41V47C167.18 47 173 41.1797 173 34H167ZM160 3C163.866 3 167 6.13401 167 10H173C173 2.8203 167.18 -3 160 -3V3ZM10 -3C2.8203 -3 -3 2.8203 -3 10H3C3 6.13401 6.13401 3 10 3V-3Z" fill="#E7936D"/>
</svg>
