<svg width="224" height="44" viewBox="0 0 224 44" fill="none" xmlns="http://www.w3.org/2000/svg">
<path d="M0 10C0 4.47715 4.47715 0 10 0H214C219.523 0 224 4.47715 224 10V34C224 39.5228 219.523 44 214 44H10C4.47715 44 0 39.5228 0 34V10Z" fill="#E7936D"/>
<path d="M44.5 15V29H41.26V23.26H34.9V29H31.66V15H34.9V20.52H41.26V15H44.5ZM51.9323 18.08C53.599 18.08 54.879 18.48 55.7723 19.28C56.6657 20.0667 57.1123 21.26 57.1123 22.86V29H54.1923V27.66C53.6057 28.66 52.5123 29.16 50.9123 29.16C50.0857 29.16 49.3657 29.02 48.7523 28.74C48.1523 28.46 47.6923 28.0733 47.3723 27.58C47.0523 27.0867 46.8923 26.5267 46.8923 25.9C46.8923 24.9 47.2657 24.1133 48.0123 23.54C48.7723 22.9667 49.939 22.68 51.5123 22.68H53.9923C53.9923 22 53.7857 21.48 53.3723 21.12C52.959 20.7467 52.339 20.56 51.5123 20.56C50.939 20.56 50.3723 20.6533 49.8123 20.84C49.2657 21.0133 48.799 21.2533 48.4123 21.56L47.2923 19.38C47.879 18.9667 48.579 18.6467 49.3923 18.42C50.219 18.1933 51.0657 18.08 51.9323 18.08ZM51.6923 27.06C52.2257 27.06 52.699 26.94 53.1123 26.7C53.5257 26.4467 53.819 26.08 53.9923 25.6V24.5H51.8523C50.5723 24.5 49.9323 24.92 49.9323 25.76C49.9323 26.16 50.0857 26.48 50.3923 26.72C50.7123 26.9467 51.1457 27.06 51.6923 27.06ZM62.9161 19.66C63.2894 19.14 63.7894 18.7467 64.4161 18.48C65.0561 18.2133 65.7894 18.08 66.6161 18.08V20.96C66.2694 20.9333 66.0361 20.92 65.9161 20.92C65.0228 20.92 64.3228 21.1733 63.8161 21.68C63.3094 22.1733 63.0561 22.92 63.0561 23.92V29H59.9361V18.24H62.9161V19.66ZM79.3336 14.16V29H76.3536V27.76C75.5803 28.6933 74.4603 29.16 72.9936 29.16C71.9803 29.16 71.0603 28.9333 70.2336 28.48C69.4203 28.0267 68.7803 27.38 68.3136 26.54C67.8469 25.7 67.6136 24.7267 67.6136 23.62C67.6136 22.5133 67.8469 21.54 68.3136 20.7C68.7803 19.86 69.4203 19.2133 70.2336 18.76C71.0603 18.3067 71.9803 18.08 72.9936 18.08C74.3669 18.08 75.4403 18.5133 76.2136 19.38V14.16H79.3336ZM73.5336 26.6C74.3203 26.6 74.9736 26.3333 75.4936 25.8C76.0136 25.2533 76.2736 24.5267 76.2736 23.62C76.2736 22.7133 76.0136 21.9933 75.4936 21.46C74.9736 20.9133 74.3203 20.64 73.5336 20.64C72.7336 20.64 72.0736 20.9133 71.5536 21.46C71.0336 21.9933 70.7736 22.7133 70.7736 23.62C70.7736 24.5267 71.0336 25.2533 71.5536 25.8C72.0736 26.3333 72.7336 26.6 73.5336 26.6ZM99.5013 18.24L95.6013 29H92.6013L90.1813 22.32L87.6813 29H84.6813L80.8013 18.24H83.7413L86.2813 25.52L88.9213 18.24H91.5613L94.1213 25.52L96.7413 18.24H99.5013ZM105.779 29.16C104.645 29.16 103.625 28.9267 102.719 28.46C101.825 27.98 101.125 27.32 100.619 26.48C100.112 25.64 99.8588 24.6867 99.8588 23.62C99.8588 22.5533 100.112 21.6 100.619 20.76C101.125 19.92 101.825 19.2667 102.719 18.8C103.625 18.32 104.645 18.08 105.779 18.08C106.912 18.08 107.925 18.32 108.819 18.8C109.712 19.2667 110.412 19.92 110.919 20.76C111.425 21.6 111.679 22.5533 111.679 23.62C111.679 24.6867 111.425 25.64 110.919 26.48C110.412 27.32 109.712 27.98 108.819 28.46C107.925 28.9267 106.912 29.16 105.779 29.16ZM105.779 26.6C106.579 26.6 107.232 26.3333 107.739 25.8C108.259 25.2533 108.519 24.5267 108.519 23.62C108.519 22.7133 108.259 21.9933 107.739 21.46C107.232 20.9133 106.579 20.64 105.779 20.64C104.979 20.64 104.319 20.9133 103.799 21.46C103.279 21.9933 103.019 22.7133 103.019 23.62C103.019 24.5267 103.279 25.2533 103.799 25.8C104.319 26.3333 104.979 26.6 105.779 26.6ZM118.884 29.16C117.751 29.16 116.731 28.9267 115.824 28.46C114.931 27.98 114.231 27.32 113.724 26.48C113.218 25.64 112.964 24.6867 112.964 23.62C112.964 22.5533 113.218 21.6 113.724 20.76C114.231 19.92 114.931 19.2667 115.824 18.8C116.731 18.32 117.751 18.08 118.884 18.08C120.018 18.08 121.031 18.32 121.924 18.8C122.818 19.2667 123.518 19.92 124.024 20.76C124.531 21.6 124.784 22.5533 124.784 23.62C124.784 24.6867 124.531 25.64 124.024 26.48C123.518 27.32 122.818 27.98 121.924 28.46C121.031 28.9267 120.018 29.16 118.884 29.16ZM118.884 26.6C119.684 26.6 120.338 26.3333 120.844 25.8C121.364 25.2533 121.624 24.5267 121.624 23.62C121.624 22.7133 121.364 21.9933 120.844 21.46C120.338 20.9133 119.684 20.64 118.884 20.64C118.084 20.64 117.424 20.9133 116.904 21.46C116.384 21.9933 116.124 22.7133 116.124 23.62C116.124 24.5267 116.384 25.2533 116.904 25.8C117.424 26.3333 118.084 26.6 118.884 26.6ZM137.83 14.16V29H134.85V27.76C134.076 28.6933 132.956 29.16 131.49 29.16C130.476 29.16 129.556 28.9333 128.73 28.48C127.916 28.0267 127.276 27.38 126.81 26.54C126.343 25.7 126.11 24.7267 126.11 23.62C126.11 22.5133 126.343 21.54 126.81 20.7C127.276 19.86 127.916 19.2133 128.73 18.76C129.556 18.3067 130.476 18.08 131.49 18.08C132.863 18.08 133.936 18.5133 134.71 19.38V14.16H137.83ZM132.03 26.6C132.816 26.6 133.47 26.3333 133.99 25.8C134.51 25.2533 134.77 24.5267 134.77 23.62C134.77 22.7133 134.51 21.9933 133.99 21.46C133.47 20.9133 132.816 20.64 132.03 20.64C131.23 20.64 130.57 20.9133 130.05 21.46C129.53 21.9933 129.27 22.7133 129.27 23.62C129.27 24.5267 129.53 25.2533 130.05 25.8C130.57 26.3333 131.23 26.6 132.03 26.6ZM149.801 18.48H152.561V20.88H149.881V29H146.761V20.88H145.101V18.48H146.761V18C146.761 16.7733 147.121 15.8 147.841 15.08C148.575 14.36 149.601 14 150.921 14C151.388 14 151.828 14.0533 152.241 14.16C152.668 14.2533 153.021 14.3933 153.301 14.58L152.481 16.84C152.121 16.5867 151.701 16.46 151.221 16.46C150.275 16.46 149.801 16.98 149.801 18.02V18.48ZM154.121 14.16H157.241V29H154.121V14.16ZM165.271 29.16C164.138 29.16 163.118 28.9267 162.211 28.46C161.318 27.98 160.618 27.32 160.111 26.48C159.604 25.64 159.351 24.6867 159.351 23.62C159.351 22.5533 159.604 21.6 160.111 20.76C160.618 19.92 161.318 19.2667 162.211 18.8C163.118 18.32 164.138 18.08 165.271 18.08C166.404 18.08 167.418 18.32 168.311 18.8C169.204 19.2667 169.904 19.92 170.411 20.76C170.918 21.6 171.171 22.5533 171.171 23.62C171.171 24.6867 170.918 25.64 170.411 26.48C169.904 27.32 169.204 27.98 168.311 28.46C167.418 28.9267 166.404 29.16 165.271 29.16ZM165.271 26.6C166.071 26.6 166.724 26.3333 167.231 25.8C167.751 25.2533 168.011 24.5267 168.011 23.62C168.011 22.7133 167.751 21.9933 167.231 21.46C166.724 20.9133 166.071 20.64 165.271 20.64C164.471 20.64 163.811 20.9133 163.291 21.46C162.771 21.9933 162.511 22.7133 162.511 23.62C162.511 24.5267 162.771 25.2533 163.291 25.8C163.811 26.3333 164.471 26.6 165.271 26.6ZM178.376 29.16C177.243 29.16 176.223 28.9267 175.316 28.46C174.423 27.98 173.723 27.32 173.216 26.48C172.71 25.64 172.456 24.6867 172.456 23.62C172.456 22.5533 172.71 21.6 173.216 20.76C173.723 19.92 174.423 19.2667 175.316 18.8C176.223 18.32 177.243 18.08 178.376 18.08C179.51 18.08 180.523 18.32 181.416 18.8C182.31 19.2667 183.01 19.92 183.516 20.76C184.023 21.6 184.276 22.5533 184.276 23.62C184.276 24.6867 184.023 25.64 183.516 26.48C183.01 27.32 182.31 27.98 181.416 28.46C180.523 28.9267 179.51 29.16 178.376 29.16ZM178.376 26.6C179.176 26.6 179.83 26.3333 180.336 25.8C180.856 25.2533 181.116 24.5267 181.116 23.62C181.116 22.7133 180.856 21.9933 180.336 21.46C179.83 20.9133 179.176 20.64 178.376 20.64C177.576 20.64 176.916 20.9133 176.396 21.46C175.876 21.9933 175.616 22.7133 175.616 23.62C175.616 24.5267 175.876 25.2533 176.396 25.8C176.916 26.3333 177.576 26.6 178.376 26.6ZM189.342 19.66C189.715 19.14 190.215 18.7467 190.842 18.48C191.482 18.2133 192.215 18.08 193.042 18.08V20.96C192.695 20.9333 192.462 20.92 192.342 20.92C191.449 20.92 190.749 21.1733 190.242 21.68C189.735 22.1733 189.482 22.92 189.482 23.92V29H186.362V18.24H189.342V19.66Z" fill="white"/>
<path d="M10 3H214V-3H10V3ZM221 10V34H227V10H221ZM214 41H10V47H214V41ZM3 34V10H-3V34H3ZM10 41C6.13401 41 3 37.866 3 34H-3C-3 41.1797 2.8203 47 10 47V41ZM221 34C221 37.866 217.866 41 214 41V47C221.18 47 227 41.1797 227 34H221ZM214 3C217.866 3 221 6.13401 221 10H227C227 2.8203 221.18 -3 214 -3V3ZM10 -3C2.8203 -3 -3 2.8203 -3 10H3C3 6.13401 6.13401 3 10 3V-3Z" fill="#E7936D"/>
</svg>
