<svg width="235" height="44" viewBox="0 0 235 44" fill="none" xmlns="http://www.w3.org/2000/svg">
<path d="M0 10C0 4.47715 4.47715 0 10 0H225C230.523 0 235 4.47715 235 10V34C235 39.5228 230.523 44 225 44H10C4.47715 44 0 39.5228 0 34V10Z" fill="white"/>
<path d="M31.66 15H34.9V26.36H41.92V29H31.66V15ZM52.9559 21.78H55.9159V27.46C55.1559 28.0333 54.2759 28.4733 53.2759 28.78C52.2759 29.0867 51.2693 29.24 50.2559 29.24C48.8026 29.24 47.4959 28.9333 46.3359 28.32C45.1759 27.6933 44.2626 26.8333 43.5959 25.74C42.9426 24.6333 42.6159 23.3867 42.6159 22C42.6159 20.6133 42.9426 19.3733 43.5959 18.28C44.2626 17.1733 45.1826 16.3133 46.3559 15.7C47.5293 15.0733 48.8493 14.76 50.3159 14.76C51.5426 14.76 52.6559 14.9667 53.6559 15.38C54.6559 15.7933 55.4959 16.3933 56.1759 17.18L54.0959 19.1C53.0959 18.0467 51.8893 17.52 50.4759 17.52C49.5826 17.52 48.7893 17.7067 48.0959 18.08C47.4026 18.4533 46.8626 18.98 46.4759 19.66C46.0893 20.34 45.8959 21.12 45.8959 22C45.8959 22.8667 46.0893 23.64 46.4759 24.32C46.8626 25 47.3959 25.5333 48.0759 25.92C48.7693 26.2933 49.5559 26.48 50.4359 26.48C51.3693 26.48 52.2093 26.28 52.9559 25.88V21.78ZM69.2056 21.72C70.0056 21.9733 70.6323 22.4 71.0856 23C71.539 23.5867 71.7656 24.3133 71.7656 25.18C71.7656 26.4067 71.2856 27.3533 70.3256 28.02C69.379 28.6733 67.9923 29 66.1656 29H58.9256V15H65.7656C67.4723 15 68.779 15.3267 69.6856 15.98C70.6056 16.6333 71.0656 17.52 71.0656 18.64C71.0656 19.32 70.899 19.9267 70.5656 20.46C70.2456 20.9933 69.7923 21.4133 69.2056 21.72ZM62.1456 17.44V20.74H65.3656C66.1656 20.74 66.7723 20.6 67.1856 20.32C67.599 20.04 67.8056 19.6267 67.8056 19.08C67.8056 18.5333 67.599 18.1267 67.1856 17.86C66.7723 17.58 66.1656 17.44 65.3656 17.44H62.1456ZM65.9256 26.56C66.779 26.56 67.419 26.42 67.8456 26.14C68.2856 25.86 68.5056 25.4267 68.5056 24.84C68.5056 23.68 67.6456 23.1 65.9256 23.1H62.1456V26.56H65.9256ZM76.9233 17.64H72.4433V15H84.6433V17.64H80.1633V29H76.9233V17.64ZM101.331 30.5C100.878 31.06 100.325 31.4867 99.6713 31.78C99.0313 32.0733 98.3246 32.22 97.5513 32.22C96.5113 32.22 95.5713 31.9933 94.7313 31.54C93.8913 31.1 92.9313 30.3133 91.8513 29.18C90.5846 29.02 89.4513 28.6133 88.4513 27.96C87.4646 27.3067 86.6913 26.4667 86.1313 25.44C85.5846 24.4 85.3113 23.2533 85.3113 22C85.3113 20.6267 85.6379 19.3933 86.2913 18.3C86.9579 17.1933 87.8713 16.3267 89.0313 15.7C90.2046 15.0733 91.5179 14.76 92.9713 14.76C94.4246 14.76 95.7313 15.0733 96.8913 15.7C98.0513 16.3267 98.9646 17.1933 99.6313 18.3C100.298 19.3933 100.631 20.6267 100.631 22C100.631 23.6267 100.171 25.0533 99.2513 26.28C98.3446 27.5067 97.1379 28.36 95.6313 28.84C95.9646 29.1867 96.2846 29.4333 96.5913 29.58C96.9113 29.74 97.2513 29.82 97.6113 29.82C98.4779 29.82 99.2379 29.4733 99.8913 28.78L101.331 30.5ZM88.5913 22C88.5913 22.8667 88.7779 23.64 89.1513 24.32C89.5379 25 90.0646 25.5333 90.7313 25.92C91.3979 26.2933 92.1446 26.48 92.9713 26.48C93.7979 26.48 94.5446 26.2933 95.2113 25.92C95.8779 25.5333 96.3979 25 96.7713 24.32C97.1579 23.64 97.3513 22.8667 97.3513 22C97.3513 21.1333 97.1579 20.36 96.7713 19.68C96.3979 19 95.8779 18.4733 95.2113 18.1C94.5446 17.7133 93.7979 17.52 92.9713 17.52C92.1446 17.52 91.3979 17.7133 90.7313 18.1C90.0646 18.4733 89.5379 19 89.1513 19.68C88.7779 20.36 88.5913 21.1333 88.5913 22ZM112.244 23.22H108.764V26.62H106.184V23.22H102.724V20.78H106.184V17.38H108.764V20.78H112.244V23.22ZM124.021 17.6V21.3H130.501V23.9H124.021V29H120.781V15H131.361V17.6H124.021ZM136.119 19.66C136.493 19.14 136.993 18.7467 137.619 18.48C138.259 18.2133 138.993 18.08 139.819 18.08V20.96C139.473 20.9333 139.239 20.92 139.119 20.92C138.226 20.92 137.526 21.1733 137.019 21.68C136.513 22.1733 136.259 22.92 136.259 23.92V29H133.139V18.24H136.119V19.66ZM141.674 18.24H144.794V29H141.674V18.24ZM143.234 16.74C142.661 16.74 142.194 16.5733 141.834 16.24C141.474 15.9067 141.294 15.4933 141.294 15C141.294 14.5067 141.474 14.0933 141.834 13.76C142.194 13.4267 142.661 13.26 143.234 13.26C143.808 13.26 144.274 13.42 144.634 13.74C144.994 14.06 145.174 14.46 145.174 14.94C145.174 15.46 144.994 15.8933 144.634 16.24C144.274 16.5733 143.808 16.74 143.234 16.74ZM158.23 23.66C158.23 23.7 158.21 23.98 158.17 24.5H150.03C150.177 25.1667 150.523 25.6933 151.07 26.08C151.617 26.4667 152.297 26.66 153.11 26.66C153.67 26.66 154.163 26.58 154.59 26.42C155.03 26.2467 155.437 25.98 155.81 25.62L157.47 27.42C156.457 28.58 154.977 29.16 153.03 29.16C151.817 29.16 150.743 28.9267 149.81 28.46C148.877 27.98 148.157 27.32 147.65 26.48C147.143 25.64 146.89 24.6867 146.89 23.62C146.89 22.5667 147.137 21.62 147.63 20.78C148.137 19.9267 148.823 19.2667 149.69 18.8C150.57 18.32 151.55 18.08 152.63 18.08C153.683 18.08 154.637 18.3067 155.49 18.76C156.343 19.2133 157.01 19.8667 157.49 20.72C157.983 21.56 158.23 22.54 158.23 23.66ZM152.65 20.44C151.943 20.44 151.35 20.64 150.87 21.04C150.39 21.44 150.097 21.9867 149.99 22.68H155.29C155.183 22 154.89 21.46 154.41 21.06C153.93 20.6467 153.343 20.44 152.65 20.44ZM166.847 18.08C168.181 18.08 169.254 18.48 170.067 19.28C170.894 20.08 171.307 21.2667 171.307 22.84V29H168.187V23.32C168.187 22.4667 168.001 21.8333 167.627 21.42C167.254 20.9933 166.714 20.78 166.007 20.78C165.221 20.78 164.594 21.0267 164.127 21.52C163.661 22 163.427 22.72 163.427 23.68V29H160.307V18.24H163.287V19.5C163.701 19.0467 164.214 18.7 164.827 18.46C165.441 18.2067 166.114 18.08 166.847 18.08ZM185.213 14.16V29H182.233V27.76C181.459 28.6933 180.339 29.16 178.873 29.16C177.859 29.16 176.939 28.9333 176.113 28.48C175.299 28.0267 174.659 27.38 174.193 26.54C173.726 25.7 173.493 24.7267 173.493 23.62C173.493 22.5133 173.726 21.54 174.193 20.7C174.659 19.86 175.299 19.2133 176.113 18.76C176.939 18.3067 177.859 18.08 178.873 18.08C180.246 18.08 181.319 18.5133 182.093 19.38V14.16H185.213ZM179.413 26.6C180.199 26.6 180.853 26.3333 181.373 25.8C181.893 25.2533 182.153 24.5267 182.153 23.62C182.153 22.7133 181.893 21.9933 181.373 21.46C180.853 20.9133 180.199 20.64 179.413 20.64C178.613 20.64 177.953 20.9133 177.433 21.46C176.913 21.9933 176.653 22.7133 176.653 23.62C176.653 24.5267 176.913 25.2533 177.433 25.8C177.953 26.3333 178.613 26.6 179.413 26.6ZM188.1 14.16H191.22V29H188.1V14.16ZM204.796 18.24L199.936 29.66C199.442 30.9 198.829 31.7733 198.096 32.28C197.376 32.7867 196.502 33.04 195.476 33.04C194.916 33.04 194.362 32.9533 193.816 32.78C193.269 32.6067 192.822 32.3667 192.476 32.06L193.616 29.84C193.856 30.0533 194.129 30.22 194.436 30.34C194.756 30.46 195.069 30.52 195.376 30.52C195.802 30.52 196.149 30.4133 196.416 30.2C196.682 30 196.922 29.66 197.136 29.18L197.176 29.08L192.516 18.24H195.736L198.756 25.54L201.796 18.24H204.796Z" fill="#D3AB98"/>
<path d="M10 3H225V-3H10V3ZM232 10V34H238V10H232ZM225 41H10V47H225V41ZM3 34V10H-3V34H3ZM10 41C6.13401 41 3 37.866 3 34H-3C-3 41.1797 2.8203 47 10 47V41ZM232 34C232 37.866 228.866 41 225 41V47C232.18 47 238 41.1797 238 34H232ZM225 3C228.866 3 232 6.13401 232 10H238C238 2.8203 232.18 -3 225 -3V3ZM10 -3C2.8203 -3 -3 2.8203 -3 10H3C3 6.13401 6.13401 3 10 3V-3Z" fill="#D3AB98"/>
</svg>
