<svg width="287" height="44" viewBox="0 0 287 44" fill="none" xmlns="http://www.w3.org/2000/svg">
<path d="M0 10C0 4.47715 4.47715 0 10 0H277C282.523 0 287 4.47715 287 10V34C287 39.5228 282.523 44 277 44H10C4.47715 44 0 39.5228 0 34V10Z" fill="#E7936D"/>
<path d="M44.4 29L44.38 20.6L40.26 27.52H38.8L34.7 20.78V29H31.66V15H34.34L39.58 23.7L44.74 15H47.4L47.44 29H44.4ZM54.8816 18.08C56.5482 18.08 57.8282 18.48 58.7216 19.28C59.6149 20.0667 60.0616 21.26 60.0616 22.86V29H57.1416V27.66C56.5549 28.66 55.4616 29.16 53.8616 29.16C53.0349 29.16 52.3149 29.02 51.7016 28.74C51.1016 28.46 50.6416 28.0733 50.3216 27.58C50.0016 27.0867 49.8416 26.5267 49.8416 25.9C49.8416 24.9 50.2149 24.1133 50.9616 23.54C51.7216 22.9667 52.8882 22.68 54.4616 22.68H56.9416C56.9416 22 56.7349 21.48 56.3216 21.12C55.9082 20.7467 55.2882 20.56 54.4616 20.56C53.8882 20.56 53.3216 20.6533 52.7616 20.84C52.2149 21.0133 51.7482 21.2533 51.3616 21.56L50.2416 19.38C50.8282 18.9667 51.5282 18.6467 52.3416 18.42C53.1682 18.1933 54.0149 18.08 54.8816 18.08ZM54.6416 27.06C55.1749 27.06 55.6482 26.94 56.0616 26.7C56.4749 26.4467 56.7682 26.08 56.9416 25.6V24.5H54.8016C53.5216 24.5 52.8816 24.92 52.8816 25.76C52.8816 26.16 53.0349 26.48 53.3416 26.72C53.6616 26.9467 54.0949 27.06 54.6416 27.06ZM62.8853 14.16H66.0053V29H62.8853V14.16ZM79.4409 23.66C79.4409 23.7 79.4209 23.98 79.3809 24.5H71.2409C71.3876 25.1667 71.7343 25.6933 72.2809 26.08C72.8276 26.4667 73.5076 26.66 74.3209 26.66C74.8809 26.66 75.3743 26.58 75.8009 26.42C76.2409 26.2467 76.6476 25.98 77.0209 25.62L78.6809 27.42C77.6676 28.58 76.1876 29.16 74.2409 29.16C73.0276 29.16 71.9543 28.9267 71.0209 28.46C70.0876 27.98 69.3676 27.32 68.8609 26.48C68.3543 25.64 68.1009 24.6867 68.1009 23.62C68.1009 22.5667 68.3476 21.62 68.8409 20.78C69.3476 19.9267 70.0343 19.2667 70.9009 18.8C71.7809 18.32 72.7609 18.08 73.8409 18.08C74.8943 18.08 75.8476 18.3067 76.7009 18.76C77.5543 19.2133 78.2209 19.8667 78.7009 20.72C79.1943 21.56 79.4409 22.54 79.4409 23.66ZM73.8609 20.44C73.1543 20.44 72.5609 20.64 72.0809 21.04C71.6009 21.44 71.3076 21.9867 71.2009 22.68H76.5009C76.3943 22 76.1009 21.46 75.6209 21.06C75.1409 20.6467 74.5543 20.44 73.8609 20.44ZM90.1622 19.66C90.5355 19.14 91.0355 18.7467 91.6622 18.48C92.3022 18.2133 93.0355 18.08 93.8622 18.08V20.96C93.5155 20.9333 93.2822 20.92 93.1622 20.92C92.2689 20.92 91.5689 21.1733 91.0622 21.68C90.5555 22.1733 90.3022 22.92 90.3022 23.92V29H87.1822V18.24H90.1622V19.66ZM100.74 29.16C99.6064 29.16 98.5864 28.9267 97.6797 28.46C96.7864 27.98 96.0864 27.32 95.5797 26.48C95.073 25.64 94.8197 24.6867 94.8197 23.62C94.8197 22.5533 95.073 21.6 95.5797 20.76C96.0864 19.92 96.7864 19.2667 97.6797 18.8C98.5864 18.32 99.6064 18.08 100.74 18.08C101.873 18.08 102.886 18.32 103.78 18.8C104.673 19.2667 105.373 19.92 105.88 20.76C106.386 21.6 106.64 22.5533 106.64 23.62C106.64 24.6867 106.386 25.64 105.88 26.48C105.373 27.32 104.673 27.98 103.78 28.46C102.886 28.9267 101.873 29.16 100.74 29.16ZM100.74 26.6C101.54 26.6 102.193 26.3333 102.7 25.8C103.22 25.2533 103.48 24.5267 103.48 23.62C103.48 22.7133 103.22 21.9933 102.7 21.46C102.193 20.9133 101.54 20.64 100.74 20.64C99.9397 20.64 99.2797 20.9133 98.7597 21.46C98.2397 21.9933 97.9797 22.7133 97.9797 23.62C97.9797 24.5267 98.2397 25.2533 98.7597 25.8C99.2797 26.3333 99.9397 26.6 100.74 26.6ZM113.845 29.16C112.712 29.16 111.692 28.9267 110.785 28.46C109.892 27.98 109.192 27.32 108.685 26.48C108.178 25.64 107.925 24.6867 107.925 23.62C107.925 22.5533 108.178 21.6 108.685 20.76C109.192 19.92 109.892 19.2667 110.785 18.8C111.692 18.32 112.712 18.08 113.845 18.08C114.978 18.08 115.992 18.32 116.885 18.8C117.778 19.2667 118.478 19.92 118.985 20.76C119.492 21.6 119.745 22.5533 119.745 23.62C119.745 24.6867 119.492 25.64 118.985 26.48C118.478 27.32 117.778 27.98 116.885 28.46C115.992 28.9267 114.978 29.16 113.845 29.16ZM113.845 26.6C114.645 26.6 115.298 26.3333 115.805 25.8C116.325 25.2533 116.585 24.5267 116.585 23.62C116.585 22.7133 116.325 21.9933 115.805 21.46C115.298 20.9133 114.645 20.64 113.845 20.64C113.045 20.64 112.385 20.9133 111.865 21.46C111.345 21.9933 111.085 22.7133 111.085 23.62C111.085 24.5267 111.345 25.2533 111.865 25.8C112.385 26.3333 113.045 26.6 113.845 26.6ZM135.611 18.08C136.957 18.08 138.024 18.48 138.811 19.28C139.611 20.0667 140.011 21.2533 140.011 22.84V29H136.891V23.32C136.891 22.4667 136.711 21.8333 136.351 21.42C136.004 20.9933 135.504 20.78 134.851 20.78C134.117 20.78 133.537 21.02 133.111 21.5C132.684 21.9667 132.471 22.6667 132.471 23.6V29H129.351V23.32C129.351 21.6267 128.671 20.78 127.311 20.78C126.591 20.78 126.017 21.02 125.591 21.5C125.164 21.9667 124.951 22.6667 124.951 23.6V29H121.831V18.24H124.811V19.48C125.211 19.0267 125.697 18.68 126.271 18.44C126.857 18.2 127.497 18.08 128.191 18.08C128.951 18.08 129.637 18.2333 130.251 18.54C130.864 18.8333 131.357 19.2667 131.731 19.84C132.171 19.28 132.724 18.8467 133.391 18.54C134.071 18.2333 134.811 18.08 135.611 18.08ZM156.587 18.08C157.934 18.08 159.001 18.48 159.787 19.28C160.587 20.0667 160.987 21.2533 160.987 22.84V29H157.867V23.32C157.867 22.4667 157.687 21.8333 157.327 21.42C156.981 20.9933 156.481 20.78 155.827 20.78C155.094 20.78 154.514 21.02 154.087 21.5C153.661 21.9667 153.447 22.6667 153.447 23.6V29H150.327V23.32C150.327 21.6267 149.647 20.78 148.287 20.78C147.567 20.78 146.994 21.02 146.567 21.5C146.141 21.9667 145.927 22.6667 145.927 23.6V29H142.807V18.24H145.787V19.48C146.187 19.0267 146.674 18.68 147.247 18.44C147.834 18.2 148.474 18.08 149.167 18.08C149.927 18.08 150.614 18.2333 151.227 18.54C151.841 18.8333 152.334 19.2667 152.707 19.84C153.147 19.28 153.701 18.8467 154.367 18.54C155.047 18.2333 155.787 18.08 156.587 18.08ZM168.124 18.08C169.79 18.08 171.07 18.48 171.964 19.28C172.857 20.0667 173.304 21.26 173.304 22.86V29H170.384V27.66C169.797 28.66 168.704 29.16 167.104 29.16C166.277 29.16 165.557 29.02 164.944 28.74C164.344 28.46 163.884 28.0733 163.564 27.58C163.244 27.0867 163.084 26.5267 163.084 25.9C163.084 24.9 163.457 24.1133 164.204 23.54C164.964 22.9667 166.13 22.68 167.704 22.68H170.184C170.184 22 169.977 21.48 169.564 21.12C169.15 20.7467 168.53 20.56 167.704 20.56C167.13 20.56 166.564 20.6533 166.004 20.84C165.457 21.0133 164.99 21.2533 164.604 21.56L163.484 19.38C164.07 18.9667 164.77 18.6467 165.584 18.42C166.41 18.1933 167.257 18.08 168.124 18.08ZM167.884 27.06C168.417 27.06 168.89 26.94 169.304 26.7C169.717 26.4467 170.01 26.08 170.184 25.6V24.5H168.044C166.764 24.5 166.124 24.92 166.124 25.76C166.124 26.16 166.277 26.48 166.584 26.72C166.904 26.9467 167.337 27.06 167.884 27.06ZM183.068 28.48C182.761 28.7067 182.381 28.88 181.928 29C181.488 29.1067 181.021 29.16 180.528 29.16C179.248 29.16 178.254 28.8333 177.548 28.18C176.854 27.5267 176.508 26.5667 176.508 25.3V20.88H174.848V18.48H176.508V15.86H179.628V18.48H182.308V20.88H179.628V25.26C179.628 25.7133 179.741 26.0667 179.967 26.32C180.208 26.56 180.541 26.68 180.968 26.68C181.461 26.68 181.881 26.5467 182.228 26.28L183.068 28.48ZM195.027 23.66C195.027 23.7 195.007 23.98 194.967 24.5H186.827C186.974 25.1667 187.32 25.6933 187.867 26.08C188.414 26.4667 189.094 26.66 189.907 26.66C190.467 26.66 190.96 26.58 191.387 26.42C191.827 26.2467 192.234 25.98 192.607 25.62L194.267 27.42C193.254 28.58 191.774 29.16 189.827 29.16C188.614 29.16 187.54 28.9267 186.607 28.46C185.674 27.98 184.954 27.32 184.447 26.48C183.94 25.64 183.687 24.6867 183.687 23.62C183.687 22.5667 183.934 21.62 184.427 20.78C184.934 19.9267 185.62 19.2667 186.487 18.8C187.367 18.32 188.347 18.08 189.427 18.08C190.48 18.08 191.434 18.3067 192.287 18.76C193.14 19.2133 193.807 19.8667 194.287 20.72C194.78 21.56 195.027 22.54 195.027 23.66ZM189.447 20.44C188.74 20.44 188.147 20.64 187.667 21.04C187.187 21.44 186.894 21.9867 186.787 22.68H192.087C191.98 22 191.687 21.46 191.207 21.06C190.727 20.6467 190.14 20.44 189.447 20.44ZM200.724 29.16C199.831 29.16 198.957 29.0533 198.104 28.84C197.251 28.6133 196.571 28.3333 196.064 28L197.104 25.76C197.584 26.0667 198.164 26.32 198.844 26.52C199.524 26.7067 200.191 26.8 200.844 26.8C202.164 26.8 202.824 26.4733 202.824 25.82C202.824 25.5133 202.644 25.2933 202.284 25.16C201.924 25.0267 201.371 24.9133 200.624 24.82C199.744 24.6867 199.017 24.5333 198.444 24.36C197.871 24.1867 197.371 23.88 196.944 23.44C196.531 23 196.324 22.3733 196.324 21.56C196.324 20.88 196.517 20.28 196.904 19.76C197.304 19.2267 197.877 18.8133 198.624 18.52C199.384 18.2267 200.277 18.08 201.304 18.08C202.064 18.08 202.817 18.1667 203.564 18.34C204.324 18.5 204.951 18.7267 205.444 19.02L204.404 21.24C203.457 20.7067 202.424 20.44 201.304 20.44C200.637 20.44 200.137 20.5333 199.804 20.72C199.471 20.9067 199.304 21.1467 199.304 21.44C199.304 21.7733 199.484 22.0067 199.844 22.14C200.204 22.2733 200.777 22.4 201.564 22.52C202.444 22.6667 203.164 22.8267 203.724 23C204.284 23.16 204.771 23.46 205.184 23.9C205.597 24.34 205.804 24.9533 205.804 25.74C205.804 26.4067 205.604 27 205.204 27.52C204.804 28.04 204.217 28.4467 203.444 28.74C202.684 29.02 201.777 29.16 200.724 29.16ZM218.513 29.16C217.38 29.16 216.36 28.9267 215.453 28.46C214.56 27.98 213.86 27.32 213.353 26.48C212.846 25.64 212.593 24.6867 212.593 23.62C212.593 22.5533 212.846 21.6 213.353 20.76C213.86 19.92 214.56 19.2667 215.453 18.8C216.36 18.32 217.38 18.08 218.513 18.08C219.646 18.08 220.66 18.32 221.553 18.8C222.446 19.2667 223.146 19.92 223.653 20.76C224.16 21.6 224.413 22.5533 224.413 23.62C224.413 24.6867 224.16 25.64 223.653 26.48C223.146 27.32 222.446 27.98 221.553 28.46C220.66 28.9267 219.646 29.16 218.513 29.16ZM218.513 26.6C219.313 26.6 219.966 26.3333 220.473 25.8C220.993 25.2533 221.253 24.5267 221.253 23.62C221.253 22.7133 220.993 21.9933 220.473 21.46C219.966 20.9133 219.313 20.64 218.513 20.64C217.713 20.64 217.053 20.9133 216.533 21.46C216.013 21.9933 215.753 22.7133 215.753 23.62C215.753 24.5267 216.013 25.2533 216.533 25.8C217.053 26.3333 217.713 26.6 218.513 26.6ZM233.039 18.08C234.372 18.08 235.445 18.48 236.259 19.28C237.085 20.08 237.499 21.2667 237.499 22.84V29H234.379V23.32C234.379 22.4667 234.192 21.8333 233.819 21.42C233.445 20.9933 232.905 20.78 232.199 20.78C231.412 20.78 230.785 21.0267 230.319 21.52C229.852 22 229.619 22.72 229.619 23.68V29H226.499V18.24H229.479V19.5C229.892 19.0467 230.405 18.7 231.019 18.46C231.632 18.2067 232.305 18.08 233.039 18.08ZM240.327 14.16H243.447V29H240.327V14.16ZM257.022 18.24L252.162 29.66C251.669 30.9 251.056 31.7733 250.322 32.28C249.602 32.7867 248.729 33.04 247.702 33.04C247.142 33.04 246.589 32.9533 246.042 32.78C245.496 32.6067 245.049 32.3667 244.702 32.06L245.842 29.84C246.082 30.0533 246.356 30.22 246.662 30.34C246.982 30.46 247.296 30.52 247.602 30.52C248.029 30.52 248.376 30.4133 248.642 30.2C248.909 30 249.149 29.66 249.362 29.18L249.402 29.08L244.742 18.24H247.962L250.982 25.54L254.022 18.24H257.022Z" fill="white"/>
<path d="M10 3H277V-3H10V3ZM284 10V34H290V10H284ZM277 41H10V47H277V41ZM3 34V10H-3V34H3ZM10 41C6.13401 41 3 37.866 3 34H-3C-3 41.1797 2.8203 47 10 47V41ZM284 34C284 37.866 280.866 41 277 41V47C284.18 47 290 41.1797 290 34H284ZM277 3C280.866 3 284 6.13401 284 10H290C290 2.8203 284.18 -3 277 -3V3ZM10 -3C2.8203 -3 -3 2.8203 -3 10H3C3 6.13401 6.13401 3 10 3V-3Z" fill="#E7936D"/>
</svg>
