<svg width="166" height="44" viewBox="0 0 166 44" fill="none" xmlns="http://www.w3.org/2000/svg">
<path d="M0 10C0 4.47715 4.47715 0 10 0H156C161.523 0 166 4.47715 166 10V34C166 39.5228 161.523 44 156 44H10C4.47716 44 0 39.5228 0 34V10Z" fill="white"/>
<path d="M44.5 15V29H41.84L34.86 20.5V29H31.66V15H34.34L41.3 23.5V15H44.5ZM52.7123 29.16C51.579 29.16 50.559 28.9267 49.6523 28.46C48.759 27.98 48.059 27.32 47.5523 26.48C47.0457 25.64 46.7923 24.6867 46.7923 23.62C46.7923 22.5533 47.0457 21.6 47.5523 20.76C48.059 19.92 48.759 19.2667 49.6523 18.8C50.559 18.32 51.579 18.08 52.7123 18.08C53.8457 18.08 54.859 18.32 55.7523 18.8C56.6457 19.2667 57.3457 19.92 57.8523 20.76C58.359 21.6 58.6123 22.5533 58.6123 23.62C58.6123 24.6867 58.359 25.64 57.8523 26.48C57.3457 27.32 56.6457 27.98 55.7523 28.46C54.859 28.9267 53.8457 29.16 52.7123 29.16ZM52.7123 26.6C53.5123 26.6 54.1657 26.3333 54.6723 25.8C55.1923 25.2533 55.4523 24.5267 55.4523 23.62C55.4523 22.7133 55.1923 21.9933 54.6723 21.46C54.1657 20.9133 53.5123 20.64 52.7123 20.64C51.9123 20.64 51.2523 20.9133 50.7323 21.46C50.2123 21.9933 49.9523 22.7133 49.9523 23.62C49.9523 24.5267 50.2123 25.2533 50.7323 25.8C51.2523 26.3333 51.9123 26.6 52.7123 26.6ZM69.9819 29.16C69.0885 29.16 68.2152 29.0533 67.3619 28.84C66.5085 28.6133 65.8285 28.3333 65.3219 28L66.3619 25.76C66.8419 26.0667 67.4219 26.32 68.1019 26.52C68.7819 26.7067 69.4485 26.8 70.1019 26.8C71.4219 26.8 72.0819 26.4733 72.0819 25.82C72.0819 25.5133 71.9019 25.2933 71.5419 25.16C71.1819 25.0267 70.6285 24.9133 69.8819 24.82C69.0019 24.6867 68.2752 24.5333 67.7019 24.36C67.1285 24.1867 66.6285 23.88 66.2019 23.44C65.7885 23 65.5819 22.3733 65.5819 21.56C65.5819 20.88 65.7752 20.28 66.1619 19.76C66.5619 19.2267 67.1352 18.8133 67.8819 18.52C68.6419 18.2267 69.5352 18.08 70.5619 18.08C71.3219 18.08 72.0752 18.1667 72.8219 18.34C73.5819 18.5 74.2085 18.7267 74.7019 19.02L73.6619 21.24C72.7152 20.7067 71.6819 20.44 70.5619 20.44C69.8952 20.44 69.3952 20.5333 69.0619 20.72C68.7285 20.9067 68.5619 21.1467 68.5619 21.44C68.5619 21.7733 68.7419 22.0067 69.1019 22.14C69.4619 22.2733 70.0352 22.4 70.8219 22.52C71.7019 22.6667 72.4219 22.8267 72.9819 23C73.5419 23.16 74.0285 23.46 74.4419 23.9C74.8552 24.34 75.0619 24.9533 75.0619 25.74C75.0619 26.4067 74.8619 27 74.4619 27.52C74.0619 28.04 73.4752 28.4467 72.7019 28.74C71.9419 29.02 71.0352 29.16 69.9819 29.16ZM90.7669 18.08C92.1135 18.08 93.1802 18.48 93.9669 19.28C94.7669 20.0667 95.1669 21.2533 95.1669 22.84V29H92.0469V23.32C92.0469 22.4667 91.8669 21.8333 91.5069 21.42C91.1602 20.9933 90.6602 20.78 90.0069 20.78C89.2735 20.78 88.6935 21.02 88.2669 21.5C87.8402 21.9667 87.6269 22.6667 87.6269 23.6V29H84.5069V23.32C84.5069 21.6267 83.8269 20.78 82.4669 20.78C81.7469 20.78 81.1735 21.02 80.7469 21.5C80.3202 21.9667 80.1069 22.6667 80.1069 23.6V29H76.9869V18.24H79.9669V19.48C80.3669 19.0267 80.8535 18.68 81.4269 18.44C82.0135 18.2 82.6535 18.08 83.3469 18.08C84.1069 18.08 84.7935 18.2333 85.4069 18.54C86.0202 18.8333 86.5135 19.2667 86.8869 19.84C87.3269 19.28 87.8802 18.8467 88.5469 18.54C89.2269 18.2333 89.9669 18.08 90.7669 18.08ZM103.201 29.16C102.067 29.16 101.047 28.9267 100.141 28.46C99.2473 27.98 98.5473 27.32 98.0406 26.48C97.534 25.64 97.2806 24.6867 97.2806 23.62C97.2806 22.5533 97.534 21.6 98.0406 20.76C98.5473 19.92 99.2473 19.2667 100.141 18.8C101.047 18.32 102.067 18.08 103.201 18.08C104.334 18.08 105.347 18.32 106.241 18.8C107.134 19.2667 107.834 19.92 108.341 20.76C108.847 21.6 109.101 22.5533 109.101 23.62C109.101 24.6867 108.847 25.64 108.341 26.48C107.834 27.32 107.134 27.98 106.241 28.46C105.347 28.9267 104.334 29.16 103.201 29.16ZM103.201 26.6C104.001 26.6 104.654 26.3333 105.161 25.8C105.681 25.2533 105.941 24.5267 105.941 23.62C105.941 22.7133 105.681 21.9933 105.161 21.46C104.654 20.9133 104.001 20.64 103.201 20.64C102.401 20.64 101.741 20.9133 101.221 21.46C100.701 21.9933 100.441 22.7133 100.441 23.62C100.441 24.5267 100.701 25.2533 101.221 25.8C101.741 26.3333 102.401 26.6 103.201 26.6ZM115.806 24.78L114.306 26.26V29H111.186V14.16H114.306V22.56L118.866 18.24H122.586L118.106 22.8L122.986 29H119.206L115.806 24.78ZM134.46 23.66C134.46 23.7 134.44 23.98 134.4 24.5H126.26C126.407 25.1667 126.754 25.6933 127.3 26.08C127.847 26.4667 128.527 26.66 129.34 26.66C129.9 26.66 130.394 26.58 130.82 26.42C131.26 26.2467 131.667 25.98 132.04 25.62L133.7 27.42C132.687 28.58 131.207 29.16 129.26 29.16C128.047 29.16 126.974 28.9267 126.04 28.46C125.107 27.98 124.387 27.32 123.88 26.48C123.374 25.64 123.12 24.6867 123.12 23.62C123.12 22.5667 123.367 21.62 123.86 20.78C124.367 19.9267 125.054 19.2667 125.92 18.8C126.8 18.32 127.78 18.08 128.86 18.08C129.914 18.08 130.867 18.3067 131.72 18.76C132.574 19.2133 133.24 19.8667 133.72 20.72C134.214 21.56 134.46 22.54 134.46 23.66ZM128.88 20.44C128.174 20.44 127.58 20.64 127.1 21.04C126.62 21.44 126.327 21.9867 126.22 22.68H131.52C131.414 22 131.12 21.46 130.64 21.06C130.16 20.6467 129.574 20.44 128.88 20.44Z" fill="#D3AB98"/>
<path d="M10 3H156V-3H10V3ZM163 10V34H169V10H163ZM156 41H10V47H156V41ZM3 34V10H-3V34H3ZM10 41C6.13401 41 3 37.866 3 34H-3C-3 41.1797 2.8203 47 10 47V41ZM163 34C163 37.866 159.866 41 156 41V47C163.18 47 169 41.1797 169 34H163ZM156 3C159.866 3 163 6.13401 163 10H169C169 2.8203 163.18 -3 156 -3V3ZM10 -3C2.8203 -3 -3 2.8203 -3 10H3C3 6.13401 6.13401 3 10 3V-3Z" fill="#D3AB98"/>
</svg>
