<svg width="207" height="44" viewBox="0 0 207 44" fill="none" xmlns="http://www.w3.org/2000/svg">
<path d="M0 10C0 4.47715 4.47715 0 10 0H197C202.523 0 207 4.47715 207 10V34C207 39.5228 202.523 44 197 44H10C4.47716 44 0 39.5228 0 34V10Z" fill="#E7936D"/>
<path d="M37.72 15C38.96 15 40.0333 15.2067 40.94 15.62C41.86 16.0333 42.5667 16.62 43.06 17.38C43.5533 18.14 43.8 19.04 43.8 20.08C43.8 21.1067 43.5533 22.0067 43.06 22.78C42.5667 23.54 41.86 24.1267 40.94 24.54C40.0333 24.94 38.96 25.14 37.72 25.14H34.9V29H31.66V15H37.72ZM37.54 22.5C38.5133 22.5 39.2533 22.2933 39.76 21.88C40.2667 21.4533 40.52 20.8533 40.52 20.08C40.52 19.2933 40.2667 18.6933 39.76 18.28C39.2533 17.8533 38.5133 17.64 37.54 17.64H34.9V22.5H37.54ZM50.1355 18.08C51.8021 18.08 53.0821 18.48 53.9755 19.28C54.8688 20.0667 55.3155 21.26 55.3155 22.86V29H52.3955V27.66C51.8088 28.66 50.7155 29.16 49.1155 29.16C48.2888 29.16 47.5688 29.02 46.9555 28.74C46.3555 28.46 45.8955 28.0733 45.5755 27.58C45.2555 27.0867 45.0955 26.5267 45.0955 25.9C45.0955 24.9 45.4688 24.1133 46.2155 23.54C46.9755 22.9667 48.1421 22.68 49.7155 22.68H52.1955C52.1955 22 51.9888 21.48 51.5755 21.12C51.1621 20.7467 50.5421 20.56 49.7155 20.56C49.1421 20.56 48.5755 20.6533 48.0155 20.84C47.4688 21.0133 47.0021 21.2533 46.6155 21.56L45.4955 19.38C46.0821 18.9667 46.7821 18.6467 47.5955 18.42C48.4221 18.1933 49.2688 18.08 50.1355 18.08ZM49.8955 27.06C50.4288 27.06 50.9021 26.94 51.3155 26.7C51.7288 26.4467 52.0221 26.08 52.1955 25.6V24.5H50.0555C48.7755 24.5 48.1355 24.92 48.1355 25.76C48.1355 26.16 48.2888 26.48 48.5955 26.72C48.9155 26.9467 49.3488 27.06 49.8955 27.06ZM65.0792 28.48C64.7726 28.7067 64.3926 28.88 63.9392 29C63.4992 29.1067 63.0326 29.16 62.5392 29.16C61.2592 29.16 60.2659 28.8333 59.5592 28.18C58.8659 27.5267 58.5192 26.5667 58.5192 25.3V20.88H56.8592V18.48H58.5192V15.86H61.6392V18.48H64.3192V20.88H61.6392V25.26C61.6392 25.7133 61.7526 26.0667 61.9792 26.32C62.2192 26.56 62.5526 26.68 62.9792 26.68C63.4726 26.68 63.8926 26.5467 64.2392 26.28L65.0792 28.48ZM66.8306 18.24H69.9506V29H66.8306V18.24ZM68.3906 16.74C67.8173 16.74 67.3506 16.5733 66.9906 16.24C66.6306 15.9067 66.4506 15.4933 66.4506 15C66.4506 14.5067 66.6306 14.0933 66.9906 13.76C67.3506 13.4267 67.8173 13.26 68.3906 13.26C68.964 13.26 69.4306 13.42 69.7906 13.74C70.1506 14.06 70.3306 14.46 70.3306 14.94C70.3306 15.46 70.1506 15.8933 69.7906 16.24C69.4306 16.5733 68.964 16.74 68.3906 16.74ZM77.9663 29.16C76.8329 29.16 75.8129 28.9267 74.9063 28.46C74.0129 27.98 73.3129 27.32 72.8063 26.48C72.2996 25.64 72.0463 24.6867 72.0463 23.62C72.0463 22.5533 72.2996 21.6 72.8063 20.76C73.3129 19.92 74.0129 19.2667 74.9063 18.8C75.8129 18.32 76.8329 18.08 77.9663 18.08C79.0996 18.08 80.1129 18.32 81.0063 18.8C81.8996 19.2667 82.5996 19.92 83.1063 20.76C83.6129 21.6 83.8663 22.5533 83.8663 23.62C83.8663 24.6867 83.6129 25.64 83.1063 26.48C82.5996 27.32 81.8996 27.98 81.0063 28.46C80.1129 28.9267 79.0996 29.16 77.9663 29.16ZM77.9663 26.6C78.7663 26.6 79.4196 26.3333 79.9263 25.8C80.4463 25.2533 80.7063 24.5267 80.7063 23.62C80.7063 22.7133 80.4463 21.9933 79.9263 21.46C79.4196 20.9133 78.7663 20.64 77.9663 20.64C77.1663 20.64 76.5063 20.9133 75.9863 21.46C75.4663 21.9933 75.2063 22.7133 75.2063 23.62C75.2063 24.5267 75.4663 25.2533 75.9863 25.8C76.5063 26.3333 77.1663 26.6 77.9663 26.6ZM90.4517 12.16H93.2317L86.6317 31H83.8517L90.4517 12.16ZM104.284 21.72C105.084 21.9733 105.71 22.4 106.164 23C106.617 23.5867 106.844 24.3133 106.844 25.18C106.844 26.4067 106.364 27.3533 105.404 28.02C104.457 28.6733 103.07 29 101.244 29H94.0038V15H100.844C102.55 15 103.857 15.3267 104.764 15.98C105.684 16.6333 106.144 17.52 106.144 18.64C106.144 19.32 105.977 19.9267 105.644 20.46C105.324 20.9933 104.87 21.4133 104.284 21.72ZM97.2238 17.44V20.74H100.444C101.244 20.74 101.85 20.6 102.264 20.32C102.677 20.04 102.884 19.6267 102.884 19.08C102.884 18.5333 102.677 18.1267 102.264 17.86C101.85 17.58 101.244 17.44 100.444 17.44H97.2238ZM101.004 26.56C101.857 26.56 102.497 26.42 102.924 26.14C103.364 25.86 103.584 25.4267 103.584 24.84C103.584 23.68 102.724 23.1 101.004 23.1H97.2238V26.56H101.004ZM113.417 18.08C115.083 18.08 116.363 18.48 117.257 19.28C118.15 20.0667 118.597 21.26 118.597 22.86V29H115.677V27.66C115.09 28.66 113.997 29.16 112.397 29.16C111.57 29.16 110.85 29.02 110.237 28.74C109.637 28.46 109.177 28.0733 108.857 27.58C108.537 27.0867 108.377 26.5267 108.377 25.9C108.377 24.9 108.75 24.1133 109.497 23.54C110.257 22.9667 111.423 22.68 112.997 22.68H115.477C115.477 22 115.27 21.48 114.857 21.12C114.443 20.7467 113.823 20.56 112.997 20.56C112.423 20.56 111.857 20.6533 111.297 20.84C110.75 21.0133 110.283 21.2533 109.897 21.56L108.777 19.38C109.363 18.9667 110.063 18.6467 110.877 18.42C111.703 18.1933 112.55 18.08 113.417 18.08ZM113.177 27.06C113.71 27.06 114.183 26.94 114.597 26.7C115.01 26.4467 115.303 26.08 115.477 25.6V24.5H113.337C112.057 24.5 111.417 24.92 111.417 25.76C111.417 26.16 111.57 26.48 111.877 26.72C112.197 26.9467 112.63 27.06 113.177 27.06ZM121.42 14.16H124.54V29H121.42V14.16ZM132.636 29.16C131.489 29.16 130.456 28.9267 129.536 28.46C128.629 27.98 127.916 27.32 127.396 26.48C126.889 25.64 126.636 24.6867 126.636 23.62C126.636 22.5533 126.889 21.6 127.396 20.76C127.916 19.92 128.629 19.2667 129.536 18.8C130.456 18.32 131.489 18.08 132.636 18.08C133.769 18.08 134.756 18.32 135.596 18.8C136.449 19.2667 137.069 19.94 137.456 20.82L135.036 22.12C134.476 21.1333 133.669 20.64 132.616 20.64C131.803 20.64 131.129 20.9067 130.596 21.44C130.063 21.9733 129.796 22.7 129.796 23.62C129.796 24.54 130.063 25.2667 130.596 25.8C131.129 26.3333 131.803 26.6 132.616 26.6C133.683 26.6 134.489 26.1067 135.036 25.12L137.456 26.44C137.069 27.2933 136.449 27.96 135.596 28.44C134.756 28.92 133.769 29.16 132.636 29.16ZM144.236 29.16C143.102 29.16 142.082 28.9267 141.176 28.46C140.282 27.98 139.582 27.32 139.076 26.48C138.569 25.64 138.316 24.6867 138.316 23.62C138.316 22.5533 138.569 21.6 139.076 20.76C139.582 19.92 140.282 19.2667 141.176 18.8C142.082 18.32 143.102 18.08 144.236 18.08C145.369 18.08 146.382 18.32 147.276 18.8C148.169 19.2667 148.869 19.92 149.376 20.76C149.882 21.6 150.136 22.5533 150.136 23.62C150.136 24.6867 149.882 25.64 149.376 26.48C148.869 27.32 148.169 27.98 147.276 28.46C146.382 28.9267 145.369 29.16 144.236 29.16ZM144.236 26.6C145.036 26.6 145.689 26.3333 146.196 25.8C146.716 25.2533 146.976 24.5267 146.976 23.62C146.976 22.7133 146.716 21.9933 146.196 21.46C145.689 20.9133 145.036 20.64 144.236 20.64C143.436 20.64 142.776 20.9133 142.256 21.46C141.736 21.9933 141.476 22.7133 141.476 23.62C141.476 24.5267 141.736 25.2533 142.256 25.8C142.776 26.3333 143.436 26.6 144.236 26.6ZM158.761 18.08C160.095 18.08 161.168 18.48 161.981 19.28C162.808 20.08 163.221 21.2667 163.221 22.84V29H160.101V23.32C160.101 22.4667 159.915 21.8333 159.541 21.42C159.168 20.9933 158.628 20.78 157.921 20.78C157.135 20.78 156.508 21.0267 156.041 21.52C155.575 22 155.341 22.72 155.341 23.68V29H152.221V18.24H155.201V19.5C155.615 19.0467 156.128 18.7 156.741 18.46C157.355 18.2067 158.028 18.08 158.761 18.08ZM176.534 18.24L171.674 29.66C171.181 30.9 170.567 31.7733 169.834 32.28C169.114 32.7867 168.241 33.04 167.214 33.04C166.654 33.04 166.101 32.9533 165.554 32.78C165.007 32.6067 164.561 32.3667 164.214 32.06L165.354 29.84C165.594 30.0533 165.867 30.22 166.174 30.34C166.494 30.46 166.807 30.52 167.114 30.52C167.541 30.52 167.887 30.4133 168.154 30.2C168.421 30 168.661 29.66 168.874 29.18L168.914 29.08L164.254 18.24H167.474L170.494 25.54L173.534 18.24H176.534Z" fill="white"/>
<path d="M10 3H197V-3H10V3ZM204 10V34H210V10H204ZM197 41H10V47H197V41ZM3 34V10H-3V34H3ZM10 41C6.13401 41 3 37.866 3 34H-3C-3 41.1797 2.82031 47 10 47V41ZM204 34C204 37.866 200.866 41 197 41V47C204.18 47 210 41.1797 210 34H204ZM197 3C200.866 3 204 6.13401 204 10H210C210 2.8203 204.18 -3 197 -3V3ZM10 -3C2.8203 -3 -3 2.8203 -3 10H3C3 6.13401 6.13401 3 10 3V-3Z" fill="#E7936D"/>
</svg>
