<svg width="195" height="44" viewBox="0 0 195 44" fill="none" xmlns="http://www.w3.org/2000/svg">
<path d="M0 10C0 4.47715 4.47715 0 10 0H185C190.523 0 195 4.47715 195 10V34C195 39.5228 190.523 44 185 44H10C4.47715 44 0 39.5228 0 34V10Z" fill="#E7936D"/>
<path d="M37.72 15C38.96 15 40.0333 15.2067 40.94 15.62C41.86 16.0333 42.5667 16.62 43.06 17.38C43.5533 18.14 43.8 19.04 43.8 20.08C43.8 21.1067 43.5533 22.0067 43.06 22.78C42.5667 23.54 41.86 24.1267 40.94 24.54C40.0333 24.94 38.96 25.14 37.72 25.14H34.9V29H31.66V15H37.72ZM37.54 22.5C38.5133 22.5 39.2533 22.2933 39.76 21.88C40.2667 21.4533 40.52 20.8533 40.52 20.08C40.52 19.2933 40.2667 18.6933 39.76 18.28C39.2533 17.8533 38.5133 17.64 37.54 17.64H34.9V22.5H37.54ZM56.4136 23.66C56.4136 23.7 56.3936 23.98 56.3536 24.5H48.2136C48.3603 25.1667 48.7069 25.6933 49.2536 26.08C49.8003 26.4667 50.4803 26.66 51.2936 26.66C51.8536 26.66 52.3469 26.58 52.7736 26.42C53.2136 26.2467 53.6203 25.98 53.9936 25.62L55.6536 27.42C54.6403 28.58 53.1603 29.16 51.2136 29.16C50.0003 29.16 48.9269 28.9267 47.9936 28.46C47.0603 27.98 46.3403 27.32 45.8336 26.48C45.3269 25.64 45.0736 24.6867 45.0736 23.62C45.0736 22.5667 45.3203 21.62 45.8136 20.78C46.3203 19.9267 47.0069 19.2667 47.8736 18.8C48.7536 18.32 49.7336 18.08 50.8136 18.08C51.8669 18.08 52.8203 18.3067 53.6736 18.76C54.5269 19.2133 55.1936 19.8667 55.6736 20.72C56.1669 21.56 56.4136 22.54 56.4136 23.66ZM50.8336 20.44C50.1269 20.44 49.5336 20.64 49.0536 21.04C48.5736 21.44 48.2803 21.9867 48.1736 22.68H53.4736C53.3669 22 53.0736 21.46 52.5936 21.06C52.1136 20.6467 51.5269 20.44 50.8336 20.44ZM65.4308 28.48C65.1241 28.7067 64.7441 28.88 64.2908 29C63.8508 29.1067 63.3841 29.16 62.8908 29.16C61.6108 29.16 60.6174 28.8333 59.9108 28.18C59.2174 27.5267 58.8708 26.5667 58.8708 25.3V20.88H57.2108V18.48H58.8708V15.86H61.9908V18.48H64.6708V20.88H61.9908V25.26C61.9908 25.7133 62.1041 26.0667 62.3308 26.32C62.5708 26.56 62.9041 26.68 63.3308 26.68C63.8241 26.68 64.2441 26.5467 64.5908 26.28L65.4308 28.48ZM70.8022 29.16C69.9089 29.16 69.0355 29.0533 68.1822 28.84C67.3289 28.6133 66.6489 28.3333 66.1422 28L67.1822 25.76C67.6622 26.0667 68.2422 26.32 68.9222 26.52C69.6022 26.7067 70.2689 26.8 70.9222 26.8C72.2422 26.8 72.9022 26.4733 72.9022 25.82C72.9022 25.5133 72.7222 25.2933 72.3622 25.16C72.0022 25.0267 71.4489 24.9133 70.7022 24.82C69.8222 24.6867 69.0955 24.5333 68.5222 24.36C67.9489 24.1867 67.4489 23.88 67.0222 23.44C66.6089 23 66.4022 22.3733 66.4022 21.56C66.4022 20.88 66.5955 20.28 66.9822 19.76C67.3822 19.2267 67.9555 18.8133 68.7022 18.52C69.4622 18.2267 70.3555 18.08 71.3822 18.08C72.1422 18.08 72.8955 18.1667 73.6422 18.34C74.4022 18.5 75.0289 18.7267 75.5222 19.02L74.4822 21.24C73.5355 20.7067 72.5022 20.44 71.3822 20.44C70.7155 20.44 70.2155 20.5333 69.8822 20.72C69.5489 20.9067 69.3822 21.1467 69.3822 21.44C69.3822 21.7733 69.5622 22.0067 69.9222 22.14C70.2822 22.2733 70.8555 22.4 71.6422 22.52C72.5222 22.6667 73.2422 22.8267 73.8022 23C74.3622 23.16 74.8489 23.46 75.2622 23.9C75.6755 24.34 75.8822 24.9533 75.8822 25.74C75.8822 26.4067 75.6822 27 75.2822 27.52C74.8822 28.04 74.2955 28.4467 73.5222 28.74C72.7622 29.02 71.8555 29.16 70.8022 29.16ZM86.8913 18.48H89.6513V20.88H86.9713V29H83.8513V20.88H82.1913V18.48H83.8513V18C83.8513 16.7733 84.2113 15.8 84.9313 15.08C85.6646 14.36 86.6913 14 88.0113 14C88.4779 14 88.9179 14.0533 89.3313 14.16C89.7579 14.2533 90.1113 14.3933 90.3913 14.58L89.5713 16.84C89.2113 16.5867 88.7913 16.46 88.3113 16.46C87.3646 16.46 86.8913 16.98 86.8913 18.02V18.48ZM95.7872 19.66C96.1605 19.14 96.6605 18.7467 97.2872 18.48C97.9272 18.2133 98.6605 18.08 99.4872 18.08V20.96C99.1405 20.9333 98.9072 20.92 98.7872 20.92C97.8939 20.92 97.1939 21.1733 96.6872 21.68C96.1805 22.1733 95.9272 22.92 95.9272 23.92V29H92.8072V18.24H95.7872V19.66ZM101.342 18.24H104.462V29H101.342V18.24ZM102.902 16.74C102.329 16.74 101.862 16.5733 101.502 16.24C101.142 15.9067 100.962 15.4933 100.962 15C100.962 14.5067 101.142 14.0933 101.502 13.76C101.862 13.4267 102.329 13.26 102.902 13.26C103.476 13.26 103.942 13.42 104.302 13.74C104.662 14.06 104.842 14.46 104.842 14.94C104.842 15.46 104.662 15.8933 104.302 16.24C103.942 16.5733 103.476 16.74 102.902 16.74ZM117.898 23.66C117.898 23.7 117.878 23.98 117.838 24.5H109.698C109.845 25.1667 110.191 25.6933 110.738 26.08C111.285 26.4667 111.965 26.66 112.778 26.66C113.338 26.66 113.831 26.58 114.258 26.42C114.698 26.2467 115.105 25.98 115.478 25.62L117.138 27.42C116.125 28.58 114.645 29.16 112.698 29.16C111.485 29.16 110.411 28.9267 109.478 28.46C108.545 27.98 107.825 27.32 107.318 26.48C106.811 25.64 106.558 24.6867 106.558 23.62C106.558 22.5667 106.805 21.62 107.298 20.78C107.805 19.9267 108.491 19.2667 109.358 18.8C110.238 18.32 111.218 18.08 112.298 18.08C113.351 18.08 114.305 18.3067 115.158 18.76C116.011 19.2133 116.678 19.8667 117.158 20.72C117.651 21.56 117.898 22.54 117.898 23.66ZM112.318 20.44C111.611 20.44 111.018 20.64 110.538 21.04C110.058 21.44 109.765 21.9867 109.658 22.68H114.958C114.851 22 114.558 21.46 114.078 21.06C113.598 20.6467 113.011 20.44 112.318 20.44ZM126.515 18.08C127.848 18.08 128.922 18.48 129.735 19.28C130.562 20.08 130.975 21.2667 130.975 22.84V29H127.855V23.32C127.855 22.4667 127.668 21.8333 127.295 21.42C126.922 20.9933 126.382 20.78 125.675 20.78C124.888 20.78 124.262 21.0267 123.795 21.52C123.328 22 123.095 22.72 123.095 23.68V29H119.975V18.24H122.955V19.5C123.368 19.0467 123.882 18.7 124.495 18.46C125.108 18.2067 125.782 18.08 126.515 18.08ZM144.88 14.16V29H141.9V27.76C141.127 28.6933 140.007 29.16 138.54 29.16C137.527 29.16 136.607 28.9333 135.78 28.48C134.967 28.0267 134.327 27.38 133.86 26.54C133.394 25.7 133.16 24.7267 133.16 23.62C133.16 22.5133 133.394 21.54 133.86 20.7C134.327 19.86 134.967 19.2133 135.78 18.76C136.607 18.3067 137.527 18.08 138.54 18.08C139.914 18.08 140.987 18.5133 141.76 19.38V14.16H144.88ZM139.08 26.6C139.867 26.6 140.52 26.3333 141.04 25.8C141.56 25.2533 141.82 24.5267 141.82 23.62C141.82 22.7133 141.56 21.9933 141.04 21.46C140.52 20.9133 139.867 20.64 139.08 20.64C138.28 20.64 137.62 20.9133 137.1 21.46C136.58 21.9933 136.32 22.7133 136.32 23.62C136.32 24.5267 136.58 25.2533 137.1 25.8C137.62 26.3333 138.28 26.6 139.08 26.6ZM147.768 14.16H150.888V29H147.768V14.16ZM164.464 18.24L159.604 29.66C159.11 30.9 158.497 31.7733 157.764 32.28C157.044 32.7867 156.17 33.04 155.144 33.04C154.584 33.04 154.03 32.9533 153.484 32.78C152.937 32.6067 152.49 32.3667 152.144 32.06L153.284 29.84C153.524 30.0533 153.797 30.22 154.104 30.34C154.424 30.46 154.737 30.52 155.044 30.52C155.47 30.52 155.817 30.4133 156.084 30.2C156.35 30 156.59 29.66 156.804 29.18L156.844 29.08L152.184 18.24H155.404L158.424 25.54L161.464 18.24H164.464Z" fill="white"/>
<path d="M10 3H185V-3H10V3ZM192 10V34H198V10H192ZM185 41H10V47H185V41ZM3 34V10H-3V34H3ZM10 41C6.13401 41 3 37.866 3 34H-3C-3 41.1797 2.8203 47 10 47V41ZM192 34C192 37.866 188.866 41 185 41V47C192.18 47 198 41.1797 198 34H192ZM185 3C188.866 3 192 6.13401 192 10H198C198 2.8203 192.18 -3 185 -3V3ZM10 -3C2.8203 -3 -3 2.8203 -3 10H3C3 6.13401 6.13401 3 10 3V-3Z" fill="#E7936D"/>
</svg>
