<svg width="24" height="24" viewBox="0 0 40 40" fill="current" stroke="current" xmlns="http://www.w3.org/2000/svg">
<path d="M15.763 10.7077C16.3092 10.7077 16.812 10.8087 17.2713 11.0108C18.6347 11.6679 19.4398 12.9168 19.45 14.3095V23.9024C19.1943 25.4274 17.3713 25.0127 17.3272 23.9024V14.8444C17.1648 14.3278 16.1231 14.542 16.0982 14.8444V35.635C15.8333 37.7579 12.9684 37.1348 12.8954 35.5993V22.8682C12.7122 22.047 11.5066 22.4202 11.4802 22.9039C11.5313 27.1355 11.5174 31.3674 11.5174 35.5993C11.2317 37.7114 8.38073 37.171 8.31457 35.635L8.27735 14.8444C8.11038 14.339 7.14517 14.5328 7.1228 14.8444V23.9024C6.86703 25.4274 5.04415 25.0127 5 23.9024V14.3095C5.02577 12.9762 5.53607 11.6405 6.75039 11.0108C7.14766 10.8087 7.6318 10.7076 8.20284 10.7076L15.763 10.7077ZM15.7254 6.35118C15.7254 8.202 14.1585 9.70239 12.2257 9.70239C10.2928 9.70239 8.72592 8.202 8.72592 6.35118C8.72589 4.50039 10.2928 3 12.2256 3C14.1585 3 15.7254 4.50039 15.7254 6.35118Z" fill="current" stroke="current" />
<path d="M31.063 10.7077C31.6093 10.7077 32.112 10.8087 32.5714 11.0108C33.9348 11.6679 34.7398 12.9168 34.75 14.3095V23.9024C34.4943 25.4274 32.6714 25.0127 32.6272 23.9024V14.8444C32.4648 14.3278 31.4232 14.542 31.3983 14.8444V35.635C31.1334 37.7579 28.2685 37.1348 28.1954 35.5993V22.8682C28.0123 22.047 26.8066 22.4202 26.7802 22.9039C26.8313 27.1355 26.8175 31.3674 26.8175 35.5993C26.5317 37.7114 23.6808 37.171 23.6146 35.635L23.5774 14.8444C23.4104 14.339 22.4452 14.5328 22.4228 14.8444V23.9024C22.1671 25.4274 20.3442 25.0127 20.3 23.9024V14.3095C20.3258 12.9762 20.8361 11.6405 22.0504 11.0108C22.4477 10.8087 22.9318 10.7076 23.5029 10.7076L31.063 10.7077ZM31.0255 6.35118C31.0255 8.202 29.4586 9.70239 27.5257 9.70239C25.5929 9.70239 24.026 8.202 24.026 6.35118C24.0259 4.50039 25.5928 3 27.5257 3C29.4586 3 31.0255 4.50039 31.0255 6.35118Z" fill="current" stroke="current" />
</svg>
