<svg width="24" height="24" viewBox="0 0 39 40" fill="current" stroke="current" xmlns="http://www.w3.org/2000/svg">
<path d="M23.6623 9.06783C24.305 9.06783 24.8964 9.18667 25.4368 9.42443C27.0409 10.1975 27.988 11.6668 28 13.3052V24.591C27.6991 26.3851 25.5545 25.8973 25.5026 24.591V13.9346C25.3115 13.3269 24.086 13.5788 24.0567 13.9346V38.3941C23.7451 40.8917 20.3746 40.1585 20.2887 38.3521V23.3743C20.0732 22.4083 18.6548 22.8472 18.6237 23.4163C18.6839 28.3947 18.6675 33.3735 18.6675 38.3521C18.3314 40.8369 14.9773 40.2011 14.8995 38.3941L14.8557 13.9346C14.6593 13.34 13.5237 13.568 13.4974 13.9346V24.591C13.1965 26.3851 11.0519 25.8973 11 24.591V13.3052C11.0303 11.7367 11.6307 10.1653 13.0593 9.42443C13.5267 9.18667 14.0962 9.0678 14.768 9.0678L23.6623 9.06783ZM23.6182 3.94257C23.6182 6.12 21.7747 7.88517 19.5008 7.88517C17.2269 7.88517 15.3834 6.12 15.3834 3.94257C15.3834 1.76517 17.2268 0 19.5007 0C21.7747 0 23.6182 1.76517 23.6182 3.94257Z" fill="current" stroke="current" />
</svg>
