<svg width="24" height="24" viewBox="0 0 40 30" fill="current" stroke="current" xmlns="http://www.w3.org/2000/svg">
<path d="M9.49675 6.80088C9.97874 6.80088 10.4223 6.89 10.8276 7.06833C12.0306 7.64815 12.741 8.75013 12.75 9.97893V18.4433C12.5243 19.7889 10.9159 19.423 10.8769 18.4433V10.4509C10.7336 9.99515 9.81452 10.1841 9.79253 10.4509V28.7956C9.55884 30.6688 7.03098 30.1189 6.96652 28.7641V17.5308C6.80488 16.8062 5.7411 17.1354 5.71779 17.5622C5.7629 21.2961 5.75066 25.0301 5.75066 28.7641C5.49856 30.6277 2.983 30.1509 2.92462 28.7956L2.89178 10.4509C2.74445 10.005 1.8928 10.176 1.87306 10.4509V18.4433C1.64738 19.7889 0.0389535 19.423 0 18.4433V9.97893C0.0227403 8.80253 0.473003 7.624 1.54446 7.06833C1.89499 6.89 2.32217 6.80085 2.82604 6.80085L9.49675 6.80088ZM9.46362 2.95693C9.46362 4.59 8.08106 5.91388 6.37559 5.91388C4.67014 5.91388 3.28758 4.59 3.28758 2.95693C3.28755 1.32388 4.67012 0 6.37554 0C8.08106 0 9.46362 1.32388 9.46362 2.95693Z" fill="current" stroke="current" />
<path d="M22.9968 6.80088C23.4787 6.80088 23.9223 6.89 24.3276 7.06833C25.5306 7.64815 26.241 8.75013 26.25 9.97893V18.4433C26.0243 19.7889 24.4159 19.423 24.3769 18.4433V10.4509C24.2336 9.99515 23.3145 10.1841 23.2925 10.4509V28.7956C23.0588 30.6688 20.531 30.1189 20.4665 28.7641V17.5308C20.3049 16.8062 19.2411 17.1354 19.2178 17.5622C19.2629 21.2961 19.2507 25.0301 19.2507 28.7641C18.9986 30.6277 16.483 30.1509 16.4246 28.7956L16.3918 10.4509C16.2444 10.005 15.3928 10.176 15.3731 10.4509V18.4433C15.1474 19.7889 13.539 19.423 13.5 18.4433V9.97893C13.5227 8.80253 13.973 7.624 15.0445 7.06833C15.395 6.89 15.8222 6.80085 16.326 6.80085L22.9968 6.80088ZM22.9636 2.95693C22.9636 4.59 21.5811 5.91388 19.8756 5.91388C18.1701 5.91388 16.7876 4.59 16.7876 2.95693C16.7876 1.32388 18.1701 0 19.8755 0C21.5811 0 22.9636 1.32388 22.9636 2.95693Z" fill="current" stroke="current" />
<path d="M36.4968 6.80088C36.9787 6.80088 37.4223 6.89 37.8276 7.06833C39.0306 7.64815 39.741 8.75013 39.75 9.97893V18.4433C39.5243 19.7889 37.9159 19.423 37.8769 18.4433V10.4509C37.7336 9.99515 36.8145 10.1841 36.7925 10.4509V28.7956C36.5588 30.6688 34.031 30.1189 33.9665 28.7641V17.5308C33.8049 16.8062 32.7411 17.1354 32.7178 17.5622C32.7629 21.2961 32.7507 25.0301 32.7507 28.7641C32.4986 30.6277 29.983 30.1509 29.9246 28.7956L29.8918 10.4509C29.7444 10.005 28.8928 10.176 28.8731 10.4509V18.4433C28.6474 19.7889 27.039 19.423 27 18.4433V9.97893C27.0227 8.80253 27.473 7.624 28.5445 7.06833C28.895 6.89 29.3222 6.80085 29.826 6.80085L36.4968 6.80088ZM36.4636 2.95693C36.4636 4.59 35.0811 5.91388 33.3756 5.91388C31.6701 5.91388 30.2876 4.59 30.2876 2.95693C30.2876 1.32388 31.6701 0 33.3755 0C35.0811 0 36.4636 1.32388 36.4636 2.95693Z" fill="current" stroke="current" />
</svg>
