<svg width="19" height="19" viewBox="0 0 19 19" fill="none" xmlns="http://www.w3.org/2000/svg">
<path d="M2.75 0C2.02065 0 1.32118 0.289731 0.805456 0.805456C0.289731 1.32118 0 2.02065 0 2.75V15.25C0 15.9793 0.289731 16.6788 0.805456 17.1945C1.32118 17.7103 2.02065 18 2.75 18H6.999C6.99152 17.8004 7.0124 17.6007 7.061 17.407L7.288 16.5H4.5V11.25C4.5 11.0511 4.57902 10.8603 4.71967 10.7197C4.86032 10.579 5.05109 10.5 5.25 10.5H11.853L13.288 9.065C13.1119 9.02181 12.9313 8.99999 12.75 9H5.25C4.65326 9 4.08097 9.23705 3.65901 9.65901C3.23705 10.081 3 10.6533 3 11.25V16.5H2.75C2.06 16.5 1.5 15.94 1.5 15.25V2.75C1.5 2.06 2.06 1.5 2.75 1.5H4V4.25C4 4.54547 4.0582 4.83805 4.17127 5.11104C4.28434 5.38402 4.45008 5.63206 4.65901 5.84099C5.08097 6.26295 5.65326 6.5 6.25 6.5H10.75C11.0455 6.5 11.3381 6.4418 11.611 6.32873C11.884 6.21566 12.1321 6.04992 12.341 5.84099C12.5499 5.63206 12.7157 5.38402 12.8287 5.11104C12.9418 4.83805 13 4.54547 13 4.25V1.523C13.358 1.583 13.692 1.753 13.952 2.013L15.987 4.048C16.316 4.376 16.5 4.821 16.5 5.286V7.007C16.57 7.002 16.642 7 16.713 7H16.715C17.152 7 17.59 7.087 18 7.261V5.287C18.0001 4.86004 17.9161 4.43725 17.7527 4.04278C17.5894 3.64831 17.3499 3.28989 17.048 2.988L15.013 0.953C14.7112 0.650904 14.3528 0.411247 13.9583 0.247725C13.5639 0.0842044 13.141 2.54323e-05 12.714 0H2.75ZM5.5 4.25V1.5H11.5V4.25C11.5 4.44891 11.421 4.63968 11.2803 4.78033C11.1397 4.92098 10.9489 5 10.75 5H6.25C6.05109 5 5.86032 4.92098 5.71967 4.78033C5.57902 4.63968 5.5 4.44891 5.5 4.25Z" fill="white"/>
<path d="M16.7155 8H16.7135C16.1285 8 15.5435 8.223 15.0985 8.67L9.19649 14.572C8.85212 14.9159 8.60774 15.3469 8.48949 15.819L8.03149 17.65C7.98594 17.8322 7.98836 18.023 8.03852 18.204C8.08867 18.385 8.18486 18.5498 8.31769 18.6826C8.45052 18.8153 8.61548 18.9114 8.79647 18.9614C8.97747 19.0114 9.16834 19.0137 9.35049 18.968L11.1805 18.511C11.6529 18.3929 12.0843 18.1485 12.4285 17.804L18.3305 11.902C18.6504 11.5825 18.8684 11.1754 18.9569 10.732C19.0453 10.2886 19.0002 9.82891 18.8273 9.41115C18.6544 8.99339 18.3615 8.63632 17.9855 8.38512C17.6096 8.13392 17.1676 7.9999 16.7155 8Z" fill="white"/>
</svg>
