<svg width="30" height="30" viewBox="0 0 30 30" fill="none" xmlns="http://www.w3.org/2000/svg">
<path d="M10.5242 27.6379C10.6386 27.762 10.6994 27.9261 10.6934 28.0947C10.6875 28.2634 10.6152 28.4228 10.4924 28.5385L9.11106 29.8301C8.98771 29.9447 8.82392 30.0057 8.65567 29.9996C8.48742 29.9935 8.32846 29.9209 8.21371 29.7977L0.169376 21.1282C0.0550605 21.0041 -0.00565783 20.8399 0.000415421 20.6713C0.00648867 20.5026 0.0788627 20.3432 0.20181 20.2277L1.58504 18.9379C1.64607 18.8811 1.71771 18.8369 1.79584 18.8078C1.87398 18.7786 1.9571 18.7652 2.04043 18.7682C2.12377 18.7712 2.20569 18.7906 2.28152 18.8253C2.35736 18.86 2.42561 18.9093 2.48238 18.9704L10.5242 27.6379ZM20.7887 11.3254C20.903 11.4495 20.9637 11.6137 20.9576 11.7824C20.9515 11.951 20.8792 12.1104 20.7562 12.226L12.0626 20.3472C11.9392 20.4618 11.7754 20.5228 11.6072 20.5167C11.4389 20.5106 11.28 20.438 11.1652 20.3148L9.09007 18.0756C8.97575 17.9515 8.91504 17.7873 8.92111 17.6186C8.92718 17.45 8.99956 17.2906 9.1225 17.175L17.8142 9.05376C17.8752 8.99696 17.9468 8.95274 18.0249 8.92362C18.103 8.89451 18.186 8.88107 18.2693 8.88409C18.3526 8.8871 18.4345 8.9065 18.5103 8.94118C18.586 8.97586 18.6542 9.02514 18.711 9.08619L20.7887 11.3254ZM13.482 24.8734C13.7199 25.1297 13.7053 25.5348 13.4496 25.7739L12.0664 27.0649C12.0054 27.1218 11.9337 27.166 11.8556 27.1951C11.7774 27.2242 11.6943 27.2377 11.611 27.2347C11.5277 27.2317 11.4457 27.2123 11.3699 27.1776C11.2941 27.1429 11.2258 27.0936 11.169 27.0325L3.12916 18.363C3.01477 18.239 2.95393 18.0748 2.95989 17.9062C2.96584 17.7376 3.0381 17.5781 3.16096 17.4625L4.54164 16.1721C4.66499 16.0575 4.82877 15.9966 4.99703 16.0027C5.16528 16.0087 5.32424 16.0814 5.43899 16.2046L13.482 24.8734ZM26.8774 11.6364C26.9916 11.7606 27.0522 11.9249 27.046 12.0935C27.0399 12.2621 26.9674 12.4215 26.8443 12.5369L25.4617 13.828C25.3384 13.9427 25.1745 14.0037 25.0062 13.9978C24.8378 13.9918 24.6787 13.9193 24.5638 13.7962L16.5226 5.12858C16.4081 5.00463 16.3471 4.84044 16.3531 4.67177C16.359 4.5031 16.4314 4.34361 16.5544 4.22805L17.9408 2.93386C18.0018 2.87706 18.0734 2.83284 18.1515 2.80373C18.2295 2.77461 18.3126 2.76118 18.3959 2.76419C18.4792 2.7672 18.561 2.7866 18.6368 2.82128C18.7126 2.85596 18.7808 2.90524 18.8375 2.9663L26.8774 11.6364ZM29.8308 8.87633C29.945 9.00061 30.0057 9.16489 29.9996 9.33357C29.9935 9.50224 29.9212 9.66173 29.7984 9.77749L28.4183 11.0679C28.3574 11.1247 28.2859 11.169 28.2078 11.1981C28.1297 11.2273 28.0467 11.2408 27.9634 11.2378C27.8801 11.2349 27.7982 11.2156 27.7224 11.1809C27.6466 11.1463 27.5784 11.0971 27.5216 11.0361L19.4818 2.36468C19.3675 2.24047 19.3067 2.07624 19.3127 1.90757C19.3186 1.73889 19.3908 1.57935 19.5135 1.46351L20.8949 0.170595C20.9557 0.113695 21.0272 0.0693708 21.1052 0.0401642C21.1832 0.0109575 21.2663 -0.0025563 21.3495 0.000398068C21.4328 0.00335244 21.5146 0.0227168 21.5904 0.0573802C21.6661 0.0920436 21.7343 0.141324 21.7909 0.202393L29.8308 8.87633Z" fill="#4D5E3B"/>
</svg>
