<svg width="20" height="23" viewBox="0 0 20 23" fill="none" xmlns="http://www.w3.org/2000/svg">
<path d="M1.11111 22.2222H18.8889C19.1836 22.2222 19.4662 22.1052 19.6746 21.8968C19.8829 21.6884 20 21.4058 20 21.1111V3.33333C20 1.49556 18.5044 0 16.6667 0H3.33333C1.49556 0 0 1.49556 0 3.33333V21.1111C0 21.4058 0.117063 21.6884 0.325437 21.8968C0.533811 22.1052 0.816426 22.2222 1.11111 22.2222ZM16.6667 2.13778C16.8126 2.13778 16.9571 2.16652 17.0919 2.22236C17.2267 2.27819 17.3492 2.36004 17.4523 2.46321C17.5555 2.56639 17.6374 2.68888 17.6932 2.82368C17.749 2.95849 17.7778 3.10298 17.7778 3.24889C17.7778 3.3948 17.749 3.53929 17.6932 3.67409C17.6374 3.8089 17.5555 3.93139 17.4523 4.03456C17.3492 4.13774 17.2267 4.21958 17.0919 4.27542C16.9571 4.33126 16.8126 4.36 16.6667 4.36C16.372 4.36 16.0894 4.24294 15.881 4.03456C15.6726 3.82619 15.5556 3.54357 15.5556 3.24889C15.5556 2.9542 15.6726 2.67159 15.881 2.46321C16.0894 2.25484 16.372 2.13778 16.6667 2.13778ZM13.3333 2.13778C13.4792 2.13778 13.6237 2.16652 13.7585 2.22236C13.8933 2.27819 14.0158 2.36004 14.119 2.46321C14.2222 2.56639 14.304 2.68888 14.3599 2.82368C14.4157 2.95849 14.4444 3.10298 14.4444 3.24889C14.4444 3.3948 14.4157 3.53929 14.3599 3.67409C14.304 3.8089 14.2222 3.93139 14.119 4.03456C14.0158 4.13774 13.8933 4.21958 13.7585 4.27542C13.6237 4.33126 13.4792 4.36 13.3333 4.36C13.0386 4.36 12.756 4.24294 12.5477 4.03456C12.3393 3.82619 12.2222 3.54357 12.2222 3.24889C12.2222 2.9542 12.3393 2.67159 12.5477 2.46321C12.756 2.25484 13.0386 2.13778 13.3333 2.13778ZM10 5.55556C13.6767 5.55556 16.6667 8.54556 16.6667 12.2222C16.6667 15.8989 13.6767 18.8889 10 18.8889C6.32333 18.8889 3.33333 15.8989 3.33333 12.2222C3.33333 8.54556 6.32333 5.55556 10 5.55556Z" fill="#4D5E3B"/>
<path d="M10.8511 16.5871C12.4056 16.2971 13.7078 15.126 14.21 13.626C14.5737 12.5732 14.5127 11.4201 14.04 10.4115C13.9882 10.3006 13.9 10.2108 13.79 10.157C13.68 10.1032 13.5549 10.0887 13.4356 10.116C12.7645 10.2815 12.3033 10.6137 11.7689 11.006C10.8956 11.6471 9.80779 12.4437 7.77779 12.4437C6.87445 12.4437 6.16667 12.2815 5.57334 12.0504L5.5589 12.0604C5.5354 12.7292 5.66302 13.3948 5.93227 14.0074C6.20151 14.6201 6.60545 15.1642 7.11403 15.5992C7.62261 16.0342 8.22273 16.349 8.86974 16.52C9.51676 16.691 10.194 16.714 10.8511 16.5871Z" fill="#4D5E3B"/>
</svg>
