<svg width="30" height="26" viewBox="0 0 30 26" fill="none" xmlns="http://www.w3.org/2000/svg">
<path d="M6.23438 12.9997C7.91712 12.9997 9.28125 11.7872 9.28125 10.2914C9.28125 8.79563 7.91712 7.58307 6.23438 7.58307C4.55163 7.58307 3.1875 8.79563 3.1875 10.2914C3.1875 11.7872 4.55163 12.9997 6.23438 12.9997Z" fill="#4D5E3B"/>
<path d="M11.7187 8.66667C13.4015 8.66667 14.7656 7.4541 14.7656 5.95833C14.7656 4.46256 13.4015 3.25 11.7187 3.25C10.036 3.25 8.67188 4.46256 8.67188 5.95833C8.67188 7.4541 10.036 8.66667 11.7187 8.66667Z" fill="#4D5E3B"/>
<path d="M19.0312 8.66667C20.714 8.66667 22.0781 7.4541 22.0781 5.95833C22.0781 4.46256 20.714 3.25 19.0312 3.25C17.3485 3.25 15.9844 4.46256 15.9844 5.95833C15.9844 7.4541 17.3485 8.66667 19.0312 8.66667Z" fill="#4D5E3B"/>
<path d="M24.5156 12.9997C26.1984 12.9997 27.5625 11.7872 27.5625 10.2914C27.5625 8.79563 26.1984 7.58307 24.5156 7.58307C22.8329 7.58307 21.4688 8.79563 21.4688 10.2914C21.4688 11.7872 22.8329 12.9997 24.5156 12.9997Z" fill="#4D5E3B"/>
<path d="M21.8832 16.0983C20.8229 14.9933 19.9332 14.0508 18.8607 12.9458C18.3001 12.3608 17.581 11.7758 16.7279 11.5158C16.5938 11.4725 16.4598 11.44 16.3257 11.4183C16.021 11.375 15.692 11.375 15.3751 11.375C15.0582 11.375 14.7292 11.375 14.4123 11.4292C14.2782 11.4508 14.1442 11.4833 14.0101 11.5267C13.157 11.7867 12.4501 12.3717 11.8773 12.9567C10.817 14.0617 9.92729 15.0042 8.85479 16.1092C7.25822 17.5283 5.29604 19.0992 5.66166 21.2983C6.0151 22.4033 6.90479 23.4975 8.50135 23.8117C9.39104 23.9742 12.2307 23.335 15.2532 23.335H15.4726C18.4951 23.335 21.3348 23.9633 22.2245 23.8117C23.821 23.4975 24.7107 22.3925 25.0642 21.2983C25.442 19.0883 23.4798 17.5175 21.8832 16.0983Z" fill="#4D5E3B"/>
</svg>
