<svg width="68" height="31" viewBox="0 0 68 31" fill="none" xmlns="http://www.w3.org/2000/svg">
<rect x="1.5" y="1.5" width="64.4024" height="26.8343" rx="8.5" fill="white" stroke="#0A9F6D" stroke-width="3"/>
<path d="M16.2083 22.1182C15.0189 22.1182 13.9495 21.9131 13.0003 21.5029C12.0569 21.0869 11.3099 20.4805 10.7591 19.6836C10.2142 18.8867 9.94171 17.9082 9.94171 16.748C9.94171 15.793 10.1234 14.9082 10.4866 14.0938C10.8499 13.2734 11.3216 12.5527 11.9017 11.9316C12.4818 11.3047 13.0941 10.8008 13.7386 10.4199C14.9866 9.6875 16.3431 9.32129 17.8079 9.32129C18.3997 9.32129 19.0091 9.37988 19.636 9.49707C19.7884 9.52637 19.8997 9.59375 19.97 9.69922C20.0403 9.80469 20.0755 9.91895 20.0755 10.042C20.0755 10.1885 20.0286 10.3232 19.9349 10.4463C19.847 10.5635 19.7181 10.6221 19.5482 10.6221C19.5071 10.6221 19.4661 10.6191 19.4251 10.6133C18.8802 10.5078 18.3499 10.4551 17.8343 10.4551C16.5628 10.4551 15.388 10.7715 14.3099 11.4043C13.7708 11.7207 13.2552 12.1455 12.763 12.6787C12.2708 13.2061 11.8665 13.8154 11.5501 14.5068C11.2337 15.1924 11.0755 15.9307 11.0755 16.7217C11.0755 17.6768 11.3011 18.4707 11.7523 19.1035C12.2034 19.7305 12.8157 20.1992 13.5892 20.5098C14.3685 20.8203 15.2474 20.9756 16.2259 20.9756C17.1985 20.9756 18.2943 20.832 19.513 20.5449C19.5599 20.5332 19.6068 20.5273 19.6536 20.5273C19.8235 20.5273 19.9583 20.5918 20.0579 20.7207C20.1575 20.8438 20.2073 20.9785 20.2073 21.125C20.2073 21.2422 20.1722 21.3506 20.1019 21.4502C20.0316 21.5498 19.9232 21.6172 19.7767 21.6523C18.4642 21.9629 17.2747 22.1182 16.2083 22.1182ZM30.204 9.19824C30.3446 9.19824 30.4735 9.25684 30.5907 9.37402C30.7079 9.48535 30.7665 9.61426 30.7665 9.76074L30.8808 21.6611C30.8808 21.8428 30.8193 21.9805 30.6962 22.0742C30.579 22.168 30.4501 22.2148 30.3095 22.2148C30.1689 22.2148 30.037 22.168 29.914 22.0742C29.7968 21.9863 29.7382 21.8516 29.7382 21.6699L29.6855 16.3965L24.078 16.3262L24.1308 21.7666C24.1308 21.9541 24.0693 22.0947 23.9462 22.1885C23.829 22.2822 23.6972 22.3291 23.5507 22.3291C23.4101 22.3291 23.2812 22.2822 23.164 22.1885C23.0468 22.1006 22.9882 21.9658 22.9882 21.7842L22.8739 9.88379C22.8739 9.70215 22.9325 9.56445 23.0497 9.4707C23.1728 9.37695 23.3046 9.33008 23.4452 9.33008C23.5859 9.33008 23.7148 9.37695 23.8319 9.4707C23.955 9.55859 24.0165 9.69336 24.0165 9.875L24.0693 15.1836L29.6767 15.2539C29.6708 14.3398 29.662 13.4258 29.6503 12.5117C29.6444 11.5977 29.6357 10.6836 29.6239 9.76953C29.6239 9.61719 29.6825 9.48535 29.7997 9.37402C29.9169 9.25684 30.0517 9.19824 30.204 9.19824ZM34.0835 22.2939C33.9487 22.2939 33.8198 22.2354 33.6968 22.1182C33.5737 22.0068 33.5181 21.8809 33.5298 21.7402C33.7407 18.9102 34.1948 16.3643 34.8921 14.1025C35.5894 11.8525 36.4214 10.3613 37.3882 9.62891C37.7866 9.33008 38.1734 9.18066 38.5484 9.18066C39.6148 9.18066 40.6138 10.3584 41.5454 12.7139C42.3599 14.7822 43.0689 17.4951 43.6724 20.8525L43.813 21.626C43.8189 21.6611 43.8218 21.6934 43.8218 21.7227C43.8218 21.8984 43.7573 22.0332 43.6284 22.127C43.5054 22.2266 43.3706 22.2764 43.2241 22.2764C43.1011 22.2764 42.9868 22.2383 42.8814 22.1621C42.7759 22.0918 42.7085 21.9775 42.6792 21.8193L42.5474 21.0547C42.4126 20.2988 42.272 19.5781 42.1255 18.8926C41.979 18.2012 41.8267 17.5449 41.6685 16.9238H35.3667C35.021 18.6348 34.7896 20.252 34.6724 21.7754C34.6607 21.9277 34.5962 22.0508 34.479 22.1445C34.3618 22.2441 34.23 22.2939 34.0835 22.2939ZM35.6216 15.7812H41.3696C40.7134 13.4434 40.0337 11.832 39.3306 10.9473C39.1665 10.7363 39.0025 10.584 38.8384 10.4902C38.686 10.4082 38.5747 10.3701 38.5044 10.376C38.1294 10.4229 37.7603 10.7188 37.397 11.2637C36.6939 12.3184 36.1021 13.8242 35.6216 15.7812ZM51.8321 22.1797C51.6798 22.1797 51.545 22.1211 51.4278 22.0039C51.3165 21.8926 51.2609 21.7607 51.2609 21.6084V10.3936L47.0421 10.376C46.8605 10.376 46.7228 10.3174 46.629 10.2002C46.5353 10.0771 46.4884 9.94531 46.4884 9.80469C46.4884 9.6582 46.5353 9.52637 46.629 9.40918C46.7228 9.29199 46.8605 9.2334 47.0421 9.2334L56.3585 9.26855C56.5401 9.26855 56.6749 9.32715 56.7628 9.44434C56.8566 9.56152 56.9034 9.69336 56.9034 9.83984C56.9034 9.98047 56.8566 10.1123 56.7628 10.2354C56.6749 10.3525 56.5372 10.4111 56.3497 10.4111C55.6935 10.4053 55.0372 10.4053 54.381 10.4111C53.7247 10.4111 53.0655 10.4082 52.4034 10.4023V21.6084C52.4034 21.7607 52.3448 21.8926 52.2276 22.0039C52.1163 22.1211 51.9845 22.1797 51.8321 22.1797Z" fill="#0A9F6D"/>
<path d="M13.0003 21.5029L12.5968 22.4179L12.6037 22.4209L13.0003 21.5029ZM10.7591 19.6836L9.93363 20.2481L9.93647 20.2522L10.7591 19.6836ZM10.4866 14.0938L11.3999 14.5011L11.401 14.4987L10.4866 14.0938ZM11.9017 11.9316L12.6325 12.6142L12.6357 12.6108L11.9017 11.9316ZM13.7386 10.4199L13.2324 9.55746L13.2299 9.559L13.7386 10.4199ZM19.636 9.49707L19.8249 8.51505L19.8198 8.51409L19.636 9.49707ZM19.9349 10.4463L19.1394 9.84023L19.1349 9.84629L19.9349 10.4463ZM19.4251 10.6133L19.2351 11.5951L19.2593 11.5997L19.2837 11.6032L19.4251 10.6133ZM12.763 12.6787L13.4941 13.361L13.4978 13.357L12.763 12.6787ZM11.5501 14.5068L12.4581 14.9259L12.4594 14.923L11.5501 14.5068ZM11.7523 19.1035L10.938 19.684L10.9406 19.6876L11.7523 19.1035ZM13.5892 20.5098L13.2166 21.4378L13.219 21.4387L13.5892 20.5098ZM19.513 20.5449L19.7423 21.5184L19.7555 21.5151L19.513 20.5449ZM20.0579 20.7207L19.2666 21.3322L19.2736 21.3411L19.2807 21.3499L20.0579 20.7207ZM19.7767 21.6523L20.0069 22.6255L20.01 22.6247L19.7767 21.6523ZM16.2083 21.1182C15.1349 21.1182 14.2035 20.9335 13.397 20.585L12.6037 22.4209C13.6955 22.8927 14.9028 23.1182 16.2083 23.1182V21.1182ZM13.4038 20.5879C12.6181 20.2415 12.0206 19.75 11.5817 19.115L9.93647 20.2522C10.5991 21.2109 11.4958 21.9324 12.5968 22.4179L13.4038 20.5879ZM11.5846 19.1191C11.1746 18.5197 10.9417 17.7481 10.9417 16.748H8.94171C8.94171 18.0683 9.25372 19.2538 9.93364 20.2481L11.5846 19.1191ZM10.9417 16.748C10.9417 15.9232 11.0978 15.1784 11.3999 14.5011L9.57336 13.6864C9.14892 14.638 8.94171 15.6627 8.94171 16.748H10.9417ZM11.401 14.4987C11.7216 13.7748 12.1328 13.1492 12.6325 12.6142L11.1708 11.2491C10.5104 11.9563 9.97827 12.7721 9.57228 13.6888L11.401 14.4987ZM12.6357 12.6108C13.159 12.0452 13.6971 11.606 14.2473 11.2808L13.2299 9.559C12.491 9.99559 11.8045 10.5642 11.1677 11.2525L12.6357 12.6108ZM14.2447 11.2824C15.3373 10.6412 16.5187 10.3213 17.8079 10.3213V8.32129C16.1674 8.32129 14.6359 8.73383 13.2325 9.55747L14.2447 11.2824ZM17.8079 10.3213C18.3335 10.3213 18.8813 10.3733 19.4523 10.48L19.8198 8.51409C19.1369 8.38645 18.4659 8.32129 17.8079 8.32129V10.3213ZM19.4472 10.4791C19.4289 10.4756 19.379 10.4632 19.316 10.4251C19.2496 10.3849 19.1864 10.3266 19.138 10.2539L20.8021 9.14452C20.5512 8.76816 20.1774 8.58286 19.8249 8.51506L19.4472 10.4791ZM19.138 10.2539C19.1228 10.2311 19.1059 10.1988 19.0934 10.1581C19.0808 10.1172 19.0755 10.0772 19.0755 10.042H21.0755C21.0755 9.7153 20.9784 9.409 20.8021 9.14452L19.138 10.2539ZM19.0755 10.042C19.0755 10.0064 19.0816 9.96548 19.0958 9.92441C19.1099 9.88394 19.1277 9.85572 19.1394 9.84025L20.7303 11.0523C20.9488 10.7656 21.0755 10.4202 21.0755 10.042H19.0755ZM19.1349 9.84629C19.188 9.77549 19.2648 9.71033 19.3585 9.66776C19.4473 9.62737 19.5185 9.62207 19.5482 9.62207V11.6221C19.9756 11.6221 20.4263 11.4578 20.7349 11.0463L19.1349 9.84629ZM19.5482 9.62207C19.5549 9.62207 19.5612 9.62257 19.5665 9.62333L19.2837 11.6032C19.3711 11.6157 19.4593 11.6221 19.5482 11.6221V9.62207ZM19.6151 9.6315C19.0123 9.51483 18.4183 9.45508 17.8343 9.45508V11.4551C18.2815 11.4551 18.7481 11.5008 19.2351 11.5951L19.6151 9.6315ZM17.8343 9.45508C16.388 9.45508 15.038 9.81738 13.8037 10.5419L14.8161 12.2667C15.738 11.7256 16.7376 11.4551 17.8343 11.4551V9.45508ZM13.8037 10.5419C13.1674 10.9153 12.5766 11.4063 12.0282 12.0004L13.4978 13.357C13.9337 12.8847 14.3742 12.5261 14.8161 12.2667L13.8037 10.5419ZM12.0319 11.9964C11.4625 12.6065 10.9995 13.3069 10.6408 14.0907L12.4594 14.923C12.7335 14.324 13.0791 13.8056 13.4941 13.361L12.0319 11.9964ZM10.6422 14.0878C10.2622 14.911 10.0755 15.793 10.0755 16.7217H12.0755C12.0755 16.0683 12.2052 15.4738 12.4581 14.9259L10.6422 14.0878ZM10.0755 16.7217C10.0755 17.8365 10.3407 18.8462 10.938 19.684L12.5665 18.523C12.2615 18.0952 12.0755 17.517 12.0755 16.7217H10.0755ZM10.9406 19.6876C11.5113 20.4807 12.2816 21.0624 13.2166 21.4378L13.9618 19.5818C13.3499 19.3361 12.8955 18.9802 12.5639 18.5194L10.9406 19.6876ZM13.219 21.4387C14.1339 21.8033 15.1414 21.9756 16.2259 21.9756V19.9756C15.3534 19.9756 14.603 19.8373 13.9594 19.5808L13.219 21.4387ZM16.2259 21.9756C17.2941 21.9756 18.4687 21.8183 19.7423 21.5183L19.2837 19.5716C18.1198 19.8457 17.103 19.9756 16.2259 19.9756V21.9756ZM19.7555 21.5151C19.7255 21.5226 19.691 21.5273 19.6536 21.5273V19.5273C19.5225 19.5273 19.3942 19.5438 19.2705 19.5748L19.7555 21.5151ZM19.6536 21.5273C19.6098 21.5273 19.5354 21.5183 19.4507 21.4778C19.3646 21.4366 19.3036 21.38 19.2666 21.3322L20.8492 20.1093C20.5509 19.7233 20.1177 19.5273 19.6536 19.5273V21.5273ZM19.2807 21.3499C19.2688 21.3352 19.2485 21.3055 19.232 21.2607C19.2151 21.2149 19.2073 21.1677 19.2073 21.125H21.2073C21.2073 20.7304 21.0664 20.3772 20.8352 20.0915L19.2807 21.3499ZM19.2073 21.125C19.2073 21.0818 19.2141 21.0339 19.2297 20.9857C19.2453 20.9378 19.2661 20.9001 19.2849 20.8735L20.9188 22.0269C21.1031 21.7658 21.2073 21.4574 21.2073 21.125H19.2073ZM19.2849 20.8735C19.3305 20.8089 19.3859 20.7597 19.4399 20.7262C19.4914 20.6942 19.5307 20.683 19.5433 20.68L20.01 22.6247C20.3348 22.5468 20.6776 22.3686 20.9188 22.0269L19.2849 20.8735ZM19.5464 20.6792C18.2905 20.9764 17.1799 21.1182 16.2083 21.1182V23.1182C17.3695 23.1182 18.6378 22.9494 20.0069 22.6255L19.5464 20.6792ZM30.5907 9.37402L29.8836 10.0811L29.8927 10.0902L29.902 10.099L30.5907 9.37402ZM30.7665 9.76074H29.7665L29.7666 9.77034L30.7665 9.76074ZM30.8808 21.6611H31.8808L31.8807 21.6515L30.8808 21.6611ZM30.6962 22.0742L30.0902 21.2788L30.0807 21.286L30.0715 21.2934L30.6962 22.0742ZM29.914 22.0742L30.52 21.2788L30.514 21.2742L29.914 22.0742ZM29.7382 21.6699H30.7382L30.7381 21.6599L29.7382 21.6699ZM29.6855 16.3965L30.6854 16.3865L30.6756 15.4088L29.698 15.3966L29.6855 16.3965ZM24.078 16.3262L24.0906 15.3263L23.0682 15.3134L23.0781 16.3359L24.078 16.3262ZM24.1308 21.7666H25.1308L25.1307 21.7569L24.1308 21.7666ZM23.9462 22.1885L23.3402 21.393L23.3307 21.4002L23.3215 21.4076L23.9462 22.1885ZM23.164 22.1885L23.7887 21.4076L23.7765 21.3978L23.764 21.3885L23.164 22.1885ZM22.9882 21.7842H23.9882L23.9881 21.7746L22.9882 21.7842ZM22.8739 9.88379H21.8739L21.874 9.89339L22.8739 9.88379ZM23.0497 9.4707L22.4437 8.67527L22.4343 8.68244L22.425 8.68983L23.0497 9.4707ZM23.8319 9.4707L23.2073 10.2516L23.2285 10.2686L23.2507 10.2844L23.8319 9.4707ZM24.0165 9.875H23.0165L23.0166 9.88493L24.0165 9.875ZM24.0693 15.1836L23.0693 15.1935L23.079 16.1713L24.0567 16.1835L24.0693 15.1836ZM29.6767 15.2539L29.6641 16.2538L30.6832 16.2666L30.6767 15.2475L29.6767 15.2539ZM29.6503 12.5117L28.6503 12.5181L28.6504 12.5245L29.6503 12.5117ZM29.6239 9.76953H28.6239L28.624 9.78235L29.6239 9.76953ZM29.7997 9.37402L30.4885 10.099L30.4978 10.0902L30.5068 10.0811L29.7997 9.37402ZM30.204 10.1982C30.1306 10.1982 30.0569 10.1819 29.9924 10.1526C29.9308 10.1246 29.8956 10.0932 29.8836 10.0811L31.2978 8.66692C31.0292 8.39823 30.6568 8.19824 30.204 8.19824V10.1982ZM29.902 10.099C29.8805 10.0786 29.8431 10.0359 29.8122 9.968C29.7804 9.89798 29.7665 9.8252 29.7665 9.76074H31.7665C31.7665 9.31027 31.5726 8.92753 31.2795 8.64902L29.902 10.099ZM29.7666 9.77034L29.8808 21.6707L31.8807 21.6515L31.7665 9.75114L29.7666 9.77034ZM29.8808 21.6611C29.8808 21.6396 29.8846 21.5757 29.9216 21.4927C29.9609 21.4047 30.0221 21.3306 30.0902 21.2788L31.3022 22.8697C31.7186 22.5524 31.8808 22.0935 31.8808 21.6611H29.8808ZM30.0715 21.2934C30.09 21.2786 30.1228 21.257 30.1699 21.2399C30.2177 21.2225 30.2662 21.2148 30.3095 21.2148V23.2148C30.693 23.2148 31.0392 23.0805 31.3209 22.8551L30.0715 21.2934ZM30.3095 21.2148C30.3527 21.2148 30.398 21.2225 30.4401 21.2375C30.4813 21.2521 30.5079 21.2696 30.52 21.2788L29.3079 22.8697C29.5867 23.0821 29.9278 23.2148 30.3095 23.2148V21.2148ZM30.514 21.2742C30.5945 21.3346 30.6596 21.4174 30.6992 21.5085C30.7359 21.5929 30.7382 21.655 30.7382 21.6699H28.7382C28.7382 22.0823 28.8846 22.5522 29.314 22.8742L30.514 21.2742ZM30.7381 21.6599L30.6854 16.3865L28.6855 16.4065L28.7382 21.6799L30.7381 21.6599ZM29.698 15.3966L24.0906 15.3263L24.0655 17.3261L29.6729 17.3964L29.698 15.3966ZM23.0781 16.3359L23.1308 21.7763L25.1307 21.7569L25.078 16.3165L23.0781 16.3359ZM23.1308 21.7666C23.1308 21.7522 23.1331 21.6927 23.1685 21.6119C23.2064 21.5252 23.2676 21.4484 23.3402 21.393L24.5522 22.9839C24.977 22.6603 25.1308 22.1922 25.1308 21.7666H23.1308ZM23.3215 21.4076C23.3435 21.39 23.3781 21.3682 23.4244 21.3517C23.471 21.3352 23.5152 21.3291 23.5507 21.3291V23.3291C23.9302 23.3291 24.2811 23.2012 24.5709 22.9693L23.3215 21.4076ZM23.5507 21.3291C23.5939 21.3291 23.6424 21.3367 23.6903 21.3542C23.7374 21.3713 23.7702 21.3928 23.7887 21.4076L22.5393 22.9693C22.821 23.1947 23.1672 23.3291 23.5507 23.3291V21.3291ZM23.764 21.3885C23.8445 21.4489 23.9096 21.5317 23.9492 21.6228C23.9859 21.7072 23.9882 21.7693 23.9882 21.7842H21.9882C21.9882 22.1966 22.1346 22.6664 22.564 22.9885L23.764 21.3885ZM23.9881 21.7746L23.8739 9.87419L21.874 9.89339L21.9882 21.7938L23.9881 21.7746ZM23.8739 9.88379C23.8739 9.89944 23.8714 9.95741 23.838 10.0358C23.8024 10.1197 23.7446 10.1954 23.6744 10.2516L22.425 8.68983C22.0204 9.01357 21.8739 9.46917 21.8739 9.88379H23.8739ZM23.6558 10.2661C23.6437 10.2753 23.6171 10.2928 23.5759 10.3074C23.5337 10.3224 23.4885 10.3301 23.4452 10.3301V8.33008C23.0636 8.33008 22.7225 8.46286 22.4437 8.67527L23.6558 10.2661ZM23.4452 10.3301C23.402 10.3301 23.3535 10.3224 23.3056 10.305C23.2586 10.2879 23.2257 10.2663 23.2073 10.2516L24.4566 8.68983C24.1749 8.46446 23.8288 8.33008 23.4452 8.33008V10.3301ZM23.2507 10.2844C23.1728 10.2288 23.1042 10.1483 23.0607 10.053C23.0201 9.96399 23.0165 9.89582 23.0165 9.875H25.0165C25.0165 9.44409 24.8537 8.97166 24.4132 8.65697L23.2507 10.2844ZM23.0166 9.88493L23.0693 15.1935L25.0692 15.1737L25.0165 9.86507L23.0166 9.88493ZM24.0567 16.1835L29.6641 16.2538L29.6892 14.254L24.0818 14.1837L24.0567 16.1835ZM30.6767 15.2475C30.6708 14.3313 30.662 13.4151 30.6502 12.4989L28.6504 12.5245C28.6621 13.4365 28.6708 14.3484 28.6767 15.2603L30.6767 15.2475ZM30.6503 12.5053C30.6444 11.5891 30.6356 10.6729 30.6239 9.75671L28.624 9.78235C28.6357 10.6943 28.6445 11.6062 28.6503 12.5181L30.6503 12.5053ZM30.6239 9.76953C30.6239 9.8253 30.6124 9.8935 30.5817 9.96253C30.5516 10.0303 30.5137 10.0751 30.4885 10.099L29.111 8.64902C28.8086 8.93626 28.6239 9.32491 28.6239 9.76953H30.6239ZM30.5068 10.0811C30.488 10.1 30.4488 10.1325 30.3874 10.1593C30.3243 10.1867 30.2599 10.1982 30.204 10.1982V8.19824C29.7618 8.19824 29.3792 8.38035 29.0926 8.66692L30.5068 10.0811ZM33.6968 22.1182L34.3864 21.394L34.3772 21.3852L34.3677 21.3766L33.6968 22.1182ZM33.5298 21.7402L34.5264 21.8233L34.527 21.8146L33.5298 21.7402ZM34.8921 14.1025L33.9369 13.8065L33.9365 13.8079L34.8921 14.1025ZM37.3882 9.62891L36.7882 8.8289L36.7843 8.83181L37.3882 9.62891ZM41.5454 12.7139L42.4759 12.3475L42.4753 12.3461L41.5454 12.7139ZM43.6724 20.8525L42.6881 21.0295L42.6885 21.0314L43.6724 20.8525ZM43.813 21.626L44.7994 21.4616L44.7982 21.4543L44.7969 21.4471L43.813 21.626ZM43.6284 22.127L43.0403 21.3182L43.0193 21.3334L42.9992 21.3497L43.6284 22.127ZM42.8814 22.1621L43.4669 21.3514L43.4517 21.3405L43.4361 21.3301L42.8814 22.1621ZM42.6792 21.8193L41.6937 21.9893L41.6959 22.0014L42.6792 21.8193ZM42.5474 21.0547L43.5329 20.8848L43.5318 20.8792L42.5474 21.0547ZM42.1255 18.8926L41.1472 19.0998L41.1476 19.1015L42.1255 18.8926ZM41.6685 16.9238L42.6375 16.677L42.4457 15.9238H41.6685V16.9238ZM35.3667 16.9238V15.9238H34.5486L34.3865 16.7258L35.3667 16.9238ZM34.479 22.1445L33.8543 21.3637L33.8427 21.373L33.8314 21.3826L34.479 22.1445ZM35.6216 15.7812L34.6504 15.5428L34.3464 16.7812H35.6216V15.7812ZM41.3696 15.7812V16.7812H42.689L42.3324 15.511L41.3696 15.7812ZM39.3306 10.9473L38.5412 11.5612L38.5477 11.5694L39.3306 10.9473ZM38.8384 10.4902L39.3345 9.62199L39.3236 9.61574L39.3125 9.60976L38.8384 10.4902ZM38.5044 10.376L38.4214 9.37943L38.4008 9.38114L38.3804 9.3837L38.5044 10.376ZM37.397 11.2637L36.5649 10.709L37.397 11.2637ZM34.0835 21.2939C34.1661 21.2939 34.2408 21.3129 34.2996 21.3396C34.3548 21.3648 34.3828 21.3905 34.3864 21.394L33.0071 22.8423C33.2654 23.0883 33.6296 23.2939 34.0835 23.2939V21.2939ZM34.3677 21.3766C34.3893 21.3962 34.4382 21.4472 34.4774 21.536C34.5189 21.6299 34.534 21.7312 34.5263 21.8233L32.5333 21.6572C32.4909 22.1652 32.7176 22.5807 33.0259 22.8597L34.3677 21.3766ZM34.527 21.8146C34.7335 19.045 35.1764 16.5747 35.8477 14.3971L33.9365 13.8079C33.2133 16.1538 32.748 18.7754 32.5326 21.6659L34.527 21.8146ZM35.8473 14.3985C36.5319 12.1894 37.2879 10.9595 37.9921 10.426L36.7843 8.83181C35.5549 9.7632 34.6468 11.5157 33.9369 13.8065L35.8473 14.3985ZM37.9882 10.4289C38.27 10.2175 38.451 10.1807 38.5484 10.1807V8.18066C37.8957 8.18066 37.3032 8.44262 36.7882 8.82891L37.9882 10.4289ZM38.5484 10.1807C38.6751 10.1807 38.9377 10.2427 39.3348 10.7108C39.733 11.1803 40.1676 11.9492 40.6155 13.0817L42.4753 12.3461C41.9916 11.1231 41.4609 10.1254 40.86 9.41709C40.2581 8.70753 39.4881 8.18066 38.5484 8.18066V10.1807ZM40.615 13.0803C41.3961 15.0641 42.0908 17.7064 42.6881 21.0295L44.6566 20.6756C44.0469 17.2838 43.3236 14.5003 42.4759 12.3475L40.615 13.0803ZM42.6885 21.0314L42.8291 21.8049L44.7969 21.4471L44.6562 20.6737L42.6885 21.0314ZM42.8266 21.7904C42.8253 21.7824 42.8218 21.7587 42.8218 21.7227H44.8218C44.8218 21.628 44.8124 21.5399 44.7994 21.4616L42.8266 21.7904ZM42.8218 21.7227C42.8218 21.6874 42.8287 21.6132 42.8713 21.5241C42.9156 21.4316 42.9796 21.3623 43.0403 21.3182L44.2166 22.9357C44.6336 22.6324 44.8218 22.1802 44.8218 21.7227H42.8218ZM42.9992 21.3497C43.0139 21.3378 43.0436 21.3176 43.0884 21.301C43.1342 21.2841 43.1814 21.2764 43.2241 21.2764V23.2764C43.6187 23.2764 43.9719 23.1355 44.2576 22.9042L42.9992 21.3497ZM43.2241 21.2764C43.2677 21.2764 43.3153 21.2834 43.3624 21.2991C43.4089 21.3146 43.4439 21.3349 43.4669 21.3514L42.2959 22.9728C42.5614 23.1645 42.8784 23.2764 43.2241 23.2764V21.2764ZM43.4361 21.3301C43.5145 21.3823 43.5739 21.4493 43.6131 21.5157C43.6499 21.5781 43.6603 21.6251 43.6625 21.6372L41.6959 22.0014C41.7604 22.3498 41.9396 22.7362 42.3267 22.9942L43.4361 21.3301ZM43.6647 21.6494L43.5328 20.8848L41.5619 21.2246L41.6938 21.9892L43.6647 21.6494ZM43.5318 20.8792C43.3953 20.1132 43.2525 19.3813 43.1034 18.6836L41.1476 19.1015C41.2915 19.775 41.4299 20.4845 41.5629 21.2302L43.5318 20.8792ZM43.1038 18.6853C42.9548 17.982 42.7994 17.3125 42.6375 16.677L40.6994 17.1707C40.854 17.7774 41.0033 18.4204 41.1472 19.0998L43.1038 18.6853ZM41.6685 15.9238H35.3667V17.9238H41.6685V15.9238ZM34.3865 16.7258C34.0338 18.4713 33.796 20.1292 33.6753 21.6987L35.6694 21.8521C35.7831 20.3747 36.0082 18.7983 36.3469 17.1219L34.3865 16.7258ZM33.6753 21.6987C33.6788 21.6532 33.6926 21.5882 33.7294 21.5179C33.7664 21.4473 33.8137 21.3962 33.8543 21.3637L35.1037 22.9254C35.4416 22.6551 35.6369 22.2749 35.6694 21.8521L33.6753 21.6987ZM33.8314 21.3826C33.8522 21.3649 33.8881 21.3403 33.9388 21.3211C33.9903 21.3017 34.0408 21.2939 34.0835 21.2939V23.2939C34.4799 23.2939 34.8385 23.1514 35.1267 22.9065L33.8314 21.3826ZM35.6216 16.7812H41.3696V14.7812H35.6216V16.7812ZM42.3324 15.511C41.6721 13.1585 40.9501 11.3779 40.1135 10.3251L38.5477 11.5694C39.1173 12.2862 39.7547 13.7282 40.4069 16.0515L42.3324 15.511ZM40.1199 10.3333C39.9064 10.0588 39.6486 9.80146 39.3345 9.62199L38.3423 11.3585C38.3563 11.3665 38.4266 11.4139 38.5412 11.5612L40.1199 10.3333ZM39.3125 9.60976C39.2083 9.55366 39.0898 9.49691 38.9643 9.45398C38.8539 9.4162 38.6563 9.35985 38.4214 9.37943L38.5875 11.3725C38.4973 11.38 38.428 11.3712 38.3901 11.3644C38.3507 11.3574 38.3252 11.3491 38.3169 11.3463C38.3028 11.3415 38.3161 11.3448 38.3643 11.3707L39.3125 9.60976ZM38.3804 9.3837C37.5634 9.48582 36.9771 10.0907 36.5649 10.709L38.229 11.8184C38.374 11.601 38.4913 11.4778 38.5718 11.4133C38.6481 11.3521 38.6655 11.3636 38.6284 11.3683L38.3804 9.3837ZM36.5649 10.709C35.7709 11.9 35.1442 13.5315 34.6504 15.5428L36.5928 16.0197C37.0599 14.1169 37.6168 12.7367 38.229 11.8184L36.5649 10.709ZM51.2609 10.3936H52.2609V9.39771L51.265 9.39356L51.2609 10.3936ZM47.0421 10.376L47.0463 9.37598H47.0421V10.376ZM46.629 10.2002L45.8336 10.8062L45.8408 10.8157L45.8481 10.8249L46.629 10.2002ZM47.0421 9.2334L47.0459 8.2334H47.0421V9.2334ZM56.3585 9.26855L56.3547 10.2686H56.3585V9.26855ZM56.7628 9.44434L55.9628 10.0443L55.9722 10.0568L55.9819 10.069L56.7628 9.44434ZM56.7628 10.2354L55.9674 9.62929L55.9628 9.63535L56.7628 10.2354ZM56.3497 10.4111L56.3408 11.4111H56.3497V10.4111ZM54.381 10.4111V11.4112L54.3899 11.4111L54.381 10.4111ZM52.4034 10.4023L52.4123 9.40238L51.4034 9.39346V10.4023H52.4034ZM52.2276 22.0039L51.5389 21.2789L51.5203 21.2966L51.5027 21.3152L52.2276 22.0039ZM51.8321 21.1797C51.888 21.1797 51.9525 21.1913 52.0155 21.2187C52.077 21.2454 52.1161 21.2779 52.135 21.2968L50.7207 22.711C51.0073 22.9976 51.39 23.1797 51.8321 23.1797V21.1797ZM52.135 21.2968C52.1614 21.3232 52.1967 21.3682 52.2239 21.4326C52.2513 21.4975 52.2609 21.5597 52.2609 21.6084H50.2609C50.2609 22.0357 50.4289 22.4192 50.7207 22.711L52.135 21.2968ZM52.2609 21.6084V10.3936H50.2609V21.6084H52.2609ZM51.265 9.39356L47.0463 9.37599L47.0379 11.376L51.2567 11.3935L51.265 9.39356ZM47.0421 9.37598C47.0578 9.37598 47.1157 9.3785 47.1942 9.41188C47.278 9.44754 47.3537 9.50531 47.4099 9.5755L45.8481 10.8249C46.1719 11.2296 46.6275 11.376 47.0421 11.376V9.37598ZM47.4244 9.59415C47.4337 9.60624 47.4511 9.63286 47.4658 9.67402C47.4808 9.71621 47.4884 9.76144 47.4884 9.80469H45.4884C45.4884 10.1864 45.6212 10.5274 45.8336 10.8062L47.4244 9.59415ZM47.4884 9.80469C47.4884 9.84019 47.4823 9.88434 47.4658 9.93096C47.4493 9.97727 47.4275 10.0119 47.4099 10.0339L45.8481 8.78448C45.6163 9.07427 45.4884 9.42517 45.4884 9.80469H47.4884ZM47.4099 10.0339C47.3537 10.1041 47.278 10.1618 47.1942 10.1975C47.1157 10.2309 47.0578 10.2334 47.0421 10.2334V8.2334C46.6275 8.2334 46.1719 8.37981 45.8481 8.78448L47.4099 10.0339ZM47.0383 10.2334L56.3547 10.2685L56.3623 8.26856L47.0459 8.23341L47.0383 10.2334ZM56.3585 10.2686C56.3436 10.2686 56.2815 10.2663 56.1971 10.2296C56.106 10.19 56.0232 10.1249 55.9628 10.0443L57.5628 8.84434C57.2408 8.41496 56.7709 8.26855 56.3585 8.26855V10.2686ZM55.9819 10.069C55.9643 10.047 55.9425 10.0124 55.9261 9.96611C55.9095 9.9195 55.9034 9.87534 55.9034 9.83984H57.9034C57.9034 9.46033 57.7755 9.10943 57.5437 8.81964L55.9819 10.069ZM55.9034 9.83984C55.9034 9.79659 55.9111 9.75137 55.9261 9.70918C55.9407 9.66802 55.9582 9.6414 55.9674 9.62931L57.5582 10.8414C57.7707 10.5626 57.9034 10.2215 57.9034 9.83984H55.9034ZM55.9628 9.63535C56.0268 9.54999 56.1126 9.48509 56.2021 9.44703C56.2841 9.41213 56.3418 9.41113 56.3497 9.41113V11.4111C56.755 11.4111 57.2346 11.273 57.5628 10.8354L55.9628 9.63535ZM56.3586 9.41117C55.6964 9.40526 55.0342 9.40526 54.372 9.41117L54.3899 11.4111C55.0402 11.4053 55.6905 11.4053 56.3408 11.4111L56.3586 9.41117ZM54.381 9.41113C53.7277 9.41113 53.0715 9.40822 52.4123 9.40238L52.3946 11.4023C53.0596 11.4082 53.7217 11.4111 54.381 11.4111V9.41113ZM51.4034 10.4023V21.6084H53.4034V10.4023H51.4034ZM51.4034 21.6084C51.4034 21.5526 51.415 21.4844 51.4457 21.4154C51.4758 21.3476 51.5137 21.3028 51.5389 21.2789L52.9164 22.7289C53.2188 22.4417 53.4034 22.053 53.4034 21.6084H51.4034ZM51.5027 21.3152C51.5266 21.29 51.5714 21.252 51.6391 21.2219C51.7082 21.1912 51.7764 21.1797 51.8321 21.1797V23.1797C52.2768 23.1797 52.6654 22.995 52.9526 22.6927L51.5027 21.3152Z" fill="#0A9F6D"/>
</svg>
