<svg width="26" height="26" viewBox="0 0 26 26" fill="none" xmlns="http://www.w3.org/2000/svg">
<path d="M19.5398 1.40283C19.1193 1.40283 18.6988 1.55518 18.3909 1.86304L16.6691 3.58643C16.3517 3.26904 15.836 3.26904 15.5202 3.58643L13.2223 5.88428C13.0684 6.03821 12.9827 6.24292 12.9827 6.46033C12.9827 6.67615 13.0684 6.88086 13.2223 7.0332L13.2414 7.05383L2.24089 18.0369C2.03618 18.2416 1.9124 18.5129 1.8886 18.8018L1.61406 22.212L1.32842 24.2115C1.30937 24.3385 1.35222 24.4655 1.44426 24.5575C1.52043 24.6337 1.62358 24.6749 1.72991 24.6749C1.75054 24.6749 1.76958 24.6749 1.78862 24.6718L3.78655 24.3877L7.21745 24.1338C7.50945 24.1132 7.7824 23.9878 7.98869 23.7815L18.9892 12.7969C19.1399 12.9381 19.3335 13.0175 19.5414 13.0175C19.7588 13.0175 19.962 12.9334 20.1159 12.7794L22.4137 10.4816C22.7311 10.1642 22.7311 9.65003 22.4137 9.33264L24.1387 7.60925C24.445 7.30139 24.6132 6.89356 24.6132 6.45874C24.6132 6.02551 24.445 5.61609 24.1371 5.30982L20.6904 1.86304C20.3841 1.55518 19.962 1.40283 19.5398 1.40283ZM19.5398 2.2074C19.7509 2.2074 19.962 2.28357 20.1159 2.4375L23.5627 5.88428C23.7166 6.03821 23.8007 6.24133 23.8007 6.45874C23.8007 6.67615 23.7166 6.88086 23.5627 7.0332L21.8393 8.75818L17.242 4.16089L18.967 2.4375C19.1193 2.28357 19.3304 2.2074 19.5398 2.2074ZM16.0931 4.16089L16.3819 4.44812L21.552 9.61829L21.8393 9.90711L21.2648 10.48C21.1061 10.3213 20.849 10.3213 20.6904 10.48L20.1159 11.056C19.9572 11.2147 19.9572 11.4718 20.1159 11.6305L19.5414 12.205L13.7952 6.45874L14.3697 5.88428C14.449 5.96362 14.5522 6.0033 14.6569 6.0033C14.7616 6.0033 14.8648 5.96362 14.9441 5.88428L15.5202 5.30982C15.6789 5.15112 15.6789 4.89404 15.5202 4.73535L16.0931 4.16089ZM16.6691 6.05249C16.5644 6.05249 16.4612 6.09216 16.3819 6.17151L15.8058 6.74597C15.6471 6.90466 15.6471 7.16174 15.8058 7.32044C15.8852 7.39978 15.9899 7.43945 16.0931 7.43945C16.1978 7.43945 16.3025 7.39978 16.3819 7.32044L16.9548 6.74597C17.115 6.58728 17.115 6.3302 16.9548 6.17151C16.8754 6.09216 16.7723 6.05249 16.6691 6.05249ZM18.1037 7.49023C18.0005 7.49023 17.8974 7.52832 17.818 7.60925L17.242 8.18213C17.0833 8.34241 17.0833 8.5979 17.242 8.75818C17.3213 8.83594 17.4261 8.87561 17.5308 8.87561C17.634 8.87561 17.7387 8.83594 17.818 8.75818L18.3909 8.18213C18.5512 8.02344 18.5512 7.76794 18.3909 7.60925C18.3116 7.52832 18.2084 7.49023 18.1037 7.49023ZM13.8174 7.6283L18.4131 12.2256L7.73003 22.8912L7.34282 20.9552L14.0824 14.2156C14.2411 14.0569 14.2411 13.7998 14.0824 13.6411C13.9238 13.4824 13.6683 13.4824 13.508 13.6411L6.76677 20.3823L5.80986 20.1903L5.61785 19.2318L11.2101 13.6411C11.3704 13.4808 11.3704 13.2253 11.2101 13.0651C11.0514 12.9064 10.7959 12.9064 10.6373 13.0651L5.04497 18.6574L3.15019 18.2797L13.8174 7.6283ZM19.5414 8.92481C19.4367 8.92481 19.3335 8.96448 19.2542 9.04541L18.6797 9.61829C18.521 9.77857 18.521 10.0341 18.6797 10.1943C18.7591 10.2721 18.8622 10.3134 18.967 10.3134C19.0717 10.3134 19.1749 10.2721 19.2542 10.1943L19.8287 9.61829C19.9874 9.4596 19.9874 9.2041 19.8287 9.04541C19.7493 8.96448 19.6462 8.92481 19.5414 8.92481ZM13.2223 10.6498C13.1176 10.6498 13.0145 10.6895 12.9351 10.7672L11.7862 11.9161C11.6259 12.0764 11.6259 12.3319 11.7862 12.4922C11.8639 12.5699 11.9687 12.6112 12.0734 12.6112C12.1766 12.6112 12.2813 12.5699 12.3591 12.4922L13.508 11.3433C13.6683 11.183 13.6683 10.9275 13.508 10.7672C13.4286 10.6879 13.3255 10.6482 13.2223 10.6498ZM2.68523 19.0144L4.83232 19.4429L5.0656 20.6156C5.09892 20.7759 5.22429 20.9012 5.38457 20.933L6.55571 21.1678L6.98894 23.3356L3.89763 23.5625L2.43767 22.1041L2.68523 19.0144Z" fill="black"/>
</svg>
