<svg width="90" height="90" viewBox="0 0 90 90" fill="none" xmlns="http://www.w3.org/2000/svg">
<path d="M11.8359 62.8203C11.9193 63.4245 11.987 64.0469 12.0391 64.6875C12.0911 65.3229 12.125 65.9792 12.1406 66.6562H12.1484L17.8281 66.6953C17.9896 66.6953 18.1094 66.75 18.1875 66.8594C18.2708 66.9635 18.3125 67.0781 18.3125 67.2031C18.3125 67.3333 18.2708 67.4505 18.1875 67.5547C18.1094 67.6589 17.9896 67.7109 17.8281 67.7109C17.8229 67.7109 17.8203 67.7109 17.8203 67.7109L12.1484 67.6719C12.1484 68.026 12.1354 68.4323 12.1094 68.8906C12.0885 69.3438 12.0599 69.8073 12.0234 70.2812C11.9922 70.7552 11.9531 71.1979 11.9062 71.6094C11.8594 72.0208 11.8125 72.362 11.7656 72.6328L11.6641 73.1797C11.638 73.3047 11.5755 73.4036 11.4766 73.4766C11.3776 73.5495 11.2708 73.5859 11.1562 73.5859C11.0156 73.5859 10.8906 73.5286 10.7812 73.4141C10.6771 73.2995 10.638 73.1615 10.6641 73L10.7656 72.4531C10.8906 71.7604 10.9818 71.0052 11.0391 70.1875C11.1016 69.3698 11.1328 68.5365 11.1328 67.6875C11.1328 66.7344 11.0964 65.7917 11.0234 64.8594C10.9557 63.9219 10.8594 63.0625 10.7344 62.2812C10.7292 62.2552 10.7266 62.2292 10.7266 62.2031C10.7266 62.0573 10.776 61.9349 10.875 61.8359C10.9792 61.737 11.099 61.6875 11.2344 61.6875C11.2656 61.6875 11.2943 61.6901 11.3203 61.6953L11.9062 61.7969C12.526 61.9062 13.1875 61.9948 13.8906 62.0625C14.5938 62.125 15.3021 62.1562 16.0156 62.1562C17.1615 62.1562 17.9479 62.0339 18.375 61.7891C18.4531 61.7422 18.5365 61.7188 18.625 61.7188C18.7604 61.7188 18.8776 61.7682 18.9766 61.8672C19.0807 61.9609 19.1328 62.0807 19.1328 62.2266C19.1328 62.2682 19.1276 62.3125 19.1172 62.3594C19.013 62.75 18.3255 63.0104 17.0547 63.1406C16.7734 63.1719 16.4453 63.1875 16.0703 63.1875C15.8151 63.1875 15.5026 63.1771 15.1328 63.1562C14.7682 63.1302 14.3828 63.1016 13.9766 63.0703C13.5755 63.0339 13.1849 62.9948 12.8047 62.9531C12.4297 62.9062 12.1068 62.862 11.8359 62.8203ZM26.2891 65.7031C26.362 65.4115 26.5312 65.2656 26.7969 65.2656C26.9219 65.2656 27.0312 65.3125 27.125 65.4062C27.224 65.5 27.2812 65.6068 27.2969 65.7266C27.3438 66.2005 27.3672 66.6536 27.3672 67.0859C27.3672 67.6953 27.3203 68.2656 27.2266 68.7969C27.2578 70.5938 27.4193 71.763 27.7109 72.3047C27.7474 72.3672 27.7682 72.401 27.7734 72.4062C27.9453 72.5 28.0312 72.651 28.0312 72.8594C28.0312 73.0573 27.9479 73.2005 27.7812 73.2891C27.6146 73.3776 27.4271 73.3672 27.2188 73.2578C26.8281 73.0547 26.5469 72.3724 26.375 71.2109C26.2031 71.5078 25.974 71.8073 25.6875 72.1094C25.401 72.4115 25.0729 72.6641 24.7031 72.8672C24.3385 73.0651 23.9427 73.1641 23.5156 73.1641C23.2396 73.1641 22.9661 73.1146 22.6953 73.0156C22.0443 72.776 21.5495 72.2865 21.2109 71.5469C20.8724 70.8021 20.7031 69.9505 20.7031 68.9922C20.7031 67.9714 20.8802 66.7995 21.2344 65.4766C21.2656 65.362 21.3307 65.2734 21.4297 65.2109C21.5286 65.1432 21.6328 65.1094 21.7422 65.1094C21.8828 65.1094 22.0104 65.1719 22.125 65.2969C22.2396 65.4219 22.2708 65.5703 22.2188 65.7422C21.8802 66.9609 21.7109 68.0339 21.7109 68.9609C21.7109 69.6641 21.8073 70.2839 22 70.8203C22.1354 71.1953 22.3307 71.513 22.5859 71.7734C22.8411 72.0286 23.1458 72.1562 23.5 72.1562C23.8021 72.1562 24.1146 72.0521 24.4375 71.8438C25.3333 71.2708 25.9245 70.2266 26.2109 68.7109C26.2109 68.6068 26.2083 68.5 26.2031 68.3906C26.2031 68.276 26.2031 68.1615 26.2031 68.0469C26.2031 67.8229 26.2057 67.5911 26.2109 67.3516C26.2161 67.1068 26.224 66.8568 26.2344 66.6016L26.2891 65.7031ZM29.9375 73.0625C29.7917 73.0625 29.6667 72.9922 29.5625 72.8516C29.4583 72.7057 29.4062 72.5755 29.4062 72.4609C29.4062 72.362 29.4219 72.2604 29.4531 72.1562C29.4896 72.0521 29.5104 71.9531 29.5156 71.8594C29.5312 71.5729 29.5599 71.1875 29.6016 70.7031C29.6432 70.2135 29.6641 69.7396 29.6641 69.2812C29.6641 68.9479 29.6589 68.5859 29.6484 68.1953C29.6172 67.0443 29.5703 66.3438 29.5078 66.0938C29.4818 65.9844 29.4688 65.8854 29.4688 65.7969C29.4688 65.6458 29.5104 65.5234 29.5938 65.4297C29.6823 65.3307 29.8047 65.2812 29.9609 65.2812C30.0807 65.2812 30.1849 65.3203 30.2734 65.3984C30.362 65.4766 30.4193 65.5651 30.4453 65.6641C30.5599 66.0964 30.6276 66.7604 30.6484 67.6562C31.4089 66.1615 32.4375 65.3333 33.7344 65.1719C33.7552 65.1719 33.776 65.1719 33.7969 65.1719C33.9531 65.1719 34.0729 65.2292 34.1562 65.3438C34.2448 65.4531 34.2891 65.5729 34.2891 65.7031C34.2891 65.8177 34.2552 65.9219 34.1875 66.0156C34.1198 66.1094 34.0104 66.1641 33.8594 66.1797C32.5365 66.3464 31.5625 67.5312 30.9375 69.7344C30.7865 70.2708 30.6719 70.8229 30.5938 71.3906C30.5781 71.625 30.5625 71.8099 30.5469 71.9453C30.5365 72.0807 30.5312 72.2083 30.5312 72.3281C30.5312 72.3958 30.5365 72.4505 30.5469 72.4922C30.5573 72.5339 30.5625 72.5703 30.5625 72.6016C30.5625 72.7161 30.4844 72.8229 30.3281 72.9219C30.1771 73.0156 30.0469 73.0625 29.9375 73.0625ZM36.3984 64.9531C36.5495 64.9531 36.6745 65.013 36.7734 65.1328C37.1484 65.5859 37.4219 66.2839 37.5938 67.2266C38.3021 65.9453 39.2161 65.224 40.3359 65.0625C40.513 65.0365 40.6875 65.0234 40.8594 65.0234C41.4844 65.0234 42.0365 65.1667 42.5156 65.4531C42.9948 65.7396 43.388 66.1172 43.6953 66.5859C44.0026 67.0547 44.2109 67.5599 44.3203 68.1016C44.3932 68.4505 44.4297 68.8073 44.4297 69.1719C44.4297 70.3229 44.0625 71.5391 43.3281 72.8203C43.2344 72.9818 43.0911 73.0625 42.8984 73.0625C42.737 73.0625 42.5911 72.987 42.4609 72.8359C42.3359 72.6797 42.3307 72.5052 42.4453 72.3125C43.0911 71.1875 43.4141 70.138 43.4141 69.1641C43.4141 68.8724 43.3854 68.5885 43.3281 68.3125C43.2448 67.9115 43.0911 67.5391 42.8672 67.1953C42.6484 66.8516 42.3672 66.5755 42.0234 66.3672C41.6849 66.1536 41.2943 66.0469 40.8516 66.0469C40.7318 66.0469 40.6094 66.0547 40.4844 66.0703C39.9688 66.1432 39.5286 66.3698 39.1641 66.75C38.7995 67.1302 38.5052 67.5911 38.2812 68.1328C38.0625 68.6693 37.9036 69.2161 37.8047 69.7734C37.8047 69.8411 37.8047 69.9089 37.8047 69.9766C37.8047 70.7266 37.7656 71.4818 37.6875 72.2422L37.6562 72.5469C37.6406 72.6927 37.5833 72.8021 37.4844 72.875C37.3854 72.9427 37.2786 72.9766 37.1641 72.9766C37.0391 72.9766 36.9219 72.9375 36.8125 72.8594C36.7083 72.7812 36.6536 72.6641 36.6484 72.5078C36.638 72.2734 36.6328 72.0443 36.6328 71.8203C36.6328 71.0547 36.6849 70.349 36.7891 69.7031C36.7682 68.5052 36.6745 67.6068 36.5078 67.0078C36.3464 66.4141 36.1979 66.0339 36.0625 65.8672C35.9375 65.7109 35.875 65.5729 35.875 65.4531C35.875 65.3021 35.9297 65.1823 36.0391 65.0938C36.1484 65 36.2682 64.9531 36.3984 64.9531ZM46 63.5078C46 63.3151 46.0573 63.1302 46.1719 62.9531C46.2917 62.7708 46.4375 62.625 46.6094 62.5156C46.7812 62.401 46.9505 62.3438 47.1172 62.3438C47.362 62.3438 47.5677 62.4479 47.7344 62.6562C47.9062 62.8594 47.9922 63.0625 47.9922 63.2656C47.9922 63.4583 47.9323 63.6354 47.8125 63.7969C47.6927 63.9583 47.5312 64.0755 47.3281 64.1484C47.099 64.263 46.8958 64.3203 46.7188 64.3203C46.526 64.3203 46.3568 64.2422 46.2109 64.0859C46.0703 63.9245 46 63.7318 46 63.5078ZM47.2656 71.7266C47.25 72.1432 47.1927 72.4766 47.0938 72.7266C46.9948 72.9714 46.8229 73.0938 46.5781 73.0938C46.4427 73.0938 46.3229 73.0443 46.2188 72.9453C46.1146 72.8464 46.0625 72.724 46.0625 72.5781C46.0625 72.5104 46.0755 72.4427 46.1016 72.375C46.1484 72.2656 46.1849 72.0495 46.2109 71.7266C46.2422 71.3984 46.2656 71.013 46.2812 70.5703C46.2969 70.1276 46.3073 69.6719 46.3125 69.2031C46.3229 68.7292 46.3281 68.2891 46.3281 67.8828C46.3281 67.4766 46.3281 67.1536 46.3281 66.9141C46.3281 66.4714 46.3255 66.0469 46.3203 65.6406C46.3203 65.474 46.3724 65.349 46.4766 65.2656C46.5859 65.1823 46.7057 65.1406 46.8359 65.1406C46.9609 65.1406 47.0729 65.1823 47.1719 65.2656C47.276 65.3438 47.3281 65.4635 47.3281 65.625C47.3333 65.901 47.3359 66.1719 47.3359 66.4375C47.3411 66.7031 47.3438 66.9635 47.3438 67.2188C47.3438 68.0677 47.3385 68.8359 47.3281 69.5234C47.3229 70.2109 47.3021 70.9453 47.2656 71.7266ZM49.5625 67.2812C49.5625 66.7969 49.6901 66.3906 49.9453 66.0625C50.2005 65.7292 50.5312 65.4792 50.9375 65.3125C51.3438 65.1458 51.776 65.0625 52.2344 65.0625C53.724 65.0625 54.9661 65.5365 55.9609 66.4844C56.0651 66.5833 56.1172 66.7005 56.1172 66.8359C56.1172 66.9661 56.0703 67.0833 55.9766 67.1875C55.888 67.2917 55.7708 67.3464 55.625 67.3516C55.4792 67.3516 55.3594 67.3073 55.2656 67.2188C54.9688 66.9323 54.5677 66.6719 54.0625 66.4375C53.5625 66.1979 53.0521 66.0781 52.5312 66.0781C51.4583 66.0781 50.8255 66.3698 50.6328 66.9531C50.5911 67.0781 50.5703 67.1979 50.5703 67.3125C50.5703 67.625 50.7161 67.9141 51.0078 68.1797C51.3307 68.4766 51.8724 68.625 52.6328 68.625C52.7578 68.625 52.8906 68.6198 53.0312 68.6094C53.1719 68.599 53.3125 68.5938 53.4531 68.5938C54.125 68.5938 54.6693 68.6953 55.0859 68.8984C55.5026 69.0964 55.8203 69.4141 56.0391 69.8516C56.1797 70.1432 56.25 70.4271 56.25 70.7031C56.25 70.8281 56.237 70.9531 56.2109 71.0781C56.0391 71.8385 55.5677 72.3932 54.7969 72.7422C54.3125 72.9661 53.7995 73.0781 53.2578 73.0781C53.1484 73.0781 53.0365 73.0729 52.9219 73.0625C51.6875 72.9479 50.6615 72.5312 49.8438 71.8125C49.7292 71.7135 49.6719 71.5859 49.6719 71.4297C49.6719 71.2891 49.7214 71.1719 49.8203 71.0781C49.9245 70.9792 50.0443 70.9297 50.1797 70.9297C50.3099 70.9297 50.4219 70.9688 50.5156 71.0469C50.8802 71.3646 51.2865 71.612 51.7344 71.7891C52.1823 71.9661 52.6953 72.0547 53.2734 72.0547C53.9974 72.0547 54.5495 71.8464 54.9297 71.4297C55.138 71.2005 55.2422 70.9661 55.2422 70.7266C55.2422 70.5859 55.2057 70.4427 55.1328 70.2969C54.9089 69.8385 54.4349 69.6094 53.7109 69.6094C53.5547 69.6094 53.3932 69.6146 53.2266 69.625C53.0599 69.6302 52.9089 69.6328 52.7734 69.6328C52.1536 69.6328 51.6953 69.5938 51.3984 69.5156C50.987 69.4062 50.6224 69.2057 50.3047 68.9141C49.987 68.6224 49.7682 68.2734 49.6484 67.8672C49.5911 67.6745 49.5625 67.4792 49.5625 67.2812ZM57.8359 71.0156L57.8125 62.0938C57.8125 61.9323 57.8646 61.8099 57.9688 61.7266C58.0781 61.6432 58.1953 61.6016 58.3203 61.6016C58.4505 61.6016 58.5677 61.6432 58.6719 61.7266C58.776 61.8099 58.8281 61.9323 58.8281 62.0938L58.8359 66.75C59.4297 65.7188 60.1797 65.1484 61.0859 65.0391C61.2057 65.0234 61.3229 65.0156 61.4375 65.0156C62.1667 65.0156 62.8438 65.2891 63.4688 65.8359C63.9323 66.237 64.3021 66.7526 64.5781 67.3828C64.8594 68.0078 65 68.7422 65 69.5859C65 70.6276 64.7266 71.7031 64.1797 72.8125C64.0911 72.9896 63.9401 73.0781 63.7266 73.0781C63.5807 73.0781 63.4427 73.0078 63.3125 72.8672C63.1875 72.7214 63.1745 72.5521 63.2734 72.3594C63.7474 71.4062 63.9844 70.4818 63.9844 69.5859C63.9844 68.9193 63.875 68.3333 63.6562 67.8281C63.4427 67.3177 63.1589 66.9089 62.8047 66.6016C62.3724 66.2214 61.9141 66.0312 61.4297 66.0312C60.9922 66.0312 60.6198 66.1797 60.3125 66.4766C60.0052 66.7682 59.7526 67.1328 59.5547 67.5703C59.362 68.0026 59.2161 68.4323 59.1172 68.8594C58.9714 69.4792 58.8828 70.2057 58.8516 71.0391V72.5703C58.8516 72.7318 58.7969 72.8542 58.6875 72.9375C58.5833 73.0208 58.4661 73.0625 58.3359 73.0625C58.2109 73.0625 58.0964 73.0234 57.9922 72.9453C57.8932 72.8672 57.8411 72.75 57.8359 72.5938C57.8255 72.3594 57.8203 72.1146 57.8203 71.8594C57.8203 71.7135 57.8203 71.5703 57.8203 71.4297C57.8255 71.2891 57.8307 71.151 57.8359 71.0156ZM67.6719 70.3516C67.8229 70.8932 68.1146 71.3177 68.5469 71.625C68.9844 71.9323 69.5339 72.0859 70.1953 72.0859C71.0807 72.0859 72.1094 71.7969 73.2812 71.2188C73.3542 71.1823 73.4297 71.1641 73.5078 71.1641C73.6432 71.1641 73.7604 71.2109 73.8594 71.3047C73.9635 71.3984 74.0156 71.5156 74.0156 71.6562C74.0156 71.8802 73.9219 72.0391 73.7344 72.1328C73.1406 72.4245 72.5365 72.6589 71.9219 72.8359C71.3073 73.013 70.7135 73.1016 70.1406 73.1016C69.5521 73.1016 69.0026 72.9922 68.4922 72.7734C67.987 72.5547 67.5547 72.1901 67.1953 71.6797C66.9922 71.3932 66.8359 71.0885 66.7266 70.7656C66.6172 70.4427 66.5625 70.0807 66.5625 69.6797C66.5625 69.5026 66.5729 69.3177 66.5938 69.125C66.7135 68.1302 67.1276 67.2786 67.8359 66.5703C68.7526 65.6536 69.9583 65.1953 71.4531 65.1953C72.026 65.1953 72.5286 65.3073 72.9609 65.5312C73.3932 65.75 73.7005 66.0625 73.8828 66.4688C73.9818 66.6927 74.0312 66.9297 74.0312 67.1797C74.0312 67.6068 73.9193 67.9844 73.6953 68.3125C73.4766 68.6354 73.1641 68.9349 72.7578 69.2109C71.6172 69.9818 69.9635 70.3672 67.7969 70.3672C67.7656 70.3672 67.724 70.362 67.6719 70.3516ZM67.5859 69.3984C67.6589 69.3672 67.7292 69.3516 67.7969 69.3516C69.7604 69.3516 71.2266 69.0234 72.1953 68.3672C72.4661 68.1849 72.6719 68 72.8125 67.8125C72.9531 67.6198 73.0234 67.3984 73.0234 67.1484C73.0234 67.0026 72.9896 66.8854 72.9219 66.7969C72.8594 66.7083 72.776 66.625 72.6719 66.5469C72.3802 66.3229 71.9766 66.2109 71.4609 66.2109C70.7682 66.2109 70.138 66.3411 69.5703 66.6016C69.0026 66.8568 68.5417 67.224 68.1875 67.7031C67.8385 68.1771 67.638 68.7422 67.5859 69.3984ZM83.2422 69.6719C83.2422 70.0573 83.2604 70.4766 83.2969 70.9297C83.3333 71.3776 83.3516 71.7734 83.3516 72.1172C83.3516 72.3203 83.3099 72.4974 83.2266 72.6484C83.1484 72.7943 83.0052 72.8672 82.7969 72.8672C82.6562 72.8672 82.5417 72.8125 82.4531 72.7031C82.3646 72.5938 82.3151 72.4688 82.3047 72.3281C82.2943 72.1927 82.2839 72.0339 82.2734 71.8516C82.263 71.6693 82.2526 71.4661 82.2422 71.2422C81.5182 72.388 80.5938 72.9609 79.4688 72.9609C78.7135 72.9609 78.0443 72.7943 77.4609 72.4609C76.8828 72.1276 76.4271 71.6667 76.0938 71.0781C75.7656 70.4844 75.6016 69.8021 75.6016 69.0312C75.6016 68.4479 75.7005 67.8802 75.8984 67.3281C76.0964 66.7708 76.3646 66.2891 76.7031 65.8828C77.2552 65.2161 77.9661 64.8828 78.8359 64.8828C78.9297 64.8828 79.026 64.8854 79.125 64.8906C80.125 64.9688 81.1432 65.5495 82.1797 66.6328C82.1797 66.3099 82.1797 65.9323 82.1797 65.5C82.1797 65.0625 82.1823 64.5729 82.1875 64.0312L82.2031 62.125C82.2031 61.9635 82.2552 61.8411 82.3594 61.7578C82.4688 61.6745 82.5859 61.6328 82.7109 61.6328C82.8411 61.6328 82.9583 61.6745 83.0625 61.7578C83.1667 61.8411 83.2188 61.9661 83.2188 62.1328L83.2031 64.0469C83.1979 64.75 83.1927 65.3906 83.1875 65.9688C83.1875 66.5417 83.1875 67.0521 83.1875 67.5C83.1875 68.0677 83.1901 68.5208 83.1953 68.8594C83.2266 68.9531 83.2422 69.1172 83.2422 69.3516C83.2422 69.4036 83.2422 69.4557 83.2422 69.5078C83.2422 69.5599 83.2422 69.6146 83.2422 69.6719ZM79.4766 71.9453C80.5443 71.9453 81.388 71.0938 82.0078 69.3906C82.0495 69.2812 82.0833 69.1875 82.1094 69.1094C82.1354 69.0312 82.1589 68.9661 82.1797 68.9141V68.2031C81.0495 66.75 79.9948 65.9818 79.0156 65.8984C78.9688 65.8932 78.9219 65.8906 78.875 65.8906C78.4167 65.8906 78.0182 66.0443 77.6797 66.3516C77.3411 66.6536 77.0807 67.0417 76.8984 67.5156C76.7161 67.9844 76.625 68.474 76.625 68.9844C76.625 69.8594 76.8802 70.5729 77.3906 71.125C77.901 71.6719 78.5964 71.9453 79.4766 71.9453Z" fill="black"/>
<path d="M67 36.0003C67 33.7087 64.75 31.8337 62 31.8337V25.5837C62 23.292 59.75 21.417 57 21.417H37C34.25 21.417 32 23.292 32 25.5837V31.8337C29.25 31.8337 27 33.7087 27 36.0003V46.417H30.325L32 50.5837H34.5L36.175 46.417H57.85L59.5 50.5837H62L63.675 46.417H67V36.0003ZM57 31.8337H49.5V25.5837H57V31.8337ZM37 25.5837H44.5V31.8337H37V25.5837ZM32 36.0003H62V42.2503H32V36.0003Z" fill="black"/>
<rect x="0.5" y="0.5" width="89" height="89" stroke="white"/>
</svg>
