<svg width="90" height="90" viewBox="0 0 90 90" fill="none" xmlns="http://www.w3.org/2000/svg">
<path d="M28.44 34C27.8866 34 27.52 34.6973 27.52 35.75V39.25H22V42.75H27.52V46.25C27.52 47.3027 27.8866 48 28.44 48H31.2C31.7534 48 32.12 47.3027 32.12 46.25V35.75C32.12 34.6973 31.7534 34 31.2 34H28.44ZM58.8 34C58.2466 34 57.88 34.6973 57.88 35.75V46.25C57.88 47.3027 58.2466 48 58.8 48H61.56C62.1134 48 62.48 47.3027 62.48 46.25V42.75H68V39.25H62.48V35.75C62.48 34.6973 62.1134 34 61.56 34H58.8ZM33.04 39.25V42.75H56.96V39.25H33.04Z" fill="black"/>
<path d="M37.6797 65.1953C37.7839 65.2943 37.8359 65.4141 37.8359 65.5547C37.8359 65.7578 37.737 65.9141 37.5391 66.0234C37.3464 66.1276 37.1641 66.1016 36.9922 65.9453C36.5495 65.5391 35.9141 65.224 35.0859 65C34.263 64.776 33.3906 64.6641 32.4688 64.6641C31.9948 64.6641 31.5286 64.6953 31.0703 64.7578C29.3828 65.1016 28.1797 65.7917 27.4609 66.8281C27.2266 67.1667 27.0573 67.5156 26.9531 67.875C26.849 68.2292 26.7969 68.5833 26.7969 68.9375C26.7969 69.5833 26.9401 70.2109 27.2266 70.8203C27.513 71.4245 27.8698 71.9557 28.2969 72.4141C28.7969 72.9505 29.4271 73.3958 30.1875 73.75C30.9479 74.1042 31.8125 74.2812 32.7812 74.2812C33.3021 74.2812 33.8359 74.224 34.3828 74.1094C34.7943 74.0052 35.2057 73.8438 35.6172 73.625C36.0339 73.4062 36.4062 73.151 36.7344 72.8594C37.0677 72.5677 37.3099 72.2604 37.4609 71.9375C37.5964 71.651 37.6641 71.3542 37.6641 71.0469C37.6641 70.7396 37.6042 70.5078 37.4844 70.3516C37.3698 70.1901 37.2031 70.0703 36.9844 69.9922C36.7708 69.9141 36.5104 69.8385 36.2031 69.7656C35.8281 69.6771 35.3464 69.6328 34.7578 69.6328C34.4661 69.6328 34.1484 69.6432 33.8047 69.6641C33.4609 69.6797 33.138 69.7031 32.8359 69.7344C32.5339 69.7604 32.2995 69.7865 32.1328 69.8125L31.8047 69.8594C31.7786 69.8646 31.75 69.8672 31.7188 69.8672C31.5677 69.8672 31.4479 69.8125 31.3594 69.7031C31.276 69.5885 31.2344 69.4661 31.2344 69.3359C31.2344 69.2266 31.2656 69.125 31.3281 69.0312C31.3958 68.9323 31.5026 68.8724 31.6484 68.8516L31.9766 68.8047C32.1536 68.7786 32.3958 68.75 32.7031 68.7188C33.0104 68.6875 33.3411 68.6615 33.6953 68.6406C34.0495 68.6198 34.3854 68.6094 34.7031 68.6094C35.3802 68.6094 36 68.6719 36.5625 68.7969C37.1302 68.9219 37.5964 69.1198 37.9609 69.3906C38.4401 69.75 38.6797 70.3125 38.6797 71.0781C38.6797 72.1562 38.1042 73.125 36.9531 73.9844C36.2552 74.5052 35.474 74.875 34.6094 75.0938C33.9792 75.224 33.3672 75.2891 32.7734 75.2891C32.2214 75.2891 31.6823 75.2318 31.1562 75.1172C29.7031 74.7995 28.5026 74.1302 27.5547 73.1094C27.0391 72.5573 26.6146 71.9193 26.2812 71.1953C25.9479 70.4661 25.7812 69.7135 25.7812 68.9375C25.7812 68.4844 25.849 68.0312 25.9844 67.5781C26.1198 67.125 26.3359 66.6823 26.6328 66.25C27.5078 64.9844 28.9245 64.1536 30.8828 63.7578C30.888 63.7578 30.8932 63.7578 30.8984 63.7578C30.9036 63.7526 30.9089 63.75 30.9141 63.75C31.4193 63.6823 31.9323 63.6484 32.4531 63.6484C33.5208 63.6484 34.526 63.7865 35.4688 64.0625C36.4115 64.3333 37.1484 64.7109 37.6797 65.1953ZM46.0234 67.7578L46.1172 68.9297C46.1745 69.8724 46.2031 70.7578 46.2031 71.5859C46.2031 75.0703 45.6979 77.5026 44.6875 78.8828C44.4219 79.2474 44.1172 79.5156 43.7734 79.6875C43.4349 79.8594 43.0729 79.9453 42.6875 79.9453C42.1875 79.9453 41.6589 79.8099 41.1016 79.5391C40.9245 79.4505 40.8359 79.2969 40.8359 79.0781C40.8359 78.9271 40.9062 78.7917 41.0469 78.6719C41.1875 78.5521 41.3568 78.5365 41.5547 78.625C41.9661 78.8333 42.3359 78.9375 42.6641 78.9375C42.8932 78.9375 43.1016 78.888 43.2891 78.7891C43.6484 78.6016 43.9453 78.2656 44.1797 77.7812C44.4193 77.2969 44.6094 76.724 44.75 76.0625C44.8958 75.401 45 74.7109 45.0625 73.9922C45.1302 73.2682 45.1693 72.5755 45.1797 71.9141C45.0599 72.2474 44.9062 72.599 44.7188 72.9688C44.5312 73.3333 44.3099 73.6771 44.0547 74C43.8047 74.3229 43.526 74.5859 43.2188 74.7891C42.9167 74.9922 42.5859 75.0938 42.2266 75.0938C41.7995 75.0938 41.4375 74.9609 41.1406 74.6953C40.849 74.4245 40.6016 74.0417 40.3984 73.5469C40.0391 72.6823 39.8594 71.5417 39.8594 70.125C39.8594 69.3594 39.9115 68.5156 40.0156 67.5938C40.0312 67.4479 40.0885 67.3411 40.1875 67.2734C40.2865 67.2005 40.3958 67.1641 40.5156 67.1641C40.6406 67.1641 40.7552 67.2057 40.8594 67.2891C40.9688 67.3672 41.0234 67.487 41.0234 67.6484C41.0234 67.6693 41.0234 67.6901 41.0234 67.7109C40.9245 68.6068 40.875 69.4167 40.875 70.1406C40.875 71.4167 41.0286 72.4271 41.3359 73.1719C41.5859 73.7812 41.8854 74.0859 42.2344 74.0859C42.5521 74.0859 42.9089 73.8307 43.3047 73.3203C44.2161 72.138 44.7839 70.2891 45.0078 67.7734C45.0182 67.6276 45.0729 67.5182 45.1719 67.4453C45.276 67.3672 45.388 67.3281 45.5078 67.3281C45.6276 67.3281 45.737 67.3646 45.8359 67.4375C45.9401 67.5104 46.0026 67.6172 46.0234 67.7578ZM51.1406 67.3438C51.5208 67.3438 51.8698 67.4479 52.1875 67.6562C52.5052 67.8594 52.7839 68.125 53.0234 68.4531C53.2682 68.7812 53.4714 69.1224 53.6328 69.4766C53.9297 68.5859 54.349 67.9479 54.8906 67.5625C55.2396 67.3125 55.6042 67.1875 55.9844 67.1875C56.3281 67.1875 56.6589 67.2839 56.9766 67.4766C57.2995 67.6693 57.5911 67.9219 57.8516 68.2344C58.1641 68.6146 58.4089 69.0807 58.5859 69.6328C58.763 70.1849 58.8516 70.8099 58.8516 71.5078C58.8516 72.5807 58.5651 73.7005 57.9922 74.8672C57.8984 75.0443 57.7448 75.1328 57.5312 75.1328C57.3802 75.1328 57.2422 75.0625 57.1172 74.9219C56.9922 74.7812 56.9792 74.612 57.0781 74.4141C57.5833 73.3932 57.8359 72.4271 57.8359 71.5156C57.8359 70.9375 57.763 70.4219 57.6172 69.9688C57.4766 69.5156 57.2812 69.1354 57.0312 68.8281C56.7031 68.4271 56.3594 68.2266 56 68.2266C55.599 68.2266 55.2578 68.4714 54.9766 68.9609C54.7526 69.3568 54.5833 69.7839 54.4688 70.2422C54.3594 70.7005 54.2839 71.1823 54.2422 71.6875C54.2734 71.9271 54.2969 72.1667 54.3125 72.4062C54.3333 72.6458 54.3438 72.8932 54.3438 73.1484C54.3438 73.3672 54.3359 73.5964 54.3203 73.8359C54.3099 74.0755 54.2865 74.3333 54.25 74.6094C54.2344 74.7552 54.1771 74.8646 54.0781 74.9375C53.9792 75.0052 53.8698 75.0391 53.75 75.0391C53.6302 75.0391 53.5182 75.0026 53.4141 74.9297C53.3099 74.8516 53.25 74.737 53.2344 74.5859C53.1979 73.9974 53.1797 73.4479 53.1797 72.9375C53.1797 72.5 53.1927 72.0911 53.2188 71.7109C53.0729 70.7057 52.7995 69.9062 52.3984 69.3125C51.9661 68.6667 51.5599 68.3438 51.1797 68.3438C50.8568 68.3438 50.5547 68.5859 50.2734 69.0703C49.9609 69.612 49.737 70.3854 49.6016 71.3906C49.6068 71.7031 49.6094 72 49.6094 72.2812C49.6094 72.974 49.5885 73.5703 49.5469 74.0703L49.5 74.6094C49.4896 74.7604 49.4323 74.8724 49.3281 74.9453C49.2292 75.0182 49.1198 75.0547 49 75.0547C48.875 75.0547 48.7604 75.0156 48.6562 74.9375C48.5521 74.8594 48.4948 74.7422 48.4844 74.5859C48.4688 74.2214 48.4609 73.8698 48.4609 73.5312C48.4609 72.7135 48.5026 71.9818 48.5859 71.3359C48.5391 69.7214 48.3021 68.6458 47.875 68.1094C47.7969 68.0156 47.7578 67.9141 47.7578 67.8047C47.7578 67.6641 47.8125 67.5443 47.9219 67.4453C48.0365 67.3411 48.1615 67.2891 48.2969 67.2891C48.4479 67.2891 48.5729 67.3516 48.6719 67.4766C48.9271 67.8047 49.1276 68.2396 49.2734 68.7812C49.7526 67.8229 50.375 67.3438 51.1406 67.3438Z" fill="black"/>
<rect x="0.5" y="0.5" width="89" height="89" stroke="#FFFDFD"/>
</svg>
