<svg width="90" height="90" viewBox="0 0 90 90" fill="none" xmlns="http://www.w3.org/2000/svg">
<rect x="0.5" y="0.5" width="89" height="89" stroke="white"/>
<path d="M23.9844 63.3047C23.8646 63.3047 23.75 63.2526 23.6406 63.1484C23.5312 63.0495 23.4818 62.9375 23.4922 62.8125C23.6797 60.2969 24.0833 58.0339 24.7031 56.0234C25.3229 54.0234 26.0625 52.6979 26.9219 52.0469C27.276 51.7812 27.6198 51.6484 27.9531 51.6484C28.901 51.6484 29.7891 52.6953 30.6172 54.7891C31.3411 56.6276 31.9714 59.0391 32.5078 62.0234L32.6328 62.7109C32.638 62.7422 32.6406 62.7708 32.6406 62.7969C32.6406 62.9531 32.5833 63.0729 32.4688 63.1562C32.3594 63.2448 32.2396 63.2891 32.1094 63.2891C32 63.2891 31.8984 63.2552 31.8047 63.1875C31.7109 63.125 31.651 63.0234 31.625 62.8828L31.5078 62.2031C31.388 61.5312 31.263 60.8906 31.1328 60.2812C31.0026 59.6667 30.8672 59.0833 30.7266 58.5312H25.125C24.8177 60.0521 24.612 61.4896 24.5078 62.8438C24.4974 62.9792 24.4401 63.0885 24.3359 63.1719C24.2318 63.2604 24.1146 63.3047 23.9844 63.3047ZM25.3516 57.5156H30.4609C29.8776 55.4375 29.2734 54.0052 28.6484 53.2188C28.5026 53.0312 28.3568 52.8958 28.2109 52.8125C28.0755 52.7396 27.9766 52.7057 27.9141 52.7109C27.5807 52.7526 27.2526 53.0156 26.9297 53.5C26.3047 54.4375 25.7786 55.776 25.3516 57.5156ZM34.1875 62.2734C34.1875 61.9036 34.2135 61.4792 34.2656 61C34.3229 60.5208 34.3516 60.0833 34.3516 59.6875C34.3516 59.6667 34.3516 59.6458 34.3516 59.625C34.3516 59.2917 34.3698 59.0729 34.4062 58.9688C34.4219 58.5052 34.4349 57.8724 34.4453 57.0703C34.4609 56.2682 34.4766 55.2969 34.4922 54.1562L34.5156 52.2422C34.5156 52.1016 34.5651 51.9844 34.6641 51.8906C34.7682 51.7917 34.8906 51.7422 35.0312 51.7422C35.1667 51.7422 35.2839 51.7943 35.3828 51.8984C35.4818 52.0026 35.5312 52.1224 35.5312 52.2578L35.5078 54.1641C35.5026 54.7057 35.4974 55.1953 35.4922 55.6328C35.487 56.0651 35.4792 56.4427 35.4688 56.7656C36.5208 55.7031 37.5495 55.1406 38.5547 55.0781C38.6276 55.0729 38.7031 55.0703 38.7812 55.0703C39.6719 55.0703 40.3984 55.4219 40.9609 56.125C41.2839 56.5312 41.5365 57.0026 41.7188 57.5391C41.9062 58.0755 42 58.625 42 59.1875C42 59.6042 41.9427 60.0156 41.8281 60.4219C41.7188 60.8281 41.5443 61.2083 41.3047 61.5625C40.9609 62.0677 40.5234 62.4583 39.9922 62.7344C39.4609 63.0052 38.8385 63.1406 38.125 63.1406C36.9688 63.1406 36.0339 62.5521 35.3203 61.375C35.3099 61.599 35.2969 61.8021 35.2812 61.9844C35.2708 62.1667 35.2578 62.3255 35.2422 62.4609C35.2266 62.6016 35.1719 62.7266 35.0781 62.8359C34.9896 62.9401 34.8776 62.9922 34.7422 62.9922C34.5443 62.9922 34.401 62.9219 34.3125 62.7812C34.2292 62.6354 34.1875 62.4661 34.1875 62.2734ZM38.1172 62.125C38.9974 62.125 39.6927 61.849 40.2031 61.2969C40.7188 60.7448 40.9766 60.026 40.9766 59.1406C40.9766 58.6354 40.8854 58.151 40.7031 57.6875C40.526 57.2188 40.2708 56.8359 39.9375 56.5391C39.6042 56.237 39.2109 56.0859 38.7578 56.0859C38.7214 56.0859 38.6849 56.0859 38.6484 56.0859C37.6641 56.1536 36.5938 56.9036 35.4375 58.3359C35.4323 58.4557 35.4297 58.5755 35.4297 58.6953C35.4297 58.8151 35.4271 58.9323 35.4219 59.0469C35.4635 59.1615 35.5182 59.3203 35.5859 59.5234C36.1745 61.2578 37.0182 62.125 38.1172 62.125ZM47.5781 54.8984C48.875 54.9766 49.9375 55.6172 50.7656 56.8203C50.9896 57.1432 51.1615 57.5026 51.2812 57.8984C51.401 58.2891 51.4609 58.724 51.4609 59.2031C51.4609 59.9167 51.2917 60.5573 50.9531 61.125C50.6146 61.6875 50.2057 62.1224 49.7266 62.4297C49.4193 62.6276 49.0729 62.7865 48.6875 62.9062C48.3021 63.0208 47.9036 63.0781 47.4922 63.0781C46.7266 63.0781 46.0729 62.9115 45.5312 62.5781C44.9948 62.2396 44.5625 61.8203 44.2344 61.3203C43.7917 60.6328 43.5703 59.8958 43.5703 59.1094C43.5703 58.901 43.5859 58.6901 43.6172 58.4766C43.763 57.4401 44.1979 56.5911 44.9219 55.9297C45.651 55.263 46.474 54.9115 47.3906 54.875C47.4531 54.8646 47.5156 54.8724 47.5781 54.8984ZM50.4375 59.1484C50.4375 58.5443 50.2969 58.0052 50.0156 57.5312C49.7344 57.0521 49.3698 56.6719 48.9219 56.3906C48.4792 56.1042 48.013 55.9453 47.5234 55.9141C47.4818 55.9141 47.4401 55.9062 47.3984 55.8906C46.8672 55.9219 46.388 56.0859 45.9609 56.3828C45.5339 56.6745 45.1953 57.0599 44.9453 57.5391C44.7005 58.013 44.5781 58.5417 44.5781 59.125C44.5781 59.5729 44.6641 59.9792 44.8359 60.3438C45.013 60.7083 45.2396 61.0208 45.5156 61.2812C45.7969 61.5365 46.0885 61.7266 46.3906 61.8516C46.7552 61.9974 47.1302 62.0703 47.5156 62.0703C48.0521 62.0703 48.5391 61.9453 48.9766 61.6953C49.4193 61.4401 49.7552 61.1328 49.9844 60.7734C50.1354 60.5339 50.2474 60.276 50.3203 60C50.3984 59.7188 50.4375 59.4349 50.4375 59.1484ZM58.6094 55.7031C58.6823 55.4115 58.8516 55.2656 59.1172 55.2656C59.2422 55.2656 59.3516 55.3125 59.4453 55.4062C59.5443 55.5 59.6016 55.6068 59.6172 55.7266C59.6641 56.2005 59.6875 56.6536 59.6875 57.0859C59.6875 57.6953 59.6406 58.2656 59.5469 58.7969C59.5781 60.5938 59.7396 61.763 60.0312 62.3047C60.0677 62.3672 60.0885 62.401 60.0938 62.4062C60.2656 62.5 60.3516 62.651 60.3516 62.8594C60.3516 63.0573 60.2682 63.2005 60.1016 63.2891C59.9349 63.3776 59.7474 63.3672 59.5391 63.2578C59.1484 63.0547 58.8672 62.3724 58.6953 61.2109C58.5234 61.5078 58.2943 61.8073 58.0078 62.1094C57.7214 62.4115 57.3932 62.6641 57.0234 62.8672C56.6589 63.0651 56.263 63.1641 55.8359 63.1641C55.5599 63.1641 55.2865 63.1146 55.0156 63.0156C54.3646 62.776 53.8698 62.2865 53.5312 61.5469C53.1927 60.8021 53.0234 59.9505 53.0234 58.9922C53.0234 57.9714 53.2005 56.7995 53.5547 55.4766C53.5859 55.362 53.651 55.2734 53.75 55.2109C53.849 55.1432 53.9531 55.1094 54.0625 55.1094C54.2031 55.1094 54.3307 55.1719 54.4453 55.2969C54.5599 55.4219 54.5911 55.5703 54.5391 55.7422C54.2005 56.9609 54.0312 58.0339 54.0312 58.9609C54.0312 59.6641 54.1276 60.2839 54.3203 60.8203C54.4557 61.1953 54.651 61.513 54.9062 61.7734C55.1615 62.0286 55.4661 62.1562 55.8203 62.1562C56.1224 62.1562 56.4349 62.0521 56.7578 61.8438C57.6536 61.2708 58.2448 60.2266 58.5312 58.7109C58.5312 58.6068 58.5286 58.5 58.5234 58.3906C58.5234 58.276 58.5234 58.1615 58.5234 58.0469C58.5234 57.8229 58.526 57.5911 58.5312 57.3516C58.5365 57.1068 58.5443 56.8568 58.5547 56.6016L58.6094 55.7031ZM65.8125 62.75C65.8125 62.8906 65.7604 63.0104 65.6562 63.1094C65.5521 63.2083 65.4323 63.2578 65.2969 63.2578C65.2135 63.2578 65.1354 63.237 65.0625 63.1953C64.3906 62.8359 63.9844 61.8542 63.8438 60.25C63.8125 59.901 63.7891 59.526 63.7734 59.125C63.7578 58.7188 63.75 58.2839 63.75 57.8203C63.75 57.3724 63.7578 56.8828 63.7734 56.3516C63.5182 56.3516 63.263 56.3516 63.0078 56.3516C62.7526 56.3464 62.4948 56.3438 62.2344 56.3438C62.099 56.3438 61.9792 56.2917 61.875 56.1875C61.776 56.0781 61.7266 55.9557 61.7266 55.8203C61.7266 55.6953 61.776 55.5833 61.875 55.4844C61.9792 55.3802 62.099 55.3281 62.2344 55.3281L63.8047 55.3359C63.8099 55.1797 63.8177 54.9401 63.8281 54.6172C63.8385 54.2943 63.849 53.9505 63.8594 53.5859C63.8698 53.2214 63.875 52.901 63.875 52.625C63.875 52.5417 63.8724 52.4661 63.8672 52.3984C63.8672 52.3307 63.8672 52.2682 63.8672 52.2109C63.8672 52.0547 63.9193 51.9349 64.0234 51.8516C64.1328 51.7682 64.25 51.7266 64.375 51.7266C64.5 51.7266 64.6146 51.7656 64.7188 51.8438C64.8229 51.9219 64.8776 52.0417 64.8828 52.2031C64.888 52.3073 64.8906 52.4401 64.8906 52.6016C64.8906 52.888 64.8854 53.2135 64.875 53.5781C64.8646 53.9427 64.8542 54.2891 64.8438 54.6172C64.8333 54.9401 64.8255 55.1823 64.8203 55.3438L66 55.3516C66.1615 55.3516 66.2839 55.4062 66.3672 55.5156C66.4505 55.625 66.4922 55.7422 66.4922 55.8672C66.4922 55.9922 66.4505 56.1068 66.3672 56.2109C66.2891 56.3151 66.1693 56.3672 66.0078 56.3672C66.0026 56.3672 66 56.3672 66 56.3672C65.7969 56.3672 65.5938 56.3672 65.3906 56.3672C65.1927 56.362 64.9922 56.3594 64.7891 56.3594C64.7786 56.8281 64.7734 57.2708 64.7734 57.6875C64.7734 59.5729 64.901 60.8984 65.1562 61.6641C65.276 62.013 65.401 62.2214 65.5312 62.2891C65.6094 62.3307 65.6745 62.3932 65.7266 62.4766C65.7839 62.5599 65.8125 62.651 65.8125 62.75ZM16.4531 72.8984C17.75 72.9766 18.8125 73.6172 19.6406 74.8203C19.8646 75.1432 20.0365 75.5026 20.1562 75.8984C20.276 76.2891 20.3359 76.724 20.3359 77.2031C20.3359 77.9167 20.1667 78.5573 19.8281 79.125C19.4896 79.6875 19.0807 80.1224 18.6016 80.4297C18.2943 80.6276 17.9479 80.7865 17.5625 80.9062C17.1771 81.0208 16.7786 81.0781 16.3672 81.0781C15.6016 81.0781 14.9479 80.9115 14.4062 80.5781C13.8698 80.2396 13.4375 79.8203 13.1094 79.3203C12.6667 78.6328 12.4453 77.8958 12.4453 77.1094C12.4453 76.901 12.4609 76.6901 12.4922 76.4766C12.638 75.4401 13.0729 74.5911 13.7969 73.9297C14.526 73.263 15.349 72.9115 16.2656 72.875C16.3281 72.8646 16.3906 72.8724 16.4531 72.8984ZM19.3125 77.1484C19.3125 76.5443 19.1719 76.0052 18.8906 75.5312C18.6094 75.0521 18.2448 74.6719 17.7969 74.3906C17.3542 74.1042 16.888 73.9453 16.3984 73.9141C16.3568 73.9141 16.3151 73.9062 16.2734 73.8906C15.7422 73.9219 15.263 74.0859 14.8359 74.3828C14.4089 74.6745 14.0703 75.0599 13.8203 75.5391C13.5755 76.013 13.4531 76.5417 13.4531 77.125C13.4531 77.5729 13.5391 77.9792 13.7109 78.3438C13.888 78.7083 14.1146 79.0208 14.3906 79.2812C14.6719 79.5365 14.9635 79.7266 15.2656 79.8516C15.6302 79.9974 16.0052 80.0703 16.3906 80.0703C16.9271 80.0703 17.4141 79.9453 17.8516 79.6953C18.2943 79.4401 18.6302 79.1328 18.8594 78.7734C19.0104 78.5339 19.1224 78.276 19.1953 78C19.2734 77.7188 19.3125 77.4349 19.3125 77.1484ZM26.7734 73.1953C26.9401 73.1953 27.0651 73.25 27.1484 73.3594C27.237 73.4688 27.2812 73.6146 27.2812 73.7969C27.2812 73.9583 27.2682 74.2109 27.2422 74.5547C27.2214 74.8932 27.2109 75.1875 27.2109 75.4375C27.2109 76.1198 27.2786 76.776 27.4141 77.4062C27.5495 78.0312 27.7318 78.5417 27.9609 78.9375C28.1589 79.276 28.388 79.5495 28.6484 79.7578C28.9141 79.9609 29.1979 80.0625 29.5 80.0625C29.8594 80.0625 30.2188 79.9062 30.5781 79.5938C31.1146 79.1146 31.3828 78.3464 31.3828 77.2891C31.3828 76.2995 31.0781 75.2266 30.4688 74.0703C30.4219 73.9922 30.3984 73.9115 30.3984 73.8281C30.3984 73.6875 30.4557 73.5703 30.5703 73.4766C30.6849 73.3776 30.8099 73.3281 30.9453 73.3281C31.1328 73.3281 31.2708 73.4167 31.3594 73.5938C32.0521 74.8906 32.3984 76.1224 32.3984 77.2891C32.3984 77.987 32.2943 78.5938 32.0859 79.1094C31.8828 79.625 31.5911 80.0521 31.2109 80.3906C30.6953 80.849 30.1302 81.0781 29.5156 81.0781C28.9844 81.0781 28.5208 80.9375 28.125 80.6562C27.7292 80.375 27.401 80.0104 27.1406 79.5625C26.8802 79.1094 26.6797 78.6328 26.5391 78.1328C26.1016 79.513 25.5677 80.4323 24.9375 80.8906C24.7083 81.0573 24.4766 81.1406 24.2422 81.1406C24.0339 81.1406 23.8229 81.0755 23.6094 80.9453C23.1458 80.6484 22.7448 79.8854 22.4062 78.6562C22.0677 77.4271 21.8984 75.7891 21.8984 73.7422C21.8984 73.5807 21.9505 73.4609 22.0547 73.3828C22.1641 73.2995 22.2812 73.2578 22.4062 73.2578C22.5312 73.2578 22.6458 73.2969 22.75 73.375C22.8542 73.4531 22.9089 73.5729 22.9141 73.7344C22.9974 76.4688 23.2526 78.3438 23.6797 79.3594C23.8464 79.75 24.0052 79.9948 24.1562 80.0938C24.1979 80.1198 24.224 80.1328 24.2344 80.1328C24.2448 80.1328 24.2786 80.112 24.3359 80.0703C24.6016 79.8724 24.8385 79.5651 25.0469 79.1484C25.2604 78.7266 25.4453 78.2526 25.6016 77.7266C25.7578 77.1953 25.8854 76.6536 25.9844 76.1016C26.0885 75.5495 26.1641 75.0417 26.2109 74.5781C26.2214 74.375 26.2318 74.1667 26.2422 73.9531C26.2526 73.7396 26.2917 73.5599 26.3594 73.4141C26.4323 73.2682 26.5703 73.1953 26.7734 73.1953ZM34.4844 72.9531C34.6354 72.9531 34.7604 73.013 34.8594 73.1328C35.2344 73.5859 35.5078 74.2839 35.6797 75.2266C36.388 73.9453 37.3021 73.224 38.4219 73.0625C38.599 73.0365 38.7734 73.0234 38.9453 73.0234C39.5703 73.0234 40.1224 73.1667 40.6016 73.4531C41.0807 73.7396 41.474 74.1172 41.7812 74.5859C42.0885 75.0547 42.2969 75.5599 42.4062 76.1016C42.4792 76.4505 42.5156 76.8073 42.5156 77.1719C42.5156 78.3229 42.1484 79.5391 41.4141 80.8203C41.3203 80.9818 41.1771 81.0625 40.9844 81.0625C40.8229 81.0625 40.6771 80.987 40.5469 80.8359C40.4219 80.6797 40.4167 80.5052 40.5312 80.3125C41.1771 79.1875 41.5 78.138 41.5 77.1641C41.5 76.8724 41.4714 76.5885 41.4141 76.3125C41.3307 75.9115 41.1771 75.5391 40.9531 75.1953C40.7344 74.8516 40.4531 74.5755 40.1094 74.3672C39.7708 74.1536 39.3802 74.0469 38.9375 74.0469C38.8177 74.0469 38.6953 74.0547 38.5703 74.0703C38.0547 74.1432 37.6146 74.3698 37.25 74.75C36.8854 75.1302 36.5911 75.5911 36.3672 76.1328C36.1484 76.6693 35.9896 77.2161 35.8906 77.7734C35.8906 77.8411 35.8906 77.9089 35.8906 77.9766C35.8906 78.7266 35.8516 79.4818 35.7734 80.2422L35.7422 80.5469C35.7266 80.6927 35.6693 80.8021 35.5703 80.875C35.4714 80.9427 35.3646 80.9766 35.25 80.9766C35.125 80.9766 35.0078 80.9375 34.8984 80.8594C34.7943 80.7812 34.7396 80.6641 34.7344 80.5078C34.724 80.2734 34.7188 80.0443 34.7188 79.8203C34.7188 79.0547 34.7708 78.349 34.875 77.7031C34.8542 76.5052 34.7604 75.6068 34.5938 75.0078C34.4323 74.4141 34.2839 74.0339 34.1484 73.8672C34.0234 73.7109 33.9609 73.5729 33.9609 73.4531C33.9609 73.3021 34.0156 73.1823 34.125 73.0938C34.2344 73 34.3542 72.9531 34.4844 72.9531ZM45.1953 78.3516C45.3464 78.8932 45.638 79.3177 46.0703 79.625C46.5078 79.9323 47.0573 80.0859 47.7188 80.0859C48.6042 80.0859 49.6328 79.7969 50.8047 79.2188C50.8776 79.1823 50.9531 79.1641 51.0312 79.1641C51.1667 79.1641 51.2839 79.2109 51.3828 79.3047C51.487 79.3984 51.5391 79.5156 51.5391 79.6562C51.5391 79.8802 51.4453 80.0391 51.2578 80.1328C50.6641 80.4245 50.0599 80.6589 49.4453 80.8359C48.8307 81.013 48.237 81.1016 47.6641 81.1016C47.0755 81.1016 46.526 80.9922 46.0156 80.7734C45.5104 80.5547 45.0781 80.1901 44.7188 79.6797C44.5156 79.3932 44.3594 79.0885 44.25 78.7656C44.1406 78.4427 44.0859 78.0807 44.0859 77.6797C44.0859 77.5026 44.0964 77.3177 44.1172 77.125C44.237 76.1302 44.651 75.2786 45.3594 74.5703C46.276 73.6536 47.4818 73.1953 48.9766 73.1953C49.5495 73.1953 50.0521 73.3073 50.4844 73.5312C50.9167 73.75 51.224 74.0625 51.4062 74.4688C51.5052 74.6927 51.5547 74.9297 51.5547 75.1797C51.5547 75.6068 51.4427 75.9844 51.2188 76.3125C51 76.6354 50.6875 76.9349 50.2812 77.2109C49.1406 77.9818 47.487 78.3672 45.3203 78.3672C45.2891 78.3672 45.2474 78.362 45.1953 78.3516ZM45.1094 77.3984C45.1823 77.3672 45.2526 77.3516 45.3203 77.3516C47.2839 77.3516 48.75 77.0234 49.7188 76.3672C49.9896 76.1849 50.1953 76 50.3359 75.8125C50.4766 75.6198 50.5469 75.3984 50.5469 75.1484C50.5469 75.0026 50.513 74.8854 50.4453 74.7969C50.3828 74.7083 50.2995 74.625 50.1953 74.5469C49.9036 74.3229 49.5 74.2109 48.9844 74.2109C48.2917 74.2109 47.6615 74.3411 47.0938 74.6016C46.526 74.8568 46.0651 75.224 45.7109 75.7031C45.362 76.1771 45.1615 76.7422 45.1094 77.3984ZM53.6484 81.0625C53.5026 81.0625 53.3776 80.9922 53.2734 80.8516C53.1693 80.7057 53.1172 80.5755 53.1172 80.4609C53.1172 80.362 53.1328 80.2604 53.1641 80.1562C53.2005 80.0521 53.2214 79.9531 53.2266 79.8594C53.2422 79.5729 53.2708 79.1875 53.3125 78.7031C53.3542 78.2135 53.375 77.7396 53.375 77.2812C53.375 76.9479 53.3698 76.5859 53.3594 76.1953C53.3281 75.0443 53.2812 74.3438 53.2188 74.0938C53.1927 73.9844 53.1797 73.8854 53.1797 73.7969C53.1797 73.6458 53.2214 73.5234 53.3047 73.4297C53.3932 73.3307 53.5156 73.2812 53.6719 73.2812C53.7917 73.2812 53.8958 73.3203 53.9844 73.3984C54.0729 73.4766 54.1302 73.5651 54.1562 73.6641C54.2708 74.0964 54.3385 74.7604 54.3594 75.6562C55.1198 74.1615 56.1484 73.3333 57.4453 73.1719C57.4661 73.1719 57.487 73.1719 57.5078 73.1719C57.6641 73.1719 57.7839 73.2292 57.8672 73.3438C57.9557 73.4531 58 73.5729 58 73.7031C58 73.8177 57.9661 73.9219 57.8984 74.0156C57.8307 74.1094 57.7214 74.1641 57.5703 74.1797C56.2474 74.3464 55.2734 75.5312 54.6484 77.7344C54.4974 78.2708 54.3828 78.8229 54.3047 79.3906C54.2891 79.625 54.2734 79.8099 54.2578 79.9453C54.2474 80.0807 54.2422 80.2083 54.2422 80.3281C54.2422 80.3958 54.2474 80.4505 54.2578 80.4922C54.2682 80.5339 54.2734 80.5703 54.2734 80.6016C54.2734 80.7161 54.1953 80.8229 54.0391 80.9219C53.888 81.0156 53.7578 81.0625 53.6484 81.0625ZM63.6641 83.3125C63.6641 83.4323 63.6016 83.5495 63.4766 83.6641C63.3568 83.7839 63.237 83.8438 63.1172 83.8438C62.9922 83.8438 62.8698 83.7786 62.75 83.6484C60.6406 81.3359 59.5859 79.0547 59.5859 76.8047C59.5859 75.0339 60.2396 73.2839 61.5469 71.5547C62.2292 70.6484 62.6589 70.1901 62.8359 70.1797C62.9922 70.1641 63.1302 70.2057 63.25 70.3047C63.3698 70.4036 63.4297 70.5182 63.4297 70.6484C63.4297 70.7943 63.3516 70.9583 63.1953 71.1406C61.9974 72.5104 61.2214 73.7943 60.8672 74.9922C60.6641 75.6849 60.5625 76.3281 60.5625 76.9219C60.5625 77.349 60.6146 77.75 60.7188 78.125C61.1927 79.8333 62.1198 81.4453 63.5 82.9609C63.6094 83.0807 63.6641 83.1979 63.6641 83.3125ZM65.2266 75.2812C65.2266 74.7969 65.3542 74.3906 65.6094 74.0625C65.8646 73.7292 66.1953 73.4792 66.6016 73.3125C67.0078 73.1458 67.4401 73.0625 67.8984 73.0625C69.388 73.0625 70.6302 73.5365 71.625 74.4844C71.7292 74.5833 71.7812 74.7005 71.7812 74.8359C71.7812 74.9661 71.7344 75.0833 71.6406 75.1875C71.5521 75.2917 71.4349 75.3464 71.2891 75.3516C71.1432 75.3516 71.0234 75.3073 70.9297 75.2188C70.6328 74.9323 70.2318 74.6719 69.7266 74.4375C69.2266 74.1979 68.7161 74.0781 68.1953 74.0781C67.1224 74.0781 66.4896 74.3698 66.2969 74.9531C66.2552 75.0781 66.2344 75.1979 66.2344 75.3125C66.2344 75.625 66.3802 75.9141 66.6719 76.1797C66.9948 76.4766 67.5365 76.625 68.2969 76.625C68.4219 76.625 68.5547 76.6198 68.6953 76.6094C68.8359 76.599 68.9766 76.5938 69.1172 76.5938C69.7891 76.5938 70.3333 76.6953 70.75 76.8984C71.1667 77.0964 71.4844 77.4141 71.7031 77.8516C71.8438 78.1432 71.9141 78.4271 71.9141 78.7031C71.9141 78.8281 71.901 78.9531 71.875 79.0781C71.7031 79.8385 71.2318 80.3932 70.4609 80.7422C69.9766 80.9661 69.4635 81.0781 68.9219 81.0781C68.8125 81.0781 68.7005 81.0729 68.5859 81.0625C67.3516 80.9479 66.3255 80.5312 65.5078 79.8125C65.3932 79.7135 65.3359 79.5859 65.3359 79.4297C65.3359 79.2891 65.3854 79.1719 65.4844 79.0781C65.5885 78.9792 65.7083 78.9297 65.8438 78.9297C65.974 78.9297 66.0859 78.9688 66.1797 79.0469C66.5443 79.3646 66.9505 79.612 67.3984 79.7891C67.8464 79.9661 68.3594 80.0547 68.9375 80.0547C69.6615 80.0547 70.2135 79.8464 70.5938 79.4297C70.8021 79.2005 70.9062 78.9661 70.9062 78.7266C70.9062 78.5859 70.8698 78.4427 70.7969 78.2969C70.5729 77.8385 70.099 77.6094 69.375 77.6094C69.2188 77.6094 69.0573 77.6146 68.8906 77.625C68.724 77.6302 68.5729 77.6328 68.4375 77.6328C67.8177 77.6328 67.3594 77.5938 67.0625 77.5156C66.651 77.4062 66.2865 77.2057 65.9688 76.9141C65.651 76.6224 65.4323 76.2734 65.3125 75.8672C65.2552 75.6745 65.2266 75.4792 65.2266 75.2812ZM73.4766 83.3125C73.4766 83.1979 73.5312 83.0807 73.6406 82.9609C75.0208 81.4453 75.9479 79.8333 76.4219 78.125C76.526 77.75 76.5781 77.349 76.5781 76.9219C76.5781 76.3281 76.4766 75.6849 76.2734 74.9922C75.9193 73.7943 75.1432 72.5104 73.9453 71.1406C73.7891 70.9583 73.7109 70.7943 73.7109 70.6484C73.7109 70.513 73.7708 70.3984 73.8906 70.3047C74.0104 70.2057 74.1484 70.1641 74.3047 70.1797C74.4818 70.1901 74.9115 70.6484 75.5938 71.5547C76.901 73.2839 77.5547 75.0339 77.5547 76.8047C77.5547 79.0547 76.5 81.3359 74.3906 83.6484C74.2708 83.7786 74.1484 83.8438 74.0234 83.8438C73.9036 83.8438 73.7812 83.7839 73.6562 83.6641C73.5365 83.5495 73.4766 83.4323 73.4766 83.3125Z" fill="black"/>
<circle cx="47" cy="21" r="11.5" stroke="black" stroke-width="3"/>
<rect x="40.5" y="39.5" width="13" height="1" rx="0.5" stroke="black"/>
<rect x="46.5" y="33.5" width="1" height="16" rx="0.5" stroke="black"/>
</svg>
