<svg width="90" height="90" viewBox="0 0 90 90" fill="none" xmlns="http://www.w3.org/2000/svg">
<path d="M14.0703 58.1016L14.0781 62.8594C14.0781 63.0208 14.0234 63.1432 13.9141 63.2266C13.8099 63.3099 13.6953 63.3516 13.5703 63.3516C13.4401 63.3516 13.3229 63.3099 13.2188 63.2266C13.1146 63.1432 13.0625 63.0208 13.0625 62.8594L13.0391 52.2891C13.0391 52.1536 13.0911 52.0365 13.1953 51.9375C13.2995 51.8333 13.4167 51.7812 13.5469 51.7812C13.5521 51.7812 13.5573 51.7812 13.5625 51.7812C15.4688 51.8438 16.9349 52.263 17.9609 53.0391C18.763 53.6432 19.1641 54.3516 19.1641 55.1641C19.1641 55.9089 18.8177 56.5521 18.125 57.0938C17.2552 57.7708 16.0521 58.1094 14.5156 58.1094C14.3698 58.1094 14.2214 58.1068 14.0703 58.1016ZM14.0625 57.0859C14.2135 57.0911 14.3594 57.0938 14.5 57.0938C15.8125 57.0938 16.8125 56.8281 17.5 56.2969C17.9323 55.9635 18.1484 55.5859 18.1484 55.1641C18.1484 54.6901 17.8828 54.2526 17.3516 53.8516C16.5807 53.2786 15.4818 52.9375 14.0547 52.8281L14.0625 57.0859ZM21.8359 60.3516C21.987 60.8932 22.2786 61.3177 22.7109 61.625C23.1484 61.9323 23.6979 62.0859 24.3594 62.0859C25.2448 62.0859 26.2734 61.7969 27.4453 61.2188C27.5182 61.1823 27.5938 61.1641 27.6719 61.1641C27.8073 61.1641 27.9245 61.2109 28.0234 61.3047C28.1276 61.3984 28.1797 61.5156 28.1797 61.6562C28.1797 61.8802 28.0859 62.0391 27.8984 62.1328C27.3047 62.4245 26.7005 62.6589 26.0859 62.8359C25.4714 63.013 24.8776 63.1016 24.3047 63.1016C23.7161 63.1016 23.1667 62.9922 22.6562 62.7734C22.151 62.5547 21.7188 62.1901 21.3594 61.6797C21.1562 61.3932 21 61.0885 20.8906 60.7656C20.7812 60.4427 20.7266 60.0807 20.7266 59.6797C20.7266 59.5026 20.737 59.3177 20.7578 59.125C20.8776 58.1302 21.2917 57.2786 22 56.5703C22.9167 55.6536 24.1224 55.1953 25.6172 55.1953C26.1901 55.1953 26.6927 55.3073 27.125 55.5312C27.5573 55.75 27.8646 56.0625 28.0469 56.4688C28.1458 56.6927 28.1953 56.9297 28.1953 57.1797C28.1953 57.6068 28.0833 57.9844 27.8594 58.3125C27.6406 58.6354 27.3281 58.9349 26.9219 59.2109C25.7812 59.9818 24.1276 60.3672 21.9609 60.3672C21.9297 60.3672 21.888 60.362 21.8359 60.3516ZM21.75 59.3984C21.8229 59.3672 21.8932 59.3516 21.9609 59.3516C23.9245 59.3516 25.3906 59.0234 26.3594 58.3672C26.6302 58.1849 26.8359 58 26.9766 57.8125C27.1172 57.6198 27.1875 57.3984 27.1875 57.1484C27.1875 57.0026 27.1536 56.8854 27.0859 56.7969C27.0234 56.7083 26.9401 56.625 26.8359 56.5469C26.5443 56.3229 26.1406 56.2109 25.625 56.2109C24.9323 56.2109 24.3021 56.3411 23.7344 56.6016C23.1667 56.8568 22.7057 57.224 22.3516 57.7031C22.0026 58.1771 21.8021 58.7422 21.75 59.3984ZM33.7656 54.8984C35.0625 54.9766 36.125 55.6172 36.9531 56.8203C37.1771 57.1432 37.349 57.5026 37.4688 57.8984C37.5885 58.2891 37.6484 58.724 37.6484 59.2031C37.6484 59.9167 37.4792 60.5573 37.1406 61.125C36.8021 61.6875 36.3932 62.1224 35.9141 62.4297C35.6068 62.6276 35.2604 62.7865 34.875 62.9062C34.4896 63.0208 34.0911 63.0781 33.6797 63.0781C32.9141 63.0781 32.2604 62.9115 31.7188 62.5781C31.1823 62.2396 30.75 61.8203 30.4219 61.3203C29.9792 60.6328 29.7578 59.8958 29.7578 59.1094C29.7578 58.901 29.7734 58.6901 29.8047 58.4766C29.9505 57.4401 30.3854 56.5911 31.1094 55.9297C31.8385 55.263 32.6615 54.9115 33.5781 54.875C33.6406 54.8646 33.7031 54.8724 33.7656 54.8984ZM36.625 59.1484C36.625 58.5443 36.4844 58.0052 36.2031 57.5312C35.9219 57.0521 35.5573 56.6719 35.1094 56.3906C34.6667 56.1042 34.2005 55.9453 33.7109 55.9141C33.6693 55.9141 33.6276 55.9062 33.5859 55.8906C33.0547 55.9219 32.5755 56.0859 32.1484 56.3828C31.7214 56.6745 31.3828 57.0599 31.1328 57.5391C30.888 58.013 30.7656 58.5417 30.7656 59.125C30.7656 59.5729 30.8516 59.9792 31.0234 60.3438C31.2005 60.7083 31.4271 61.0208 31.7031 61.2812C31.9844 61.5365 32.276 61.7266 32.5781 61.8516C32.9427 61.9974 33.3177 62.0703 33.7031 62.0703C34.2396 62.0703 34.7266 61.9453 35.1641 61.6953C35.6068 61.4401 35.9427 61.1328 36.1719 60.7734C36.3229 60.5339 36.4349 60.276 36.5078 60C36.5859 59.7188 36.625 59.4349 36.625 59.1484ZM39.2031 55.9297C39.2031 55.737 39.2448 55.5703 39.3281 55.4297C39.4167 55.2839 39.5599 55.2109 39.7578 55.2109C39.8932 55.2109 40.0052 55.2656 40.0938 55.375C40.1875 55.4844 40.2422 55.6094 40.2578 55.75C40.2734 55.8802 40.2865 56.0365 40.2969 56.2188C40.3125 56.3958 40.3255 56.599 40.3359 56.8281C41.0495 55.651 41.9844 55.0625 43.1406 55.0625C43.8542 55.0625 44.4766 55.2005 45.0078 55.4766C45.5391 55.7474 45.9766 56.1354 46.3203 56.6406C46.5599 56.9948 46.7344 57.375 46.8438 57.7812C46.9583 58.1875 47.0156 58.599 47.0156 59.0156C47.0156 59.5781 46.9219 60.1276 46.7344 60.6641C46.5521 61.2005 46.2995 61.6719 45.9766 62.0781C45.4141 62.7812 44.6875 63.1328 43.7969 63.1328C43.7188 63.1328 43.6432 63.1302 43.5703 63.125C42.5651 63.0625 41.5365 62.5 40.4844 61.4375C40.4948 61.7604 40.5026 62.1406 40.5078 62.5781C40.513 63.0104 40.5182 63.4974 40.5234 64.0391L40.5469 65.9453C40.5469 66.0807 40.4974 66.2005 40.3984 66.3047C40.2995 66.4089 40.1823 66.4609 40.0469 66.4609C39.9062 66.4609 39.7839 66.4115 39.6797 66.3125C39.5807 66.2188 39.5312 66.1016 39.5312 65.9609L39.5078 64.0469C39.4922 62.9062 39.4766 61.9349 39.4609 61.1328C39.4505 60.3307 39.4375 59.6979 39.4219 59.2344C39.3854 59.1302 39.3672 58.9115 39.3672 58.5781C39.3672 58.5573 39.3672 58.5365 39.3672 58.5156C39.3672 58.1198 39.3385 57.6823 39.2812 57.2031C39.2292 56.724 39.2031 56.2995 39.2031 55.9297ZM43.1328 56.0781C42.0339 56.0781 41.1901 56.9453 40.6016 58.6797C40.5339 58.8828 40.4792 59.0417 40.4375 59.1562C40.4427 59.2708 40.4453 59.388 40.4453 59.5078C40.4453 59.6276 40.4479 59.7474 40.4531 59.8672C41.6094 61.2943 42.6797 62.0443 43.6641 62.1172C43.7005 62.1172 43.737 62.1172 43.7734 62.1172C44.2266 62.1172 44.6198 61.9688 44.9531 61.6719C45.2865 61.3698 45.5417 60.987 45.7188 60.5234C45.901 60.0547 45.9922 59.5677 45.9922 59.0625C45.9922 58.1771 45.7344 57.4583 45.2188 56.9062C44.7083 56.3542 44.013 56.0781 43.1328 56.0781ZM49.3828 51.5234C49.513 51.5234 49.6276 51.5781 49.7266 51.6875C49.8307 51.7917 49.8776 51.9141 49.8672 52.0547C49.7786 54.2161 49.7109 56.0469 49.6641 57.5469C49.6172 59.0469 49.5938 60.2188 49.5938 61.0625C49.5938 61.7969 49.612 62.2812 49.6484 62.5156C49.6536 62.5469 49.6562 62.5755 49.6562 62.6016C49.6562 62.7578 49.6016 62.8776 49.4922 62.9609C49.3828 63.0443 49.263 63.0859 49.1328 63.0859C49.0234 63.0859 48.9193 63.0521 48.8203 62.9844C48.7266 62.9167 48.6693 62.8099 48.6484 62.6641C48.6068 62.3984 48.5859 61.8542 48.5859 61.0312C48.5859 59.2812 48.6771 56.2734 48.8594 52.0078C48.8646 51.8724 48.9193 51.7578 49.0234 51.6641C49.1328 51.5703 49.2526 51.5234 49.3828 51.5234ZM52.5391 60.3516C52.6901 60.8932 52.9818 61.3177 53.4141 61.625C53.8516 61.9323 54.401 62.0859 55.0625 62.0859C55.9479 62.0859 56.9766 61.7969 58.1484 61.2188C58.2214 61.1823 58.2969 61.1641 58.375 61.1641C58.5104 61.1641 58.6276 61.2109 58.7266 61.3047C58.8307 61.3984 58.8828 61.5156 58.8828 61.6562C58.8828 61.8802 58.7891 62.0391 58.6016 62.1328C58.0078 62.4245 57.4036 62.6589 56.7891 62.8359C56.1745 63.013 55.5807 63.1016 55.0078 63.1016C54.4193 63.1016 53.8698 62.9922 53.3594 62.7734C52.8542 62.5547 52.4219 62.1901 52.0625 61.6797C51.8594 61.3932 51.7031 61.0885 51.5938 60.7656C51.4844 60.4427 51.4297 60.0807 51.4297 59.6797C51.4297 59.5026 51.4401 59.3177 51.4609 59.125C51.5807 58.1302 51.9948 57.2786 52.7031 56.5703C53.6198 55.6536 54.8255 55.1953 56.3203 55.1953C56.8932 55.1953 57.3958 55.3073 57.8281 55.5312C58.2604 55.75 58.5677 56.0625 58.75 56.4688C58.849 56.6927 58.8984 56.9297 58.8984 57.1797C58.8984 57.6068 58.7865 57.9844 58.5625 58.3125C58.3438 58.6354 58.0312 58.9349 57.625 59.2109C56.4844 59.9818 54.8307 60.3672 52.6641 60.3672C52.6328 60.3672 52.5911 60.362 52.5391 60.3516ZM52.4531 59.3984C52.526 59.3672 52.5964 59.3516 52.6641 59.3516C54.6276 59.3516 56.0938 59.0234 57.0625 58.3672C57.3333 58.1849 57.5391 58 57.6797 57.8125C57.8203 57.6198 57.8906 57.3984 57.8906 57.1484C57.8906 57.0026 57.8568 56.8854 57.7891 56.7969C57.7266 56.7083 57.6432 56.625 57.5391 56.5469C57.2474 56.3229 56.8438 56.2109 56.3281 56.2109C55.6354 56.2109 55.0052 56.3411 54.4375 56.6016C53.8698 56.8568 53.4089 57.224 53.0547 57.7031C52.7057 58.1771 52.5052 58.7422 52.4531 59.3984ZM64.8359 53.5078C64.8359 53.3151 64.8932 53.1302 65.0078 52.9531C65.1276 52.7708 65.2734 52.625 65.4453 52.5156C65.6172 52.401 65.7865 52.3438 65.9531 52.3438C66.1979 52.3438 66.4036 52.4479 66.5703 52.6562C66.7422 52.8594 66.8281 53.0625 66.8281 53.2656C66.8281 53.4583 66.7682 53.6354 66.6484 53.7969C66.5286 53.9583 66.3672 54.0755 66.1641 54.1484C65.9349 54.263 65.7318 54.3203 65.5547 54.3203C65.362 54.3203 65.1927 54.2422 65.0469 54.0859C64.9062 53.9245 64.8359 53.7318 64.8359 53.5078ZM66.1016 61.7266C66.0859 62.1432 66.0286 62.4766 65.9297 62.7266C65.8307 62.9714 65.6589 63.0938 65.4141 63.0938C65.2786 63.0938 65.1589 63.0443 65.0547 62.9453C64.9505 62.8464 64.8984 62.724 64.8984 62.5781C64.8984 62.5104 64.9115 62.4427 64.9375 62.375C64.9844 62.2656 65.0208 62.0495 65.0469 61.7266C65.0781 61.3984 65.1016 61.013 65.1172 60.5703C65.1328 60.1276 65.1432 59.6719 65.1484 59.2031C65.1589 58.7292 65.1641 58.2891 65.1641 57.8828C65.1641 57.4766 65.1641 57.1536 65.1641 56.9141C65.1641 56.4714 65.1615 56.0469 65.1562 55.6406C65.1562 55.474 65.2083 55.349 65.3125 55.2656C65.4219 55.1823 65.5417 55.1406 65.6719 55.1406C65.7969 55.1406 65.9089 55.1823 66.0078 55.2656C66.112 55.3438 66.1641 55.4635 66.1641 55.625C66.1693 55.901 66.1719 56.1719 66.1719 56.4375C66.1771 56.7031 66.1797 56.9635 66.1797 57.2188C66.1797 58.0677 66.1745 58.8359 66.1641 59.5234C66.1589 60.2109 66.138 60.9453 66.1016 61.7266ZM68.9219 54.9531C69.0729 54.9531 69.1979 55.013 69.2969 55.1328C69.6719 55.5859 69.9453 56.2839 70.1172 57.2266C70.8255 55.9453 71.7396 55.224 72.8594 55.0625C73.0365 55.0365 73.2109 55.0234 73.3828 55.0234C74.0078 55.0234 74.5599 55.1667 75.0391 55.4531C75.5182 55.7396 75.9115 56.1172 76.2188 56.5859C76.526 57.0547 76.7344 57.5599 76.8438 58.1016C76.9167 58.4505 76.9531 58.8073 76.9531 59.1719C76.9531 60.3229 76.5859 61.5391 75.8516 62.8203C75.7578 62.9818 75.6146 63.0625 75.4219 63.0625C75.2604 63.0625 75.1146 62.987 74.9844 62.8359C74.8594 62.6797 74.8542 62.5052 74.9688 62.3125C75.6146 61.1875 75.9375 60.138 75.9375 59.1641C75.9375 58.8724 75.9089 58.5885 75.8516 58.3125C75.7682 57.9115 75.6146 57.5391 75.3906 57.1953C75.1719 56.8516 74.8906 56.5755 74.5469 56.3672C74.2083 56.1536 73.8177 56.0469 73.375 56.0469C73.2552 56.0469 73.1328 56.0547 73.0078 56.0703C72.4922 56.1432 72.0521 56.3698 71.6875 56.75C71.3229 57.1302 71.0286 57.5911 70.8047 58.1328C70.5859 58.6693 70.4271 59.2161 70.3281 59.7734C70.3281 59.8411 70.3281 59.9089 70.3281 59.9766C70.3281 60.7266 70.2891 61.4818 70.2109 62.2422L70.1797 62.5469C70.1641 62.6927 70.1068 62.8021 70.0078 62.875C69.9089 62.9427 69.8021 62.9766 69.6875 62.9766C69.5625 62.9766 69.4453 62.9375 69.3359 62.8594C69.2318 62.7812 69.1771 62.6641 69.1719 62.5078C69.1615 62.2734 69.1562 62.0443 69.1562 61.8203C69.1562 61.0547 69.2083 60.349 69.3125 59.7031C69.2917 58.5052 69.1979 57.6068 69.0312 57.0078C68.8698 56.4141 68.7214 56.0339 68.5859 55.8672C68.4609 55.7109 68.3984 55.5729 68.3984 55.4531C68.3984 55.3021 68.4531 55.1823 68.5625 55.0938C68.6719 55 68.7917 54.9531 68.9219 54.9531ZM8.10156 69.5234C8.23177 69.5234 8.34635 69.5781 8.44531 69.6875C8.54948 69.7917 8.59635 69.9141 8.58594 70.0547C8.4974 72.2161 8.42969 74.0469 8.38281 75.5469C8.33594 77.0469 8.3125 78.2188 8.3125 79.0625C8.3125 79.7969 8.33073 80.2812 8.36719 80.5156C8.3724 80.5469 8.375 80.5755 8.375 80.6016C8.375 80.7578 8.32031 80.8776 8.21094 80.9609C8.10156 81.0443 7.98177 81.0859 7.85156 81.0859C7.74219 81.0859 7.63802 81.0521 7.53906 80.9844C7.44531 80.9167 7.38802 80.8099 7.36719 80.6641C7.32552 80.3984 7.30469 79.8542 7.30469 79.0312C7.30469 77.2812 7.39583 74.2734 7.57812 70.0078C7.58333 69.8724 7.63802 69.7578 7.74219 69.6641C7.85156 69.5703 7.97135 69.5234 8.10156 69.5234ZM10.1484 71.5078C10.1484 71.3151 10.2057 71.1302 10.3203 70.9531C10.4401 70.7708 10.5859 70.625 10.7578 70.5156C10.9297 70.401 11.099 70.3438 11.2656 70.3438C11.5104 70.3438 11.7161 70.4479 11.8828 70.6562C12.0547 70.8594 12.1406 71.0625 12.1406 71.2656C12.1406 71.4583 12.0807 71.6354 11.9609 71.7969C11.8411 71.9583 11.6797 72.0755 11.4766 72.1484C11.2474 72.263 11.0443 72.3203 10.8672 72.3203C10.6745 72.3203 10.5052 72.2422 10.3594 72.0859C10.2188 71.9245 10.1484 71.7318 10.1484 71.5078ZM11.4141 79.7266C11.3984 80.1432 11.3411 80.4766 11.2422 80.7266C11.1432 80.9714 10.9714 81.0938 10.7266 81.0938C10.5911 81.0938 10.4714 81.0443 10.3672 80.9453C10.263 80.8464 10.2109 80.724 10.2109 80.5781C10.2109 80.5104 10.224 80.4427 10.25 80.375C10.2969 80.2656 10.3333 80.0495 10.3594 79.7266C10.3906 79.3984 10.4141 79.013 10.4297 78.5703C10.4453 78.1276 10.4557 77.6719 10.4609 77.2031C10.4714 76.7292 10.4766 76.2891 10.4766 75.8828C10.4766 75.4766 10.4766 75.1536 10.4766 74.9141C10.4766 74.4714 10.474 74.0469 10.4688 73.6406C10.4688 73.474 10.5208 73.349 10.625 73.2656C10.7344 73.1823 10.8542 73.1406 10.9844 73.1406C11.1094 73.1406 11.2214 73.1823 11.3203 73.2656C11.4245 73.3438 11.4766 73.4635 11.4766 73.625C11.4818 73.901 11.4844 74.1719 11.4844 74.4375C11.4896 74.7031 11.4922 74.9635 11.4922 75.2188C11.4922 76.0677 11.487 76.8359 11.4766 77.5234C11.4714 78.2109 11.4505 78.9453 11.4141 79.7266ZM13.7188 73.5469C13.7135 73.5156 13.7109 73.487 13.7109 73.4609C13.7109 73.3099 13.7656 73.1927 13.875 73.1094C13.9844 73.026 14.1042 72.9844 14.2344 72.9844C14.349 72.9844 14.4531 73.0182 14.5469 73.0859C14.6458 73.1536 14.7031 73.2604 14.7188 73.4062C15.2656 77.3281 15.8229 79.5182 16.3906 79.9766C17.0052 79.5443 17.7969 77.3672 18.7656 73.4453C18.7969 73.3203 18.8568 73.2292 18.9453 73.1719C19.0391 73.1094 19.138 73.0781 19.2422 73.0781C19.3724 73.0781 19.4922 73.1198 19.6016 73.2031C19.7161 73.2865 19.7734 73.4062 19.7734 73.5625C19.7734 73.6042 19.7682 73.6458 19.7578 73.6875C19.0026 76.7448 18.3333 78.7969 17.75 79.8438C17.3177 80.6302 16.8672 81.0234 16.3984 81.0234C16.2474 81.0234 16.0938 80.9818 15.9375 80.8984C15.4375 80.638 15.0208 79.8958 14.6875 78.6719C14.349 77.4583 14.026 75.75 13.7188 73.5469ZM21.3359 71.5078C21.3359 71.3151 21.3932 71.1302 21.5078 70.9531C21.6276 70.7708 21.7734 70.625 21.9453 70.5156C22.1172 70.401 22.2865 70.3438 22.4531 70.3438C22.6979 70.3438 22.9036 70.4479 23.0703 70.6562C23.2422 70.8594 23.3281 71.0625 23.3281 71.2656C23.3281 71.4583 23.2682 71.6354 23.1484 71.7969C23.0286 71.9583 22.8672 72.0755 22.6641 72.1484C22.4349 72.263 22.2318 72.3203 22.0547 72.3203C21.862 72.3203 21.6927 72.2422 21.5469 72.0859C21.4062 71.9245 21.3359 71.7318 21.3359 71.5078ZM22.6016 79.7266C22.5859 80.1432 22.5286 80.4766 22.4297 80.7266C22.3307 80.9714 22.1589 81.0938 21.9141 81.0938C21.7786 81.0938 21.6589 81.0443 21.5547 80.9453C21.4505 80.8464 21.3984 80.724 21.3984 80.5781C21.3984 80.5104 21.4115 80.4427 21.4375 80.375C21.4844 80.2656 21.5208 80.0495 21.5469 79.7266C21.5781 79.3984 21.6016 79.013 21.6172 78.5703C21.6328 78.1276 21.6432 77.6719 21.6484 77.2031C21.6589 76.7292 21.6641 76.2891 21.6641 75.8828C21.6641 75.4766 21.6641 75.1536 21.6641 74.9141C21.6641 74.4714 21.6615 74.0469 21.6562 73.6406C21.6562 73.474 21.7083 73.349 21.8125 73.2656C21.9219 73.1823 22.0417 73.1406 22.1719 73.1406C22.2969 73.1406 22.4089 73.1823 22.5078 73.2656C22.612 73.3438 22.6641 73.4635 22.6641 73.625C22.6693 73.901 22.6719 74.1719 22.6719 74.4375C22.6771 74.7031 22.6797 74.9635 22.6797 75.2188C22.6797 76.0677 22.6745 76.8359 22.6641 77.5234C22.6589 78.2109 22.638 78.9453 22.6016 79.7266ZM25.4219 72.9531C25.5729 72.9531 25.6979 73.013 25.7969 73.1328C26.1719 73.5859 26.4453 74.2839 26.6172 75.2266C27.3255 73.9453 28.2396 73.224 29.3594 73.0625C29.5365 73.0365 29.7109 73.0234 29.8828 73.0234C30.5078 73.0234 31.0599 73.1667 31.5391 73.4531C32.0182 73.7396 32.4115 74.1172 32.7188 74.5859C33.026 75.0547 33.2344 75.5599 33.3438 76.1016C33.4167 76.4505 33.4531 76.8073 33.4531 77.1719C33.4531 78.3229 33.0859 79.5391 32.3516 80.8203C32.2578 80.9818 32.1146 81.0625 31.9219 81.0625C31.7604 81.0625 31.6146 80.987 31.4844 80.8359C31.3594 80.6797 31.3542 80.5052 31.4688 80.3125C32.1146 79.1875 32.4375 78.138 32.4375 77.1641C32.4375 76.8724 32.4089 76.5885 32.3516 76.3125C32.2682 75.9115 32.1146 75.5391 31.8906 75.1953C31.6719 74.8516 31.3906 74.5755 31.0469 74.3672C30.7083 74.1536 30.3177 74.0469 29.875 74.0469C29.7552 74.0469 29.6328 74.0547 29.5078 74.0703C28.9922 74.1432 28.5521 74.3698 28.1875 74.75C27.8229 75.1302 27.5286 75.5911 27.3047 76.1328C27.0859 76.6693 26.9271 77.2161 26.8281 77.7734C26.8281 77.8411 26.8281 77.9089 26.8281 77.9766C26.8281 78.7266 26.7891 79.4818 26.7109 80.2422L26.6797 80.5469C26.6641 80.6927 26.6068 80.8021 26.5078 80.875C26.4089 80.9427 26.3021 80.9766 26.1875 80.9766C26.0625 80.9766 25.9453 80.9375 25.8359 80.8594C25.7318 80.7812 25.6771 80.6641 25.6719 80.5078C25.6615 80.2734 25.6562 80.0443 25.6562 79.8203C25.6562 79.0547 25.7083 78.349 25.8125 77.7031C25.7917 76.5052 25.6979 75.6068 25.5312 75.0078C25.3698 74.4141 25.2214 74.0339 25.0859 73.8672C24.9609 73.7109 24.8984 73.5729 24.8984 73.4531C24.8984 73.3021 24.9531 73.1823 25.0625 73.0938C25.1719 73 25.2917 72.9531 25.4219 72.9531ZM37.9297 81.0938C37.4349 81.0938 37.026 80.9245 36.7031 80.5859C36.3854 80.2474 36.1484 79.8177 35.9922 79.2969C35.8359 78.776 35.7578 78.2422 35.7578 77.6953C35.7578 76.9141 35.9193 76.1562 36.2422 75.4219C36.7161 74.3438 37.4557 73.625 38.4609 73.2656C38.8307 73.1302 39.1979 73.0625 39.5625 73.0625C40.3125 73.0625 40.8932 73.3099 41.3047 73.8047C41.7161 74.2995 41.9479 74.9141 42 75.6484C42.0208 75.7526 42.0443 75.9401 42.0703 76.2109C42.0964 76.4766 42.1198 76.7734 42.1406 77.1016C42.1615 77.4245 42.1771 77.737 42.1875 78.0391C42.2031 78.3411 42.2109 78.5807 42.2109 78.7578C42.2109 80.5651 41.9427 82.026 41.4062 83.1406C41.1042 83.7604 40.6901 84.2917 40.1641 84.7344C39.638 85.1823 38.9714 85.4062 38.1641 85.4062C38.013 85.4062 37.8568 85.3958 37.6953 85.375C36.8828 85.2812 36.0729 84.987 35.2656 84.4922C35.1094 84.3984 35.0312 84.2552 35.0312 84.0625C35.0312 83.8854 35.1094 83.7396 35.2656 83.625C35.4271 83.5104 35.6042 83.5104 35.7969 83.625C36.4844 84.0417 37.1406 84.2865 37.7656 84.3594C37.9062 84.375 38.0417 84.3828 38.1719 84.3828C38.7812 84.3828 39.2604 84.224 39.6094 83.9062C39.9635 83.5885 40.2578 83.1849 40.4922 82.6953C40.9609 81.7214 41.1953 80.4062 41.1953 78.75C41.1953 78.5521 41.1927 78.3516 41.1875 78.1484C40.2865 79.9453 39.4141 80.8932 38.5703 80.9922C38.3464 81.0599 38.1328 81.0938 37.9297 81.0938ZM38 80.0625C38.0885 80.0625 38.1693 80.0495 38.2422 80.0234C38.3151 79.9922 38.3984 79.9766 38.4922 79.9766C38.5651 79.9766 38.7031 79.8906 38.9062 79.7188C39.1042 79.5469 39.3099 79.3073 39.5234 79C39.737 78.6927 39.9375 78.3646 40.125 78.0156C40.3125 77.6667 40.4661 77.3411 40.5859 77.0391C40.8307 76.4193 40.9688 76.0286 41 75.8672C40.9948 75.8255 40.9896 75.7917 40.9844 75.7656C40.9844 75.7396 40.9844 75.7214 40.9844 75.7109C40.9375 75.1589 40.8047 74.75 40.5859 74.4844C40.3672 74.2135 40.0365 74.0781 39.5938 74.0781C39.3177 74.0781 39.0547 74.125 38.8047 74.2188C38.0859 74.474 37.5495 74.9974 37.1953 75.7891C36.9141 76.4245 36.7734 77.0599 36.7734 77.6953C36.7734 78.1432 36.8281 78.5651 36.9375 78.9609C37.0521 79.3516 37.1901 79.6224 37.3516 79.7734C37.5547 79.9661 37.7708 80.0625 38 80.0625ZM48.6797 81.0625C48.5339 81.0625 48.4089 80.9922 48.3047 80.8516C48.2005 80.7057 48.1484 80.5755 48.1484 80.4609C48.1484 80.362 48.1641 80.2604 48.1953 80.1562C48.2318 80.0521 48.2526 79.9531 48.2578 79.8594C48.2734 79.5729 48.3021 79.1875 48.3438 78.7031C48.3854 78.2135 48.4062 77.7396 48.4062 77.2812C48.4062 76.9479 48.401 76.5859 48.3906 76.1953C48.3594 75.0443 48.3125 74.3438 48.25 74.0938C48.224 73.9844 48.2109 73.8854 48.2109 73.7969C48.2109 73.6458 48.2526 73.5234 48.3359 73.4297C48.4245 73.3307 48.5469 73.2812 48.7031 73.2812C48.8229 73.2812 48.9271 73.3203 49.0156 73.3984C49.1042 73.4766 49.1615 73.5651 49.1875 73.6641C49.3021 74.0964 49.3698 74.7604 49.3906 75.6562C50.151 74.1615 51.1797 73.3333 52.4766 73.1719C52.4974 73.1719 52.5182 73.1719 52.5391 73.1719C52.6953 73.1719 52.8151 73.2292 52.8984 73.3438C52.987 73.4531 53.0312 73.5729 53.0312 73.7031C53.0312 73.8177 52.9974 73.9219 52.9297 74.0156C52.862 74.1094 52.7526 74.1641 52.6016 74.1797C51.2786 74.3464 50.3047 75.5312 49.6797 77.7344C49.5286 78.2708 49.4141 78.8229 49.3359 79.3906C49.3203 79.625 49.3047 79.8099 49.2891 79.9453C49.2786 80.0807 49.2734 80.2083 49.2734 80.3281C49.2734 80.3958 49.2786 80.4505 49.2891 80.4922C49.2995 80.5339 49.3047 80.5703 49.3047 80.6016C49.3047 80.7161 49.2266 80.8229 49.0703 80.9219C48.9193 81.0156 48.7891 81.0625 48.6797 81.0625ZM56.7031 72.8984C58 72.9766 59.0625 73.6172 59.8906 74.8203C60.1146 75.1432 60.2865 75.5026 60.4062 75.8984C60.526 76.2891 60.5859 76.724 60.5859 77.2031C60.5859 77.9167 60.4167 78.5573 60.0781 79.125C59.7396 79.6875 59.3307 80.1224 58.8516 80.4297C58.5443 80.6276 58.1979 80.7865 57.8125 80.9062C57.4271 81.0208 57.0286 81.0781 56.6172 81.0781C55.8516 81.0781 55.1979 80.9115 54.6562 80.5781C54.1198 80.2396 53.6875 79.8203 53.3594 79.3203C52.9167 78.6328 52.6953 77.8958 52.6953 77.1094C52.6953 76.901 52.7109 76.6901 52.7422 76.4766C52.888 75.4401 53.3229 74.5911 54.0469 73.9297C54.776 73.263 55.599 72.9115 56.5156 72.875C56.5781 72.8646 56.6406 72.8724 56.7031 72.8984ZM59.5625 77.1484C59.5625 76.5443 59.4219 76.0052 59.1406 75.5312C58.8594 75.0521 58.4948 74.6719 58.0469 74.3906C57.6042 74.1042 57.138 73.9453 56.6484 73.9141C56.6068 73.9141 56.5651 73.9062 56.5234 73.8906C55.9922 73.9219 55.513 74.0859 55.0859 74.3828C54.6589 74.6745 54.3203 75.0599 54.0703 75.5391C53.8255 76.013 53.7031 76.5417 53.7031 77.125C53.7031 77.5729 53.7891 77.9792 53.9609 78.3438C54.138 78.7083 54.3646 79.0208 54.6406 79.2812C54.9219 79.5365 55.2135 79.7266 55.5156 79.8516C55.8802 79.9974 56.2552 80.0703 56.6406 80.0703C57.1771 80.0703 57.6641 79.9453 58.1016 79.6953C58.5443 79.4401 58.8802 79.1328 59.1094 78.7734C59.2604 78.5339 59.3724 78.276 59.4453 78C59.5234 77.7188 59.5625 77.4349 59.5625 77.1484ZM66.1562 72.8984C67.4531 72.9766 68.5156 73.6172 69.3438 74.8203C69.5677 75.1432 69.7396 75.5026 69.8594 75.8984C69.9792 76.2891 70.0391 76.724 70.0391 77.2031C70.0391 77.9167 69.8698 78.5573 69.5312 79.125C69.1927 79.6875 68.7839 80.1224 68.3047 80.4297C67.9974 80.6276 67.651 80.7865 67.2656 80.9062C66.8802 81.0208 66.4818 81.0781 66.0703 81.0781C65.3047 81.0781 64.651 80.9115 64.1094 80.5781C63.5729 80.2396 63.1406 79.8203 62.8125 79.3203C62.3698 78.6328 62.1484 77.8958 62.1484 77.1094C62.1484 76.901 62.1641 76.6901 62.1953 76.4766C62.3411 75.4401 62.776 74.5911 63.5 73.9297C64.2292 73.263 65.0521 72.9115 65.9688 72.875C66.0312 72.8646 66.0938 72.8724 66.1562 72.8984ZM69.0156 77.1484C69.0156 76.5443 68.875 76.0052 68.5938 75.5312C68.3125 75.0521 67.9479 74.6719 67.5 74.3906C67.0573 74.1042 66.5911 73.9453 66.1016 73.9141C66.0599 73.9141 66.0182 73.9062 65.9766 73.8906C65.4453 73.9219 64.9661 74.0859 64.5391 74.3828C64.112 74.6745 63.7734 75.0599 63.5234 75.5391C63.2786 76.013 63.1562 76.5417 63.1562 77.125C63.1562 77.5729 63.2422 77.9792 63.4141 78.3438C63.5911 78.7083 63.8177 79.0208 64.0938 79.2812C64.375 79.5365 64.6667 79.7266 64.9688 79.8516C65.3333 79.9974 65.7083 80.0703 66.0938 80.0703C66.6302 80.0703 67.1172 79.9453 67.5547 79.6953C67.9974 79.4401 68.3333 79.1328 68.5625 78.7734C68.7135 78.5339 68.8255 78.276 68.8984 78C68.9766 77.7188 69.0156 77.4349 69.0156 77.1484ZM74.9766 73.3438C75.3568 73.3438 75.7057 73.4479 76.0234 73.6562C76.3411 73.8594 76.6198 74.125 76.8594 74.4531C77.1042 74.7812 77.3073 75.1224 77.4688 75.4766C77.7656 74.5859 78.1849 73.9479 78.7266 73.5625C79.0755 73.3125 79.4401 73.1875 79.8203 73.1875C80.1641 73.1875 80.4948 73.2839 80.8125 73.4766C81.1354 73.6693 81.4271 73.9219 81.6875 74.2344C82 74.6146 82.2448 75.0807 82.4219 75.6328C82.599 76.1849 82.6875 76.8099 82.6875 77.5078C82.6875 78.5807 82.401 79.7005 81.8281 80.8672C81.7344 81.0443 81.5807 81.1328 81.3672 81.1328C81.2161 81.1328 81.0781 81.0625 80.9531 80.9219C80.8281 80.7812 80.8151 80.612 80.9141 80.4141C81.4193 79.3932 81.6719 78.4271 81.6719 77.5156C81.6719 76.9375 81.599 76.4219 81.4531 75.9688C81.3125 75.5156 81.1172 75.1354 80.8672 74.8281C80.5391 74.4271 80.1953 74.2266 79.8359 74.2266C79.4349 74.2266 79.0938 74.4714 78.8125 74.9609C78.5885 75.3568 78.4193 75.7839 78.3047 76.2422C78.1953 76.7005 78.1198 77.1823 78.0781 77.6875C78.1094 77.9271 78.1328 78.1667 78.1484 78.4062C78.1693 78.6458 78.1797 78.8932 78.1797 79.1484C78.1797 79.3672 78.1719 79.5964 78.1562 79.8359C78.1458 80.0755 78.1224 80.3333 78.0859 80.6094C78.0703 80.7552 78.013 80.8646 77.9141 80.9375C77.8151 81.0052 77.7057 81.0391 77.5859 81.0391C77.4661 81.0391 77.3542 81.0026 77.25 80.9297C77.1458 80.8516 77.0859 80.737 77.0703 80.5859C77.0339 79.9974 77.0156 79.4479 77.0156 78.9375C77.0156 78.5 77.0286 78.0911 77.0547 77.7109C76.9089 76.7057 76.6354 75.9062 76.2344 75.3125C75.8021 74.6667 75.3958 74.3438 75.0156 74.3438C74.6927 74.3438 74.3906 74.5859 74.1094 75.0703C73.7969 75.612 73.5729 76.3854 73.4375 77.3906C73.4427 77.7031 73.4453 78 73.4453 78.2812C73.4453 78.974 73.4245 79.5703 73.3828 80.0703L73.3359 80.6094C73.3255 80.7604 73.2682 80.8724 73.1641 80.9453C73.0651 81.0182 72.9557 81.0547 72.8359 81.0547C72.7109 81.0547 72.5964 81.0156 72.4922 80.9375C72.388 80.8594 72.3307 80.7422 72.3203 80.5859C72.3047 80.2214 72.2969 79.8698 72.2969 79.5312C72.2969 78.7135 72.3385 77.9818 72.4219 77.3359C72.375 75.7214 72.138 74.6458 71.7109 74.1094C71.6328 74.0156 71.5938 73.9141 71.5938 73.8047C71.5938 73.6641 71.6484 73.5443 71.7578 73.4453C71.8724 73.3411 71.9974 73.2891 72.1328 73.2891C72.2839 73.2891 72.4089 73.3516 72.5078 73.4766C72.763 73.8047 72.9635 74.2396 73.1094 74.7812C73.5885 73.8229 74.2109 73.3438 74.9766 73.3438Z" fill="black"/>
<path d="M36.125 29.2913C39.2375 29.2913 41.75 26.8905 41.75 23.9163C41.75 20.9422 39.2375 18.5413 36.125 18.5413C33.0125 18.5413 30.5 20.9422 30.5 23.9163C30.5 26.8905 33.0125 29.2913 36.125 29.2913ZM58.625 18.5413H43.625V31.083H28.625V14.958H24.875V41.833H28.625V36.458H62.375V41.833H66.125V25.708C66.125 21.7484 62.7687 18.5413 58.625 18.5413Z" fill="black"/>
<rect x="0.5" y="0.5" width="89" height="89" stroke="#FFFDFD"/>
</svg>
