<svg width="327" height="81" viewBox="0 0 327 81" fill="none" xmlns="http://www.w3.org/2000/svg">
<path d="M0 5C0 2.23858 2.23858 0 5 0H322C324.761 0 327 2.23858 327 5V76C327 78.7614 324.761 81 322 81H4.99999C2.23857 81 0 78.7614 0 76V5Z" fill="#0DC98A"/>
<path d="M30.2812 39.5586C29.9375 39.5586 29.5859 39.5703 29.2266 39.5938C28.8672 39.6172 28.5352 39.6289 28.2305 39.6289C27.1992 39.6289 26.3281 39.5156 25.6172 39.2891C24.9062 39.0547 24.2578 38.6719 23.6719 38.1406C23.2812 37.7812 22.9336 37.3242 22.6289 36.7695C22.3242 36.2148 22.1719 35.5938 22.1719 34.9062C22.1719 34.4688 22.2461 34.0273 22.3945 33.582C22.7227 32.5977 23.3555 31.8281 24.293 31.2734C25.2305 30.7109 26.3398 30.4297 27.6211 30.4297C29.2852 30.4297 30.7734 30.7109 32.0859 31.2734C33.3984 31.8359 34.5 32.543 35.3906 33.3945C35.5469 33.543 35.625 33.7227 35.625 33.9336C35.625 34.1211 35.5547 34.2969 35.4141 34.4609C35.2812 34.6172 35.1055 34.6992 34.8867 34.707C34.6758 34.707 34.4922 34.6367 34.3359 34.4961C33.5859 33.7695 32.6445 33.1641 31.5117 32.6797C30.3789 32.1953 29.1094 31.9531 27.7031 31.9531C26.75 31.9531 25.9258 32.1289 25.2305 32.4805C24.5352 32.8242 24.0703 33.3516 23.8359 34.0625C23.7422 34.3438 23.6953 34.625 23.6953 34.9062C23.6953 35.3594 23.7969 35.7695 24 36.1367C24.2109 36.4961 24.4492 36.7969 24.7148 37.0391C25.1289 37.4062 25.6094 37.6758 26.1562 37.8477C26.7109 38.0195 27.4023 38.1055 28.2305 38.1055C28.5195 38.1055 28.8438 38.0938 29.2031 38.0703C29.5625 38.0469 29.9102 38.0352 30.2461 38.0352C31.6758 38.0352 32.7812 38.2383 33.5625 38.6445C34.1484 38.9414 34.6875 39.4023 35.1797 40.0273C35.6797 40.6523 35.9297 41.3711 35.9297 42.1836C35.9297 42.4414 35.8984 42.6992 35.8359 42.957C35.4844 44.4883 34.5273 45.6133 32.9648 46.332C31.9805 46.7852 30.9336 47.0117 29.8242 47.0117C29.5664 47.0117 29.3047 47 29.0391 46.9766C26.4844 46.7344 24.3633 45.8711 22.6758 44.3867C22.5039 44.2305 22.418 44.0508 22.418 43.8477C22.418 43.6445 22.4961 43.4609 22.6523 43.2969C22.8086 43.1328 22.9922 43.0508 23.2031 43.0508C23.375 43.0508 23.5312 43.1133 23.6719 43.2383C25.1328 44.5117 26.9727 45.2539 29.1914 45.4648C29.3945 45.4805 29.5938 45.4883 29.7891 45.4883C30.6953 45.4883 31.5742 45.293 32.4258 44.9023C33.4648 44.4258 34.1016 43.6836 34.3359 42.6758C34.375 42.5117 34.3945 42.3516 34.3945 42.1953C34.3945 41.6797 34.2305 41.2305 33.9023 40.8477C33.5742 40.4648 33.2148 40.1758 32.8242 39.9805C32.2852 39.6992 31.4375 39.5586 30.2812 39.5586ZM38.25 32.7617C38.25 32.4727 38.3359 32.1953 38.5078 31.9297C38.6875 31.6562 38.9062 31.4375 39.1641 31.2734C39.4219 31.1016 39.6758 31.0156 39.9258 31.0156C40.293 31.0156 40.6016 31.1719 40.8516 31.4844C41.1094 31.7891 41.2383 32.0938 41.2383 32.3984C41.2383 32.6875 41.1484 32.9531 40.9688 33.1953C40.7891 33.4375 40.5469 33.6133 40.2422 33.7227C39.8984 33.8945 39.5938 33.9805 39.3281 33.9805C39.0391 33.9805 38.7852 33.8633 38.5664 33.6289C38.3555 33.3867 38.25 33.0977 38.25 32.7617ZM40.1484 45.0898C40.125 45.7148 40.0391 46.2148 39.8906 46.5898C39.7422 46.957 39.4844 47.1406 39.1172 47.1406C38.9141 47.1406 38.7344 47.0664 38.5781 46.918C38.4219 46.7695 38.3438 46.5859 38.3438 46.3672C38.3438 46.2656 38.3633 46.1641 38.4023 46.0625C38.4727 45.8984 38.5273 45.5742 38.5664 45.0898C38.6133 44.5977 38.6484 44.0195 38.6719 43.3555C38.6953 42.6914 38.7109 42.0078 38.7188 41.3047C38.7344 40.5938 38.7422 39.9336 38.7422 39.3242C38.7422 38.7148 38.7422 38.2305 38.7422 37.8711C38.7422 37.207 38.7383 36.5703 38.7305 35.9609C38.7305 35.7109 38.8086 35.5234 38.9648 35.3984C39.1289 35.2734 39.3086 35.2109 39.5039 35.2109C39.6914 35.2109 39.8594 35.2734 40.0078 35.3984C40.1641 35.5156 40.2422 35.6953 40.2422 35.9375C40.25 36.3516 40.2539 36.7578 40.2539 37.1562C40.2617 37.5547 40.2656 37.9453 40.2656 38.3281C40.2656 39.6016 40.2578 40.7539 40.2422 41.7852C40.2344 42.8164 40.2031 43.918 40.1484 45.0898ZM47.9531 47.1406C47.2109 47.1406 46.5977 46.8867 46.1133 46.3789C45.6367 45.8711 45.2812 45.2266 45.0469 44.4453C44.8125 43.6641 44.6953 42.8633 44.6953 42.043C44.6953 40.8711 44.9375 39.7344 45.4219 38.6328C46.1328 37.0156 47.2422 35.9375 48.75 35.3984C49.3047 35.1953 49.8555 35.0938 50.4023 35.0938C51.5273 35.0938 52.3984 35.4648 53.0156 36.207C53.6328 36.9492 53.9805 37.8711 54.0586 38.9727C54.0898 39.1289 54.125 39.4102 54.1641 39.8164C54.2031 40.2148 54.2383 40.6602 54.2695 41.1523C54.3008 41.6367 54.3242 42.1055 54.3398 42.5586C54.3633 43.0117 54.375 43.3711 54.375 43.6367C54.375 46.3477 53.9727 48.5391 53.168 50.2109C52.7148 51.1406 52.0938 51.9375 51.3047 52.6016C50.5156 53.2734 49.5156 53.6094 48.3047 53.6094C48.0781 53.6094 47.8438 53.5938 47.6016 53.5625C46.3828 53.4219 45.168 52.9805 43.957 52.2383C43.7227 52.0977 43.6055 51.8828 43.6055 51.5938C43.6055 51.3281 43.7227 51.1094 43.957 50.9375C44.1992 50.7656 44.4648 50.7656 44.7539 50.9375C45.7852 51.5625 46.7695 51.9297 47.707 52.0391C47.918 52.0625 48.1211 52.0742 48.3164 52.0742C49.2305 52.0742 49.9492 51.8359 50.4727 51.3594C51.0039 50.8828 51.4453 50.2773 51.7969 49.543C52.5 48.082 52.8516 46.1094 52.8516 43.625C52.8516 43.3281 52.8477 43.0273 52.8398 42.7227C51.4883 45.418 50.1797 46.8398 48.9141 46.9883C48.5781 47.0898 48.2578 47.1406 47.9531 47.1406ZM48.0586 45.5938C48.1914 45.5938 48.3125 45.5742 48.4219 45.5352C48.5312 45.4883 48.6562 45.4648 48.7969 45.4648C48.9062 45.4648 49.1133 45.3359 49.418 45.0781C49.7148 44.8203 50.0234 44.4609 50.3438 44C50.6641 43.5391 50.9648 43.0469 51.2461 42.5234C51.5273 42 51.7578 41.5117 51.9375 41.0586C52.3047 40.1289 52.5117 39.543 52.5586 39.3008C52.5508 39.2383 52.543 39.1875 52.5352 39.1484C52.5352 39.1094 52.5352 39.082 52.5352 39.0664C52.4648 38.2383 52.2656 37.625 51.9375 37.2266C51.6094 36.8203 51.1133 36.6172 50.4492 36.6172C50.0352 36.6172 49.6406 36.6875 49.2656 36.8281C48.1875 37.2109 47.3828 37.9961 46.8516 39.1836C46.4297 40.1367 46.2188 41.0898 46.2188 42.043C46.2188 42.7148 46.3008 43.3477 46.4648 43.9414C46.6367 44.5273 46.8438 44.9336 47.0859 45.1602C47.3906 45.4492 47.7148 45.5938 48.0586 45.5938ZM57.5039 34.9297C57.7305 34.9297 57.918 35.0195 58.0664 35.1992C58.6289 35.8789 59.0391 36.9258 59.2969 38.3398C60.3594 36.418 61.7305 35.3359 63.4102 35.0938C63.6758 35.0547 63.9375 35.0352 64.1953 35.0352C65.1328 35.0352 65.9609 35.25 66.6797 35.6797C67.3984 36.1094 67.9883 36.6758 68.4492 37.3789C68.9102 38.082 69.2227 38.8398 69.3867 39.6523C69.4961 40.1758 69.5508 40.7109 69.5508 41.2578C69.5508 42.9844 69 44.8086 67.8984 46.7305C67.7578 46.9727 67.543 47.0938 67.2539 47.0938C67.0117 47.0938 66.793 46.9805 66.5977 46.7539C66.4102 46.5195 66.4023 46.2578 66.5742 45.9688C67.543 44.2812 68.0273 42.707 68.0273 41.2461C68.0273 40.8086 67.9844 40.3828 67.8984 39.9688C67.7734 39.3672 67.543 38.8086 67.207 38.293C66.8789 37.7773 66.457 37.3633 65.9414 37.0508C65.4336 36.7305 64.8477 36.5703 64.1836 36.5703C64.0039 36.5703 63.8203 36.582 63.6328 36.6055C62.8594 36.7148 62.1992 37.0547 61.6523 37.625C61.1055 38.1953 60.6641 38.8867 60.3281 39.6992C60 40.5039 59.7617 41.3242 59.6133 42.1602C59.6133 42.2617 59.6133 42.3633 59.6133 42.4648C59.6133 43.5898 59.5547 44.7227 59.4375 45.8633L59.3906 46.3203C59.3672 46.5391 59.2812 46.7031 59.1328 46.8125C58.9844 46.9141 58.8242 46.9648 58.6523 46.9648C58.4648 46.9648 58.2891 46.9062 58.125 46.7891C57.9688 46.6719 57.8867 46.4961 57.8789 46.2617C57.8633 45.9102 57.8555 45.5664 57.8555 45.2305C57.8555 44.082 57.9336 43.0234 58.0898 42.0547C58.0586 40.2578 57.918 38.9102 57.668 38.0117C57.4258 37.1211 57.2031 36.5508 57 36.3008C56.8125 36.0664 56.7188 35.8594 56.7188 35.6797C56.7188 35.4531 56.8008 35.2734 56.9648 35.1406C57.1289 35 57.3086 34.9297 57.5039 34.9297ZM78.4688 32.7617C78.4688 32.4727 78.5547 32.1953 78.7266 31.9297C78.9062 31.6562 79.125 31.4375 79.3828 31.2734C79.6406 31.1016 79.8945 31.0156 80.1445 31.0156C80.5117 31.0156 80.8203 31.1719 81.0703 31.4844C81.3281 31.7891 81.457 32.0938 81.457 32.3984C81.457 32.6875 81.3672 32.9531 81.1875 33.1953C81.0078 33.4375 80.7656 33.6133 80.4609 33.7227C80.1172 33.8945 79.8125 33.9805 79.5469 33.9805C79.2578 33.9805 79.0039 33.8633 78.7852 33.6289C78.5742 33.3867 78.4688 33.0977 78.4688 32.7617ZM80.3672 45.0898C80.3438 45.7148 80.2578 46.2148 80.1094 46.5898C79.9609 46.957 79.7031 47.1406 79.3359 47.1406C79.1328 47.1406 78.9531 47.0664 78.7969 46.918C78.6406 46.7695 78.5625 46.5859 78.5625 46.3672C78.5625 46.2656 78.582 46.1641 78.6211 46.0625C78.6914 45.8984 78.7461 45.5742 78.7852 45.0898C78.832 44.5977 78.8672 44.0195 78.8906 43.3555C78.9141 42.6914 78.9297 42.0078 78.9375 41.3047C78.9531 40.5938 78.9609 39.9336 78.9609 39.3242C78.9609 38.7148 78.9609 38.2305 78.9609 37.8711C78.9609 37.207 78.957 36.5703 78.9492 35.9609C78.9492 35.7109 79.0273 35.5234 79.1836 35.3984C79.3477 35.2734 79.5273 35.2109 79.7227 35.2109C79.9102 35.2109 80.0781 35.2734 80.2266 35.3984C80.3828 35.5156 80.4609 35.6953 80.4609 35.9375C80.4688 36.3516 80.4727 36.7578 80.4727 37.1562C80.4805 37.5547 80.4844 37.9453 80.4844 38.3281C80.4844 39.6016 80.4766 40.7539 80.4609 41.7852C80.4531 42.8164 80.4219 43.918 80.3672 45.0898ZM84.5977 34.9297C84.8242 34.9297 85.0117 35.0195 85.1602 35.1992C85.7227 35.8789 86.1328 36.9258 86.3906 38.3398C87.4531 36.418 88.8242 35.3359 90.5039 35.0938C90.7695 35.0547 91.0312 35.0352 91.2891 35.0352C92.2266 35.0352 93.0547 35.25 93.7734 35.6797C94.4922 36.1094 95.082 36.6758 95.543 37.3789C96.0039 38.082 96.3164 38.8398 96.4805 39.6523C96.5898 40.1758 96.6445 40.7109 96.6445 41.2578C96.6445 42.9844 96.0938 44.8086 94.9922 46.7305C94.8516 46.9727 94.6367 47.0938 94.3477 47.0938C94.1055 47.0938 93.8867 46.9805 93.6914 46.7539C93.5039 46.5195 93.4961 46.2578 93.668 45.9688C94.6367 44.2812 95.1211 42.707 95.1211 41.2461C95.1211 40.8086 95.0781 40.3828 94.9922 39.9688C94.8672 39.3672 94.6367 38.8086 94.3008 38.293C93.9727 37.7773 93.5508 37.3633 93.0352 37.0508C92.5273 36.7305 91.9414 36.5703 91.2773 36.5703C91.0977 36.5703 90.9141 36.582 90.7266 36.6055C89.9531 36.7148 89.293 37.0547 88.7461 37.625C88.1992 38.1953 87.7578 38.8867 87.4219 39.6992C87.0938 40.5039 86.8555 41.3242 86.707 42.1602C86.707 42.2617 86.707 42.3633 86.707 42.4648C86.707 43.5898 86.6484 44.7227 86.5312 45.8633L86.4844 46.3203C86.4609 46.5391 86.375 46.7031 86.2266 46.8125C86.0781 46.9141 85.918 46.9648 85.7461 46.9648C85.5586 46.9648 85.3828 46.9062 85.2188 46.7891C85.0625 46.6719 84.9805 46.4961 84.9727 46.2617C84.957 45.9102 84.9492 45.5664 84.9492 45.2305C84.9492 44.082 85.0273 43.0234 85.1836 42.0547C85.1523 40.2578 85.0117 38.9102 84.7617 38.0117C84.5195 37.1211 84.2969 36.5508 84.0938 36.3008C83.9062 36.0664 83.8125 35.8594 83.8125 35.6797C83.8125 35.4531 83.8945 35.2734 84.0586 35.1406C84.2227 35 84.4023 34.9297 84.5977 34.9297ZM112.875 35.293C113.125 35.293 113.312 35.375 113.438 35.5391C113.57 35.7031 113.637 35.9219 113.637 36.1953C113.637 36.4375 113.617 36.8164 113.578 37.332C113.547 37.8398 113.531 38.2812 113.531 38.6562C113.531 39.6797 113.633 40.6641 113.836 41.6094C114.039 42.5469 114.312 43.3125 114.656 43.9062C114.953 44.4141 115.297 44.8242 115.688 45.1367C116.086 45.4414 116.512 45.5938 116.965 45.5938C117.504 45.5938 118.043 45.3594 118.582 44.8906C119.387 44.1719 119.789 43.0195 119.789 41.4336C119.789 39.9492 119.332 38.3398 118.418 36.6055C118.348 36.4883 118.312 36.3672 118.312 36.2422C118.312 36.0312 118.398 35.8555 118.57 35.7148C118.742 35.5664 118.93 35.4922 119.133 35.4922C119.414 35.4922 119.621 35.625 119.754 35.8906C120.793 37.8359 121.312 39.6836 121.312 41.4336C121.312 42.4805 121.156 43.3906 120.844 44.1641C120.539 44.9375 120.102 45.5781 119.531 46.0859C118.758 46.7734 117.91 47.1172 116.988 47.1172C116.191 47.1172 115.496 46.9062 114.902 46.4844C114.309 46.0625 113.816 45.5156 113.426 44.8438C113.035 44.1641 112.734 43.4492 112.523 42.6992C111.867 44.7695 111.066 46.1484 110.121 46.8359C109.777 47.0859 109.43 47.2109 109.078 47.2109C108.766 47.2109 108.449 47.1133 108.129 46.918C107.434 46.4727 106.832 45.3281 106.324 43.4844C105.816 41.6406 105.562 39.1836 105.562 36.1133C105.562 35.8711 105.641 35.6914 105.797 35.5742C105.961 35.4492 106.137 35.3867 106.324 35.3867C106.512 35.3867 106.684 35.4453 106.84 35.5625C106.996 35.6797 107.078 35.8594 107.086 36.1016C107.211 40.2031 107.594 43.0156 108.234 44.5391C108.484 45.125 108.723 45.4922 108.949 45.6406C109.012 45.6797 109.051 45.6992 109.066 45.6992C109.082 45.6992 109.133 45.668 109.219 45.6055C109.617 45.3086 109.973 44.8477 110.285 44.2227C110.605 43.5898 110.883 42.8789 111.117 42.0898C111.352 41.293 111.543 40.4805 111.691 39.6523C111.848 38.8242 111.961 38.0625 112.031 37.3672C112.047 37.0625 112.062 36.75 112.078 36.4297C112.094 36.1094 112.152 35.8398 112.254 35.6211C112.363 35.4023 112.57 35.293 112.875 35.293ZM123.656 32.7617C123.656 32.4727 123.742 32.1953 123.914 31.9297C124.094 31.6562 124.312 31.4375 124.57 31.2734C124.828 31.1016 125.082 31.0156 125.332 31.0156C125.699 31.0156 126.008 31.1719 126.258 31.4844C126.516 31.7891 126.645 32.0938 126.645 32.3984C126.645 32.6875 126.555 32.9531 126.375 33.1953C126.195 33.4375 125.953 33.6133 125.648 33.7227C125.305 33.8945 125 33.9805 124.734 33.9805C124.445 33.9805 124.191 33.8633 123.973 33.6289C123.762 33.3867 123.656 33.0977 123.656 32.7617ZM125.555 45.0898C125.531 45.7148 125.445 46.2148 125.297 46.5898C125.148 46.957 124.891 47.1406 124.523 47.1406C124.32 47.1406 124.141 47.0664 123.984 46.918C123.828 46.7695 123.75 46.5859 123.75 46.3672C123.75 46.2656 123.77 46.1641 123.809 46.0625C123.879 45.8984 123.934 45.5742 123.973 45.0898C124.02 44.5977 124.055 44.0195 124.078 43.3555C124.102 42.6914 124.117 42.0078 124.125 41.3047C124.141 40.5938 124.148 39.9336 124.148 39.3242C124.148 38.7148 124.148 38.2305 124.148 37.8711C124.148 37.207 124.145 36.5703 124.137 35.9609C124.137 35.7109 124.215 35.5234 124.371 35.3984C124.535 35.2734 124.715 35.2109 124.91 35.2109C125.098 35.2109 125.266 35.2734 125.414 35.3984C125.57 35.5156 125.648 35.6953 125.648 35.9375C125.656 36.3516 125.66 36.7578 125.66 37.1562C125.668 37.5547 125.672 37.9453 125.672 38.3281C125.672 39.6016 125.664 40.7539 125.648 41.7852C125.641 42.8164 125.609 43.918 125.555 45.0898ZM133.207 46.625C133.207 46.8359 133.129 47.0156 132.973 47.1641C132.816 47.3125 132.637 47.3867 132.434 47.3867C132.309 47.3867 132.191 47.3555 132.082 47.293C131.074 46.7539 130.465 45.2812 130.254 42.875C130.207 42.3516 130.172 41.7891 130.148 41.1875C130.125 40.5781 130.113 39.9258 130.113 39.2305C130.113 38.5586 130.125 37.8242 130.148 37.0273C129.766 37.0273 129.383 37.0273 129 37.0273C128.617 37.0195 128.23 37.0156 127.84 37.0156C127.637 37.0156 127.457 36.9375 127.301 36.7812C127.152 36.6172 127.078 36.4336 127.078 36.2305C127.078 36.043 127.152 35.875 127.301 35.7266C127.457 35.5703 127.637 35.4922 127.84 35.4922L130.195 35.5039C130.203 35.2695 130.215 34.9102 130.23 34.4258C130.246 33.9414 130.262 33.4258 130.277 32.8789C130.293 32.332 130.301 31.8516 130.301 31.4375C130.301 31.3125 130.297 31.1992 130.289 31.0977C130.289 30.9961 130.289 30.9023 130.289 30.8164C130.289 30.582 130.367 30.4023 130.523 30.2773C130.688 30.1523 130.863 30.0898 131.051 30.0898C131.238 30.0898 131.41 30.1484 131.566 30.2656C131.723 30.3828 131.805 30.5625 131.812 30.8047C131.82 30.9609 131.824 31.1602 131.824 31.4023C131.824 31.832 131.816 32.3203 131.801 32.8672C131.785 33.4141 131.77 33.9336 131.754 34.4258C131.738 34.9102 131.727 35.2734 131.719 35.5156L133.488 35.5273C133.73 35.5273 133.914 35.6094 134.039 35.7734C134.164 35.9375 134.227 36.1133 134.227 36.3008C134.227 36.4883 134.164 36.6602 134.039 36.8164C133.922 36.9727 133.742 37.0508 133.5 37.0508C133.492 37.0508 133.488 37.0508 133.488 37.0508C133.184 37.0508 132.879 37.0508 132.574 37.0508C132.277 37.043 131.977 37.0391 131.672 37.0391C131.656 37.7422 131.648 38.4062 131.648 39.0312C131.648 41.8594 131.84 43.8477 132.223 44.9961C132.402 45.5195 132.59 45.832 132.785 45.9336C132.902 45.9961 133 46.0898 133.078 46.2148C133.164 46.3398 133.207 46.4766 133.207 46.625ZM135.668 44.0234L135.633 30.6406C135.633 30.3984 135.711 30.2148 135.867 30.0898C136.031 29.9648 136.207 29.9023 136.395 29.9023C136.59 29.9023 136.766 29.9648 136.922 30.0898C137.078 30.2148 137.156 30.3984 137.156 30.6406L137.168 37.625C138.059 36.0781 139.184 35.2227 140.543 35.0586C140.723 35.0352 140.898 35.0234 141.07 35.0234C142.164 35.0234 143.18 35.4336 144.117 36.2539C144.812 36.8555 145.367 37.6289 145.781 38.5742C146.203 39.5117 146.414 40.6133 146.414 41.8789C146.414 43.4414 146.004 45.0547 145.184 46.7188C145.051 46.9844 144.824 47.1172 144.504 47.1172C144.285 47.1172 144.078 47.0117 143.883 46.8008C143.695 46.582 143.676 46.3281 143.824 46.0391C144.535 44.6094 144.891 43.2227 144.891 41.8789C144.891 40.8789 144.727 40 144.398 39.2422C144.078 38.4766 143.652 37.8633 143.121 37.4023C142.473 36.832 141.785 36.5469 141.059 36.5469C140.402 36.5469 139.844 36.7695 139.383 37.2148C138.922 37.6523 138.543 38.1992 138.246 38.8555C137.957 39.5039 137.738 40.1484 137.59 40.7891C137.371 41.7188 137.238 42.8086 137.191 44.0586V46.3555C137.191 46.5977 137.109 46.7812 136.945 46.9062C136.789 47.0312 136.613 47.0938 136.418 47.0938C136.23 47.0938 136.059 47.0352 135.902 46.918C135.754 46.8008 135.676 46.625 135.668 46.3906C135.652 46.0391 135.645 45.6719 135.645 45.2891C135.645 45.0703 135.645 44.8555 135.645 44.6445C135.652 44.4336 135.66 44.2266 135.668 44.0234ZM155.32 38.4219C155.32 37.6953 155.512 37.0859 155.895 36.5938C156.277 36.0938 156.773 35.7188 157.383 35.4688C157.992 35.2188 158.641 35.0938 159.328 35.0938C161.562 35.0938 163.426 35.8047 164.918 37.2266C165.074 37.375 165.152 37.5508 165.152 37.7539C165.152 37.9492 165.082 38.125 164.941 38.2812C164.809 38.4375 164.633 38.5195 164.414 38.5273C164.195 38.5273 164.016 38.4609 163.875 38.3281C163.43 37.8984 162.828 37.5078 162.07 37.1562C161.32 36.7969 160.555 36.6172 159.773 36.6172C158.164 36.6172 157.215 37.0547 156.926 37.9297C156.863 38.1172 156.832 38.2969 156.832 38.4688C156.832 38.9375 157.051 39.3711 157.488 39.7695C157.973 40.2148 158.785 40.4375 159.926 40.4375C160.113 40.4375 160.312 40.4297 160.523 40.4141C160.734 40.3984 160.945 40.3906 161.156 40.3906C162.164 40.3906 162.98 40.543 163.605 40.8477C164.23 41.1445 164.707 41.6211 165.035 42.2773C165.246 42.7148 165.352 43.1406 165.352 43.5547C165.352 43.7422 165.332 43.9297 165.293 44.1172C165.035 45.2578 164.328 46.0898 163.172 46.6133C162.445 46.9492 161.676 47.1172 160.863 47.1172C160.699 47.1172 160.531 47.1094 160.359 47.0938C158.508 46.9219 156.969 46.2969 155.742 45.2188C155.57 45.0703 155.484 44.8789 155.484 44.6445C155.484 44.4336 155.559 44.2578 155.707 44.1172C155.863 43.9688 156.043 43.8945 156.246 43.8945C156.441 43.8945 156.609 43.9531 156.75 44.0703C157.297 44.5469 157.906 44.918 158.578 45.1836C159.25 45.4492 160.02 45.582 160.887 45.582C161.973 45.582 162.801 45.2695 163.371 44.6445C163.684 44.3008 163.84 43.9492 163.84 43.5898C163.84 43.3789 163.785 43.1641 163.676 42.9453C163.34 42.2578 162.629 41.9141 161.543 41.9141C161.309 41.9141 161.066 41.9219 160.816 41.9375C160.566 41.9453 160.34 41.9492 160.137 41.9492C159.207 41.9492 158.52 41.8906 158.074 41.7734C157.457 41.6094 156.91 41.3086 156.434 40.8711C155.957 40.4336 155.629 39.9102 155.449 39.3008C155.363 39.0117 155.32 38.7188 155.32 38.4219ZM169.219 42.4531C169.219 43.4141 169.496 44.1836 170.051 44.7617C170.613 45.3398 171.414 45.6289 172.453 45.6289C173.352 45.6289 174.41 45.4102 175.629 44.9727C175.715 44.9414 175.805 44.9258 175.898 44.9258C176.102 44.9258 176.277 45 176.426 45.1484C176.582 45.2891 176.66 45.4609 176.66 45.6641C176.66 45.8438 176.609 46 176.508 46.1328C176.406 46.2656 176.285 46.3555 176.145 46.4023C174.754 46.9102 173.52 47.1641 172.441 47.1641C171.246 47.1641 170.266 46.8828 169.5 46.3203C168.734 45.75 168.219 45.0234 167.953 44.1406C167.781 43.5703 167.695 42.9961 167.695 42.418C167.695 41.6289 167.852 40.8242 168.164 40.0039C168.453 39.2383 168.867 38.5156 169.406 37.8359C169.953 37.1562 170.613 36.6055 171.387 36.1836C172.168 35.7539 173.047 35.5391 174.023 35.5391C174.664 35.5391 175.328 35.6445 176.016 35.8555C176.195 35.9102 176.324 36.0039 176.402 36.1367C176.488 36.2617 176.531 36.3984 176.531 36.5469C176.531 36.7422 176.465 36.9258 176.332 37.0977C176.207 37.2617 176.035 37.3438 175.816 37.3438C175.738 37.3438 175.66 37.332 175.582 37.3086C175.082 37.1602 174.594 37.0859 174.117 37.0859C173.367 37.0859 172.691 37.25 172.09 37.5781C171.496 37.8984 170.988 38.3203 170.566 38.8438C170.145 39.3594 169.82 39.918 169.594 40.5195C169.344 41.1836 169.219 41.8281 169.219 42.4531ZM179.027 44.0234L178.992 30.6406C178.992 30.3984 179.07 30.2148 179.227 30.0898C179.391 29.9648 179.566 29.9023 179.754 29.9023C179.949 29.9023 180.125 29.9648 180.281 30.0898C180.438 30.2148 180.516 30.3984 180.516 30.6406L180.527 37.625C181.418 36.0781 182.543 35.2227 183.902 35.0586C184.082 35.0352 184.258 35.0234 184.43 35.0234C185.523 35.0234 186.539 35.4336 187.477 36.2539C188.172 36.8555 188.727 37.6289 189.141 38.5742C189.562 39.5117 189.773 40.6133 189.773 41.8789C189.773 43.4414 189.363 45.0547 188.543 46.7188C188.41 46.9844 188.184 47.1172 187.863 47.1172C187.645 47.1172 187.438 47.0117 187.242 46.8008C187.055 46.582 187.035 46.3281 187.184 46.0391C187.895 44.6094 188.25 43.2227 188.25 41.8789C188.25 40.8789 188.086 40 187.758 39.2422C187.438 38.4766 187.012 37.8633 186.48 37.4023C185.832 36.832 185.145 36.5469 184.418 36.5469C183.762 36.5469 183.203 36.7695 182.742 37.2148C182.281 37.6523 181.902 38.1992 181.605 38.8555C181.316 39.5039 181.098 40.1484 180.949 40.7891C180.73 41.7188 180.598 42.8086 180.551 44.0586V46.3555C180.551 46.5977 180.469 46.7812 180.305 46.9062C180.148 47.0312 179.973 47.0938 179.777 47.0938C179.59 47.0938 179.418 47.0352 179.262 46.918C179.113 46.8008 179.035 46.625 179.027 46.3906C179.012 46.0391 179.004 45.6719 179.004 45.2891C179.004 45.0703 179.004 44.8555 179.004 44.6445C179.012 44.4336 179.02 44.2266 179.027 44.0234ZM198.129 34.8477C200.074 34.9648 201.668 35.9258 202.91 37.7305C203.246 38.2148 203.504 38.7539 203.684 39.3477C203.863 39.9336 203.953 40.5859 203.953 41.3047C203.953 42.375 203.699 43.3359 203.191 44.1875C202.684 45.0312 202.07 45.6836 201.352 46.1445C200.891 46.4414 200.371 46.6797 199.793 46.8594C199.215 47.0312 198.617 47.1172 198 47.1172C196.852 47.1172 195.871 46.8672 195.059 46.3672C194.254 45.8594 193.605 45.2305 193.113 44.4805C192.449 43.4492 192.117 42.3438 192.117 41.1641C192.117 40.8516 192.141 40.5352 192.188 40.2148C192.406 38.6602 193.059 37.3867 194.145 36.3945C195.238 35.3945 196.473 34.8672 197.848 34.8125C197.941 34.7969 198.035 34.8086 198.129 34.8477ZM202.418 41.2227C202.418 40.3164 202.207 39.5078 201.785 38.7969C201.363 38.0781 200.816 37.5078 200.145 37.0859C199.48 36.6562 198.781 36.418 198.047 36.3711C197.984 36.3711 197.922 36.3594 197.859 36.3359C197.062 36.3828 196.344 36.6289 195.703 37.0742C195.062 37.5117 194.555 38.0898 194.18 38.8086C193.812 39.5195 193.629 40.3125 193.629 41.1875C193.629 41.8594 193.758 42.4688 194.016 43.0156C194.281 43.5625 194.621 44.0312 195.035 44.4219C195.457 44.8047 195.895 45.0898 196.348 45.2773C196.895 45.4961 197.457 45.6055 198.035 45.6055C198.84 45.6055 199.57 45.418 200.227 45.043C200.891 44.6602 201.395 44.1992 201.738 43.6602C201.965 43.3008 202.133 42.9141 202.242 42.5C202.359 42.0781 202.418 41.6523 202.418 41.2227ZM212.309 34.8477C214.254 34.9648 215.848 35.9258 217.09 37.7305C217.426 38.2148 217.684 38.7539 217.863 39.3477C218.043 39.9336 218.133 40.5859 218.133 41.3047C218.133 42.375 217.879 43.3359 217.371 44.1875C216.863 45.0312 216.25 45.6836 215.531 46.1445C215.07 46.4414 214.551 46.6797 213.973 46.8594C213.395 47.0312 212.797 47.1172 212.18 47.1172C211.031 47.1172 210.051 46.8672 209.238 46.3672C208.434 45.8594 207.785 45.2305 207.293 44.4805C206.629 43.4492 206.297 42.3438 206.297 41.1641C206.297 40.8516 206.32 40.5352 206.367 40.2148C206.586 38.6602 207.238 37.3867 208.324 36.3945C209.418 35.3945 210.652 34.8672 212.027 34.8125C212.121 34.7969 212.215 34.8086 212.309 34.8477ZM216.598 41.2227C216.598 40.3164 216.387 39.5078 215.965 38.7969C215.543 38.0781 214.996 37.5078 214.324 37.0859C213.66 36.6562 212.961 36.418 212.227 36.3711C212.164 36.3711 212.102 36.3594 212.039 36.3359C211.242 36.3828 210.523 36.6289 209.883 37.0742C209.242 37.5117 208.734 38.0898 208.359 38.8086C207.992 39.5195 207.809 40.3125 207.809 41.1875C207.809 41.8594 207.938 42.4688 208.195 43.0156C208.461 43.5625 208.801 44.0312 209.215 44.4219C209.637 44.8047 210.074 45.0898 210.527 45.2773C211.074 45.4961 211.637 45.6055 212.215 45.6055C213.02 45.6055 213.75 45.418 214.406 45.043C215.07 44.6602 215.574 44.1992 215.918 43.6602C216.145 43.3008 216.312 42.9141 216.422 42.5C216.539 42.0781 216.598 41.6523 216.598 41.2227ZM221.672 29.7852C221.867 29.7852 222.039 29.8672 222.188 30.0312C222.344 30.1875 222.414 30.3711 222.398 30.582C222.266 33.8242 222.164 36.5703 222.094 38.8203C222.023 41.0703 221.988 42.8281 221.988 44.0938C221.988 45.1953 222.016 45.9219 222.07 46.2734C222.078 46.3203 222.082 46.3633 222.082 46.4023C222.082 46.6367 222 46.8164 221.836 46.9414C221.672 47.0664 221.492 47.1289 221.297 47.1289C221.133 47.1289 220.977 47.0781 220.828 46.9766C220.688 46.875 220.602 46.7148 220.57 46.4961C220.508 46.0977 220.477 45.2812 220.477 44.0469C220.477 41.4219 220.613 36.9102 220.887 30.5117C220.895 30.3086 220.977 30.1367 221.133 29.9961C221.297 29.8555 221.477 29.7852 221.672 29.7852ZM241.676 38.8555C241.699 38.9414 241.711 39.0312 241.711 39.125C241.711 39.3047 241.676 39.5117 241.605 39.7461C241.488 40.9805 241.43 42.082 241.43 43.0508C241.43 44.4023 241.543 45.5 241.77 46.3438C241.793 46.4219 241.805 46.4961 241.805 46.5664C241.805 46.7852 241.719 46.957 241.547 47.082C241.383 47.2148 241.203 47.2812 241.008 47.2812C240.859 47.2812 240.719 47.2383 240.586 47.1523C240.453 47.0664 240.359 46.9258 240.305 46.7305C240.062 45.832 239.934 44.6914 239.918 43.3086C239.176 44.5039 238.379 45.4453 237.527 46.1328C237.012 46.5469 236.48 46.7812 235.934 46.8359C235.605 46.9297 235.285 46.9766 234.973 46.9766C234.527 46.9766 234.121 46.8945 233.754 46.7305C233.387 46.5664 233.07 46.3594 232.805 46.1094C232.328 45.6641 231.957 45.0898 231.691 44.3867C231.434 43.6758 231.305 42.8555 231.305 41.9258C231.305 40.7305 231.582 39.5898 232.137 38.5039C232.949 36.9102 234.184 35.8477 235.84 35.3164C236.473 35.1055 237.082 35 237.668 35C238.402 35 239.094 35.1719 239.742 35.5156C240.875 36.1172 241.52 37.2305 241.676 38.8555ZM240.152 38.9609C240.082 38.2109 239.836 37.6172 239.414 37.1797C239 36.7422 238.434 36.5234 237.715 36.5234C237.285 36.5234 236.816 36.6055 236.309 36.7695C235.051 37.168 234.133 37.9375 233.555 39.0781C233.07 40.0391 232.828 40.9961 232.828 41.9492C232.828 42.6211 232.918 43.2227 233.098 43.7539C233.277 44.2852 233.508 44.6836 233.789 44.9492C234.141 45.2773 234.539 45.4414 234.984 45.4414C235.133 45.4414 235.273 45.4258 235.406 45.3945C235.547 45.3555 235.703 45.3281 235.875 45.3125C236.008 45.2969 236.27 45.1367 236.66 44.832C237.051 44.5195 237.465 44.0781 237.902 43.5078C238.348 42.9375 238.766 42.2969 239.156 41.5859C239.547 40.875 239.863 40.1602 240.105 39.4414C240.113 39.3633 240.121 39.2852 240.129 39.207C240.137 39.1211 240.145 39.0391 240.152 38.9609ZM245.672 42.4531C245.672 43.4141 245.949 44.1836 246.504 44.7617C247.066 45.3398 247.867 45.6289 248.906 45.6289C249.805 45.6289 250.863 45.4102 252.082 44.9727C252.168 44.9414 252.258 44.9258 252.352 44.9258C252.555 44.9258 252.73 45 252.879 45.1484C253.035 45.2891 253.113 45.4609 253.113 45.6641C253.113 45.8438 253.062 46 252.961 46.1328C252.859 46.2656 252.738 46.3555 252.598 46.4023C251.207 46.9102 249.973 47.1641 248.895 47.1641C247.699 47.1641 246.719 46.8828 245.953 46.3203C245.188 45.75 244.672 45.0234 244.406 44.1406C244.234 43.5703 244.148 42.9961 244.148 42.418C244.148 41.6289 244.305 40.8242 244.617 40.0039C244.906 39.2383 245.32 38.5156 245.859 37.8359C246.406 37.1562 247.066 36.6055 247.84 36.1836C248.621 35.7539 249.5 35.5391 250.477 35.5391C251.117 35.5391 251.781 35.6445 252.469 35.8555C252.648 35.9102 252.777 36.0039 252.855 36.1367C252.941 36.2617 252.984 36.3984 252.984 36.5469C252.984 36.7422 252.918 36.9258 252.785 37.0977C252.66 37.2617 252.488 37.3438 252.27 37.3438C252.191 37.3438 252.113 37.332 252.035 37.3086C251.535 37.1602 251.047 37.0859 250.57 37.0859C249.82 37.0859 249.145 37.25 248.543 37.5781C247.949 37.8984 247.441 38.3203 247.02 38.8438C246.598 39.3594 246.273 39.918 246.047 40.5195C245.797 41.1836 245.672 41.8281 245.672 42.4531ZM256.969 42.4531C256.969 43.4141 257.246 44.1836 257.801 44.7617C258.363 45.3398 259.164 45.6289 260.203 45.6289C261.102 45.6289 262.16 45.4102 263.379 44.9727C263.465 44.9414 263.555 44.9258 263.648 44.9258C263.852 44.9258 264.027 45 264.176 45.1484C264.332 45.2891 264.41 45.4609 264.41 45.6641C264.41 45.8438 264.359 46 264.258 46.1328C264.156 46.2656 264.035 46.3555 263.895 46.4023C262.504 46.9102 261.27 47.1641 260.191 47.1641C258.996 47.1641 258.016 46.8828 257.25 46.3203C256.484 45.75 255.969 45.0234 255.703 44.1406C255.531 43.5703 255.445 42.9961 255.445 42.418C255.445 41.6289 255.602 40.8242 255.914 40.0039C256.203 39.2383 256.617 38.5156 257.156 37.8359C257.703 37.1562 258.363 36.6055 259.137 36.1836C259.918 35.7539 260.797 35.5391 261.773 35.5391C262.414 35.5391 263.078 35.6445 263.766 35.8555C263.945 35.9102 264.074 36.0039 264.152 36.1367C264.238 36.2617 264.281 36.3984 264.281 36.5469C264.281 36.7422 264.215 36.9258 264.082 37.0977C263.957 37.2617 263.785 37.3438 263.566 37.3438C263.488 37.3438 263.41 37.332 263.332 37.3086C262.832 37.1602 262.344 37.0859 261.867 37.0859C261.117 37.0859 260.441 37.25 259.84 37.5781C259.246 37.8984 258.738 38.3203 258.316 38.8438C257.895 39.3594 257.57 39.918 257.344 40.5195C257.094 41.1836 256.969 41.8281 256.969 42.4531ZM270.832 34.8477C272.777 34.9648 274.371 35.9258 275.613 37.7305C275.949 38.2148 276.207 38.7539 276.387 39.3477C276.566 39.9336 276.656 40.5859 276.656 41.3047C276.656 42.375 276.402 43.3359 275.895 44.1875C275.387 45.0312 274.773 45.6836 274.055 46.1445C273.594 46.4414 273.074 46.6797 272.496 46.8594C271.918 47.0312 271.32 47.1172 270.703 47.1172C269.555 47.1172 268.574 46.8672 267.762 46.3672C266.957 45.8594 266.309 45.2305 265.816 44.4805C265.152 43.4492 264.82 42.3438 264.82 41.1641C264.82 40.8516 264.844 40.5352 264.891 40.2148C265.109 38.6602 265.762 37.3867 266.848 36.3945C267.941 35.3945 269.176 34.8672 270.551 34.8125C270.645 34.7969 270.738 34.8086 270.832 34.8477ZM275.121 41.2227C275.121 40.3164 274.91 39.5078 274.488 38.7969C274.066 38.0781 273.52 37.5078 272.848 37.0859C272.184 36.6562 271.484 36.418 270.75 36.3711C270.688 36.3711 270.625 36.3594 270.562 36.3359C269.766 36.3828 269.047 36.6289 268.406 37.0742C267.766 37.5117 267.258 38.0898 266.883 38.8086C266.516 39.5195 266.332 40.3125 266.332 41.1875C266.332 41.8594 266.461 42.4688 266.719 43.0156C266.984 43.5625 267.324 44.0312 267.738 44.4219C268.16 44.8047 268.598 45.0898 269.051 45.2773C269.598 45.4961 270.16 45.6055 270.738 45.6055C271.543 45.6055 272.273 45.418 272.93 45.043C273.594 44.6602 274.098 44.1992 274.441 43.6602C274.668 43.3008 274.836 42.9141 274.945 42.5C275.062 42.0781 275.121 41.6523 275.121 41.2227ZM287.379 36.0547C287.488 35.6172 287.742 35.3984 288.141 35.3984C288.328 35.3984 288.492 35.4688 288.633 35.6094C288.781 35.75 288.867 35.9102 288.891 36.0898C288.961 36.8008 288.996 37.4805 288.996 38.1289C288.996 39.043 288.926 39.8984 288.785 40.6953C288.832 43.3906 289.074 45.1445 289.512 45.957C289.566 46.0508 289.598 46.1016 289.605 46.1094C289.863 46.25 289.992 46.4766 289.992 46.7891C289.992 47.0859 289.867 47.3008 289.617 47.4336C289.367 47.5664 289.086 47.5508 288.773 47.3867C288.188 47.082 287.766 46.0586 287.508 44.3164C287.25 44.7617 286.906 45.2109 286.477 45.6641C286.047 46.1172 285.555 46.4961 285 46.8008C284.453 47.0977 283.859 47.2461 283.219 47.2461C282.805 47.2461 282.395 47.1719 281.988 47.0234C281.012 46.6641 280.27 45.9297 279.762 44.8203C279.254 43.7031 279 42.4258 279 40.9883C279 39.457 279.266 37.6992 279.797 35.7148C279.844 35.543 279.941 35.4102 280.09 35.3164C280.238 35.2148 280.395 35.1641 280.559 35.1641C280.77 35.1641 280.961 35.2578 281.133 35.4453C281.305 35.6328 281.352 35.8555 281.273 36.1133C280.766 37.9414 280.512 39.5508 280.512 40.9414C280.512 41.9961 280.656 42.9258 280.945 43.7305C281.148 44.293 281.441 44.7695 281.824 45.1602C282.207 45.543 282.664 45.7344 283.195 45.7344C283.648 45.7344 284.117 45.5781 284.602 45.2656C285.945 44.4062 286.832 42.8398 287.262 40.5664C287.262 40.4102 287.258 40.25 287.25 40.0859C287.25 39.9141 287.25 39.7422 287.25 39.5703C287.25 39.2344 287.254 38.8867 287.262 38.5273C287.27 38.1602 287.281 37.7852 287.297 37.4023L287.379 36.0547ZM292.84 34.9297C293.066 34.9297 293.254 35.0195 293.402 35.1992C293.965 35.8789 294.375 36.9258 294.633 38.3398C295.695 36.418 297.066 35.3359 298.746 35.0938C299.012 35.0547 299.273 35.0352 299.531 35.0352C300.469 35.0352 301.297 35.25 302.016 35.6797C302.734 36.1094 303.324 36.6758 303.785 37.3789C304.246 38.082 304.559 38.8398 304.723 39.6523C304.832 40.1758 304.887 40.7109 304.887 41.2578C304.887 42.9844 304.336 44.8086 303.234 46.7305C303.094 46.9727 302.879 47.0938 302.59 47.0938C302.348 47.0938 302.129 46.9805 301.934 46.7539C301.746 46.5195 301.738 46.2578 301.91 45.9688C302.879 44.2812 303.363 42.707 303.363 41.2461C303.363 40.8086 303.32 40.3828 303.234 39.9688C303.109 39.3672 302.879 38.8086 302.543 38.293C302.215 37.7773 301.793 37.3633 301.277 37.0508C300.77 36.7305 300.184 36.5703 299.52 36.5703C299.34 36.5703 299.156 36.582 298.969 36.6055C298.195 36.7148 297.535 37.0547 296.988 37.625C296.441 38.1953 296 38.8867 295.664 39.6992C295.336 40.5039 295.098 41.3242 294.949 42.1602C294.949 42.2617 294.949 42.3633 294.949 42.4648C294.949 43.5898 294.891 44.7227 294.773 45.8633L294.727 46.3203C294.703 46.5391 294.617 46.7031 294.469 46.8125C294.32 46.9141 294.16 46.9648 293.988 46.9648C293.801 46.9648 293.625 46.9062 293.461 46.7891C293.305 46.6719 293.223 46.4961 293.215 46.2617C293.199 45.9102 293.191 45.5664 293.191 45.2305C293.191 44.082 293.27 43.0234 293.426 42.0547C293.395 40.2578 293.254 38.9102 293.004 38.0117C292.762 37.1211 292.539 36.5508 292.336 36.3008C292.148 36.0664 292.055 35.8594 292.055 35.6797C292.055 35.4531 292.137 35.2734 292.301 35.1406C292.465 35 292.645 34.9297 292.84 34.9297ZM313.371 46.625C313.371 46.8359 313.293 47.0156 313.137 47.1641C312.98 47.3125 312.801 47.3867 312.598 47.3867C312.473 47.3867 312.355 47.3555 312.246 47.293C311.238 46.7539 310.629 45.2812 310.418 42.875C310.371 42.3516 310.336 41.7891 310.312 41.1875C310.289 40.5781 310.277 39.9258 310.277 39.2305C310.277 38.5586 310.289 37.8242 310.312 37.0273C309.93 37.0273 309.547 37.0273 309.164 37.0273C308.781 37.0195 308.395 37.0156 308.004 37.0156C307.801 37.0156 307.621 36.9375 307.465 36.7812C307.316 36.6172 307.242 36.4336 307.242 36.2305C307.242 36.043 307.316 35.875 307.465 35.7266C307.621 35.5703 307.801 35.4922 308.004 35.4922L310.359 35.5039C310.367 35.2695 310.379 34.9102 310.395 34.4258C310.41 33.9414 310.426 33.4258 310.441 32.8789C310.457 32.332 310.465 31.8516 310.465 31.4375C310.465 31.3125 310.461 31.1992 310.453 31.0977C310.453 30.9961 310.453 30.9023 310.453 30.8164C310.453 30.582 310.531 30.4023 310.688 30.2773C310.852 30.1523 311.027 30.0898 311.215 30.0898C311.402 30.0898 311.574 30.1484 311.73 30.2656C311.887 30.3828 311.969 30.5625 311.977 30.8047C311.984 30.9609 311.988 31.1602 311.988 31.4023C311.988 31.832 311.98 32.3203 311.965 32.8672C311.949 33.4141 311.934 33.9336 311.918 34.4258C311.902 34.9102 311.891 35.2734 311.883 35.5156L313.652 35.5273C313.895 35.5273 314.078 35.6094 314.203 35.7734C314.328 35.9375 314.391 36.1133 314.391 36.3008C314.391 36.4883 314.328 36.6602 314.203 36.8164C314.086 36.9727 313.906 37.0508 313.664 37.0508C313.656 37.0508 313.652 37.0508 313.652 37.0508C313.348 37.0508 313.043 37.0508 312.738 37.0508C312.441 37.043 312.141 37.0391 311.836 37.0391C311.82 37.7422 311.812 38.4062 311.812 39.0312C311.812 41.8594 312.004 43.8477 312.387 44.9961C312.566 45.5195 312.754 45.832 312.949 45.9336C313.066 45.9961 313.164 46.0898 313.242 46.2148C313.328 46.3398 313.371 46.4766 313.371 46.625Z" fill="white"/>
</svg>
