<svg width="447" height="37" viewBox="0 0 447 37" fill="none" xmlns="http://www.w3.org/2000/svg">
<line y1="16.5" x2="150" y2="16.5" stroke="black"/>
<line x1="297" y1="16.5" x2="447" y2="16.5" stroke="black"/>
<path d="M180.936 1.51172C181.217 1.51172 181.469 1.62305 181.691 1.8457C181.926 2.06836 182.043 2.32617 182.043 2.61914C182.172 7.62305 182.312 11.9941 182.465 15.7324C182.629 19.459 182.805 22.5352 182.992 24.9609C183.051 24.9609 183.115 24.9609 183.186 24.9609C184.088 24.9609 185.049 24.8906 186.068 24.75C187.1 24.6094 188.107 24.4922 189.092 24.3984C190.217 24.2812 191.283 24.2227 192.291 24.2227C194.33 24.2227 196.129 24.457 197.688 24.9258C197.934 24.9961 198.127 25.1426 198.268 25.3652C198.408 25.5879 198.479 25.8223 198.479 26.0684C198.479 26.373 198.338 26.6543 198.057 26.9121C197.787 27.1699 197.453 27.2402 197.055 27.123C195.66 26.7129 194.049 26.5078 192.221 26.5078C191.143 26.5078 190.023 26.5723 188.863 26.7012C187.715 26.8301 186.654 26.9531 185.682 27.0703C185.201 27.1289 184.773 27.1758 184.398 27.2109C184.035 27.2578 183.695 27.2812 183.379 27.2812C182.77 27.2812 182.166 27.1699 181.568 26.9473C181.088 26.7715 180.818 26.3555 180.76 25.6992C180.561 23.2852 180.344 20.1504 180.109 16.2949C179.875 12.4395 179.758 7.89844 179.758 2.67188C179.758 2.36719 179.875 2.09766 180.109 1.86328C180.355 1.62891 180.631 1.51172 180.936 1.51172ZM211.064 8.77148C213.982 8.94727 216.373 10.3887 218.236 13.0957C218.74 13.8223 219.127 14.6309 219.396 15.5215C219.666 16.4004 219.801 17.3789 219.801 18.457C219.801 20.0625 219.42 21.5039 218.658 22.7812C217.896 24.0469 216.977 25.0254 215.898 25.7168C215.207 26.1621 214.428 26.5195 213.561 26.7891C212.693 27.0469 211.797 27.1758 210.871 27.1758C209.148 27.1758 207.678 26.8008 206.459 26.0508C205.252 25.2891 204.279 24.3457 203.541 23.2207C202.545 21.6738 202.047 20.0156 202.047 18.2461C202.047 17.7773 202.082 17.3027 202.152 16.8223C202.48 14.4902 203.459 12.5801 205.088 11.0918C206.729 9.5918 208.58 8.80078 210.643 8.71875C210.783 8.69531 210.924 8.71289 211.064 8.77148ZM217.498 18.334C217.498 16.9746 217.182 15.7617 216.549 14.6953C215.916 13.6172 215.096 12.7617 214.088 12.1289C213.092 11.4844 212.043 11.127 210.941 11.0566C210.848 11.0566 210.754 11.0391 210.66 11.0039C209.465 11.0742 208.387 11.4434 207.426 12.1113C206.465 12.7676 205.703 13.6348 205.141 14.7129C204.59 15.7793 204.314 16.9688 204.314 18.2812C204.314 19.2891 204.508 20.2031 204.895 21.0234C205.293 21.8438 205.803 22.5469 206.424 23.1328C207.057 23.707 207.713 24.1348 208.393 24.416C209.213 24.7441 210.057 24.9082 210.924 24.9082C212.131 24.9082 213.227 24.627 214.211 24.0645C215.207 23.4902 215.963 22.7988 216.479 21.9902C216.818 21.4512 217.07 20.8711 217.234 20.25C217.41 19.6172 217.498 18.9785 217.498 18.334ZM229.855 27.2109C228.742 27.2109 227.822 26.8301 227.096 26.0684C226.381 25.3066 225.848 24.3398 225.496 23.168C225.145 21.9961 224.969 20.7949 224.969 19.5645C224.969 17.8066 225.332 16.1016 226.059 14.4492C227.125 12.0234 228.789 10.4062 231.051 9.59766C231.883 9.29297 232.709 9.14062 233.529 9.14062C235.217 9.14062 236.523 9.69727 237.449 10.8105C238.375 11.9238 238.896 13.3066 239.014 14.959C239.061 15.1934 239.113 15.6152 239.172 16.2246C239.23 16.8223 239.283 17.4902 239.33 18.2285C239.377 18.9551 239.412 19.6582 239.436 20.3379C239.471 21.0176 239.488 21.5566 239.488 21.9551C239.488 26.0215 238.885 29.3086 237.678 31.8164C236.998 33.2109 236.066 34.4062 234.883 35.4023C233.699 36.4102 232.199 36.9141 230.383 36.9141C230.043 36.9141 229.691 36.8906 229.328 36.8438C227.5 36.6328 225.678 35.9707 223.861 34.8574C223.51 34.6465 223.334 34.3242 223.334 33.8906C223.334 33.4922 223.51 33.1641 223.861 32.9062C224.225 32.6484 224.623 32.6484 225.057 32.9062C226.604 33.8438 228.08 34.3945 229.486 34.5586C229.803 34.5938 230.107 34.6113 230.4 34.6113C231.771 34.6113 232.85 34.2539 233.635 33.5391C234.432 32.8242 235.094 31.916 235.621 30.8145C236.676 28.623 237.203 25.6641 237.203 21.9375C237.203 21.4922 237.197 21.041 237.186 20.584C235.158 24.627 233.195 26.7598 231.297 26.9824C230.793 27.1348 230.312 27.2109 229.855 27.2109ZM230.014 24.8906C230.213 24.8906 230.395 24.8613 230.559 24.8027C230.723 24.7324 230.91 24.6973 231.121 24.6973C231.285 24.6973 231.596 24.5039 232.053 24.1172C232.498 23.7305 232.961 23.1914 233.441 22.5C233.922 21.8086 234.373 21.0703 234.795 20.2852C235.217 19.5 235.562 18.7676 235.832 18.0879C236.383 16.6934 236.693 15.8145 236.764 15.4512C236.752 15.3574 236.74 15.2812 236.729 15.2227C236.729 15.1641 236.729 15.123 236.729 15.0996C236.623 13.8574 236.324 12.9375 235.832 12.3398C235.34 11.7305 234.596 11.4258 233.6 11.4258C232.979 11.4258 232.387 11.5312 231.824 11.7422C230.207 12.3164 229 13.4941 228.203 15.2754C227.57 16.7051 227.254 18.1348 227.254 19.5645C227.254 20.5723 227.377 21.5215 227.623 22.4121C227.881 23.291 228.191 23.9004 228.555 24.2402C229.012 24.6738 229.498 24.8906 230.014 24.8906ZM252.848 5.64258C252.848 5.20898 252.977 4.79297 253.234 4.39453C253.504 3.98438 253.832 3.65625 254.219 3.41016C254.605 3.15234 254.986 3.02344 255.361 3.02344C255.912 3.02344 256.375 3.25781 256.75 3.72656C257.137 4.18359 257.33 4.64062 257.33 5.09766C257.33 5.53125 257.195 5.92969 256.926 6.29297C256.656 6.65625 256.293 6.91992 255.836 7.08398C255.32 7.3418 254.863 7.4707 254.465 7.4707C254.031 7.4707 253.65 7.29492 253.322 6.94336C253.006 6.58008 252.848 6.14648 252.848 5.64258ZM255.695 24.1348C255.66 25.0723 255.531 25.8223 255.309 26.3848C255.086 26.9355 254.699 27.2109 254.148 27.2109C253.844 27.2109 253.574 27.0996 253.34 26.877C253.105 26.6543 252.988 26.3789 252.988 26.0508C252.988 25.8984 253.018 25.7461 253.076 25.5938C253.182 25.3477 253.264 24.8613 253.322 24.1348C253.393 23.3965 253.445 22.5293 253.48 21.5332C253.516 20.5371 253.539 19.5117 253.551 18.457C253.574 17.3906 253.586 16.4004 253.586 15.4863C253.586 14.5723 253.586 13.8457 253.586 13.3066C253.586 12.3105 253.58 11.3555 253.568 10.4414C253.568 10.0664 253.686 9.78516 253.92 9.59766C254.166 9.41016 254.436 9.31641 254.729 9.31641C255.01 9.31641 255.262 9.41016 255.484 9.59766C255.719 9.77344 255.836 10.043 255.836 10.4062C255.848 11.0273 255.854 11.6367 255.854 12.2344C255.865 12.832 255.871 13.418 255.871 13.9922C255.871 15.9023 255.859 17.6309 255.836 19.1777C255.824 20.7246 255.777 22.377 255.695 24.1348ZM262.041 8.89453C262.381 8.89453 262.662 9.0293 262.885 9.29883C263.729 10.3184 264.344 11.8887 264.73 14.0098C266.324 11.127 268.381 9.50391 270.9 9.14062C271.299 9.08203 271.691 9.05273 272.078 9.05273C273.484 9.05273 274.727 9.375 275.805 10.0195C276.883 10.6641 277.768 11.5137 278.459 12.5684C279.15 13.623 279.619 14.7598 279.865 15.9785C280.029 16.7637 280.111 17.5664 280.111 18.3867C280.111 20.9766 279.285 23.7129 277.633 26.5957C277.422 26.959 277.1 27.1406 276.666 27.1406C276.303 27.1406 275.975 26.9707 275.682 26.6309C275.4 26.2793 275.389 25.8867 275.646 25.4531C277.1 22.9219 277.826 20.5605 277.826 18.3691C277.826 17.7129 277.762 17.0742 277.633 16.4531C277.445 15.5508 277.1 14.7129 276.596 13.9395C276.104 13.166 275.471 12.5449 274.697 12.0762C273.936 11.5957 273.057 11.3555 272.061 11.3555C271.791 11.3555 271.516 11.373 271.234 11.4082C270.074 11.5723 269.084 12.082 268.264 12.9375C267.443 13.793 266.781 14.8301 266.277 16.0488C265.785 17.2559 265.428 18.4863 265.205 19.7402C265.205 19.8926 265.205 20.0449 265.205 20.1973C265.205 21.8848 265.117 23.584 264.941 25.2949L264.871 25.9805C264.836 26.3086 264.707 26.5547 264.484 26.7188C264.262 26.8711 264.021 26.9473 263.764 26.9473C263.482 26.9473 263.219 26.8594 262.973 26.6836C262.738 26.5078 262.615 26.2441 262.604 25.8926C262.58 25.3652 262.568 24.8496 262.568 24.3457C262.568 22.623 262.686 21.0352 262.92 19.582C262.873 16.8867 262.662 14.8652 262.287 13.5176C261.924 12.1816 261.59 11.3262 261.285 10.9512C261.004 10.5996 260.863 10.2891 260.863 10.0195C260.863 9.67969 260.986 9.41016 261.232 9.21094C261.479 9 261.748 8.89453 262.041 8.89453Z" fill="black"/>
</svg>
