<svg width="90" height="90" viewBox="0 0 90 90" fill="none" xmlns="http://www.w3.org/2000/svg">
<path d="M18.3203 61.6719C18.4714 61.6719 18.5911 61.7292 18.6797 61.8438C18.7682 61.9583 18.8125 62.0729 18.8125 62.1875L18.8828 72.9062C18.8828 73.0677 18.8307 73.1901 18.7266 73.2734C18.6224 73.3568 18.5052 73.3984 18.375 73.3984C18.25 73.3984 18.1328 73.3568 18.0234 73.2734C17.9193 73.1901 17.8672 73.0677 17.8672 72.9062L17.8125 64.0781C16.8438 65.6927 16.1302 66.7865 15.6719 67.3594C15.2031 67.9427 14.8385 68.3021 14.5781 68.4375C14.4635 68.5 14.3411 68.5312 14.2109 68.5312C13.9505 68.5312 13.6615 68.388 13.3438 68.1016C12.9688 67.7526 12.5938 67.3542 12.2188 66.9062C11.8438 66.4583 11.4818 66.0026 11.1328 65.5391C10.7891 65.0755 10.4635 64.6432 10.1562 64.2422L9.78125 63.7266L9.89062 72.7891C9.89062 72.9557 9.83594 73.0807 9.72656 73.1641C9.6224 73.2474 9.50521 73.2891 9.375 73.2891C9.25 73.2891 9.13542 73.2474 9.03125 73.1641C8.92708 73.0859 8.875 72.9661 8.875 72.8047L8.74219 62.1641C8.74219 62.0078 8.79427 61.8854 8.89844 61.7969C9.0026 61.7031 9.1224 61.6562 9.25781 61.6562C9.41406 61.6562 9.54427 61.7161 9.64844 61.8359L10.9766 63.6406C12.5964 65.7812 13.6771 67.0521 14.2188 67.4531C14.5938 67.1458 15.0339 66.599 15.5391 65.8125C15.9766 65.1302 16.362 64.513 16.6953 63.9609C17.0339 63.4036 17.3203 62.9141 17.5547 62.4922L17.8594 61.9375C17.8958 61.8698 17.9557 61.8099 18.0391 61.7578C18.1276 61.7005 18.2214 61.6719 18.3203 61.6719ZM20.4453 63.5078C20.4453 63.3151 20.5026 63.1302 20.6172 62.9531C20.737 62.7708 20.8828 62.625 21.0547 62.5156C21.2266 62.401 21.3958 62.3438 21.5625 62.3438C21.8073 62.3438 22.013 62.4479 22.1797 62.6562C22.3516 62.8594 22.4375 63.0625 22.4375 63.2656C22.4375 63.4583 22.3776 63.6354 22.2578 63.7969C22.138 63.9583 21.9766 64.0755 21.7734 64.1484C21.5443 64.263 21.3411 64.3203 21.1641 64.3203C20.9714 64.3203 20.8021 64.2422 20.6562 64.0859C20.5156 63.9245 20.4453 63.7318 20.4453 63.5078ZM21.7109 71.7266C21.6953 72.1432 21.638 72.4766 21.5391 72.7266C21.4401 72.9714 21.2682 73.0938 21.0234 73.0938C20.888 73.0938 20.7682 73.0443 20.6641 72.9453C20.5599 72.8464 20.5078 72.724 20.5078 72.5781C20.5078 72.5104 20.5208 72.4427 20.5469 72.375C20.5938 72.2656 20.6302 72.0495 20.6562 71.7266C20.6875 71.3984 20.7109 71.013 20.7266 70.5703C20.7422 70.1276 20.7526 69.6719 20.7578 69.2031C20.7682 68.7292 20.7734 68.2891 20.7734 67.8828C20.7734 67.4766 20.7734 67.1536 20.7734 66.9141C20.7734 66.4714 20.7708 66.0469 20.7656 65.6406C20.7656 65.474 20.8177 65.349 20.9219 65.2656C21.0312 65.1823 21.151 65.1406 21.2812 65.1406C21.4062 65.1406 21.5182 65.1823 21.6172 65.2656C21.7214 65.3438 21.7734 65.4635 21.7734 65.625C21.7786 65.901 21.7812 66.1719 21.7812 66.4375C21.7865 66.7031 21.7891 66.9635 21.7891 67.2188C21.7891 68.0677 21.7839 68.8359 21.7734 69.5234C21.7682 70.2109 21.7474 70.9453 21.7109 71.7266ZM25.0234 69.9688C25.0234 70.6094 25.2083 71.1224 25.5781 71.5078C25.9531 71.8932 26.487 72.0859 27.1797 72.0859C27.7786 72.0859 28.4844 71.9401 29.2969 71.6484C29.3542 71.6276 29.4141 71.6172 29.4766 71.6172C29.612 71.6172 29.7292 71.6667 29.8281 71.7656C29.9323 71.8594 29.9844 71.974 29.9844 72.1094C29.9844 72.2292 29.9505 72.3333 29.8828 72.4219C29.8151 72.5104 29.7344 72.5703 29.6406 72.6016C28.7135 72.9401 27.8906 73.1094 27.1719 73.1094C26.375 73.1094 25.7214 72.9219 25.2109 72.5469C24.7005 72.1667 24.3568 71.6823 24.1797 71.0938C24.0651 70.7135 24.0078 70.3307 24.0078 69.9453C24.0078 69.4193 24.112 68.8828 24.3203 68.3359C24.513 67.8255 24.7891 67.3438 25.1484 66.8906C25.513 66.4375 25.9531 66.0703 26.4688 65.7891C26.9896 65.5026 27.5755 65.3594 28.2266 65.3594C28.6536 65.3594 29.0964 65.4297 29.5547 65.5703C29.6745 65.6068 29.7604 65.6693 29.8125 65.7578C29.8698 65.8411 29.8984 65.9323 29.8984 66.0312C29.8984 66.1615 29.8542 66.2839 29.7656 66.3984C29.6823 66.5078 29.5677 66.5625 29.4219 66.5625C29.3698 66.5625 29.3177 66.5547 29.2656 66.5391C28.9323 66.4401 28.6068 66.3906 28.2891 66.3906C27.7891 66.3906 27.3385 66.5 26.9375 66.7188C26.5417 66.9323 26.2031 67.2135 25.9219 67.5625C25.6406 67.9062 25.4245 68.2786 25.2734 68.6797C25.1068 69.1224 25.0234 69.5521 25.0234 69.9688ZM32.0703 73.0625C31.9245 73.0625 31.7995 72.9922 31.6953 72.8516C31.5911 72.7057 31.5391 72.5755 31.5391 72.4609C31.5391 72.362 31.5547 72.2604 31.5859 72.1562C31.6224 72.0521 31.6432 71.9531 31.6484 71.8594C31.6641 71.5729 31.6927 71.1875 31.7344 70.7031C31.776 70.2135 31.7969 69.7396 31.7969 69.2812C31.7969 68.9479 31.7917 68.5859 31.7812 68.1953C31.75 67.0443 31.7031 66.3438 31.6406 66.0938C31.6146 65.9844 31.6016 65.8854 31.6016 65.7969C31.6016 65.6458 31.6432 65.5234 31.7266 65.4297C31.8151 65.3307 31.9375 65.2812 32.0938 65.2812C32.2135 65.2812 32.3177 65.3203 32.4062 65.3984C32.4948 65.4766 32.5521 65.5651 32.5781 65.6641C32.6927 66.0964 32.7604 66.7604 32.7812 67.6562C33.5417 66.1615 34.5703 65.3333 35.8672 65.1719C35.888 65.1719 35.9089 65.1719 35.9297 65.1719C36.0859 65.1719 36.2057 65.2292 36.2891 65.3438C36.3776 65.4531 36.4219 65.5729 36.4219 65.7031C36.4219 65.8177 36.388 65.9219 36.3203 66.0156C36.2526 66.1094 36.1432 66.1641 35.9922 66.1797C34.6693 66.3464 33.6953 67.5312 33.0703 69.7344C32.9193 70.2708 32.8047 70.8229 32.7266 71.3906C32.7109 71.625 32.6953 71.8099 32.6797 71.9453C32.6693 72.0807 32.6641 72.2083 32.6641 72.3281C32.6641 72.3958 32.6693 72.4505 32.6797 72.4922C32.6901 72.5339 32.6953 72.5703 32.6953 72.6016C32.6953 72.7161 32.6172 72.8229 32.4609 72.9219C32.3099 73.0156 32.1797 73.0625 32.0703 73.0625ZM40.0938 64.8984C41.3906 64.9766 42.4531 65.6172 43.2812 66.8203C43.5052 67.1432 43.6771 67.5026 43.7969 67.8984C43.9167 68.2891 43.9766 68.724 43.9766 69.2031C43.9766 69.9167 43.8073 70.5573 43.4688 71.125C43.1302 71.6875 42.7214 72.1224 42.2422 72.4297C41.9349 72.6276 41.5885 72.7865 41.2031 72.9062C40.8177 73.0208 40.4193 73.0781 40.0078 73.0781C39.2422 73.0781 38.5885 72.9115 38.0469 72.5781C37.5104 72.2396 37.0781 71.8203 36.75 71.3203C36.3073 70.6328 36.0859 69.8958 36.0859 69.1094C36.0859 68.901 36.1016 68.6901 36.1328 68.4766C36.2786 67.4401 36.7135 66.5911 37.4375 65.9297C38.1667 65.263 38.9896 64.9115 39.9062 64.875C39.9688 64.8646 40.0312 64.8724 40.0938 64.8984ZM42.9531 69.1484C42.9531 68.5443 42.8125 68.0052 42.5312 67.5312C42.25 67.0521 41.8854 66.6719 41.4375 66.3906C40.9948 66.1042 40.5286 65.9453 40.0391 65.9141C39.9974 65.9141 39.9557 65.9062 39.9141 65.8906C39.3828 65.9219 38.9036 66.0859 38.4766 66.3828C38.0495 66.6745 37.7109 67.0599 37.4609 67.5391C37.2161 68.013 37.0938 68.5417 37.0938 69.125C37.0938 69.5729 37.1797 69.9792 37.3516 70.3438C37.5286 70.7083 37.7552 71.0208 38.0312 71.2812C38.3125 71.5365 38.6042 71.7266 38.9062 71.8516C39.2708 71.9974 39.6458 72.0703 40.0312 72.0703C40.5677 72.0703 41.0547 71.9453 41.4922 71.6953C41.9349 71.4401 42.2708 71.1328 42.5 70.7734C42.651 70.5339 42.763 70.276 42.8359 70C42.9141 69.7188 42.9531 69.4349 42.9531 69.1484ZM50.4141 65.1953C50.5807 65.1953 50.7057 65.25 50.7891 65.3594C50.8776 65.4688 50.9219 65.6146 50.9219 65.7969C50.9219 65.9583 50.9089 66.2109 50.8828 66.5547C50.862 66.8932 50.8516 67.1875 50.8516 67.4375C50.8516 68.1198 50.9193 68.776 51.0547 69.4062C51.1901 70.0312 51.3724 70.5417 51.6016 70.9375C51.7995 71.276 52.0286 71.5495 52.2891 71.7578C52.5547 71.9609 52.8385 72.0625 53.1406 72.0625C53.5 72.0625 53.8594 71.9062 54.2188 71.5938C54.7552 71.1146 55.0234 70.3464 55.0234 69.2891C55.0234 68.2995 54.7188 67.2266 54.1094 66.0703C54.0625 65.9922 54.0391 65.9115 54.0391 65.8281C54.0391 65.6875 54.0964 65.5703 54.2109 65.4766C54.3255 65.3776 54.4505 65.3281 54.5859 65.3281C54.7734 65.3281 54.9115 65.4167 55 65.5938C55.6927 66.8906 56.0391 68.1224 56.0391 69.2891C56.0391 69.987 55.9349 70.5938 55.7266 71.1094C55.5234 71.625 55.2318 72.0521 54.8516 72.3906C54.3359 72.849 53.7708 73.0781 53.1562 73.0781C52.625 73.0781 52.1615 72.9375 51.7656 72.6562C51.3698 72.375 51.0417 72.0104 50.7812 71.5625C50.5208 71.1094 50.3203 70.6328 50.1797 70.1328C49.7422 71.513 49.2083 72.4323 48.5781 72.8906C48.349 73.0573 48.1172 73.1406 47.8828 73.1406C47.6745 73.1406 47.4635 73.0755 47.25 72.9453C46.7865 72.6484 46.3854 71.8854 46.0469 70.6562C45.7083 69.4271 45.5391 67.7891 45.5391 65.7422C45.5391 65.5807 45.5911 65.4609 45.6953 65.3828C45.8047 65.2995 45.9219 65.2578 46.0469 65.2578C46.1719 65.2578 46.2865 65.2969 46.3906 65.375C46.4948 65.4531 46.5495 65.5729 46.5547 65.7344C46.638 68.4688 46.8932 70.3438 47.3203 71.3594C47.487 71.75 47.6458 71.9948 47.7969 72.0938C47.8385 72.1198 47.8646 72.1328 47.875 72.1328C47.8854 72.1328 47.9193 72.112 47.9766 72.0703C48.2422 71.8724 48.4792 71.5651 48.6875 71.1484C48.901 70.7266 49.0859 70.2526 49.2422 69.7266C49.3984 69.1953 49.526 68.6536 49.625 68.1016C49.7292 67.5495 49.8047 67.0417 49.8516 66.5781C49.862 66.375 49.8724 66.1667 49.8828 65.9531C49.8932 65.7396 49.9323 65.5599 50 65.4141C50.0729 65.2682 50.2109 65.1953 50.4141 65.1953ZM64.5156 67.5703C64.5312 67.6276 64.5391 67.6875 64.5391 67.75C64.5391 67.8698 64.5156 68.0078 64.4688 68.1641C64.3906 68.987 64.3516 69.7214 64.3516 70.3672C64.3516 71.2682 64.4271 72 64.5781 72.5625C64.5938 72.6146 64.6016 72.6641 64.6016 72.7109C64.6016 72.8568 64.5443 72.9714 64.4297 73.0547C64.3203 73.1432 64.2005 73.1875 64.0703 73.1875C63.9714 73.1875 63.8776 73.1589 63.7891 73.1016C63.7005 73.0443 63.638 72.9505 63.6016 72.8203C63.4401 72.2214 63.3542 71.4609 63.3438 70.5391C62.849 71.3359 62.3177 71.9635 61.75 72.4219C61.4062 72.6979 61.0521 72.8542 60.6875 72.8906C60.4688 72.9531 60.2552 72.9844 60.0469 72.9844C59.75 72.9844 59.4792 72.9297 59.2344 72.8203C58.9896 72.7109 58.7786 72.5729 58.6016 72.4062C58.2839 72.1094 58.0365 71.7266 57.8594 71.2578C57.6875 70.7839 57.6016 70.237 57.6016 69.6172C57.6016 68.8203 57.7865 68.0599 58.1562 67.3359C58.6979 66.2734 59.5208 65.5651 60.625 65.2109C61.0469 65.0703 61.4531 65 61.8438 65C62.3333 65 62.7943 65.1146 63.2266 65.3438C63.9818 65.7448 64.4115 66.487 64.5156 67.5703ZM63.5 67.6406C63.4531 67.1406 63.2891 66.7448 63.0078 66.4531C62.7318 66.1615 62.3542 66.0156 61.875 66.0156C61.5885 66.0156 61.276 66.0703 60.9375 66.1797C60.099 66.4453 59.487 66.9583 59.1016 67.7188C58.7786 68.3594 58.6172 68.9974 58.6172 69.6328C58.6172 70.0807 58.6771 70.4818 58.7969 70.8359C58.9167 71.1901 59.0703 71.4557 59.2578 71.6328C59.4922 71.8516 59.7578 71.9609 60.0547 71.9609C60.1536 71.9609 60.2474 71.9505 60.3359 71.9297C60.4297 71.9036 60.5339 71.8854 60.6484 71.875C60.737 71.8646 60.9115 71.7578 61.1719 71.5547C61.4323 71.3464 61.7083 71.0521 62 70.6719C62.2969 70.2917 62.5755 69.8646 62.8359 69.3906C63.0964 68.9167 63.3073 68.4401 63.4688 67.9609C63.474 67.9089 63.4792 67.8568 63.4844 67.8047C63.4896 67.7474 63.4948 67.6927 63.5 67.6406ZM66.1719 65.5469C66.1667 65.5156 66.1641 65.487 66.1641 65.4609C66.1641 65.3099 66.2188 65.1927 66.3281 65.1094C66.4375 65.026 66.5573 64.9844 66.6875 64.9844C66.8021 64.9844 66.9062 65.0182 67 65.0859C67.099 65.1536 67.1562 65.2604 67.1719 65.4062C67.7188 69.3281 68.276 71.5182 68.8438 71.9766C69.4583 71.5443 70.25 69.3672 71.2188 65.4453C71.25 65.3203 71.3099 65.2292 71.3984 65.1719C71.4922 65.1094 71.5911 65.0781 71.6953 65.0781C71.8255 65.0781 71.9453 65.1198 72.0547 65.2031C72.1693 65.2865 72.2266 65.4062 72.2266 65.5625C72.2266 65.6042 72.2214 65.6458 72.2109 65.6875C71.4557 68.7448 70.7865 70.7969 70.2031 71.8438C69.7708 72.6302 69.3203 73.0234 68.8516 73.0234C68.7005 73.0234 68.5469 72.9818 68.3906 72.8984C67.8906 72.638 67.474 71.8958 67.1406 70.6719C66.8021 69.4583 66.4792 67.75 66.1719 65.5469ZM74.8984 70.3516C75.0495 70.8932 75.3411 71.3177 75.7734 71.625C76.2109 71.9323 76.7604 72.0859 77.4219 72.0859C78.3073 72.0859 79.3359 71.7969 80.5078 71.2188C80.5807 71.1823 80.6562 71.1641 80.7344 71.1641C80.8698 71.1641 80.987 71.2109 81.0859 71.3047C81.1901 71.3984 81.2422 71.5156 81.2422 71.6562C81.2422 71.8802 81.1484 72.0391 80.9609 72.1328C80.3672 72.4245 79.763 72.6589 79.1484 72.8359C78.5339 73.013 77.9401 73.1016 77.3672 73.1016C76.7786 73.1016 76.2292 72.9922 75.7188 72.7734C75.2135 72.5547 74.7812 72.1901 74.4219 71.6797C74.2188 71.3932 74.0625 71.0885 73.9531 70.7656C73.8438 70.4427 73.7891 70.0807 73.7891 69.6797C73.7891 69.5026 73.7995 69.3177 73.8203 69.125C73.9401 68.1302 74.3542 67.2786 75.0625 66.5703C75.9792 65.6536 77.1849 65.1953 78.6797 65.1953C79.2526 65.1953 79.7552 65.3073 80.1875 65.5312C80.6198 65.75 80.9271 66.0625 81.1094 66.4688C81.2083 66.6927 81.2578 66.9297 81.2578 67.1797C81.2578 67.6068 81.1458 67.9844 80.9219 68.3125C80.7031 68.6354 80.3906 68.9349 79.9844 69.2109C78.8438 69.9818 77.1901 70.3672 75.0234 70.3672C74.9922 70.3672 74.9505 70.362 74.8984 70.3516ZM74.8125 69.3984C74.8854 69.3672 74.9557 69.3516 75.0234 69.3516C76.987 69.3516 78.4531 69.0234 79.4219 68.3672C79.6927 68.1849 79.8984 68 80.0391 67.8125C80.1797 67.6198 80.25 67.3984 80.25 67.1484C80.25 67.0026 80.2161 66.8854 80.1484 66.7969C80.0859 66.7083 80.0026 66.625 79.8984 66.5469C79.6068 66.3229 79.2031 66.2109 78.6875 66.2109C77.9948 66.2109 77.3646 66.3411 76.7969 66.6016C76.2292 66.8568 75.7682 67.224 75.4141 67.7031C75.0651 68.1771 74.8646 68.7422 74.8125 69.3984Z" fill="black"/>
<path d="M28.7812 16.375C27.7992 16.375 27 17.1111 27 18.0156V39.8906C27 40.7952 27.7992 41.5312 28.7812 41.5312H30.5625V42.0781C30.5625 42.9827 31.3617 43.7188 32.3438 43.7188H33.5312C34.5133 43.7188 35.3125 42.9827 35.3125 42.0781V41.5312H56.6875V42.0781C56.6875 42.9827 57.4867 43.7188 58.4688 43.7188H59.6562C60.6383 43.7188 61.4375 42.9827 61.4375 42.0781V41.5312H63.2188C64.2008 41.5312 65 40.7952 65 39.8906V18.0156C65 17.1111 64.2008 16.375 63.2188 16.375H28.7812ZM28.7812 17.4688H63.2188C63.5459 17.4688 63.8125 17.7143 63.8125 18.0156V20.75C63.4848 20.75 63.2188 20.995 63.2188 21.2969V22.3906C63.2188 22.6925 63.4848 22.9375 63.8125 22.9375V32.7812H61.9536C61.6923 31.8352 60.7606 31.1406 59.6562 31.1406C58.5519 31.1406 57.6202 31.8352 57.3589 32.7812H54.9062C54.8475 32.7812 54.6278 32.7265 54.5607 32.6926C53.8648 32.3399 53.125 30.9093 53.125 28.9531C53.125 26.997 53.8648 25.5664 54.5607 25.2137C55.1485 24.9162 55.5 24.3986 55.5 23.8304V20.75C55.5 20.1468 54.9674 19.6562 54.3125 19.6562H31.75C31.0951 19.6562 30.5625 20.1468 30.5625 20.75V32.7812H28.1875V18.0156C28.1875 17.7143 28.4541 17.4688 28.7812 17.4688ZM31.75 20.75H54.3125V23.8304C54.3125 24.0722 54.065 24.2167 53.989 24.2556C52.7617 24.8768 51.9375 26.7651 51.9375 28.9531C51.9375 31.1412 52.7617 33.03 53.989 33.6518C54.065 33.69 54.3125 33.8341 54.3125 34.0758V37.1562H31.75V20.75ZM57.875 20.75C57.5473 20.75 57.2812 20.995 57.2812 21.2969V22.3906C57.2812 22.6925 57.5473 22.9375 57.875 22.9375C58.2027 22.9375 58.4688 22.6925 58.4688 22.3906V21.2969C58.4688 20.995 58.2027 20.75 57.875 20.75ZM60.8438 20.75C60.516 20.75 60.25 20.995 60.25 21.2969V22.3906C60.25 22.6925 60.516 22.9375 60.8438 22.9375C61.1715 22.9375 61.4375 22.6925 61.4375 22.3906V21.2969C61.4375 20.995 61.1715 20.75 60.8438 20.75ZM34.7188 24.0312C34.391 24.0312 34.125 24.2763 34.125 24.5781C34.125 24.88 34.391 25.125 34.7188 25.125C35.7661 25.125 36.2582 25.3517 36.8282 25.6142C37.4439 25.8975 38.1423 26.2188 39.4699 26.2188C40.7975 26.2188 41.4953 25.8975 42.1105 25.6142C42.6811 25.3517 43.1737 25.125 44.2211 25.125C45.2679 25.125 45.7593 25.3517 46.3293 25.6142C46.9445 25.8975 47.6417 26.2188 48.9688 26.2188C49.2965 26.2188 49.5625 25.9737 49.5625 25.6719C49.5625 25.37 49.2965 25.125 48.9688 25.125C47.922 25.125 47.4299 24.8983 46.8605 24.6358C46.2453 24.3525 45.5487 24.0312 44.2211 24.0312C42.8934 24.0312 42.1945 24.3525 41.5793 24.6358C41.0093 24.8983 40.5179 25.125 39.4699 25.125C38.4219 25.125 37.9293 24.8983 37.3593 24.6358C36.7442 24.3525 36.0464 24.0312 34.7188 24.0312ZM59.6562 25.6719C58.3464 25.6719 57.2812 26.653 57.2812 27.8594C57.2812 29.0658 58.3464 30.0469 59.6562 30.0469C60.9661 30.0469 62.0312 29.0658 62.0312 27.8594C62.0312 26.653 60.9661 25.6719 59.6562 25.6719ZM59.6562 26.7656C60.3112 26.7656 60.8438 27.2562 60.8438 27.8594C60.8438 28.4626 60.3112 28.9531 59.6562 28.9531C59.0013 28.9531 58.4688 28.4626 58.4688 27.8594C58.4688 27.2562 59.0013 26.7656 59.6562 26.7656ZM34.7188 27.8594C34.391 27.8594 34.125 28.1044 34.125 28.4062C34.125 28.7081 34.391 28.9531 34.7188 28.9531C35.7661 28.9531 36.2582 29.1798 36.8282 29.4423C37.4439 29.7256 38.1423 30.0469 39.4699 30.0469C40.7975 30.0469 41.4953 29.7256 42.1105 29.4423C42.6811 29.1798 43.1737 28.9531 44.2211 28.9531C45.2679 28.9531 45.7593 29.1798 46.3293 29.4423C46.9445 29.7256 47.6417 30.0469 48.9688 30.0469C49.2965 30.0469 49.5625 29.8019 49.5625 29.5C49.5625 29.1981 49.2965 28.9531 48.9688 28.9531C47.922 28.9531 47.4299 28.7264 46.8605 28.4639C46.2453 28.1806 45.5487 27.8594 44.2211 27.8594C42.8934 27.8594 42.1945 28.1806 41.5793 28.4639C41.0093 28.7264 40.5179 28.9531 39.4699 28.9531C38.4219 28.9531 37.9293 28.7264 37.3593 28.4639C36.7442 28.1806 36.0464 27.8594 34.7188 27.8594ZM34.7188 31.6875C34.391 31.6875 34.125 31.9325 34.125 32.2344C34.125 32.5362 34.391 32.7812 34.7188 32.7812C35.7661 32.7812 36.2582 33.0079 36.8282 33.2704C37.4439 33.5537 38.1423 33.875 39.4699 33.875C40.7975 33.875 41.4953 33.5537 42.1105 33.2704C42.6811 33.0079 43.1737 32.7812 44.2211 32.7812C45.2679 32.7812 45.7593 33.0079 46.3293 33.2704C46.9445 33.5537 47.6417 33.875 48.9688 33.875C49.2965 33.875 49.5625 33.63 49.5625 33.3281C49.5625 33.0263 49.2965 32.7812 48.9688 32.7812C47.922 32.7812 47.4299 32.5546 46.8605 32.2921C46.2453 32.0088 45.5487 31.6875 44.2211 31.6875C42.8934 31.6875 42.1945 32.0088 41.5793 32.2921C41.0093 32.5546 40.5179 32.7812 39.4699 32.7812C38.4219 32.7812 37.9293 32.5546 37.3593 32.2921C36.7442 32.0088 36.0464 31.6875 34.7188 31.6875ZM59.6562 32.2344C60.0956 32.2344 60.4759 32.4531 60.6837 32.7812C60.7847 32.9398 60.8438 33.1312 60.8438 33.3281C60.8438 33.525 60.7847 33.7164 60.6837 33.875C60.4759 34.2031 60.0956 34.4219 59.6562 34.4219C59.2169 34.4219 58.8366 34.2031 58.6288 33.875C58.5278 33.7164 58.4688 33.525 58.4688 33.3281C58.4688 33.1312 58.5278 32.9398 58.6288 32.7812C58.8366 32.4531 59.2169 32.2344 59.6562 32.2344ZM28.1875 33.875H30.5625V37.1562C30.5625 37.7595 31.0951 38.25 31.75 38.25H54.3125C54.9674 38.25 55.5 37.7595 55.5 37.1562V34.0758C55.5 34.0069 55.4788 33.9417 55.4687 33.875H57.3589C57.6202 34.8211 58.5519 35.5156 59.6562 35.5156C60.7606 35.5156 61.6923 34.8211 61.9536 33.875H63.8125V39.8906C63.8125 40.192 63.5459 40.4375 63.2188 40.4375H61.4375H56.6875H35.3125H30.5625H28.7812C28.4541 40.4375 28.1875 40.192 28.1875 39.8906V33.875ZM58.4688 37.1562C58.141 37.1562 57.875 37.4013 57.875 37.7031C57.875 38.005 58.141 38.25 58.4688 38.25H60.8438C61.1715 38.25 61.4375 38.005 61.4375 37.7031C61.4375 37.4013 61.1715 37.1562 60.8438 37.1562H58.4688ZM31.75 41.5312H34.125V42.0781C34.125 42.3795 33.8584 42.625 33.5312 42.625H32.3438C32.0166 42.625 31.75 42.3795 31.75 42.0781V41.5312ZM57.875 41.5312H60.25V42.0781C60.25 42.3795 59.9834 42.625 59.6562 42.625H58.4688C58.1416 42.625 57.875 42.3795 57.875 42.0781V41.5312Z" fill="black"/>
<rect x="0.5" y="0.5" width="89" height="89" stroke="#FFFDFD"/>
</svg>
