<svg width="104" height="30" viewBox="0 0 104 30" fill="none" xmlns="http://www.w3.org/2000/svg">
<path d="M0 5C0 2.23858 2.23858 0 5 0H99C101.761 0 104 2.23858 104 5V25C104 27.7614 101.761 30 99 30H5C2.23858 30 0 27.7614 0 25V5Z" fill="#0DC98A"/>
<path d="M25.9629 22.3223C25.8066 22.3223 25.6634 22.2604 25.5332 22.1367C25.4095 22.013 25.3477 21.8698 25.3477 21.707L24.9766 8.63086C24.9701 8.43555 25.0352 8.2793 25.1719 8.16211C25.3086 8.04492 25.4583 7.98633 25.6211 7.98633C25.8359 7.98633 26.0052 8.07422 26.1289 8.25L34.0293 19.627L33.6777 8.36719C33.6712 8.15885 33.7331 8.0026 33.8633 7.89844C34 7.78776 34.1497 7.73242 34.3125 7.73242C34.4688 7.73242 34.612 7.78125 34.7422 7.87891C34.8724 7.97656 34.9408 8.1263 34.9473 8.32812L35.3672 21.7266C35.3737 21.9284 35.3086 22.0846 35.1719 22.1953C35.0352 22.3125 34.8854 22.3711 34.7227 22.3711C34.5078 22.3711 34.3385 22.2832 34.2148 22.1074L26.3047 10.7207L26.6172 21.668C26.6237 21.8438 26.5586 21.9967 26.4219 22.127C26.2852 22.2572 26.1322 22.3223 25.9629 22.3223ZM43.1484 9.27539C42.7383 9.27539 42.3086 9.2819 41.8594 9.29492C41.4102 9.30143 41.0326 9.31445 40.7266 9.33398C40.7656 11.209 40.7852 12.8952 40.7852 14.3926L47.8652 14.4414C48.0671 14.4414 48.2168 14.5098 48.3145 14.6465C48.4186 14.7767 48.4707 14.9199 48.4707 15.0762C48.4707 15.2389 48.4186 15.3854 48.3145 15.5156C48.2168 15.6458 48.0638 15.7109 47.8555 15.7109L40.7754 15.6621C40.7689 16.528 40.7559 17.306 40.7363 17.9961C40.7168 18.6862 40.694 19.2884 40.668 19.8027L40.6191 20.7402C42.7546 20.7337 44.4961 20.7174 45.8438 20.6914C47.1979 20.6589 48.1647 20.6198 48.7441 20.5742C48.9395 20.5547 49.0892 20.6198 49.1934 20.7695C49.2975 20.9128 49.3496 21.0625 49.3496 21.2188C49.3496 21.3685 49.304 21.5085 49.2129 21.6387C49.1217 21.7624 48.9818 21.8307 48.793 21.8438C48.1549 21.9023 47.097 21.9447 45.6191 21.9707C44.1478 21.9967 42.2598 22.0098 39.9551 22.0098C39.7923 22.0098 39.6458 21.9447 39.5156 21.8145C39.3854 21.6842 39.3203 21.528 39.3203 21.3457C39.3203 21.2741 39.3268 21.0527 39.3398 20.6816C39.3529 20.304 39.3691 19.8353 39.3887 19.2754C39.4082 18.7155 39.4277 18.123 39.4473 17.498C39.4668 16.8665 39.4831 16.2578 39.4961 15.6719C39.5091 15.0794 39.5156 14.5651 39.5156 14.1289C39.5156 13.3151 39.5026 12.459 39.4766 11.5605C39.457 10.6556 39.4473 9.71159 39.4473 8.72852C39.4473 8.56576 39.5059 8.42253 39.623 8.29883C39.7467 8.17513 39.8867 8.11003 40.043 8.10352L40.7461 8.05469C41.306 8.02214 41.8854 8.0026 42.4844 7.99609C43.0833 7.98958 43.7018 7.99609 44.3398 8.01562C46.8464 8.09375 48.6237 8.36719 49.6719 8.83594C49.9193 8.94661 50.0397 9.15169 50.0332 9.45117C50.0332 9.61393 49.9779 9.75716 49.8672 9.88086C49.763 9.99805 49.6198 10.0566 49.4375 10.0566C49.3464 10.0566 49.252 10.0339 49.1543 9.98828C48.0736 9.51302 46.0716 9.27539 43.1484 9.27539ZM65.793 21.1309C65.8841 21.248 65.9297 21.375 65.9297 21.5117C65.9297 21.681 65.8581 21.8307 65.7148 21.9609C65.5781 22.0911 65.4251 22.1562 65.2559 22.1562C65.0671 22.1562 64.9108 22.0749 64.7871 21.9121C63.9993 20.8835 63.2083 19.8548 62.4141 18.8262C61.6263 17.7975 60.8353 16.7721 60.041 15.75L55.1289 22.1074C55.0052 22.2702 54.849 22.3516 54.6602 22.3516C54.4909 22.3516 54.3346 22.2865 54.1914 22.1562C54.0547 22.026 53.9863 21.873 53.9863 21.6973C53.9863 21.5671 54.0319 21.4434 54.123 21.3262L59.2305 14.7148C58.4622 13.7188 57.694 12.7227 56.9258 11.7266C56.1641 10.724 55.3958 9.72461 54.6211 8.72852C54.5299 8.61133 54.4844 8.48438 54.4844 8.34766C54.4844 8.17839 54.5527 8.0319 54.6895 7.9082C54.8327 7.77799 54.9889 7.71289 55.1582 7.71289C55.347 7.71289 55.5033 7.79427 55.627 7.95703C56.3626 8.90755 57.0983 9.86133 57.834 10.8184C58.5697 11.7689 59.3053 12.7194 60.041 13.6699L64.2988 8.15234C64.4225 7.98958 64.5788 7.9082 64.7676 7.9082C64.9368 7.9082 65.0898 7.97331 65.2266 8.10352C65.3698 8.22721 65.4414 8.37695 65.4414 8.55273C65.4414 8.68294 65.3958 8.80664 65.3047 8.92383L60.8418 14.7148L65.793 21.1309ZM75.8398 22.2539C75.6706 22.2539 75.5208 22.1888 75.3906 22.0586C75.2669 21.9349 75.2051 21.7884 75.2051 21.6191V9.1582L70.5176 9.13867C70.3158 9.13867 70.1628 9.07357 70.0586 8.94336C69.9544 8.80664 69.9023 8.66016 69.9023 8.50391C69.9023 8.34115 69.9544 8.19466 70.0586 8.06445C70.1628 7.93424 70.3158 7.86914 70.5176 7.86914L80.8691 7.9082C81.071 7.9082 81.2207 7.97331 81.3184 8.10352C81.4225 8.23372 81.4746 8.38021 81.4746 8.54297C81.4746 8.69922 81.4225 8.8457 81.3184 8.98242C81.2207 9.11263 81.0677 9.17773 80.8594 9.17773C80.1302 9.17122 79.401 9.17122 78.6719 9.17773C77.9427 9.17773 77.2103 9.17448 76.4746 9.16797V21.6191C76.4746 21.7884 76.4095 21.9349 76.2793 22.0586C76.1556 22.1888 76.0091 22.2539 75.8398 22.2539Z" fill="#F9F9F0"/>
<path d="M25.5332 22.1367L25.1795 22.4904L25.1888 22.4992L25.5332 22.1367ZM25.3477 21.707H25.8477V21.6999L25.8475 21.6928L25.3477 21.707ZM24.9766 8.63086L25.4764 8.61668L25.4763 8.6142L24.9766 8.63086ZM26.1289 8.25L26.5396 7.9648L26.5378 7.96225L26.1289 8.25ZM34.0293 19.627L33.6186 19.9121L34.5818 21.2991L34.5291 19.6113L34.0293 19.627ZM33.6777 8.36719L34.1775 8.35158V8.35157L33.6777 8.36719ZM33.8633 7.89844L34.1756 8.28888L34.1779 8.28706L33.8633 7.89844ZM34.9473 8.32812L35.447 8.31246L35.447 8.312L34.9473 8.32812ZM35.3672 21.7266L34.8674 21.7422L34.8674 21.7427L35.3672 21.7266ZM35.1719 22.1953L34.8572 21.8065L34.8465 21.8157L35.1719 22.1953ZM34.2148 22.1074L33.8042 22.3927L33.8059 22.3952L34.2148 22.1074ZM26.3047 10.7207L26.7153 10.4354L25.757 9.05586L25.8049 10.735L26.3047 10.7207ZM26.6172 21.668L26.1174 21.6822L26.1175 21.6865L26.6172 21.668ZM25.9629 21.8223C25.954 21.8223 25.9298 21.8238 25.8776 21.7742L25.1888 22.4992C25.397 22.697 25.6592 22.8223 25.9629 22.8223V21.8223ZM25.8868 21.7832C25.8491 21.7455 25.8477 21.7266 25.8477 21.707H24.8477C24.8477 22.013 24.9699 22.2806 25.1796 22.4903L25.8868 21.7832ZM25.8475 21.6928L25.4764 8.61668L24.4768 8.64504L24.8479 21.7212L25.8475 21.6928ZM25.4763 8.6142C25.475 8.57712 25.481 8.56204 25.482 8.5595C25.4828 8.55771 25.4836 8.55619 25.4851 8.55425C25.4866 8.55221 25.4901 8.54792 25.4973 8.54174L24.8465 7.78248C24.5837 8.00771 24.4658 8.3153 24.4768 8.64752L25.4763 8.6142ZM25.4973 8.54174C25.5537 8.49337 25.5906 8.48633 25.6211 8.48633V7.48633C25.326 7.48633 25.0635 7.59647 24.8465 7.78248L25.4973 8.54174ZM25.6211 8.48633C25.6586 8.48633 25.6739 8.49346 25.6788 8.49599C25.6837 8.49853 25.6984 8.507 25.72 8.53775L26.5378 7.96225C26.3205 7.65347 25.9987 7.48633 25.6211 7.48633V8.48633ZM25.7182 8.53519L33.6186 19.9121L34.44 19.3418L26.5396 7.96481L25.7182 8.53519ZM34.5291 19.6113L34.1775 8.35158L33.178 8.38279L33.5295 19.6426L34.5291 19.6113ZM34.1775 8.35157C34.1759 8.29972 34.1836 8.27913 34.1841 8.27777C34.1843 8.27728 34.1834 8.2796 34.1808 8.2831C34.1797 8.28469 34.1785 8.28608 34.1774 8.28719C34.1769 8.28773 34.1764 8.28814 34.1761 8.28844C34.176 8.28858 34.1758 8.28869 34.1758 8.28876C34.1757 8.28884 34.1756 8.28887 34.1756 8.28887L33.5509 7.508C33.2673 7.73488 33.1679 8.06079 33.178 8.3828L34.1775 8.35157ZM34.1779 8.28706C34.2333 8.24221 34.2738 8.23242 34.3125 8.23242V7.23242C34.0257 7.23242 33.7667 7.33331 33.5487 7.50982L34.1779 8.28706ZM34.3125 8.23242C34.3558 8.23242 34.3947 8.24326 34.4422 8.27891L35.0422 7.47891C34.8293 7.31924 34.5817 7.23242 34.3125 7.23242V8.23242ZM34.4422 8.27891C34.4423 8.27898 34.4418 8.27864 34.441 8.27785C34.4402 8.27704 34.4392 8.27604 34.4383 8.27489C34.4363 8.27233 34.4357 8.2709 34.4363 8.2721C34.4375 8.27474 34.4459 8.29493 34.4475 8.34425L35.447 8.312C35.4369 7.99864 35.3226 7.68921 35.0422 7.47891L34.4422 8.27891ZM34.4475 8.34379L34.8674 21.7422L35.8669 21.7109L35.447 8.31246L34.4475 8.34379ZM34.8674 21.7427C34.8688 21.7858 34.862 21.8021 34.8617 21.8028C34.8615 21.8034 34.8617 21.8029 34.8622 21.8022C34.8626 21.8016 34.8616 21.8032 34.8573 21.8067L35.4865 22.5839C35.764 22.3593 35.8776 22.0424 35.8669 21.7104L34.8674 21.7427ZM34.8465 21.8157C34.7901 21.8641 34.7531 21.8711 34.7227 21.8711V22.8711C35.0177 22.8711 35.2803 22.7609 35.4973 22.5749L34.8465 21.8157ZM34.7227 21.8711C34.6852 21.8711 34.6699 21.864 34.665 21.8614C34.6601 21.8589 34.6454 21.8504 34.6237 21.8197L33.8059 22.3952C34.0232 22.7039 34.345 22.8711 34.7227 22.8711V21.8711ZM34.6255 21.8222L26.7153 10.4354L25.894 11.006L33.8042 22.3927L34.6255 21.8222ZM25.8049 10.735L26.1174 21.6822L27.117 21.6537L26.8045 10.7064L25.8049 10.735ZM26.1175 21.6865C26.1182 21.7052 26.1153 21.7138 26.1132 21.7188C26.1107 21.7246 26.1027 21.7404 26.077 21.7649L26.7667 22.489C26.9986 22.2682 27.1291 21.9799 27.1168 21.6495L26.1175 21.6865ZM26.077 21.7649C26.0216 21.8176 25.9885 21.8223 25.9629 21.8223V22.8223C26.2758 22.8223 26.5487 22.6967 26.7667 22.489L26.077 21.7649ZM41.8594 9.29492L41.8666 9.79492L41.8739 9.79471L41.8594 9.29492ZM40.7266 9.33398L40.6947 8.835L40.2167 8.86551L40.2267 9.3444L40.7266 9.33398ZM40.7852 14.3926H40.2852V14.8891L40.7817 14.8926L40.7852 14.3926ZM47.8652 14.4414L47.8618 14.9414H47.8652V14.4414ZM48.3145 14.6465L47.9076 14.9371L47.9155 14.9482L47.924 14.9588L48.3145 14.6465ZM48.3145 15.5156L47.924 15.2033L47.9191 15.2094L47.9145 15.2156L48.3145 15.5156ZM47.8555 15.7109L47.852 16.2109H47.8555V15.7109ZM40.7754 15.6621L40.7788 15.1621L40.2792 15.1587L40.2754 15.6583L40.7754 15.6621ZM40.668 19.8027L41.1673 19.8287L41.1673 19.828L40.668 19.8027ZM40.6191 20.7402L40.1198 20.7142L40.0923 21.2418L40.6207 21.2402L40.6191 20.7402ZM45.8438 20.6914L45.8534 21.1913L45.8558 21.1913L45.8438 20.6914ZM48.7441 20.5742L48.7834 21.0728L48.7939 21.0717L48.7441 20.5742ZM49.1934 20.7695L48.7828 21.0551L48.789 21.0636L49.1934 20.7695ZM49.2129 21.6387L49.6155 21.9354L49.6225 21.9254L49.2129 21.6387ZM48.793 21.8438L48.7586 21.3448L48.7472 21.3458L48.793 21.8438ZM45.6191 21.9707L45.6103 21.4708L45.6103 21.4708L45.6191 21.9707ZM39.5156 21.8145L39.1621 22.168L39.5156 21.8145ZM39.3398 20.6816L39.8395 20.6992L39.8395 20.6989L39.3398 20.6816ZM39.4473 17.498L39.947 17.5137L39.947 17.5135L39.4473 17.498ZM39.4961 15.6719L39.996 15.683L39.996 15.6829L39.4961 15.6719ZM39.4766 11.5605L38.9767 11.5713L38.9768 11.575L39.4766 11.5605ZM39.623 8.29883L39.2694 7.94515L39.2601 7.95496L39.623 8.29883ZM40.043 8.10352L40.0638 8.60327L40.0776 8.60231L40.043 8.10352ZM40.7461 8.05469L40.7171 7.5555L40.7115 7.55589L40.7461 8.05469ZM44.3398 8.01562L44.3554 7.51587L44.3551 7.51586L44.3398 8.01562ZM49.6719 8.83594L49.8761 8.37953L49.876 8.3795L49.6719 8.83594ZM50.0332 9.45117L49.5332 9.4403V9.45117H50.0332ZM49.8672 9.88086L49.4946 9.54746L49.4935 9.54868L49.8672 9.88086ZM49.1543 9.98828L49.3658 9.53508L49.3556 9.53058L49.1543 9.98828ZM43.1484 8.77539C42.733 8.77539 42.2985 8.78198 41.8449 8.79513L41.8739 9.79471C42.3187 9.78182 42.7435 9.77539 43.1484 9.77539V8.77539ZM41.8521 8.79497C41.3981 8.80155 41.0117 8.81477 40.6947 8.835L40.7584 9.83297C41.0534 9.81414 41.4222 9.80131 41.8666 9.79487L41.8521 8.79497ZM40.2267 9.3444C40.2657 11.2167 40.2852 12.8994 40.2852 14.3926H41.2852C41.2852 12.891 41.2656 11.2012 41.2265 9.32357L40.2267 9.3444ZM40.7817 14.8926L47.8618 14.9414L47.8687 13.9414L40.7886 13.8926L40.7817 14.8926ZM47.8652 14.9414C47.9103 14.9414 47.9246 14.949 47.9213 14.9475C47.9196 14.9468 47.9162 14.9449 47.9123 14.9417C47.9086 14.9386 47.9071 14.9364 47.9076 14.9371L48.7213 14.3559C48.5103 14.0604 48.1917 13.9414 47.8652 13.9414V14.9414ZM47.924 14.9588C47.9624 15.0068 47.9707 15.0414 47.9707 15.0762H48.9707C48.9707 14.7985 48.8749 14.5466 48.7049 14.3341L47.924 14.9588ZM47.9707 15.0762C47.9707 15.1224 47.9591 15.1594 47.924 15.2033L48.7049 15.828C48.8781 15.6115 48.9707 15.3554 48.9707 15.0762H47.9707ZM47.9145 15.2156C47.916 15.2136 47.9191 15.2101 47.9235 15.2067C47.9279 15.2032 47.9309 15.2019 47.9307 15.202C47.9296 15.2025 47.9088 15.2109 47.8555 15.2109V16.2109C48.1727 16.2109 48.4966 16.106 48.7145 15.8156L47.9145 15.2156ZM47.8589 15.2109L40.7788 15.1621L40.7719 16.1621L47.852 16.2109L47.8589 15.2109ZM40.2754 15.6583C40.2689 16.5216 40.2559 17.296 40.2365 17.9819L41.2361 18.0102C41.2558 17.3159 41.2688 16.5344 41.2754 15.6659L40.2754 15.6583ZM40.2365 17.9819C40.2171 18.6695 40.1944 19.2678 40.1686 19.7775L41.1673 19.828C41.1936 19.309 41.2165 18.7029 41.2361 18.0102L40.2365 17.9819ZM40.1686 19.7767L40.1198 20.7142L41.1185 20.7662L41.1673 19.8287L40.1686 19.7767ZM40.6207 21.2402C42.7574 21.2337 44.502 21.2174 45.8534 21.1913L45.8341 20.1915C44.4902 20.2175 42.7517 20.2337 40.6176 20.2402L40.6207 21.2402ZM45.8558 21.1913C47.2103 21.1587 48.1891 21.1194 48.7833 21.0727L48.7049 20.0758C48.1403 20.1202 47.1855 20.159 45.8317 20.1916L45.8558 21.1913ZM48.7939 21.0717C48.8092 21.0702 48.8162 21.0711 48.8166 21.0711C48.8166 21.0711 48.8115 21.0704 48.8036 21.0669C48.7954 21.0634 48.7885 21.0588 48.7837 21.0548C48.7792 21.051 48.7793 21.0499 48.7829 21.0551L49.6038 20.484C49.3867 20.1719 49.0533 20.0408 48.6944 20.0767L48.7939 21.0717ZM48.789 21.0636C48.8397 21.1333 48.8496 21.182 48.8496 21.2188H49.8496C49.8496 20.943 49.7554 20.6922 49.5977 20.4754L48.789 21.0636ZM48.8496 21.2188C48.8496 21.2594 48.8394 21.3003 48.8033 21.3519L49.6225 21.9254C49.7687 21.7166 49.8496 21.4775 49.8496 21.2188H48.8496ZM48.8104 21.3421C48.811 21.3412 48.8129 21.3389 48.8158 21.3365C48.8187 21.3341 48.8206 21.3332 48.8201 21.3334C48.819 21.334 48.8021 21.3419 48.7586 21.3449L48.8274 22.3426C49.1256 22.322 49.4174 22.2041 49.6154 21.9353L48.8104 21.3421ZM48.7472 21.3458C48.1293 21.4026 47.0875 21.4448 45.6103 21.4708L45.628 22.4706C47.1065 22.4446 48.1806 22.4021 48.8387 22.3417L48.7472 21.3458ZM45.6103 21.4708C44.143 21.4968 42.2583 21.5098 39.9551 21.5098V22.5098C42.2613 22.5098 44.1525 22.4967 45.628 22.4706L45.6103 21.4708ZM39.9551 21.5098C39.9428 21.5098 39.919 21.5108 39.8692 21.4609L39.1621 22.168C39.3726 22.3786 39.6419 22.5098 39.9551 22.5098V21.5098ZM39.8692 21.4609C39.8317 21.4234 39.8203 21.3939 39.8203 21.3457H38.8203C38.8203 21.6621 38.9392 21.9451 39.1621 22.168L39.8692 21.4609ZM39.8203 21.3457C39.8203 21.2852 39.8263 21.075 39.8395 20.6992L38.8402 20.6641C38.8273 21.0305 38.8203 21.263 38.8203 21.3457H39.8203ZM39.8395 20.6989C39.8526 20.3214 39.8688 19.8527 39.8884 19.2928L38.889 19.258C38.8694 19.8179 38.8532 20.2867 38.8401 20.6644L39.8395 20.6989ZM39.8884 19.2928C39.9079 18.7323 39.9275 18.1392 39.947 17.5137L38.9475 17.4824C38.928 18.1069 38.9085 18.6987 38.889 19.258L39.8884 19.2928ZM39.947 17.5135C39.9666 16.8807 39.9829 16.2705 39.996 15.683L38.9962 15.6608C38.9832 16.2451 38.967 16.8524 38.9475 17.4826L39.947 17.5135ZM39.996 15.6829C40.009 15.0879 40.0156 14.5698 40.0156 14.1289H39.0156C39.0156 14.5604 39.0092 15.0709 38.9962 15.6609L39.996 15.6829ZM40.0156 14.1289C40.0156 13.3098 40.0025 12.4488 39.9764 11.5461L38.9768 11.575C39.0027 12.4691 39.0156 13.3204 39.0156 14.1289H40.0156ZM39.9764 11.5498C39.957 10.6487 39.9473 9.70829 39.9473 8.72852H38.9473C38.9473 9.71488 38.9571 10.6625 38.9767 11.5713L39.9764 11.5498ZM39.9473 8.72852C39.9473 8.70017 39.9523 8.67834 39.986 8.6427L39.2601 7.95496C39.0595 8.16672 38.9473 8.43135 38.9473 8.72852H39.9473ZM39.9766 8.65238C40.023 8.606 40.048 8.60374 40.0638 8.60308L40.0222 7.60395C39.7254 7.61631 39.4705 7.74426 39.2695 7.94527L39.9766 8.65238ZM40.0776 8.60231L40.7807 8.55349L40.7115 7.55589L40.0083 7.60472L40.0776 8.60231ZM40.7751 8.55384C41.3266 8.52178 41.8982 8.50249 42.4898 8.49606L42.4789 7.49612C41.8726 7.50271 41.2853 7.52249 40.7171 7.55553L40.7751 8.55384ZM42.4898 8.49606C43.0814 8.48963 43.693 8.49606 44.3245 8.51539L44.3551 7.51586C43.7107 7.49613 43.0852 7.48953 42.4789 7.49612L42.4898 8.49606ZM44.3243 8.51538C46.8246 8.59331 48.5159 8.86672 49.4678 9.29237L49.876 8.3795C48.7315 7.86765 46.8681 7.59419 44.3554 7.51587L44.3243 8.51538ZM49.4677 9.29235C49.5102 9.31137 49.5162 9.3253 49.5166 9.32596C49.5191 9.33022 49.5351 9.35941 49.5333 9.4403L50.5331 9.46204C50.5378 9.24345 50.4968 9.02037 50.3789 8.81954C50.2588 8.61513 50.0809 8.47119 49.8761 8.37953L49.4677 9.29235ZM49.5332 9.45117C49.5332 9.48825 49.525 9.51344 49.4946 9.54746L50.2398 10.2143C50.4307 10.0009 50.5332 9.73961 50.5332 9.45117H49.5332ZM49.4935 9.54868C49.4917 9.55068 49.4913 9.5508 49.4921 9.55017C49.493 9.54954 49.4934 9.54948 49.4923 9.54992C49.4905 9.55067 49.4751 9.55664 49.4375 9.55664V10.5566C49.737 10.5566 50.0261 10.4547 50.2409 10.213L49.4935 9.54868ZM49.4375 9.55664C49.4315 9.55664 49.4091 9.55544 49.3657 9.53519L48.9429 10.4414C49.0948 10.5123 49.2612 10.5566 49.4375 10.5566V9.55664ZM49.3556 9.53058C48.1677 9.00822 46.0675 8.77539 43.1484 8.77539V9.77539C46.0757 9.77539 47.9794 10.0178 48.953 10.446L49.3556 9.53058ZM65.793 21.1309L65.3971 21.4363L65.3983 21.4378L65.793 21.1309ZM65.7148 21.9609L65.3784 21.5909L65.37 21.5989L65.7148 21.9609ZM64.7871 21.9121L65.1852 21.6096L65.1841 21.6081L64.7871 21.9121ZM62.4141 18.8262L62.0171 19.1302L62.0183 19.1318L62.4141 18.8262ZM60.041 15.75L60.4358 15.4432L60.0399 14.9337L59.6454 15.4443L60.041 15.75ZM55.1289 22.1074L54.7332 21.8017L54.7308 21.8049L55.1289 22.1074ZM54.1914 22.1562L53.8465 22.5184L53.8551 22.5262L54.1914 22.1562ZM54.123 21.3262L54.5177 21.6331L54.5187 21.6318L54.123 21.3262ZM59.2305 14.7148L59.6261 15.0205L59.8621 14.7151L59.6264 14.4095L59.2305 14.7148ZM56.9258 11.7266L56.5276 12.029L56.5299 12.0319L56.9258 11.7266ZM54.6211 8.72852L55.0158 8.42155L54.6211 8.72852ZM54.6895 7.9082L55.0249 8.27897L55.0258 8.27817L54.6895 7.9082ZM55.627 7.95703L55.2289 8.25958L55.2315 8.26306L55.627 7.95703ZM57.834 10.8184L57.4376 11.1231L57.4386 11.1244L57.834 10.8184ZM60.041 13.6699L59.6456 13.976L60.0416 14.4876L60.4369 13.9754L60.041 13.6699ZM64.2988 8.15234L64.6947 8.45782L64.6969 8.45489L64.2988 8.15234ZM65.2266 8.10352L64.8817 8.46558L64.8905 8.47398L64.8998 8.48193L65.2266 8.10352ZM65.3047 8.92383L64.91 8.61685L64.9086 8.61862L65.3047 8.92383ZM60.8418 14.7148L60.4458 14.4096L60.2104 14.715L60.446 15.0203L60.8418 14.7148ZM65.3983 21.4378C65.4274 21.4753 65.4297 21.4959 65.4297 21.5117H66.4297C66.4297 21.2541 66.3408 21.0208 66.1876 20.8239L65.3983 21.4378ZM65.4297 21.5117C65.4297 21.5232 65.4279 21.5291 65.4249 21.5352C65.4212 21.5429 65.4101 21.5622 65.3785 21.591L66.0512 22.3309C66.2821 22.1209 66.4297 21.8427 66.4297 21.5117H65.4297ZM65.37 21.5989C65.3146 21.6516 65.2815 21.6562 65.2559 21.6562V22.6562C65.5688 22.6562 65.8416 22.5307 66.0597 22.323L65.37 21.5989ZM65.2559 21.6562C65.236 21.6562 65.2298 21.6527 65.228 21.6518C65.225 21.6502 65.2095 21.6416 65.1852 21.6096L64.389 22.2147C64.5982 22.4899 64.8964 22.6562 65.2559 22.6562V21.6562ZM65.1841 21.6081C64.3959 20.5789 63.6045 19.5498 62.8098 18.5206L62.0183 19.1318C62.8122 20.1599 63.6028 21.188 64.3901 22.2161L65.1841 21.6081ZM62.811 18.5222C62.0226 17.4926 61.2308 16.4663 60.4358 15.4432L59.6462 16.0568C60.4398 17.078 61.2301 18.1025 62.0171 19.1302L62.811 18.5222ZM59.6454 15.4443L54.7332 21.8017L55.5246 22.4131L60.4367 16.0557L59.6454 15.4443ZM54.7308 21.8049C54.7065 21.8369 54.691 21.8455 54.688 21.8471C54.6862 21.848 54.6801 21.8516 54.6602 21.8516V22.8516C55.0196 22.8516 55.3178 22.6852 55.527 22.41L54.7308 21.8049ZM54.6602 21.8516C54.6331 21.8516 54.5931 21.8457 54.5277 21.7863L53.8551 22.5262C54.0762 22.7272 54.3486 22.8516 54.6602 22.8516V21.8516ZM54.5362 21.7942C54.4904 21.7506 54.4863 21.7253 54.4863 21.6973H53.4863C53.4863 22.0208 53.6189 22.3015 53.8466 22.5183L54.5362 21.7942ZM54.4863 21.6973C54.4863 21.6936 54.4848 21.6755 54.5177 21.6331L53.7284 21.0192C53.579 21.2112 53.4863 21.4406 53.4863 21.6973H54.4863ZM54.5187 21.6318L59.6261 15.0205L58.8348 14.4092L53.7274 21.0205L54.5187 21.6318ZM59.6264 14.4095C59.6076 14.3852 59.6091 14.3871 59.5904 14.3628C59.5716 14.3385 59.5731 14.3404 59.5544 14.3161C59.5356 14.2918 59.5371 14.2937 59.5184 14.2694C59.4996 14.2451 59.5011 14.247 59.4824 14.2227C59.4636 14.1984 59.4651 14.2003 59.4463 14.176C59.4276 14.1517 59.4291 14.1536 59.4103 14.1293C59.3916 14.105 59.3931 14.107 59.3743 14.0826C59.3556 14.0583 59.3571 14.0603 59.3383 14.036C59.3196 14.0116 59.321 14.0136 59.3023 13.9893C59.2836 13.965 59.285 13.9669 59.2663 13.9426C59.2475 13.9183 59.249 13.9202 59.2303 13.8959C59.2115 13.8716 59.213 13.8735 59.1943 13.8492C59.1755 13.8249 59.177 13.8268 59.1583 13.8025C59.1395 13.7782 59.141 13.7801 59.1222 13.7558C59.1035 13.7315 59.105 13.7334 59.0862 13.7091C59.0675 13.6848 59.069 13.6867 59.0502 13.6624C59.0315 13.6381 59.033 13.64 59.0142 13.6157C58.9955 13.5914 58.997 13.5933 58.9782 13.569C58.9595 13.5447 58.9609 13.5467 58.9422 13.5223C58.9234 13.498 58.9249 13.5 58.9062 13.4757C58.8874 13.4513 58.8889 13.4533 58.8702 13.429C58.8514 13.4046 58.8529 13.4066 58.8342 13.3823C58.8154 13.358 58.8169 13.3599 58.7981 13.3356C58.7794 13.3113 58.7809 13.3132 58.7621 13.2889C58.7434 13.2646 58.7449 13.2665 58.7261 13.2422C58.7074 13.2179 58.7089 13.2198 58.6901 13.1955C58.6714 13.1712 58.6729 13.1731 58.6541 13.1488C58.6354 13.1245 58.6368 13.1264 58.6181 13.1021C58.5993 13.0778 58.6008 13.0797 58.5821 13.0554C58.5633 13.0311 58.5648 13.033 58.5461 13.0087C58.5273 12.9844 58.5288 12.9864 58.5101 12.962C58.4913 12.9377 58.4928 12.9397 58.4741 12.9153C58.4553 12.891 58.4568 12.893 58.438 12.8687C58.4193 12.8443 58.4208 12.8463 58.402 12.822C58.3833 12.7977 58.3848 12.7996 58.366 12.7753C58.3473 12.751 58.3488 12.7529 58.33 12.7286C58.3113 12.7043 58.3127 12.7062 58.294 12.6819C58.2752 12.6576 58.2767 12.6595 58.258 12.6352C58.2392 12.6109 58.2407 12.6128 58.222 12.5885C58.2032 12.5642 58.2047 12.5661 58.186 12.5418C58.1672 12.5175 58.1687 12.5194 58.15 12.4951C58.1312 12.4708 58.1327 12.4727 58.1139 12.4484C58.0952 12.4241 58.0967 12.426 58.0779 12.4017C58.0592 12.3774 58.0607 12.3794 58.0419 12.355C58.0232 12.3307 58.0247 12.3327 58.0059 12.3084C57.9872 12.284 57.9887 12.286 57.9699 12.2617C57.9512 12.2374 57.9526 12.2393 57.9339 12.215C57.9151 12.1907 57.9166 12.1926 57.8979 12.1683C57.8791 12.144 57.8806 12.1459 57.8619 12.1216C57.8431 12.0973 57.8446 12.0992 57.8259 12.0749C57.8071 12.0506 57.8086 12.0525 57.7898 12.0282C57.7711 12.0039 57.7726 12.0058 57.7538 11.9815C57.7351 11.9572 57.7366 11.9591 57.7178 11.9348C57.6991 11.9105 57.7006 11.9124 57.6818 11.8881C57.6631 11.8638 57.6646 11.8657 57.6458 11.8414C57.6271 11.8171 57.6285 11.8191 57.6098 11.7947C57.591 11.7704 57.5925 11.7724 57.5738 11.7481C57.555 11.7237 57.5565 11.7257 57.5378 11.7014C57.519 11.677 57.5205 11.679 57.5018 11.6547C57.483 11.6304 57.4845 11.6323 57.4658 11.608C57.447 11.5837 57.4485 11.5856 57.4297 11.5613C57.4282 11.5593 57.4267 11.5574 57.4252 11.5554C57.4237 11.5535 57.4222 11.5516 57.4207 11.5496C57.4126 11.539 57.4199 11.5485 57.4117 11.5379C57.4102 11.536 57.4087 11.534 57.4072 11.5321C57.4057 11.5302 57.4042 11.5282 57.4027 11.5263C57.4012 11.5243 57.3997 11.5224 57.3982 11.5204C57.3967 11.5185 57.3952 11.5165 57.3937 11.5146C57.391 11.5111 57.3604 11.4714 57.3577 11.4679C57.339 11.4436 57.3585 11.4689 57.3397 11.4446C57.321 11.4202 57.3405 11.4455 57.3217 11.4212L56.5299 12.0319C56.5326 12.0354 56.5631 12.0751 56.5659 12.0786C56.5686 12.0821 56.5721 12.0868 56.5749 12.0903C56.5764 12.0922 56.5779 12.0942 56.5794 12.0961C56.5809 12.0981 56.5824 12.1 56.5839 12.102C56.5854 12.1039 56.5869 12.1058 56.5884 12.1078C56.5899 12.1097 56.5914 12.1117 56.5929 12.1136C56.5944 12.1156 56.5959 12.1175 56.5974 12.1195C56.5989 12.1214 56.6004 12.1234 56.6019 12.1253C56.6034 12.1272 56.6049 12.1292 56.6064 12.1311C56.6079 12.1331 56.6094 12.135 56.6109 12.137C56.6124 12.1389 56.6139 12.1409 56.6154 12.1428C56.6169 12.1448 56.6184 12.1467 56.6199 12.1486C56.6226 12.1522 56.6352 12.1685 56.6379 12.172C56.6432 12.1789 56.6686 12.2118 56.6739 12.2187C56.6766 12.2222 56.7432 12.3085 56.7459 12.3121C56.7486 12.3156 56.8152 12.4019 56.8179 12.4055C56.8207 12.409 56.8872 12.4953 56.89 12.4988C56.8927 12.5024 56.9593 12.5887 56.962 12.5922C56.9647 12.5957 57.0313 12.6821 57.034 12.6856C57.0367 12.6891 57.1033 12.7755 57.106 12.779C57.1087 12.7825 57.1753 12.8688 57.178 12.8724C57.1808 12.8759 57.2473 12.9622 57.2501 12.9658C57.2528 12.9693 57.3194 13.0556 57.3221 13.0591C57.3248 13.0627 57.3914 13.149 57.3941 13.1525C57.3968 13.156 57.4634 13.2424 57.4661 13.2459C57.4689 13.2494 57.5354 13.3358 57.5382 13.3393C57.5409 13.3428 57.6075 13.4291 57.6102 13.4327C57.6129 13.4362 57.6795 13.5225 57.6822 13.5261C57.6849 13.5296 57.7515 13.6159 57.7542 13.6194C57.7569 13.623 57.8235 13.7093 57.8262 13.7128C57.829 13.7164 57.8955 13.8027 57.8983 13.8062C57.901 13.8097 57.9676 13.8961 57.9703 13.8996C57.973 13.9031 58.0396 13.9895 58.0423 13.993C58.045 13.9965 58.1116 14.0828 58.1143 14.0864C58.117 14.0899 58.1836 14.1762 58.1863 14.1797C58.1891 14.1833 58.2556 14.2696 58.2584 14.2731C58.2611 14.2767 58.3277 14.363 58.3304 14.3665C58.3331 14.37 58.3997 14.4564 58.4024 14.4599C58.4051 14.4634 58.4717 14.5498 58.4744 14.5533C58.4772 14.5568 58.5437 14.6431 58.5465 14.6467C58.5492 14.6502 58.6158 14.7365 58.6185 14.74C58.6212 14.7436 58.6878 14.8299 58.6905 14.8334C58.6932 14.837 58.7598 14.9233 58.7625 14.9268C58.7652 14.9303 58.8318 15.0167 58.8345 15.0202L59.6264 14.4095ZM57.3239 11.4241C56.561 10.42 55.7917 9.41913 55.0158 8.42155L54.2264 9.03549C55 10.0301 55.7671 11.0279 56.5276 12.029L57.3239 11.4241ZM55.0158 8.42155C54.9866 8.3841 54.9844 8.36344 54.9844 8.34766H53.9844C53.9844 8.60531 54.0732 8.83855 54.2264 9.03549L55.0158 8.42155ZM54.9844 8.34766C54.9844 8.33255 54.9869 8.32619 54.9887 8.32228C54.991 8.31737 54.9991 8.30234 55.0249 8.27897L54.354 7.53744C54.123 7.74645 53.9844 8.02357 53.9844 8.34766H54.9844ZM55.0258 8.27817C55.0911 8.21877 55.1312 8.21289 55.1582 8.21289V7.21289C54.8467 7.21289 54.5742 7.33722 54.3531 7.53823L55.0258 8.27817ZM55.1582 8.21289C55.1781 8.21289 55.1843 8.21648 55.186 8.21738C55.189 8.21895 55.2045 8.22753 55.2289 8.25957L56.025 7.65449C55.8158 7.37923 55.5176 7.21289 55.1582 7.21289V8.21289ZM55.2315 8.26306C55.9669 9.21315 56.7022 10.1665 57.4376 11.1231L58.2304 10.5136C57.4944 9.55617 56.7584 8.60196 56.0224 7.651L55.2315 8.26306ZM57.4386 11.1244C57.4603 11.1525 57.4858 11.1854 57.5075 11.2135C57.5293 11.2416 57.5548 11.2745 57.5765 11.3026C57.5983 11.3307 57.6238 11.3636 57.6455 11.3917C57.6672 11.4198 57.6927 11.4528 57.7145 11.4808C57.7362 11.5089 57.7617 11.5419 57.7834 11.5699C57.8052 11.598 57.8307 11.631 57.8524 11.6591C57.8741 11.6871 57.8996 11.7201 57.9214 11.7482C57.9431 11.7763 57.9686 11.8092 57.9903 11.8373C58.0121 11.8654 58.0376 11.8983 58.0593 11.9264C58.081 11.9545 58.1065 11.9874 58.1283 12.0155C58.15 12.0436 58.1755 12.0765 58.1972 12.1046C58.219 12.1327 58.2445 12.1656 58.2662 12.1937C58.288 12.2218 58.3134 12.2548 58.3352 12.2828C58.3569 12.3109 58.3824 12.3439 58.4042 12.372C58.4259 12.4 58.4514 12.433 58.4731 12.4611C58.4949 12.4891 58.5204 12.5221 58.5421 12.5502C58.5568 12.5692 58.536 12.5423 58.5507 12.5613C58.5655 12.5804 58.5446 12.5534 58.5593 12.5725C58.5741 12.5915 58.5532 12.5645 58.568 12.5836C58.5827 12.6026 58.5618 12.5757 58.5766 12.5947C58.5913 12.6138 58.5704 12.5868 58.5852 12.6059C58.6 12.6249 58.5791 12.5979 58.5938 12.617C58.6086 12.6361 58.5877 12.6091 58.6024 12.6281C58.6172 12.6472 58.5963 12.6202 58.6111 12.6393C58.6258 12.6583 58.6049 12.6314 58.6197 12.6504C58.6344 12.6695 58.6136 12.6425 58.6283 12.6616C58.6431 12.6806 58.6222 12.6536 58.6369 12.6727C58.6517 12.6918 58.6308 12.6648 58.6455 12.6838C58.6603 12.7029 58.6394 12.6759 58.6542 12.695C58.6689 12.714 58.648 12.6871 58.6628 12.7061C58.6775 12.7252 58.6567 12.6982 58.6714 12.7173C58.6862 12.7363 58.6653 12.7093 58.68 12.7284C58.6948 12.7475 58.6739 12.7205 58.6887 12.7395C58.7034 12.7586 58.6825 12.7316 58.6973 12.7507C58.712 12.7697 58.6911 12.7428 58.7059 12.7618C58.7206 12.7809 58.6998 12.7539 58.7145 12.773C58.7293 12.792 58.7084 12.765 58.7231 12.7841C58.7379 12.8031 58.717 12.7762 58.7318 12.7952C58.7465 12.8143 58.7256 12.7873 58.7404 12.8064C58.7551 12.8254 58.7343 12.7984 58.749 12.8175C58.7638 12.8366 58.7429 12.8096 58.7576 12.8286C58.7724 12.8477 58.7515 12.8207 58.7662 12.8398C58.781 12.8588 58.7601 12.8319 58.7749 12.8509C58.7896 12.87 58.7687 12.843 58.7835 12.8621C58.7982 12.8811 58.7774 12.8541 58.7921 12.8732C58.8069 12.8923 58.786 12.8653 58.8007 12.8843C58.8155 12.9034 58.7946 12.8764 58.8094 12.8955C58.8241 12.9145 58.8032 12.8876 58.818 12.9066C58.8327 12.9257 58.8118 12.8987 58.8266 12.9178C58.8413 12.9368 58.8205 12.9098 58.8352 12.9289C58.85 12.948 58.8291 12.921 58.8438 12.94C58.8586 12.9591 58.8377 12.9321 58.8525 12.9512C58.8672 12.9702 58.8463 12.9433 58.8611 12.9623C58.8758 12.9814 58.8549 12.9544 58.8697 12.9735C58.8845 12.9925 58.8636 12.9655 58.8783 12.9846C58.8931 13.0037 58.8722 12.9767 58.8869 12.9957C58.9017 13.0148 58.8808 12.9878 58.8956 13.0069C58.9103 13.0259 58.8894 12.9989 58.9042 13.018C58.9189 13.0371 58.8981 13.0101 58.9128 13.0291C58.9276 13.0482 58.9067 13.0212 58.9214 13.0403C58.9362 13.0593 58.9153 13.0324 58.93 13.0514C58.9448 13.0705 58.9239 13.0435 58.9387 13.0626C58.9534 13.0816 58.9325 13.0546 58.9473 13.0737C58.962 13.0928 58.9412 13.0658 58.9559 13.0848C58.9707 13.1039 58.9498 13.0769 58.9645 13.096C58.9793 13.115 58.9584 13.0881 58.9732 13.1071C58.9879 13.1262 58.967 13.0992 58.9818 13.1183C58.9965 13.1373 58.9756 13.1103 58.9904 13.1294C59.0051 13.1485 58.9843 13.1215 58.999 13.1405C59.0138 13.1596 58.9929 13.1326 59.0076 13.1517C59.0224 13.1707 59.0015 13.1438 59.0163 13.1628C59.031 13.1819 59.0101 13.1549 59.0249 13.174C59.0396 13.193 59.0188 13.166 59.0335 13.1851C59.0483 13.2042 59.0274 13.1772 59.0421 13.1962C59.0569 13.2153 59.036 13.1883 59.0507 13.2074C59.0655 13.2264 59.0446 13.1994 59.0594 13.2185C59.0741 13.2376 59.0532 13.2106 59.068 13.2296C59.0827 13.2487 59.0619 13.2217 59.0766 13.2408C59.0914 13.2598 59.0705 13.2329 59.0852 13.2519C59.1 13.271 59.0791 13.244 59.0939 13.2631C59.1086 13.2821 59.0877 13.2551 59.1025 13.2742C59.1172 13.2933 59.0963 13.2663 59.1111 13.2853C59.1258 13.3044 59.105 13.2774 59.1197 13.2965C59.1345 13.3155 59.1136 13.2886 59.1283 13.3076C59.1431 13.3267 59.1222 13.2997 59.137 13.3188C59.1517 13.3378 59.1308 13.3108 59.1456 13.3299C59.1603 13.349 59.1395 13.322 59.1542 13.341C59.169 13.3601 59.1481 13.3331 59.1628 13.3522C59.1776 13.3712 59.1567 13.3443 59.1714 13.3633C59.1862 13.3824 59.1653 13.3554 59.1801 13.3745C59.1948 13.3935 59.1739 13.3665 59.1887 13.3856C59.2034 13.4047 59.1826 13.3777 59.1973 13.3967C59.2121 13.4158 59.1912 13.3888 59.2059 13.4079C59.2207 13.4269 59.1998 13.3999 59.2146 13.419C59.2293 13.4381 59.2084 13.4111 59.2232 13.4301C59.2379 13.4492 59.217 13.4222 59.2318 13.4413C59.2465 13.4603 59.2257 13.4334 59.2404 13.4524C59.2552 13.4715 59.2343 13.4445 59.249 13.4636C59.2638 13.4826 59.2429 13.4556 59.2577 13.4747C59.2724 13.4938 59.2515 13.4668 59.2663 13.4858C59.281 13.5049 59.2601 13.4779 59.2749 13.497C59.2896 13.516 59.2688 13.4891 59.2835 13.5081C59.2983 13.5272 59.2774 13.5002 59.2921 13.5193C59.3069 13.5383 59.286 13.5113 59.3008 13.5304C59.3155 13.5495 59.2946 13.5225 59.3094 13.5415C59.3241 13.5606 59.3033 13.5336 59.318 13.5527C59.3328 13.5717 59.3119 13.5448 59.3266 13.5638C59.3414 13.5829 59.3205 13.5559 59.3352 13.575C59.35 13.594 59.3291 13.567 59.3439 13.5861C59.3586 13.6052 59.3377 13.5782 59.3525 13.5972C59.3672 13.6163 59.3464 13.5893 59.3611 13.6084C59.3759 13.6274 59.355 13.6004 59.3697 13.6195C59.3845 13.6386 59.3636 13.6116 59.3784 13.6306C59.3931 13.6497 59.3722 13.6227 59.387 13.6418C59.4017 13.6608 59.3808 13.6339 59.3956 13.6529C59.4103 13.672 59.3895 13.645 59.4042 13.6641C59.419 13.6831 59.3981 13.6561 59.4128 13.6752C59.4276 13.6943 59.4067 13.6673 59.4215 13.6863C59.4362 13.7054 59.4153 13.6784 59.4301 13.6975C59.4448 13.7165 59.424 13.6896 59.4387 13.7086C59.4535 13.7277 59.4326 13.7007 59.4473 13.7198C59.4621 13.7388 59.4412 13.7118 59.4559 13.7309C59.4707 13.75 59.4498 13.723 59.4646 13.742C59.4793 13.7611 59.4584 13.7341 59.4732 13.7532C59.4879 13.7722 59.4671 13.7453 59.4818 13.7643C59.4966 13.7834 59.4757 13.7564 59.4904 13.7755C59.5052 13.7945 59.4843 13.7675 59.4991 13.7866C59.5138 13.8057 59.4929 13.7787 59.5077 13.7977C59.5224 13.8168 59.5015 13.7898 59.5163 13.8089C59.531 13.8279 59.5102 13.8009 59.5249 13.82C59.5397 13.8391 59.5188 13.8121 59.5335 13.8311C59.5483 13.8502 59.5274 13.8232 59.5422 13.8423C59.5569 13.8613 59.536 13.8344 59.5508 13.8534C59.5655 13.8725 59.5446 13.8455 59.5594 13.8646C59.5742 13.8836 59.5533 13.8566 59.568 13.8757C59.5828 13.8948 59.5619 13.8678 59.5766 13.8868C59.5914 13.9059 59.5705 13.8789 59.5853 13.898C59.6 13.917 59.5791 13.8901 59.5939 13.9091C59.6086 13.9282 59.5878 13.9012 59.6025 13.9203C59.6173 13.9393 59.5964 13.9123 59.6111 13.9314C59.6259 13.9505 59.605 13.9235 59.6197 13.9425C59.6345 13.9616 59.6136 13.9346 59.6284 13.9537C59.6431 13.9727 59.6222 13.9458 59.637 13.9648C59.6517 13.9839 59.6309 13.9569 59.6456 13.976L60.4364 13.3639C60.4293 13.3547 60.4263 13.3508 60.4192 13.3416C60.4121 13.3325 60.409 13.3285 60.4019 13.3193C60.3948 13.3102 60.3918 13.3062 60.3847 13.2971C60.3776 13.2879 60.3745 13.2839 60.3675 13.2748C60.3604 13.2656 60.3573 13.2617 60.3502 13.2525C60.3431 13.2433 60.3401 13.2394 60.333 13.2302C60.3259 13.2211 60.3228 13.2171 60.3157 13.2079C60.3086 13.1988 60.3056 13.1948 60.2985 13.1857C60.2914 13.1765 60.2883 13.1725 60.2812 13.1634C60.2742 13.1542 60.2711 13.1503 60.264 13.1411C60.2569 13.132 60.2538 13.128 60.2468 13.1188C60.2397 13.1097 60.2366 13.1057 60.2295 13.0966C60.2224 13.0874 60.2194 13.0834 60.2123 13.0743C60.2052 13.0651 60.2021 13.0612 60.195 13.052C60.1879 13.0428 60.1849 13.0389 60.1778 13.0297C60.1707 13.0206 60.1676 13.0166 60.1605 13.0074C60.1535 12.9983 60.1504 12.9943 60.1433 12.9852C60.1362 12.976 60.1331 12.972 60.1261 12.9629C60.119 12.9537 60.1159 12.9498 60.1088 12.9406C60.1017 12.9315 60.0987 12.9275 60.0916 12.9183C60.0845 12.9092 60.0814 12.9052 60.0743 12.8961C60.0672 12.8869 60.0642 12.8829 60.0571 12.8738C60.05 12.8646 60.0469 12.8607 60.0398 12.8515C60.0328 12.8423 60.0297 12.8384 60.0226 12.8292C60.0155 12.8201 60.0124 12.8161 60.0054 12.8069C59.9983 12.7978 59.9952 12.7938 59.9881 12.7847C59.981 12.7755 59.978 12.7715 59.9709 12.7624C59.9638 12.7532 59.9607 12.7493 59.9536 12.7401C59.9465 12.731 59.9435 12.727 59.9364 12.7178C59.9293 12.7087 59.9262 12.7047 59.9191 12.6956C59.9121 12.6864 59.909 12.6824 59.9019 12.6733C59.8948 12.6641 59.8918 12.6602 59.8847 12.651C59.8776 12.6418 59.8745 12.6379 59.8674 12.6287C59.8603 12.6196 59.8573 12.6156 59.8502 12.6064C59.8431 12.5973 59.84 12.5933 59.8329 12.5842C59.8258 12.575 59.8228 12.571 59.8157 12.5619C59.8086 12.5527 59.8055 12.5488 59.7985 12.5396C59.7914 12.5305 59.7883 12.5265 59.7812 12.5173C59.7741 12.5082 59.7711 12.5042 59.764 12.4951C59.7569 12.4859 59.7538 12.4819 59.7467 12.4728C59.7396 12.4636 59.7366 12.4597 59.7295 12.4505C59.7224 12.4413 59.7193 12.4374 59.7122 12.4282C59.7052 12.4191 59.7021 12.4151 59.695 12.4059C59.6879 12.3968 59.6848 12.3928 59.6778 12.3837C59.6707 12.3745 59.6676 12.3705 59.6605 12.3614C59.6534 12.3522 59.6504 12.3483 59.6433 12.3391C59.6362 12.33 59.6331 12.326 59.626 12.3168C59.6189 12.3077 59.6159 12.3037 59.6088 12.2946C59.6017 12.2854 59.5986 12.2814 59.5915 12.2723C59.5845 12.2631 59.5814 12.2592 59.5743 12.25C59.5672 12.2408 59.5641 12.2369 59.5571 12.2277C59.55 12.2186 59.5469 12.2146 59.5398 12.2054C59.5327 12.1963 59.5297 12.1923 59.5226 12.1832C59.5155 12.174 59.5124 12.17 59.5053 12.1609C59.4982 12.1517 59.4952 12.1478 59.4881 12.1386C59.481 12.1295 59.4779 12.1255 59.4708 12.1163C59.4638 12.1072 59.4607 12.1032 59.4536 12.0941C59.4465 12.0849 59.4434 12.0809 59.4364 12.0718C59.4293 12.0626 59.4262 12.0587 59.4191 12.0495C59.412 12.0403 59.409 12.0364 59.4019 12.0272C59.3948 12.0181 59.3917 12.0141 59.3846 12.0049C59.3775 11.9958 59.3745 11.9918 59.3674 11.9827C59.3603 11.9735 59.3572 11.9695 59.3501 11.9604C59.3431 11.9512 59.34 11.9473 59.3329 11.9381C59.3314 11.9361 59.3172 11.9178 59.3157 11.9158C59.3141 11.9139 59.2999 11.8955 59.2984 11.8936C59.2969 11.8916 59.2827 11.8732 59.2812 11.8713C59.2797 11.8693 59.2655 11.851 59.2639 11.849C59.2624 11.847 59.2482 11.8287 59.2467 11.8267C59.2452 11.8247 59.231 11.8064 59.2295 11.8044C59.2279 11.8025 59.2137 11.7841 59.2122 11.7822C59.2107 11.7802 59.1965 11.7619 59.195 11.7599C59.1934 11.7579 59.1792 11.7396 59.1777 11.7376C59.1762 11.7356 59.162 11.7173 59.1605 11.7153C59.159 11.7134 59.1448 11.695 59.1432 11.6931C59.1417 11.6911 59.1275 11.6727 59.126 11.6708C59.1245 11.6688 59.1103 11.6505 59.1088 11.6485C59.1072 11.6465 59.093 11.6282 59.0915 11.6262C59.09 11.6242 59.0758 11.6059 59.0743 11.6039C59.0727 11.602 59.0585 11.5836 59.057 11.5817C59.0555 11.5797 59.0413 11.5614 59.0398 11.5594C59.0383 11.5574 59.0241 11.5391 59.0225 11.5371C59.021 11.5351 59.0068 11.5168 59.0053 11.5148C59.0038 11.5129 58.9896 11.4945 58.9881 11.4926C58.9865 11.4906 58.9723 11.4722 58.9708 11.4703C58.9693 11.4683 58.9551 11.45 58.9536 11.448C58.952 11.446 58.9379 11.4277 58.9363 11.4257C58.9348 11.4237 58.9206 11.4054 58.9191 11.4034C58.9176 11.4015 58.9034 11.3831 58.9018 11.3812C58.9003 11.3792 58.8861 11.3609 58.8846 11.3589C58.8831 11.3569 58.8689 11.3386 58.8674 11.3366C58.8658 11.3346 58.8516 11.3163 58.8501 11.3143C58.8486 11.3124 58.8344 11.294 58.8329 11.2921C58.8313 11.2901 58.8172 11.2717 58.8156 11.2698C58.8141 11.2678 58.7999 11.2495 58.7984 11.2475C58.7969 11.2455 58.7827 11.2272 58.7811 11.2252C58.7796 11.2232 58.7654 11.2049 58.7639 11.2029C58.7624 11.201 58.7482 11.1826 58.7467 11.1807C58.7451 11.1787 58.7309 11.1604 58.7294 11.1584C58.7279 11.1564 58.7137 11.1381 58.7122 11.1361C58.7107 11.1341 58.6965 11.1158 58.6949 11.1138C58.6934 11.1119 58.6792 11.0935 58.6777 11.0916C58.6762 11.0896 58.662 11.0712 58.6604 11.0693C58.6589 11.0673 58.6447 11.049 58.6432 11.047C58.6417 11.045 58.6275 11.0267 58.626 11.0247C58.6244 11.0227 58.6102 11.0044 58.6087 11.0024C58.6072 11.0005 58.593 10.9821 58.5915 10.9802C58.59 10.9782 58.5758 10.9599 58.5742 10.9579C58.5727 10.9559 58.5585 10.9376 58.557 10.9356C58.5555 10.9336 58.5413 10.9153 58.5398 10.9133C58.5382 10.9114 58.524 10.893 58.5225 10.8911C58.521 10.8891 58.5068 10.8707 58.5053 10.8688C58.5037 10.8668 58.4895 10.8485 58.488 10.8465C58.4865 10.8445 58.4723 10.8262 58.4708 10.8242C58.4693 10.8222 58.4551 10.8039 58.4535 10.8019C58.452 10.8 58.4378 10.7816 58.4363 10.7797C58.4348 10.7777 58.4206 10.7594 58.4191 10.7574C58.4175 10.7554 58.4033 10.7371 58.4018 10.7351C58.4003 10.7331 58.3861 10.7148 58.3846 10.7128C58.383 10.7109 58.3689 10.6925 58.3673 10.6905C58.3658 10.6886 58.3516 10.6702 58.3501 10.6683C58.3486 10.6663 58.3344 10.648 58.3328 10.646C58.3313 10.644 58.3171 10.6257 58.3156 10.6237C58.3141 10.6217 58.2999 10.6034 58.2984 10.6014C58.2968 10.5995 58.2826 10.5811 58.2811 10.5792C58.2796 10.5772 58.2654 10.5589 58.2639 10.5569C58.2623 10.5549 58.2482 10.5366 58.2466 10.5346C58.2451 10.5326 58.2309 10.5143 58.2294 10.5123L57.4386 11.1244ZM60.4369 13.9754L64.6947 8.45781L63.903 7.84688L59.6452 13.3645L60.4369 13.9754ZM64.6969 8.45489C64.7213 8.42285 64.7368 8.41426 64.7398 8.4127C64.7415 8.41179 64.7477 8.4082 64.7676 8.4082V7.4082C64.4081 7.4082 64.1099 7.57455 63.9007 7.8498L64.6969 8.45489ZM64.7676 8.4082C64.7932 8.4082 64.8263 8.41282 64.8817 8.46558L65.5714 7.74145C65.3534 7.53379 65.0805 7.4082 64.7676 7.4082V8.4082ZM64.8998 8.48193C64.9265 8.505 64.9345 8.51981 64.9366 8.52432C64.9383 8.52788 64.9414 8.535 64.9414 8.55273H65.9414C65.9414 8.21949 65.797 7.93554 65.5534 7.7251L64.8998 8.48193ZM64.9414 8.55273C64.9414 8.55644 64.9429 8.57453 64.91 8.61686L65.6994 9.2308C65.8487 9.03875 65.9414 8.80945 65.9414 8.55273H64.9414ZM64.9086 8.61862L60.4458 14.4096L61.2378 15.0201L65.7007 9.22904L64.9086 8.61862ZM60.446 15.0203L65.3971 21.4363L66.1888 20.8254L61.2376 14.4094L60.446 15.0203ZM75.3906 22.0586L75.0371 22.4121L75.3906 22.0586ZM75.2051 9.1582H75.7051V8.66028L75.2072 8.65821L75.2051 9.1582ZM70.5176 9.13867L70.5197 8.63867H70.5176V9.13867ZM70.0586 8.94336L69.6608 9.24647L69.6682 9.25571L70.0586 8.94336ZM70.0586 8.06445L70.449 8.3768L70.0586 8.06445ZM70.5176 7.86914L70.5195 7.36914H70.5176V7.86914ZM80.8691 7.9082L80.8673 8.4082H80.8691V7.9082ZM81.3184 8.10352L80.9184 8.40352L80.923 8.40976L80.9279 8.41586L81.3184 8.10352ZM81.3184 8.98242L80.9206 8.67939L80.9184 8.68242L81.3184 8.98242ZM80.8594 9.17773L80.8549 9.67773H80.8594V9.17773ZM78.6719 9.17773V9.67775L78.6763 9.67771L78.6719 9.17773ZM76.4746 9.16797L76.479 8.66799L75.9746 8.66352V9.16797H76.4746ZM76.2793 22.0586L75.9349 21.6961L75.9256 21.7049L75.9168 21.7142L76.2793 22.0586ZM75.8398 21.7539C75.8155 21.7539 75.7897 21.7506 75.7442 21.705L75.0371 22.4121C75.252 22.627 75.5257 22.7539 75.8398 22.7539V21.7539ZM75.7442 21.705C75.7107 21.6716 75.7051 21.6509 75.7051 21.6191H74.7051C74.7051 21.9259 74.8231 22.1982 75.0371 22.4121L75.7442 21.705ZM75.7051 21.6191V9.1582H74.7051V21.6191H75.7051ZM75.2072 8.65821L70.5197 8.63868L70.5155 9.63867L75.203 9.6582L75.2072 8.65821ZM70.5176 8.63867C70.4699 8.63867 70.4501 8.63098 70.4472 8.62977C70.4458 8.62916 70.4466 8.62936 70.4483 8.63063C70.45 8.6319 70.4502 8.6325 70.449 8.63101L69.6682 9.25571C69.8873 9.52966 70.1993 9.63867 70.5176 9.63867V8.63867ZM70.4563 8.64034C70.4115 8.58149 70.4023 8.53963 70.4023 8.50391H69.4023C69.4023 8.78068 69.4974 9.03179 69.6609 9.24638L70.4563 8.64034ZM70.4023 8.50391C70.4023 8.45766 70.4139 8.42071 70.449 8.3768L69.6682 7.75211C69.495 7.96861 69.4023 8.22463 69.4023 8.50391H70.4023ZM70.449 8.3768C70.4502 8.37532 70.45 8.37591 70.4483 8.37718C70.4466 8.37846 70.4458 8.37865 70.4472 8.37805C70.4501 8.37683 70.4699 8.36914 70.5176 8.36914V7.36914C70.1993 7.36914 69.8873 7.47815 69.6682 7.75211L70.449 8.3768ZM70.5157 8.36914L80.8673 8.4082L80.871 7.40821L70.5195 7.36914L70.5157 8.36914ZM80.8691 8.4082C80.9172 8.4082 80.9345 8.41601 80.9334 8.41557C80.9328 8.41528 80.9296 8.41374 80.9255 8.41051C80.9214 8.40727 80.919 8.40441 80.9184 8.40352L81.7184 7.80352C81.5036 7.51721 81.1863 7.4082 80.8691 7.4082V8.4082ZM80.9279 8.41586C80.9631 8.45977 80.9746 8.49673 80.9746 8.54297H81.9746C81.9746 8.26369 81.882 8.00768 81.7088 7.79117L80.9279 8.41586ZM80.9746 8.54297C80.9746 8.5787 80.9655 8.62055 80.9206 8.6794L81.7161 9.28544C81.8796 9.07085 81.9746 8.81974 81.9746 8.54297H80.9746ZM80.9184 8.68242C80.9199 8.68041 80.923 8.67694 80.9274 8.67347C80.9318 8.67004 80.9348 8.66873 80.9346 8.66883C80.9335 8.66928 80.9127 8.67773 80.8594 8.67773V9.67773C81.1766 9.67773 81.5005 9.57284 81.7184 9.28242L80.9184 8.68242ZM80.8638 8.67775C80.1317 8.67122 79.3996 8.67122 78.6674 8.67775L78.6763 9.67771C79.4025 9.67123 80.1287 9.67123 80.8549 9.67771L80.8638 8.67775ZM78.6719 8.67773C77.9442 8.67773 77.2132 8.67449 76.479 8.66799L76.4702 9.66795C77.2073 9.67447 77.9412 9.67773 78.6719 9.67773V8.67773ZM75.9746 9.16797V21.6191H76.9746V9.16797H75.9746ZM75.9746 21.6191C75.9746 21.6423 75.9725 21.6603 75.9349 21.6961L76.6237 22.4211C76.8465 22.2094 76.9746 21.9345 76.9746 21.6191H75.9746ZM75.9168 21.7142C75.8811 21.7518 75.863 21.7539 75.8398 21.7539V22.7539C76.1553 22.7539 76.4301 22.6258 76.6418 22.403L75.9168 21.7142Z" fill="#F9F9F0"/>
</svg>
