<svg width="90" height="90" viewBox="0 0 90 90" fill="none" xmlns="http://www.w3.org/2000/svg">
<path d="M36.5312 14.375C36.1915 14.375 35.8656 14.5002 35.6253 14.7228C35.385 14.9455 35.25 15.2476 35.25 15.5625V16.75H33.9688C31.861 16.75 30.125 18.359 30.125 20.3125V39.3125C30.125 41.266 31.861 42.875 33.9688 42.875H35.25V45.25H37.8125V42.875H53.1875V45.25H55.75V42.875H57.0312C59.139 42.875 60.875 41.266 60.875 39.3125V20.3125C60.875 18.359 59.139 16.75 57.0312 16.75H55.75V15.5625C55.75 15.2476 55.615 14.9455 55.3747 14.7228C55.1344 14.5002 54.8085 14.375 54.4688 14.375H49.3438C49.004 14.375 48.6781 14.5002 48.4378 14.7228C48.1975 14.9455 48.0625 15.2476 48.0625 15.5625V16.75H42.9375V15.5625C42.9375 15.2476 42.8025 14.9455 42.5622 14.7228C42.3219 14.5002 41.996 14.375 41.6562 14.375H36.5312ZM33.9688 19.125H57.0312C57.7525 19.125 58.3125 19.644 58.3125 20.3125V39.3125C58.3125 39.981 57.7525 40.5 57.0312 40.5H33.9688C33.2475 40.5 32.6875 39.981 32.6875 39.3125V20.3125C32.6875 19.644 33.2475 19.125 33.9688 19.125ZM36.5312 21.5C36.1914 21.5 35.8656 21.6251 35.6253 21.8478C35.385 22.0705 35.25 22.3726 35.25 22.6875C35.25 23.0024 35.385 23.3045 35.6253 23.5272C35.8656 23.7499 36.1914 23.875 36.5312 23.875C36.8711 23.875 37.1969 23.7499 37.4372 23.5272C37.6775 23.3045 37.8125 23.0024 37.8125 22.6875C37.8125 22.3726 37.6775 22.0705 37.4372 21.8478C37.1969 21.6251 36.8711 21.5 36.5312 21.5ZM41.6562 21.5C41.3164 21.5 40.9906 21.6251 40.7503 21.8478C40.51 22.0705 40.375 22.3726 40.375 22.6875C40.375 23.0024 40.51 23.3045 40.7503 23.5272C40.9906 23.7499 41.3164 23.875 41.6562 23.875C41.9961 23.875 42.3219 23.7499 42.5622 23.5272C42.8025 23.3045 42.9375 23.0024 42.9375 22.6875C42.9375 22.3726 42.8025 22.0705 42.5622 21.8478C42.3219 21.6251 41.9961 21.5 41.6562 21.5ZM46.7812 21.5C46.4414 21.5 46.1155 21.6251 45.8753 21.8478C45.635 22.0705 45.5 22.3726 45.5 22.6875C45.5 23.0024 45.635 23.3045 45.8753 23.5272C46.1155 23.7499 46.4414 23.875 46.7812 23.875C47.1211 23.875 47.447 23.7499 47.6872 23.5272C47.9275 23.3045 48.0625 23.0024 48.0625 22.6875C48.0625 22.3726 47.9275 22.0705 47.6872 21.8478C47.447 21.6251 47.1211 21.5 46.7812 21.5ZM54.4688 21.5C54.1289 21.5 53.803 21.6251 53.5628 21.8478C53.3225 22.0705 53.1875 22.3726 53.1875 22.6875C53.1875 23.0024 53.3225 23.3045 53.5628 23.5272C53.803 23.7499 54.1289 23.875 54.4688 23.875C54.8086 23.875 55.1345 23.7499 55.3747 23.5272C55.615 23.3045 55.75 23.0024 55.75 22.6875C55.75 22.3726 55.615 22.0705 55.3747 21.8478C55.1345 21.6251 54.8086 21.5 54.4688 21.5ZM36.5312 26.25C36.1915 26.25 35.8656 26.3752 35.6253 26.5978C35.385 26.8205 35.25 27.1226 35.25 27.4375V36.9375C35.25 37.2524 35.385 37.5545 35.6253 37.7772C35.8656 37.9998 36.1915 38.125 36.5312 38.125H54.4688C54.8085 38.125 55.1344 37.9998 55.3747 37.7772C55.615 37.5545 55.75 37.2524 55.75 36.9375V27.4375C55.75 27.1226 55.615 26.8205 55.3747 26.5978C55.1344 26.3752 54.8085 26.25 54.4688 26.25H36.5312ZM37.8125 28.625H53.1875V35.75H37.8125V28.625Z" fill="black"/>
<path d="M36.5078 67.7031C36.5078 68.4896 36.3542 69.2083 36.0469 69.8594C35.7448 70.5052 35.3229 71.0625 34.7812 71.5312C34.2448 71.9948 33.6224 72.3542 32.9141 72.6094C32.2057 72.8646 31.4479 72.9922 30.6406 72.9922C30.2708 72.9922 29.8984 72.9609 29.5234 72.8984C29.1484 72.8359 28.776 72.737 28.4062 72.6016C27.5885 72.3047 26.862 71.8307 26.2266 71.1797C25.5911 70.5286 25.1615 69.7318 24.9375 68.7891C24.8333 68.3568 24.7812 67.9323 24.7812 67.5156C24.7812 66.9271 24.8802 66.3672 25.0781 65.8359C25.276 65.2995 25.5339 64.8151 25.8516 64.3828C26.1693 63.9453 26.5104 63.5781 26.875 63.2812C27.9167 62.4271 29.1146 61.974 30.4688 61.9219C30.526 61.9167 30.5755 61.9219 30.6172 61.9375C30.6641 61.9479 30.7057 61.9557 30.7422 61.9609C31.7318 62.013 32.625 62.2708 33.4219 62.7344C34.2188 63.1927 34.8568 63.7318 35.3359 64.3516C36.1172 65.3672 36.5078 66.4844 36.5078 67.7031ZM30.5234 62.9375C29.388 62.9844 28.3698 63.375 27.4688 64.1094C26.5677 64.8438 26.0286 65.7786 25.8516 66.9141C25.8203 67.1224 25.8047 67.3333 25.8047 67.5469C25.8047 68.0312 25.8776 68.487 26.0234 68.9141C26.1693 69.3359 26.3464 69.6901 26.5547 69.9766C26.9714 70.5495 27.5234 71.0286 28.2109 71.4141C28.9036 71.7943 29.7031 71.9844 30.6094 71.9844C30.9323 71.9844 31.263 71.9557 31.6016 71.8984C32.3047 71.7839 32.9505 71.5443 33.5391 71.1797C34.1276 70.8099 34.6016 70.3359 34.9609 69.7578C35.3203 69.1745 35.5 68.5052 35.5 67.75C35.5 67.099 35.375 66.5052 35.125 65.9688C34.8802 65.4271 34.5547 64.9531 34.1484 64.5469C33.7474 64.1406 33.3099 63.8151 32.8359 63.5703C32.1432 63.2109 31.4271 63.013 30.6875 62.9766C30.6406 62.9766 30.5859 62.9635 30.5234 62.9375ZM38.0859 65.5469C38.0807 65.5156 38.0781 65.487 38.0781 65.4609C38.0781 65.3099 38.1328 65.1927 38.2422 65.1094C38.3516 65.026 38.4714 64.9844 38.6016 64.9844C38.7161 64.9844 38.8203 65.0182 38.9141 65.0859C39.013 65.1536 39.0703 65.2604 39.0859 65.4062C39.6328 69.3281 40.1901 71.5182 40.7578 71.9766C41.3724 71.5443 42.1641 69.3672 43.1328 65.4453C43.1641 65.3203 43.224 65.2292 43.3125 65.1719C43.4062 65.1094 43.5052 65.0781 43.6094 65.0781C43.7396 65.0781 43.8594 65.1198 43.9688 65.2031C44.0833 65.2865 44.1406 65.4062 44.1406 65.5625C44.1406 65.6042 44.1354 65.6458 44.125 65.6875C43.3698 68.7448 42.7005 70.7969 42.1172 71.8438C41.6849 72.6302 41.2344 73.0234 40.7656 73.0234C40.6146 73.0234 40.4609 72.9818 40.3047 72.8984C39.8047 72.638 39.388 71.8958 39.0547 70.6719C38.7161 69.4583 38.3932 67.75 38.0859 65.5469ZM46.8125 70.3516C46.9635 70.8932 47.2552 71.3177 47.6875 71.625C48.125 71.9323 48.6745 72.0859 49.3359 72.0859C50.2214 72.0859 51.25 71.7969 52.4219 71.2188C52.4948 71.1823 52.5703 71.1641 52.6484 71.1641C52.7839 71.1641 52.901 71.2109 53 71.3047C53.1042 71.3984 53.1562 71.5156 53.1562 71.6562C53.1562 71.8802 53.0625 72.0391 52.875 72.1328C52.2812 72.4245 51.6771 72.6589 51.0625 72.8359C50.4479 73.013 49.8542 73.1016 49.2812 73.1016C48.6927 73.1016 48.1432 72.9922 47.6328 72.7734C47.1276 72.5547 46.6953 72.1901 46.3359 71.6797C46.1328 71.3932 45.9766 71.0885 45.8672 70.7656C45.7578 70.4427 45.7031 70.0807 45.7031 69.6797C45.7031 69.5026 45.7135 69.3177 45.7344 69.125C45.8542 68.1302 46.2682 67.2786 46.9766 66.5703C47.8932 65.6536 49.099 65.1953 50.5938 65.1953C51.1667 65.1953 51.6693 65.3073 52.1016 65.5312C52.5339 65.75 52.8411 66.0625 53.0234 66.4688C53.1224 66.6927 53.1719 66.9297 53.1719 67.1797C53.1719 67.6068 53.0599 67.9844 52.8359 68.3125C52.6172 68.6354 52.3047 68.9349 51.8984 69.2109C50.7578 69.9818 49.1042 70.3672 46.9375 70.3672C46.9062 70.3672 46.8646 70.362 46.8125 70.3516ZM46.7266 69.3984C46.7995 69.3672 46.8698 69.3516 46.9375 69.3516C48.901 69.3516 50.3672 69.0234 51.3359 68.3672C51.6068 68.1849 51.8125 68 51.9531 67.8125C52.0938 67.6198 52.1641 67.3984 52.1641 67.1484C52.1641 67.0026 52.1302 66.8854 52.0625 66.7969C52 66.7083 51.9167 66.625 51.8125 66.5469C51.5208 66.3229 51.1172 66.2109 50.6016 66.2109C49.9089 66.2109 49.2786 66.3411 48.7109 66.6016C48.1432 66.8568 47.6823 67.224 47.3281 67.7031C46.9792 68.1771 46.7786 68.7422 46.7266 69.3984ZM55.2578 64.9531C55.4089 64.9531 55.5339 65.013 55.6328 65.1328C56.0078 65.5859 56.2812 66.2839 56.4531 67.2266C57.1615 65.9453 58.0755 65.224 59.1953 65.0625C59.3724 65.0365 59.5469 65.0234 59.7188 65.0234C60.3438 65.0234 60.8958 65.1667 61.375 65.4531C61.8542 65.7396 62.2474 66.1172 62.5547 66.5859C62.862 67.0547 63.0703 67.5599 63.1797 68.1016C63.2526 68.4505 63.2891 68.8073 63.2891 69.1719C63.2891 70.3229 62.9219 71.5391 62.1875 72.8203C62.0938 72.9818 61.9505 73.0625 61.7578 73.0625C61.5964 73.0625 61.4505 72.987 61.3203 72.8359C61.1953 72.6797 61.1901 72.5052 61.3047 72.3125C61.9505 71.1875 62.2734 70.138 62.2734 69.1641C62.2734 68.8724 62.2448 68.5885 62.1875 68.3125C62.1042 67.9115 61.9505 67.5391 61.7266 67.1953C61.5078 66.8516 61.2266 66.5755 60.8828 66.3672C60.5443 66.1536 60.1536 66.0469 59.7109 66.0469C59.5911 66.0469 59.4688 66.0547 59.3438 66.0703C58.8281 66.1432 58.388 66.3698 58.0234 66.75C57.6589 67.1302 57.3646 67.5911 57.1406 68.1328C56.9219 68.6693 56.763 69.2161 56.6641 69.7734C56.6641 69.8411 56.6641 69.9089 56.6641 69.9766C56.6641 70.7266 56.625 71.4818 56.5469 72.2422L56.5156 72.5469C56.5 72.6927 56.4427 72.8021 56.3438 72.875C56.2448 72.9427 56.138 72.9766 56.0234 72.9766C55.8984 72.9766 55.7812 72.9375 55.6719 72.8594C55.5677 72.7812 55.513 72.6641 55.5078 72.5078C55.4974 72.2734 55.4922 72.0443 55.4922 71.8203C55.4922 71.0547 55.5443 70.349 55.6484 69.7031C55.6276 68.5052 55.5339 67.6068 55.3672 67.0078C55.2057 66.4141 55.0573 66.0339 54.9219 65.8672C54.7969 65.7109 54.7344 65.5729 54.7344 65.4531C54.7344 65.3021 54.7891 65.1823 54.8984 65.0938C55.0078 65 55.1276 64.9531 55.2578 64.9531Z" fill="black"/>
<rect x="0.5" y="0.5" width="89" height="89" stroke="#FFFDFD"/>
</svg>
