<svg width="90" height="90" viewBox="0 0 90 90" fill="none" xmlns="http://www.w3.org/2000/svg">
<path d="M20.0469 67.1016L20.0547 71.8594C20.0547 72.0208 20 72.1432 19.8906 72.2266C19.7865 72.3099 19.6719 72.3516 19.5469 72.3516C19.4167 72.3516 19.2995 72.3099 19.1953 72.2266C19.0911 72.1432 19.0391 72.0208 19.0391 71.8594L19.0156 61.2891C19.0156 61.1536 19.0677 61.0365 19.1719 60.9375C19.276 60.8333 19.3932 60.7812 19.5234 60.7812C19.5286 60.7812 19.5339 60.7812 19.5391 60.7812C21.4453 60.8438 22.9115 61.263 23.9375 62.0391C24.7396 62.6432 25.1406 63.3516 25.1406 64.1641C25.1406 64.9089 24.7943 65.5521 24.1016 66.0938C23.2318 66.7708 22.0286 67.1094 20.4922 67.1094C20.3464 67.1094 20.1979 67.1068 20.0469 67.1016ZM20.0391 66.0859C20.1901 66.0911 20.3359 66.0938 20.4766 66.0938C21.7891 66.0938 22.7891 65.8281 23.4766 65.2969C23.9089 64.9635 24.125 64.5859 24.125 64.1641C24.125 63.6901 23.8594 63.2526 23.3281 62.8516C22.5573 62.2786 21.4583 61.9375 20.0312 61.8281L20.0391 66.0859ZM33.6172 66.5703C33.6328 66.6276 33.6406 66.6875 33.6406 66.75C33.6406 66.8698 33.6172 67.0078 33.5703 67.1641C33.4922 67.987 33.4531 68.7214 33.4531 69.3672C33.4531 70.2682 33.5286 71 33.6797 71.5625C33.6953 71.6146 33.7031 71.6641 33.7031 71.7109C33.7031 71.8568 33.6458 71.9714 33.5312 72.0547C33.4219 72.1432 33.3021 72.1875 33.1719 72.1875C33.0729 72.1875 32.9792 72.1589 32.8906 72.1016C32.8021 72.0443 32.7396 71.9505 32.7031 71.8203C32.5417 71.2214 32.4557 70.4609 32.4453 69.5391C31.9505 70.3359 31.4193 70.9635 30.8516 71.4219C30.5078 71.6979 30.1536 71.8542 29.7891 71.8906C29.5703 71.9531 29.3568 71.9844 29.1484 71.9844C28.8516 71.9844 28.5807 71.9297 28.3359 71.8203C28.0911 71.7109 27.8802 71.5729 27.7031 71.4062C27.3854 71.1094 27.138 70.7266 26.9609 70.2578C26.7891 69.7839 26.7031 69.237 26.7031 68.6172C26.7031 67.8203 26.888 67.0599 27.2578 66.3359C27.7995 65.2734 28.6224 64.5651 29.7266 64.2109C30.1484 64.0703 30.5547 64 30.9453 64C31.4349 64 31.8958 64.1146 32.3281 64.3438C33.0833 64.7448 33.513 65.487 33.6172 66.5703ZM32.6016 66.6406C32.5547 66.1406 32.3906 65.7448 32.1094 65.4531C31.8333 65.1615 31.4557 65.0156 30.9766 65.0156C30.6901 65.0156 30.3776 65.0703 30.0391 65.1797C29.2005 65.4453 28.5885 65.9583 28.2031 66.7188C27.8802 67.3594 27.7188 67.9974 27.7188 68.6328C27.7188 69.0807 27.7786 69.4818 27.8984 69.8359C28.0182 70.1901 28.1719 70.4557 28.3594 70.6328C28.5938 70.8516 28.8594 70.9609 29.1562 70.9609C29.2552 70.9609 29.349 70.9505 29.4375 70.9297C29.5312 70.9036 29.6354 70.8854 29.75 70.875C29.8385 70.8646 30.013 70.7578 30.2734 70.5547C30.5339 70.3464 30.8099 70.0521 31.1016 69.6719C31.3984 69.2917 31.6771 68.8646 31.9375 68.3906C32.1979 67.9167 32.4089 67.4401 32.5703 66.9609C32.5755 66.9089 32.5807 66.8568 32.5859 66.8047C32.5911 66.7474 32.5964 66.6927 32.6016 66.6406ZM35.7969 72.0625C35.651 72.0625 35.526 71.9922 35.4219 71.8516C35.3177 71.7057 35.2656 71.5755 35.2656 71.4609C35.2656 71.362 35.2812 71.2604 35.3125 71.1562C35.349 71.0521 35.3698 70.9531 35.375 70.8594C35.3906 70.5729 35.4193 70.1875 35.4609 69.7031C35.5026 69.2135 35.5234 68.7396 35.5234 68.2812C35.5234 67.9479 35.5182 67.5859 35.5078 67.1953C35.4766 66.0443 35.4297 65.3438 35.3672 65.0938C35.3411 64.9844 35.3281 64.8854 35.3281 64.7969C35.3281 64.6458 35.3698 64.5234 35.4531 64.4297C35.5417 64.3307 35.6641 64.2812 35.8203 64.2812C35.9401 64.2812 36.0443 64.3203 36.1328 64.3984C36.2214 64.4766 36.2786 64.5651 36.3047 64.6641C36.4193 65.0964 36.487 65.7604 36.5078 66.6562C37.2682 65.1615 38.2969 64.3333 39.5938 64.1719C39.6146 64.1719 39.6354 64.1719 39.6562 64.1719C39.8125 64.1719 39.9323 64.2292 40.0156 64.3438C40.1042 64.4531 40.1484 64.5729 40.1484 64.7031C40.1484 64.8177 40.1146 64.9219 40.0469 65.0156C39.9792 65.1094 39.8698 65.1641 39.7188 65.1797C38.3958 65.3464 37.4219 66.5312 36.7969 68.7344C36.6458 69.2708 36.5312 69.8229 36.4531 70.3906C36.4375 70.625 36.4219 70.8099 36.4062 70.9453C36.3958 71.0807 36.3906 71.2083 36.3906 71.3281C36.3906 71.3958 36.3958 71.4505 36.4062 71.4922C36.4167 71.5339 36.4219 71.5703 36.4219 71.6016C36.4219 71.7161 36.3438 71.8229 36.1875 71.9219C36.0365 72.0156 35.9062 72.0625 35.7969 72.0625ZM48.0391 72.0625C47.9245 72.0625 47.8099 72.0156 47.6953 71.9219C47.5859 71.8281 47.5312 71.7292 47.5312 71.625C47.5312 71.3646 47.3021 71.0521 46.8438 70.6875C45.8438 69.901 44.5417 69.1589 42.9375 68.4609C42.8854 68.4401 42.8281 68.4036 42.7656 68.3516C42.75 69.0078 42.7422 69.5781 42.7422 70.0625C42.7422 70.8333 42.7604 71.3411 42.7969 71.5859C42.8021 71.6172 42.8047 71.6458 42.8047 71.6719C42.8047 71.8281 42.75 71.9479 42.6406 72.0312C42.5312 72.1146 42.4115 72.1562 42.2812 72.1562C42.1719 72.1562 42.0677 72.1224 41.9688 72.0547C41.875 71.987 41.8177 71.8802 41.7969 71.7344C41.7552 71.4688 41.7344 70.9245 41.7344 70.1016C41.7344 68.3516 41.8255 65.3438 42.0078 61.0781C42.013 60.9219 42.0677 60.8047 42.1719 60.7266C42.276 60.6484 42.3906 60.6094 42.5156 60.6094C42.6406 60.6094 42.7552 60.651 42.8594 60.7344C42.9635 60.8125 43.0156 60.9297 43.0156 61.0859C43.0156 61.0964 43.0156 61.1094 43.0156 61.125C42.9583 62.4583 42.9115 63.6693 42.875 64.7578C42.8385 65.8411 42.8099 66.7995 42.7891 67.6328C42.8047 67.6224 42.8307 67.6042 42.8672 67.5781C42.9089 67.5469 42.9609 67.513 43.0234 67.4766C43.9661 66.9349 44.7031 66.4062 45.2344 65.8906C45.776 65.3646 46.0469 64.9766 46.0469 64.7266C46.0469 64.5911 46.0964 64.474 46.1953 64.375C46.2995 64.2708 46.4193 64.2188 46.5547 64.2188C46.7214 64.2188 46.8464 64.276 46.9297 64.3906C47.0182 64.5052 47.0625 64.6562 47.0625 64.8438C47.0625 65.2969 46.7161 65.862 46.0234 66.5391C45.6797 66.8724 45.3698 67.138 45.0938 67.3359C44.8229 67.5286 44.5312 67.7266 44.2188 67.9297C45.4844 68.5339 46.526 69.1562 47.3438 69.7969C48.1458 70.4271 48.5469 71.013 48.5469 71.5547C48.5469 71.6901 48.4948 71.8099 48.3906 71.9141C48.2917 72.013 48.1745 72.0625 48.0391 72.0625ZM50.1094 62.5078C50.1094 62.3151 50.1667 62.1302 50.2812 61.9531C50.401 61.7708 50.5469 61.625 50.7188 61.5156C50.8906 61.401 51.0599 61.3438 51.2266 61.3438C51.4714 61.3438 51.6771 61.4479 51.8438 61.6562C52.0156 61.8594 52.1016 62.0625 52.1016 62.2656C52.1016 62.4583 52.0417 62.6354 51.9219 62.7969C51.8021 62.9583 51.6406 63.0755 51.4375 63.1484C51.2083 63.263 51.0052 63.3203 50.8281 63.3203C50.6354 63.3203 50.4661 63.2422 50.3203 63.0859C50.1797 62.9245 50.1094 62.7318 50.1094 62.5078ZM51.375 70.7266C51.3594 71.1432 51.3021 71.4766 51.2031 71.7266C51.1042 71.9714 50.9323 72.0938 50.6875 72.0938C50.5521 72.0938 50.4323 72.0443 50.3281 71.9453C50.224 71.8464 50.1719 71.724 50.1719 71.5781C50.1719 71.5104 50.1849 71.4427 50.2109 71.375C50.2578 71.2656 50.2943 71.0495 50.3203 70.7266C50.3516 70.3984 50.375 70.013 50.3906 69.5703C50.4062 69.1276 50.4167 68.6719 50.4219 68.2031C50.4323 67.7292 50.4375 67.2891 50.4375 66.8828C50.4375 66.4766 50.4375 66.1536 50.4375 65.9141C50.4375 65.4714 50.4349 65.0469 50.4297 64.6406C50.4297 64.474 50.4818 64.349 50.5859 64.2656C50.6953 64.1823 50.8151 64.1406 50.9453 64.1406C51.0703 64.1406 51.1823 64.1823 51.2812 64.2656C51.3854 64.3438 51.4375 64.4635 51.4375 64.625C51.4427 64.901 51.4453 65.1719 51.4453 65.4375C51.4505 65.7031 51.4531 65.9635 51.4531 66.2188C51.4531 67.0677 51.4479 67.8359 51.4375 68.5234C51.4323 69.2109 51.4115 69.9453 51.375 70.7266ZM54.1953 63.9531C54.3464 63.9531 54.4714 64.013 54.5703 64.1328C54.9453 64.5859 55.2188 65.2839 55.3906 66.2266C56.099 64.9453 57.013 64.224 58.1328 64.0625C58.3099 64.0365 58.4844 64.0234 58.6562 64.0234C59.2812 64.0234 59.8333 64.1667 60.3125 64.4531C60.7917 64.7396 61.1849 65.1172 61.4922 65.5859C61.7995 66.0547 62.0078 66.5599 62.1172 67.1016C62.1901 67.4505 62.2266 67.8073 62.2266 68.1719C62.2266 69.3229 61.8594 70.5391 61.125 71.8203C61.0312 71.9818 60.888 72.0625 60.6953 72.0625C60.5339 72.0625 60.388 71.987 60.2578 71.8359C60.1328 71.6797 60.1276 71.5052 60.2422 71.3125C60.888 70.1875 61.2109 69.138 61.2109 68.1641C61.2109 67.8724 61.1823 67.5885 61.125 67.3125C61.0417 66.9115 60.888 66.5391 60.6641 66.1953C60.4453 65.8516 60.1641 65.5755 59.8203 65.3672C59.4818 65.1536 59.0911 65.0469 58.6484 65.0469C58.5286 65.0469 58.4062 65.0547 58.2812 65.0703C57.7656 65.1432 57.3255 65.3698 56.9609 65.75C56.5964 66.1302 56.3021 66.5911 56.0781 67.1328C55.8594 67.6693 55.7005 68.2161 55.6016 68.7734C55.6016 68.8411 55.6016 68.9089 55.6016 68.9766C55.6016 69.7266 55.5625 70.4818 55.4844 71.2422L55.4531 71.5469C55.4375 71.6927 55.3802 71.8021 55.2812 71.875C55.1823 71.9427 55.0755 71.9766 54.9609 71.9766C54.8359 71.9766 54.7188 71.9375 54.6094 71.8594C54.5052 71.7812 54.4505 71.6641 54.4453 71.5078C54.4349 71.2734 54.4297 71.0443 54.4297 70.8203C54.4297 70.0547 54.4818 69.349 54.5859 68.7031C54.5651 67.5052 54.4714 66.6068 54.3047 66.0078C54.1432 65.4141 53.9948 65.0339 53.8594 64.8672C53.7344 64.7109 53.6719 64.5729 53.6719 64.4531C53.6719 64.3021 53.7266 64.1823 53.8359 64.0938C53.9453 64 54.0651 63.9531 54.1953 63.9531ZM66.7031 72.0938C66.2083 72.0938 65.7995 71.9245 65.4766 71.5859C65.1589 71.2474 64.9219 70.8177 64.7656 70.2969C64.6094 69.776 64.5312 69.2422 64.5312 68.6953C64.5312 67.9141 64.6927 67.1562 65.0156 66.4219C65.4896 65.3438 66.2292 64.625 67.2344 64.2656C67.6042 64.1302 67.9714 64.0625 68.3359 64.0625C69.0859 64.0625 69.6667 64.3099 70.0781 64.8047C70.4896 65.2995 70.7214 65.9141 70.7734 66.6484C70.7943 66.7526 70.8177 66.9401 70.8438 67.2109C70.8698 67.4766 70.8932 67.7734 70.9141 68.1016C70.9349 68.4245 70.9505 68.737 70.9609 69.0391C70.9766 69.3411 70.9844 69.5807 70.9844 69.7578C70.9844 71.5651 70.7161 73.026 70.1797 74.1406C69.8776 74.7604 69.4635 75.2917 68.9375 75.7344C68.4115 76.1823 67.7448 76.4062 66.9375 76.4062C66.7865 76.4062 66.6302 76.3958 66.4688 76.375C65.6562 76.2812 64.8464 75.987 64.0391 75.4922C63.8828 75.3984 63.8047 75.2552 63.8047 75.0625C63.8047 74.8854 63.8828 74.7396 64.0391 74.625C64.2005 74.5104 64.3776 74.5104 64.5703 74.625C65.2578 75.0417 65.9141 75.2865 66.5391 75.3594C66.6797 75.375 66.8151 75.3828 66.9453 75.3828C67.5547 75.3828 68.0339 75.224 68.3828 74.9062C68.737 74.5885 69.0312 74.1849 69.2656 73.6953C69.7344 72.7214 69.9688 71.4062 69.9688 69.75C69.9688 69.5521 69.9661 69.3516 69.9609 69.1484C69.0599 70.9453 68.1875 71.8932 67.3438 71.9922C67.1198 72.0599 66.9062 72.0938 66.7031 72.0938ZM66.7734 71.0625C66.862 71.0625 66.9427 71.0495 67.0156 71.0234C67.0885 70.9922 67.1719 70.9766 67.2656 70.9766C67.3385 70.9766 67.4766 70.8906 67.6797 70.7188C67.8776 70.5469 68.0833 70.3073 68.2969 70C68.5104 69.6927 68.7109 69.3646 68.8984 69.0156C69.0859 68.6667 69.2396 68.3411 69.3594 68.0391C69.6042 67.4193 69.7422 67.0286 69.7734 66.8672C69.7682 66.8255 69.763 66.7917 69.7578 66.7656C69.7578 66.7396 69.7578 66.7214 69.7578 66.7109C69.7109 66.1589 69.5781 65.75 69.3594 65.4844C69.1406 65.2135 68.8099 65.0781 68.3672 65.0781C68.0911 65.0781 67.8281 65.125 67.5781 65.2188C66.8594 65.474 66.3229 65.9974 65.9688 66.7891C65.6875 67.4245 65.5469 68.0599 65.5469 68.6953C65.5469 69.1432 65.6016 69.5651 65.7109 69.9609C65.8255 70.3516 65.9635 70.6224 66.125 70.7734C66.3281 70.9661 66.5443 71.0625 66.7734 71.0625Z" fill="black"/>
<path d="M46.5833 15.5H35.5V42.5H41.8333V33.5H46.5833C51.8242 33.5 56.0833 29.465 56.0833 24.5C56.0833 19.535 51.8242 15.5 46.5833 15.5ZM46.9 27.5H41.8333V21.5H46.9C48.6417 21.5 50.0667 22.85 50.0667 24.5C50.0667 26.15 48.6417 27.5 46.9 27.5Z" fill="black"/>
<rect x="0.5" y="0.5" width="89" height="89" stroke="#FFFDFD"/>
</svg>
