<svg width="90" height="90" viewBox="0 0 90 90" fill="none" xmlns="http://www.w3.org/2000/svg">
<g clip-path="url(#clip0)">
<path d="M51.4635 33.1549H51.4403H50.1805H49.9305H47.4305H47.1805H45.912H45.8889H45.4635H45.4403H44.1805H43.9305H41.4305H41.1805H39.912H39.8889H39.4635H39.4403H38.1805H37.9305H35.2215H34.9715V32.9049C34.9715 32.5212 34.8341 32.1578 34.5964 31.8937C34.3594 31.6304 34.044 31.4883 33.7215 31.4883C33.399 31.4883 33.0836 31.6304 32.8467 31.8937C32.609 32.1578 32.4715 32.5212 32.4715 32.9049L51.4635 33.1549ZM51.4635 33.1549H51.8889H51.912H53.1805H53.4305H56.1542H56.1805H56.4305V32.9049C56.4305 32.5212 56.5679 32.1578 56.8057 31.8937C57.0426 31.6304 57.358 31.4883 57.6805 31.4883C58.003 31.4883 58.3184 31.6304 58.5554 31.8937C58.793 32.1578 58.9305 32.5211 58.9305 32.9047L51.4635 33.1549ZM33.9181 34.3519L33.795 34.6557C32.9126 36.8341 32.435 39.038 32.4305 41.2323C32.4255 43.7193 32.9979 46.1819 34.0865 48.556L34.0867 48.5564L34.4359 49.3216H39.4286H39.4513L39.4737 49.3257C39.6059 49.35 39.7405 49.35 39.8727 49.3257L39.8951 49.3216H39.9178H45.4286H45.4513L45.4737 49.3257C45.6059 49.35 45.7405 49.35 45.8727 49.3257L45.8951 49.3216H45.9178H51.4286H51.4513L51.4737 49.3257C51.6059 49.35 51.7405 49.35 51.8727 49.3257L51.8951 49.3216H51.9178H56.9183L57.265 48.5511L57.2652 48.5507C58.3563 46.1349 58.9222 43.6793 58.9305 41.2439C58.9379 39.0098 58.452 36.8018 57.5639 34.6609L57.4328 34.3449L57.7736 34.316C58.0795 34.29 58.3714 34.1364 58.5884 33.8764C58.806 33.6158 58.9302 33.269 58.9305 32.9047L33.9181 34.3519ZM33.9181 34.3519L33.5926 34.3136M33.9181 34.3519L33.5926 34.3136M33.5926 34.3136C33.2933 34.2783 33.0102 34.1206 32.8008 33.862C32.5908 33.6027 32.4716 33.262 32.4715 32.9049L33.5926 34.3136ZM38.4305 32.6549V16.4883H52.9305V32.6549H51.934C51.842 32.6393 51.7489 32.6316 51.6557 32.6322V32.6321L51.6511 32.6322C51.573 32.6341 51.4951 32.6417 51.4181 32.6549H50.4305V20.0478V19.7978H50.1805H47.1805H46.9305V20.0478V32.6549H45.934C45.842 32.6393 45.7489 32.6316 45.6557 32.6322L45.6557 32.6321L45.6511 32.6322C45.573 32.6341 45.4951 32.6417 45.4181 32.6549H44.4305V20.0478V19.7978H44.1805H41.1805H40.9305V20.0478V32.6549H39.934C39.842 32.6393 39.7489 32.6316 39.6557 32.6322L39.6557 32.6321L39.6511 32.6322C39.573 32.6341 39.4951 32.6417 39.4181 32.6549H38.4305ZM36.326 35.9883H36.1538L36.0924 36.1492C35.439 37.8623 34.9339 39.5718 34.9305 41.241C34.9271 42.9464 35.4355 44.6415 36.09 46.3287L36.1519 46.4883H36.3231H38.1805H38.4305V46.2383V36.2383V35.9883H38.1805H36.326ZM41.1805 35.9883H40.9305V36.2383V46.2383V46.4883H41.1805H44.1805H44.4305V46.2383V36.2383V35.9883H44.1805H41.1805ZM47.1805 35.9883H46.9305V36.2383V46.2383V46.4883H47.1805H50.1805H50.4305V46.2383V36.2383V35.9883H50.1805H47.1805ZM53.1805 35.9883H52.9305V36.2383V46.2383V46.4883H53.1805H55.0233H55.1952L55.2567 46.3278C55.9151 44.61 56.4248 42.8985 56.4305 41.2326C56.4362 39.5212 55.9241 37.8302 55.2618 36.1468L55.1994 35.9883H55.0292H53.1805Z" fill="black" stroke="white" stroke-width="0.5"/>
</g>
<path d="M4.33301 72.7139L4.33984 76.877C4.33984 77.0182 4.29199 77.1253 4.19629 77.1982C4.10514 77.2712 4.00488 77.3076 3.89551 77.3076C3.78158 77.3076 3.67904 77.2712 3.58789 77.1982C3.49674 77.1253 3.45117 77.0182 3.45117 76.877L3.43066 67.6279C3.43066 67.5094 3.47624 67.4069 3.56738 67.3203C3.65853 67.2292 3.76107 67.1836 3.875 67.1836C3.87956 67.1836 3.88411 67.1836 3.88867 67.1836C5.55664 67.2383 6.83952 67.6051 7.7373 68.2842C8.43913 68.8128 8.79004 69.4326 8.79004 70.1436C8.79004 70.7952 8.48698 71.3581 7.88086 71.832C7.11979 72.4245 6.06706 72.7207 4.72266 72.7207C4.59505 72.7207 4.46517 72.7184 4.33301 72.7139ZM4.32617 71.8252C4.45833 71.8298 4.58594 71.832 4.70898 71.832C5.85742 71.832 6.73242 71.5996 7.33398 71.1348C7.71224 70.8431 7.90137 70.5127 7.90137 70.1436C7.90137 69.7288 7.66895 69.346 7.2041 68.9951C6.52962 68.4938 5.56803 68.1953 4.31934 68.0996L4.32617 71.8252ZM16.207 72.249C16.2207 72.2992 16.2275 72.3516 16.2275 72.4062C16.2275 72.5111 16.207 72.6318 16.166 72.7686C16.0977 73.4886 16.0635 74.1312 16.0635 74.6963C16.0635 75.4847 16.1296 76.125 16.2617 76.6172C16.2754 76.6628 16.2822 76.7061 16.2822 76.7471C16.2822 76.8747 16.2321 76.9749 16.1318 77.0479C16.0361 77.1253 15.9313 77.1641 15.8174 77.1641C15.7308 77.1641 15.6488 77.139 15.5713 77.0889C15.4938 77.0387 15.4391 76.9567 15.4072 76.8428C15.266 76.3187 15.1908 75.6533 15.1816 74.8467C14.7487 75.5439 14.2839 76.0931 13.7871 76.4941C13.4863 76.7357 13.1764 76.8724 12.8574 76.9043C12.666 76.959 12.4792 76.9863 12.2969 76.9863C12.0371 76.9863 11.8001 76.9385 11.5859 76.8428C11.3717 76.7471 11.1872 76.6263 11.0322 76.4805C10.7542 76.2207 10.5378 75.8857 10.3828 75.4756C10.2324 75.0609 10.1572 74.5824 10.1572 74.04C10.1572 73.3428 10.319 72.6774 10.6426 72.0439C11.1165 71.1143 11.8366 70.4945 12.8027 70.1846C13.1719 70.0615 13.5273 70 13.8691 70C14.2975 70 14.7008 70.1003 15.0791 70.3008C15.7399 70.6517 16.1159 71.3011 16.207 72.249ZM15.3184 72.3105C15.2773 71.873 15.1338 71.5267 14.8877 71.2715C14.6462 71.0163 14.3158 70.8887 13.8965 70.8887C13.6458 70.8887 13.3724 70.9365 13.0762 71.0322C12.3424 71.2646 11.807 71.7135 11.4697 72.3789C11.1872 72.9395 11.0459 73.4977 11.0459 74.0537C11.0459 74.4456 11.0983 74.7965 11.2031 75.1064C11.3079 75.4163 11.4424 75.6488 11.6064 75.8037C11.8115 75.9951 12.0439 76.0908 12.3037 76.0908C12.3903 76.0908 12.4723 76.0817 12.5498 76.0635C12.6318 76.0407 12.723 76.0247 12.8232 76.0156C12.9007 76.0065 13.0534 75.9131 13.2812 75.7354C13.5091 75.5531 13.7507 75.2956 14.0059 74.9629C14.2656 74.6302 14.5094 74.2565 14.7373 73.8418C14.9652 73.4271 15.1497 73.0101 15.291 72.5908C15.2956 72.5452 15.3001 72.4997 15.3047 72.4541C15.3092 72.404 15.3138 72.3561 15.3184 72.3105ZM20.1035 76.7812C20.1035 76.9043 20.0579 77.0091 19.9668 77.0957C19.8757 77.1823 19.7708 77.2256 19.6523 77.2256C19.5794 77.2256 19.5111 77.2074 19.4473 77.1709C18.8594 76.8564 18.5039 75.9974 18.3809 74.5938C18.3535 74.2884 18.333 73.9603 18.3193 73.6094C18.3057 73.2539 18.2988 72.8734 18.2988 72.4678C18.2988 72.0758 18.3057 71.6475 18.3193 71.1826C18.096 71.1826 17.8727 71.1826 17.6494 71.1826C17.4261 71.1781 17.2005 71.1758 16.9727 71.1758C16.8542 71.1758 16.7493 71.1302 16.6582 71.0391C16.5716 70.9434 16.5283 70.8363 16.5283 70.7178C16.5283 70.6084 16.5716 70.5104 16.6582 70.4238C16.7493 70.3327 16.8542 70.2871 16.9727 70.2871L18.3467 70.2939C18.3512 70.1572 18.3581 69.9476 18.3672 69.665C18.3763 69.3825 18.3854 69.0817 18.3945 68.7627C18.4036 68.4437 18.4082 68.1634 18.4082 67.9219C18.4082 67.849 18.4059 67.7829 18.4014 67.7236C18.4014 67.6644 18.4014 67.6097 18.4014 67.5596C18.4014 67.4229 18.4469 67.318 18.5381 67.2451C18.6338 67.1722 18.7363 67.1357 18.8457 67.1357C18.9551 67.1357 19.0553 67.1699 19.1465 67.2383C19.2376 67.3066 19.2855 67.4115 19.29 67.5527C19.2946 67.6439 19.2969 67.7601 19.2969 67.9014C19.2969 68.152 19.2923 68.4368 19.2832 68.7559C19.2741 69.0749 19.265 69.3779 19.2559 69.665C19.2467 69.9476 19.2399 70.1595 19.2354 70.3008L20.2676 70.3076C20.4089 70.3076 20.516 70.3555 20.5889 70.4512C20.6618 70.5469 20.6982 70.6494 20.6982 70.7588C20.6982 70.8682 20.6618 70.9684 20.5889 71.0596C20.5205 71.1507 20.4157 71.1963 20.2744 71.1963C20.2699 71.1963 20.2676 71.1963 20.2676 71.1963C20.0898 71.1963 19.9121 71.1963 19.7344 71.1963C19.5612 71.1917 19.3857 71.1895 19.208 71.1895C19.1989 71.5996 19.1943 71.987 19.1943 72.3516C19.1943 74.0013 19.306 75.1611 19.5293 75.8311C19.6341 76.1364 19.7435 76.3187 19.8574 76.3779C19.9258 76.4144 19.9827 76.4691 20.0283 76.542C20.0785 76.6149 20.1035 76.6947 20.1035 76.7812ZM22.0791 68.6943C22.0791 68.5257 22.1292 68.3639 22.2295 68.209C22.3343 68.0495 22.4619 67.9219 22.6123 67.8262C22.7627 67.7259 22.9108 67.6758 23.0566 67.6758C23.2708 67.6758 23.4508 67.7669 23.5967 67.9492C23.7471 68.127 23.8223 68.3047 23.8223 68.4824C23.8223 68.651 23.7699 68.806 23.665 68.9473C23.5602 69.0885 23.4189 69.1911 23.2412 69.2549C23.0407 69.3551 22.863 69.4053 22.708 69.4053C22.5394 69.4053 22.3913 69.3369 22.2637 69.2002C22.1406 69.0589 22.0791 68.8903 22.0791 68.6943ZM23.1865 75.8857C23.1729 76.2503 23.1227 76.542 23.0361 76.7607C22.9495 76.9749 22.7992 77.082 22.585 77.082C22.4665 77.082 22.3617 77.0387 22.2705 76.9521C22.1794 76.8656 22.1338 76.7585 22.1338 76.6309C22.1338 76.5716 22.1452 76.5124 22.168 76.4531C22.209 76.3574 22.2409 76.1683 22.2637 75.8857C22.291 75.5986 22.3115 75.2614 22.3252 74.874C22.3389 74.4867 22.348 74.0879 22.3525 73.6777C22.3617 73.263 22.3662 72.8779 22.3662 72.5225C22.3662 72.167 22.3662 71.8844 22.3662 71.6748C22.3662 71.2874 22.3639 70.916 22.3594 70.5605C22.3594 70.4147 22.4049 70.3053 22.4961 70.2324C22.5918 70.1595 22.6966 70.123 22.8105 70.123C22.9199 70.123 23.0179 70.1595 23.1045 70.2324C23.1956 70.3008 23.2412 70.4056 23.2412 70.5469C23.2458 70.7884 23.248 71.0254 23.248 71.2578C23.2526 71.4902 23.2549 71.7181 23.2549 71.9414C23.2549 72.6842 23.2503 73.3564 23.2412 73.958C23.2367 74.5596 23.2184 75.2021 23.1865 75.8857ZM28.7031 69.9111C29.8379 69.9795 30.7676 70.54 31.4922 71.5928C31.6882 71.8753 31.8385 72.1898 31.9434 72.5361C32.0482 72.8779 32.1006 73.2585 32.1006 73.6777C32.1006 74.3021 31.9525 74.8626 31.6562 75.3594C31.36 75.8516 31.0023 76.2321 30.583 76.501C30.3141 76.6742 30.0111 76.8132 29.6738 76.918C29.3366 77.0182 28.988 77.0684 28.6279 77.0684C27.958 77.0684 27.3861 76.9225 26.9121 76.6309C26.4427 76.3346 26.0645 75.9678 25.7773 75.5303C25.39 74.9287 25.1963 74.2839 25.1963 73.5957C25.1963 73.4134 25.21 73.2288 25.2373 73.042C25.3649 72.1351 25.7454 71.3923 26.3789 70.8135C27.0169 70.2301 27.737 69.9225 28.5391 69.8906C28.5938 69.8815 28.6484 69.8883 28.7031 69.9111ZM31.2051 73.6299C31.2051 73.1012 31.082 72.6296 30.8359 72.2148C30.5898 71.7956 30.2708 71.4629 29.8789 71.2168C29.4915 70.9661 29.0837 70.8271 28.6553 70.7998C28.6188 70.7998 28.5824 70.793 28.5459 70.7793C28.0811 70.8066 27.6618 70.9502 27.2881 71.21C26.9144 71.4652 26.6182 71.8024 26.3994 72.2217C26.1852 72.6364 26.0781 73.099 26.0781 73.6094C26.0781 74.0013 26.1533 74.3568 26.3037 74.6758C26.4587 74.9948 26.6569 75.2682 26.8984 75.4961C27.1445 75.7194 27.3997 75.8857 27.6641 75.9951C27.9831 76.1227 28.3112 76.1865 28.6484 76.1865C29.1178 76.1865 29.5439 76.0771 29.9268 75.8584C30.3141 75.6351 30.6081 75.3662 30.8086 75.0518C30.9408 74.8421 31.0387 74.6165 31.1025 74.375C31.1709 74.1289 31.2051 73.8805 31.2051 73.6299ZM33.9189 78.21C33.7959 78.21 33.6888 78.1667 33.5977 78.0801C33.5111 77.9935 33.4678 77.8887 33.4678 77.7656C33.4678 77.7018 33.4837 77.638 33.5156 77.5742L38.3555 67.6553C38.4375 67.4912 38.5674 67.4092 38.7451 67.4092C38.8636 67.4092 38.9707 67.4479 39.0664 67.5254C39.1621 67.6029 39.21 67.7031 39.21 67.8262C39.21 67.8945 39.194 67.9629 39.1621 68.0312L34.3154 77.957C34.2835 78.0254 34.2311 78.0846 34.1582 78.1348C34.0898 78.1849 34.0101 78.21 33.9189 78.21ZM40.5703 76.3643C40.5703 76.0407 40.5931 75.6693 40.6387 75.25C40.6888 74.8307 40.7139 74.4479 40.7139 74.1016C40.7139 74.0833 40.7139 74.0651 40.7139 74.0469C40.7139 73.7552 40.7298 73.5638 40.7617 73.4727C40.7754 73.0671 40.7868 72.5133 40.7959 71.8115C40.8096 71.1097 40.8232 70.2598 40.8369 69.2617L40.8574 67.5869C40.8574 67.4639 40.9007 67.3613 40.9873 67.2793C41.0785 67.1927 41.1855 67.1494 41.3086 67.1494C41.4271 67.1494 41.5296 67.195 41.6162 67.2861C41.7028 67.3773 41.7461 67.4821 41.7461 67.6006L41.7256 69.2686C41.721 69.7425 41.7165 70.1709 41.7119 70.5537C41.7074 70.932 41.7005 71.2624 41.6914 71.5449C42.612 70.6152 43.512 70.123 44.3916 70.0684C44.4554 70.0638 44.5215 70.0615 44.5898 70.0615C45.3691 70.0615 46.0049 70.3691 46.4971 70.9844C46.7796 71.3398 47.0007 71.7523 47.1602 72.2217C47.3242 72.6911 47.4062 73.1719 47.4062 73.6641C47.4062 74.0286 47.3561 74.3887 47.2559 74.7441C47.1602 75.0996 47.0075 75.4323 46.7979 75.7422C46.4971 76.1842 46.1143 76.526 45.6494 76.7676C45.1846 77.0046 44.64 77.123 44.0156 77.123C43.0039 77.123 42.1859 76.6081 41.5615 75.5781C41.5524 75.7741 41.541 75.9518 41.5273 76.1113C41.5182 76.2708 41.5068 76.4098 41.4932 76.5283C41.4795 76.6514 41.4316 76.7607 41.3496 76.8564C41.2721 76.9476 41.1742 76.9932 41.0557 76.9932C40.8825 76.9932 40.7572 76.9316 40.6797 76.8086C40.6068 76.681 40.5703 76.5329 40.5703 76.3643ZM44.0088 76.2344C44.779 76.2344 45.3874 75.9928 45.834 75.5098C46.2852 75.0267 46.5107 74.3978 46.5107 73.623C46.5107 73.181 46.431 72.7572 46.2715 72.3516C46.1165 71.9414 45.8932 71.6064 45.6016 71.3467C45.3099 71.0824 44.9658 70.9502 44.5693 70.9502C44.5374 70.9502 44.5055 70.9502 44.4736 70.9502C43.6123 71.0094 42.6758 71.6657 41.6641 72.9189C41.6595 73.0238 41.6572 73.1286 41.6572 73.2334C41.6572 73.3382 41.6549 73.4408 41.6504 73.541C41.6868 73.6413 41.7347 73.7803 41.7939 73.958C42.3089 75.4756 43.0472 76.2344 44.0088 76.2344ZM54.8301 72.249C54.8438 72.2992 54.8506 72.3516 54.8506 72.4062C54.8506 72.5111 54.8301 72.6318 54.7891 72.7686C54.7207 73.4886 54.6865 74.1312 54.6865 74.6963C54.6865 75.4847 54.7526 76.125 54.8848 76.6172C54.8984 76.6628 54.9053 76.7061 54.9053 76.7471C54.9053 76.8747 54.8551 76.9749 54.7549 77.0479C54.6592 77.1253 54.5544 77.1641 54.4404 77.1641C54.3538 77.1641 54.2718 77.139 54.1943 77.0889C54.1169 77.0387 54.0622 76.9567 54.0303 76.8428C53.889 76.3187 53.8138 75.6533 53.8047 74.8467C53.3717 75.5439 52.9069 76.0931 52.4102 76.4941C52.1094 76.7357 51.7995 76.8724 51.4805 76.9043C51.2891 76.959 51.1022 76.9863 50.9199 76.9863C50.6602 76.9863 50.4232 76.9385 50.209 76.8428C49.9948 76.7471 49.8102 76.6263 49.6553 76.4805C49.3773 76.2207 49.1608 75.8857 49.0059 75.4756C48.8555 75.0609 48.7803 74.5824 48.7803 74.04C48.7803 73.3428 48.9421 72.6774 49.2656 72.0439C49.7396 71.1143 50.4596 70.4945 51.4258 70.1846C51.7949 70.0615 52.1504 70 52.4922 70C52.9206 70 53.3239 70.1003 53.7021 70.3008C54.363 70.6517 54.7389 71.3011 54.8301 72.249ZM53.9414 72.3105C53.9004 71.873 53.7568 71.5267 53.5107 71.2715C53.2692 71.0163 52.9388 70.8887 52.5195 70.8887C52.2689 70.8887 51.9954 70.9365 51.6992 71.0322C50.9655 71.2646 50.43 71.7135 50.0928 72.3789C49.8102 72.9395 49.6689 73.4977 49.6689 74.0537C49.6689 74.4456 49.7214 74.7965 49.8262 75.1064C49.931 75.4163 50.0654 75.6488 50.2295 75.8037C50.4346 75.9951 50.667 76.0908 50.9268 76.0908C51.0133 76.0908 51.0954 76.0817 51.1729 76.0635C51.2549 76.0407 51.346 76.0247 51.4463 76.0156C51.5238 76.0065 51.6764 75.9131 51.9043 75.7354C52.1322 75.5531 52.3737 75.2956 52.6289 74.9629C52.8887 74.6302 53.1325 74.2565 53.3604 73.8418C53.5882 73.4271 53.7728 73.0101 53.9141 72.5908C53.9186 72.5452 53.9232 72.4997 53.9277 72.4541C53.9323 72.404 53.9368 72.3561 53.9414 72.3105ZM56.9697 66.958C57.0837 66.958 57.1839 67.0059 57.2705 67.1016C57.3617 67.1927 57.4027 67.2998 57.3936 67.4229C57.3161 69.3141 57.2568 70.916 57.2158 72.2285C57.1748 73.541 57.1543 74.5664 57.1543 75.3047C57.1543 75.9473 57.1702 76.3711 57.2021 76.5762C57.2067 76.6035 57.209 76.6286 57.209 76.6514C57.209 76.7881 57.1611 76.8929 57.0654 76.9658C56.9697 77.0387 56.8649 77.0752 56.751 77.0752C56.6553 77.0752 56.5641 77.0456 56.4775 76.9863C56.3955 76.9271 56.3454 76.8337 56.3271 76.7061C56.2907 76.4736 56.2725 75.9974 56.2725 75.2773C56.2725 73.7461 56.3522 71.1143 56.5117 67.3818C56.5163 67.2633 56.5641 67.1631 56.6553 67.0811C56.751 66.999 56.8558 66.958 56.9697 66.958ZM59.6494 74.3477C59.6494 74.9082 59.8112 75.3571 60.1348 75.6943C60.4629 76.0316 60.93 76.2002 61.5361 76.2002C62.0602 76.2002 62.6777 76.0726 63.3887 75.8174C63.4388 75.7992 63.4912 75.79 63.5459 75.79C63.6644 75.79 63.7669 75.8333 63.8535 75.9199C63.9447 76.002 63.9902 76.1022 63.9902 76.2207C63.9902 76.3255 63.9606 76.4167 63.9014 76.4941C63.8421 76.5716 63.7715 76.624 63.6895 76.6514C62.8783 76.9476 62.1582 77.0957 61.5293 77.0957C60.832 77.0957 60.2601 76.9316 59.8135 76.6035C59.3669 76.2708 59.0661 75.847 58.9111 75.332C58.8109 74.9993 58.7607 74.6644 58.7607 74.3271C58.7607 73.8669 58.8519 73.3975 59.0342 72.9189C59.2028 72.4723 59.4443 72.0508 59.7588 71.6543C60.0778 71.2578 60.4629 70.9365 60.9141 70.6904C61.3698 70.4398 61.8825 70.3145 62.4521 70.3145C62.8258 70.3145 63.2132 70.376 63.6143 70.499C63.7191 70.5309 63.7943 70.5856 63.8398 70.6631C63.89 70.736 63.915 70.8158 63.915 70.9023C63.915 71.0163 63.8763 71.1234 63.7988 71.2236C63.7259 71.3193 63.6257 71.3672 63.498 71.3672C63.4525 71.3672 63.4069 71.3604 63.3613 71.3467C63.0697 71.2601 62.7848 71.2168 62.5068 71.2168C62.0693 71.2168 61.6751 71.3125 61.3242 71.5039C60.9779 71.6908 60.6816 71.9368 60.4355 72.2422C60.1895 72.543 60.0003 72.8688 59.8682 73.2197C59.7223 73.6071 59.6494 73.9831 59.6494 74.3477ZM67.7363 69.9111C68.8711 69.9795 69.8008 70.54 70.5254 71.5928C70.7214 71.8753 70.8717 72.1898 70.9766 72.5361C71.0814 72.8779 71.1338 73.2585 71.1338 73.6777C71.1338 74.3021 70.9857 74.8626 70.6895 75.3594C70.3932 75.8516 70.0355 76.2321 69.6162 76.501C69.3473 76.6742 69.0443 76.8132 68.707 76.918C68.3698 77.0182 68.0212 77.0684 67.6611 77.0684C66.9912 77.0684 66.4193 76.9225 65.9453 76.6309C65.4759 76.3346 65.0977 75.9678 64.8105 75.5303C64.4232 74.9287 64.2295 74.2839 64.2295 73.5957C64.2295 73.4134 64.2432 73.2288 64.2705 73.042C64.3981 72.1351 64.7786 71.3923 65.4121 70.8135C66.0501 70.2301 66.7702 69.9225 67.5723 69.8906C67.627 69.8815 67.6816 69.8883 67.7363 69.9111ZM70.2383 73.6299C70.2383 73.1012 70.1152 72.6296 69.8691 72.2148C69.623 71.7956 69.304 71.4629 68.9121 71.2168C68.5247 70.9661 68.1169 70.8271 67.6885 70.7998C67.652 70.7998 67.6156 70.793 67.5791 70.7793C67.1143 70.8066 66.695 70.9502 66.3213 71.21C65.9476 71.4652 65.6514 71.8024 65.4326 72.2217C65.2184 72.6364 65.1113 73.099 65.1113 73.6094C65.1113 74.0013 65.1865 74.3568 65.3369 74.6758C65.4919 74.9948 65.6901 75.2682 65.9316 75.4961C66.1777 75.7194 66.4329 75.8857 66.6973 75.9951C67.0163 76.1227 67.3444 76.1865 67.6816 76.1865C68.151 76.1865 68.5771 76.0771 68.96 75.8584C69.3473 75.6351 69.6413 75.3662 69.8418 75.0518C69.974 74.8421 70.0719 74.6165 70.1357 74.375C70.2041 74.1289 70.2383 73.8805 70.2383 73.6299ZM72.959 69.959C73.0911 69.959 73.2005 70.0114 73.2871 70.1162C73.6152 70.5127 73.8545 71.1234 74.0049 71.9482C74.6247 70.8271 75.4245 70.196 76.4043 70.0547C76.5592 70.0319 76.7119 70.0205 76.8623 70.0205C77.4092 70.0205 77.8923 70.1458 78.3115 70.3965C78.7308 70.6471 79.0749 70.9775 79.3438 71.3877C79.6126 71.7979 79.7949 72.2399 79.8906 72.7139C79.9544 73.0192 79.9863 73.3314 79.9863 73.6504C79.9863 74.6576 79.665 75.7217 79.0225 76.8428C78.9404 76.984 78.8151 77.0547 78.6465 77.0547C78.5052 77.0547 78.3776 76.9886 78.2637 76.8564C78.1543 76.7197 78.1497 76.5671 78.25 76.3984C78.8151 75.4141 79.0977 74.4958 79.0977 73.6436C79.0977 73.3883 79.0726 73.14 79.0225 72.8984C78.9495 72.5475 78.8151 72.2217 78.6191 71.9209C78.4277 71.6201 78.1816 71.3786 77.8809 71.1963C77.5846 71.0094 77.2428 70.916 76.8555 70.916C76.7507 70.916 76.6436 70.9229 76.5342 70.9365C76.083 71.0003 75.6979 71.1986 75.3789 71.5312C75.0599 71.8639 74.8024 72.2673 74.6064 72.7412C74.415 73.2106 74.276 73.6891 74.1895 74.1768C74.1895 74.236 74.1895 74.2952 74.1895 74.3545C74.1895 75.0107 74.1553 75.6715 74.0869 76.3369L74.0596 76.6035C74.0459 76.7311 73.9958 76.8268 73.9092 76.8906C73.8226 76.9499 73.7292 76.9795 73.6289 76.9795C73.5195 76.9795 73.417 76.9453 73.3213 76.877C73.2301 76.8086 73.1823 76.7061 73.1777 76.5693C73.1686 76.3643 73.1641 76.1637 73.1641 75.9678C73.1641 75.2979 73.2096 74.6803 73.3008 74.1152C73.2826 73.0671 73.2005 72.2809 73.0547 71.7568C72.9134 71.2373 72.7835 70.9046 72.665 70.7588C72.5557 70.6221 72.501 70.5013 72.501 70.3965C72.501 70.2643 72.5488 70.1595 72.6445 70.082C72.7402 70 72.8451 69.959 72.959 69.959ZM86.4121 70.6631L86.4941 71.6885C86.5443 72.5133 86.5693 73.2881 86.5693 74.0127C86.5693 77.0615 86.1273 79.1898 85.2432 80.3975C85.0107 80.7165 84.7441 80.9512 84.4434 81.1016C84.1471 81.252 83.8304 81.3271 83.4932 81.3271C83.0557 81.3271 82.5931 81.2087 82.1055 80.9717C81.9505 80.8942 81.873 80.7598 81.873 80.5684C81.873 80.4362 81.9346 80.3177 82.0576 80.2129C82.1807 80.1081 82.3288 80.0944 82.502 80.1719C82.862 80.3542 83.1855 80.4453 83.4727 80.4453C83.6732 80.4453 83.8555 80.402 84.0195 80.3154C84.334 80.1514 84.5938 79.8574 84.7988 79.4336C85.0085 79.0098 85.1748 78.5085 85.2979 77.9297C85.4255 77.3509 85.5166 76.7471 85.5713 76.1182C85.6305 75.4847 85.6647 74.8786 85.6738 74.2998C85.569 74.5915 85.4346 74.8991 85.2705 75.2227C85.1064 75.5417 84.9128 75.8424 84.6895 76.125C84.4707 76.4076 84.2269 76.6377 83.958 76.8154C83.6937 76.9932 83.4043 77.082 83.0898 77.082C82.7161 77.082 82.3994 76.9658 82.1396 76.7334C81.8844 76.4964 81.668 76.1615 81.4902 75.7285C81.1758 74.972 81.0186 73.974 81.0186 72.7344C81.0186 72.0645 81.0641 71.3262 81.1553 70.5195C81.1689 70.3919 81.2191 70.2985 81.3057 70.2393C81.3923 70.1755 81.488 70.1436 81.5928 70.1436C81.7021 70.1436 81.8024 70.18 81.8936 70.2529C81.9893 70.3213 82.0371 70.4261 82.0371 70.5674C82.0371 70.5856 82.0371 70.6038 82.0371 70.6221C81.9505 71.4059 81.9072 72.1146 81.9072 72.748C81.9072 73.8646 82.0417 74.7487 82.3105 75.4004C82.5293 75.9336 82.7913 76.2002 83.0967 76.2002C83.3747 76.2002 83.6868 75.9769 84.0332 75.5303C84.8307 74.4958 85.3275 72.8779 85.5234 70.6768C85.5326 70.5492 85.5804 70.4535 85.667 70.3896C85.7581 70.3213 85.8561 70.2871 85.9609 70.2871C86.0658 70.2871 86.1615 70.319 86.248 70.3828C86.3392 70.4466 86.3939 70.54 86.4121 70.6631Z" fill="black"/>
<rect x="0.5" y="0.5" width="89" height="89" stroke="white"/>
<defs>
<clipPath id="clip0">
<rect x="23.4" y="11" width="36" height="40" fill="white"/>
</clipPath>
</defs>
</svg>
