<svg width="90" height="90" viewBox="0 0 90 90" fill="none" xmlns="http://www.w3.org/2000/svg">
<path d="M31.6562 60.1016L31.6641 64.8594C31.6641 65.0208 31.6094 65.1432 31.5 65.2266C31.3958 65.3099 31.2812 65.3516 31.1562 65.3516C31.026 65.3516 30.9089 65.3099 30.8047 65.2266C30.7005 65.1432 30.6484 65.0208 30.6484 64.8594L30.625 54.2891C30.625 54.1536 30.6771 54.0365 30.7812 53.9375C30.8854 53.8333 31.0026 53.7812 31.1328 53.7812C31.138 53.7812 31.1432 53.7812 31.1484 53.7812C33.0547 53.8438 34.5208 54.263 35.5469 55.0391C36.349 55.6432 36.75 56.3516 36.75 57.1641C36.75 57.9089 36.4036 58.5521 35.7109 59.0938C34.8411 59.7708 33.638 60.1094 32.1016 60.1094C31.9557 60.1094 31.8073 60.1068 31.6562 60.1016ZM31.6484 59.0859C31.7995 59.0911 31.9453 59.0938 32.0859 59.0938C33.3984 59.0938 34.3984 58.8281 35.0859 58.2969C35.5182 57.9635 35.7344 57.5859 35.7344 57.1641C35.7344 56.6901 35.4688 56.2526 34.9375 55.8516C34.1667 55.2786 33.0677 54.9375 31.6406 54.8281L31.6484 59.0859ZM39.4219 62.3516C39.5729 62.8932 39.8646 63.3177 40.2969 63.625C40.7344 63.9323 41.2839 64.0859 41.9453 64.0859C42.8307 64.0859 43.8594 63.7969 45.0312 63.2188C45.1042 63.1823 45.1797 63.1641 45.2578 63.1641C45.3932 63.1641 45.5104 63.2109 45.6094 63.3047C45.7135 63.3984 45.7656 63.5156 45.7656 63.6562C45.7656 63.8802 45.6719 64.0391 45.4844 64.1328C44.8906 64.4245 44.2865 64.6589 43.6719 64.8359C43.0573 65.013 42.4635 65.1016 41.8906 65.1016C41.3021 65.1016 40.7526 64.9922 40.2422 64.7734C39.737 64.5547 39.3047 64.1901 38.9453 63.6797C38.7422 63.3932 38.5859 63.0885 38.4766 62.7656C38.3672 62.4427 38.3125 62.0807 38.3125 61.6797C38.3125 61.5026 38.3229 61.3177 38.3438 61.125C38.4635 60.1302 38.8776 59.2786 39.5859 58.5703C40.5026 57.6536 41.7083 57.1953 43.2031 57.1953C43.776 57.1953 44.2786 57.3073 44.7109 57.5312C45.1432 57.75 45.4505 58.0625 45.6328 58.4688C45.7318 58.6927 45.7812 58.9297 45.7812 59.1797C45.7812 59.6068 45.6693 59.9844 45.4453 60.3125C45.2266 60.6354 44.9141 60.9349 44.5078 61.2109C43.3672 61.9818 41.7135 62.3672 39.5469 62.3672C39.5156 62.3672 39.474 62.362 39.4219 62.3516ZM39.3359 61.3984C39.4089 61.3672 39.4792 61.3516 39.5469 61.3516C41.5104 61.3516 42.9766 61.0234 43.9453 60.3672C44.2161 60.1849 44.4219 60 44.5625 59.8125C44.7031 59.6198 44.7734 59.3984 44.7734 59.1484C44.7734 59.0026 44.7396 58.8854 44.6719 58.7969C44.6094 58.7083 44.526 58.625 44.4219 58.5469C44.1302 58.3229 43.7266 58.2109 43.2109 58.2109C42.5182 58.2109 41.888 58.3411 41.3203 58.6016C40.7526 58.8568 40.2917 59.224 39.9375 59.7031C39.5885 60.1771 39.388 60.7422 39.3359 61.3984ZM51.4297 64.75C51.4297 64.8906 51.3776 65.0104 51.2734 65.1094C51.1693 65.2083 51.0495 65.2578 50.9141 65.2578C50.8307 65.2578 50.7526 65.237 50.6797 65.1953C50.0078 64.8359 49.6016 63.8542 49.4609 62.25C49.4297 61.901 49.4062 61.526 49.3906 61.125C49.375 60.7188 49.3672 60.2839 49.3672 59.8203C49.3672 59.3724 49.375 58.8828 49.3906 58.3516C49.1354 58.3516 48.8802 58.3516 48.625 58.3516C48.3698 58.3464 48.112 58.3438 47.8516 58.3438C47.7161 58.3438 47.5964 58.2917 47.4922 58.1875C47.3932 58.0781 47.3438 57.9557 47.3438 57.8203C47.3438 57.6953 47.3932 57.5833 47.4922 57.4844C47.5964 57.3802 47.7161 57.3281 47.8516 57.3281L49.4219 57.3359C49.4271 57.1797 49.4349 56.9401 49.4453 56.6172C49.4557 56.2943 49.4661 55.9505 49.4766 55.5859C49.487 55.2214 49.4922 54.901 49.4922 54.625C49.4922 54.5417 49.4896 54.4661 49.4844 54.3984C49.4844 54.3307 49.4844 54.2682 49.4844 54.2109C49.4844 54.0547 49.5365 53.9349 49.6406 53.8516C49.75 53.7682 49.8672 53.7266 49.9922 53.7266C50.1172 53.7266 50.2318 53.7656 50.3359 53.8438C50.4401 53.9219 50.4948 54.0417 50.5 54.2031C50.5052 54.3073 50.5078 54.4401 50.5078 54.6016C50.5078 54.888 50.5026 55.2135 50.4922 55.5781C50.4818 55.9427 50.4714 56.2891 50.4609 56.6172C50.4505 56.9401 50.4427 57.1823 50.4375 57.3438L51.6172 57.3516C51.7786 57.3516 51.901 57.4062 51.9844 57.5156C52.0677 57.625 52.1094 57.7422 52.1094 57.8672C52.1094 57.9922 52.0677 58.1068 51.9844 58.2109C51.9062 58.3151 51.7865 58.3672 51.625 58.3672C51.6198 58.3672 51.6172 58.3672 51.6172 58.3672C51.4141 58.3672 51.2109 58.3672 51.0078 58.3672C50.8099 58.362 50.6094 58.3594 50.4062 58.3594C50.3958 58.8281 50.3906 59.2708 50.3906 59.6875C50.3906 61.5729 50.5182 62.8984 50.7734 63.6641C50.8932 64.013 51.0182 64.2214 51.1484 64.2891C51.2266 64.3307 51.2917 64.3932 51.3438 64.4766C51.401 64.5599 51.4297 64.651 51.4297 64.75ZM53.6875 59.2812C53.6875 58.7969 53.8151 58.3906 54.0703 58.0625C54.3255 57.7292 54.6562 57.4792 55.0625 57.3125C55.4688 57.1458 55.901 57.0625 56.3594 57.0625C57.849 57.0625 59.0911 57.5365 60.0859 58.4844C60.1901 58.5833 60.2422 58.7005 60.2422 58.8359C60.2422 58.9661 60.1953 59.0833 60.1016 59.1875C60.013 59.2917 59.8958 59.3464 59.75 59.3516C59.6042 59.3516 59.4844 59.3073 59.3906 59.2188C59.0938 58.9323 58.6927 58.6719 58.1875 58.4375C57.6875 58.1979 57.1771 58.0781 56.6562 58.0781C55.5833 58.0781 54.9505 58.3698 54.7578 58.9531C54.7161 59.0781 54.6953 59.1979 54.6953 59.3125C54.6953 59.625 54.8411 59.9141 55.1328 60.1797C55.4557 60.4766 55.9974 60.625 56.7578 60.625C56.8828 60.625 57.0156 60.6198 57.1562 60.6094C57.2969 60.599 57.4375 60.5938 57.5781 60.5938C58.25 60.5938 58.7943 60.6953 59.2109 60.8984C59.6276 61.0964 59.9453 61.4141 60.1641 61.8516C60.3047 62.1432 60.375 62.4271 60.375 62.7031C60.375 62.8281 60.362 62.9531 60.3359 63.0781C60.1641 63.8385 59.6927 64.3932 58.9219 64.7422C58.4375 64.9661 57.9245 65.0781 57.3828 65.0781C57.2734 65.0781 57.1615 65.0729 57.0469 65.0625C55.8125 64.9479 54.7865 64.5312 53.9688 63.8125C53.8542 63.7135 53.7969 63.5859 53.7969 63.4297C53.7969 63.2891 53.8464 63.1719 53.9453 63.0781C54.0495 62.9792 54.1693 62.9297 54.3047 62.9297C54.4349 62.9297 54.5469 62.9688 54.6406 63.0469C55.0052 63.3646 55.4115 63.612 55.8594 63.7891C56.3073 63.9661 56.8203 64.0547 57.3984 64.0547C58.1224 64.0547 58.6745 63.8464 59.0547 63.4297C59.263 63.2005 59.3672 62.9661 59.3672 62.7266C59.3672 62.5859 59.3307 62.4427 59.2578 62.2969C59.0339 61.8385 58.5599 61.6094 57.8359 61.6094C57.6797 61.6094 57.5182 61.6146 57.3516 61.625C57.1849 61.6302 57.0339 61.6328 56.8984 61.6328C56.2786 61.6328 55.8203 61.5938 55.5234 61.5156C55.112 61.4062 54.7474 61.2057 54.4297 60.9141C54.112 60.6224 53.8932 60.2734 53.7734 59.8672C53.7161 59.6745 53.6875 59.4792 53.6875 59.2812ZM18.0391 76.3438C17.9036 76.3438 17.7839 76.2943 17.6797 76.1953C17.5807 76.0911 17.5312 75.9714 17.5312 75.8359C17.5312 75.7005 17.5807 75.5833 17.6797 75.4844C17.7839 75.3802 17.9036 75.3281 18.0391 75.3281H19.4219C19.4271 74.6458 19.4349 74.125 19.4453 73.7656C19.4557 73.3333 19.5729 72.9557 19.7969 72.6328C20.0208 72.3099 20.3151 72.0599 20.6797 71.8828C21.0495 71.7057 21.4531 71.6172 21.8906 71.6172C22.1198 71.6172 22.349 71.6432 22.5781 71.6953C23.3646 71.8672 24.0182 72.3542 24.5391 73.1562C24.5964 73.2448 24.625 73.3359 24.625 73.4297C24.625 73.5703 24.5677 73.6901 24.4531 73.7891C24.3438 73.888 24.2188 73.9375 24.0781 73.9375C23.9115 73.9375 23.7786 73.862 23.6797 73.7109C23.3099 73.1432 22.8698 72.8021 22.3594 72.6875C22.2083 72.6562 22.0573 72.6406 21.9062 72.6406C21.526 72.6406 21.1927 72.7422 20.9062 72.9453C20.6198 73.1484 20.4714 73.4193 20.4609 73.7578C20.4557 74.1224 20.4479 74.6458 20.4375 75.3281H21.7578C21.8932 75.3281 22.0104 75.3802 22.1094 75.4844C22.2135 75.5833 22.2656 75.7005 22.2656 75.8359C22.2656 75.9714 22.2135 76.0911 22.1094 76.1953C22.0104 76.2943 21.8932 76.3438 21.7578 76.3438H20.4297C20.4245 76.6302 20.4219 77.1589 20.4219 77.9297C20.4219 78.6953 20.4167 79.7005 20.4062 80.9453L20.3984 82.5C20.3984 82.6615 20.3464 82.7839 20.2422 82.8672C20.138 82.9453 20.0208 82.9844 19.8906 82.9844C19.7656 82.9844 19.6484 82.9453 19.5391 82.8672C19.4349 82.7839 19.3828 82.6589 19.3828 82.4922L19.3906 80.9453C19.401 79.7057 19.4062 78.7031 19.4062 77.9375C19.4062 77.1719 19.4089 76.6406 19.4141 76.3438H18.0391ZM26.7031 83.0625C26.5573 83.0625 26.4323 82.9922 26.3281 82.8516C26.224 82.7057 26.1719 82.5755 26.1719 82.4609C26.1719 82.362 26.1875 82.2604 26.2188 82.1562C26.2552 82.0521 26.276 81.9531 26.2812 81.8594C26.2969 81.5729 26.3255 81.1875 26.3672 80.7031C26.4089 80.2135 26.4297 79.7396 26.4297 79.2812C26.4297 78.9479 26.4245 78.5859 26.4141 78.1953C26.3828 77.0443 26.3359 76.3438 26.2734 76.0938C26.2474 75.9844 26.2344 75.8854 26.2344 75.7969C26.2344 75.6458 26.276 75.5234 26.3594 75.4297C26.4479 75.3307 26.5703 75.2812 26.7266 75.2812C26.8464 75.2812 26.9505 75.3203 27.0391 75.3984C27.1276 75.4766 27.1849 75.5651 27.2109 75.6641C27.3255 76.0964 27.3932 76.7604 27.4141 77.6562C28.1745 76.1615 29.2031 75.3333 30.5 75.1719C30.5208 75.1719 30.5417 75.1719 30.5625 75.1719C30.7188 75.1719 30.8385 75.2292 30.9219 75.3438C31.0104 75.4531 31.0547 75.5729 31.0547 75.7031C31.0547 75.8177 31.0208 75.9219 30.9531 76.0156C30.8854 76.1094 30.776 76.1641 30.625 76.1797C29.3021 76.3464 28.3281 77.5312 27.7031 79.7344C27.5521 80.2708 27.4375 80.8229 27.3594 81.3906C27.3438 81.625 27.3281 81.8099 27.3125 81.9453C27.3021 82.0807 27.2969 82.2083 27.2969 82.3281C27.2969 82.3958 27.3021 82.4505 27.3125 82.4922C27.3229 82.5339 27.3281 82.5703 27.3281 82.6016C27.3281 82.7161 27.25 82.8229 27.0938 82.9219C26.9427 83.0156 26.8125 83.0625 26.7031 83.0625ZM32.6406 73.5078C32.6406 73.3151 32.6979 73.1302 32.8125 72.9531C32.9323 72.7708 33.0781 72.625 33.25 72.5156C33.4219 72.401 33.5911 72.3438 33.7578 72.3438C34.0026 72.3438 34.2083 72.4479 34.375 72.6562C34.5469 72.8594 34.6328 73.0625 34.6328 73.2656C34.6328 73.4583 34.5729 73.6354 34.4531 73.7969C34.3333 73.9583 34.1719 74.0755 33.9688 74.1484C33.7396 74.263 33.5365 74.3203 33.3594 74.3203C33.1667 74.3203 32.9974 74.2422 32.8516 74.0859C32.7109 73.9245 32.6406 73.7318 32.6406 73.5078ZM33.9062 81.7266C33.8906 82.1432 33.8333 82.4766 33.7344 82.7266C33.6354 82.9714 33.4635 83.0938 33.2188 83.0938C33.0833 83.0938 32.9635 83.0443 32.8594 82.9453C32.7552 82.8464 32.7031 82.724 32.7031 82.5781C32.7031 82.5104 32.7161 82.4427 32.7422 82.375C32.7891 82.2656 32.8255 82.0495 32.8516 81.7266C32.8828 81.3984 32.9062 81.013 32.9219 80.5703C32.9375 80.1276 32.9479 79.6719 32.9531 79.2031C32.9635 78.7292 32.9688 78.2891 32.9688 77.8828C32.9688 77.4766 32.9688 77.1536 32.9688 76.9141C32.9688 76.4714 32.9661 76.0469 32.9609 75.6406C32.9609 75.474 33.013 75.349 33.1172 75.2656C33.2266 75.1823 33.3464 75.1406 33.4766 75.1406C33.6016 75.1406 33.7135 75.1823 33.8125 75.2656C33.9167 75.3438 33.9688 75.4635 33.9688 75.625C33.974 75.901 33.9766 76.1719 33.9766 76.4375C33.9818 76.7031 33.9844 76.9635 33.9844 77.2188C33.9844 78.0677 33.9792 78.8359 33.9688 79.5234C33.9635 80.2109 33.9427 80.9453 33.9062 81.7266ZM37.3125 80.3516C37.4635 80.8932 37.7552 81.3177 38.1875 81.625C38.625 81.9323 39.1745 82.0859 39.8359 82.0859C40.7214 82.0859 41.75 81.7969 42.9219 81.2188C42.9948 81.1823 43.0703 81.1641 43.1484 81.1641C43.2839 81.1641 43.401 81.2109 43.5 81.3047C43.6042 81.3984 43.6562 81.5156 43.6562 81.6562C43.6562 81.8802 43.5625 82.0391 43.375 82.1328C42.7812 82.4245 42.1771 82.6589 41.5625 82.8359C40.9479 83.013 40.3542 83.1016 39.7812 83.1016C39.1927 83.1016 38.6432 82.9922 38.1328 82.7734C37.6276 82.5547 37.1953 82.1901 36.8359 81.6797C36.6328 81.3932 36.4766 81.0885 36.3672 80.7656C36.2578 80.4427 36.2031 80.0807 36.2031 79.6797C36.2031 79.5026 36.2135 79.3177 36.2344 79.125C36.3542 78.1302 36.7682 77.2786 37.4766 76.5703C38.3932 75.6536 39.599 75.1953 41.0938 75.1953C41.6667 75.1953 42.1693 75.3073 42.6016 75.5312C43.0339 75.75 43.3411 76.0625 43.5234 76.4688C43.6224 76.6927 43.6719 76.9297 43.6719 77.1797C43.6719 77.6068 43.5599 77.9844 43.3359 78.3125C43.1172 78.6354 42.8047 78.9349 42.3984 79.2109C41.2578 79.9818 39.6042 80.3672 37.4375 80.3672C37.4062 80.3672 37.3646 80.362 37.3125 80.3516ZM37.2266 79.3984C37.2995 79.3672 37.3698 79.3516 37.4375 79.3516C39.401 79.3516 40.8672 79.0234 41.8359 78.3672C42.1068 78.1849 42.3125 78 42.4531 77.8125C42.5938 77.6198 42.6641 77.3984 42.6641 77.1484C42.6641 77.0026 42.6302 76.8854 42.5625 76.7969C42.5 76.7083 42.4167 76.625 42.3125 76.5469C42.0208 76.3229 41.6172 76.2109 41.1016 76.2109C40.4089 76.2109 39.7786 76.3411 39.2109 76.6016C38.6432 76.8568 38.1823 77.224 37.8281 77.7031C37.4792 78.1771 37.2786 78.7422 37.2266 79.3984ZM45.7578 74.9531C45.9089 74.9531 46.0339 75.013 46.1328 75.1328C46.5078 75.5859 46.7812 76.2839 46.9531 77.2266C47.6615 75.9453 48.5755 75.224 49.6953 75.0625C49.8724 75.0365 50.0469 75.0234 50.2188 75.0234C50.8438 75.0234 51.3958 75.1667 51.875 75.4531C52.3542 75.7396 52.7474 76.1172 53.0547 76.5859C53.362 77.0547 53.5703 77.5599 53.6797 78.1016C53.7526 78.4505 53.7891 78.8073 53.7891 79.1719C53.7891 80.3229 53.4219 81.5391 52.6875 82.8203C52.5938 82.9818 52.4505 83.0625 52.2578 83.0625C52.0964 83.0625 51.9505 82.987 51.8203 82.8359C51.6953 82.6797 51.6901 82.5052 51.8047 82.3125C52.4505 81.1875 52.7734 80.138 52.7734 79.1641C52.7734 78.8724 52.7448 78.5885 52.6875 78.3125C52.6042 77.9115 52.4505 77.5391 52.2266 77.1953C52.0078 76.8516 51.7266 76.5755 51.3828 76.3672C51.0443 76.1536 50.6536 76.0469 50.2109 76.0469C50.0911 76.0469 49.9688 76.0547 49.8438 76.0703C49.3281 76.1432 48.888 76.3698 48.5234 76.75C48.1589 77.1302 47.8646 77.5911 47.6406 78.1328C47.4219 78.6693 47.263 79.2161 47.1641 79.7734C47.1641 79.8411 47.1641 79.9089 47.1641 79.9766C47.1641 80.7266 47.125 81.4818 47.0469 82.2422L47.0156 82.5469C47 82.6927 46.9427 82.8021 46.8438 82.875C46.7448 82.9427 46.638 82.9766 46.5234 82.9766C46.3984 82.9766 46.2812 82.9375 46.1719 82.8594C46.0677 82.7812 46.013 82.6641 46.0078 82.5078C45.9974 82.2734 45.9922 82.0443 45.9922 81.8203C45.9922 81.0547 46.0443 80.349 46.1484 79.7031C46.1276 78.5052 46.0339 77.6068 45.8672 77.0078C45.7057 76.4141 45.5573 76.0339 45.4219 75.8672C45.2969 75.7109 45.2344 75.5729 45.2344 75.4531C45.2344 75.3021 45.2891 75.1823 45.3984 75.0938C45.5078 75 45.6276 74.9531 45.7578 74.9531ZM63.0078 79.6719C63.0078 80.0573 63.026 80.4766 63.0625 80.9297C63.099 81.3776 63.1172 81.7734 63.1172 82.1172C63.1172 82.3203 63.0755 82.4974 62.9922 82.6484C62.9141 82.7943 62.7708 82.8672 62.5625 82.8672C62.4219 82.8672 62.3073 82.8125 62.2188 82.7031C62.1302 82.5938 62.0807 82.4688 62.0703 82.3281C62.0599 82.1927 62.0495 82.0339 62.0391 81.8516C62.0286 81.6693 62.0182 81.4661 62.0078 81.2422C61.2839 82.388 60.3594 82.9609 59.2344 82.9609C58.4792 82.9609 57.8099 82.7943 57.2266 82.4609C56.6484 82.1276 56.1927 81.6667 55.8594 81.0781C55.5312 80.4844 55.3672 79.8021 55.3672 79.0312C55.3672 78.4479 55.4661 77.8802 55.6641 77.3281C55.862 76.7708 56.1302 76.2891 56.4688 75.8828C57.0208 75.2161 57.7318 74.8828 58.6016 74.8828C58.6953 74.8828 58.7917 74.8854 58.8906 74.8906C59.8906 74.9688 60.9089 75.5495 61.9453 76.6328C61.9453 76.3099 61.9453 75.9323 61.9453 75.5C61.9453 75.0625 61.9479 74.5729 61.9531 74.0312L61.9688 72.125C61.9688 71.9635 62.0208 71.8411 62.125 71.7578C62.2344 71.6745 62.3516 71.6328 62.4766 71.6328C62.6068 71.6328 62.724 71.6745 62.8281 71.7578C62.9323 71.8411 62.9844 71.9661 62.9844 72.1328L62.9688 74.0469C62.9635 74.75 62.9583 75.3906 62.9531 75.9688C62.9531 76.5417 62.9531 77.0521 62.9531 77.5C62.9531 78.0677 62.9557 78.5208 62.9609 78.8594C62.9922 78.9531 63.0078 79.1172 63.0078 79.3516C63.0078 79.4036 63.0078 79.4557 63.0078 79.5078C63.0078 79.5599 63.0078 79.6146 63.0078 79.6719ZM59.2422 81.9453C60.3099 81.9453 61.1536 81.0938 61.7734 79.3906C61.8151 79.2812 61.849 79.1875 61.875 79.1094C61.901 79.0312 61.9245 78.9661 61.9453 78.9141V78.2031C60.8151 76.75 59.7604 75.9818 58.7812 75.8984C58.7344 75.8932 58.6875 75.8906 58.6406 75.8906C58.1823 75.8906 57.7839 76.0443 57.4453 76.3516C57.1068 76.6536 56.8464 77.0417 56.6641 77.5156C56.4818 77.9844 56.3906 78.474 56.3906 78.9844C56.3906 79.8594 56.6458 80.5729 57.1562 81.125C57.6667 81.6719 58.362 81.9453 59.2422 81.9453ZM65.4688 71.5234C65.599 71.5234 65.7135 71.5781 65.8125 71.6875C65.9167 71.7917 65.9635 71.9141 65.9531 72.0547C65.8646 74.2161 65.7969 76.0469 65.75 77.5469C65.7031 79.0469 65.6797 80.2188 65.6797 81.0625C65.6797 81.7969 65.6979 82.2812 65.7344 82.5156C65.7396 82.5469 65.7422 82.5755 65.7422 82.6016C65.7422 82.7578 65.6875 82.8776 65.5781 82.9609C65.4688 83.0443 65.349 83.0859 65.2188 83.0859C65.1094 83.0859 65.0052 83.0521 64.9062 82.9844C64.8125 82.9167 64.7552 82.8099 64.7344 82.6641C64.6927 82.3984 64.6719 81.8542 64.6719 81.0312C64.6719 79.2812 64.763 76.2734 64.9453 72.0078C64.9505 71.8724 65.0052 71.7578 65.1094 71.6641C65.2188 71.5703 65.3385 71.5234 65.4688 71.5234ZM73.2891 75.7578L73.3828 76.9297C73.4401 77.8724 73.4688 78.7578 73.4688 79.5859C73.4688 83.0703 72.9635 85.5026 71.9531 86.8828C71.6875 87.2474 71.3828 87.5156 71.0391 87.6875C70.7005 87.8594 70.3385 87.9453 69.9531 87.9453C69.4531 87.9453 68.9245 87.8099 68.3672 87.5391C68.1901 87.4505 68.1016 87.2969 68.1016 87.0781C68.1016 86.9271 68.1719 86.7917 68.3125 86.6719C68.4531 86.5521 68.6224 86.5365 68.8203 86.625C69.2318 86.8333 69.6016 86.9375 69.9297 86.9375C70.1589 86.9375 70.3672 86.888 70.5547 86.7891C70.9141 86.6016 71.2109 86.2656 71.4453 85.7812C71.6849 85.2969 71.875 84.724 72.0156 84.0625C72.1615 83.401 72.2656 82.7109 72.3281 81.9922C72.3958 81.2682 72.4349 80.5755 72.4453 79.9141C72.3255 80.2474 72.1719 80.599 71.9844 80.9688C71.7969 81.3333 71.5755 81.6771 71.3203 82C71.0703 82.3229 70.7917 82.5859 70.4844 82.7891C70.1823 82.9922 69.8516 83.0938 69.4922 83.0938C69.0651 83.0938 68.7031 82.9609 68.4062 82.6953C68.1146 82.4245 67.8672 82.0417 67.6641 81.5469C67.3047 80.6823 67.125 79.5417 67.125 78.125C67.125 77.3594 67.1771 76.5156 67.2812 75.5938C67.2969 75.4479 67.3542 75.3411 67.4531 75.2734C67.5521 75.2005 67.6615 75.1641 67.7812 75.1641C67.9062 75.1641 68.0208 75.2057 68.125 75.2891C68.2344 75.3672 68.2891 75.487 68.2891 75.6484C68.2891 75.6693 68.2891 75.6901 68.2891 75.7109C68.1901 76.6068 68.1406 77.4167 68.1406 78.1406C68.1406 79.4167 68.2943 80.4271 68.6016 81.1719C68.8516 81.7812 69.151 82.0859 69.5 82.0859C69.8177 82.0859 70.1745 81.8307 70.5703 81.3203C71.4818 80.138 72.0495 78.2891 72.2734 75.7734C72.2839 75.6276 72.3385 75.5182 72.4375 75.4453C72.5417 75.3672 72.6536 75.3281 72.7734 75.3281C72.8932 75.3281 73.0026 75.3646 73.1016 75.4375C73.2057 75.5104 73.2682 75.6172 73.2891 75.7578Z" fill="black"/>
<path d="M33.5 26.4997C35.8012 26.4997 37.6667 24.8674 37.6667 22.8538C37.6667 20.8403 35.8012 19.208 33.5 19.208C31.1988 19.208 29.3333 20.8403 29.3333 22.8538C29.3333 24.8674 31.1988 26.4997 33.5 26.4997Z" fill="black"/>
<path d="M41 20.6667C43.3012 20.6667 45.1667 19.0344 45.1667 17.0208C45.1667 15.0073 43.3012 13.375 41 13.375C38.6988 13.375 36.8333 15.0073 36.8333 17.0208C36.8333 19.0344 38.6988 20.6667 41 20.6667Z" fill="black"/>
<path d="M51 20.6667C53.3012 20.6667 55.1667 19.0344 55.1667 17.0208C55.1667 15.0073 53.3012 13.375 51 13.375C48.6988 13.375 46.8333 15.0073 46.8333 17.0208C46.8333 19.0344 48.6988 20.6667 51 20.6667Z" fill="black"/>
<path d="M58.5 26.4997C60.8012 26.4997 62.6667 24.8674 62.6667 22.8538C62.6667 20.8403 60.8012 19.208 58.5 19.208C56.1988 19.208 54.3333 20.8403 54.3333 22.8538C54.3333 24.8674 56.1988 26.4997 58.5 26.4997Z" fill="black"/>
<path d="M54.9001 30.6708C53.4501 29.1833 52.2334 27.9146 50.7668 26.4271C50.0001 25.6396 49.0168 24.8521 47.8501 24.5021C47.6668 24.4438 47.4834 24.4 47.3001 24.3708C46.8834 24.3125 46.4334 24.3125 46.0001 24.3125C45.5668 24.3125 45.1168 24.3125 44.6834 24.3854C44.5001 24.4146 44.3168 24.4583 44.1334 24.5167C42.9668 24.8667 42.0001 25.6542 41.2168 26.4417C39.7668 27.9292 38.5501 29.1979 37.0834 30.6854C34.9001 32.5958 32.2168 34.7104 32.7168 37.6708C33.2001 39.1583 34.4168 40.6312 36.6001 41.0542C37.8168 41.2729 41.7001 40.4125 45.8334 40.4125H46.1334C50.2668 40.4125 54.1501 41.2583 55.3668 41.0542C57.5501 40.6312 58.7668 39.1437 59.2501 37.6708C59.7668 34.6958 57.0834 32.5812 54.9001 30.6708Z" fill="black"/>
<rect x="0.5" y="0.5" width="89" height="89" stroke="#FFFDFD"/>
</svg>
