<svg width="90" height="90" viewBox="0 0 90 90" fill="none" xmlns="http://www.w3.org/2000/svg">
<g clip-path="url(#clip0)">
<path d="M43.9 20.7598C43.4866 20.7598 43.1355 20.9337 42.7811 21.0879C42.6498 21.0846 42.5186 21.1174 42.4005 21.1765L32.5436 26.0918C32.4025 26.1607 32.2844 26.269 32.2056 26.4035C31.4444 26.9351 30.88 27.7423 30.88 28.7398C30.88 30.3541 32.2056 31.6798 33.82 31.6798C34.1711 31.6798 34.4664 31.5518 34.7683 31.4402C34.8995 31.4435 35.0308 31.4173 35.1489 31.3615L42.8106 27.7554L44.6678 30.7709L31.3689 38.869C28.1369 37.6976 26.4109 36.1029 26.4109 36.1029C26.2436 35.9454 26.0237 35.8634 25.7941 35.8732C25.4528 35.8863 25.1542 36.1062 25.0394 36.4277C24.9245 36.7493 25.0164 37.1102 25.2691 37.3366C25.2691 37.3366 27.3428 39.2135 31.0834 40.5227C31.1622 40.5654 31.2475 40.5949 31.3361 40.608C33.2884 41.2643 35.6641 41.7598 38.44 41.7598C42.5744 41.7598 45.4848 40.8804 47.9917 40.0371C50.4953 39.1905 52.5625 38.3998 55.24 38.3998C60.5917 38.3998 65.7039 41.6285 65.7039 41.6285C66.0976 41.8779 66.6161 41.7663 66.8687 41.3759C67.1181 40.9821 67.0065 40.4637 66.6161 40.211C66.6161 40.211 61.2545 36.7198 55.24 36.7198C54.9184 36.7198 54.6067 36.7362 54.2983 36.7559C54.3573 36.4704 54.4 36.1784 54.4 35.8798C54.4 35.2202 54.1473 34.646 53.8783 34.098C53.8816 33.934 53.8356 33.7699 53.747 33.6321L46.3544 22.0821C46.3511 22.0788 46.3478 22.0723 46.3445 22.069C45.8195 21.2815 44.9139 20.7598 43.9 20.7598ZM43.9 22.4398C44.343 22.4398 44.7203 22.6629 44.9467 23.0009L52.0375 34.0718L52.3361 33.6223C52.1523 33.9012 52.1458 34.2588 52.3262 34.541C52.5756 34.9348 52.72 35.3876 52.72 35.8798C52.72 36.2801 52.6248 36.6509 52.4608 36.9823C50.6922 37.3071 49.1041 37.8846 47.4536 38.4424C44.9861 39.2791 42.3414 40.0798 38.44 40.0798C36.6091 40.0798 34.9783 39.8534 33.5444 39.5121L46.2625 31.7684C46.4528 31.6502 46.5906 31.4632 46.6431 31.2466C46.6923 31.0268 46.6562 30.7971 46.5381 30.6068L43.8475 26.2329C43.6211 25.872 43.1584 25.7341 42.7712 25.9146L35.1751 29.4912L35.5394 30.2196C35.4376 30.0162 35.2605 29.8652 35.0439 29.793C34.8306 29.7241 34.5976 29.7438 34.3975 29.8488C34.2105 29.9473 34.0201 29.9998 33.82 29.9998C33.1112 29.9998 32.56 29.4485 32.56 28.7398C32.56 28.2312 32.8553 27.8112 33.2819 27.6077C33.318 27.5913 33.3475 27.5716 33.3803 27.552L42.8861 22.8105L42.6006 22.7449C42.8172 22.7941 43.0436 22.7548 43.2306 22.6366C43.4341 22.5087 43.6539 22.4398 43.9 22.4398ZM58.18 25.7998C55.637 25.7998 53.56 27.8768 53.56 30.4198C53.56 32.9627 55.637 35.0398 58.18 35.0398C60.7197 35.0398 62.8 32.9627 62.8 30.4198C62.8 27.8768 60.7197 25.7998 58.18 25.7998ZM58.18 27.4798C59.8141 27.4798 61.12 28.7857 61.12 30.4198C61.12 32.0538 59.8141 33.3598 58.18 33.3598C56.5426 33.3598 55.24 32.0571 55.24 30.4198C55.24 28.7857 56.5459 27.4798 58.18 27.4798Z" fill="black"/>
</g>
<path d="M30.1875 70.1016L30.1953 74.8594C30.1953 75.0208 30.1406 75.1432 30.0312 75.2266C29.9271 75.3099 29.8125 75.3516 29.6875 75.3516C29.5573 75.3516 29.4401 75.3099 29.3359 75.2266C29.2318 75.1432 29.1797 75.0208 29.1797 74.8594L29.1562 64.2891C29.1562 64.1536 29.2083 64.0365 29.3125 63.9375C29.4167 63.8333 29.5339 63.7812 29.6641 63.7812C29.6693 63.7812 29.6745 63.7812 29.6797 63.7812C31.5859 63.8438 33.0521 64.263 34.0781 65.0391C34.8802 65.6432 35.2812 66.3516 35.2812 67.1641C35.2812 67.9089 34.9349 68.5521 34.2422 69.0938C33.3724 69.7708 32.1693 70.1094 30.6328 70.1094C30.487 70.1094 30.3385 70.1068 30.1875 70.1016ZM30.1797 69.0859C30.3307 69.0911 30.4766 69.0938 30.6172 69.0938C31.9297 69.0938 32.9297 68.8281 33.6172 68.2969C34.0495 67.9635 34.2656 67.5859 34.2656 67.1641C34.2656 66.6901 34 66.2526 33.4688 65.8516C32.6979 65.2786 31.599 64.9375 30.1719 64.8281L30.1797 69.0859ZM40.8516 66.8984C42.1484 66.9766 43.2109 67.6172 44.0391 68.8203C44.263 69.1432 44.4349 69.5026 44.5547 69.8984C44.6745 70.2891 44.7344 70.724 44.7344 71.2031C44.7344 71.9167 44.5651 72.5573 44.2266 73.125C43.888 73.6875 43.4792 74.1224 43 74.4297C42.6927 74.6276 42.3464 74.7865 41.9609 74.9062C41.5755 75.0208 41.1771 75.0781 40.7656 75.0781C40 75.0781 39.3464 74.9115 38.8047 74.5781C38.2682 74.2396 37.8359 73.8203 37.5078 73.3203C37.0651 72.6328 36.8438 71.8958 36.8438 71.1094C36.8438 70.901 36.8594 70.6901 36.8906 70.4766C37.0365 69.4401 37.4714 68.5911 38.1953 67.9297C38.9245 67.263 39.7474 66.9115 40.6641 66.875C40.7266 66.8646 40.7891 66.8724 40.8516 66.8984ZM43.7109 71.1484C43.7109 70.5443 43.5703 70.0052 43.2891 69.5312C43.0078 69.0521 42.6432 68.6719 42.1953 68.3906C41.7526 68.1042 41.2865 67.9453 40.7969 67.9141C40.7552 67.9141 40.7135 67.9062 40.6719 67.8906C40.1406 67.9219 39.6615 68.0859 39.2344 68.3828C38.8073 68.6745 38.4688 69.0599 38.2188 69.5391C37.974 70.013 37.8516 70.5417 37.8516 71.125C37.8516 71.5729 37.9375 71.9792 38.1094 72.3438C38.2865 72.7083 38.513 73.0208 38.7891 73.2812C39.0703 73.5365 39.362 73.7266 39.6641 73.8516C40.0286 73.9974 40.4036 74.0703 40.7891 74.0703C41.3255 74.0703 41.8125 73.9453 42.25 73.6953C42.6927 73.4401 43.0286 73.1328 43.2578 72.7734C43.4089 72.5339 43.5208 72.276 43.5938 72C43.6719 71.7188 43.7109 71.4349 43.7109 71.1484ZM50.3047 66.8984C51.6016 66.9766 52.6641 67.6172 53.4922 68.8203C53.7161 69.1432 53.888 69.5026 54.0078 69.8984C54.1276 70.2891 54.1875 70.724 54.1875 71.2031C54.1875 71.9167 54.0182 72.5573 53.6797 73.125C53.3411 73.6875 52.9323 74.1224 52.4531 74.4297C52.1458 74.6276 51.7995 74.7865 51.4141 74.9062C51.0286 75.0208 50.6302 75.0781 50.2188 75.0781C49.4531 75.0781 48.7995 74.9115 48.2578 74.5781C47.7214 74.2396 47.2891 73.8203 46.9609 73.3203C46.5182 72.6328 46.2969 71.8958 46.2969 71.1094C46.2969 70.901 46.3125 70.6901 46.3438 70.4766C46.4896 69.4401 46.9245 68.5911 47.6484 67.9297C48.3776 67.263 49.2005 66.9115 50.1172 66.875C50.1797 66.8646 50.2422 66.8724 50.3047 66.8984ZM53.1641 71.1484C53.1641 70.5443 53.0234 70.0052 52.7422 69.5312C52.4609 69.0521 52.0964 68.6719 51.6484 68.3906C51.2057 68.1042 50.7396 67.9453 50.25 67.9141C50.2083 67.9141 50.1667 67.9062 50.125 67.8906C49.5938 67.9219 49.1146 68.0859 48.6875 68.3828C48.2604 68.6745 47.9219 69.0599 47.6719 69.5391C47.4271 70.013 47.3047 70.5417 47.3047 71.125C47.3047 71.5729 47.3906 71.9792 47.5625 72.3438C47.7396 72.7083 47.9661 73.0208 48.2422 73.2812C48.5234 73.5365 48.8151 73.7266 49.1172 73.8516C49.4818 73.9974 49.8568 74.0703 50.2422 74.0703C50.7786 74.0703 51.2656 73.9453 51.7031 73.6953C52.1458 73.4401 52.4818 73.1328 52.7109 72.7734C52.862 72.5339 52.974 72.276 53.0469 72C53.125 71.7188 53.1641 71.4349 53.1641 71.1484ZM56.5469 63.5234C56.6771 63.5234 56.7917 63.5781 56.8906 63.6875C56.9948 63.7917 57.0417 63.9141 57.0312 64.0547C56.9427 66.2161 56.875 68.0469 56.8281 69.5469C56.7812 71.0469 56.7578 72.2188 56.7578 73.0625C56.7578 73.7969 56.776 74.2812 56.8125 74.5156C56.8177 74.5469 56.8203 74.5755 56.8203 74.6016C56.8203 74.7578 56.7656 74.8776 56.6562 74.9609C56.5469 75.0443 56.4271 75.0859 56.2969 75.0859C56.1875 75.0859 56.0833 75.0521 55.9844 74.9844C55.8906 74.9167 55.8333 74.8099 55.8125 74.6641C55.7708 74.3984 55.75 73.8542 55.75 73.0312C55.75 71.2812 55.8411 68.2734 56.0234 64.0078C56.0286 63.8724 56.0833 63.7578 56.1875 63.6641C56.2969 63.5703 56.4167 63.5234 56.5469 63.5234Z" fill="black"/>
<rect x="0.5" y="0.5" width="89" height="89" stroke="white"/>
<defs>
<clipPath id="clip0">
<rect x="25" y="9" width="42" height="42" fill="white"/>
</clipPath>
</defs>
</svg>
