<svg width="90" height="90" viewBox="0 0 90 90" fill="none" xmlns="http://www.w3.org/2000/svg">
<path d="M26.3125 60.1016L26.3203 64.8594C26.3203 65.0208 26.2656 65.1432 26.1562 65.2266C26.0521 65.3099 25.9375 65.3516 25.8125 65.3516C25.6823 65.3516 25.5651 65.3099 25.4609 65.2266C25.3568 65.1432 25.3047 65.0208 25.3047 64.8594L25.2812 54.2891C25.2812 54.1536 25.3333 54.0365 25.4375 53.9375C25.5417 53.8333 25.6589 53.7812 25.7891 53.7812C25.7943 53.7812 25.7995 53.7812 25.8047 53.7812C27.7109 53.8438 29.1771 54.263 30.2031 55.0391C31.0052 55.6432 31.4062 56.3516 31.4062 57.1641C31.4062 57.9089 31.0599 58.5521 30.3672 59.0938C29.4974 59.7708 28.2943 60.1094 26.7578 60.1094C26.612 60.1094 26.4635 60.1068 26.3125 60.1016ZM26.3047 59.0859C26.4557 59.0911 26.6016 59.0938 26.7422 59.0938C28.0547 59.0938 29.0547 58.8281 29.7422 58.2969C30.1745 57.9635 30.3906 57.5859 30.3906 57.1641C30.3906 56.6901 30.125 56.2526 29.5938 55.8516C28.8229 55.2786 27.724 54.9375 26.2969 54.8281L26.3047 59.0859ZM33.5 65.0625C33.3542 65.0625 33.2292 64.9922 33.125 64.8516C33.0208 64.7057 32.9688 64.5755 32.9688 64.4609C32.9688 64.362 32.9844 64.2604 33.0156 64.1562C33.0521 64.0521 33.0729 63.9531 33.0781 63.8594C33.0938 63.5729 33.1224 63.1875 33.1641 62.7031C33.2057 62.2135 33.2266 61.7396 33.2266 61.2812C33.2266 60.9479 33.2214 60.5859 33.2109 60.1953C33.1797 59.0443 33.1328 58.3438 33.0703 58.0938C33.0443 57.9844 33.0312 57.8854 33.0312 57.7969C33.0312 57.6458 33.0729 57.5234 33.1562 57.4297C33.2448 57.3307 33.3672 57.2812 33.5234 57.2812C33.6432 57.2812 33.7474 57.3203 33.8359 57.3984C33.9245 57.4766 33.9818 57.5651 34.0078 57.6641C34.1224 58.0964 34.1901 58.7604 34.2109 59.6562C34.9714 58.1615 36 57.3333 37.2969 57.1719C37.3177 57.1719 37.3385 57.1719 37.3594 57.1719C37.5156 57.1719 37.6354 57.2292 37.7188 57.3438C37.8073 57.4531 37.8516 57.5729 37.8516 57.7031C37.8516 57.8177 37.8177 57.9219 37.75 58.0156C37.6823 58.1094 37.5729 58.1641 37.4219 58.1797C36.099 58.3464 35.125 59.5312 34.5 61.7344C34.349 62.2708 34.2344 62.8229 34.1562 63.3906C34.1406 63.625 34.125 63.8099 34.1094 63.9453C34.099 64.0807 34.0938 64.2083 34.0938 64.3281C34.0938 64.3958 34.099 64.4505 34.1094 64.4922C34.1198 64.5339 34.125 64.5703 34.125 64.6016C34.125 64.7161 34.0469 64.8229 33.8906 64.9219C33.7396 65.0156 33.6094 65.0625 33.5 65.0625ZM39.4375 55.5078C39.4375 55.3151 39.4948 55.1302 39.6094 54.9531C39.7292 54.7708 39.875 54.625 40.0469 54.5156C40.2188 54.401 40.388 54.3438 40.5547 54.3438C40.7995 54.3438 41.0052 54.4479 41.1719 54.6562C41.3438 54.8594 41.4297 55.0625 41.4297 55.2656C41.4297 55.4583 41.3698 55.6354 41.25 55.7969C41.1302 55.9583 40.9688 56.0755 40.7656 56.1484C40.5365 56.263 40.3333 56.3203 40.1562 56.3203C39.9635 56.3203 39.7943 56.2422 39.6484 56.0859C39.5078 55.9245 39.4375 55.7318 39.4375 55.5078ZM40.7031 63.7266C40.6875 64.1432 40.6302 64.4766 40.5312 64.7266C40.4323 64.9714 40.2604 65.0938 40.0156 65.0938C39.8802 65.0938 39.7604 65.0443 39.6562 64.9453C39.5521 64.8464 39.5 64.724 39.5 64.5781C39.5 64.5104 39.513 64.4427 39.5391 64.375C39.5859 64.2656 39.6224 64.0495 39.6484 63.7266C39.6797 63.3984 39.7031 63.013 39.7188 62.5703C39.7344 62.1276 39.7448 61.6719 39.75 61.2031C39.7604 60.7292 39.7656 60.2891 39.7656 59.8828C39.7656 59.4766 39.7656 59.1536 39.7656 58.9141C39.7656 58.4714 39.763 58.0469 39.7578 57.6406C39.7578 57.474 39.8099 57.349 39.9141 57.2656C40.0234 57.1823 40.1432 57.1406 40.2734 57.1406C40.3984 57.1406 40.5104 57.1823 40.6094 57.2656C40.7135 57.3438 40.7656 57.4635 40.7656 57.625C40.7708 57.901 40.7734 58.1719 40.7734 58.4375C40.7786 58.7031 40.7812 58.9635 40.7812 59.2188C40.7812 60.0677 40.776 60.8359 40.7656 61.5234C40.7604 62.2109 40.7396 62.9453 40.7031 63.7266ZM43.0078 57.5469C43.0026 57.5156 43 57.487 43 57.4609C43 57.3099 43.0547 57.1927 43.1641 57.1094C43.2734 57.026 43.3932 56.9844 43.5234 56.9844C43.638 56.9844 43.7422 57.0182 43.8359 57.0859C43.9349 57.1536 43.9922 57.2604 44.0078 57.4062C44.5547 61.3281 45.112 63.5182 45.6797 63.9766C46.2943 63.5443 47.0859 61.3672 48.0547 57.4453C48.0859 57.3203 48.1458 57.2292 48.2344 57.1719C48.3281 57.1094 48.4271 57.0781 48.5312 57.0781C48.6615 57.0781 48.7812 57.1198 48.8906 57.2031C49.0052 57.2865 49.0625 57.4062 49.0625 57.5625C49.0625 57.6042 49.0573 57.6458 49.0469 57.6875C48.2917 60.7448 47.6224 62.7969 47.0391 63.8438C46.6068 64.6302 46.1562 65.0234 45.6875 65.0234C45.5365 65.0234 45.3828 64.9818 45.2266 64.8984C44.7266 64.638 44.3099 63.8958 43.9766 62.6719C43.638 61.4583 43.3151 59.75 43.0078 57.5469ZM57.5391 59.5703C57.5547 59.6276 57.5625 59.6875 57.5625 59.75C57.5625 59.8698 57.5391 60.0078 57.4922 60.1641C57.4141 60.987 57.375 61.7214 57.375 62.3672C57.375 63.2682 57.4505 64 57.6016 64.5625C57.6172 64.6146 57.625 64.6641 57.625 64.7109C57.625 64.8568 57.5677 64.9714 57.4531 65.0547C57.3438 65.1432 57.224 65.1875 57.0938 65.1875C56.9948 65.1875 56.901 65.1589 56.8125 65.1016C56.724 65.0443 56.6615 64.9505 56.625 64.8203C56.4635 64.2214 56.3776 63.4609 56.3672 62.5391C55.8724 63.3359 55.3411 63.9635 54.7734 64.4219C54.4297 64.6979 54.0755 64.8542 53.7109 64.8906C53.4922 64.9531 53.2786 64.9844 53.0703 64.9844C52.7734 64.9844 52.5026 64.9297 52.2578 64.8203C52.013 64.7109 51.8021 64.5729 51.625 64.4062C51.3073 64.1094 51.0599 63.7266 50.8828 63.2578C50.7109 62.7839 50.625 62.237 50.625 61.6172C50.625 60.8203 50.8099 60.0599 51.1797 59.3359C51.7214 58.2734 52.5443 57.5651 53.6484 57.2109C54.0703 57.0703 54.4766 57 54.8672 57C55.3568 57 55.8177 57.1146 56.25 57.3438C57.0052 57.7448 57.4349 58.487 57.5391 59.5703ZM56.5234 59.6406C56.4766 59.1406 56.3125 58.7448 56.0312 58.4531C55.7552 58.1615 55.3776 58.0156 54.8984 58.0156C54.612 58.0156 54.2995 58.0703 53.9609 58.1797C53.1224 58.4453 52.5104 58.9583 52.125 59.7188C51.8021 60.3594 51.6406 60.9974 51.6406 61.6328C51.6406 62.0807 51.7005 62.4818 51.8203 62.8359C51.9401 63.1901 52.0938 63.4557 52.2812 63.6328C52.5156 63.8516 52.7812 63.9609 53.0781 63.9609C53.1771 63.9609 53.2708 63.9505 53.3594 63.9297C53.4531 63.9036 53.5573 63.8854 53.6719 63.875C53.7604 63.8646 53.9349 63.7578 54.1953 63.5547C54.4557 63.3464 54.7318 63.0521 55.0234 62.6719C55.3203 62.2917 55.599 61.8646 55.8594 61.3906C56.1198 60.9167 56.3307 60.4401 56.4922 59.9609C56.4974 59.9089 56.5026 59.8568 56.5078 59.8047C56.513 59.7474 56.5182 59.6927 56.5234 59.6406ZM61.9922 64.75C61.9922 64.8906 61.9401 65.0104 61.8359 65.1094C61.7318 65.2083 61.612 65.2578 61.4766 65.2578C61.3932 65.2578 61.3151 65.237 61.2422 65.1953C60.5703 64.8359 60.1641 63.8542 60.0234 62.25C59.9922 61.901 59.9688 61.526 59.9531 61.125C59.9375 60.7188 59.9297 60.2839 59.9297 59.8203C59.9297 59.3724 59.9375 58.8828 59.9531 58.3516C59.6979 58.3516 59.4427 58.3516 59.1875 58.3516C58.9323 58.3464 58.6745 58.3438 58.4141 58.3438C58.2786 58.3438 58.1589 58.2917 58.0547 58.1875C57.9557 58.0781 57.9062 57.9557 57.9062 57.8203C57.9062 57.6953 57.9557 57.5833 58.0547 57.4844C58.1589 57.3802 58.2786 57.3281 58.4141 57.3281L59.9844 57.3359C59.9896 57.1797 59.9974 56.9401 60.0078 56.6172C60.0182 56.2943 60.0286 55.9505 60.0391 55.5859C60.0495 55.2214 60.0547 54.901 60.0547 54.625C60.0547 54.5417 60.0521 54.4661 60.0469 54.3984C60.0469 54.3307 60.0469 54.2682 60.0469 54.2109C60.0469 54.0547 60.099 53.9349 60.2031 53.8516C60.3125 53.7682 60.4297 53.7266 60.5547 53.7266C60.6797 53.7266 60.7943 53.7656 60.8984 53.8438C61.0026 53.9219 61.0573 54.0417 61.0625 54.2031C61.0677 54.3073 61.0703 54.4401 61.0703 54.6016C61.0703 54.888 61.0651 55.2135 61.0547 55.5781C61.0443 55.9427 61.0339 56.2891 61.0234 56.6172C61.013 56.9401 61.0052 57.1823 61 57.3438L62.1797 57.3516C62.3411 57.3516 62.4635 57.4062 62.5469 57.5156C62.6302 57.625 62.6719 57.7422 62.6719 57.8672C62.6719 57.9922 62.6302 58.1068 62.5469 58.2109C62.4688 58.3151 62.349 58.3672 62.1875 58.3672C62.1823 58.3672 62.1797 58.3672 62.1797 58.3672C61.9766 58.3672 61.7734 58.3672 61.5703 58.3672C61.3724 58.362 61.1719 58.3594 60.9688 58.3594C60.9583 58.8281 60.9531 59.2708 60.9531 59.6875C60.9531 61.5729 61.0807 62.8984 61.3359 63.6641C61.4557 64.013 61.5807 64.2214 61.7109 64.2891C61.7891 64.3307 61.8542 64.3932 61.9062 64.4766C61.9635 64.5599 61.9922 64.651 61.9922 64.75ZM65.3594 62.3516C65.5104 62.8932 65.8021 63.3177 66.2344 63.625C66.6719 63.9323 67.2214 64.0859 67.8828 64.0859C68.7682 64.0859 69.7969 63.7969 70.9688 63.2188C71.0417 63.1823 71.1172 63.1641 71.1953 63.1641C71.3307 63.1641 71.4479 63.2109 71.5469 63.3047C71.651 63.3984 71.7031 63.5156 71.7031 63.6562C71.7031 63.8802 71.6094 64.0391 71.4219 64.1328C70.8281 64.4245 70.224 64.6589 69.6094 64.8359C68.9948 65.013 68.401 65.1016 67.8281 65.1016C67.2396 65.1016 66.6901 64.9922 66.1797 64.7734C65.6745 64.5547 65.2422 64.1901 64.8828 63.6797C64.6797 63.3932 64.5234 63.0885 64.4141 62.7656C64.3047 62.4427 64.25 62.0807 64.25 61.6797C64.25 61.5026 64.2604 61.3177 64.2812 61.125C64.401 60.1302 64.8151 59.2786 65.5234 58.5703C66.4401 57.6536 67.6458 57.1953 69.1406 57.1953C69.7135 57.1953 70.2161 57.3073 70.6484 57.5312C71.0807 57.75 71.388 58.0625 71.5703 58.4688C71.6693 58.6927 71.7188 58.9297 71.7188 59.1797C71.7188 59.6068 71.6068 59.9844 71.3828 60.3125C71.1641 60.6354 70.8516 60.9349 70.4453 61.2109C69.3047 61.9818 67.651 62.3672 65.4844 62.3672C65.4531 62.3672 65.4115 62.362 65.3594 62.3516ZM65.2734 61.3984C65.3464 61.3672 65.4167 61.3516 65.4844 61.3516C67.4479 61.3516 68.9141 61.0234 69.8828 60.3672C70.1536 60.1849 70.3594 60 70.5 59.8125C70.6406 59.6198 70.7109 59.3984 70.7109 59.1484C70.7109 59.0026 70.6771 58.8854 70.6094 58.7969C70.5469 58.7083 70.4635 58.625 70.3594 58.5469C70.0677 58.3229 69.6641 58.2109 69.1484 58.2109C68.4557 58.2109 67.8255 58.3411 67.2578 58.6016C66.6901 58.8568 66.2292 59.224 65.875 59.7031C65.526 60.1771 65.3255 60.7422 65.2734 61.3984ZM20.3047 77.3125C20.7891 77.4635 21.2604 77.6745 21.7188 77.9453C22.1771 78.2161 22.5547 78.5521 22.8516 78.9531C23.1536 79.3542 23.3047 79.8151 23.3047 80.3359C23.3047 81.0495 22.9922 81.6667 22.3672 82.1875C21.513 82.9062 20.2865 83.2656 18.6875 83.2656C17.9375 83.2656 17.1406 83.1797 16.2969 83.0078C16.1927 82.9818 16.099 82.9245 16.0156 82.8359C15.9375 82.7422 15.8958 82.638 15.8906 82.5234L15.8438 72.2734C15.8438 72.138 15.8906 72.0234 15.9844 71.9297C16.0781 71.8307 16.1849 71.776 16.3047 71.7656C16.6484 71.7344 16.9922 71.7188 17.3359 71.7188C18.1068 71.7188 18.8411 71.8047 19.5391 71.9766C20.237 72.1432 20.8438 72.3984 21.3594 72.7422C21.875 73.0807 22.2448 73.5078 22.4688 74.0234C22.5885 74.3047 22.6484 74.5807 22.6484 74.8516C22.6484 75.263 22.5286 75.6302 22.2891 75.9531C22.0495 76.276 21.7474 76.5521 21.3828 76.7812C21.0234 77.0052 20.6641 77.1823 20.3047 77.3125ZM16.8828 76.9453C16.9609 76.9036 17.1068 76.875 17.3203 76.8594C17.4349 76.849 17.5599 76.8385 17.6953 76.8281C17.8359 76.8125 17.987 76.7943 18.1484 76.7734C19.7161 76.5651 20.7734 76.151 21.3203 75.5312C21.5234 75.2969 21.625 75.0573 21.625 74.8125C21.625 74.6823 21.5964 74.5521 21.5391 74.4219C21.3724 74.0417 21.0677 73.7266 20.625 73.4766C20.1875 73.2214 19.6797 73.0312 19.1016 72.9062C18.5286 72.7812 17.9583 72.7188 17.3906 72.7188C17.2188 72.7188 17.0417 72.724 16.8594 72.7344L16.8828 76.9453ZM17.0703 77.8906C16.9922 77.8646 16.9297 77.8411 16.8828 77.8203L16.9062 82.0938C17.5156 82.1979 18.1094 82.25 18.6875 82.25C20.0365 82.25 21.0469 81.9688 21.7188 81.4062C22.1042 81.0833 22.2969 80.7292 22.2969 80.3438C22.2969 80.0833 22.2135 79.8333 22.0469 79.5938C21.8854 79.349 21.6615 79.1276 21.375 78.9297C20.4167 78.2682 18.9818 77.9219 17.0703 77.8906ZM31.7891 77.5703C31.8047 77.6276 31.8125 77.6875 31.8125 77.75C31.8125 77.8698 31.7891 78.0078 31.7422 78.1641C31.6641 78.987 31.625 79.7214 31.625 80.3672C31.625 81.2682 31.7005 82 31.8516 82.5625C31.8672 82.6146 31.875 82.6641 31.875 82.7109C31.875 82.8568 31.8177 82.9714 31.7031 83.0547C31.5938 83.1432 31.474 83.1875 31.3438 83.1875C31.2448 83.1875 31.151 83.1589 31.0625 83.1016C30.974 83.0443 30.9115 82.9505 30.875 82.8203C30.7135 82.2214 30.6276 81.4609 30.6172 80.5391C30.1224 81.3359 29.5911 81.9635 29.0234 82.4219C28.6797 82.6979 28.3255 82.8542 27.9609 82.8906C27.7422 82.9531 27.5286 82.9844 27.3203 82.9844C27.0234 82.9844 26.7526 82.9297 26.5078 82.8203C26.263 82.7109 26.0521 82.5729 25.875 82.4062C25.5573 82.1094 25.3099 81.7266 25.1328 81.2578C24.9609 80.7839 24.875 80.237 24.875 79.6172C24.875 78.8203 25.0599 78.0599 25.4297 77.3359C25.9714 76.2734 26.7943 75.5651 27.8984 75.2109C28.3203 75.0703 28.7266 75 29.1172 75C29.6068 75 30.0677 75.1146 30.5 75.3438C31.2552 75.7448 31.6849 76.487 31.7891 77.5703ZM30.7734 77.6406C30.7266 77.1406 30.5625 76.7448 30.2812 76.4531C30.0052 76.1615 29.6276 76.0156 29.1484 76.0156C28.862 76.0156 28.5495 76.0703 28.2109 76.1797C27.3724 76.4453 26.7604 76.9583 26.375 77.7188C26.0521 78.3594 25.8906 78.9974 25.8906 79.6328C25.8906 80.0807 25.9505 80.4818 26.0703 80.8359C26.1901 81.1901 26.3438 81.4557 26.5312 81.6328C26.7656 81.8516 27.0312 81.9609 27.3281 81.9609C27.4271 81.9609 27.5208 81.9505 27.6094 81.9297C27.7031 81.9036 27.8073 81.8854 27.9219 81.875C28.0104 81.8646 28.1849 81.7578 28.4453 81.5547C28.7057 81.3464 28.9818 81.0521 29.2734 80.6719C29.5703 80.2917 29.849 79.8646 30.1094 79.3906C30.3698 78.9167 30.5807 78.4401 30.7422 77.9609C30.7474 77.9089 30.7526 77.8568 30.7578 77.8047C30.763 77.7474 30.7682 77.6927 30.7734 77.6406ZM36.2422 82.75C36.2422 82.8906 36.1901 83.0104 36.0859 83.1094C35.9818 83.2083 35.862 83.2578 35.7266 83.2578C35.6432 83.2578 35.5651 83.237 35.4922 83.1953C34.8203 82.8359 34.4141 81.8542 34.2734 80.25C34.2422 79.901 34.2188 79.526 34.2031 79.125C34.1875 78.7188 34.1797 78.2839 34.1797 77.8203C34.1797 77.3724 34.1875 76.8828 34.2031 76.3516C33.9479 76.3516 33.6927 76.3516 33.4375 76.3516C33.1823 76.3464 32.9245 76.3438 32.6641 76.3438C32.5286 76.3438 32.4089 76.2917 32.3047 76.1875C32.2057 76.0781 32.1562 75.9557 32.1562 75.8203C32.1562 75.6953 32.2057 75.5833 32.3047 75.4844C32.4089 75.3802 32.5286 75.3281 32.6641 75.3281L34.2344 75.3359C34.2396 75.1797 34.2474 74.9401 34.2578 74.6172C34.2682 74.2943 34.2786 73.9505 34.2891 73.5859C34.2995 73.2214 34.3047 72.901 34.3047 72.625C34.3047 72.5417 34.3021 72.4661 34.2969 72.3984C34.2969 72.3307 34.2969 72.2682 34.2969 72.2109C34.2969 72.0547 34.349 71.9349 34.4531 71.8516C34.5625 71.7682 34.6797 71.7266 34.8047 71.7266C34.9297 71.7266 35.0443 71.7656 35.1484 71.8438C35.2526 71.9219 35.3073 72.0417 35.3125 72.2031C35.3177 72.3073 35.3203 72.4401 35.3203 72.6016C35.3203 72.888 35.3151 73.2135 35.3047 73.5781C35.2943 73.9427 35.2839 74.2891 35.2734 74.6172C35.263 74.9401 35.2552 75.1823 35.25 75.3438L36.4297 75.3516C36.5911 75.3516 36.7135 75.4062 36.7969 75.5156C36.8802 75.625 36.9219 75.7422 36.9219 75.8672C36.9219 75.9922 36.8802 76.1068 36.7969 76.2109C36.7188 76.3151 36.599 76.3672 36.4375 76.3672C36.4323 76.3672 36.4297 76.3672 36.4297 76.3672C36.2266 76.3672 36.0234 76.3672 35.8203 76.3672C35.6224 76.362 35.4219 76.3594 35.2188 76.3594C35.2083 76.8281 35.2031 77.2708 35.2031 77.6875C35.2031 79.5729 35.3307 80.8984 35.5859 81.6641C35.7057 82.013 35.8307 82.2214 35.9609 82.2891C36.0391 82.3307 36.1042 82.3932 36.1562 82.4766C36.2135 82.5599 36.2422 82.651 36.2422 82.75ZM37.8828 81.0156L37.8594 72.0938C37.8594 71.9323 37.9115 71.8099 38.0156 71.7266C38.125 71.6432 38.2422 71.6016 38.3672 71.6016C38.4974 71.6016 38.6146 71.6432 38.7188 71.7266C38.8229 71.8099 38.875 71.9323 38.875 72.0938L38.8828 76.75C39.4766 75.7188 40.2266 75.1484 41.1328 75.0391C41.2526 75.0234 41.3698 75.0156 41.4844 75.0156C42.2135 75.0156 42.8906 75.2891 43.5156 75.8359C43.9792 76.237 44.349 76.7526 44.625 77.3828C44.9062 78.0078 45.0469 78.7422 45.0469 79.5859C45.0469 80.6276 44.7734 81.7031 44.2266 82.8125C44.138 82.9896 43.987 83.0781 43.7734 83.0781C43.6276 83.0781 43.4896 83.0078 43.3594 82.8672C43.2344 82.7214 43.2214 82.5521 43.3203 82.3594C43.7943 81.4062 44.0312 80.4818 44.0312 79.5859C44.0312 78.9193 43.9219 78.3333 43.7031 77.8281C43.4896 77.3177 43.2057 76.9089 42.8516 76.6016C42.4193 76.2214 41.9609 76.0312 41.4766 76.0312C41.0391 76.0312 40.6667 76.1797 40.3594 76.4766C40.0521 76.7682 39.7995 77.1328 39.6016 77.5703C39.4089 78.0026 39.263 78.4323 39.1641 78.8594C39.0182 79.4792 38.9297 80.2057 38.8984 81.0391V82.5703C38.8984 82.7318 38.8438 82.8542 38.7344 82.9375C38.6302 83.0208 38.513 83.0625 38.3828 83.0625C38.2578 83.0625 38.1432 83.0234 38.0391 82.9453C37.9401 82.8672 37.888 82.75 37.8828 82.5938C37.8724 82.3594 37.8672 82.1146 37.8672 81.8594C37.8672 81.7135 37.8672 81.5703 37.8672 81.4297C37.8724 81.2891 37.8776 81.151 37.8828 81.0156ZM47.1406 83.0625C46.9948 83.0625 46.8698 82.9922 46.7656 82.8516C46.6615 82.7057 46.6094 82.5755 46.6094 82.4609C46.6094 82.362 46.625 82.2604 46.6562 82.1562C46.6927 82.0521 46.7135 81.9531 46.7188 81.8594C46.7344 81.5729 46.763 81.1875 46.8047 80.7031C46.8464 80.2135 46.8672 79.7396 46.8672 79.2812C46.8672 78.9479 46.862 78.5859 46.8516 78.1953C46.8203 77.0443 46.7734 76.3438 46.7109 76.0938C46.6849 75.9844 46.6719 75.8854 46.6719 75.7969C46.6719 75.6458 46.7135 75.5234 46.7969 75.4297C46.8854 75.3307 47.0078 75.2812 47.1641 75.2812C47.2839 75.2812 47.388 75.3203 47.4766 75.3984C47.5651 75.4766 47.6224 75.5651 47.6484 75.6641C47.763 76.0964 47.8307 76.7604 47.8516 77.6562C48.612 76.1615 49.6406 75.3333 50.9375 75.1719C50.9583 75.1719 50.9792 75.1719 51 75.1719C51.1562 75.1719 51.276 75.2292 51.3594 75.3438C51.4479 75.4531 51.4922 75.5729 51.4922 75.7031C51.4922 75.8177 51.4583 75.9219 51.3906 76.0156C51.3229 76.1094 51.2135 76.1641 51.0625 76.1797C49.7396 76.3464 48.7656 77.5312 48.1406 79.7344C47.9896 80.2708 47.875 80.8229 47.7969 81.3906C47.7812 81.625 47.7656 81.8099 47.75 81.9453C47.7396 82.0807 47.7344 82.2083 47.7344 82.3281C47.7344 82.3958 47.7396 82.4505 47.75 82.4922C47.7604 82.5339 47.7656 82.5703 47.7656 82.6016C47.7656 82.7161 47.6875 82.8229 47.5312 82.9219C47.3802 83.0156 47.25 83.0625 47.1406 83.0625ZM55.1641 74.8984C56.4609 74.9766 57.5234 75.6172 58.3516 76.8203C58.5755 77.1432 58.7474 77.5026 58.8672 77.8984C58.987 78.2891 59.0469 78.724 59.0469 79.2031C59.0469 79.9167 58.8776 80.5573 58.5391 81.125C58.2005 81.6875 57.7917 82.1224 57.3125 82.4297C57.0052 82.6276 56.6589 82.7865 56.2734 82.9062C55.888 83.0208 55.4896 83.0781 55.0781 83.0781C54.3125 83.0781 53.6589 82.9115 53.1172 82.5781C52.5807 82.2396 52.1484 81.8203 51.8203 81.3203C51.3776 80.6328 51.1562 79.8958 51.1562 79.1094C51.1562 78.901 51.1719 78.6901 51.2031 78.4766C51.349 77.4401 51.7839 76.5911 52.5078 75.9297C53.237 75.263 54.0599 74.9115 54.9766 74.875C55.0391 74.8646 55.1016 74.8724 55.1641 74.8984ZM58.0234 79.1484C58.0234 78.5443 57.8828 78.0052 57.6016 77.5312C57.3203 77.0521 56.9557 76.6719 56.5078 76.3906C56.0651 76.1042 55.599 75.9453 55.1094 75.9141C55.0677 75.9141 55.026 75.9062 54.9844 75.8906C54.4531 75.9219 53.974 76.0859 53.5469 76.3828C53.1198 76.6745 52.7812 77.0599 52.5312 77.5391C52.2865 78.013 52.1641 78.5417 52.1641 79.125C52.1641 79.5729 52.25 79.9792 52.4219 80.3438C52.599 80.7083 52.8255 81.0208 53.1016 81.2812C53.3828 81.5365 53.6745 81.7266 53.9766 81.8516C54.3411 81.9974 54.7161 82.0703 55.1016 82.0703C55.638 82.0703 56.125 81.9453 56.5625 81.6953C57.0052 81.4401 57.3411 81.1328 57.5703 80.7734C57.7214 80.5339 57.8333 80.276 57.9062 80C57.9844 79.7188 58.0234 79.4349 58.0234 79.1484ZM64.6172 74.8984C65.9141 74.9766 66.9766 75.6172 67.8047 76.8203C68.0286 77.1432 68.2005 77.5026 68.3203 77.8984C68.4401 78.2891 68.5 78.724 68.5 79.2031C68.5 79.9167 68.3307 80.5573 67.9922 81.125C67.6536 81.6875 67.2448 82.1224 66.7656 82.4297C66.4583 82.6276 66.112 82.7865 65.7266 82.9062C65.3411 83.0208 64.9427 83.0781 64.5312 83.0781C63.7656 83.0781 63.112 82.9115 62.5703 82.5781C62.0339 82.2396 61.6016 81.8203 61.2734 81.3203C60.8307 80.6328 60.6094 79.8958 60.6094 79.1094C60.6094 78.901 60.625 78.6901 60.6562 78.4766C60.8021 77.4401 61.237 76.5911 61.9609 75.9297C62.6901 75.263 63.513 74.9115 64.4297 74.875C64.4922 74.8646 64.5547 74.8724 64.6172 74.8984ZM67.4766 79.1484C67.4766 78.5443 67.3359 78.0052 67.0547 77.5312C66.7734 77.0521 66.4089 76.6719 65.9609 76.3906C65.5182 76.1042 65.0521 75.9453 64.5625 75.9141C64.5208 75.9141 64.4792 75.9062 64.4375 75.8906C63.9062 75.9219 63.4271 76.0859 63 76.3828C62.5729 76.6745 62.2344 77.0599 61.9844 77.5391C61.7396 78.013 61.6172 78.5417 61.6172 79.125C61.6172 79.5729 61.7031 79.9792 61.875 80.3438C62.0521 80.7083 62.2786 81.0208 62.5547 81.2812C62.8359 81.5365 63.1276 81.7266 63.4297 81.8516C63.7943 81.9974 64.1693 82.0703 64.5547 82.0703C65.0911 82.0703 65.5781 81.9453 66.0156 81.6953C66.4583 81.4401 66.7943 81.1328 67.0234 80.7734C67.1745 80.5339 67.2865 80.276 67.3594 80C67.4375 79.7188 67.4766 79.4349 67.4766 79.1484ZM73.4375 75.3438C73.8177 75.3438 74.1667 75.4479 74.4844 75.6562C74.8021 75.8594 75.0807 76.125 75.3203 76.4531C75.5651 76.7812 75.7682 77.1224 75.9297 77.4766C76.2266 76.5859 76.6458 75.9479 77.1875 75.5625C77.5365 75.3125 77.901 75.1875 78.2812 75.1875C78.625 75.1875 78.9557 75.2839 79.2734 75.4766C79.5964 75.6693 79.888 75.9219 80.1484 76.2344C80.4609 76.6146 80.7057 77.0807 80.8828 77.6328C81.0599 78.1849 81.1484 78.8099 81.1484 79.5078C81.1484 80.5807 80.862 81.7005 80.2891 82.8672C80.1953 83.0443 80.0417 83.1328 79.8281 83.1328C79.6771 83.1328 79.5391 83.0625 79.4141 82.9219C79.2891 82.7812 79.276 82.612 79.375 82.4141C79.8802 81.3932 80.1328 80.4271 80.1328 79.5156C80.1328 78.9375 80.0599 78.4219 79.9141 77.9688C79.7734 77.5156 79.5781 77.1354 79.3281 76.8281C79 76.4271 78.6562 76.2266 78.2969 76.2266C77.8958 76.2266 77.5547 76.4714 77.2734 76.9609C77.0495 77.3568 76.8802 77.7839 76.7656 78.2422C76.6562 78.7005 76.5807 79.1823 76.5391 79.6875C76.5703 79.9271 76.5938 80.1667 76.6094 80.4062C76.6302 80.6458 76.6406 80.8932 76.6406 81.1484C76.6406 81.3672 76.6328 81.5964 76.6172 81.8359C76.6068 82.0755 76.5833 82.3333 76.5469 82.6094C76.5312 82.7552 76.474 82.8646 76.375 82.9375C76.276 83.0052 76.1667 83.0391 76.0469 83.0391C75.9271 83.0391 75.8151 83.0026 75.7109 82.9297C75.6068 82.8516 75.5469 82.737 75.5312 82.5859C75.4948 81.9974 75.4766 81.4479 75.4766 80.9375C75.4766 80.5 75.4896 80.0911 75.5156 79.7109C75.3698 78.7057 75.0964 77.9062 74.6953 77.3125C74.263 76.6667 73.8568 76.3438 73.4766 76.3438C73.1536 76.3438 72.8516 76.5859 72.5703 77.0703C72.2578 77.612 72.0339 78.3854 71.8984 79.3906C71.9036 79.7031 71.9062 80 71.9062 80.2812C71.9062 80.974 71.8854 81.5703 71.8438 82.0703L71.7969 82.6094C71.7865 82.7604 71.7292 82.8724 71.625 82.9453C71.526 83.0182 71.4167 83.0547 71.2969 83.0547C71.1719 83.0547 71.0573 83.0156 70.9531 82.9375C70.849 82.8594 70.7917 82.7422 70.7812 82.5859C70.7656 82.2214 70.7578 81.8698 70.7578 81.5312C70.7578 80.7135 70.7995 79.9818 70.8828 79.3359C70.8359 77.7214 70.599 76.6458 70.1719 76.1094C70.0938 76.0156 70.0547 75.9141 70.0547 75.8047C70.0547 75.6641 70.1094 75.5443 70.2188 75.4453C70.3333 75.3411 70.4583 75.2891 70.5938 75.2891C70.7448 75.2891 70.8698 75.3516 70.9688 75.4766C71.224 75.8047 71.4245 76.2396 71.5703 76.7812C72.0495 75.8229 72.6719 75.3438 73.4375 75.3438Z" fill="black"/>
<path d="M22.0833 21V25C23.4305 25 24.5324 25.9333 24.6997 27.2148L25.3548 32.2383C25.7359 35.1675 27.4478 37.6495 29.8389 39.2227L28.3333 45H32.6261L33.7166 40.8125C34.358 40.932 35.0163 41 35.6901 41H54.3099C54.9837 41 55.6421 40.9319 56.2834 40.8125L57.3739 45H61.6667L60.1611 39.2227C62.5519 37.6503 64.2641 35.1702 64.6452 32.2422L65.3003 27.2188C65.4678 25.9345 66.5695 25 67.9167 25V21H22.0833ZM28.3211 25H61.6789C61.4376 25.5437 61.2457 26.113 61.1662 26.7227L60.5111 31.7461C60.1186 34.7622 57.4777 37 54.3099 37H35.6901C32.5223 37 29.8816 34.7646 29.4889 31.7461V31.7422L28.8338 26.7188C28.7544 26.1105 28.5617 25.5424 28.3211 25Z" fill="black"/>
<rect x="0.5" y="0.5" width="89" height="89" stroke="white"/>
</svg>
