<svg width="90" height="90" viewBox="0 0 90 90" fill="none" xmlns="http://www.w3.org/2000/svg">
<path d="M36.1875 70.0391C35.9583 70.0391 35.724 70.0469 35.4844 70.0625C35.2448 70.0781 35.0234 70.0859 34.8203 70.0859C34.1328 70.0859 33.5521 70.0104 33.0781 69.8594C32.6042 69.7031 32.1719 69.4479 31.7812 69.0938C31.5208 68.8542 31.2891 68.5495 31.0859 68.1797C30.8828 67.8099 30.7812 67.3958 30.7812 66.9375C30.7812 66.6458 30.8307 66.3516 30.9297 66.0547C31.1484 65.3984 31.5703 64.8854 32.1953 64.5156C32.8203 64.1406 33.5599 63.9531 34.4141 63.9531C35.5234 63.9531 36.5156 64.1406 37.3906 64.5156C38.2656 64.8906 39 65.362 39.5938 65.9297C39.6979 66.0286 39.75 66.1484 39.75 66.2891C39.75 66.4141 39.7031 66.5312 39.6094 66.6406C39.5208 66.7448 39.4036 66.7995 39.2578 66.8047C39.1172 66.8047 38.9948 66.7578 38.8906 66.6641C38.3906 66.1797 37.763 65.776 37.0078 65.4531C36.2526 65.1302 35.4062 64.9688 34.4688 64.9688C33.8333 64.9688 33.2839 65.0859 32.8203 65.3203C32.3568 65.5495 32.0469 65.901 31.8906 66.375C31.8281 66.5625 31.7969 66.75 31.7969 66.9375C31.7969 67.2396 31.8646 67.513 32 67.7578C32.1406 67.9974 32.2995 68.1979 32.4766 68.3594C32.7526 68.6042 33.0729 68.7839 33.4375 68.8984C33.8073 69.013 34.2682 69.0703 34.8203 69.0703C35.013 69.0703 35.2292 69.0625 35.4688 69.0469C35.7083 69.0312 35.9401 69.0234 36.1641 69.0234C37.1172 69.0234 37.8542 69.1589 38.375 69.4297C38.7656 69.6276 39.125 69.9349 39.4531 70.3516C39.7865 70.7682 39.9531 71.2474 39.9531 71.7891C39.9531 71.9609 39.9323 72.1328 39.8906 72.3047C39.6562 73.3255 39.0182 74.0755 37.9766 74.5547C37.3203 74.8568 36.6224 75.0078 35.8828 75.0078C35.7109 75.0078 35.5365 75 35.3594 74.9844C33.6562 74.8229 32.2422 74.2474 31.1172 73.2578C31.0026 73.1536 30.9453 73.0339 30.9453 72.8984C30.9453 72.763 30.9974 72.6406 31.1016 72.5312C31.2057 72.4219 31.3281 72.3672 31.4688 72.3672C31.5833 72.3672 31.6875 72.4089 31.7812 72.4922C32.7552 73.3411 33.9818 73.8359 35.4609 73.9766C35.5964 73.987 35.7292 73.9922 35.8594 73.9922C36.4635 73.9922 37.0495 73.862 37.6172 73.6016C38.3099 73.2839 38.7344 72.7891 38.8906 72.1172C38.9167 72.0078 38.9297 71.901 38.9297 71.7969C38.9297 71.4531 38.8203 71.1536 38.6016 70.8984C38.3828 70.6432 38.1432 70.4505 37.8828 70.3203C37.5234 70.1328 36.9583 70.0391 36.1875 70.0391ZM42.5312 70.1016L42.5391 74.8594C42.5391 75.0208 42.4844 75.1432 42.375 75.2266C42.2708 75.3099 42.1562 75.3516 42.0312 75.3516C41.901 75.3516 41.7839 75.3099 41.6797 75.2266C41.5755 75.1432 41.5234 75.0208 41.5234 74.8594L41.5 64.2891C41.5 64.1536 41.5521 64.0365 41.6562 63.9375C41.7604 63.8333 41.8776 63.7812 42.0078 63.7812C42.013 63.7812 42.0182 63.7812 42.0234 63.7812C43.9297 63.8438 45.3958 64.263 46.4219 65.0391C47.224 65.6432 47.625 66.3516 47.625 67.1641C47.625 67.9089 47.2786 68.5521 46.5859 69.0938C45.7161 69.7708 44.513 70.1094 42.9766 70.1094C42.8307 70.1094 42.6823 70.1068 42.5312 70.1016ZM42.5234 69.0859C42.6745 69.0911 42.8203 69.0938 42.9609 69.0938C44.2734 69.0938 45.2734 68.8281 45.9609 68.2969C46.3932 67.9635 46.6094 67.5859 46.6094 67.1641C46.6094 66.6901 46.3438 66.2526 45.8125 65.8516C45.0417 65.2786 43.9427 64.9375 42.5156 64.8281L42.5234 69.0859ZM49.6797 75.3047C49.5599 75.3047 49.4453 75.2526 49.3359 75.1484C49.2266 75.0495 49.1771 74.9375 49.1875 74.8125C49.375 72.2969 49.7786 70.0339 50.3984 68.0234C51.0182 66.0234 51.7578 64.6979 52.6172 64.0469C52.9714 63.7812 53.3151 63.6484 53.6484 63.6484C54.5964 63.6484 55.4844 64.6953 56.3125 66.7891C57.0365 68.6276 57.6667 71.0391 58.2031 74.0234L58.3281 74.7109C58.3333 74.7422 58.3359 74.7708 58.3359 74.7969C58.3359 74.9531 58.2786 75.0729 58.1641 75.1562C58.0547 75.2448 57.9349 75.2891 57.8047 75.2891C57.6953 75.2891 57.5938 75.2552 57.5 75.1875C57.4062 75.125 57.3464 75.0234 57.3203 74.8828L57.2031 74.2031C57.0833 73.5312 56.9583 72.8906 56.8281 72.2812C56.6979 71.6667 56.5625 71.0833 56.4219 70.5312H50.8203C50.513 72.0521 50.3073 73.4896 50.2031 74.8438C50.1927 74.9792 50.1354 75.0885 50.0312 75.1719C49.9271 75.2604 49.8099 75.3047 49.6797 75.3047ZM51.0469 69.5156H56.1562C55.5729 67.4375 54.9688 66.0052 54.3438 65.2188C54.1979 65.0312 54.0521 64.8958 53.9062 64.8125C53.7708 64.7396 53.6719 64.7057 53.6094 64.7109C53.276 64.7526 52.9479 65.0156 52.625 65.5C52 66.4375 51.474 67.776 51.0469 69.5156Z" fill="black"/>
<rect x="0.5" y="0.5" width="89" height="89" stroke="#FFFEFE"/>
<path d="M36.2385 24.2038L37.127 23.215C37.9909 22.2535 38.2065 20.8731 37.6768 19.694L36.6583 17.4273C36.4628 16.9921 36.7812 16.5 37.2583 16.5C37.5029 16.5 37.7273 16.6357 37.8409 16.8524L38.9227 18.9164C39.7157 20.4292 39.4462 22.2803 38.2548 23.5042L38.1195 23.6431C36.2698 25.5433 36.3307 28.5891 38.255 30.4138C39.4445 31.5418 39.7655 33.3108 39.0481 34.7848L37.8229 37.302C37.7146 37.5245 37.4888 37.6657 37.2414 37.6657C36.7722 37.6657 36.4591 37.1818 36.6514 36.7539L37.6768 34.4716C38.2065 33.2926 37.9909 31.9121 37.127 30.9507L36.2385 29.9618C34.7672 28.3245 34.7672 25.8412 36.2385 24.2038Z" fill="black" stroke="black"/>
<path d="M44.5373 24.2038L45.4259 23.215C46.2898 22.2535 46.5053 20.8731 45.9756 19.694L44.9572 17.4273C44.7616 16.9921 45.08 16.5 45.5571 16.5C45.8017 16.5 46.0261 16.6357 46.1397 16.8524L47.2216 18.9164C48.0145 20.4292 47.745 22.2803 46.5536 23.5042L46.4184 23.6431C44.5686 25.5433 44.6296 28.5891 46.5538 30.4138C47.7434 31.5418 48.0643 33.3108 47.3469 34.7848L46.1217 37.302C46.0134 37.5245 45.7877 37.6657 45.5402 37.6657C45.071 37.6657 44.758 37.1818 44.9502 36.7539L45.9756 34.4716C46.5053 33.2926 46.2898 31.9121 45.4259 30.9507L44.5373 29.9618C43.066 28.3245 43.066 25.8412 44.5373 24.2038Z" fill="black" stroke="black"/>
<path d="M52.8361 24.2038L53.7247 23.215C54.5886 22.2535 54.8041 20.8731 54.2744 19.694L53.256 17.4273C53.0605 16.9921 53.3788 16.5 53.856 16.5C54.1006 16.5 54.325 16.6357 54.4385 16.8524L55.5204 18.9164C56.3133 20.4292 56.0438 22.2803 54.8525 23.5042L54.7172 23.6431C52.8675 25.5433 52.9284 28.5891 54.8527 30.4138C56.0422 31.5418 56.3632 33.3108 55.6457 34.7848L54.4206 37.302C54.3123 37.5245 54.0865 37.6657 53.839 37.6657C53.3699 37.6657 53.0568 37.1818 53.2491 36.7539L54.2744 34.4716C54.8041 33.2926 54.5886 31.9121 53.7247 30.9507L52.8361 29.9618C51.3648 28.3245 51.3648 25.8412 52.8361 24.2038Z" fill="black" stroke="black"/>
<path d="M49.8443 40.9211L51.8822 41.7661C52.9828 42.2225 54.1911 42.3532 55.3634 42.1428L61.2149 41.0923C61.42 41.0555 61.6077 41.2152 61.6043 41.4235C61.6018 41.5775 61.4932 41.7093 61.3426 41.7413L55.9582 42.8839C54.4563 43.2026 52.8915 43.0359 51.4896 42.4078L49.8813 41.6873C46.89 40.3472 43.4715 40.339 40.4762 41.6649L39.5924 42.0561C38.0742 42.7281 36.3785 42.8885 34.7603 42.5133L28.977 41.1724C28.8275 41.1377 28.7224 41.0032 28.7249 40.8497C28.7282 40.6448 28.918 40.4941 29.1185 40.5372L34.9387 41.7904C36.1034 42.0411 37.3152 41.9521 38.4302 41.534L40.4946 40.7598C43.5178 39.6259 46.8599 39.6836 49.8443 40.9211Z" fill="black" stroke="black"/>
<path d="M49.7532 44.2414L51.7911 45.0864C52.8917 45.5428 54.1 45.6736 55.2722 45.4631L61.1238 44.4126C61.3288 44.3758 61.5166 44.5355 61.5132 44.7438C61.5106 44.8978 61.4021 45.0296 61.2514 45.0616L55.8671 46.2042C54.3651 46.5229 52.8004 46.3562 51.3984 45.7281L49.7902 45.0076C46.7988 43.6675 43.3804 43.6593 40.3851 44.9852L39.5012 45.3764C37.9831 46.0484 36.2874 46.2089 34.6692 45.8337L28.8859 44.4927C28.7363 44.458 28.6313 44.3235 28.6338 44.1701C28.6371 43.9651 28.8269 43.8144 29.0273 43.8575L34.8476 45.1107C36.0122 45.3615 37.2241 45.2725 38.3391 44.8543L40.4035 44.0801C43.4266 42.9462 46.7687 43.0039 49.7532 44.2414Z" fill="black" stroke="black"/>
<path d="M49.6621 47.5617L51.7 48.4067C52.8007 48.8631 54.009 48.9939 55.1812 48.7834L61.0327 47.7329C61.2378 47.6961 61.4255 47.8558 61.4221 48.0641C61.4196 48.2182 61.311 48.35 61.1604 48.3819L55.776 49.5245C54.2741 49.8432 52.7093 49.6765 51.3074 49.0484L49.6992 48.328C46.7078 46.9878 43.2893 46.9797 40.294 48.3055L39.4102 48.6967C37.8921 49.3687 36.1963 49.5292 34.5781 49.154L28.7948 47.813C28.6453 47.7783 28.5402 47.6438 28.5427 47.4904C28.546 47.2854 28.7358 47.1347 28.9363 47.1779L34.7565 48.431C35.9212 48.6818 37.1331 48.5928 38.248 48.1746L40.3124 47.4004C43.3356 46.2666 46.6777 46.3242 49.6621 47.5617Z" fill="black" stroke="black"/>
</svg>
