<svg width="90" height="90" viewBox="0 0 90 90" fill="none" xmlns="http://www.w3.org/2000/svg">
<rect x="0.5" y="0.5" width="89" height="89" stroke="white"/>
<path d="M24.7062 65.7472C25.4305 65.7472 26.0323 65.6163 26.5117 65.3544C26.991 65.0879 27.3714 64.7208 27.6527 64.2532C27.9393 63.7809 28.1425 63.2361 28.2624 62.6188C28.3822 62.0015 28.4421 61.3398 28.4421 60.6337C28.4421 59.5582 28.2988 58.2886 28.0123 56.8249C28.0071 56.7968 28.0044 56.7688 28.0044 56.7407C28.0044 56.6004 28.0592 56.4929 28.1686 56.418C28.2832 56.3385 28.4057 56.2988 28.5359 56.2988C28.6453 56.2988 28.7443 56.3292 28.8329 56.39C28.9267 56.4461 28.9866 56.5373 29.0127 56.6636C29.3045 58.174 29.4503 59.5161 29.4503 60.6898C29.4503 63.1683 28.7938 64.8938 27.4808 65.8665C27.1369 66.1237 26.7253 66.3224 26.2459 66.4627C25.7666 66.603 25.2585 66.6732 24.7219 66.6732C23.8048 66.6732 23.078 66.5165 22.5413 66.2032C22.0046 65.8899 21.593 65.4573 21.3064 64.9055C21.0251 64.349 20.8062 63.7154 20.6499 63.0046C20.4207 61.9384 20.306 60.4326 20.306 58.4873C20.306 57.9682 20.3138 57.4211 20.3295 56.8459C20.3347 56.7243 20.3894 56.6215 20.4936 56.5373C20.603 56.4484 20.7229 56.404 20.8531 56.404C20.9834 56.404 21.098 56.4508 21.197 56.5443C21.296 56.6378 21.3455 56.7477 21.3455 56.874C21.3299 57.4819 21.3221 58.0524 21.3221 58.5855C21.3221 60.4373 21.4289 61.8496 21.6425 62.8222C21.9239 64.0942 22.3199 64.9055 22.8305 65.2562C23.3098 65.5836 23.9351 65.7472 24.7062 65.7472Z" fill="black"/>
<path d="M35.1011 66.3014C35.1011 66.4277 35.049 66.5352 34.9448 66.6241C34.8405 66.7129 34.7207 66.7573 34.5852 66.7573C34.5019 66.7573 34.4237 66.7386 34.3508 66.7012C33.6786 66.3785 33.2722 65.4971 33.1315 64.0568C33.1003 63.7435 33.0768 63.4068 33.0612 63.0467C33.0455 62.6819 33.0377 62.2915 33.0377 61.8753C33.0377 61.4731 33.0455 61.0335 33.0612 60.5566C32.8059 60.5566 32.5506 60.5566 32.2952 60.5566C32.0399 60.5519 31.782 60.5496 31.5215 60.5496C31.386 60.5496 31.2662 60.5028 31.162 60.4093C31.063 60.3111 31.0135 60.2012 31.0135 60.0796C31.0135 59.9674 31.063 59.8668 31.162 59.778C31.2662 59.6844 31.386 59.6377 31.5215 59.6377L33.0924 59.6447C33.0977 59.5044 33.1055 59.2893 33.1159 58.9994C33.1263 58.7094 33.1367 58.4008 33.1472 58.0735C33.1576 57.7461 33.1628 57.4585 33.1628 57.2107C33.1628 57.1359 33.1602 57.0681 33.155 57.0073C33.155 56.9465 33.155 56.8904 33.155 56.8389C33.155 56.6986 33.2071 56.5911 33.3113 56.5163C33.4207 56.4414 33.5379 56.404 33.663 56.404C33.788 56.404 33.9027 56.4391 34.0069 56.5092C34.1111 56.5794 34.1658 56.6869 34.171 56.8319C34.1762 56.9254 34.1788 57.0447 34.1788 57.1896C34.1788 57.4468 34.1736 57.7391 34.1632 58.0664C34.1528 58.3938 34.1423 58.7048 34.1319 58.9994C34.1215 59.2893 34.1137 59.5067 34.1085 59.6517L35.2886 59.6587C35.4502 59.6587 35.5726 59.7078 35.656 59.806C35.7393 59.9042 35.781 60.0094 35.781 60.1217C35.781 60.2339 35.7393 60.3368 35.656 60.4303C35.5778 60.5238 35.458 60.5706 35.2965 60.5706C35.2912 60.5706 35.2886 60.5706 35.2886 60.5706C35.0854 60.5706 34.8822 60.5706 34.679 60.5706C34.481 60.5659 34.2804 60.5636 34.0772 60.5636C34.0668 60.9844 34.0616 61.3819 34.0616 61.756C34.0616 63.4489 34.1892 64.639 34.4445 65.3264C34.5644 65.6397 34.6894 65.8267 34.8197 65.8875C34.8979 65.9249 34.963 65.9811 35.0151 66.0559C35.0724 66.1307 35.1011 66.2125 35.1011 66.3014Z" fill="black"/>
<path d="M37.3598 58.0033C37.3598 57.8303 37.4171 57.6643 37.5317 57.5053C37.6516 57.3416 37.7975 57.2107 37.9694 57.1125C38.1414 57.0096 38.3107 56.9582 38.4774 56.9582C38.7223 56.9582 38.9281 57.0517 39.0949 57.2387C39.2668 57.4211 39.3528 57.6035 39.3528 57.7859C39.3528 57.9589 39.2929 58.1179 39.173 58.2628C39.0532 58.4078 38.8917 58.513 38.6885 58.5785C38.4592 58.6814 38.256 58.7328 38.0788 58.7328C37.886 58.7328 37.7167 58.6627 37.5708 58.5224C37.4301 58.3774 37.3598 58.2044 37.3598 58.0033ZM38.6259 65.3825C38.6103 65.7566 38.553 66.0559 38.454 66.2803C38.355 66.5001 38.183 66.61 37.9381 66.61C37.8027 66.61 37.6828 66.5656 37.5786 66.4768C37.4744 66.3879 37.4223 66.278 37.4223 66.1471C37.4223 66.0863 37.4353 66.0255 37.4614 65.9647C37.5083 65.8665 37.5448 65.6724 37.5708 65.3825C37.6021 65.0879 37.6255 64.7418 37.6412 64.3444C37.6568 63.9469 37.6672 63.5377 37.6724 63.1168C37.6828 62.6913 37.688 62.2961 37.688 61.9314C37.688 61.5666 37.688 61.2767 37.688 61.0616C37.688 60.6641 37.6854 60.283 37.6802 59.9183C37.6802 59.7686 37.7323 59.6564 37.8365 59.5816C37.946 59.5067 38.0658 59.4693 38.1961 59.4693C38.3211 59.4693 38.4331 59.5067 38.5321 59.5816C38.6363 59.6517 38.6885 59.7593 38.6885 59.9042C38.6937 60.1521 38.6963 60.3952 38.6963 60.6337C38.7015 60.8722 38.7041 61.106 38.7041 61.3352C38.7041 62.0974 38.6989 62.7872 38.6885 63.4044C38.6832 64.0217 38.6624 64.6811 38.6259 65.3825Z" fill="black"/>
<path d="M41.7209 56.2216C41.8512 56.2216 41.9658 56.2707 42.0648 56.3689C42.169 56.4625 42.2159 56.5724 42.2055 56.6986C42.1169 58.6393 42.0492 60.283 42.0023 61.6298C41.9554 62.9765 41.9319 64.0287 41.9319 64.7863C41.9319 65.4456 41.9502 65.8805 41.9867 66.091C41.9919 66.119 41.9945 66.1447 41.9945 66.1681C41.9945 66.3084 41.9398 66.416 41.8303 66.4908C41.7209 66.5656 41.6011 66.603 41.4708 66.603C41.3614 66.603 41.2572 66.5726 41.1582 66.5118C41.0644 66.451 41.0071 66.3552 40.9863 66.2242C40.9446 65.9857 40.9237 65.4971 40.9237 64.7582C40.9237 63.187 41.0149 60.4864 41.1973 56.6565C41.2025 56.535 41.2572 56.4321 41.3614 56.3479C41.4708 56.2637 41.5907 56.2216 41.7209 56.2216Z" fill="black"/>
<path d="M43.7686 58.0033C43.7686 57.8303 43.8259 57.6643 43.9406 57.5053C44.0604 57.3416 44.2063 57.2107 44.3783 57.1125C44.5502 57.0096 44.7195 56.9582 44.8863 56.9582C45.1312 56.9582 45.337 57.0517 45.5037 57.2387C45.6757 57.4211 45.7616 57.6035 45.7616 57.7859C45.7616 57.9589 45.7017 58.1179 45.5819 58.2628C45.462 58.4078 45.3005 58.513 45.0973 58.5785C44.868 58.6814 44.6648 58.7328 44.4877 58.7328C44.2949 58.7328 44.1255 58.6627 43.9797 58.5224C43.839 58.3774 43.7686 58.2044 43.7686 58.0033ZM45.0348 65.3825C45.0191 65.7566 44.9618 66.0559 44.8628 66.2803C44.7638 66.5001 44.5919 66.61 44.347 66.61C44.2115 66.61 44.0917 66.5656 43.9875 66.4768C43.8833 66.3879 43.8312 66.278 43.8312 66.1471C43.8312 66.0863 43.8442 66.0255 43.8702 65.9647C43.9171 65.8665 43.9536 65.6724 43.9797 65.3825C44.0109 65.0879 44.0344 64.7418 44.05 64.3444C44.0656 63.9469 44.076 63.5377 44.0813 63.1168C44.0917 62.6913 44.0969 62.2961 44.0969 61.9314C44.0969 61.5666 44.0969 61.2767 44.0969 61.0616C44.0969 60.6641 44.0943 60.283 44.0891 59.9183C44.0891 59.7686 44.1412 59.6564 44.2454 59.5816C44.3548 59.5067 44.4746 59.4693 44.6049 59.4693C44.73 59.4693 44.842 59.5067 44.941 59.5816C45.0452 59.6517 45.0973 59.7593 45.0973 59.9042C45.1025 60.1521 45.1051 60.3952 45.1051 60.6337C45.1103 60.8722 45.1129 61.106 45.1129 61.3352C45.1129 62.0974 45.1077 62.7872 45.0973 63.4044C45.0921 64.0217 45.0712 64.6811 45.0348 65.3825Z" fill="black"/>
<path d="M50.1384 66.3014C50.1384 66.4277 50.0863 66.5352 49.9821 66.6241C49.8779 66.7129 49.758 66.7573 49.6226 66.7573C49.5392 66.7573 49.461 66.7386 49.3881 66.7012C48.7159 66.3785 48.3095 65.4971 48.1688 64.0568C48.1376 63.7435 48.1141 63.4068 48.0985 63.0467C48.0829 62.6819 48.0751 62.2915 48.0751 61.8753C48.0751 61.4731 48.0829 61.0335 48.0985 60.5566C47.8432 60.5566 47.5879 60.5566 47.3326 60.5566C47.0773 60.5519 46.8193 60.5496 46.5588 60.5496C46.4233 60.5496 46.3035 60.5028 46.1993 60.4093C46.1003 60.3111 46.0508 60.2012 46.0508 60.0796C46.0508 59.9674 46.1003 59.8668 46.1993 59.778C46.3035 59.6844 46.4233 59.6377 46.5588 59.6377L48.1298 59.6447C48.135 59.5044 48.1428 59.2893 48.1532 58.9994C48.1636 58.7094 48.1741 58.4008 48.1845 58.0735C48.1949 57.7461 48.2001 57.4585 48.2001 57.2107C48.2001 57.1359 48.1975 57.0681 48.1923 57.0073C48.1923 56.9465 48.1923 56.8904 48.1923 56.8389C48.1923 56.6986 48.2444 56.5911 48.3486 56.5163C48.458 56.4414 48.5753 56.404 48.7003 56.404C48.8254 56.404 48.94 56.4391 49.0442 56.5092C49.1484 56.5794 49.2031 56.6869 49.2083 56.8319C49.2135 56.9254 49.2161 57.0447 49.2161 57.1896C49.2161 57.4468 49.2109 57.7391 49.2005 58.0664C49.1901 58.3938 49.1797 58.7048 49.1693 58.9994C49.1588 59.2893 49.151 59.5067 49.1458 59.6517L50.326 59.6587C50.4875 59.6587 50.6099 59.7078 50.6933 59.806C50.7767 59.9042 50.8184 60.0094 50.8184 60.1217C50.8184 60.2339 50.7767 60.3368 50.6933 60.4303C50.6151 60.5238 50.4953 60.5706 50.3338 60.5706C50.3286 60.5706 50.326 60.5706 50.326 60.5706C50.1228 60.5706 49.9196 60.5706 49.7163 60.5706C49.5184 60.5659 49.3177 60.5636 49.1145 60.5636C49.1041 60.9844 49.0989 61.3819 49.0989 61.756C49.0989 63.4489 49.2266 64.639 49.4819 65.3264C49.6017 65.6397 49.7268 65.8267 49.857 65.8875C49.9352 65.9249 50.0003 65.9811 50.0524 66.0559C50.1097 66.1307 50.1384 66.2125 50.1384 66.3014Z" fill="black"/>
<path d="M52.3971 58.0033C52.3971 57.8303 52.4544 57.6643 52.5691 57.5053C52.6889 57.3416 52.8348 57.2107 53.0067 57.1125C53.1787 57.0096 53.348 56.9582 53.5148 56.9582C53.7596 56.9582 53.9655 57.0517 54.1322 57.2387C54.3041 57.4211 54.3901 57.6035 54.3901 57.7859C54.3901 57.9589 54.3302 58.1179 54.2104 58.2628C54.0905 58.4078 53.929 58.513 53.7258 58.5785C53.4965 58.6814 53.2933 58.7328 53.1162 58.7328C52.9234 58.7328 52.754 58.6627 52.6081 58.5224C52.4675 58.3774 52.3971 58.2044 52.3971 58.0033ZM53.6633 65.3825C53.6476 65.7566 53.5903 66.0559 53.4913 66.2803C53.3923 66.5001 53.2204 66.61 52.9755 66.61C52.84 66.61 52.7202 66.5656 52.616 66.4768C52.5117 66.3879 52.4596 66.278 52.4596 66.1471C52.4596 66.0863 52.4727 66.0255 52.4987 65.9647C52.5456 65.8665 52.5821 65.6724 52.6081 65.3825C52.6394 65.0879 52.6628 64.7418 52.6785 64.3444C52.6941 63.9469 52.7045 63.5377 52.7097 63.1168C52.7202 62.6913 52.7254 62.2961 52.7254 61.9314C52.7254 61.5666 52.7254 61.2767 52.7254 61.0616C52.7254 60.6641 52.7228 60.283 52.7176 59.9183C52.7176 59.7686 52.7697 59.6564 52.8739 59.5816C52.9833 59.5067 53.1031 59.4693 53.2334 59.4693C53.3584 59.4693 53.4705 59.5067 53.5695 59.5816C53.6737 59.6517 53.7258 59.7593 53.7258 59.9042C53.731 60.1521 53.7336 60.3952 53.7336 60.6337C53.7388 60.8722 53.7414 61.106 53.7414 61.3352C53.7414 62.0974 53.7362 62.7872 53.7258 63.4044C53.7206 64.0217 53.6997 64.6811 53.6633 65.3825Z" fill="black"/>
<path d="M57.0709 64.148C57.222 64.6343 57.5138 65.0154 57.9462 65.2913C58.3839 65.5672 58.9336 65.7052 59.5953 65.7052C60.4811 65.7052 61.5102 65.4456 62.6825 64.9266C62.7555 64.8938 62.831 64.8775 62.9092 64.8775C63.0446 64.8775 63.1619 64.9195 63.2609 65.0037C63.3651 65.0879 63.4172 65.1931 63.4172 65.3194C63.4172 65.5205 63.3234 65.6631 63.1358 65.7472C62.5418 66.0091 61.9374 66.2196 61.3226 66.3785C60.7078 66.5375 60.1138 66.617 59.5406 66.617C58.9518 66.617 58.4021 66.5188 57.8915 66.3224C57.3861 66.126 56.9536 65.7987 56.5941 65.3404C56.3909 65.0832 56.2346 64.8097 56.1252 64.5197C56.0158 64.2298 55.9611 63.9048 55.9611 63.5447C55.9611 63.3857 55.9715 63.2197 55.9923 63.0467C56.1122 62.1535 56.5264 61.3889 57.235 60.753C58.152 59.9299 59.3583 59.5184 60.8537 59.5184C61.4268 59.5184 61.9296 59.619 62.3621 59.82C62.7945 60.0165 63.102 60.297 63.2843 60.6618C63.3833 60.8629 63.4328 61.0756 63.4328 61.3001C63.4328 61.6836 63.3208 62.0226 63.0968 62.3172C62.8779 62.6071 62.5653 62.876 62.1589 63.1239C61.0178 63.8159 59.3635 64.162 57.1959 64.162C57.1647 64.162 57.123 64.1573 57.0709 64.148ZM56.9849 63.2922C57.0579 63.2641 57.1282 63.2501 57.1959 63.2501C59.1603 63.2501 60.627 62.9555 61.5961 62.3663C61.8671 62.2026 62.0729 62.0366 62.2136 61.8683C62.3543 61.6952 62.4246 61.4965 62.4246 61.272C62.4246 61.1411 62.3907 61.0359 62.323 60.9564C62.2605 60.8769 62.1771 60.8021 62.0729 60.7319C61.7811 60.5308 61.3773 60.4303 60.8615 60.4303C60.1685 60.4303 59.538 60.5472 58.9701 60.781C58.4021 61.0102 57.941 61.3398 57.5867 61.7701C57.2376 62.1956 57.037 62.703 56.9849 63.2922Z" fill="black"/>
<path d="M64.996 61.3913C64.996 60.9564 65.1236 60.5916 65.3789 60.297C65.6342 59.9977 65.9651 59.7733 66.3715 59.6236C66.7779 59.474 67.2104 59.3992 67.6689 59.3992C69.1591 59.3992 70.4018 59.8247 71.397 60.6758C71.5012 60.7647 71.5533 60.8699 71.5533 60.9915C71.5533 61.1084 71.5064 61.2136 71.4126 61.3071C71.324 61.4006 71.2068 61.4497 71.0609 61.4544C70.915 61.4544 70.7952 61.4147 70.7014 61.3352C70.4044 61.078 70.0032 60.8442 69.4978 60.6337C68.9976 60.4186 68.487 60.3111 67.9659 60.3111C66.8926 60.3111 66.2595 60.5729 66.0667 61.0967C66.025 61.2089 66.0042 61.3165 66.0042 61.4193C66.0042 61.6999 66.1501 61.9595 66.4419 62.1979C66.7649 62.4645 67.3068 62.5978 68.0675 62.5978C68.1926 62.5978 68.3254 62.5931 68.4661 62.5837C68.6068 62.5744 68.7475 62.5697 68.8882 62.5697C69.5603 62.5697 70.1048 62.6609 70.5216 62.8433C70.9385 63.021 71.2563 63.3062 71.4751 63.699C71.6158 63.9609 71.6862 64.2158 71.6862 64.4636C71.6862 64.5758 71.6731 64.6881 71.6471 64.8003C71.4751 65.483 71.0036 65.9811 70.2324 66.2944C69.7479 66.4955 69.2346 66.596 68.6928 66.596C68.5833 66.596 68.4713 66.5913 68.3567 66.582C67.1218 66.4791 66.0954 66.105 65.2773 65.4597C65.1627 65.3708 65.1054 65.2562 65.1054 65.116C65.1054 64.9897 65.1549 64.8845 65.2539 64.8003C65.3581 64.7115 65.4779 64.667 65.6134 64.667C65.7437 64.667 65.8557 64.7021 65.9495 64.7722C66.3142 65.0575 66.7206 65.2796 67.1687 65.4386C67.6168 65.5976 68.13 65.6771 68.7084 65.6771C69.4326 65.6771 69.985 65.4901 70.3653 65.116C70.5737 64.9102 70.6779 64.6998 70.6779 64.4846C70.6779 64.3584 70.6415 64.2298 70.5685 64.0989C70.3445 63.6873 69.8703 63.4816 69.1461 63.4816C68.9898 63.4816 68.8282 63.4863 68.6615 63.4956C68.4948 63.5003 68.3437 63.5026 68.2082 63.5026C67.5881 63.5026 67.1296 63.4676 66.8326 63.3974C66.421 63.2992 66.0563 63.1192 65.7384 62.8573C65.4206 62.5954 65.2018 62.2821 65.0819 61.9174C65.0246 61.7443 64.996 61.569 64.996 61.3913Z" fill="black"/>
<path d="M17.5236 72.4741C17.6487 72.4741 17.7607 72.5209 17.8597 72.6144C17.9639 72.7079 18.016 72.8131 18.016 72.93L18.1176 82.4206C18.1176 82.5702 18.0629 82.6824 17.9535 82.7573C17.8493 82.8321 17.7321 82.8695 17.6018 82.8695C17.4768 82.8695 17.3621 82.8321 17.2579 82.7573C17.1537 82.6871 17.1016 82.5796 17.1016 82.4346L17 72.937C17 72.8155 17.0521 72.7079 17.1563 72.6144C17.2657 72.5209 17.3882 72.4741 17.5236 72.4741Z" fill="black"/>
<path d="M20.1966 75.4622C20.3477 75.4622 20.4728 75.516 20.5718 75.6236C20.9469 76.0304 21.2205 76.657 21.3924 77.5034C22.101 76.3531 23.0155 75.7054 24.1357 75.5604C24.3129 75.5371 24.4874 75.5254 24.6593 75.5254C25.2846 75.5254 25.8369 75.654 26.3163 75.9112C26.7956 76.1684 27.189 76.5074 27.4964 76.9283C27.8038 77.3491 28.0123 77.8027 28.1217 78.2891C28.1946 78.6024 28.2311 78.9227 28.2311 79.25C28.2311 80.2835 27.8638 81.3754 27.1291 82.5258C27.0353 82.6708 26.892 82.7432 26.6992 82.7432C26.5377 82.7432 26.3918 82.6754 26.2616 82.5398C26.1365 82.3995 26.1313 82.2429 26.2459 82.0698C26.892 81.0598 27.2151 80.1175 27.2151 79.243C27.2151 78.9812 27.1864 78.7263 27.1291 78.4785C27.0457 78.1184 26.892 77.784 26.668 77.4754C26.4491 77.1668 26.1678 76.9189 25.8239 76.7319C25.4852 76.5401 25.0944 76.4443 24.6515 76.4443C24.5317 76.4443 24.4092 76.4513 24.2842 76.4653C23.7684 76.5308 23.3281 76.7342 22.9633 77.0756C22.5986 77.4169 22.3042 77.8308 22.0802 78.3171C21.8613 78.7988 21.7024 79.2898 21.6034 79.7902C21.6034 79.8509 21.6034 79.9117 21.6034 79.9725C21.6034 80.6459 21.5643 81.324 21.4862 82.0067L21.4549 82.2803C21.4393 82.4112 21.382 82.5094 21.283 82.5749C21.184 82.6357 21.0772 82.6661 20.9625 82.6661C20.8375 82.6661 20.7203 82.631 20.6108 82.5609C20.5066 82.4907 20.4519 82.3855 20.4467 82.2452C20.4363 82.0348 20.4311 81.829 20.4311 81.6279C20.4311 80.9405 20.4832 80.3069 20.5874 79.727C20.5665 78.6515 20.4728 77.8448 20.306 77.307C20.1445 76.7739 19.996 76.4326 19.8605 76.2829C19.7355 76.1426 19.673 76.0187 19.673 75.9112C19.673 75.7756 19.7277 75.668 19.8371 75.5885C19.9465 75.5043 20.0663 75.4622 20.1966 75.4622Z" fill="black"/>
<path d="M30.8181 79.9655C30.8181 80.5407 31.0031 81.0013 31.373 81.3474C31.7481 81.6934 32.2822 81.8664 32.9752 81.8664C33.5744 81.8664 34.2804 81.7355 35.0932 81.4736C35.1506 81.4549 35.2105 81.4456 35.273 81.4456C35.4085 81.4456 35.5257 81.49 35.6247 81.5788C35.7289 81.663 35.781 81.7659 35.781 81.8875C35.781 81.995 35.7472 82.0886 35.6794 82.1681C35.6117 82.2475 35.5309 82.3013 35.4371 82.3294C34.5097 82.6333 33.6864 82.7853 32.9674 82.7853C32.1702 82.7853 31.5163 82.617 31.0057 82.2803C30.495 81.9389 30.1511 81.504 29.974 80.9756C29.8594 80.6342 29.802 80.2905 29.802 79.9445C29.802 79.4722 29.9063 78.9905 30.1147 78.4995C30.3075 78.0412 30.5836 77.6087 30.9431 77.2018C31.3079 76.795 31.7481 76.4653 32.264 76.2128C32.785 75.9556 33.3712 75.827 34.0225 75.827C34.4498 75.827 34.8926 75.8901 35.3512 76.0164C35.471 76.0491 35.557 76.1052 35.6091 76.1847C35.6664 76.2596 35.6951 76.3414 35.6951 76.4302C35.6951 76.5471 35.6508 76.657 35.5622 76.7599C35.4788 76.8581 35.3642 76.9072 35.2183 76.9072C35.1662 76.9072 35.1141 76.9002 35.062 76.8862C34.7285 76.7973 34.4029 76.7529 34.085 76.7529C33.5848 76.7529 33.1341 76.8511 32.7329 77.0475C32.3369 77.2392 31.9982 77.4918 31.7169 77.8051C31.4355 78.1137 31.2193 78.4481 31.0682 78.8081C30.9015 79.2056 30.8181 79.5914 30.8181 79.9655Z" fill="black"/>
<path d="M38.1335 72.3829C38.2638 72.3829 38.3784 72.432 38.4774 72.5302C38.5816 72.6237 38.6285 72.7336 38.6181 72.8599C38.5295 74.8006 38.4618 76.4443 38.4149 77.791C38.368 79.1378 38.3446 80.19 38.3446 80.9475C38.3446 81.6069 38.3628 82.0418 38.3993 82.2522C38.4045 82.2803 38.4071 82.306 38.4071 82.3294C38.4071 82.4697 38.3524 82.5772 38.243 82.652C38.1335 82.7269 38.0137 82.7643 37.8834 82.7643C37.774 82.7643 37.6698 82.7339 37.5708 82.6731C37.477 82.6123 37.4197 82.5164 37.3989 82.3855C37.3572 82.147 37.3363 81.6583 37.3363 80.9195C37.3363 79.3482 37.4275 76.6477 37.6099 72.8178C37.6151 72.6962 37.6698 72.5933 37.774 72.5092C37.8834 72.425 38.0033 72.3829 38.1335 72.3829Z" fill="black"/>
<path d="M45.7694 76.1356C45.8424 75.8738 46.0117 75.7428 46.2775 75.7428C46.4025 75.7428 46.5119 75.7849 46.6057 75.8691C46.7047 75.9533 46.762 76.0491 46.7777 76.1567C46.8246 76.5822 46.848 76.9891 46.848 77.3772C46.848 77.9243 46.8011 78.4364 46.7073 78.9134C46.7386 80.5267 46.9001 81.5765 47.1919 82.0628C47.2284 82.119 47.2492 82.1493 47.2544 82.154C47.4264 82.2382 47.5123 82.3738 47.5123 82.5609C47.5123 82.7386 47.429 82.8672 47.2622 82.9467C47.0955 83.0262 46.9079 83.0168 46.6995 82.9186C46.3087 82.7362 46.0274 82.1236 45.8554 81.0808C45.6835 81.3474 45.4542 81.6162 45.1676 81.8875C44.8811 82.1587 44.5528 82.3855 44.1829 82.5679C43.8181 82.7456 43.4221 82.8344 42.9949 82.8344C42.7187 82.8344 42.4452 82.79 42.1742 82.7011C41.5229 82.486 41.0279 82.0465 40.6893 81.3824C40.3506 80.7137 40.1812 79.9492 40.1812 79.0887C40.1812 78.1722 40.3584 77.12 40.7127 75.9322C40.744 75.8293 40.8091 75.7498 40.9081 75.6937C41.0071 75.6329 41.1113 75.6025 41.2207 75.6025C41.3614 75.6025 41.4891 75.6587 41.6037 75.7709C41.7183 75.8831 41.7496 76.0164 41.6975 76.1707C41.3588 77.265 41.1895 78.2283 41.1895 79.0607C41.1895 79.692 41.2859 80.2484 41.4786 80.7301C41.6141 81.0668 41.8095 81.352 42.0648 81.5859C42.3201 81.815 42.6249 81.9296 42.9792 81.9296C43.2815 81.9296 43.5941 81.836 43.9171 81.649C44.8133 81.1346 45.4047 80.197 45.6913 78.8362C45.6913 78.7427 45.6887 78.6468 45.6835 78.5486C45.6835 78.4457 45.6835 78.3428 45.6835 78.24C45.6835 78.0389 45.6861 77.8308 45.6913 77.6157C45.6965 77.3959 45.7043 77.1714 45.7147 76.9423L45.7694 76.1356Z" fill="black"/>
<path d="M56.5394 79.699C56.5394 80.045 56.5577 80.4215 56.5941 80.8283C56.6306 81.2305 56.6488 81.5859 56.6488 81.8945C56.6488 82.0769 56.6072 82.2359 56.5238 82.3715C56.4456 82.5024 56.3023 82.5679 56.0939 82.5679C55.9532 82.5679 55.8386 82.5188 55.75 82.4206C55.6615 82.3224 55.612 82.2101 55.6015 82.0839C55.5911 81.9623 55.5807 81.8197 55.5703 81.656C55.5599 81.4923 55.5494 81.31 55.539 81.1089C54.8148 82.1377 53.8899 82.652 52.7645 82.652C52.0089 82.652 51.3394 82.5024 50.7558 82.2031C50.1775 81.9038 49.7216 81.49 49.3881 80.9616C49.0598 80.4285 48.8957 79.8159 48.8957 79.1238C48.8957 78.6 48.9947 78.0903 49.1927 77.5946C49.3907 77.0943 49.659 76.6617 49.9977 76.297C50.55 75.6984 51.2612 75.3991 52.1314 75.3991C52.2252 75.3991 52.3216 75.4015 52.4206 75.4061C53.421 75.4763 54.4396 75.9977 55.4765 76.9704C55.4765 76.6804 55.4765 76.3414 55.4765 75.9533C55.4765 75.5604 55.4791 75.1209 55.4843 74.6345L55.4999 72.923C55.4999 72.7781 55.552 72.6682 55.6562 72.5933C55.7657 72.5185 55.8829 72.4811 56.0079 72.4811C56.1382 72.4811 56.2554 72.5185 56.3597 72.5933C56.4639 72.6682 56.516 72.7804 56.516 72.93L56.5003 74.6486C56.4951 75.2799 56.4899 75.8551 56.4847 76.3741C56.4847 76.8885 56.4847 77.3468 56.4847 77.749C56.4847 78.2587 56.4873 78.6655 56.4925 78.9695C56.5238 79.0536 56.5394 79.2009 56.5394 79.4114C56.5394 79.4581 56.5394 79.5049 56.5394 79.5517C56.5394 79.5984 56.5394 79.6475 56.5394 79.699ZM52.7723 81.7402C53.8404 81.7402 54.6845 80.9756 55.3045 79.4464C55.3462 79.3482 55.3801 79.2641 55.4061 79.1939C55.4322 79.1238 55.4556 79.0653 55.4765 79.0186V78.3803C54.3458 77.0756 53.2907 76.3858 52.3111 76.311C52.2642 76.3063 52.2174 76.304 52.1705 76.304C51.7119 76.304 51.3133 76.4419 50.9747 76.7178C50.636 76.9891 50.3755 77.3374 50.1931 77.763C50.0107 78.1839 49.9196 78.6234 49.9196 79.0817C49.9196 79.8673 50.1749 80.508 50.6855 81.0037C51.1961 81.4947 51.8917 81.7402 52.7723 81.7402Z" fill="black"/>
<path d="M59.314 80.3092C59.4651 80.7956 59.7569 81.1767 60.1893 81.4526C60.627 81.7285 61.1767 81.8664 61.8384 81.8664C62.7242 81.8664 63.7533 81.6069 64.9256 81.0878C64.9986 81.0551 65.0741 81.0387 65.1523 81.0387C65.2877 81.0387 65.405 81.0808 65.504 81.165C65.6082 81.2492 65.6603 81.3544 65.6603 81.4806C65.6603 81.6817 65.5665 81.8243 65.3789 81.9085C64.7849 82.1704 64.1805 82.3808 63.5657 82.5398C62.9509 82.6988 62.3569 82.7783 61.7837 82.7783C61.1949 82.7783 60.6452 82.6801 60.1346 82.4837C59.6292 82.2873 59.1967 81.96 58.8372 81.5017C58.634 81.2445 58.4777 80.9709 58.3683 80.681C58.2589 80.3911 58.2042 80.0661 58.2042 79.706C58.2042 79.547 58.2146 79.381 58.2354 79.208C58.3553 78.3148 58.7695 77.5502 59.4781 76.9142C60.3951 76.0912 61.6014 75.6797 63.0968 75.6797C63.6699 75.6797 64.1727 75.7802 64.6052 75.9813C65.0376 76.1777 65.3451 76.4583 65.5274 76.8231C65.6264 77.0241 65.6759 77.2369 65.6759 77.4614C65.6759 77.8448 65.5639 78.1838 65.3398 78.4785C65.121 78.7684 64.8084 79.0373 64.402 79.2851C63.2609 79.9772 61.6066 80.3232 59.439 80.3232C59.4078 80.3232 59.3661 80.3186 59.314 80.3092ZM59.228 79.4535C59.3009 79.4254 59.3713 79.4114 59.439 79.4114C61.4034 79.4114 62.8701 79.1168 63.8392 78.5276C64.1102 78.3639 64.316 78.1979 64.4567 78.0295C64.5974 77.8565 64.6677 77.6578 64.6677 77.4333C64.6677 77.3024 64.6338 77.1971 64.5661 77.1177C64.5036 77.0382 64.4202 76.9633 64.316 76.8932C64.0242 76.6921 63.6204 76.5916 63.1046 76.5916C62.4116 76.5916 61.7811 76.7085 61.2132 76.9423C60.6452 77.1714 60.1841 77.5011 59.8298 77.9313C59.4807 78.3569 59.2801 78.8642 59.228 79.4535Z" fill="black"/>
<path d="M74.8906 79.699C74.8906 80.045 74.9088 80.4215 74.9453 80.8283C74.9818 81.2305 75 81.5859 75 81.8945C75 82.0769 74.9583 82.2359 74.8749 82.3715C74.7968 82.5024 74.6535 82.5679 74.4451 82.5679C74.3044 82.5679 74.1898 82.5188 74.1012 82.4206C74.0126 82.3224 73.9631 82.2101 73.9527 82.0839C73.9423 81.9623 73.9319 81.8197 73.9214 81.656C73.911 81.4923 73.9006 81.31 73.8902 81.1089C73.1659 82.1377 72.2411 82.652 71.1156 82.652C70.3601 82.652 69.6906 82.5024 69.107 82.2031C68.5286 81.9038 68.0727 81.49 67.7393 80.9616C67.411 80.4285 67.2469 79.8159 67.2469 79.1238C67.2469 78.6 67.3459 78.0903 67.5439 77.5946C67.7419 77.0943 68.0102 76.6617 68.3489 76.297C68.9012 75.6984 69.6124 75.3991 70.4825 75.3991C70.5763 75.3991 70.6727 75.4015 70.7717 75.4061C71.7721 75.4763 72.7908 75.9977 73.8277 76.9704C73.8277 76.6804 73.8277 76.3414 73.8277 75.9533C73.8277 75.5604 73.8303 75.1209 73.8355 74.6345L73.8511 72.923C73.8511 72.7781 73.9032 72.6682 74.0074 72.5933C74.1168 72.5185 74.2341 72.4811 74.3591 72.4811C74.4894 72.4811 74.6066 72.5185 74.7108 72.5933C74.815 72.6682 74.8671 72.7804 74.8671 72.93L74.8515 74.6486C74.8463 75.2799 74.8411 75.8551 74.8359 76.3741C74.8359 76.8885 74.8359 77.3468 74.8359 77.749C74.8359 78.2587 74.8385 78.6655 74.8437 78.9695C74.8749 79.0536 74.8906 79.2009 74.8906 79.4114C74.8906 79.4581 74.8906 79.5049 74.8906 79.5517C74.8906 79.5984 74.8906 79.6475 74.8906 79.699ZM71.1234 81.7402C72.1916 81.7402 73.0357 80.9756 73.6557 79.4464C73.6974 79.3482 73.7313 79.2641 73.7573 79.1939C73.7834 79.1238 73.8068 79.0653 73.8277 79.0186V78.3803C72.697 77.0756 71.6419 76.3858 70.6623 76.311C70.6154 76.3063 70.5685 76.304 70.5216 76.304C70.0631 76.304 69.6645 76.4419 69.3258 76.7178C68.9872 76.9891 68.7266 77.3374 68.5443 77.763C68.3619 78.1839 68.2707 78.6234 68.2707 79.0817C68.2707 79.8673 68.526 80.508 69.0367 81.0037C69.5473 81.4947 70.2429 81.7402 71.1234 81.7402Z" fill="black"/>
<path d="M44.0703 28.1758C43.4701 28.0608 42.8698 28.3484 42.7198 28.8085L38.9683 40.3122C38.8557 40.7148 39.0808 41.1175 39.5685 41.29C39.7186 41.3475 39.8686 41.3763 40.0562 41.3763C40.3938 41.3763 40.7315 41.2612 40.9566 41.0312L55.5499 25.7313C55.8126 25.4724 55.8501 25.1273 55.6625 24.8397C55.4749 24.5522 55.0998 24.3796 54.6496 24.3796H48.4971L51.986 11.0066C51.986 11.0066 51.986 11.0066 51.986 10.9778C51.986 10.9491 51.986 10.9203 51.986 10.8628C51.986 10.834 51.986 10.8053 51.986 10.8053C51.986 10.7765 51.986 10.7477 51.986 10.719C51.986 10.6902 51.986 10.6615 51.986 10.6327C51.986 10.6039 51.9485 10.5752 51.9485 10.5464C51.9485 10.5177 51.911 10.4889 51.911 10.4601C51.911 10.4314 51.8735 10.4026 51.8735 10.3739C51.8735 10.3451 51.836 10.3164 51.836 10.3164C51.7984 10.2876 51.7984 10.2588 51.7609 10.2588C51.7234 10.2301 51.7234 10.2301 51.6859 10.2013C51.6484 10.1726 51.6484 10.1726 51.6109 10.1438C51.5733 10.1438 51.5358 10.115 51.4983 10.115C51.4983 10.115 51.4983 10.115 51.4608 10.115C51.4233 10.115 51.4233 10.0863 51.3858 10.0863C51.3482 10.0863 51.3107 10.0575 51.2732 10.0575C51.2357 10.0575 51.1982 10.0288 51.1607 10.0288C51.1232 10.0288 51.1232 10.0288 51.0857 10C51.0857 10 51.0856 10 51.0481 10C51.0106 10 50.9731 10 50.9356 10C50.8981 10 50.8606 10 50.823 10C50.7855 10 50.748 10 50.7105 10C50.673 10 50.6355 10 50.5979 10C50.5604 10 50.5229 10.0288 50.4854 10.0288C50.4479 10.0288 50.4104 10.0288 50.4104 10.0575C50.3729 10.0575 50.3353 10.0863 50.2978 10.115C50.2603 10.115 50.2603 10.1438 50.2228 10.1438C50.1853 10.1726 50.1478 10.1726 50.1103 10.2013C50.0727 10.2301 50.0727 10.2301 50.0352 10.2588C49.9977 10.2876 49.9977 10.3164 49.9602 10.3164C49.9227 10.3451 49.9227 10.3739 49.8852 10.3739C49.8852 10.3739 49.8852 10.3739 49.8852 10.4026L35.7419 28.3196C35.4043 28.7222 35.5919 29.2687 36.1171 29.4987C36.3047 29.585 36.4922 29.6138 36.7173 29.6138C37.0925 29.6138 37.4676 29.47 37.6927 29.2111L48.5346 15.493L46.0586 25.0411C45.9836 25.2999 46.0961 25.5587 46.2837 25.76C46.5088 25.9614 46.8089 26.0764 47.1466 26.0764H52.4362L42.5697 36.4585L44.9332 29.2399C45.0457 28.751 44.7081 28.2909 44.0703 28.1758Z" fill="black"/>
</svg>
