<svg width="93" height="96" viewBox="0 0 93 96" fill="none" xmlns="http://www.w3.org/2000/svg">
<rect x="0.5" y="0.5" width="92" height="95" rx="13.5" fill="white" stroke="white"/>
<path d="M42.6623 27.0678C43.305 27.0678 43.8964 27.1867 44.4368 27.4244C46.0409 28.1975 46.988 29.6668 47 31.3052V42.591C46.6991 44.3851 44.5545 43.8973 44.5026 42.591V31.9346C44.3115 31.3269 43.086 31.5788 43.0567 31.9346V56.3941C42.7451 58.8917 39.3746 58.1585 39.2887 56.3521V41.3743C39.0732 40.4083 37.6548 40.8472 37.6237 41.4163C37.6839 46.3947 37.6675 51.3735 37.6675 56.3521C37.3314 58.8369 33.9773 58.2011 33.8995 56.3941L33.8557 31.9346C33.6593 31.34 32.5237 31.568 32.4974 31.9346V42.591C32.1965 44.3851 30.0519 43.8973 30 42.591V31.3052C30.0303 29.7367 30.6307 28.1653 32.0593 27.4244C32.5267 27.1867 33.0962 27.0678 33.768 27.0678L42.6623 27.0678V27.0678ZM42.6182 21.9426C42.6182 24.12 40.7747 25.8852 38.5008 25.8852C36.2269 25.8852 34.3834 24.12 34.3834 21.9426C34.3834 19.7652 36.2268 18 38.5007 18C40.7747 18 42.6182 19.7652 42.6182 21.9426V21.9426Z" fill="#D3AB98"/>
<path d="M60.6623 27.0678C61.305 27.0678 61.8964 27.1867 62.4368 27.4244C64.0409 28.1975 64.988 29.6668 65 31.3052V42.591C64.6991 44.3851 62.5545 43.8973 62.5026 42.591V31.9346C62.3115 31.3269 61.086 31.5788 61.0567 31.9346V56.3941C60.7451 58.8917 57.3746 58.1585 57.2887 56.3521V41.3743C57.0732 40.4083 55.6548 40.8472 55.6237 41.4163C55.6839 46.3947 55.6675 51.3735 55.6675 56.3521C55.3314 58.8369 51.9773 58.2011 51.8995 56.3941L51.8557 31.9346C51.6593 31.34 50.5237 31.568 50.4974 31.9346V42.591C50.1965 44.3851 48.0519 43.8973 48 42.591V31.3052C48.0303 29.7367 48.6307 28.1653 50.0593 27.4244C50.5267 27.1867 51.0962 27.0678 51.768 27.0678L60.6623 27.0678V27.0678ZM60.6182 21.9426C60.6182 24.12 58.7747 25.8852 56.5008 25.8852C54.2269 25.8852 52.3834 24.12 52.3834 21.9426C52.3834 19.7652 54.2268 18 56.5007 18C58.7747 18 60.6182 19.7652 60.6182 21.9426V21.9426Z" fill="#D3AB98"/>
<path d="M10.66 63H17.02C18.54 63 19.88 63.2933 21.04 63.88C22.2133 64.4533 23.12 65.2667 23.76 66.32C24.4133 67.3733 24.74 68.6 24.74 70C24.74 71.4 24.4133 72.6267 23.76 73.68C23.12 74.7333 22.2133 75.5533 21.04 76.14C19.88 76.7133 18.54 77 17.02 77H10.66V63ZM16.86 74.34C18.26 74.34 19.3733 73.9533 20.2 73.18C21.04 72.3933 21.46 71.3333 21.46 70C21.46 68.6667 21.04 67.6133 20.2 66.84C19.3733 66.0533 18.26 65.66 16.86 65.66H13.9V74.34H16.86ZM32.0834 77.16C30.9501 77.16 29.9301 76.9267 29.0234 76.46C28.1301 75.98 27.4301 75.32 26.9234 74.48C26.4168 73.64 26.1634 72.6867 26.1634 71.62C26.1634 70.5533 26.4168 69.6 26.9234 68.76C27.4301 67.92 28.1301 67.2667 29.0234 66.8C29.9301 66.32 30.9501 66.08 32.0834 66.08C33.2168 66.08 34.2301 66.32 35.1234 66.8C36.0168 67.2667 36.7168 67.92 37.2234 68.76C37.7301 69.6 37.9834 70.5533 37.9834 71.62C37.9834 72.6867 37.7301 73.64 37.2234 74.48C36.7168 75.32 36.0168 75.98 35.1234 76.46C34.2301 76.9267 33.2168 77.16 32.0834 77.16ZM32.0834 74.6C32.8834 74.6 33.5368 74.3333 34.0434 73.8C34.5634 73.2533 34.8234 72.5267 34.8234 71.62C34.8234 70.7133 34.5634 69.9933 34.0434 69.46C33.5368 68.9133 32.8834 68.64 32.0834 68.64C31.2834 68.64 30.6234 68.9133 30.1034 69.46C29.5834 69.9933 29.3234 70.7133 29.3234 71.62C29.3234 72.5267 29.5834 73.2533 30.1034 73.8C30.6234 74.3333 31.2834 74.6 32.0834 74.6ZM50.9089 66.24V77H47.9489V75.72C47.5356 76.1867 47.0422 76.5467 46.4689 76.8C45.8956 77.04 45.2756 77.16 44.6089 77.16C43.1956 77.16 42.0756 76.7533 41.2489 75.94C40.4222 75.1267 40.0089 73.92 40.0089 72.32V66.24H43.1289V71.86C43.1289 73.5933 43.8556 74.46 45.3089 74.46C46.0556 74.46 46.6556 74.22 47.1089 73.74C47.5622 73.2467 47.7889 72.52 47.7889 71.56V66.24H50.9089ZM60.1594 66.08C61.1594 66.08 62.066 66.3133 62.8794 66.78C63.706 67.2333 64.3527 67.88 64.8194 68.72C65.286 69.5467 65.5194 70.5133 65.5194 71.62C65.5194 72.7267 65.286 73.7 64.8194 74.54C64.3527 75.3667 63.706 76.0133 62.8794 76.48C62.066 76.9333 61.1594 77.16 60.1594 77.16C58.6794 77.16 57.5527 76.6933 56.7794 75.76V77H53.7994V62.16H56.9194V67.38C57.706 66.5133 58.786 66.08 60.1594 66.08ZM59.6194 74.6C60.4194 74.6 61.0727 74.3333 61.5794 73.8C62.0994 73.2533 62.3594 72.5267 62.3594 71.62C62.3594 70.7133 62.0994 69.9933 61.5794 69.46C61.0727 68.9133 60.4194 68.64 59.6194 68.64C58.8194 68.64 58.1594 68.9133 57.6394 69.46C57.1327 69.9933 56.8794 70.7133 56.8794 71.62C56.8794 72.5267 57.1327 73.2533 57.6394 73.8C58.1594 74.3333 58.8194 74.6 59.6194 74.6ZM67.608 62.16H70.728V77H67.608V62.16ZM84.1636 71.66C84.1636 71.7 84.1436 71.98 84.1036 72.5H75.9636C76.1103 73.1667 76.4569 73.6933 77.0036 74.08C77.5503 74.4667 78.2303 74.66 79.0436 74.66C79.6036 74.66 80.0969 74.58 80.5236 74.42C80.9636 74.2467 81.3703 73.98 81.7436 73.62L83.4036 75.42C82.3903 76.58 80.9103 77.16 78.9636 77.16C77.7503 77.16 76.6769 76.9267 75.7436 76.46C74.8103 75.98 74.0903 75.32 73.5836 74.48C73.0769 73.64 72.8236 72.6867 72.8236 71.62C72.8236 70.5667 73.0703 69.62 73.5636 68.78C74.0703 67.9267 74.7569 67.2667 75.6236 66.8C76.5036 66.32 77.4836 66.08 78.5636 66.08C79.6169 66.08 80.5703 66.3067 81.4236 66.76C82.2769 67.2133 82.9436 67.8667 83.4236 68.72C83.9169 69.56 84.1636 70.54 84.1636 71.66ZM78.5836 68.44C77.8769 68.44 77.2836 68.64 76.8036 69.04C76.3236 69.44 76.0303 69.9867 75.9236 70.68H81.2236C81.1169 70 80.8236 69.46 80.3436 69.06C79.8636 68.6467 79.2769 68.44 78.5836 68.44Z" fill="#D3AB98"/>
</svg>
