<svg width="148" height="96" viewBox="0 0 148 96" fill="none" xmlns="http://www.w3.org/2000/svg">
<rect x="0.5" y="0.5" width="139" height="95" rx="13.5" fill="#E7936D" stroke="#E7936D"/>
<path d="M74.75 23.375C74.75 20.9469 76.975 19 79.75 19H88.5C91.25 19 93.5 20.9688 93.5 23.375V28.1C90.6 28.9969 88.5 31.4031 88.5 34.2469V38.6875H74.75V23.375ZM58.5 34.225V38.6875H72.25V23.375C72.25 20.9469 70.025 19 67.25 19H58.5C55.75 19 53.5 20.9688 53.5 23.375V28.0781C56.4 28.975 58.5 31.4031 58.5 34.225ZM95.15 30.0031C92.7 30.3531 91 32.3875 91 34.575V40.875H56V34.3125C56 33.1522 55.4732 32.0394 54.5355 31.2189C53.5979 30.3984 52.3261 29.9375 51 29.9375C49.6739 29.9375 48.4021 30.3984 47.4645 31.2189C46.5268 32.0394 46 33.1522 46 34.3125V45.25C46 47.6562 48.25 49.625 51 49.625V54H56V49.625H91V54H96V49.625C98.75 49.625 101 47.6562 101 45.25V34.3125C101 31.6656 98.275 29.5437 95.15 30.0031Z" fill="white"/>
<path d="M9.66 60H12.9V71.36H19.92V74H9.66V60ZM21.5103 63.24H24.6303V74H21.5103V63.24ZM23.0703 61.74C22.497 61.74 22.0303 61.5733 21.6703 61.24C21.3103 60.9067 21.1303 60.4933 21.1303 60C21.1303 59.5067 21.3103 59.0933 21.6703 58.76C22.0303 58.4267 22.497 58.26 23.0703 58.26C23.6436 58.26 24.1103 58.42 24.4703 58.74C24.8303 59.06 25.0103 59.46 25.0103 59.94C25.0103 60.46 24.8303 60.8933 24.4703 61.24C24.1103 61.5733 23.6436 61.74 23.0703 61.74ZM38.2059 63.24L33.6659 74H30.4459L25.9259 63.24H29.1459L32.1259 70.56L35.2059 63.24H38.2059ZM39.4791 63.24H42.5991V74H39.4791V63.24ZM41.0391 61.74C40.4657 61.74 39.9991 61.5733 39.6391 61.24C39.2791 60.9067 39.0991 60.4933 39.0991 60C39.0991 59.5067 39.2791 59.0933 39.6391 58.76C39.9991 58.4267 40.4657 58.26 41.0391 58.26C41.6124 58.26 42.0791 58.42 42.4391 58.74C42.7991 59.06 42.9791 59.46 42.9791 59.94C42.9791 60.46 42.7991 60.8933 42.4391 61.24C42.0791 61.5733 41.6124 61.74 41.0391 61.74ZM52.0347 63.08C53.368 63.08 54.4414 63.48 55.2547 64.28C56.0814 65.08 56.4947 66.2667 56.4947 67.84V74H53.3747V68.32C53.3747 67.4667 53.188 66.8333 52.8147 66.42C52.4414 65.9933 51.9014 65.78 51.1947 65.78C50.408 65.78 49.7814 66.0267 49.3147 66.52C48.848 67 48.6147 67.72 48.6147 68.68V74H45.4947V63.24H48.4747V64.5C48.888 64.0467 49.4014 63.7 50.0147 63.46C50.628 63.2067 51.3014 63.08 52.0347 63.08ZM70.54 63.24V72.2C70.54 74.1733 70.0267 75.64 69 76.6C67.9733 77.56 66.4733 78.04 64.5 78.04C63.46 78.04 62.4733 77.9133 61.54 77.66C60.6067 77.4067 59.8333 77.04 59.22 76.56L60.46 74.32C60.9133 74.6933 61.4867 74.9867 62.18 75.2C62.8733 75.4267 63.5667 75.54 64.26 75.54C65.34 75.54 66.1333 75.2933 66.64 74.8C67.16 74.32 67.42 73.5867 67.42 72.6V72.14C66.6067 73.0333 65.4733 73.48 64.02 73.48C63.0333 73.48 62.1267 73.2667 61.3 72.84C60.4867 72.4 59.84 71.7867 59.36 71C58.88 70.2133 58.64 69.3067 58.64 68.28C58.64 67.2533 58.88 66.3467 59.36 65.56C59.84 64.7733 60.4867 64.1667 61.3 63.74C62.1267 63.3 63.0333 63.08 64.02 63.08C65.58 63.08 66.7667 63.5933 67.58 64.62V63.24H70.54ZM64.64 70.92C65.4667 70.92 66.14 70.68 66.66 70.2C67.1933 69.7067 67.46 69.0667 67.46 68.28C67.46 67.4933 67.1933 66.86 66.66 66.38C66.14 65.8867 65.4667 65.64 64.64 65.64C63.8133 65.64 63.1333 65.8867 62.6 66.38C62.0667 66.86 61.8 67.4933 61.8 68.28C61.8 69.0667 62.0667 69.7067 62.6 70.2C63.1333 70.68 63.8133 70.92 64.64 70.92ZM82.088 64.66C82.4613 64.14 82.9613 63.7467 83.588 63.48C84.228 63.2133 84.9613 63.08 85.788 63.08V65.96C85.4413 65.9333 85.208 65.92 85.088 65.92C84.1946 65.92 83.4946 66.1733 82.988 66.68C82.4813 67.1733 82.228 67.92 82.228 68.92V74H79.108V63.24H82.088V64.66ZM92.6655 74.16C91.5321 74.16 90.5121 73.9267 89.6055 73.46C88.7121 72.98 88.0121 72.32 87.5055 71.48C86.9988 70.64 86.7455 69.6867 86.7455 68.62C86.7455 67.5533 86.9988 66.6 87.5055 65.76C88.0121 64.92 88.7121 64.2667 89.6055 63.8C90.5121 63.32 91.5321 63.08 92.6655 63.08C93.7988 63.08 94.8121 63.32 95.7055 63.8C96.5988 64.2667 97.2988 64.92 97.8055 65.76C98.3121 66.6 98.5655 67.5533 98.5655 68.62C98.5655 69.6867 98.3121 70.64 97.8055 71.48C97.2988 72.32 96.5988 72.98 95.7055 73.46C94.8121 73.9267 93.7988 74.16 92.6655 74.16ZM92.6655 71.6C93.4655 71.6 94.1188 71.3333 94.6255 70.8C95.1455 70.2533 95.4055 69.5267 95.4055 68.62C95.4055 67.7133 95.1455 66.9933 94.6255 66.46C94.1188 65.9133 93.4655 65.64 92.6655 65.64C91.8655 65.64 91.2055 65.9133 90.6855 66.46C90.1655 66.9933 89.9055 67.7133 89.9055 68.62C89.9055 69.5267 90.1655 70.2533 90.6855 70.8C91.2055 71.3333 91.8655 71.6 92.6655 71.6ZM105.771 74.16C104.638 74.16 103.618 73.9267 102.711 73.46C101.818 72.98 101.118 72.32 100.611 71.48C100.104 70.64 99.8509 69.6867 99.8509 68.62C99.8509 67.5533 100.104 66.6 100.611 65.76C101.118 64.92 101.818 64.2667 102.711 63.8C103.618 63.32 104.638 63.08 105.771 63.08C106.904 63.08 107.918 63.32 108.811 63.8C109.704 64.2667 110.404 64.92 110.911 65.76C111.418 66.6 111.671 67.5533 111.671 68.62C111.671 69.6867 111.418 70.64 110.911 71.48C110.404 72.32 109.704 72.98 108.811 73.46C107.918 73.9267 106.904 74.16 105.771 74.16ZM105.771 71.6C106.571 71.6 107.224 71.3333 107.731 70.8C108.251 70.2533 108.511 69.5267 108.511 68.62C108.511 67.7133 108.251 66.9933 107.731 66.46C107.224 65.9133 106.571 65.64 105.771 65.64C104.971 65.64 104.311 65.9133 103.791 66.46C103.271 66.9933 103.011 67.7133 103.011 68.62C103.011 69.5267 103.271 70.2533 103.791 70.8C104.311 71.3333 104.971 71.6 105.771 71.6ZM127.536 63.08C128.883 63.08 129.95 63.48 130.736 64.28C131.536 65.0667 131.936 66.2533 131.936 67.84V74H128.816V68.32C128.816 67.4667 128.636 66.8333 128.276 66.42C127.93 65.9933 127.43 65.78 126.776 65.78C126.043 65.78 125.463 66.02 125.036 66.5C124.61 66.9667 124.396 67.6667 124.396 68.6V74H121.276V68.32C121.276 66.6267 120.596 65.78 119.236 65.78C118.516 65.78 117.943 66.02 117.516 66.5C117.09 66.9667 116.876 67.6667 116.876 68.6V74H113.756V63.24H116.736V64.48C117.136 64.0267 117.623 63.68 118.196 63.44C118.783 63.2 119.423 63.08 120.116 63.08C120.876 63.08 121.563 63.2333 122.176 63.54C122.79 63.8333 123.283 64.2667 123.656 64.84C124.096 64.28 124.65 63.8467 125.316 63.54C125.996 63.2333 126.736 63.08 127.536 63.08Z" fill="white"/>
</svg>
