<svg width="87" height="96" viewBox="0 0 87 96" fill="none" xmlns="http://www.w3.org/2000/svg">
<rect x="0.5" y="0.5" width="86" height="95" rx="13.5" fill="#E7936D" stroke="#E7936D"/>
<path d="M59.2667 50.0909C59.2667 49.0857 60.0333 48.267 60.9561 47.8684C63.3869 46.8185 65 44.3259 65 41.8333C65 38.3667 61.6556 35.3333 57.8333 35.3333C54.0111 35.3333 50.6667 38.3667 50.6667 41.8333C50.6667 44.3259 52.2797 46.8185 54.7106 47.8684C55.6334 48.267 56.4 49.0857 56.4 50.0909V52.8333C56.4 53.9379 55.5046 54.8333 54.4 54.8333H47.8889C46.7843 54.8333 45.8889 53.9379 45.8889 52.8333V20C45.8889 18.8954 44.9935 18 43.8889 18H28.7778C27.6732 18 26.7778 18.8954 26.7778 20V52.8333C26.7778 53.9379 25.8823 54.8333 24.7778 54.8333H23.0833C22.485 54.8333 22 55.3184 22 55.9167C22 56.515 22.485 57 23.0833 57H63.9167C64.515 57 65 56.515 65 55.9167C65 55.3184 64.515 54.8333 63.9167 54.8333H61.2667C60.1621 54.8333 59.2667 53.9379 59.2667 52.8333V50.0909ZM31.5556 24.3333C31.5556 23.2288 32.451 22.3333 33.5556 22.3333H39.1111C40.2157 22.3333 41.1111 23.2288 41.1111 24.3333V24.6667C41.1111 25.7712 40.2157 26.6667 39.1111 26.6667H33.5556C32.451 26.6667 31.5556 25.7712 31.5556 24.6667V24.3333ZM31.5556 33C31.5556 31.8954 32.451 31 33.5556 31H39.1111C40.2157 31 41.1111 31.8954 41.1111 33V33.3333C41.1111 34.4379 40.2157 35.3333 39.1111 35.3333H33.5556C32.451 35.3333 31.5556 34.4379 31.5556 33.3333V33ZM31.5556 41.6667C31.5556 40.5621 32.451 39.6667 33.5556 39.6667H39.1111C40.2157 39.6667 41.1111 40.5621 41.1111 41.6667V42C41.1111 43.1046 40.2157 44 39.1111 44H33.5556C32.451 44 31.5556 43.1046 31.5556 42V41.6667Z" fill="white"/>
<path d="M23.26 77.24C22.1533 77.24 21.08 77.0933 20.04 76.8C19.0133 76.4933 18.1867 76.1 17.56 75.62L18.66 73.18C19.26 73.62 19.9733 73.9733 20.8 74.24C21.6267 74.5067 22.4533 74.64 23.28 74.64C24.2 74.64 24.88 74.5067 25.32 74.24C25.76 73.96 25.98 73.5933 25.98 73.14C25.98 72.8067 25.8467 72.5333 25.58 72.32C25.3267 72.0933 24.9933 71.9133 24.58 71.78C24.18 71.6467 23.6333 71.5 22.94 71.34C21.8733 71.0867 21 70.8333 20.32 70.58C19.64 70.3267 19.0533 69.92 18.56 69.36C18.08 68.8 17.84 68.0533 17.84 67.12C17.84 66.3067 18.06 65.5733 18.5 64.92C18.94 64.2533 19.6 63.7267 20.48 63.34C21.3733 62.9533 22.46 62.76 23.74 62.76C24.6333 62.76 25.5067 62.8667 26.36 63.08C27.2133 63.2933 27.96 63.6 28.6 64L27.6 66.46C26.3067 65.7267 25.0133 65.36 23.72 65.36C22.8133 65.36 22.14 65.5067 21.7 65.8C21.2733 66.0933 21.06 66.48 21.06 66.96C21.06 67.44 21.3067 67.8 21.8 68.04C22.3067 68.2667 23.0733 68.4933 24.1 68.72C25.1667 68.9733 26.04 69.2267 26.72 69.48C27.4 69.7333 27.98 70.1333 28.46 70.68C28.9533 71.2267 29.2 71.9667 29.2 72.9C29.2 73.7 28.9733 74.4333 28.52 75.1C28.08 75.7533 27.4133 76.2733 26.52 76.66C25.6267 77.0467 24.54 77.24 23.26 77.24ZM42.0339 66.24V77H39.0739V75.72C38.6606 76.1867 38.1672 76.5467 37.5939 76.8C37.0206 77.04 36.4006 77.16 35.7339 77.16C34.3206 77.16 33.2006 76.7533 32.3739 75.94C31.5472 75.1267 31.1339 73.92 31.1339 72.32V66.24H34.2539V71.86C34.2539 73.5933 34.9806 74.46 36.4339 74.46C37.1806 74.46 37.7806 74.22 38.2339 73.74C38.6872 73.2467 38.9139 72.52 38.9139 71.56V66.24H42.0339ZM44.9244 66.24H48.0444V77H44.9244V66.24ZM46.4844 64.74C45.911 64.74 45.4444 64.5733 45.0844 64.24C44.7244 63.9067 44.5444 63.4933 44.5444 63C44.5444 62.5067 44.7244 62.0933 45.0844 61.76C45.4444 61.4267 45.911 61.26 46.4844 61.26C47.0577 61.26 47.5244 61.42 47.8844 61.74C48.2444 62.06 48.4244 62.46 48.4244 62.94C48.4244 63.46 48.2444 63.8933 47.8844 64.24C47.5244 64.5733 47.0577 64.74 46.4844 64.74ZM57.88 76.48C57.5733 76.7067 57.1933 76.88 56.74 77C56.3 77.1067 55.8333 77.16 55.34 77.16C54.06 77.16 53.0667 76.8333 52.36 76.18C51.6667 75.5267 51.32 74.5667 51.32 73.3V68.88H49.66V66.48H51.32V63.86H54.44V66.48H57.12V68.88H54.44V73.26C54.44 73.7133 54.5533 74.0667 54.78 74.32C55.02 74.56 55.3533 74.68 55.78 74.68C56.2733 74.68 56.6933 74.5467 57.04 74.28L57.88 76.48ZM69.8394 71.66C69.8394 71.7 69.8194 71.98 69.7794 72.5H61.6394C61.786 73.1667 62.1327 73.6933 62.6794 74.08C63.226 74.4667 63.906 74.66 64.7194 74.66C65.2794 74.66 65.7727 74.58 66.1994 74.42C66.6394 74.2467 67.046 73.98 67.4194 73.62L69.0794 75.42C68.066 76.58 66.586 77.16 64.6394 77.16C63.426 77.16 62.3527 76.9267 61.4194 76.46C60.486 75.98 59.766 75.32 59.2594 74.48C58.7527 73.64 58.4994 72.6867 58.4994 71.62C58.4994 70.5667 58.746 69.62 59.2394 68.78C59.746 67.9267 60.4327 67.2667 61.2994 66.8C62.1794 66.32 63.1594 66.08 64.2394 66.08C65.2927 66.08 66.246 66.3067 67.0994 66.76C67.9527 67.2133 68.6194 67.8667 69.0994 68.72C69.5927 69.56 69.8394 70.54 69.8394 71.66ZM64.2594 68.44C63.5527 68.44 62.9594 68.64 62.4794 69.04C61.9994 69.44 61.706 69.9867 61.5994 70.68H66.8994C66.7927 70 66.4994 69.46 66.0194 69.06C65.5394 68.6467 64.9527 68.44 64.2594 68.44Z" fill="white"/>
</svg>
