<svg width="102" height="96" viewBox="0 0 102 96" fill="none" xmlns="http://www.w3.org/2000/svg">
<rect x="0.5" y="0.5" width="101" height="95" rx="13.5" fill="#E7936D" stroke="#E7936D"/>
<path d="M38.6623 27.0678C39.305 27.0678 39.8964 27.1867 40.4368 27.4244C42.0409 28.1975 42.988 29.6668 43 31.3052V42.591C42.6991 44.3851 40.5545 43.8973 40.5026 42.591V31.9346C40.3115 31.3269 39.086 31.5788 39.0567 31.9346V56.3941C38.7451 58.8917 35.3746 58.1585 35.2887 56.3521V41.3743C35.0732 40.4083 33.6548 40.8472 33.6237 41.4163C33.6839 46.3947 33.6675 51.3735 33.6675 56.3521C33.3314 58.8369 29.9773 58.2011 29.8995 56.3941L29.8557 31.9346C29.6593 31.34 28.5237 31.568 28.4974 31.9346V42.591C28.1965 44.3851 26.0519 43.8973 26 42.591V31.3052C26.0303 29.7367 26.6307 28.1653 28.0593 27.4244C28.5267 27.1867 29.0962 27.0678 29.768 27.0678L38.6623 27.0678ZM38.6182 21.9426C38.6182 24.12 36.7747 25.8852 34.5008 25.8852C32.2269 25.8852 30.3834 24.12 30.3834 21.9426C30.3834 19.7652 32.2268 18 34.5007 18C36.7747 18 38.6182 19.7652 38.6182 21.9426Z" fill="white"/>
<path d="M56.6623 27.0678C57.305 27.0678 57.8964 27.1867 58.4368 27.4244C60.0409 28.1975 60.988 29.6668 61 31.3052V42.591C60.6991 44.3851 58.5545 43.8973 58.5026 42.591V31.9346C58.3115 31.3269 57.086 31.5788 57.0567 31.9346V56.3941C56.7451 58.8917 53.3746 58.1585 53.2887 56.3521V41.3743C53.0732 40.4083 51.6548 40.8472 51.6237 41.4163C51.6839 46.3947 51.6675 51.3735 51.6675 56.3521C51.3314 58.8369 47.9773 58.2011 47.8995 56.3941L47.8557 31.9346C47.6593 31.34 46.5237 31.568 46.4974 31.9346V42.591C46.1965 44.3851 44.0519 43.8973 44 42.591V31.3052C44.0303 29.7367 44.6307 28.1653 46.0593 27.4244C46.5267 27.1867 47.0962 27.0678 47.768 27.0678L56.6623 27.0678ZM56.6182 21.9426C56.6182 24.12 54.7747 25.8852 52.5008 25.8852C50.2269 25.8852 48.3834 24.12 48.3834 21.9426C48.3834 19.7652 50.2268 18 52.5007 18C54.7747 18 56.6182 19.7652 56.6182 21.9426Z" fill="white"/>
<path d="M74.6623 27.0678C75.305 27.0678 75.8964 27.1867 76.4368 27.4244C78.0409 28.1975 78.988 29.6668 79 31.3052V42.591C78.6991 44.3851 76.5545 43.8973 76.5026 42.591V31.9346C76.3115 31.3269 75.086 31.5788 75.0567 31.9346V56.3941C74.7451 58.8917 71.3746 58.1585 71.2887 56.3521V41.3743C71.0732 40.4083 69.6548 40.8472 69.6237 41.4163C69.6839 46.3947 69.6675 51.3735 69.6675 56.3521C69.3314 58.8369 65.9773 58.2011 65.8995 56.3941L65.8557 31.9346C65.6593 31.34 64.5237 31.568 64.4974 31.9346V42.591C64.1965 44.3851 62.0519 43.8973 62 42.591V31.3052C62.0303 29.7367 62.6307 28.1653 64.0593 27.4244C64.5267 27.1867 65.0962 27.0678 65.768 27.0678L74.6623 27.0678ZM74.6182 21.9426C74.6182 24.12 72.7747 25.8852 70.5008 25.8852C68.2269 25.8852 66.3834 24.12 66.3834 21.9426C66.3834 19.7652 68.2268 18 70.5007 18C72.7747 18 74.6182 19.7652 74.6182 21.9426Z" fill="white"/>
<path d="M27.56 65.64H23.08V63H35.28V65.64H30.8V77H27.56V65.64ZM39.5489 67.66C39.9222 67.14 40.4222 66.7467 41.0489 66.48C41.6889 66.2133 42.4222 66.08 43.2489 66.08V68.96C42.9022 68.9333 42.6689 68.92 42.5489 68.92C41.6556 68.92 40.9556 69.1733 40.4489 69.68C39.9422 70.1733 39.6889 70.92 39.6889 71.92V77H36.5689V66.24H39.5489V67.66ZM45.1041 66.24H48.2241V77H45.1041V66.24ZM46.6641 64.74C46.0907 64.74 45.6241 64.5733 45.2641 64.24C44.9041 63.9067 44.7241 63.4933 44.7241 63C44.7241 62.5067 44.9041 62.0933 45.2641 61.76C45.6241 61.4267 46.0907 61.26 46.6641 61.26C47.2374 61.26 47.7041 61.42 48.0641 61.74C48.4241 62.06 48.6041 62.46 48.6041 62.94C48.6041 63.46 48.4241 63.8933 48.0641 64.24C47.7041 64.5733 47.2374 64.74 46.6641 64.74ZM57.4797 66.08C58.4797 66.08 59.3864 66.3133 60.1997 66.78C61.0264 67.2333 61.673 67.88 62.1397 68.72C62.6064 69.5467 62.8397 70.5133 62.8397 71.62C62.8397 72.7267 62.6064 73.7 62.1397 74.54C61.673 75.3667 61.0264 76.0133 60.1997 76.48C59.3864 76.9333 58.4797 77.16 57.4797 77.16C56.1064 77.16 55.0264 76.7267 54.2397 75.86V80.88H51.1197V66.24H54.0997V67.48C54.873 66.5467 55.9997 66.08 57.4797 66.08ZM56.9397 74.6C57.7397 74.6 58.393 74.3333 58.8997 73.8C59.4197 73.2533 59.6797 72.5267 59.6797 71.62C59.6797 70.7133 59.4197 69.9933 58.8997 69.46C58.393 68.9133 57.7397 68.64 56.9397 68.64C56.1397 68.64 55.4797 68.9133 54.9597 69.46C54.453 69.9933 54.1997 70.7133 54.1997 71.62C54.1997 72.5267 54.453 73.2533 54.9597 73.8C55.4797 74.3333 56.1397 74.6 56.9397 74.6ZM64.9283 62.16H68.0483V77H64.9283V62.16ZM81.4839 71.66C81.4839 71.7 81.4639 71.98 81.4239 72.5H73.2839C73.4306 73.1667 73.7772 73.6933 74.3239 74.08C74.8706 74.4667 75.5506 74.66 76.3639 74.66C76.9239 74.66 77.4172 74.58 77.8439 74.42C78.2839 74.2467 78.6906 73.98 79.0639 73.62L80.7239 75.42C79.7106 76.58 78.2306 77.16 76.2839 77.16C75.0706 77.16 73.9972 76.9267 73.0639 76.46C72.1306 75.98 71.4106 75.32 70.9039 74.48C70.3972 73.64 70.1439 72.6867 70.1439 71.62C70.1439 70.5667 70.3906 69.62 70.8839 68.78C71.3906 67.9267 72.0772 67.2667 72.9439 66.8C73.8239 66.32 74.8039 66.08 75.8839 66.08C76.9372 66.08 77.8906 66.3067 78.7439 66.76C79.5972 67.2133 80.2639 67.8667 80.7439 68.72C81.2372 69.56 81.4839 70.54 81.4839 71.66ZM75.9039 68.44C75.1972 68.44 74.6039 68.64 74.1239 69.04C73.6439 69.44 73.3506 69.9867 73.2439 70.68H78.5439C78.4372 70 78.1439 69.46 77.6639 69.06C77.1839 68.6467 76.5972 68.44 75.9039 68.44Z" fill="white"/>
</svg>
