<svg width="294" height="44" viewBox="0 0 294 44" fill="none" xmlns="http://www.w3.org/2000/svg">
<path d="M0 10C0 4.47715 4.47715 0 10 0H284C289.523 0 294 4.47715 294 10V34C294 39.5228 289.523 44 284 44H10C4.47716 44 0 39.5228 0 34V10Z" fill="white"/>
<path d="M37.72 15C38.96 15 40.0333 15.2067 40.94 15.62C41.86 16.0333 42.5667 16.62 43.06 17.38C43.5533 18.14 43.8 19.04 43.8 20.08C43.8 21.1067 43.5533 22.0067 43.06 22.78C42.5667 23.54 41.86 24.1267 40.94 24.54C40.0333 24.94 38.96 25.14 37.72 25.14H34.9V29H31.66V15H37.72ZM37.54 22.5C38.5133 22.5 39.2533 22.2933 39.76 21.88C40.2667 21.4533 40.52 20.8533 40.52 20.08C40.52 19.2933 40.2667 18.6933 39.76 18.28C39.2533 17.8533 38.5133 17.64 37.54 17.64H34.9V22.5H37.54ZM50.1355 18.08C51.8021 18.08 53.0821 18.48 53.9755 19.28C54.8688 20.0667 55.3155 21.26 55.3155 22.86V29H52.3955V27.66C51.8088 28.66 50.7155 29.16 49.1155 29.16C48.2888 29.16 47.5688 29.02 46.9555 28.74C46.3555 28.46 45.8955 28.0733 45.5755 27.58C45.2555 27.0867 45.0955 26.5267 45.0955 25.9C45.0955 24.9 45.4688 24.1133 46.2155 23.54C46.9755 22.9667 48.1421 22.68 49.7155 22.68H52.1955C52.1955 22 51.9888 21.48 51.5755 21.12C51.1621 20.7467 50.5421 20.56 49.7155 20.56C49.1421 20.56 48.5755 20.6533 48.0155 20.84C47.4688 21.0133 47.0021 21.2533 46.6155 21.56L45.4955 19.38C46.0821 18.9667 46.7821 18.6467 47.5955 18.42C48.4221 18.1933 49.2688 18.08 50.1355 18.08ZM49.8955 27.06C50.4288 27.06 50.9021 26.94 51.3155 26.7C51.7288 26.4467 52.0221 26.08 52.1955 25.6V24.5H50.0555C48.7755 24.5 48.1355 24.92 48.1355 25.76C48.1355 26.16 48.2888 26.48 48.5955 26.72C48.9155 26.9467 49.3488 27.06 49.8955 27.06ZM61.1192 19.66C61.4926 19.14 61.9926 18.7467 62.6192 18.48C63.2592 18.2133 63.9926 18.08 64.8192 18.08V20.96C64.4726 20.9333 64.2392 20.92 64.1192 20.92C63.2259 20.92 62.5259 21.1733 62.0192 21.68C61.5126 22.1733 61.2592 22.92 61.2592 23.92V29H58.1392V18.24H61.1192V19.66ZM71.2944 24.78L69.7944 26.26V29H66.6744V14.16H69.7944V22.56L74.3544 18.24H78.0744L73.5944 22.8L78.4744 29H74.6944L71.2944 24.78ZM79.7994 18.24H82.9194V29H79.7994V18.24ZM81.3594 16.74C80.786 16.74 80.3194 16.5733 79.9594 16.24C79.5994 15.9067 79.4194 15.4933 79.4194 15C79.4194 14.5067 79.5994 14.0933 79.9594 13.76C80.3194 13.4267 80.786 13.26 81.3594 13.26C81.9327 13.26 82.3994 13.42 82.7594 13.74C83.1194 14.06 83.2994 14.46 83.2994 14.94C83.2994 15.46 83.1194 15.8933 82.7594 16.24C82.3994 16.5733 81.9327 16.74 81.3594 16.74ZM92.355 18.08C93.6883 18.08 94.7617 18.48 95.575 19.28C96.4017 20.08 96.815 21.2667 96.815 22.84V29H93.695V23.32C93.695 22.4667 93.5083 21.8333 93.135 21.42C92.7617 20.9933 92.2217 20.78 91.515 20.78C90.7283 20.78 90.1017 21.0267 89.635 21.52C89.1683 22 88.935 22.72 88.935 23.68V29H85.815V18.24H88.795V19.5C89.2083 19.0467 89.7217 18.7 90.335 18.46C90.9483 18.2067 91.6217 18.08 92.355 18.08ZM110.86 18.24V27.2C110.86 29.1733 110.347 30.64 109.32 31.6C108.294 32.56 106.794 33.04 104.82 33.04C103.78 33.04 102.794 32.9133 101.86 32.66C100.927 32.4067 100.154 32.04 99.5403 31.56L100.78 29.32C101.234 29.6933 101.807 29.9867 102.5 30.2C103.194 30.4267 103.887 30.54 104.58 30.54C105.66 30.54 106.454 30.2933 106.96 29.8C107.48 29.32 107.74 28.5867 107.74 27.6V27.14C106.927 28.0333 105.794 28.48 104.34 28.48C103.354 28.48 102.447 28.2667 101.62 27.84C100.807 27.4 100.16 26.7867 99.6803 26C99.2003 25.2133 98.9603 24.3067 98.9603 23.28C98.9603 22.2533 99.2003 21.3467 99.6803 20.56C100.16 19.7733 100.807 19.1667 101.62 18.74C102.447 18.3 103.354 18.08 104.34 18.08C105.9 18.08 107.087 18.5933 107.9 19.62V18.24H110.86ZM104.96 25.92C105.787 25.92 106.46 25.68 106.98 25.2C107.514 24.7067 107.78 24.0667 107.78 23.28C107.78 22.4933 107.514 21.86 106.98 21.38C106.46 20.8867 105.787 20.64 104.96 20.64C104.134 20.64 103.454 20.8867 102.92 21.38C102.387 21.86 102.12 22.4933 102.12 23.28C102.12 24.0667 102.387 24.7067 102.92 25.2C103.454 25.68 104.134 25.92 104.96 25.92ZM123.048 29.16C122.155 29.16 121.282 29.0533 120.428 28.84C119.575 28.6133 118.895 28.3333 118.388 28L119.428 25.76C119.908 26.0667 120.488 26.32 121.168 26.52C121.848 26.7067 122.515 26.8 123.168 26.8C124.488 26.8 125.148 26.4733 125.148 25.82C125.148 25.5133 124.968 25.2933 124.608 25.16C124.248 25.0267 123.695 24.9133 122.948 24.82C122.068 24.6867 121.342 24.5333 120.768 24.36C120.195 24.1867 119.695 23.88 119.268 23.44C118.855 23 118.648 22.3733 118.648 21.56C118.648 20.88 118.842 20.28 119.228 19.76C119.628 19.2267 120.202 18.8133 120.948 18.52C121.708 18.2267 122.602 18.08 123.628 18.08C124.388 18.08 125.142 18.1667 125.888 18.34C126.648 18.5 127.275 18.7267 127.768 19.02L126.728 21.24C125.782 20.7067 124.748 20.44 123.628 20.44C122.962 20.44 122.462 20.5333 122.128 20.72C121.795 20.9067 121.628 21.1467 121.628 21.44C121.628 21.7733 121.808 22.0067 122.168 22.14C122.528 22.2733 123.102 22.4 123.888 22.52C124.768 22.6667 125.488 22.8267 126.048 23C126.608 23.16 127.095 23.46 127.508 23.9C127.922 24.34 128.128 24.9533 128.128 25.74C128.128 26.4067 127.928 27 127.528 27.52C127.128 28.04 126.542 28.4467 125.768 28.74C125.008 29.02 124.102 29.16 123.048 29.16ZM136.413 18.08C137.413 18.08 138.32 18.3133 139.133 18.78C139.96 19.2333 140.607 19.88 141.073 20.72C141.54 21.5467 141.773 22.5133 141.773 23.62C141.773 24.7267 141.54 25.7 141.073 26.54C140.607 27.3667 139.96 28.0133 139.133 28.48C138.32 28.9333 137.413 29.16 136.413 29.16C135.04 29.16 133.96 28.7267 133.173 27.86V32.88H130.053V18.24H133.033V19.48C133.807 18.5467 134.933 18.08 136.413 18.08ZM135.873 26.6C136.673 26.6 137.327 26.3333 137.833 25.8C138.353 25.2533 138.613 24.5267 138.613 23.62C138.613 22.7133 138.353 21.9933 137.833 21.46C137.327 20.9133 136.673 20.64 135.873 20.64C135.073 20.64 134.413 20.9133 133.893 21.46C133.387 21.9933 133.133 22.7133 133.133 23.62C133.133 24.5267 133.387 25.2533 133.893 25.8C134.413 26.3333 135.073 26.6 135.873 26.6ZM148.982 29.16C147.849 29.16 146.829 28.9267 145.922 28.46C145.029 27.98 144.329 27.32 143.822 26.48C143.315 25.64 143.062 24.6867 143.062 23.62C143.062 22.5533 143.315 21.6 143.822 20.76C144.329 19.92 145.029 19.2667 145.922 18.8C146.829 18.32 147.849 18.08 148.982 18.08C150.115 18.08 151.129 18.32 152.022 18.8C152.915 19.2667 153.615 19.92 154.122 20.76C154.629 21.6 154.882 22.5533 154.882 23.62C154.882 24.6867 154.629 25.64 154.122 26.48C153.615 27.32 152.915 27.98 152.022 28.46C151.129 28.9267 150.115 29.16 148.982 29.16ZM148.982 26.6C149.782 26.6 150.435 26.3333 150.942 25.8C151.462 25.2533 151.722 24.5267 151.722 23.62C151.722 22.7133 151.462 21.9933 150.942 21.46C150.435 20.9133 149.782 20.64 148.982 20.64C148.182 20.64 147.522 20.9133 147.002 21.46C146.482 21.9933 146.222 22.7133 146.222 23.62C146.222 24.5267 146.482 25.2533 147.002 25.8C147.522 26.3333 148.182 26.6 148.982 26.6ZM163.907 28.48C163.601 28.7067 163.221 28.88 162.767 29C162.327 29.1067 161.861 29.16 161.367 29.16C160.087 29.16 159.094 28.8333 158.387 28.18C157.694 27.5267 157.347 26.5667 157.347 25.3V20.88H155.687V18.48H157.347V15.86H160.467V18.48H163.147V20.88H160.467V25.26C160.467 25.7133 160.581 26.0667 160.807 26.32C161.047 26.56 161.381 26.68 161.807 26.68C162.301 26.68 162.721 26.5467 163.067 26.28L163.907 28.48ZM177.683 18.08C178.683 18.08 179.589 18.3133 180.403 18.78C181.229 19.2333 181.876 19.88 182.343 20.72C182.809 21.5467 183.043 22.5133 183.043 23.62C183.043 24.7267 182.809 25.7 182.343 26.54C181.876 27.3667 181.229 28.0133 180.403 28.48C179.589 28.9333 178.683 29.16 177.683 29.16C176.309 29.16 175.229 28.7267 174.443 27.86V32.88H171.323V18.24H174.303V19.48C175.076 18.5467 176.203 18.08 177.683 18.08ZM177.143 26.6C177.943 26.6 178.596 26.3333 179.103 25.8C179.623 25.2533 179.883 24.5267 179.883 23.62C179.883 22.7133 179.623 21.9933 179.103 21.46C178.596 20.9133 177.943 20.64 177.143 20.64C176.343 20.64 175.683 20.9133 175.163 21.46C174.656 21.9933 174.403 22.7133 174.403 23.62C174.403 24.5267 174.656 25.2533 175.163 25.8C175.683 26.3333 176.343 26.6 177.143 26.6ZM188.111 19.66C188.485 19.14 188.985 18.7467 189.611 18.48C190.251 18.2133 190.985 18.08 191.811 18.08V20.96C191.465 20.9333 191.231 20.92 191.111 20.92C190.218 20.92 189.518 21.1733 189.011 21.68C188.505 22.1733 188.251 22.92 188.251 23.92V29H185.131V18.24H188.111V19.66ZM198.689 29.16C197.556 29.16 196.536 28.9267 195.629 28.46C194.736 27.98 194.036 27.32 193.529 26.48C193.022 25.64 192.769 24.6867 192.769 23.62C192.769 22.5533 193.022 21.6 193.529 20.76C194.036 19.92 194.736 19.2667 195.629 18.8C196.536 18.32 197.556 18.08 198.689 18.08C199.822 18.08 200.836 18.32 201.729 18.8C202.622 19.2667 203.322 19.92 203.829 20.76C204.336 21.6 204.589 22.5533 204.589 23.62C204.589 24.6867 204.336 25.64 203.829 26.48C203.322 27.32 202.622 27.98 201.729 28.46C200.836 28.9267 199.822 29.16 198.689 29.16ZM198.689 26.6C199.489 26.6 200.142 26.3333 200.649 25.8C201.169 25.2533 201.429 24.5267 201.429 23.62C201.429 22.7133 201.169 21.9933 200.649 21.46C200.142 20.9133 199.489 20.64 198.689 20.64C197.889 20.64 197.229 20.9133 196.709 21.46C196.189 21.9933 195.929 22.7133 195.929 23.62C195.929 24.5267 196.189 25.2533 196.709 25.8C197.229 26.3333 197.889 26.6 198.689 26.6ZM217.061 18.24L212.521 29H209.301L204.781 18.24H208.001L210.981 25.56L214.061 18.24H217.061ZM218.335 18.24H221.455V29H218.335V18.24ZM219.895 16.74C219.321 16.74 218.855 16.5733 218.495 16.24C218.135 15.9067 217.955 15.4933 217.955 15C217.955 14.5067 218.135 14.0933 218.495 13.76C218.855 13.4267 219.321 13.26 219.895 13.26C220.468 13.26 220.935 13.42 221.295 13.74C221.655 14.06 221.835 14.46 221.835 14.94C221.835 15.46 221.655 15.8933 221.295 16.24C220.935 16.5733 220.468 16.74 219.895 16.74ZM235.31 14.16V29H232.33V27.76C231.557 28.6933 230.437 29.16 228.97 29.16C227.957 29.16 227.037 28.9333 226.21 28.48C225.397 28.0267 224.757 27.38 224.29 26.54C223.823 25.7 223.59 24.7267 223.59 23.62C223.59 22.5133 223.823 21.54 224.29 20.7C224.757 19.86 225.397 19.2133 226.21 18.76C227.037 18.3067 227.957 18.08 228.97 18.08C230.343 18.08 231.417 18.5133 232.19 19.38V14.16H235.31ZM229.51 26.6C230.297 26.6 230.95 26.3333 231.47 25.8C231.99 25.2533 232.25 24.5267 232.25 23.62C232.25 22.7133 231.99 21.9933 231.47 21.46C230.95 20.9133 230.297 20.64 229.51 20.64C228.71 20.64 228.05 20.9133 227.53 21.46C227.01 21.9933 226.75 22.7133 226.75 23.62C226.75 24.5267 227.01 25.2533 227.53 25.8C228.05 26.3333 228.71 26.6 229.51 26.6ZM248.738 23.66C248.738 23.7 248.718 23.98 248.678 24.5H240.538C240.684 25.1667 241.031 25.6933 241.578 26.08C242.124 26.4667 242.804 26.66 243.618 26.66C244.178 26.66 244.671 26.58 245.098 26.42C245.538 26.2467 245.944 25.98 246.318 25.62L247.978 27.42C246.964 28.58 245.484 29.16 243.538 29.16C242.324 29.16 241.251 28.9267 240.318 28.46C239.384 27.98 238.664 27.32 238.158 26.48C237.651 25.64 237.398 24.6867 237.398 23.62C237.398 22.5667 237.644 21.62 238.138 20.78C238.644 19.9267 239.331 19.2667 240.198 18.8C241.078 18.32 242.058 18.08 243.138 18.08C244.191 18.08 245.144 18.3067 245.998 18.76C246.851 19.2133 247.518 19.8667 247.998 20.72C248.491 21.56 248.738 22.54 248.738 23.66ZM243.158 20.44C242.451 20.44 241.858 20.64 241.378 21.04C240.898 21.44 240.604 21.9867 240.498 22.68H245.798C245.691 22 245.398 21.46 244.918 21.06C244.438 20.6467 243.851 20.44 243.158 20.44ZM261.775 14.16V29H258.795V27.76C258.022 28.6933 256.902 29.16 255.435 29.16C254.422 29.16 253.502 28.9333 252.675 28.48C251.862 28.0267 251.222 27.38 250.755 26.54C250.288 25.7 250.055 24.7267 250.055 23.62C250.055 22.5133 250.288 21.54 250.755 20.7C251.222 19.86 251.862 19.2133 252.675 18.76C253.502 18.3067 254.422 18.08 255.435 18.08C256.808 18.08 257.882 18.5133 258.655 19.38V14.16H261.775ZM255.975 26.6C256.762 26.6 257.415 26.3333 257.935 25.8C258.455 25.2533 258.715 24.5267 258.715 23.62C258.715 22.7133 258.455 21.9933 257.935 21.46C257.415 20.9133 256.762 20.64 255.975 20.64C255.175 20.64 254.515 20.9133 253.995 21.46C253.475 21.9933 253.215 22.7133 253.215 23.62C253.215 24.5267 253.475 25.2533 253.995 25.8C254.515 26.3333 255.175 26.6 255.975 26.6Z" fill="#D3AB98"/>
<path d="M10 3H284V-3H10V3ZM291 10V34H297V10H291ZM284 41H10V47H284V41ZM3 34V10H-3V34H3ZM10 41C6.13401 41 3 37.866 3 34H-3C-3 41.1797 2.82031 47 10 47V41ZM291 34C291 37.866 287.866 41 284 41V47C291.18 47 297 41.1797 297 34H291ZM284 3C287.866 3 291 6.13401 291 10H297C297 2.8203 291.18 -3 284 -3V3ZM10 -3C2.8203 -3 -3 2.8203 -3 10H3C3 6.13401 6.13401 3 10 3V-3Z" fill="#D3AB98"/>
</svg>
