<svg width="244" height="44" viewBox="0 0 244 44" fill="none" xmlns="http://www.w3.org/2000/svg">
<path d="M0 10C0 4.47715 4.47715 0 10 0H234C239.523 0 244 4.47715 244 10V34C244 39.5228 239.523 44 234 44H10C4.47716 44 0 39.5228 0 34V10Z" fill="#E7936D"/>
<path d="M37.72 15C38.96 15 40.0333 15.2067 40.94 15.62C41.86 16.0333 42.5667 16.62 43.06 17.38C43.5533 18.14 43.8 19.04 43.8 20.08C43.8 21.1067 43.5533 22.0067 43.06 22.78C42.5667 23.54 41.86 24.1267 40.94 24.54C40.0333 24.94 38.96 25.14 37.72 25.14H34.9V29H31.66V15H37.72ZM37.54 22.5C38.5133 22.5 39.2533 22.2933 39.76 21.88C40.2667 21.4533 40.52 20.8533 40.52 20.08C40.52 19.2933 40.2667 18.6933 39.76 18.28C39.2533 17.8533 38.5133 17.64 37.54 17.64H34.9V22.5H37.54ZM48.8731 19.66C49.2465 19.14 49.7465 18.7467 50.3731 18.48C51.0131 18.2133 51.7465 18.08 52.5731 18.08V20.96C52.2265 20.9333 51.9931 20.92 51.8731 20.92C50.9798 20.92 50.2798 21.1733 49.7731 21.68C49.2665 22.1733 49.0131 22.92 49.0131 23.92V29H45.8931V18.24H48.8731V19.66ZM54.4283 18.24H57.5483V29H54.4283V18.24ZM55.9883 16.74C55.4149 16.74 54.9483 16.5733 54.5883 16.24C54.2283 15.9067 54.0483 15.4933 54.0483 15C54.0483 14.5067 54.2283 14.0933 54.5883 13.76C54.9483 13.4267 55.4149 13.26 55.9883 13.26C56.5616 13.26 57.0283 13.42 57.3883 13.74C57.7483 14.06 57.9283 14.46 57.9283 14.94C57.9283 15.46 57.7483 15.8933 57.3883 16.24C57.0283 16.5733 56.5616 16.74 55.9883 16.74ZM71.1239 18.24L66.5839 29H63.3639L58.8439 18.24H62.0639L65.0439 25.56L68.1239 18.24H71.1239ZM76.3855 18.08C78.0521 18.08 79.3321 18.48 80.2255 19.28C81.1188 20.0667 81.5655 21.26 81.5655 22.86V29H78.6455V27.66C78.0588 28.66 76.9655 29.16 75.3655 29.16C74.5388 29.16 73.8188 29.02 73.2055 28.74C72.6055 28.46 72.1455 28.0733 71.8255 27.58C71.5055 27.0867 71.3455 26.5267 71.3455 25.9C71.3455 24.9 71.7188 24.1133 72.4655 23.54C73.2255 22.9667 74.3921 22.68 75.9655 22.68H78.4455C78.4455 22 78.2388 21.48 77.8255 21.12C77.4121 20.7467 76.7921 20.56 75.9655 20.56C75.3921 20.56 74.8255 20.6533 74.2655 20.84C73.7188 21.0133 73.2521 21.2533 72.8655 21.56L71.7455 19.38C72.3321 18.9667 73.0321 18.6467 73.8455 18.42C74.6721 18.1933 75.5188 18.08 76.3855 18.08ZM76.1455 27.06C76.6788 27.06 77.1521 26.94 77.5655 26.7C77.9788 26.4467 78.2721 26.08 78.4455 25.6V24.5H76.3055C75.0255 24.5 74.3855 24.92 74.3855 25.76C74.3855 26.16 74.5388 26.48 74.8455 26.72C75.1655 26.9467 75.5988 27.06 76.1455 27.06ZM91.3292 28.48C91.0226 28.7067 90.6426 28.88 90.1892 29C89.7492 29.1067 89.2826 29.16 88.7892 29.16C87.5092 29.16 86.5159 28.8333 85.8092 28.18C85.1159 27.5267 84.7692 26.5667 84.7692 25.3V20.88H83.1092V18.48H84.7692V15.86H87.8892V18.48H90.5692V20.88H87.8892V25.26C87.8892 25.7133 88.0026 26.0667 88.2292 26.32C88.4692 26.56 88.8026 26.68 89.2292 26.68C89.7226 26.68 90.1426 26.5467 90.4892 26.28L91.3292 28.48ZM103.289 23.66C103.289 23.7 103.269 23.98 103.229 24.5H95.0886C95.2353 25.1667 95.5819 25.6933 96.1286 26.08C96.6753 26.4667 97.3553 26.66 98.1686 26.66C98.7286 26.66 99.2219 26.58 99.6486 26.42C100.089 26.2467 100.495 25.98 100.869 25.62L102.529 27.42C101.515 28.58 100.035 29.16 98.0886 29.16C96.8753 29.16 95.8019 28.9267 94.8686 28.46C93.9353 27.98 93.2153 27.32 92.7086 26.48C92.2019 25.64 91.9486 24.6867 91.9486 23.62C91.9486 22.5667 92.1953 21.62 92.6886 20.78C93.1953 19.9267 93.8819 19.2667 94.7486 18.8C95.6286 18.32 96.6086 18.08 97.6886 18.08C98.7419 18.08 99.6953 18.3067 100.549 18.76C101.402 19.2133 102.069 19.8667 102.549 20.72C103.042 21.56 103.289 22.54 103.289 23.66ZM97.7086 20.44C97.0019 20.44 96.4086 20.64 95.9286 21.04C95.4486 21.44 95.1553 21.9867 95.0486 22.68H100.349C100.242 22 99.9486 21.46 99.4686 21.06C98.9886 20.6467 98.4019 20.44 97.7086 20.44ZM117.39 18.08C118.39 18.08 119.297 18.3133 120.11 18.78C120.937 19.2333 121.583 19.88 122.05 20.72C122.517 21.5467 122.75 22.5133 122.75 23.62C122.75 24.7267 122.517 25.7 122.05 26.54C121.583 27.3667 120.937 28.0133 120.11 28.48C119.297 28.9333 118.39 29.16 117.39 29.16C115.91 29.16 114.783 28.6933 114.01 27.76V29H111.03V14.16H114.15V19.38C114.937 18.5133 116.017 18.08 117.39 18.08ZM116.85 26.6C117.65 26.6 118.303 26.3333 118.81 25.8C119.33 25.2533 119.59 24.5267 119.59 23.62C119.59 22.7133 119.33 21.9933 118.81 21.46C118.303 20.9133 117.65 20.64 116.85 20.64C116.05 20.64 115.39 20.9133 114.87 21.46C114.363 21.9933 114.11 22.7133 114.11 23.62C114.11 24.5267 114.363 25.2533 114.87 25.8C115.39 26.3333 116.05 26.6 116.85 26.6ZM129.003 18.08C130.669 18.08 131.949 18.48 132.843 19.28C133.736 20.0667 134.183 21.26 134.183 22.86V29H131.263V27.66C130.676 28.66 129.583 29.16 127.983 29.16C127.156 29.16 126.436 29.02 125.823 28.74C125.223 28.46 124.763 28.0733 124.443 27.58C124.123 27.0867 123.963 26.5267 123.963 25.9C123.963 24.9 124.336 24.1133 125.083 23.54C125.843 22.9667 127.009 22.68 128.583 22.68H131.063C131.063 22 130.856 21.48 130.443 21.12C130.029 20.7467 129.409 20.56 128.583 20.56C128.009 20.56 127.443 20.6533 126.883 20.84C126.336 21.0133 125.869 21.2533 125.483 21.56L124.363 19.38C124.949 18.9667 125.649 18.6467 126.463 18.42C127.289 18.1933 128.136 18.08 129.003 18.08ZM128.763 27.06C129.296 27.06 129.769 26.94 130.183 26.7C130.596 26.4467 130.889 26.08 131.063 25.6V24.5H128.923C127.643 24.5 127.003 24.92 127.003 25.76C127.003 26.16 127.156 26.48 127.463 26.72C127.783 26.9467 128.216 27.06 128.763 27.06ZM143.946 28.48C143.64 28.7067 143.26 28.88 142.806 29C142.366 29.1067 141.9 29.16 141.406 29.16C140.126 29.16 139.133 28.8333 138.426 28.18C137.733 27.5267 137.386 26.5667 137.386 25.3V20.88H135.726V18.48H137.386V15.86H140.506V18.48H143.186V20.88H140.506V25.26C140.506 25.7133 140.62 26.0667 140.846 26.32C141.086 26.56 141.42 26.68 141.846 26.68C142.34 26.68 142.76 26.5467 143.106 26.28L143.946 28.48ZM152.238 18.08C153.571 18.08 154.644 18.48 155.458 19.28C156.284 20.08 156.698 21.2667 156.698 22.84V29H153.578V23.32C153.578 22.4667 153.391 21.8333 153.018 21.42C152.644 20.9933 152.104 20.78 151.398 20.78C150.611 20.78 149.984 21.0267 149.518 21.52C149.051 22 148.818 22.72 148.818 23.68V29H145.698V14.16H148.818V19.36C149.231 18.9467 149.731 18.6333 150.318 18.42C150.904 18.1933 151.544 18.08 152.238 18.08ZM162.506 19.66C162.879 19.14 163.379 18.7467 164.006 18.48C164.646 18.2133 165.379 18.08 166.206 18.08V20.96C165.859 20.9333 165.626 20.92 165.506 20.92C164.613 20.92 163.913 21.1733 163.406 21.68C162.899 22.1733 162.646 22.92 162.646 23.92V29H159.526V18.24H162.506V19.66ZM173.083 29.16C171.95 29.16 170.93 28.9267 170.023 28.46C169.13 27.98 168.43 27.32 167.923 26.48C167.417 25.64 167.163 24.6867 167.163 23.62C167.163 22.5533 167.417 21.6 167.923 20.76C168.43 19.92 169.13 19.2667 170.023 18.8C170.93 18.32 171.95 18.08 173.083 18.08C174.217 18.08 175.23 18.32 176.123 18.8C177.017 19.2667 177.717 19.92 178.223 20.76C178.73 21.6 178.983 22.5533 178.983 23.62C178.983 24.6867 178.73 25.64 178.223 26.48C177.717 27.32 177.017 27.98 176.123 28.46C175.23 28.9267 174.217 29.16 173.083 29.16ZM173.083 26.6C173.883 26.6 174.537 26.3333 175.043 25.8C175.563 25.2533 175.823 24.5267 175.823 23.62C175.823 22.7133 175.563 21.9933 175.043 21.46C174.537 20.9133 173.883 20.64 173.083 20.64C172.283 20.64 171.623 20.9133 171.103 21.46C170.583 21.9933 170.323 22.7133 170.323 23.62C170.323 24.5267 170.583 25.2533 171.103 25.8C171.623 26.3333 172.283 26.6 173.083 26.6ZM186.189 29.16C185.056 29.16 184.036 28.9267 183.129 28.46C182.236 27.98 181.536 27.32 181.029 26.48C180.522 25.64 180.269 24.6867 180.269 23.62C180.269 22.5533 180.522 21.6 181.029 20.76C181.536 19.92 182.236 19.2667 183.129 18.8C184.036 18.32 185.056 18.08 186.189 18.08C187.322 18.08 188.336 18.32 189.229 18.8C190.122 19.2667 190.822 19.92 191.329 20.76C191.836 21.6 192.089 22.5533 192.089 23.62C192.089 24.6867 191.836 25.64 191.329 26.48C190.822 27.32 190.122 27.98 189.229 28.46C188.336 28.9267 187.322 29.16 186.189 29.16ZM186.189 26.6C186.989 26.6 187.642 26.3333 188.149 25.8C188.669 25.2533 188.929 24.5267 188.929 23.62C188.929 22.7133 188.669 21.9933 188.149 21.46C187.642 20.9133 186.989 20.64 186.189 20.64C185.389 20.64 184.729 20.9133 184.209 21.46C183.689 21.9933 183.429 22.7133 183.429 23.62C183.429 24.5267 183.689 25.2533 184.209 25.8C184.729 26.3333 185.389 26.6 186.189 26.6ZM207.954 18.08C209.301 18.08 210.368 18.48 211.154 19.28C211.954 20.0667 212.354 21.2533 212.354 22.84V29H209.234V23.32C209.234 22.4667 209.054 21.8333 208.694 21.42C208.348 20.9933 207.848 20.78 207.194 20.78C206.461 20.78 205.881 21.02 205.454 21.5C205.028 21.9667 204.814 22.6667 204.814 23.6V29H201.694V23.32C201.694 21.6267 201.014 20.78 199.654 20.78C198.934 20.78 198.361 21.02 197.934 21.5C197.508 21.9667 197.294 22.6667 197.294 23.6V29H194.174V18.24H197.154V19.48C197.554 19.0267 198.041 18.68 198.614 18.44C199.201 18.2 199.841 18.08 200.534 18.08C201.294 18.08 201.981 18.2333 202.594 18.54C203.208 18.8333 203.701 19.2667 204.074 19.84C204.514 19.28 205.068 18.8467 205.734 18.54C206.414 18.2333 207.154 18.08 207.954 18.08Z" fill="white"/>
<path d="M10 3H234V-3H10V3ZM241 10V34H247V10H241ZM234 41H10V47H234V41ZM3 34V10H-3V34H3ZM10 41C6.13401 41 3 37.866 3 34H-3C-3 41.1797 2.8203 47 10 47V41ZM241 34C241 37.866 237.866 41 234 41V47C241.18 47 247 41.1797 247 34H241ZM234 3C237.866 3 241 6.13401 241 10H247C247 2.8203 241.18 -3 234 -3V3ZM10 -3C2.8203 -3 -3 2.8203 -3 10H3C3 6.13401 6.13401 3 10 3V-3Z" fill="#E7936D"/>
</svg>
