<svg width="61" height="60" viewBox="0 0 61 60" fill="none" xmlns="http://www.w3.org/2000/svg">
<path d="M21.501 27.0005C21.501 25.4092 22.1331 23.8831 23.2583 22.7578C24.3836 21.6326 25.9097 21.0005 27.501 21.0005C29.0923 21.0005 30.6184 21.6326 31.7436 22.7578C32.8688 23.8831 33.501 25.4092 33.501 27.0005C33.501 28.5918 32.8688 30.1179 31.7436 31.2431C30.6184 32.3683 29.0923 33.0005 27.501 33.0005C25.9097 33.0005 24.3836 32.3683 23.2583 31.2431C22.1331 30.1179 21.501 28.5918 21.501 27.0005ZM27.501 24.0005C26.7053 24.0005 25.9423 24.3166 25.3797 24.8792C24.817 25.4418 24.501 26.2048 24.501 27.0005C24.501 27.7961 24.817 28.5592 25.3797 29.1218C25.9423 29.6844 26.7053 30.0005 27.501 30.0005C28.2966 30.0005 29.0597 29.6844 29.6223 29.1218C30.1849 28.5592 30.501 27.7961 30.501 27.0005C30.501 26.2048 30.1849 25.4418 29.6223 24.8792C29.0597 24.3166 28.2966 24.0005 27.501 24.0005Z" fill="#202020"/>
<path d="M11.001 12C9.8075 12 8.66291 12.4741 7.819 13.318C6.97508 14.1619 6.50098 15.3065 6.50098 16.5V37.5C6.50098 38.6935 6.97508 39.8381 7.819 40.682C8.66291 41.5259 9.8075 42 11.001 42H44.001C45.1945 42 46.339 41.5259 47.183 40.682C48.0269 39.8381 48.501 38.6935 48.501 37.5V16.5C48.501 15.3065 48.0269 14.1619 47.183 13.318C46.339 12.4741 45.1945 12 44.001 12H11.001ZM9.50098 16.5C9.50098 16.1022 9.65901 15.7206 9.94032 15.4393C10.2216 15.158 10.6032 15 11.001 15H15.501V18C15.501 18.7956 15.1849 19.5587 14.6223 20.1213C14.0597 20.6839 13.2966 21 12.501 21H9.50098V16.5ZM9.50098 24H12.501C14.0923 24 15.6184 23.3679 16.7436 22.2426C17.8688 21.1174 18.501 19.5913 18.501 18V15H36.501V18C36.501 19.5913 37.1331 21.1174 38.2583 22.2426C39.3836 23.3679 40.9097 24 42.501 24H45.501V30H42.501C40.9097 30 39.3836 30.6321 38.2583 31.7574C37.1331 32.8826 36.501 34.4087 36.501 36V39H18.501V36C18.501 34.4087 17.8688 32.8826 16.7436 31.7574C15.6184 30.6321 14.0923 30 12.501 30H9.50098V24ZM39.501 15H44.001C44.3988 15 44.7803 15.158 45.0616 15.4393C45.3429 15.7206 45.501 16.1022 45.501 16.5V21H42.501C41.7053 21 40.9423 20.6839 40.3797 20.1213C39.817 19.5587 39.501 18.7956 39.501 18V15ZM45.501 33V37.5C45.501 37.8978 45.3429 38.2794 45.0616 38.5607C44.7803 38.842 44.3988 39 44.001 39H39.501V36C39.501 35.2043 39.817 34.4413 40.3797 33.8787C40.9423 33.3161 41.7053 33 42.501 33H45.501ZM15.501 39H11.001C10.6032 39 10.2216 38.842 9.94032 38.5607C9.65901 38.2794 9.50098 37.8978 9.50098 37.5V33H12.501C13.2966 33 14.0597 33.3161 14.6223 33.8787C15.1849 34.4413 15.501 35.2043 15.501 36V39Z" fill="#202020"/>
<path d="M51.5004 37.4999C51.5004 39.489 50.7102 41.3967 49.3037 42.8032C47.8972 44.2097 45.9895 44.9999 44.0004 44.9999H12.7554C13.0657 45.8776 13.6406 46.6375 14.4009 47.1748C15.1612 47.7121 16.0694 48.0004 17.0004 47.9999H44.0004C46.7851 47.9999 49.4559 46.8936 51.425 44.9245C53.3941 42.9554 54.5004 40.2847 54.5004 37.4999V22.4999C54.5009 21.5689 54.2126 20.6607 53.6753 19.9004C53.138 19.1401 52.3781 18.5652 51.5004 18.2549V37.4999Z" fill="#202020"/>
</svg>
