<svg width="165" height="92" viewBox="0 0 165 92" fill="none" xmlns="http://www.w3.org/2000/svg">
<path d="M152.349 73.5255C152.165 73.9237 151.982 74.3167 151.799 74.7043C151.514 75.3065 151.232 75.897 150.954 76.4758C150.831 76.7323 150.707 76.984 150.587 77.2357C149.224 80.0347 147.952 82.5103 146.871 84.5462C145.891 86.3918 144.436 87.9384 142.657 89.0239C140.878 90.1095 138.841 90.6939 136.76 90.716L112.731 90.9789H112.477L110.418 91.0012L108.656 91.0203L103.257 91.0824H103.038L100.288 91.1127H100.204L83.2492 91.2975L68.1154 91.4568L66.355 91.4759L55.4218 91.5954H55.4043L48.3136 91.6719H48.2375L25.8165 91.9156L19.1092 91.9889C18.538 91.9954 17.9671 91.9667 17.3995 91.9029C17.2061 91.8806 17.0128 91.8551 16.8211 91.8248C13.6929 91.3393 10.8246 89.7909 8.69406 87.4375C5.80864 84.2323 3.70914 80.5205 2.29891 76.4758C2.09503 75.8927 1.90489 75.3023 1.72848 74.7043C-3.15345 58.1064 2.79804 36.7022 13.5094 22.3823C13.9584 21.7833 14.4147 21.1992 14.8785 20.63L14.8896 20.6172C18.1838 16.5518 21.8773 13.1554 25.8117 10.7403C32.7836 6.45346 40.5082 5.24593 48.106 8.84462C54.5344 11.8905 60.5366 13.3227 66.355 13.7114C66.9429 13.7496 67.5307 13.7783 68.1154 13.7958C81.4619 14.218 93.9701 9.38307 108.659 6.26229C109.243 6.13804 109.83 6.01537 110.421 5.89908C120.899 3.80263 132.523 2.69706 146.347 5.02131C147.783 5.25719 149.2 5.59794 150.587 6.04086C151.196 6.2384 151.784 6.4508 152.349 6.67808C158.947 9.3767 162.545 14.3629 164.074 20.6109C164.219 21.1907 164.344 21.7807 164.45 22.3807C167.161 37.4095 159.221 58.7277 152.349 73.5255Z" fill="#FDF4F0"/>
<path opacity="0.1" d="M78.7541 74.7041C78.6902 75.2999 78.5913 75.8915 78.4578 76.4755H93.3048V74.7041H78.7541ZM66.3552 84.71L68.1156 84.6957V80.3196C67.5119 80.2925 66.924 80.2654 66.3552 80.2367V84.71ZM29.4484 74.7041V76.4755H60.9012V74.7041H29.4484ZM164.082 20.6122H152.357V6.67941C151.792 6.44789 151.204 6.23548 150.595 6.0422V20.6186H110.421V5.89404C109.83 6.01034 109.244 6.133 108.659 6.25726V20.6122H68.1156V13.7908C67.5309 13.7732 66.943 13.7446 66.3552 13.7063V20.6122H25.8119V10.7353C21.8775 13.1504 18.184 16.5467 14.8897 20.6122H14.8786V20.6249C14.4138 21.1984 13.9575 21.7826 13.5096 22.3773H14.8786V74.7041H1.72705C1.90241 75.302 2.09255 75.8925 2.29748 76.4755H14.877V91.3896C15.51 91.5843 16.156 91.7328 16.8102 91.8341C17.0019 91.8644 17.1952 91.8899 17.3885 91.9122C17.9561 91.976 18.5271 92.0047 19.0982 91.9982L25.8055 91.9249V76.4724H66.3552V91.4804L68.1156 91.4613V76.4755H108.659V91.0216L110.421 91.0025V76.4755H150.587V77.2354C150.707 76.9837 150.831 76.732 150.955 76.4755C151.232 75.8978 151.514 75.3073 151.799 74.7041C151.982 74.3164 152.165 73.9235 152.349 73.5252V22.3884H164.458C164.351 21.7841 164.226 21.1921 164.082 20.6122ZM25.8119 74.7041V22.3821H66.3552V74.7041H25.8119ZM68.1187 74.7041V22.3821H108.659V74.7041H68.1187ZM150.59 74.7041H110.421V22.3821H150.587L150.59 74.7041Z" fill="black"/>
<path d="M132.265 56.2473C130.07 52.171 126.958 48.6662 123.178 46.012C122.908 45.8245 122.596 45.7064 122.27 45.6679C122.715 42.724 122.622 39.471 120.969 37.0177C117.047 31.1967 97.0665 37.2041 97.0665 37.2041C83.0609 32.323 70.9218 38.5183 70.9218 38.5183C70.9218 38.5183 55.422 36.0778 48.3264 37.956C44.9799 38.8417 44.1671 42.2731 44.2431 45.6536H44.232C43.9353 45.653 43.6423 45.7198 43.3748 45.8489C43.1074 45.978 42.8723 46.1661 42.6871 46.3991C40.7999 48.7696 35.0988 56.0705 35.2541 57.4804C35.4411 59.1706 41.6033 81.1355 41.3244 91.7436L127.41 90.7878C127.41 90.7878 128.836 69.4409 132.403 57.756C132.558 57.2546 132.508 56.712 132.265 56.2473Z" fill="#3F3D56"/>
<path opacity="0.1" d="M42.4463 57.5757L45.994 50.4404L48.9809 64.3334L49.0157 70.782L42.4463 57.5757Z" fill="black"/>
<path opacity="0.1" d="M123.862 57.5757L120.315 50.4404L116.2 63.6133L116.992 71.1006L123.862 57.5757Z" fill="black"/>
<path d="M48.7212 63.9547L116.206 63.5835L116.954 71.0931L48.9811 70.9051L48.7212 63.9547Z" fill="#3F3D56"/>
<path opacity="0.1" d="M48.7212 63.9547L116.206 63.5835L116.954 71.0931L48.9811 70.9051L48.7212 63.9547Z" fill="black"/>
<path opacity="0.1" d="M115.65 70.3618H50.358C49.4417 70.3618 48.699 71.1086 48.699 72.0297V76.7675C48.699 77.6886 49.4417 78.4354 50.358 78.4354H115.65C116.566 78.4354 117.309 77.6886 117.309 76.7675V72.0297C117.309 71.1086 116.566 70.3618 115.65 70.3618Z" fill="white"/>
<path d="M103.269 43.3533C103.269 43.3533 103.04 43.0347 102.771 43.2067C102.643 43.2912 102.039 44.0558 101.446 44.8332C101.155 45.214 100.865 45.5979 100.635 45.9038C100.351 46.2797 100.16 46.541 100.16 46.541L100.046 46.756L99.3531 48.0576L98.7019 49.281L98.5435 49.8577L100.743 50.6096L103.246 49.923L103.139 49.4563L103.12 49.3766L103.14 48.3029L103.197 45.2761L103.224 43.9141V43.7547L103.269 43.3533Z" fill="#FFE09C"/>
<path d="M98.2329 50.8149C98.2329 50.8149 100.61 51.6671 101.828 51.2211C101.828 51.2211 102.882 50.8834 103.297 50.5568C103.297 50.5568 103.739 50.3242 103.139 49.5659C103.139 49.5659 101.6 50.5138 100.144 50.141L98.6877 49.7666L98.2329 50.8149Z" fill="#E7C4C3"/>
<path d="M100.884 49.7364C101.255 49.518 101.406 49.0849 101.222 48.7691C101.038 48.4534 100.588 48.3744 100.217 48.5928C99.8467 48.8112 99.6954 49.2443 99.8794 49.56C100.063 49.8758 100.513 49.9548 100.884 49.7364Z" fill="#FF7F8E"/>
<path d="M102.464 47.8316C102.835 47.6132 102.986 47.1801 102.802 46.8643C102.618 46.5486 102.169 46.4696 101.798 46.688C101.427 46.9064 101.276 47.3395 101.46 47.6553C101.644 47.971 102.094 48.05 102.464 47.8316Z" fill="#FF7F8E"/>
<path d="M103.138 48.3029C103.019 48.2528 102.889 48.232 102.76 48.2423C102.632 48.2525 102.507 48.2935 102.397 48.3619C102.026 48.5801 101.874 49.0134 102.059 49.3288C102.245 49.6443 102.693 49.7239 103.062 49.5057C103.088 49.4897 103.113 49.4738 103.137 49.4563L103.118 49.3766L103.138 48.3029Z" fill="#FF7F8E"/>
<path d="M100.449 47.0399C100.405 46.9667 100.346 46.9036 100.277 46.8548C100.207 46.8059 100.127 46.7724 100.044 46.7563L99.3513 48.0579C99.4725 48.1128 99.6053 48.1369 99.7379 48.128C99.8706 48.1191 99.999 48.0775 100.112 48.0069C100.483 47.7886 100.633 47.3553 100.449 47.0399Z" fill="#FF7F8E"/>
<path d="M101.99 45.133C101.933 45.0409 101.853 44.9651 101.758 44.9127C101.664 44.8603 101.557 44.833 101.449 44.8335C101.158 45.2142 100.868 45.5982 100.638 45.904L100.648 45.9231C100.832 46.2417 101.282 46.3166 101.652 46.0984C102.023 45.8801 102.17 45.4484 101.99 45.133Z" fill="#FF7F8E"/>
<path d="M103.223 43.9121C103.141 43.9327 103.062 43.9649 102.99 44.0077C102.619 44.2259 102.468 44.6593 102.652 44.9747C102.71 45.0672 102.79 45.1433 102.885 45.1958C102.98 45.2482 103.087 45.2752 103.196 45.2742L103.223 43.9121Z" fill="#FF7F8E"/>
<path d="M99.532 49.136L99.4053 48.9209C99.5951 48.8639 99.7703 48.7661 99.9187 48.6342C99.9282 48.6246 99.9361 48.6135 99.944 48.6039C100.102 48.4032 100.069 48.8206 100.069 48.8206C100.069 48.8206 99.6794 49.1535 99.532 49.136Z" fill="#94CC79"/>
<path d="M101.402 48.803L101.275 48.5863C101.465 48.529 101.64 48.4312 101.788 48.2996C101.788 48.29 101.806 48.2805 101.814 48.2693C101.972 48.0702 101.939 48.486 101.939 48.486C101.939 48.486 101.549 48.8205 101.402 48.803Z" fill="#94CC79"/>
<path d="M101.231 47.9111L101.104 47.6944C101.294 47.6376 101.469 47.5403 101.617 47.4092C101.625 47.3981 101.635 47.3885 101.643 47.379C101.801 47.1782 101.768 47.594 101.768 47.594C101.768 47.594 101.378 47.9254 101.231 47.9111Z" fill="#94CC79"/>
<path d="M101.457 46.3016L101.331 46.085C101.52 46.0277 101.695 45.9299 101.844 45.7982C101.844 45.7887 101.861 45.7791 101.869 45.768C102.028 45.5672 101.994 45.9846 101.994 45.9846C101.994 45.9846 101.605 46.3176 101.457 46.3016Z" fill="#94CC79"/>
<path d="M102.53 44.3552L102.405 44.1386C102.594 44.0814 102.769 43.9836 102.917 43.8518C102.926 43.8425 102.934 43.8324 102.942 43.8216C103.1 43.6224 103.069 44.0382 103.069 44.0382C103.069 44.0382 102.677 44.3712 102.53 44.3552Z" fill="#94CC79"/>
<path d="M102.409 46.3412L102.283 46.1246C102.472 46.0681 102.648 45.9708 102.796 45.8394C102.796 45.8283 102.814 45.8187 102.821 45.8091C102.98 45.6084 102.947 46.0242 102.947 46.0242C102.947 46.0242 102.557 46.3588 102.409 46.3412Z" fill="#94CC79"/>
<path d="M97.843 50.1411C97.843 50.1411 97.5388 50.9376 98.2328 50.8102C98.5416 50.4502 98.7529 50.0162 98.846 49.5501C98.846 49.5501 100.347 46.2445 100.79 45.9418C100.79 45.9418 102.746 43.2543 102.956 43.2145C102.956 43.2145 103.024 42.9533 102.341 43.5061C101.659 44.0588 100.163 46.1871 100.163 46.1871L98.7367 48.5241L98.4008 49.4561L97.843 50.1411Z" fill="#E7C4C3"/>
<path opacity="0.2" d="M97.843 50.1411C97.843 50.1411 97.5388 50.9376 98.2328 50.8102C98.5416 50.4502 98.7529 50.0162 98.846 49.5501C98.846 49.5501 100.347 46.2445 100.79 45.9418C100.79 45.9418 102.746 43.2543 102.956 43.2145C102.956 43.2145 103.024 42.9533 102.341 43.5061C101.659 44.0588 100.163 46.1871 100.163 46.1871L98.7367 48.5241L98.4008 49.4561L97.843 50.1411Z" fill="white"/>
<path d="M74.2732 66.3217C74.5347 67.1857 74.8566 68.03 75.2366 68.8483C76.3277 68.6189 77.4011 68.3112 78.4484 67.9275C78.4817 67.9164 77.8479 67.0832 77.7813 67.0147C77.5232 66.7279 77.2156 66.4904 76.8734 66.3138C76.5391 66.1672 76.1271 66.2787 75.7642 66.2978C75.2699 66.3233 74.7728 66.3313 74.2732 66.3217Z" fill="#FBBEBE"/>
<path d="M76.8797 67.6294C76.3347 67.4573 76.0019 66.9046 75.7801 66.3725C75.5582 65.8404 75.3792 65.2574 74.9577 64.8687C74.8777 64.8809 74.8019 64.9129 74.7372 64.9619C74.6725 65.0108 74.6208 65.0751 74.5869 65.149C74.5211 65.2983 74.4476 65.444 74.3667 65.5855C74.1924 65.8404 73.8913 65.9647 73.6615 66.1813C73.4318 66.398 73.3035 66.7277 73.0642 66.946C72.7631 67.22 72.3385 67.2885 71.9439 67.3793C71.3328 67.5188 70.7425 67.7384 70.1883 68.0324C69.9843 68.1562 69.7662 68.2546 69.5386 68.3256C69.288 68.3747 69.0313 68.3833 68.778 68.351L67.035 68.2268C66.8798 68.2068 66.7223 68.2132 66.5692 68.2459C66.393 68.3105 66.243 68.432 66.1426 68.5914C66.0423 68.7508 65.9973 68.9391 66.0146 69.1269C66.037 69.314 66.0975 69.4945 66.1923 69.657C66.2872 69.8196 66.4144 69.9607 66.566 70.0715C66.8706 70.2892 67.2061 70.4594 67.5611 70.5765C69.0816 71.1544 70.6472 71.6041 72.2418 71.921V72.2683C73.3503 72.8177 74.5696 73.1033 75.8054 73.1031C75.8966 73.1096 75.9879 73.0937 76.0716 73.0569C76.186 72.9737 76.266 72.8513 76.2966 72.7128C76.7162 71.479 76.9611 70.1919 77.0239 68.8895C77.055 68.56 77.0298 68.2276 76.9494 67.9066C76.8544 67.588 77.1808 67.7234 76.8781 67.5991" fill="#2F2E41"/>
<path d="M110.364 61.0121C105.187 61.3307 100.064 59.7998 94.8893 59.6373C94.2449 59.5964 93.598 59.6381 92.9641 59.7615C92.2986 59.9113 91.6775 60.2139 91.0627 60.5039C88.2818 61.8038 85.4075 62.8807 82.5347 63.956L79.2358 65.1922C78.5766 65.4391 77.8937 65.6893 77.1917 65.6462C76.8748 65.6271 76.4898 65.5793 76.3139 65.8422C75.7767 66.6387 76.0303 67.816 76.3852 68.7097C76.4993 68.9996 76.7021 69.315 77.0032 69.3469C77.2202 69.3692 77.4231 69.2433 77.637 69.1876C78.2375 69.0283 78.8365 69.4329 79.4544 69.4982C80.2182 69.5795 80.9264 69.143 81.6474 68.8753C82.8421 68.4309 84.1494 68.4452 85.4059 68.2381C87.5133 67.8845 89.4655 66.9016 91.2908 65.7816C91.9849 65.3547 92.6884 64.8975 93.487 64.7414C94.4044 64.5614 95.3472 64.7987 96.2488 65.06C98.3947 65.6701 100.507 66.3933 102.577 67.2265C103.668 67.6662 104.751 68.1362 105.886 68.4404C108.34 69.0892 110.936 68.9369 113.298 68.0055C114.125 67.6758 115.027 67.0943 115.075 66.1958C115.102 65.6829 114.705 65.24 114.441 64.794C114.273 64.512 114.103 64.2316 113.918 63.9608C113.019 62.6449 111.936 60.9181 110.364 61.0121Z" fill="#2F2E41"/>
<path opacity="0.1" d="M110.364 61.0121C105.187 61.3307 100.064 59.7998 94.8893 59.6373C94.2449 59.5964 93.598 59.6381 92.9641 59.7615C92.2986 59.9113 91.6775 60.2139 91.0627 60.5039C88.2818 61.8038 85.4075 62.8807 82.5347 63.956L79.2358 65.1922C78.5766 65.4391 77.8937 65.6893 77.1917 65.6462C76.8748 65.6271 76.4898 65.5793 76.3139 65.8422C75.7767 66.6387 76.0303 67.816 76.3852 68.7097C76.4993 68.9996 76.7021 69.315 77.0032 69.3469C77.2202 69.3692 77.4231 69.2433 77.637 69.1876C78.2375 69.0283 78.8365 69.4329 79.4544 69.4982C80.2182 69.5795 80.9264 69.143 81.6474 68.8753C82.8421 68.4309 84.1494 68.4452 85.4059 68.2381C87.5133 67.8845 89.4655 66.9016 91.2908 65.7816C91.9849 65.3547 92.6884 64.8975 93.487 64.7414C94.4044 64.5614 95.3472 64.7987 96.2488 65.06C98.3947 65.6701 100.507 66.3933 102.577 67.2265C103.668 67.6662 104.751 68.1362 105.886 68.4404C108.34 69.0892 110.936 68.9369 113.298 68.0055C114.125 67.6758 115.027 67.0943 115.075 66.1958C115.102 65.6829 114.705 65.24 114.441 64.794C114.273 64.512 114.103 64.2316 113.918 63.9608C113.019 62.6449 111.936 60.9181 110.364 61.0121Z" fill="black"/>
<path d="M84.2114 66.5753C85.0206 66.8525 85.8382 67.1079 86.6643 67.3416C87.1254 66.5801 87.9889 66.0496 88.1854 65.1798C88.1937 65.1606 88.1978 65.1398 88.1975 65.1188C88.1971 65.0979 88.1924 65.0773 88.1836 65.0583C88.1747 65.0393 88.162 65.0225 88.1462 65.0088C88.1304 64.9952 88.1119 64.985 88.0919 64.9791C87.5017 64.6504 86.8464 64.4573 86.1731 64.4135C85.6407 64.3801 85.3982 64.9377 85.1558 65.3311C85.0592 65.4888 84.4285 66.6502 84.2114 66.5753Z" fill="#FBBEBE"/>
<path d="M85.352 66.0192C85.11 65.9781 84.8792 65.8869 84.6741 65.7514C84.469 65.616 84.2941 65.4392 84.1604 65.2322C84.0463 65.0315 83.9243 64.7543 83.6962 64.775C83.468 64.7957 83.3792 65.0442 83.338 65.2529C83.1844 66.0429 82.9612 66.8175 82.671 67.5676C82.3796 68.3194 81.8858 68.9747 81.2449 69.4602C80.9438 69.6689 80.6111 69.8266 80.3164 70.0464C80.0517 70.2424 79.822 70.4909 79.5241 70.6422C79.3294 70.7329 79.1281 70.8085 78.922 70.8684C78.6196 70.9757 78.3304 71.1173 78.06 71.2906C77.8225 71.4287 77.6214 71.6221 77.4737 71.8545C77.3991 71.9722 77.3554 72.1071 77.3468 72.2464C77.3382 72.3857 77.365 72.525 77.4246 72.651C77.4872 72.754 77.5709 72.8425 77.67 72.9106C77.7692 72.9787 77.8816 73.0249 77.9998 73.0461C78.2358 73.0876 78.4765 73.094 78.7144 73.0652C79.6572 72.9952 80.6 72.9059 81.5428 72.8263C81.9412 72.802 82.3373 72.7488 82.728 72.667C82.9356 72.616 83.1368 72.5507 83.3428 72.4965C83.6954 72.4055 84.0566 72.3521 84.4203 72.3372C84.5268 72.3288 84.6339 72.3385 84.7372 72.3659C84.9559 72.4376 85.1096 72.6558 85.3361 72.7004C85.4807 72.7143 85.6265 72.6947 85.7624 72.6431C86.4406 72.4567 87.1552 72.4615 87.8571 72.4232C88.174 72.4073 88.529 72.3484 88.6716 72.0696C88.849 71.7223 88.5543 71.3336 88.4386 70.9545C88.3796 70.7161 88.3466 70.472 88.3404 70.2264C88.287 69.6205 88.1101 69.0321 87.8207 68.498C87.5814 68.0551 87.2534 67.5645 87.4214 67.0881C87.4784 66.9288 87.5925 66.7695 87.5798 66.6102C87.526 65.8471 85.7814 66.11 85.352 66.0192Z" fill="#2F2E41"/>
<path d="M102.601 52.6632C101.685 52.2562 100.951 51.5224 100.541 50.6034C100.454 50.4058 100.383 50.2003 100.301 50.0012C100.029 49.3384 99.6067 48.7487 99.0679 48.2791C99.0099 48.2155 98.9391 48.1652 98.86 48.1316C98.781 48.0981 98.6957 48.0821 98.6099 48.0848C98.5271 48.1101 98.4523 48.1571 98.3933 48.2209C98.3343 48.2847 98.2932 48.363 98.274 48.448C98.2266 48.6293 98.2148 48.8181 98.2392 49.0039C98.2855 49.4418 98.3606 49.876 98.4642 50.3039L98.7145 51.4525C98.7454 51.6295 98.7986 51.8019 98.873 51.9654C98.9805 52.159 99.1229 52.3308 99.2929 52.472C99.5226 52.6855 99.7555 52.891 99.9916 53.0917C100.321 53.4084 100.749 53.5999 101.204 53.6333C102.231 53.8245 103.276 54.1017 104.145 54.7756C104.134 54.7756 104.145 54.0045 104.126 53.9169C104.086 53.6859 104.054 53.4565 103.905 53.3004C103.565 52.9499 103.012 52.8496 102.601 52.6632Z" fill="#FBBEBE"/>
<path opacity="0.1" d="M102.601 52.6632C101.685 52.2562 100.951 51.5224 100.541 50.6034C100.454 50.4058 100.383 50.2003 100.301 50.0012C100.029 49.3384 99.6067 48.7487 99.0679 48.2791C99.0099 48.2155 98.9391 48.1652 98.86 48.1316C98.781 48.0981 98.6957 48.0821 98.6099 48.0848C98.5271 48.1101 98.4523 48.1571 98.3933 48.2209C98.3343 48.2847 98.2932 48.363 98.274 48.448C98.2266 48.6293 98.2148 48.8181 98.2392 49.0039C98.2855 49.4418 98.3606 49.876 98.4642 50.3039L98.7145 51.4525C98.7454 51.6295 98.7986 51.8019 98.873 51.9654C98.9805 52.159 99.1229 52.3308 99.2929 52.472C99.5226 52.6855 99.7555 52.891 99.9916 53.0917C100.321 53.4084 100.749 53.5999 101.204 53.6333C102.231 53.8245 103.276 54.1017 104.145 54.7756C104.134 54.7756 104.145 54.0045 104.126 53.9169C104.086 53.6859 104.054 53.4565 103.905 53.3004C103.565 52.9499 103.012 52.8496 102.601 52.6632Z" fill="black"/>
<path d="M113.143 43.8675C113.839 43.8675 114.403 43.2976 114.403 42.5946C114.403 41.8916 113.839 41.3218 113.143 41.3218C112.448 41.3218 111.884 41.8916 111.884 42.5946C111.884 43.2976 112.448 43.8675 113.143 43.8675Z" fill="#2F2E41"/>
<path d="M112.364 41.8257C112.023 41.7875 111.643 41.7604 111.369 41.9707C111.223 42.0993 111.107 42.258 111.028 42.4359C110.746 42.923 110.526 43.4437 110.374 43.9859C110.261 44.4511 110.242 44.9417 110.103 45.3942C109.844 46.2417 109.184 46.9569 109.108 47.8411C109.074 48.2361 109.141 48.6997 108.852 48.9705C108.782 49.03 108.707 49.0833 108.627 49.1298C108.428 49.264 108.259 49.4388 108.131 49.6428C108.045 49.8261 107.926 49.9918 107.78 50.1319C107.523 50.323 107.098 50.3023 106.972 50.5986C106.845 50.8949 107.171 51.2359 107.095 51.5545C107.033 51.8157 106.743 51.9352 106.544 52.1136C106.287 52.3414 106.17 52.6839 106.068 53.0121C105.647 53.0921 105.214 53.0796 104.798 52.9754C104.383 52.8712 103.994 52.6777 103.66 52.4083C104.01 53.2781 104.018 54.2387 104.034 55.1786C104.034 55.4829 104.034 55.8254 103.812 56.0373C104.815 56.0596 105.793 56.332 106.77 56.555C107.198 56.6522 107.662 56.7367 108.06 56.555C108.285 56.4336 108.485 56.2715 108.651 56.0771C109.184 55.5339 109.741 54.9429 109.871 54.1894C109.944 53.7688 109.871 53.3355 109.893 52.9149C109.942 52.3866 110.049 51.8652 110.21 51.3601C110.492 50.3127 110.682 49.2422 110.776 48.1613C110.833 47.4954 111.41 46.9585 111.708 46.3611C112.278 45.2364 112.86 44.064 112.902 42.8007C112.923 42.3833 112.78 41.8719 112.364 41.8257Z" fill="#2F2E41"/>
<path opacity="0.1" d="M112.364 41.8257C112.023 41.7875 111.643 41.7604 111.369 41.9707C111.223 42.0993 111.107 42.258 111.028 42.4359C110.746 42.923 110.526 43.4437 110.374 43.9859C110.261 44.4511 110.242 44.9417 110.103 45.3942C109.844 46.2417 109.184 46.9569 109.108 47.8411C109.074 48.2361 109.141 48.6997 108.852 48.9705C108.782 49.03 108.707 49.0833 108.627 49.1298C108.428 49.264 108.259 49.4388 108.131 49.6428C108.045 49.8261 107.926 49.9918 107.78 50.1319C107.523 50.323 107.098 50.3023 106.972 50.5986C106.845 50.8949 107.171 51.2359 107.095 51.5545C107.033 51.8157 106.743 51.9352 106.544 52.1136C106.287 52.3414 106.17 52.6839 106.068 53.0121C105.647 53.0921 105.214 53.0796 104.798 52.9754C104.383 52.8712 103.994 52.6777 103.66 52.4083C104.01 53.2781 104.018 54.2387 104.034 55.1786C104.034 55.4829 104.034 55.8254 103.812 56.0373C104.815 56.0596 105.793 56.332 106.77 56.555C107.198 56.6522 107.662 56.7367 108.06 56.555C108.285 56.4336 108.485 56.2715 108.651 56.0771C109.184 55.5339 109.741 54.9429 109.871 54.1894C109.944 53.7688 109.871 53.3355 109.893 52.9149C109.942 52.3866 110.049 51.8652 110.21 51.3601C110.492 50.3127 110.682 49.2422 110.776 48.1613C110.833 47.4954 111.41 46.9585 111.708 46.3611C112.278 45.2364 112.86 44.064 112.902 42.8007C112.923 42.3833 112.78 41.8719 112.364 41.8257Z" fill="black"/>
<path d="M111.18 62.1083C110.103 61.5921 109.314 60.6315 108.442 59.8079C106.778 58.2372 104.742 57.1252 102.993 55.6517C101.833 54.6767 100.797 53.5393 99.5228 52.7221C98.4016 52.0055 97.1311 51.5585 95.8102 51.4158C95.6589 51.3887 95.5034 51.3963 95.3554 51.4381C95.1884 51.5124 95.0429 51.628 94.9324 51.7742C94.368 52.4147 93.866 53.1082 93.4334 53.8451C91.2151 57.6286 88.065 60.8147 85.4553 64.3306C85.3729 64.4142 85.3241 64.5255 85.3182 64.6431C85.3124 64.7607 85.3499 64.8763 85.4236 64.9678L85.9544 66.0128C86.2507 66.5991 86.7277 67.2873 87.3678 67.1646C87.661 67.1104 87.8939 66.8938 88.1094 66.6867L90.4862 64.3975L92.985 61.9952C94.4491 60.5885 95.937 59.1484 96.8924 57.3498C97.6372 58.6498 98.9618 59.5005 99.8698 60.6952C100.215 61.1477 100.504 61.6511 100.805 62.129C101.299 62.8968 101.862 63.6185 102.422 64.3385L105.289 68.0169C105.679 68.5171 106.081 69.0301 106.615 69.3694C107.295 69.8011 108.12 69.9158 108.919 69.9875C109.996 70.0841 111.077 70.1235 112.158 70.1054C112.982 70.091 113.831 70.0369 114.571 69.6689C115.311 69.3009 115.918 68.5537 115.88 67.7126C115.835 67.2804 115.693 66.8639 115.466 66.4939C114.449 64.5982 113.11 63.0291 111.18 62.1083Z" fill="#2F2E41"/>
<path d="M113.918 44.4555C114.453 44.4555 114.886 44.0169 114.886 43.4758C114.886 42.9347 114.453 42.4961 113.918 42.4961C113.383 42.4961 112.95 42.9347 112.95 43.4758C112.95 44.0169 113.383 44.4555 113.918 44.4555Z" fill="#E8E8F0"/>
<path d="M113.704 42.7396C113.922 43.1757 113.96 43.6805 113.81 44.1446C113.66 44.6026 113.451 45.0386 113.188 45.4414C112.961 45.8572 112.689 46.2466 112.378 46.6027C113.872 46.676 115.322 46.0866 116.64 45.3713C117.702 44.7978 118.76 44.0873 119.334 43.0136C119.165 43.0546 118.99 43.0595 118.819 43.028C118.649 42.9964 118.487 42.9291 118.344 42.8304C118.059 42.6306 117.804 42.3914 117.586 42.1199L116.835 41.2708C116.659 41.0863 116.504 40.8821 116.374 40.6622C116.211 40.3615 116.142 40.0184 116.176 39.6777C115.878 39.9917 115.545 40.2697 115.183 40.5061C114.647 40.8566 114.056 41.1115 113.519 41.4619C113.329 41.5846 112.904 41.7806 113.013 42.0338C113.123 42.2871 113.557 42.4719 113.704 42.7396Z" fill="#FBBEBE"/>
<path opacity="0.1" d="M113.704 42.7396C113.922 43.1757 113.96 43.6805 113.81 44.1446C113.66 44.6026 113.451 45.0386 113.188 45.4414C112.961 45.8572 112.689 46.2466 112.378 46.6027C113.872 46.676 115.322 46.0866 116.64 45.3713C117.702 44.7978 118.76 44.0873 119.334 43.0136C119.165 43.0546 118.99 43.0595 118.819 43.028C118.649 42.9964 118.487 42.9291 118.344 42.8304C118.059 42.6306 117.804 42.3914 117.586 42.1199L116.835 41.2708C116.659 41.0863 116.504 40.8821 116.374 40.6622C116.211 40.3615 116.142 40.0184 116.176 39.6777C115.878 39.9917 115.545 40.2697 115.183 40.5061C114.647 40.8566 114.056 41.1115 113.519 41.4619C113.329 41.5846 112.904 41.7806 113.013 42.0338C113.123 42.2871 113.557 42.4719 113.704 42.7396Z" fill="black"/>
<path d="M113.725 42.8883C113.444 43.3662 113.384 43.9237 113.725 44.357C113.767 44.4112 113.924 44.7457 113.992 44.7489C114.058 44.7423 114.119 44.711 114.164 44.6613C114.526 44.3284 114.797 43.903 115.114 43.5255C115.431 43.1479 115.835 42.8054 116.32 42.7289C116.905 42.6381 117.47 42.9488 117.982 43.2499C118.205 43.359 118.399 43.5188 118.55 43.7166C118.657 43.9128 118.721 44.1303 118.737 44.3539C118.912 45.6936 118.909 47.0509 118.904 48.4018C118.904 49.3799 118.904 50.3628 118.714 51.3218C118.619 51.8189 118.477 52.3047 118.409 52.805C118.36 53.2466 118.34 53.6909 118.35 54.1352V55.9958C118.337 56.3373 118.361 56.6791 118.421 57.0154C118.508 57.4232 118.7 57.7992 118.828 58.1958C118.961 58.6517 119.052 59.1188 119.099 59.5913L119.353 61.5173C119.432 62.1243 119.491 62.7917 119.126 63.2697C118.968 63.4895 118.744 63.6663 118.578 63.8862C117.944 64.705 118.152 65.8759 117.89 66.8779C117.685 67.6115 117.261 68.2645 116.677 68.7497C116.228 69.1321 115.65 69.4316 115.075 69.3248C114.297 69.1799 113.829 68.369 113.617 67.5932C113.405 66.8174 113.329 65.9842 112.869 65.3343C112.493 64.8022 111.918 64.4676 111.386 64.0885C110.853 63.7093 110.346 63.2203 110.232 62.5767C110.182 62.2963 110.213 62.008 110.183 61.7244C110.142 61.365 110.005 61.0234 109.787 60.7355C109.569 60.4477 109.278 60.2241 108.944 60.0884C108.546 59.9291 108.055 59.8765 107.835 59.5101C108.415 59.1819 108.798 58.575 109.001 57.9362C109.204 57.2973 109.245 56.6187 109.285 55.9496L109.418 53.7114C109.477 52.711 109.503 51.7201 109.942 50.8216C110.137 50.4186 110.381 50.0426 110.586 49.646C110.855 49.0878 111.086 48.5113 111.275 47.9207C111.592 47.0031 111.909 46.0855 112.194 45.1567C112.307 44.7081 112.477 44.2756 112.698 43.8696C112.923 43.4809 113.275 42.9727 113.725 42.8883Z" fill="#E7936D"/>
<path d="M108.781 57.4296L109.37 57.4503L109.496 56.5566C109.512 56.3774 109.553 56.2014 109.619 56.0341C109.717 55.8578 109.83 55.6908 109.958 55.5355C110.538 54.7119 110.495 53.6238 110.64 52.6186C110.831 51.2836 111.386 50.0347 111.934 48.8064L113.081 46.2432C113.309 45.8078 113.418 45.3199 113.398 44.8286C113.409 44.4319 113.525 42.9918 113.536 42.5983C113.536 42.4518 113.219 42.533 113.148 42.4024C113.005 42.1172 112.809 42.8899 112.541 43.0587C112.273 43.2276 112.124 43.5366 112.012 43.8329C111.765 44.4781 111.614 45.1568 111.378 45.8083C111.142 46.4599 110.828 47.1003 110.31 47.5607C110.075 47.7678 109.806 47.9303 109.584 48.1517C108.873 48.859 108.803 49.9757 108.778 50.9841C108.765 51.5752 108.645 57.4296 108.781 57.4296Z" fill="#2F2E41"/>
<path d="M117.261 41.8193C116.689 42.0456 116.376 42.67 116.216 43.269C116.056 43.868 115.989 44.5084 115.682 45.0453C114.962 46.3022 113.131 46.6686 112.625 48.0274C112.467 48.4719 112.467 48.9594 112.421 49.4325C112.329 50.4059 112.01 51.3442 111.917 52.3191C111.867 53.0753 111.884 53.8345 111.969 54.5876L112.603 62.2645C112.696 63.3796 112.693 64.5633 112.411 65.6402C113.059 65.766 113.734 65.5971 114.335 65.3216C114.935 65.046 115.485 64.6668 116.064 64.3466C117.059 63.7938 118.157 63.4035 119.028 62.6675C119.186 62.544 119.321 62.3936 119.428 62.2231C119.602 61.9204 119.618 61.5524 119.7 61.2115C119.775 60.939 119.871 60.6727 119.987 60.415C120.306 59.6412 120.584 58.851 120.82 58.0477C120.982 57.5149 121.11 56.9722 121.202 56.4228C121.272 55.9863 121.31 55.5434 121.348 55.1022C121.394 54.4107 121.531 53.7284 121.754 53.0726C122.31 51.5094 122.626 49.8698 122.69 48.2106C122.708 47.9711 122.691 47.7302 122.641 47.4954C122.543 47.2107 122.413 46.9381 122.254 46.6829C121.988 46.1795 121.828 45.6251 121.578 45.1122C121.01 43.9572 120.007 43.0794 118.959 42.345C118.448 41.9866 117.846 41.5899 117.261 41.8193Z" fill="#2F2E41"/>
<path d="M103.877 54.3433C103.422 54.1032 103.01 53.7882 102.659 53.4114C102.5 53.2234 102.367 53.0115 102.204 52.8267C101.792 52.3848 101.258 52.0783 100.67 51.9474C100.087 51.8186 99.4905 51.7603 98.8937 51.7737C98.4942 51.7481 98.0935 51.7967 97.7116 51.9171C97.5206 51.9799 97.3485 52.0905 97.2116 52.2384C97.0747 52.3864 96.9774 52.5669 96.9289 52.763C96.8417 53.2409 97.1523 53.7045 97.5246 54.0119C97.8714 54.2964 98.2794 54.4955 98.7162 54.5934C99.0723 54.6553 99.4314 54.6974 99.7921 54.7193C101.912 54.9423 103.804 56.102 105.655 57.1582C107.287 58.0875 108.95 58.9552 110.645 59.7613C110.711 59.2506 110.739 58.7357 110.729 58.2208C110.719 57.8368 110.7 57.2506 110.339 57.0244C109.919 56.7615 109.23 56.7058 108.754 56.5465C107.662 56.1865 106.595 55.7527 105.561 55.2482C104.99 54.9667 104.428 54.6651 103.877 54.3433Z" fill="#FBBEBE"/>
<path d="M116.896 39.5386C117.429 37.499 116.226 35.4132 114.208 34.8799C112.191 34.3466 110.123 35.5676 109.589 37.6073C109.056 39.6469 110.259 41.7326 112.277 42.2659C114.295 42.7993 116.363 41.5782 116.896 39.5386Z" fill="#FBBEBE"/>
<path d="M118.342 46.1487C118.004 46.5438 117.835 47.0536 117.608 47.5219C117.142 48.4873 116.41 49.3157 116.044 50.3257C115.658 51.3899 115.67 52.6547 114.913 53.4911C114.782 53.636 114.623 53.7762 114.585 53.969C114.58 54.0861 114.567 54.2026 114.545 54.3179C114.438 54.6205 113.943 54.6365 113.851 54.9455C113.824 55.0363 113.839 55.1351 113.805 55.2243C113.729 55.4234 113.468 55.4537 113.292 55.5748C112.924 55.8249 112.999 56.4048 112.738 56.7664C112.623 56.9017 112.474 57.0038 112.307 57.062C112.14 57.1203 111.96 57.1326 111.787 57.0977C111.443 57.0269 111.113 56.9027 110.808 56.7297C110.699 56.6692 110.579 56.6317 110.456 56.6198C110.309 56.6245 110.168 56.6727 110.049 56.7584C109.351 57.2045 109.023 58.0886 109.028 58.9234C109.033 59.7581 109.318 60.561 109.61 61.3416C109.65 61.4732 109.716 61.5955 109.803 61.7016C110.034 61.947 110.437 61.9087 110.744 61.7717C111.052 61.6347 111.33 61.4197 111.66 61.3591C112.245 61.2524 112.817 61.657 113.403 61.6236C113.837 61.5981 114.222 61.3448 114.582 61.0995C115.159 60.7076 115.745 60.3029 116.166 59.7486C116.426 59.4077 116.616 59.0205 116.843 58.6557C117.133 58.2113 117.45 57.7856 117.794 57.3813L119.971 54.7018C120.189 54.4481 120.386 54.1757 120.557 53.8877C120.755 53.4988 120.908 53.0883 121.013 52.6643C121.221 51.949 121.43 51.2305 121.465 50.4834C121.477 49.8704 121.424 49.2578 121.307 48.6562C121.231 48.0565 121.071 47.4707 120.831 46.9166C120.383 45.9225 119.231 45.1053 118.342 46.1487Z" fill="#2F2E41"/>
<path d="M124.927 44.4444C125.102 43.7906 125.119 43.1044 124.978 42.4425C124.837 41.7805 124.542 41.1617 124.116 40.6371C124.694 38.1567 123.435 35.6731 121.216 34.7539C121.296 32.4281 119.83 30.2934 117.572 29.6944C115.225 29.0747 112.818 30.3205 111.806 32.5348C110.38 31.7909 108.871 31.8705 108.374 32.7451C107.854 33.6595 108.635 35.098 110.117 35.9567C110.584 36.231 111.095 36.4213 111.627 36.519C111.855 37.1688 112.217 37.7633 112.687 38.2643C113.158 38.7653 113.728 39.1617 114.36 39.4279C114.321 40.3683 114.544 41.301 115.003 42.1213C115.462 42.9416 116.139 43.617 116.959 44.0717C117.048 44.7253 117.289 45.3489 117.661 45.8925C117.617 46.0066 117.58 46.1231 117.55 46.2414C117.084 48.0176 118.092 49.8242 119.798 50.275C121.505 50.7258 123.267 49.6521 123.731 47.8759C123.856 47.4023 123.877 46.9073 123.794 46.4246C124.342 45.8788 124.733 45.1948 124.927 44.4444Z" fill="#3F3D56"/>
<path opacity="0.1" d="M109.351 33.2071C109.849 32.3325 111.356 32.2513 112.783 32.9968C113.793 30.7825 116.203 29.5351 118.549 30.1564C118.656 30.1835 118.76 30.2169 118.866 30.252C118.465 30.0031 118.029 29.8152 117.573 29.6944C115.227 29.0747 112.82 30.3205 111.807 32.5348C110.381 31.7909 108.873 31.8705 108.375 32.7451C107.856 33.6595 108.637 35.098 110.118 35.9567C110.396 36.1176 110.689 36.2509 110.993 36.3549C109.576 35.4851 108.844 34.0992 109.351 33.2071Z" fill="black"/>
<path opacity="0.1" d="M118.529 46.7032C118.559 46.5849 118.596 46.4684 118.64 46.3544C118.268 45.8102 118.027 45.1861 117.938 44.5319C117.118 44.0777 116.441 43.4026 115.982 42.5825C115.523 41.7625 115.3 40.83 115.339 39.8898C114.707 39.6235 114.137 39.2271 113.666 38.7261C113.196 38.2252 112.834 37.6307 112.606 36.9809C112.296 36.9253 111.992 36.8361 111.701 36.7148C111.943 37.321 112.303 37.8726 112.759 38.3375C113.215 38.8025 113.759 39.1715 114.358 39.423C114.319 40.3634 114.542 41.2961 115.001 42.1164C115.46 42.9367 116.137 43.6121 116.957 44.0668C117.047 44.7204 117.287 45.344 117.659 45.8876C117.615 46.0017 117.578 46.1181 117.548 46.2365C117.084 48.0064 118.084 49.8065 119.781 50.2653C119.237 49.8699 118.825 49.3171 118.602 48.6807C118.378 48.0443 118.353 47.3545 118.529 46.7032Z" fill="black"/>
<path d="M114.872 39.8867C115.128 39.6914 115.124 39.2542 114.864 38.9102C114.604 38.5662 114.186 38.4457 113.931 38.641C113.675 38.8363 113.678 39.2735 113.938 39.6175C114.198 39.9615 114.616 40.082 114.872 39.8867Z" fill="#FBBEBE"/>
<path d="M68.4198 6.2668C69.8454 6.2668 71.001 5.10495 71.001 3.67173C71.001 2.23851 69.8454 1.07666 68.4198 1.07666C66.9943 1.07666 65.8386 2.23851 65.8386 3.67173C65.8386 5.10495 66.9943 6.2668 68.4198 6.2668Z" fill="#3F3D56"/>
<path d="M74.0212 18.8617C78.0196 18.8617 81.2609 14.6393 81.2609 9.43083C81.2609 4.22233 78.0196 0 74.0212 0C70.0228 0 66.7815 4.22233 66.7815 9.43083C66.7815 14.6393 70.0228 18.8617 74.0212 18.8617Z" fill="#3F3D56"/>
<path opacity="0.1" d="M74.0211 16.0135C70.3941 16.0135 67.3898 12.5391 66.8622 8.00684C66.8073 8.47956 66.7798 8.95509 66.7798 9.43102C66.7798 14.6387 70.0217 18.8619 74.0211 18.8619C78.0204 18.8619 81.2608 14.6387 81.2608 9.43102C81.2608 8.95509 81.2333 8.47956 81.1784 8.00684C80.6523 12.5454 77.6481 16.0135 74.0211 16.0135Z" fill="black"/>
<path d="M89.4481 37.0511C89.2896 37.6883 88.6226 38.2077 87.881 38.5661C86.3187 39.3228 84.395 39.5474 82.5269 39.6239C82.0516 39.6529 81.5747 39.6438 81.1008 39.5968C80.1231 39.4805 79.2168 39.0615 78.6511 38.4641C78.5704 38.3989 78.5145 38.3078 78.4927 38.2061C78.4966 38.145 78.5127 38.0854 78.5399 38.0307C78.5671 37.9759 78.6049 37.9273 78.6511 37.8874C79.6478 36.7946 81.3084 36.1224 82.9753 35.6444C84.2429 35.2764 86.4518 34.3238 87.835 34.4528C89.1787 34.5691 89.6446 36.2386 89.4481 37.0511Z" fill="#3F3D56"/>
<path opacity="0.1" d="M89.4481 37.0511C89.2896 37.6883 88.6226 38.2077 87.881 38.5661C86.3187 39.3228 84.395 39.5474 82.5269 39.6239C82.0516 39.6529 81.5747 39.6438 81.1008 39.5968C80.1231 39.4805 79.2168 39.0615 78.6511 38.4641C78.5704 38.3989 78.5145 38.3078 78.4927 38.2061C78.4966 38.145 78.5127 38.0854 78.5399 38.0307C78.5671 37.9759 78.6049 37.9273 78.6511 37.8874C79.6478 36.7946 81.3084 36.1224 82.9753 35.6444C84.2429 35.2764 86.4518 34.3238 87.835 34.4528C89.1787 34.5691 89.6446 36.2386 89.4481 37.0511Z" fill="black"/>
<path d="M69.6004 32.2496C69.1252 33.1869 69.0392 34.2754 69.3612 35.2764C69.6894 36.2718 70.3043 37.1467 71.1279 37.7902C73.1514 39.4231 75.9274 39.6477 78.515 39.627C80.7839 39.6064 83.0495 39.45 85.2999 39.1586C86.0494 39.0615 86.8068 38.9468 87.5008 38.6457C88.3454 38.2777 89.0854 37.6038 89.388 36.734C89.6907 35.8642 89.4767 34.7873 88.7542 34.2043C88.1204 33.6913 87.26 33.6212 86.4535 33.567L81.8346 33.2883C82.2909 32.8231 82.8978 32.5602 83.454 32.2241C84.1908 31.7749 84.6804 31.0229 85.2175 30.3459C86.0098 29.3327 86.9605 28.447 87.9112 27.566C88.0697 28.4327 88.6068 29.1447 89.2486 29.7437C89.8903 30.3427 90.6303 30.8238 91.299 31.3925C92.9152 32.7721 94.0782 34.6455 95.7784 35.92C96.9481 35.6108 98.0415 35.0619 98.9902 34.3078L98.3295 33.1051C98.2753 32.9791 98.1896 32.8693 98.0807 32.7865C97.8922 32.6718 97.6513 32.7307 97.4342 32.6988C96.8543 32.6112 96.6008 31.9374 96.3726 31.3941C95.7483 29.8999 94.5504 28.7417 93.5205 27.4896C92.7693 26.5665 92.1037 25.5763 91.5319 24.5313C91.188 23.9084 90.8743 23.2568 90.4069 22.72C89.9394 22.1831 89.2882 21.7642 88.5783 21.7642C87.9445 21.7642 87.3741 22.0828 86.8353 22.4014C85.1942 23.3817 83.6151 24.4633 82.1071 25.64C81.3148 26.255 80.5337 26.9065 79.6083 27.2841C79.2185 27.4434 78.816 27.5517 78.4342 27.7445C77.7798 28.0838 77.2822 28.6573 76.7466 29.1655C74.8389 30.9799 72.226 32.1556 69.6004 32.2496Z" fill="#605D82"/>
<path d="M79.2596 19.3299C79.239 19.8851 79.1216 20.4324 78.9126 20.9468C78.8068 21.2024 78.6498 21.4333 78.4513 21.6251C78.2529 21.817 78.0172 21.9657 77.7591 22.0619C77.3918 22.1609 77.0069 22.1734 76.634 22.0986C76.3083 22.0632 75.9946 21.9543 75.7166 21.78C75.284 21.4805 75.0685 20.9468 74.9893 20.4243C74.9101 19.9018 74.9465 19.3681 74.8958 18.8424C74.8465 18.4175 74.766 17.9968 74.655 17.5839C74.6217 17.4469 74.5868 17.3099 74.552 17.1729C74.5171 17.0359 74.487 16.8989 74.4569 16.7619C74.4268 16.6249 74.403 16.5054 74.3809 16.3748C74.3587 16.2441 74.346 16.1549 74.3349 16.045C74.3248 15.7165 74.2715 15.3908 74.1764 15.0764C74.0862 14.8729 73.9729 14.6804 73.8389 14.5029C73.7819 14.4201 73.7264 14.3436 73.6805 14.2528C73.533 14.0309 73.4643 13.7654 73.4856 13.4993C73.4917 13.4581 73.5017 13.4175 73.5157 13.3782C73.5205 13.363 73.5264 13.3481 73.5331 13.3336C73.5896 13.318 73.6415 13.2889 73.6843 13.2486C73.7271 13.2084 73.7595 13.1583 73.7787 13.1026C73.8004 12.9826 73.79 12.8589 73.7486 12.7442C73.7021 12.584 73.6377 12.4296 73.5569 12.2838C73.5046 12.1882 73.3256 12.0146 73.324 11.9047C73.324 11.6832 73.7518 11.5048 73.9261 11.4172C74.4585 11.1487 75.0525 11.0277 75.6469 11.0667C76.0272 11.0922 76.4392 11.2101 76.6499 11.5319C76.84 11.8202 76.8083 12.1946 76.8955 12.5307C76.9028 12.5798 76.923 12.626 76.9541 12.6645C76.9955 12.7024 77.0476 12.7263 77.1031 12.733C77.1959 12.7519 77.2911 12.7556 77.3851 12.7442C77.4102 12.7428 77.4352 12.7391 77.4596 12.733C77.6061 12.7058 77.7447 12.6459 77.8652 12.5578C77.9445 12.5355 78.0237 12.5196 78.1013 12.5052H78.1108C78.4277 13.5057 78.4673 14.5762 78.7256 15.5989C78.854 16.1055 79.0425 16.6057 79.0631 17.1283C79.0631 17.1506 79.0631 17.1745 79.0631 17.1968C79.0631 17.3656 79.0536 17.5345 79.0631 17.7018C79.066 17.7766 79.0745 17.8512 79.0885 17.9248C79.1171 18.0434 79.152 18.1604 79.1931 18.2753C79.2042 18.3119 79.2152 18.3485 79.2248 18.3868C79.2326 18.4135 79.2389 18.4406 79.2438 18.468C79.2902 18.753 79.2955 19.0433 79.2596 19.3299Z" fill="#FBBEBE"/>
<path d="M74.8421 12.7861C76.8933 12.7861 78.5562 11.1143 78.5562 9.05197C78.5562 6.98968 76.8933 5.31787 74.8421 5.31787C72.7908 5.31787 71.1279 6.98968 71.1279 9.05197C71.1279 11.1143 72.7908 12.7861 74.8421 12.7861Z" fill="#FBBEBE"/>
<path d="M98.4245 29.3981C98.3162 28.3803 97.9561 27.4059 97.3771 26.564L97.667 28.2925C97.5468 28.3271 97.4191 28.3258 97.2995 28.2888C97.1799 28.2517 97.0736 28.1805 96.9936 28.0838C96.8369 27.8874 96.7172 27.6639 96.6403 27.4243C96.2183 26.3712 95.6662 25.3757 94.9971 24.4612C92.633 24.2621 90.2942 23.2776 88.2153 22.1274C86.1364 20.9772 84.1891 19.6024 82.1355 18.406C81.7795 18.1902 81.4088 17.9996 81.0263 17.8357C80.3846 17.5777 79.6636 17.4438 79.0552 17.1396L78.9332 17.0743C78.7953 16.9999 78.6647 16.9124 78.5434 16.813C78.4782 16.7589 78.4163 16.7009 78.358 16.6394C78.0541 16.2844 77.8129 15.8798 77.645 15.443C77.3185 14.7165 77.2013 13.8388 76.8765 13.1123C77.0263 12.9721 77.1942 12.8526 77.3756 12.7571L77.4548 12.7173C77.5839 12.6567 77.7181 12.6076 77.8557 12.5707C77.9349 12.5484 78.0142 12.5325 78.0918 12.5181H78.1013C78.4695 12.4585 78.8467 12.4885 79.201 12.6058C79.7175 12.7826 80.1517 13.1331 80.589 13.466C81.2783 13.9901 81.9945 14.484 82.6204 15.0845C82.9785 15.4302 83.3065 15.8094 83.6915 16.1232C84.0126 16.3724 84.3509 16.5981 84.704 16.7987L90.9693 20.5503C91.676 20.9724 92.3842 21.3962 93.0751 21.8454C94.1256 22.5257 95.135 23.2632 96.1491 24.0008L97.938 25.3039C98.134 25.4316 98.3057 25.5935 98.4451 25.7818C98.5677 25.9931 98.6439 26.2283 98.6685 26.4716C98.8171 27.4528 98.7335 28.4554 98.4245 29.3981Z" fill="#FBBEBE"/>
<path d="M80.1819 22.1389C79.93 23.2683 78.7954 23.9517 78.2012 24.9442C77.4628 26.1756 77.7639 27.6078 78.0428 29.0192L76.5232 30.3351C76.2443 30.5756 75.9639 30.813 75.6644 31.0312C75.2252 31.3281 74.7662 31.5942 74.2906 31.8278L72.9469 32.5223C72.5301 32.7578 72.0885 32.9459 71.6302 33.0831C70.746 33.3109 69.808 33.1516 68.9365 32.8887C68.8334 32.8617 68.7342 32.821 68.6418 32.7677C68.5874 32.7348 68.5401 32.6915 68.5023 32.6402C68.4155 32.485 68.3842 32.3045 68.4136 32.1288C68.5023 30.6505 68.862 29.2024 69.2201 27.7655C69.4083 26.9025 69.6631 26.0557 69.9823 25.2326C70.2967 24.528 70.6582 23.8456 71.0645 23.1903C71.5399 22.3826 72.0152 21.5685 72.6491 20.8756C72.92 20.5761 73.2226 20.2925 73.3843 19.9197C73.6077 19.4068 73.5205 18.8189 73.5665 18.2614C73.6007 17.8416 73.7114 17.4318 73.8929 17.0523C73.99 16.848 74.1067 16.6538 74.2415 16.4724C74.3033 16.6158 74.3635 16.7591 74.4253 16.9009L74.5441 17.1813C74.5964 17.3008 74.6471 17.4218 74.7026 17.5413C74.8505 17.8833 74.9973 18.2258 75.1431 18.5688C75.3004 19.0009 75.5256 19.4049 75.8102 19.7652C76.1128 20.1093 76.5581 20.3594 77.0113 20.31C77.2241 20.2744 77.4263 20.1915 77.6034 20.0675C77.7804 19.9435 77.9278 19.7815 78.0349 19.5932C78.2472 19.2159 78.4005 18.8081 78.4896 18.384C78.6145 17.868 78.6317 17.3316 78.5403 16.8085C78.3819 15.8001 77.962 14.771 77.653 13.8343C77.5269 13.5222 77.4541 13.191 77.4375 12.8546C77.4373 12.8166 77.441 12.7787 77.4486 12.7415V12.7128C77.5777 12.6522 77.7118 12.6032 77.8495 12.5662C77.9287 12.5439 78.0079 12.528 78.0856 12.5137C78.3581 14.0005 78.6312 15.4842 78.9048 16.9646C78.9048 16.9997 78.919 17.0347 78.9254 17.0698C78.9634 17.2833 79.003 17.4951 79.0474 17.707C79.0917 17.9189 79.1298 18.0909 79.1773 18.2805C79.1932 18.3442 79.2106 18.4095 79.228 18.4733C79.2771 18.6485 79.331 18.8205 79.3865 18.9926C79.7731 20.0328 80.418 21.0699 80.1819 22.1389Z" fill="#E7936D"/>
<path d="M95.2569 38.0167C95.2432 38.2361 95.2852 38.4554 95.3789 38.654C95.6103 39.0809 96.1712 39.1781 96.6466 39.2179C99.4661 39.4516 102.303 39.365 105.103 38.9598C105.255 38.9487 105.403 38.9023 105.534 38.8244C105.932 38.544 105.693 37.8606 105.252 37.6408C104.812 37.4209 104.301 37.4815 103.826 37.3811C103.352 37.2606 102.9 37.0637 102.489 36.7981C101.522 36.2394 100.571 35.6553 99.6366 35.0457C99.0772 34.6841 98.4165 34.2986 97.7874 34.5136C96.0777 35.0935 95.2443 36.1672 95.2569 38.0167Z" fill="#2F2E41"/>
<path d="M74.4713 16.6873L74.4571 16.7654L74.4333 16.896C74.3557 17.2975 74.259 17.6926 74.1497 18.0956C73.847 19.1932 73.443 20.2749 73.0405 21.339L69.8065 29.9096C69.534 30.6297 69.263 31.3434 68.954 32.0539C68.851 32.288 68.7449 32.5318 68.6371 32.7644C68.2584 33.6198 67.894 34.504 67.7735 35.4168C67.6943 36.0205 67.6151 36.637 67.7339 37.2344C67.8528 37.8318 68.2093 38.4165 68.7813 38.6363C69.057 38.7446 69.4516 38.8896 69.3755 39.178C69.3359 39.3373 69.1568 39.4137 68.9952 39.4392C68.7833 39.4736 68.5664 39.4604 68.3602 39.4006C68.1539 39.3409 67.9633 39.236 67.8021 39.0935C67.501 38.8259 67.2681 38.4069 66.8672 38.3623C66.5899 38.332 66.3348 38.4993 66.0749 38.6156C65.0371 39.0935 63.8297 38.759 62.7395 38.4197C62.8251 37.9768 63.2687 37.6837 63.7076 37.5961C64.1466 37.5084 64.6029 37.569 65.0529 37.5578C65.1969 37.5654 65.3396 37.5281 65.4617 37.4511C65.5721 37.3519 65.6509 37.2223 65.6883 37.0783C65.9771 36.2169 66.1918 35.3322 66.33 34.4339C66.4758 33.494 66.536 32.5413 66.742 31.6142C66.9005 30.8909 67.1508 30.19 67.3632 29.4795C67.7753 28.0172 68.1133 26.5349 68.3757 25.0381C68.5086 24.4168 68.6039 23.788 68.6609 23.1551C68.6973 22.6294 68.6799 22.1005 68.7306 21.578C68.8147 20.8971 68.9557 20.2246 69.1521 19.5676C69.3454 18.8491 69.5371 18.1338 69.7304 17.417C70.0156 16.356 70.3215 15.2552 71.044 14.4316C71.2948 14.1413 71.6023 13.9059 71.9474 13.7401C72.2925 13.5744 72.6678 13.4816 73.05 13.4678C73.1934 13.4671 73.3363 13.4826 73.4763 13.514L73.546 13.5315C73.699 13.5711 73.8457 13.6323 73.9817 13.7131C74.2051 13.5697 74.3176 13.6207 74.4666 13.839C74.5959 14.072 74.6568 14.3372 74.6425 14.6036C74.6539 15.3022 74.5966 16.0001 74.4713 16.6873Z" fill="#FBBEBE"/>
<path d="M74.7154 17.5328L74.7059 17.5424L74.6552 17.5933L74.1497 18.1015L73.9009 17.0533L73.05 13.4626C73.1934 13.4619 73.3364 13.4774 73.4763 13.5088C73.4824 13.4675 73.4924 13.427 73.5064 13.3877L73.546 13.5263L73.8344 14.5124L74.3811 16.3842L74.4714 16.6933L74.7154 17.5328Z" fill="#E7936D"/>
<path d="M77.553 3.54443H73.2969C72.2468 3.54443 71.3955 4.40031 71.3955 5.45609V6.69707C71.3955 7.75285 72.2468 8.60873 73.2969 8.60873H77.553C78.6031 8.60873 79.4544 7.75285 79.4544 6.69707V5.45609C79.4544 4.40031 78.6031 3.54443 77.553 3.54443Z" fill="#3F3D56"/>
<path d="M79.9252 6.2668C81.3508 6.2668 82.5064 5.10495 82.5064 3.67173C82.5064 2.23851 81.3508 1.07666 79.9252 1.07666C78.4996 1.07666 77.344 2.23851 77.344 3.67173C77.344 5.10495 78.4996 6.2668 79.9252 6.2668Z" fill="#3F3D56"/>
<path opacity="0.1" d="M79.8634 1.07558H79.7683C80.4331 1.10428 81.0612 1.38998 81.5215 1.87307C81.9818 2.35615 82.2388 2.99928 82.2388 3.66826C82.2388 4.33724 81.9818 4.98038 81.5215 5.46346C81.0612 5.94654 80.4331 6.23224 79.7683 6.26094H79.8634C80.548 6.26094 81.2045 5.98753 81.6886 5.50086C82.1726 5.01419 82.4446 4.35413 82.4446 3.66587C82.4446 2.97762 82.1726 2.31755 81.6886 1.83088C81.2045 1.34421 80.548 1.0708 79.8634 1.0708V1.07558Z" fill="black"/>
<path opacity="0.1" d="M68.4198 1.07558H68.5149C67.8501 1.10428 67.222 1.38998 66.7617 1.87307C66.3014 2.35615 66.0444 2.99928 66.0444 3.66826C66.0444 4.33724 66.3014 4.98038 66.7617 5.46346C67.222 5.94654 67.8501 6.23224 68.5149 6.26094H68.4198C68.0809 6.26094 67.7452 6.19382 67.432 6.06341C67.1189 5.93299 66.8343 5.74184 66.5946 5.50086C66.3549 5.25989 66.1648 4.97381 66.0351 4.65896C65.9054 4.34411 65.8386 4.00666 65.8386 3.66587C65.8386 3.32508 65.9054 2.98763 66.0351 2.67278C66.1648 2.35793 66.3549 2.07185 66.5946 1.83088C66.8343 1.5899 67.1189 1.39875 67.432 1.26834C67.7452 1.13792 68.0809 1.0708 68.4198 1.0708V1.07558Z" fill="black"/>
<path opacity="0.1" d="M79.5338 8.10058H72.9929C72.7927 8.10058 72.6007 8.02074 72.459 7.87858C72.3173 7.73641 72.2375 7.54354 72.2371 7.34229V7.84728C72.2375 8.04869 72.3172 8.24172 72.4589 8.38414C72.6006 8.52655 72.7926 8.60674 72.9929 8.60717H79.5402C79.7405 8.60674 79.9325 8.52655 80.0741 8.38414C80.2158 8.24172 80.2956 8.04869 80.296 7.84728V7.34229C80.2956 7.44242 80.2755 7.54149 80.237 7.63382C80.1984 7.72615 80.1421 7.80993 80.0713 7.88037C80.0005 7.9508 79.9166 8.00651 79.8244 8.04429C79.7322 8.08208 79.6334 8.10121 79.5338 8.10058Z" fill="black"/>
<path d="M101.723 34.6648C101.723 34.6648 102.132 34.7364 102.199 34.4035C102.232 34.2442 102.12 33.2215 101.991 32.1987C101.929 31.6953 101.863 31.1935 101.809 30.7921C101.744 30.2998 101.696 29.9605 101.696 29.9605L101.622 29.712L101.182 28.2241L100.766 26.8222L100.461 26.271L98.2597 27.3479L96.8906 29.7263L97.3153 29.9955L97.3897 30.0433L98.1709 30.8653L100.361 33.1753L101.346 34.2155L101.462 34.3366L101.723 34.6648Z" fill="#FFE09C"/>
<path d="M99.9931 25.3247C99.9931 25.3247 97.5815 26.4621 97.0016 27.6983C97.0016 27.6983 96.4596 28.7386 96.3915 29.2914C96.3915 29.2914 96.233 29.7964 97.2329 29.9206C97.2329 29.9206 97.6877 28.0647 99.0519 27.2587L100.418 26.4542L99.9931 25.3247Z" fill="#E7C4C3"/>
<path d="M100.621 28.1801C100.739 27.7389 100.533 27.3 100.161 27.1998C99.7894 27.0996 99.3926 27.3761 99.275 27.8173C99.1574 28.2585 99.3634 28.6974 99.7352 28.7976C100.107 28.8978 100.504 28.6214 100.621 28.1801Z" fill="#FF7F8E"/>
<path d="M100.36 31.064C100.477 30.6244 100.271 30.1877 99.9003 30.0885C99.5299 29.9892 99.1353 30.2651 99.0188 30.7046C98.9023 31.1442 99.1081 31.5809 99.4785 31.6801C99.8489 31.7794 100.244 31.5035 100.36 31.064Z" fill="#FF7F8E"/>
<path d="M98.1709 30.8655C98.2972 30.8139 98.4095 30.7328 98.4985 30.6289C98.5875 30.5251 98.6507 30.4014 98.6827 30.2681C98.7999 29.8284 98.5939 29.3903 98.2231 29.2915C97.8524 29.1928 97.4578 29.4684 97.3421 29.908C97.333 29.9378 97.3261 29.9681 97.3215 29.9989L97.396 30.0466L98.1709 30.8655Z" fill="#FF7F8E"/>
<path d="M101.117 29.8028C101.203 29.8249 101.294 29.8282 101.382 29.8126C101.47 29.7969 101.554 29.7627 101.628 29.712L101.188 28.2241C101.057 28.2731 100.939 28.3538 100.847 28.4591C100.754 28.5644 100.688 28.691 100.655 28.8279C100.54 29.2723 100.746 29.7041 101.117 29.8028Z" fill="#FF7F8E"/>
<path d="M101.372 32.3771C101.482 32.4034 101.598 32.4008 101.708 32.3696C101.817 32.3384 101.917 32.2795 101.998 32.1987C101.936 31.6953 101.869 31.1935 101.815 30.792H101.795C101.424 30.6917 101.029 30.9689 100.912 31.4085C100.795 31.8482 101.002 32.2783 101.372 32.3771Z" fill="#FF7F8E"/>
<path d="M101.346 34.211C101.392 34.1338 101.426 34.0507 101.449 33.9641C101.567 33.5244 101.361 33.0879 100.99 32.9891C100.878 32.9618 100.76 32.9641 100.649 32.996C100.538 33.0278 100.437 33.088 100.356 33.1707L101.346 34.211Z" fill="#FF7F8E"/>
<path d="M100.258 27.5488L100.511 27.6173C100.412 27.8017 100.353 28.0054 100.339 28.2147C100.338 28.2285 100.338 28.2423 100.339 28.2561C100.372 28.519 100.085 28.1876 100.085 28.1876C100.085 28.1876 100.134 27.6476 100.258 27.5488Z" fill="#94CC79"/>
<path d="M99.1028 29.1924L99.3579 29.2609C99.2574 29.4443 99.1984 29.6477 99.1852 29.8567C99.1844 29.8705 99.1844 29.8843 99.1852 29.8981C99.2184 30.161 98.9316 29.8296 98.9316 29.8296C98.9316 29.8296 98.9792 29.2896 99.1028 29.1924Z" fill="#94CC79"/>
<path d="M99.8917 29.7354L100.145 29.8023C100.046 29.9866 99.9867 30.1904 99.9725 30.3997C99.9717 30.4134 99.9717 30.4273 99.9725 30.4411C100.007 30.7039 99.719 30.3726 99.719 30.3726C99.719 30.3726 99.7713 29.8325 99.8917 29.7354Z" fill="#94CC79"/>
<path d="M100.906 31.1074L101.161 31.1743C101.06 31.3584 101.002 31.5623 100.988 31.7717C100.987 31.7855 100.987 31.7993 100.988 31.8131C101.021 32.076 100.735 31.7446 100.735 31.7446C100.735 31.7446 100.784 31.2046 100.906 31.1074Z" fill="#94CC79"/>
<path d="M101.538 33.3647L101.792 33.4332C101.692 33.6171 101.633 33.8203 101.619 34.029C101.618 34.0428 101.618 34.0567 101.619 34.0705C101.654 34.3333 101.365 34.0036 101.365 34.0036C101.365 34.0036 101.415 33.4619 101.538 33.3647Z" fill="#94CC79"/>
<path d="M100.163 31.7856L100.416 31.8541C100.316 32.0404 100.258 32.2465 100.247 32.4579C100.246 32.4717 100.246 32.4855 100.247 32.4993C100.28 32.7622 99.9932 32.4324 99.9932 32.4324C99.9932 32.4324 100.041 31.8828 100.163 31.7856Z" fill="#94CC79"/>
<path d="M100.777 25.5354C100.777 25.5354 100.415 24.7086 99.9851 25.3251C100.021 25.8256 100.185 26.3084 100.46 26.727C100.46 26.727 101.774 30.3193 101.665 30.8689C101.665 30.8689 102.183 34.3385 102.054 34.5329C102.054 34.5329 102.197 34.7782 102.299 33.8558C102.4 32.9335 101.955 30.2237 101.955 30.2237L101.303 27.4072L100.868 26.4514L100.777 25.5354Z" fill="#E7C4C3"/>
<path opacity="0.2" d="M100.777 25.5354C100.777 25.5354 100.415 24.7086 99.9851 25.3251C100.021 25.8256 100.185 26.3084 100.46 26.727C100.46 26.727 101.774 30.3193 101.665 30.8689C101.665 30.8689 102.183 34.3385 102.054 34.5329C102.054 34.5329 102.197 34.7782 102.299 33.8558C102.4 32.9335 101.955 30.2237 101.955 30.2237L101.303 27.4072L100.868 26.4514L100.777 25.5354Z" fill="white"/>
<path d="M96.4202 26.9053C96.4202 26.9053 97.0714 28.7914 97.6672 28.2896L97.1918 25.8252L96.4202 26.9053Z" fill="#FBBEBE"/>
<path d="M51.879 34.6519C51.879 34.6519 57.6229 44.3806 58.965 45.6805C58.965 45.6805 64.7042 51.6704 61.787 51.2562C61.5731 51.2259 57.3725 47.6559 57.1269 47.0697C56.8813 46.4834 48.9397 36.1111 48.9397 36.1111L50.0726 35.0629L51.879 34.6519Z" fill="#A0616A"/>
<path opacity="0.1" d="M51.879 34.6519C51.879 34.6519 57.6229 44.3806 58.965 45.6805C58.965 45.6805 64.7042 51.6704 61.787 51.2562C61.5731 51.2259 57.3725 47.6559 57.1269 47.0697C56.8813 46.4834 48.9397 36.1111 48.9397 36.1111L50.0726 35.0629L51.879 34.6519Z" fill="black"/>
<path d="M57.1316 66.4251C57.1316 66.4251 55.2935 68.7351 56.0604 69.659C56.8273 70.583 60.6476 72.3497 61.8804 72.2764C63.1829 72.1999 67.5482 72.4357 67.7019 70.4285C67.7019 70.4285 68.0078 69.5045 64.0258 69.35C60.0439 69.1954 61.2672 65.0376 61.2672 65.0376L57.1316 66.4251Z" fill="#2F2E41"/>
<path d="M35.2272 46.8661C35.2272 46.8661 33.3891 53.1793 38.9033 54.2578L44.877 53.9503C44.877 53.9503 53.3019 52.2553 55.6011 53.4884C55.6011 53.4884 56.5201 53.6477 56.2127 54.8743C55.9053 56.101 56.6722 64.423 56.6722 64.423V67.1949C56.6722 67.1949 61.8805 67.1949 62.4938 66.5784C62.4938 66.5784 62.0342 64.114 62.4938 62.1179C62.9533 60.1218 61.7284 53.8006 61.7284 53.8006L61.6064 50.0076C61.5971 49.5375 61.4635 49.0784 61.2192 48.6775C60.975 48.2766 60.629 47.9483 60.2168 47.7263C59.9271 47.5721 59.6049 47.4896 59.2772 47.4858C59.2772 47.4858 48.8605 45.7924 45.1844 46.0998C41.5083 46.4073 35.2272 46.8661 35.2272 46.8661Z" fill="#605D82"/>
<path d="M45.4903 26.6899C45.4903 26.6899 48.2474 29.9238 48.5532 31.0023C48.859 32.0808 52.2357 34.8479 52.2357 34.8479C52.2357 34.8479 49.7844 36.6959 50.2439 37.6198C50.7034 38.5438 47.0273 34.5405 47.0273 34.5405L42.7285 28.2304L45.4903 26.6899Z" fill="#E7936D"/>
<path opacity="0.1" d="M45.4903 26.6899C45.4903 26.6899 48.2474 29.9238 48.5532 31.0023C48.859 32.0808 52.2357 34.8479 52.2357 34.8479C52.2357 34.8479 49.7844 36.6959 50.2439 37.6198C50.7034 38.5438 47.0273 34.5405 47.0273 34.5405L42.7285 28.2304L45.4903 26.6899Z" fill="black"/>
<path d="M47.3235 22.9943C47.3235 22.9943 45.945 27.4548 45.945 29.1546C45.945 30.8543 40.1235 28.6926 40.2772 27.7686C40.4309 26.8446 43.6474 23.4562 43.8011 22.0703C43.9548 20.6843 47.3235 22.9943 47.3235 22.9943Z" fill="#A0616A"/>
<path opacity="0.1" d="M42.7284 26.0733C42.7284 26.0733 37.3664 24.6873 36.601 32.5426C35.8357 40.398 37.2127 41.3203 34.9151 46.0947C32.6175 50.869 50.5401 46.7112 50.5401 46.7112C50.5401 46.7112 49.6211 45.6327 46.7103 46.0947L45.3318 41.9368C45.3318 41.9368 44.8723 40.0889 47.4772 40.0889C50.0822 40.0889 48.8558 34.698 48.8558 34.698C48.8558 34.698 47.4772 30.0782 46.7103 29.6162C45.9434 29.1542 44.5712 26.3823 42.7284 26.0733Z" fill="black"/>
<path d="M42.7284 25.7672C42.7284 25.7672 37.3664 24.3812 36.601 32.2349C35.8357 40.0886 37.2127 41.0142 34.9151 45.7886C32.6175 50.5629 50.5401 46.4051 50.5401 46.4051C50.5401 46.4051 49.6211 45.3266 46.7103 45.7886L45.3318 41.6307C45.3318 41.6307 44.877 39.786 47.482 39.786C50.0869 39.786 48.8605 34.3951 48.8605 34.3951C48.8605 34.3951 47.482 29.7753 46.7151 29.3133C45.9482 28.8513 44.5712 26.073 42.7284 25.7672Z" fill="#E7936D"/>
<path d="M45.9497 25.7662C48.7413 25.7662 51.0043 23.491 51.0043 20.6844C51.0043 17.8777 48.7413 15.6025 45.9497 15.6025C43.1581 15.6025 40.895 17.8777 40.895 20.6844C40.895 23.491 43.1581 25.7662 45.9497 25.7662Z" fill="#A0616A"/>
<path d="M44.9736 46.705L57.6768 54.3388L69.4958 43.2672L55.4062 38.3335L45.2668 45.2728L44.9736 46.705Z" fill="#DADAE5"/>
<path d="M59.9649 25.3363L56.0115 37.1567L69.1187 40.9465L74.7136 24.9619L59.9649 25.3363Z" fill="#DADAE5"/>
<path opacity="0.03" d="M58.9097 24.4623L59.9824 25.4484L74.7312 25.074L75.0703 24.1055L58.9097 24.4623Z" fill="black"/>
<path opacity="0.03" d="M55.0164 36.476L58.9095 24.4629L59.9823 25.449L56.1287 36.9731L55.0164 36.476Z" fill="black"/>
<path d="M58.8921 24.3495L59.9648 25.3356L74.7136 24.9612L75.0527 23.9927L58.8921 24.3495Z" fill="#EFF0F4"/>
<path d="M54.999 36.3644L58.8922 24.3496L59.9649 25.3357L56.1114 36.8598L54.999 36.3644Z" fill="#EFF0F4"/>
<path opacity="0.03" d="M58.8921 24.3495L60.5321 25.8916L75.2824 25.5172L75.0527 23.9927L58.8921 24.3495Z" fill="black"/>
<path opacity="0.03" d="M54.999 36.3644L58.8922 24.3496L60.5322 25.8917L56.6786 37.4158L54.999 36.3644Z" fill="black"/>
<path opacity="0.03" d="M55.0242 36.5337L55.3823 38.8197L69.559 43.7677L69.1455 41.1153L55.0242 36.5337Z" fill="black"/>
<path opacity="0.03" d="M44.5442 44.0465L55.0243 36.5337L55.4822 38.8181L45.1875 46.5157L44.5442 44.0465Z" fill="black"/>
<path d="M54.999 36.3643L55.3064 38.3349L69.4832 43.2829L69.1187 40.9459L54.999 36.3643Z" fill="#EFF0F4"/>
<path d="M44.5173 43.8755L54.999 36.3643L55.4062 38.3333L45.1115 46.0309L44.5173 43.8755Z" fill="#EFF0F4"/>
<path opacity="0.03" d="M54.999 36.3643L55.3064 38.3349L69.4832 43.2829L69.1187 40.9459L54.999 36.3643Z" fill="black"/>
<path opacity="0.03" d="M44.5173 43.8755L54.999 36.3643L55.4062 38.3333L45.1115 46.0309L44.5173 43.8755Z" fill="black"/>
<path d="M44.5173 43.876L44.9911 46.7164L57.6594 54.3263L57.3473 51.4031L44.5173 43.876Z" fill="#CCCAD6"/>
<path d="M50.2896 43.4263C50.2896 43.4263 50.0694 43.8485 50.4053 44.0428C50.5638 44.1352 51.7094 44.3614 52.8597 44.5781C53.4238 44.6832 53.9895 44.7852 54.4443 44.8648C54.9989 44.9636 55.3823 45.0242 55.3823 45.0242H55.6739L57.4359 45.0576L59.0933 45.0895L59.7952 44.9445L59.3912 42.1758L57.2933 39.8579L56.8543 40.2307L56.7799 40.2944L55.6263 40.8583L52.3717 42.4514L50.9076 43.1683L50.7365 43.2527L50.2896 43.4263Z" fill="#FFE09C"/>
<path d="M60.9807 44.7627C60.9807 44.7627 60.5861 41.7359 59.4484 40.6749C59.4484 40.6749 58.5135 39.7191 57.9384 39.4579C57.9384 39.4579 57.4487 39.109 56.967 40.1604C56.967 40.1604 58.8162 41.2978 59.2155 43.0677L59.6132 44.8376L60.9807 44.7627Z" fill="#E7C4C3"/>
<path d="M58.7568 43.6825C58.9924 43.3118 58.8306 42.7847 58.3955 42.5053C57.9604 42.2258 57.4167 42.2998 57.1811 42.6705C56.9456 43.0413 57.1074 43.5683 57.5425 43.8478C57.9776 44.1272 58.5213 44.0532 58.7568 43.6825Z" fill="#FF7F8E"/>
<path d="M55.8665 43.0253C56.102 42.6545 55.9402 42.1275 55.5051 41.848C55.07 41.5686 54.5263 41.6426 54.2908 42.0133C54.0552 42.384 54.217 42.9111 54.6521 43.1905C55.0872 43.47 55.6309 43.396 55.8665 43.0253Z" fill="#FF7F8E"/>
<path d="M55.6265 40.8601C55.6388 41.0168 55.6884 41.1682 55.7711 41.3015C55.8538 41.4349 55.9673 41.5463 56.1018 41.6263C56.536 41.9051 57.0795 41.8318 57.314 41.467C57.5485 41.1022 57.3885 40.5701 56.9527 40.2913C56.923 40.2723 56.8923 40.2547 56.8608 40.2388L56.7863 40.3025L55.6265 40.8601Z" fill="#FF7F8E"/>
<path d="M55.7533 44.4426C55.6993 44.5299 55.6643 44.6276 55.6503 44.7294C55.6364 44.8313 55.644 44.9349 55.6725 45.0336L57.4345 45.067C57.4277 44.9049 57.3806 44.7471 57.2976 44.608C57.2145 44.4688 57.0982 44.3528 56.9591 44.2705C56.5313 43.9981 55.9878 44.073 55.7533 44.4426Z" fill="#FF7F8E"/>
<path d="M52.8819 43.8328C52.8149 43.9447 52.7777 44.0721 52.7738 44.2026C52.7699 44.3332 52.7995 44.4626 52.8597 44.5783C53.4238 44.6835 53.9895 44.7854 54.4442 44.8651L54.4585 44.8444C54.693 44.4748 54.5314 43.9475 54.0972 43.6687C53.6631 43.3899 53.118 43.4632 52.8819 43.8328Z" fill="#FF7F8E"/>
<path d="M50.9077 43.1714C50.9756 43.2475 51.0534 43.3139 51.1391 43.369C51.5732 43.6478 52.1167 43.5745 52.3512 43.2097C52.4187 43.0973 52.456 42.9692 52.4596 42.838C52.4633 42.7068 52.433 42.5769 52.3718 42.4609L50.9077 43.1714Z" fill="#FF7F8E"/>
<path d="M58.4848 44.2835L58.3264 44.5368C58.1622 44.3645 57.9627 44.2303 57.7417 44.1434L57.6957 44.1322C57.3994 44.078 57.8542 43.8789 57.8542 43.8789C57.8542 43.8789 58.423 44.1163 58.4848 44.2835Z" fill="#94CC79"/>
<path d="M57.1079 42.4549L56.9495 42.7098C56.7855 42.5369 56.586 42.402 56.3648 42.3147L56.3188 42.3036C56.0241 42.251 56.4773 42.0503 56.4773 42.0503C56.4773 42.0503 57.0461 42.2877 57.1079 42.4549Z" fill="#94CC79"/>
<path d="M56.2492 43.1317L56.0908 43.385C55.9266 43.2127 55.7271 43.0784 55.5061 42.9915L55.4601 42.9803C55.1638 42.9262 55.6186 42.7271 55.6186 42.7271C55.6186 42.7271 56.1859 42.9612 56.2492 43.1317Z" fill="#94CC79"/>
<path d="M54.4157 43.7684L54.2573 44.0233C54.0934 43.8503 53.8938 43.7155 53.6726 43.6282L53.6266 43.6171C53.3303 43.5645 53.7851 43.3638 53.7851 43.3638C53.7851 43.3638 54.3524 43.5948 54.4157 43.7684Z" fill="#94CC79"/>
<path d="M51.7602 43.6732L51.6017 43.9281C51.4371 43.7552 51.237 43.6204 51.0154 43.533L50.9695 43.5219C50.6748 43.4693 51.1279 43.2686 51.1279 43.2686C51.1279 43.2686 51.6952 43.5043 51.7602 43.6732Z" fill="#94CC79"/>
<path d="M53.9389 42.7173L53.7805 42.9706C53.6165 42.7976 53.417 42.6628 53.1958 42.5755L53.1498 42.5643C52.8535 42.5118 53.3083 42.311 53.3083 42.311C53.3083 42.311 53.8755 42.5484 53.9389 42.7173Z" fill="#94CC79"/>
<path d="M60.4749 45.5485C60.4749 45.5485 61.4938 45.4369 60.974 44.7631C60.4221 44.6276 59.8447 44.6375 59.2976 44.7918C59.2976 44.7918 54.9607 44.9861 54.3982 44.6739C54.3982 44.6739 50.4686 44.0367 50.3102 43.8359C50.3102 43.8359 49.9933 43.906 50.9566 44.3362C51.92 44.7663 55.0019 45.2155 55.0019 45.2155L58.2708 45.4768L59.4465 45.3302L60.4749 45.5485Z" fill="#E7C4C3"/>
<path opacity="0.2" d="M60.4749 45.5485C60.4749 45.5485 61.4938 45.4369 60.974 44.7631C60.4221 44.6276 59.8447 44.6375 59.2976 44.7918C59.2976 44.7918 54.9607 44.9861 54.3982 44.6739C54.3982 44.6739 50.4686 44.0367 50.3102 43.8359C50.3102 43.8359 49.9933 43.906 50.9566 44.3362C51.92 44.7663 55.0019 45.2155 55.0019 45.2155L58.2708 45.4768L59.4465 45.3302L60.4749 45.5485Z" fill="white"/>
<path d="M57.3851 43.986C57.3375 44.135 57.3261 44.2933 57.3517 44.4477C57.3773 44.602 57.4393 44.748 57.5325 44.8734C57.8304 45.2955 58.3612 45.4325 58.7193 45.1792C59.0774 44.9259 59.1233 44.3827 58.8239 43.9526C58.8033 43.9239 58.7811 43.8952 58.7589 43.8682L58.6638 43.9L57.3851 43.986Z" fill="#FF7F8E"/>
<path d="M57.3472 51.4026L69.1186 40.9458L69.4799 43.2541L57.6593 54.3258L57.3472 51.4026Z" fill="#CCCAD6"/>
<path d="M70.6461 41.5417L69.1187 40.9459L75.0527 23.9927L76.1841 24.7956L70.6461 41.5417Z" fill="#CCCAD6"/>
<g opacity="0.1">
<path opacity="0.1" d="M61.093 66.2515C61.1049 65.8414 61.164 65.4341 61.2689 65.0376L61.1913 65.0647C61.1152 65.4554 61.0823 65.8535 61.093 66.2515Z" fill="white"/>
<path opacity="0.1" d="M61.8805 71.9661C60.6477 72.0394 56.8258 70.2711 56.0605 69.3471C55.9595 69.2226 55.8977 69.0707 55.8831 68.9106C55.8604 69.0405 55.8645 69.1737 55.895 69.3019C55.9255 69.4301 55.9819 69.5507 56.0605 69.6562C56.8258 70.5802 60.6477 72.3468 61.8805 72.2736C63.183 72.1971 67.5484 72.4329 67.7021 70.4256C67.7127 70.3717 67.7054 70.3157 67.6815 70.2663C67.3297 72.1111 63.1497 71.8944 61.8805 71.9661Z" fill="white"/>
</g>
<path d="M66.3568 34.59C66.3568 34.59 66.6294 34.2714 66.3822 34.042C66.2633 33.9305 65.3316 33.5036 64.3936 33.0862C63.9325 32.8823 63.4682 32.6816 63.099 32.5223L62.3305 32.1925L62.0818 32.1288L60.5844 31.7449L59.1757 31.3832L58.5419 31.3657L58.3296 33.8174L59.659 36.2197L60.1058 35.9903L60.1835 35.9505L61.2816 35.702L64.3841 35.0074L65.7769 34.6888L65.9353 34.6522L66.3568 34.59Z" fill="#FFE09C"/>
<path d="M57.4963 31.2905C57.4963 31.2905 57.2285 33.9541 57.9875 35.0899C57.9875 35.0899 58.5959 36.0904 59.0333 36.4345C59.0333 36.4345 59.3819 36.8295 60.0046 36.0298C60.0046 36.0298 58.6514 34.6853 58.6656 33.0939L58.6783 31.5008L57.4963 31.2905Z" fill="#E7C4C3"/>
<path d="M60.3216 33.8568C60.5964 33.5882 60.5635 33.1061 60.2482 32.7799C59.9328 32.4538 59.4544 32.4071 59.1795 32.6757C58.9047 32.9444 58.9375 33.4265 59.2529 33.7527C59.5683 34.0788 60.0467 34.1255 60.3216 33.8568Z" fill="#FF7F8E"/>
<path d="M62.659 34.9999C62.9338 34.7313 62.9009 34.2492 62.5856 33.923C62.2702 33.5968 61.7918 33.5502 61.5169 33.8188C61.2421 34.0874 61.2749 34.5696 61.5903 34.8957C61.9057 35.2219 62.3841 35.2685 62.659 34.9999Z" fill="#FF7F8E"/>
<path d="M61.2879 35.7036C61.3089 35.568 61.2975 35.4294 61.2545 35.2991C61.2115 35.1689 61.1382 35.0509 61.0407 34.9549C60.7238 34.6363 60.2484 34.5821 59.9711 34.8513C59.6938 35.1205 59.7303 35.6017 60.0456 35.9282C60.0666 35.9507 60.0888 35.972 60.1121 35.9919L60.1898 35.9521L61.2879 35.7036Z" fill="#FF7F8E"/>
<path d="M61.901 32.6181C61.9646 32.5544 62.014 32.4779 62.046 32.3936C62.0779 32.3093 62.0917 32.2191 62.0864 32.129L60.589 31.7451C60.5632 31.8835 60.5718 32.0262 60.6141 32.1605C60.6564 32.2947 60.7311 32.4163 60.8315 32.5146C61.142 32.8427 61.6206 32.8889 61.901 32.6181Z" fill="#FF7F8E"/>
<path d="M64.2241 33.7202C64.3043 33.6375 64.362 33.5355 64.3917 33.4239C64.4214 33.3123 64.4221 33.1949 64.3936 33.083C63.9325 32.8791 63.4683 32.6783 63.0991 32.519L63.0816 32.5334C62.8075 32.8026 62.8408 33.2853 63.1561 33.6119C63.4714 33.9384 63.95 33.9894 64.2241 33.7202Z" fill="#FF7F8E"/>
<path d="M65.777 34.6886C65.735 34.6095 65.6816 34.537 65.6186 34.4735C65.3017 34.147 64.8263 34.1008 64.5506 34.37C64.47 34.4524 64.4121 34.5545 64.3827 34.6662C64.3532 34.778 64.3532 34.8955 64.3826 35.0072L65.777 34.6886Z" fill="#FF7F8E"/>
<path d="M59.5244 32.2032L59.713 32.02C59.8192 32.2002 59.963 32.3551 60.1345 32.474L60.1709 32.4932C60.4133 32.5983 59.9823 32.6764 59.9823 32.6764C59.9823 32.6764 59.5514 32.3593 59.5244 32.2032Z" fill="#94CC79"/>
<path d="M60.342 34.0515L60.529 33.8667C60.6351 34.0474 60.7789 34.2029 60.9505 34.3223L60.9869 34.3398C61.2294 34.4466 60.7984 34.5246 60.7984 34.5246C60.7984 34.5246 60.3611 34.1981 60.342 34.0515Z" fill="#94CC79"/>
<path d="M61.2087 33.6423L61.3973 33.4575C61.5033 33.6383 61.6471 33.7937 61.8188 33.9131L61.8552 33.9307C62.0977 34.0374 61.6667 34.1154 61.6667 34.1154C61.6667 34.1154 61.2293 33.7984 61.2087 33.6423Z" fill="#94CC79"/>
<path d="M62.9009 33.4695L63.0894 33.2847C63.1953 33.4651 63.3385 33.6205 63.5094 33.7403L63.5474 33.7594C63.7882 33.8645 63.3588 33.9426 63.3588 33.9426C63.3588 33.9426 62.9215 33.6256 62.9009 33.4695Z" fill="#94CC79"/>
<path d="M65.1526 34.0847L65.3412 33.8999C65.4463 34.0808 65.5897 34.2363 65.7611 34.3555L65.7991 34.373C66.0399 34.4798 65.6105 34.5578 65.6105 34.5578C65.6105 34.5578 65.1732 34.2392 65.1526 34.0847Z" fill="#94CC79"/>
<path d="M63.0991 34.4591L63.2877 34.2759C63.3939 34.456 63.5377 34.6109 63.7092 34.7299C63.7204 34.7378 63.7327 34.7443 63.7456 34.749C63.988 34.8542 63.5571 34.9338 63.5571 34.9338C63.5571 34.9338 63.1197 34.6152 63.0991 34.4591Z" fill="#94CC79"/>
<path d="M58.0793 30.7204C58.0793 30.7204 57.1872 30.6105 57.4962 31.2907C57.9403 31.5188 58.4351 31.6285 58.9334 31.6093C58.9334 31.6093 62.6744 32.3198 63.0928 32.699C63.0928 32.699 66.3204 34.034 66.4203 34.2411C66.4203 34.2411 66.7039 34.2411 65.9687 33.6819C65.2335 33.1227 62.6935 32.1112 62.6935 32.1112L59.9554 31.227L58.9223 31.1139L58.0793 30.7204Z" fill="#E7C4C3"/>
<path opacity="0.2" d="M58.0793 30.7204C58.0793 30.7204 57.1872 30.6105 57.4962 31.2907C57.9403 31.5188 58.4351 31.6285 58.9334 31.6093C58.9334 31.6093 62.6744 32.3198 63.0928 32.699C63.0928 32.699 66.3204 34.034 66.4203 34.2411C66.4203 34.2411 66.7039 34.2411 65.9687 33.6819C65.2335 33.1227 62.6935 32.1112 62.6935 32.1112L59.9554 31.227L58.9223 31.1139L58.0793 30.7204Z" fill="white"/>
<path d="M53.5174 34.4307C53.9724 34.1906 54.3843 33.8756 54.7359 33.4988C54.8943 33.3108 55.0274 33.0989 55.1907 32.9141C55.602 32.4722 56.1367 32.1657 56.7245 32.0348C57.3076 31.906 57.9039 31.8477 58.5007 31.8611C58.9002 31.8355 59.3009 31.8841 59.6828 32.0045C59.8738 32.0673 60.0459 32.1779 60.1828 32.3258C60.3197 32.4738 60.417 32.6543 60.4655 32.8504C60.5527 33.3283 60.2421 33.7919 59.8698 34.0993C59.523 34.3838 59.115 34.5829 58.6782 34.6808C58.3222 34.7427 57.963 34.7848 57.6023 34.8067C55.4822 35.0297 53.5903 36.1894 51.7395 37.2456C50.1075 38.1744 49.1821 38.1314 47.4883 38.9374C47.4217 38.4277 46.6548 38.8227 46.6659 38.3082C46.6754 37.9243 46.6944 37.338 47.0557 37.1118C47.4756 36.8489 48.1649 36.7932 48.6402 36.6339C49.7323 36.2739 50.799 35.8401 51.833 35.3356C52.4045 35.0541 52.966 34.7525 53.5174 34.4307Z" fill="#A0616A"/>
<path opacity="0.1" d="M39.5166 33.0044L47.6405 40.3961C47.6405 40.3961 49.1727 37.3167 49.6322 37.3167C50.0917 37.3167 44.1181 28.2364 44.1181 28.2364C44.1181 28.2364 42.5858 26.3885 41.6668 27.3124C40.7478 28.2364 37.9844 27.6135 39.5166 33.0044Z" fill="black"/>
<path d="M39.3628 32.6969L47.4819 40.0886C47.4819 40.0886 49.0141 37.0076 49.4737 37.0076C49.9332 37.0076 43.9579 27.9273 43.9579 27.9273C43.9579 27.9273 42.4257 26.0777 41.5066 27.0017C40.5876 27.9257 37.8305 27.306 39.3628 32.6969Z" fill="#E7936D"/>
<path d="M52.73 19.6677C52.9073 19.4694 53.0512 19.2434 53.1562 18.9986C53.8566 17.4055 52.7458 15.4047 50.8491 14.8567C49.8984 14.5779 48.8336 14.6336 47.8845 14.3373C47.1207 14.1 46.4774 13.6507 45.7771 13.3003C44.4609 12.6483 43.0047 12.3342 41.5384 12.3859C40.1044 12.4368 38.5453 12.9434 37.9574 14.057C37.0986 15.6787 38.6784 17.721 37.7213 19.2997C37.0178 20.4594 35.3112 20.8019 33.8963 21.3053C32.4313 21.8147 31.0976 22.6457 29.992 23.7379C28.8828 24.853 28.0906 26.3824 28.6483 27.7651C28.9731 28.576 29.7068 29.21 30.2899 29.9094C31.2627 31.0569 31.8318 32.4951 31.9089 34.0009C31.9859 35.5067 31.5667 36.9959 30.7161 38.2378C30.4436 38.6313 30.1251 39.0152 30.0126 39.4613C29.7432 40.5254 30.8302 41.5959 32.0867 41.803C33.3433 42.0101 34.6473 41.5386 35.625 40.8424C36.5276 40.2168 37.2541 39.3674 37.734 38.3764C38.8954 35.9008 38.0794 33.1193 37.9637 30.4542C37.9495 30.1435 37.9637 29.8058 38.1808 29.5621C38.5167 29.1973 39.1506 29.2068 39.6925 29.159C41.0948 29.0348 42.3862 28.2446 42.9804 27.155C44.1165 25.0585 42.7934 22.1289 44.7788 20.5518C47.2776 18.5669 50.8745 21.7052 52.73 19.6677Z" fill="#3F3D56"/>
<path opacity="0.1" d="M50.8491 14.8506H50.8333C51.5748 15.714 51.8537 16.8801 51.4132 17.8869C51.3082 18.1318 51.1643 18.3578 50.987 18.556C49.1315 20.5935 45.5346 17.4552 43.0358 19.4401C41.0504 21.0173 42.3735 23.9469 41.2374 26.0433C40.6479 27.133 39.3518 27.9231 37.9495 28.0474C37.4076 28.0952 36.7738 28.0856 36.4378 28.4504C36.2144 28.6942 36.2065 29.0319 36.2208 29.3425C36.3364 32.0077 37.1525 34.7891 35.991 37.2647C35.5111 38.2557 34.7846 39.1052 33.882 39.7308C32.9043 40.4237 31.6019 40.9017 30.3437 40.6946L30.2566 40.6754C30.4714 40.9772 30.7439 41.2329 31.0581 41.4277C31.3724 41.6224 31.722 41.7523 32.0867 41.8097C33.3448 42.0152 34.6394 41.5373 35.625 40.8427C36.5276 40.2171 37.2541 39.3677 37.734 38.3767C38.8954 35.9011 38.0794 33.1196 37.9637 30.4545C37.9495 30.1438 37.9637 29.8061 38.1808 29.5624C38.5167 29.1976 39.1505 29.2071 39.6925 29.1593C41.0948 29.0351 42.3861 28.2449 42.9803 27.1553C44.1165 25.0588 42.7934 22.1292 44.7788 20.5521C47.2776 18.5672 50.8745 21.7055 52.7299 19.668C52.9072 19.4697 53.0512 19.2437 53.1562 18.9989C53.8565 17.4011 52.7458 15.4129 50.8491 14.8506Z" fill="black"/>
</svg>
