<svg width="120" height="90" viewBox="0 0 120 90" fill="none" xmlns="http://www.w3.org/2000/svg">
<g clip-path="url(#clip0)">
<path d="M55.3384 19.1998H25.7359C25.5906 19.1997 25.4513 19.1422 25.3485 19.0402C25.2457 18.9381 25.1879 18.7997 25.1877 18.6553V11.361C25.1879 11.2166 25.2457 11.0782 25.3485 10.9761C25.4513 10.874 25.5906 10.8166 25.7359 10.8164H55.3384C55.4838 10.8166 55.6231 10.874 55.7259 10.9761C55.8287 11.0782 55.8865 11.2166 55.8866 11.361V18.6553C55.8865 18.7997 55.8287 18.9381 55.7259 19.0402C55.6231 19.1422 55.4838 19.1997 55.3384 19.1998ZM25.7359 11.0342C25.6487 11.0343 25.5651 11.0688 25.5035 11.13C25.4418 11.1913 25.4071 11.2743 25.407 11.361V18.6553C25.4071 18.7419 25.4418 18.825 25.5035 18.8862C25.5651 18.9475 25.6487 18.9819 25.7359 18.982H55.3384C55.4256 18.9819 55.5093 18.9475 55.5709 18.8862C55.6326 18.825 55.6673 18.7419 55.6674 18.6553V11.361C55.6673 11.2743 55.6326 11.1913 55.5709 11.13C55.5093 11.0688 55.4256 11.0343 55.3384 11.0342L25.7359 11.0342Z" fill="#3F3D56"/>
<path d="M30.3356 16.9462C31.5689 16.9462 32.5686 15.9531 32.5686 14.728C32.5686 13.5029 31.5689 12.5098 30.3356 12.5098C29.1023 12.5098 28.1025 13.5029 28.1025 14.728C28.1025 15.9531 29.1023 16.9462 30.3356 16.9462Z" fill="#E7936D"/>
<path d="M35.4928 13.249C35.3941 13.249 35.2994 13.288 35.2296 13.3573C35.1598 13.4266 35.1206 13.5207 35.1206 13.6187C35.1206 13.7168 35.1598 13.8108 35.2296 13.8801C35.2994 13.9495 35.3941 13.9884 35.4928 13.9884H53.0382C53.1369 13.9884 53.2316 13.9495 53.3013 13.8801C53.3711 13.8108 53.4104 13.7168 53.4104 13.6187C53.4104 13.5207 53.3711 13.4266 53.3013 13.3573C53.2316 13.288 53.1369 13.249 53.0382 13.249H35.4928Z" fill="#E6E6E6"/>
<path d="M35.4928 15.4678C35.3941 15.4678 35.2994 15.5067 35.2296 15.5761C35.1598 15.6454 35.1206 15.7394 35.1206 15.8375C35.1206 15.9355 35.1598 16.0296 35.2296 16.0989C35.2994 16.1682 35.3941 16.2072 35.4928 16.2072H43.0426C43.0915 16.2073 43.14 16.1978 43.1853 16.1792C43.2305 16.1607 43.2716 16.1335 43.3062 16.0991C43.3409 16.0648 43.3683 16.024 43.3871 15.9791C43.4058 15.9342 43.4155 15.8861 43.4155 15.8375C43.4155 15.7889 43.4058 15.7407 43.3871 15.6958C43.3683 15.6509 43.3409 15.6102 43.3062 15.5758C43.2716 15.5415 43.2305 15.5143 43.1853 15.4957C43.14 15.4772 43.0915 15.4677 43.0426 15.4678H35.4928Z" fill="#E6E6E6"/>
<path d="M42.4866 45.2012H29.3299C29.1846 45.201 29.0453 45.1436 28.9425 45.0415C28.8397 44.9394 28.7819 44.801 28.7817 44.6567V31.0455C28.7819 30.9012 28.8397 30.7627 28.9425 30.6607C29.0453 30.5586 29.1846 30.5011 29.3299 30.501H42.4866C42.632 30.5011 42.7713 30.5586 42.8741 30.6607C42.9768 30.7627 43.0346 30.9012 43.0348 31.0455V44.6567C43.0346 44.801 42.9768 44.9394 42.8741 45.0415C42.7713 45.1436 42.632 45.201 42.4866 45.2012ZM29.3299 30.7188C29.2427 30.7189 29.1591 30.7533 29.0975 30.8146C29.0358 30.8759 29.0011 30.9589 29.001 31.0455V44.6567C29.0011 44.7433 29.0358 44.8263 29.0975 44.8876C29.1591 44.9488 29.2427 44.9833 29.3299 44.9834H42.4866C42.5738 44.9833 42.6574 44.9488 42.7191 44.8876C42.7808 44.8263 42.8155 44.7433 42.8155 44.6567V31.0455C42.8155 30.9589 42.7808 30.8759 42.7191 30.8146C42.6574 30.7533 42.5738 30.7189 42.4866 30.7188H29.3299Z" fill="#3F3D56"/>
<path d="M32.1334 33.3076C32.0347 33.3076 31.94 33.3466 31.8702 33.4159C31.8004 33.4852 31.7612 33.5793 31.7612 33.6773C31.7612 33.7754 31.8004 33.8694 31.8702 33.9387C31.94 34.0081 32.0347 34.047 32.1334 34.047H39.6832C39.7819 34.047 39.8766 34.0081 39.9464 33.9387C40.0162 33.8694 40.0554 33.7754 40.0554 33.6773C40.0554 33.5793 40.0162 33.4852 39.9464 33.4159C39.8766 33.3466 39.7819 33.3076 39.6832 33.3076H32.1334Z" fill="#E6E6E6"/>
<path d="M32.1336 35.4854C32.0847 35.4853 32.0362 35.4948 31.991 35.5133C31.9457 35.5318 31.9046 35.5591 31.87 35.5934C31.8354 35.6277 31.8079 35.6685 31.7891 35.7134C31.7704 35.7583 31.7607 35.8064 31.7607 35.855C31.7607 35.9036 31.7704 35.9518 31.7891 35.9967C31.8079 36.0416 31.8354 36.0824 31.87 36.1167C31.9046 36.151 31.9457 36.1783 31.991 36.1968C32.0362 36.2153 32.0847 36.2248 32.1336 36.2247H39.6834C39.7821 36.2247 39.8768 36.1858 39.9466 36.1165C40.0164 36.0471 40.0556 35.9531 40.0556 35.855C40.0556 35.757 40.0164 35.663 39.9466 35.5936C39.8768 35.5243 39.7821 35.4854 39.6834 35.4854H32.1336Z" fill="#E6E6E6"/>
<path d="M35.9083 42.3944C35.445 42.3944 34.9921 42.258 34.6068 42.0023C34.2216 41.7466 33.9213 41.3831 33.744 40.9579C33.5667 40.5327 33.5203 40.0648 33.6107 39.6133C33.7011 39.1619 33.9242 38.7473 34.2518 38.4218C34.5795 38.0964 34.9969 37.8747 35.4513 37.7849C35.9057 37.6952 36.3768 37.7412 36.8048 37.9174C37.2329 38.0935 37.5988 38.3918 37.8562 38.7745C38.1136 39.1572 38.251 39.6071 38.251 40.0673C38.2503 40.6843 38.0033 41.2758 37.5641 41.7121C37.1249 42.1483 36.5294 42.3937 35.9083 42.3944Z" fill="#E7936D"/>
<path d="M64.0396 0H77.1963C77.3417 0.000169525 77.481 0.0575961 77.5838 0.159683C77.6866 0.261769 77.7444 0.40018 77.7445 0.544552V14.1557C77.7444 14.3001 77.6866 14.4385 77.5838 14.5406C77.481 14.6426 77.3417 14.7001 77.1963 14.7002H64.0396C63.8943 14.7001 63.755 14.6426 63.6522 14.5406C63.5494 14.4385 63.4916 14.3001 63.4915 14.1557V0.544552C63.4916 0.40018 63.5494 0.261769 63.6522 0.159683C63.755 0.0575961 63.8943 0.000169525 64.0396 0ZM77.1963 14.4824C77.2836 14.4823 77.3672 14.4479 77.4288 14.3866C77.4905 14.3254 77.5252 14.2423 77.5253 14.1557V0.544552C77.5252 0.457926 77.4905 0.374876 77.4288 0.313622C77.3672 0.252369 77.2836 0.217915 77.1963 0.21782H64.0396C63.9524 0.217915 63.8688 0.252369 63.8072 0.313622C63.7455 0.374876 63.7108 0.457926 63.7107 0.544552V14.1557C63.7108 14.2423 63.7455 14.3254 63.8072 14.3866C63.8688 14.4479 63.9524 14.4823 64.0396 14.4824H77.1963Z" fill="#3F3D56"/>
<path d="M74.3927 11.8927C74.4914 11.8927 74.5861 11.8538 74.6559 11.7844C74.7257 11.7151 74.7649 11.6211 74.7649 11.523C74.7649 11.425 74.7257 11.3309 74.6559 11.2616C74.5861 11.1923 74.4914 11.1533 74.3927 11.1533H66.8429C66.7442 11.1533 66.6495 11.1923 66.5797 11.2616C66.5099 11.3309 66.4707 11.425 66.4707 11.523C66.4707 11.6211 66.5099 11.7151 66.5797 11.7844C66.6495 11.8538 66.7442 11.8927 66.8429 11.8927H74.3927Z" fill="#E6E6E6"/>
<path d="M74.3927 9.71499C74.4914 9.71499 74.5861 9.67604 74.6559 9.60671C74.7257 9.53738 74.7649 9.44334 74.7649 9.34529C74.7649 9.24724 74.7257 9.1532 74.6559 9.08387C74.5861 9.01454 74.4914 8.97559 74.3927 8.97559H66.8429C66.7442 8.97559 66.6495 9.01454 66.5797 9.08387C66.5099 9.1532 66.4707 9.24724 66.4707 9.34529C66.4707 9.44334 66.5099 9.53738 66.5797 9.60671C66.6495 9.67604 66.7442 9.71499 66.8429 9.71499H74.3927Z" fill="#E6E6E6"/>
<path d="M70.6181 2.80664C71.0814 2.80664 71.5343 2.94312 71.9196 3.19883C72.3048 3.45454 72.6051 3.81798 72.7824 4.2432C72.9597 4.66843 73.0061 5.13633 72.9157 5.58775C72.8253 6.03916 72.6022 6.45381 72.2746 6.77927C71.9469 7.10472 71.5295 7.32635 71.0751 7.41615C70.6207 7.50594 70.1496 7.45985 69.7216 7.28372C69.2935 7.10759 68.9276 6.80931 68.6702 6.42662C68.4128 6.04393 68.2754 5.59401 68.2754 5.13375C68.2761 4.51678 68.5231 3.92527 68.9623 3.48901C69.4015 3.05274 69.997 2.80734 70.6181 2.80664Z" fill="#E7936D"/>
<path d="M25.3567 28.159C27.6849 26.3678 30.405 25.1464 33.2967 24.5935C36.2114 24.0418 39.217 24.1952 42.0595 25.0408C43.4883 25.4634 44.8611 26.0543 46.1487 26.8009C47.4606 27.5627 48.646 28.5006 49.7866 29.4935C50.942 30.4994 52.0594 31.55 53.2656 32.497C56.7091 35.2313 60.9841 36.7251 65.3925 36.7347C65.7567 36.7353 66.1207 36.7253 66.4844 36.7048C66.6815 36.694 66.6828 36.3879 66.4844 36.3988C61.9907 36.6446 57.5531 35.3126 53.9484 32.6359C52.6983 31.7073 51.5569 30.6456 50.3915 29.6167C49.2618 28.6192 48.1017 27.6489 46.8199 26.8475C43.6847 24.8854 40.0373 23.8839 36.3328 23.9678C32.6283 24.0516 29.0306 25.2172 25.9886 27.3191C25.6994 27.5189 25.4169 27.7277 25.1389 27.9426C24.9826 28.0635 25.202 28.2786 25.3567 28.159V28.159Z" fill="#3F3D56"/>
<path d="M25.1933 29.6388C26.0775 29.6388 26.7943 28.9267 26.7943 28.0484C26.7943 27.17 26.0775 26.458 25.1933 26.458C24.3091 26.458 23.5923 27.17 23.5923 28.0484C23.5923 28.9267 24.3091 29.6388 25.1933 29.6388Z" fill="#3F3D56"/>
<path d="M84.7541 50.754C85.6383 50.754 86.3551 50.042 86.3551 49.1636C86.3551 48.2853 85.6383 47.5732 84.7541 47.5732C83.8699 47.5732 83.1531 48.2853 83.1531 49.1636C83.1531 50.042 83.8699 50.754 84.7541 50.754Z" fill="#3F3D56"/>
<path d="M93.1413 40.104H67.0177C66.8723 40.1039 66.733 40.0464 66.6302 39.9443C66.5275 39.8423 66.4697 39.7038 66.4695 39.5595V26.0573C66.4697 25.9129 66.5275 25.7745 66.6302 25.6724C66.733 25.5703 66.8723 25.5129 67.0177 25.5127H93.1413C93.2866 25.5129 93.426 25.5703 93.5287 25.6724C93.6315 25.7745 93.6893 25.9129 93.6895 26.0572V39.5595C93.6893 39.7038 93.6315 39.8423 93.5287 39.9443C93.426 40.0464 93.2866 40.1039 93.1413 40.104ZM67.0177 25.7305C66.9305 25.7306 66.8469 25.7651 66.7852 25.8263C66.7235 25.8876 66.6889 25.9706 66.6888 26.0573V39.5595C66.6889 39.6461 66.7235 39.7291 66.7852 39.7904C66.8469 39.8516 66.9305 39.8861 67.0177 39.8862H93.1413C93.2285 39.8861 93.3121 39.8516 93.3738 39.7904C93.4354 39.7291 93.4701 39.6461 93.4702 39.5595V26.0573C93.4701 25.9706 93.4354 25.8876 93.3738 25.8263C93.3121 25.7651 93.2285 25.7306 93.1413 25.7305H67.0177Z" fill="#3F3D56"/>
<path d="M71.3981 32.5146C72.6314 32.5146 73.6311 31.5214 73.6311 30.2963C73.6311 29.0713 72.6314 28.0781 71.3981 28.0781C70.1648 28.0781 69.165 29.0713 69.165 30.2963C69.165 31.5214 70.1648 32.5146 71.3981 32.5146Z" fill="#E7936D"/>
<path d="M76.5555 28.8174C76.5065 28.8173 76.4581 28.8268 76.4128 28.8453C76.3676 28.8639 76.3265 28.8911 76.2919 28.9254C76.2572 28.9598 76.2298 29.0006 76.211 29.0455C76.1923 29.0904 76.1826 29.1385 76.1826 29.1871C76.1826 29.2357 76.1923 29.2838 76.211 29.3287C76.2298 29.3736 76.2572 29.4144 76.2919 29.4487C76.3265 29.4831 76.3676 29.5103 76.4128 29.5288C76.4581 29.5474 76.5065 29.5569 76.5555 29.5568H90.622C90.7207 29.5568 90.8154 29.5178 90.8852 29.4485C90.9549 29.3792 90.9942 29.2851 90.9942 29.1871C90.9942 29.089 90.9549 28.995 90.8852 28.9257C90.8154 28.8563 90.7207 28.8174 90.622 28.8174H76.5555Z" fill="#E6E6E6"/>
<path d="M76.5555 31.0352C76.5065 31.0351 76.4581 31.0446 76.4128 31.0631C76.3676 31.0816 76.3265 31.1089 76.2919 31.1432C76.2572 31.1775 76.2298 31.2183 76.211 31.2632C76.1923 31.3081 76.1826 31.3563 76.1826 31.4049C76.1826 31.4535 76.1923 31.5016 76.211 31.5465C76.2298 31.5914 76.2572 31.6322 76.2919 31.6665C76.3265 31.7009 76.3676 31.7281 76.4128 31.7466C76.4581 31.7652 76.5065 31.7747 76.5555 31.7746H84.1053C84.204 31.7746 84.2987 31.7356 84.3685 31.6663C84.4383 31.597 84.4775 31.5029 84.4775 31.4049C84.4775 31.3068 84.4383 31.2128 84.3685 31.1434C84.2987 31.0741 84.204 31.0352 84.1053 31.0352H76.5555Z" fill="#E6E6E6"/>
<path d="M69.6851 34.582C69.402 34.582 69.1716 34.7479 69.1716 34.9517C69.1716 35.1556 69.402 35.3214 69.6851 35.3214H90.4135C90.6966 35.3214 90.927 35.1556 90.927 34.9517C90.927 34.7479 90.6966 34.582 90.4135 34.582H69.6851Z" fill="#E6E6E6"/>
<path d="M69.6851 36.7998C69.402 36.7998 69.1716 36.9657 69.1716 37.1695C69.1716 37.3733 69.402 37.5392 69.6851 37.5392H90.4135C90.6966 37.5392 90.927 37.3733 90.927 37.1695C90.927 36.9657 90.6966 36.7998 90.4135 36.7998H69.6851Z" fill="#E6E6E6"/>
<path d="M64.9178 50.6451C66.3915 50.01 68.037 50.5637 69.4261 51.149C70.1416 51.4505 70.8493 51.7723 71.5897 52.0103C72.2126 52.21 72.8505 52.3602 73.4973 52.4594C74.7954 52.6569 76.1156 52.6649 77.416 52.4832C78.723 52.3021 79.9967 51.9342 81.1977 51.3909C82.3919 50.8532 83.4958 50.1363 84.4706 49.2652C84.5947 49.154 84.7163 49.0401 84.8355 48.9237C84.9773 48.7857 84.7594 48.5694 84.6176 48.7073C83.6789 49.6163 82.6013 50.372 81.4248 50.9463C80.253 51.5187 79.0032 51.9175 77.7152 52.1301C76.4229 52.3465 75.1052 52.3691 73.8062 52.1971C73.1581 52.1101 72.5181 51.9719 71.8922 51.7838C71.1733 51.5515 70.468 51.2795 69.7797 50.9688C68.3776 50.3707 66.8198 49.785 65.2792 50.1975C65.1026 50.246 64.9298 50.3073 64.7623 50.3808C64.5809 50.459 64.7375 50.7227 64.9178 50.6451V50.6451Z" fill="#3F3D56"/>
<path d="M64.3482 54.3984H52.0061L54.9106 49.401C54.9627 49.3114 55.0375 49.2371 55.1277 49.1854C55.2179 49.1336 55.3202 49.1064 55.4243 49.1064C55.5284 49.1064 55.6307 49.1336 55.7209 49.1854C55.811 49.2371 55.8859 49.3114 55.9379 49.401L57.1787 51.5358L59.2885 47.906C59.3536 47.7938 59.4474 47.7007 59.5603 47.6359C59.6732 47.5712 59.8012 47.5371 59.9316 47.5371C60.0619 47.5371 60.19 47.5712 60.3029 47.6359C60.4158 47.7007 60.5095 47.7938 60.5747 47.906L64.3482 54.3984Z" fill="#E7936D"/>
<path d="M64.3599 54.3961H51.2032C51.0579 54.396 50.9185 54.3385 50.8158 54.2365C50.713 54.1344 50.6552 53.996 50.655 53.8516V46.5572C50.6552 46.4129 50.713 46.2745 50.8158 46.1724C50.9185 46.0703 51.0579 46.0129 51.2032 46.0127H64.3599C64.5053 46.0129 64.6446 46.0703 64.7474 46.1724C64.8501 46.2745 64.9079 46.4129 64.9081 46.5572V53.8516C64.9079 53.996 64.8501 54.1344 64.7474 54.2365C64.6446 54.3385 64.5053 54.396 64.3599 54.3961ZM51.2032 46.2305C51.116 46.2306 51.0324 46.2651 50.9707 46.3263C50.9091 46.3876 50.8744 46.4706 50.8743 46.5572V53.8516C50.8744 53.9382 50.9091 54.0213 50.9707 54.0825C51.0324 54.1438 51.116 54.1782 51.2032 54.1783H64.3599C64.4471 54.1782 64.5307 54.1438 64.5924 54.0825C64.6541 54.0213 64.6887 53.9382 64.6888 53.8516V46.5572C64.6887 46.4706 64.6541 46.3876 64.5924 46.3263C64.5307 46.2651 64.4471 46.2306 64.3599 46.2305H51.2032Z" fill="#3F3D56"/>
<path d="M90.1653 47.9772L87.8201 49.1601C86.9831 49.5823 86.1753 49.5102 85.8659 48.6297C85.7923 48.4202 85.7651 48.1974 85.7862 47.9765C85.8074 47.7555 85.8763 47.5418 85.9883 47.3498C86.1003 47.1578 86.2528 46.9921 86.4352 46.864C86.6177 46.736 86.8258 46.6486 87.0454 46.6079L89.2743 46.1946L98.82 43.0486L104.602 38.9756L106.722 42.3303L100.041 45.9116L90.1653 47.9772Z" fill="#FFB8B8"/>
<path d="M101.112 87.2419L99.3181 86.9448L99.5175 83.5781H101.412L101.112 87.2419Z" fill="#FFB8B8"/>
<path d="M118.527 83.9541L116.79 84.4922L115.441 81.3977L117.132 80.5498L118.527 83.9541Z" fill="#FFB8B8"/>
<path d="M117.56 81.005L115.367 81.8962L104.9 68.2315L101.611 84.2726L99.4179 83.8765C98.0111 70.047 96.864 55.941 98.2716 49.2694L106.396 48.9229L110.084 60.6071L111.878 68.5286L117.56 81.005Z" fill="#2F2E41"/>
<path d="M101.014 89.9657C100.686 90.0356 100.344 89.9995 100.038 89.8627L98.9719 89.3863C98.0781 89.3407 97.4696 89.5175 96.972 88.8725C96.8316 88.6881 96.7434 88.4697 96.7167 88.2401C96.6899 88.0104 96.7255 87.7779 96.8197 87.5665C96.9131 87.3544 97.0617 87.1708 97.2502 87.0346C97.4386 86.8983 97.6602 86.8144 97.8921 86.7914L99.3561 85.875L99.4329 86.562C100.102 86.9385 100.896 86.7759 101.738 86.4093L102.198 88.0068C102.257 88.2128 102.273 88.4287 102.245 88.6411C102.217 88.8535 102.145 89.0579 102.034 89.2415C101.923 89.4252 101.775 89.5843 101.599 89.7088C101.424 89.8334 101.225 89.9209 101.014 89.9657Z" fill="#2F2E41"/>
<path d="M119.237 86.6882C118.95 86.8601 118.614 86.9362 118.28 86.9056L117.116 86.7988C116.256 87.0439 115.738 87.4075 115.057 86.9579C114.864 86.8288 114.709 86.6507 114.609 86.4421C114.508 86.2336 114.466 86.0021 114.486 85.7718C114.505 85.5411 114.586 85.3195 114.719 85.1299C114.853 84.9402 115.035 84.7894 115.247 84.6928L116.332 83.3538L116.629 83.9788C117.385 84.1191 118.083 83.709 118.76 83.0908L119.717 84.4535C119.84 84.6293 119.926 84.8283 119.968 85.0383C120.011 85.2482 120.01 85.4647 119.965 85.6742C119.92 85.8838 119.832 86.0819 119.707 86.2563C119.582 86.4307 119.422 86.5777 119.237 86.6882Z" fill="#2F2E41"/>
<path d="M103.405 34.8618C105.387 34.8618 106.994 33.2658 106.994 31.2971C106.994 29.3284 105.387 27.7324 103.405 27.7324C101.423 27.7324 99.8167 29.3284 99.8167 31.2971C99.8167 33.2658 101.423 34.8618 103.405 34.8618Z" fill="#FFB8B8"/>
<path d="M107.791 38.8224L103.106 37.8322L102.508 33.9705L105.797 33.2773L107.791 38.8224Z" fill="#FFB8B8"/>
<path d="M106.495 49.4173H98.1221L100.009 44.7103C99.8723 43.0907 100.563 41.8995 101.552 40.8624L102.807 37.7331C104.834 36.4077 106.363 36.5067 107.991 38.2282C109.92 40.9423 108.585 45.0222 106.495 49.4173Z" fill="#E7936D"/>
<path d="M102.707 59.4185L102.469 62.0205C102.384 62.9492 101.893 63.5905 100.978 63.3827C100.76 63.3333 100.556 63.2377 100.379 63.1025C100.202 62.9673 100.056 62.7956 99.9518 62.5993C99.8477 62.403 99.7874 62.1866 99.7753 61.9651C99.7631 61.7435 99.7992 61.5219 99.8813 61.3155L100.714 59.2205L103.106 49.5167L102.707 42.4863H106.695L106.196 50.0118L102.707 59.4185Z" fill="#FFB8B8"/>
<path d="M106.994 42.6848H102.408L102.73 39.7135C102.751 39.1996 102.965 38.7121 103.329 38.3467C103.694 37.9814 104.182 37.7646 104.7 37.7389C104.974 37.7253 105.248 37.7658 105.506 37.8581C105.764 37.9504 106.001 38.0926 106.204 38.2765C106.406 38.4605 106.57 38.6825 106.685 38.9297C106.801 39.1769 106.866 39.4444 106.877 39.7168L106.994 42.6848Z" fill="#E7936D"/>
<path d="M107.846 27.6319C108.591 27.6319 109.195 27.032 109.195 26.292C109.195 25.552 108.591 24.9521 107.846 24.9521C107.101 24.9521 106.498 25.552 106.498 26.292C106.498 27.032 107.101 27.6319 107.846 27.6319Z" fill="#2F2E41"/>
<path d="M106.456 25.9638C106.479 25.6239 106.63 25.3051 106.881 25.0724C107.131 24.8398 107.462 24.7107 107.805 24.7115C107.777 24.708 107.749 24.7037 107.721 24.7019C107.364 24.6793 107.013 24.7985 106.744 25.0331C106.476 25.2677 106.312 25.5986 106.289 25.9531C106.266 26.3076 106.386 26.6566 106.622 26.9235C106.858 27.1903 107.191 27.3531 107.548 27.3761C107.576 27.378 107.604 27.3772 107.632 27.3773C107.292 27.3345 106.981 27.1645 106.762 26.9018C106.544 26.6392 106.435 26.3038 106.456 25.9638Z" fill="#2F2E41"/>
<path d="M106.449 26.5357C105.246 25.5444 101.796 26.8043 101.573 27.4707C99.9462 27.691 98.7146 28.6337 98.7146 30.3101V30.3101C99.6817 30.7036 100.782 30.6551 101.971 30.3101C103.866 31.8444 103.996 33.7733 102.843 35.9888L104.261 36.0169L106.019 33.4649L106.103 36.0535L109.354 35.9888V32.2791C109.364 31.0457 109.079 29.8275 108.52 28.7258C108.014 27.7482 107.228 27.1774 106.449 26.5357Z" fill="#2F2E41"/>
<path d="M103.422 33.0899C103.778 33.0899 104.067 32.6883 104.067 32.1929C104.067 31.6975 103.778 31.2959 103.422 31.2959C103.066 31.2959 102.777 31.6975 102.777 32.1929C102.777 32.6883 103.066 33.0899 103.422 33.0899Z" fill="#FFB8B8"/>
<path d="M22.2642 33.3314C22.2642 33.3314 22.6524 26.6556 24.6681 28.1725C26.6838 29.6894 23.7878 33.9505 23.7878 33.9505L22.2642 33.3314Z" fill="#FFB9B9"/>
<path d="M14.7649 53.1338C14.7649 53.1338 19.2425 58.127 16.7374 58.4702C14.2323 58.8135 13.2468 53.7663 13.2468 53.7663L14.7649 53.1338Z" fill="#FFB9B9"/>
<path d="M8.92213 29.4971C9.48411 29.644 9.98987 29.9526 10.3759 30.3841C10.7619 30.8156 11.011 31.3508 11.0918 31.9224L12.5161 41.9924L14.5127 50.0251C14.5127 50.0251 15.5111 50.9177 15.1117 51.4135C14.7124 51.9093 15.6109 53.9919 15.6109 53.9919L13.1151 54.7852C13.1151 54.7852 12.8156 52.7027 12.3164 52.6035C11.8778 52.5164 6.96707 39.4853 5.78339 36.3284C5.62018 35.8932 5.52783 35.6456 5.52783 35.6456C5.52783 35.6456 5.7275 29.0013 8.92213 29.4971Z" fill="#575A89"/>
<path d="M9.37805 82.0127L10.911 84.7113C12.0982 87.229 11.0432 87.6864 8.13249 86.4384L7.46899 83.2519L9.37805 82.0127Z" fill="#FFB9B9"/>
<path d="M10.1515 85.5989C10.1515 85.5989 10.8793 84.4219 11.1425 84.6189C11.4057 84.8159 12.4913 85.6696 12.4913 85.6696L13.9055 87.015C13.9055 87.015 18.6831 87.5168 15.6473 89.1796C12.6114 90.8425 10.9337 89.4637 10.9337 89.4637C10.9337 89.4637 6.68175 89.6834 6.75033 88.505C6.81892 87.3265 8.19022 85.4622 8.19022 85.4622C8.19022 85.4622 9.91852 86.6132 10.1515 85.5989Z" fill="#2F2E41"/>
<path d="M2.5752 51.5081L4.01238 68.7825C4.01238 68.7825 4.06029 79.109 5.59328 81.1077C7.12628 83.1064 7.17417 84.1057 7.17417 84.1057L10.336 82.4878C10.336 82.4878 8.70717 79.7917 9.04251 79.379C9.24922 79.1172 9.39632 78.8141 9.47367 78.4904L8.61136 67.8307L10.2402 49.2715L2.5752 51.5081Z" fill="#2F2E41"/>
<path d="M6.50352 82.0116L5.16216 85.533L2.12012 84.2697L3.725 81.6309L6.50352 82.0116Z" fill="#FFB9B9"/>
<path d="M4.26579 84.3473C4.26579 84.3473 5.40671 83.639 5.54932 83.9223C5.69194 84.2057 6.2624 85.4098 6.2624 85.4098L6.90417 87.1807C6.90417 87.1807 10.8261 89.6599 7.47463 89.8016C4.12317 89.9432 3.26748 88.0307 3.26748 88.0307C3.26748 88.0307 -0.51182 86.4015 0.0586446 85.4098C0.629109 84.4182 2.62572 83.3896 2.62572 83.3896C2.62572 83.3896 3.62402 85.1265 4.26579 84.3473Z" fill="#2F2E41"/>
<path d="M14.7433 51.556L15.5098 67.4503C15.5098 67.4503 8.51555 81.8218 7.74905 82.2025C7.52065 82.3197 7.31819 82.4811 7.15363 82.6772C6.98907 82.8734 6.86574 83.1003 6.79093 83.3446L2.5752 82.2977L4.49144 79.2521L8.70717 69.0683C8.70717 69.0683 9.37785 68.7827 9.56948 67.831C9.76111 66.8792 10.1444 66.8792 9.18624 66.6889C8.22811 66.4985 8.22811 65.5468 8.22811 65.5468L5.06631 51.0801L14.7433 51.556Z" fill="#2F2E41"/>
<path d="M15.0771 23.4227C15.4162 21.3473 13.9973 19.3918 11.908 19.055C9.81871 18.7182 7.85016 20.1277 7.51111 22.2031C7.17207 24.2785 8.59092 26.234 10.6802 26.5708C12.7695 26.9075 14.7381 25.4981 15.0771 23.4227Z" fill="#FFB9B9"/>
<path d="M7.89303 23.0508C7.89303 23.0508 7.6056 27.9047 7.22235 28.3806C6.83911 28.8565 11.2465 28.7613 11.2465 28.7613C11.2465 28.7613 10.959 24.6688 11.2465 24.2881C11.5339 23.9074 7.89303 23.0508 7.89303 23.0508Z" fill="#FFB9B9"/>
<path d="M15.0305 52.6023C15.0305 52.6023 4.20368 51.6507 2.19214 52.6023C2.19214 52.6023 2.93265 49.8734 2.74131 49.5883C2.60215 49.3798 2.98607 41.6067 2.86555 37.1228C2.79722 34.5927 2.20953 32.1218 3.91792 30.2434C4.49939 29.6053 5.14795 29.0696 5.83255 28.808C5.83255 28.808 5.64121 26.9999 6.59915 26.9048C6.59915 26.9048 10.2408 26.5235 11.5814 27.6664C12.0101 28.0292 12.2797 29.1351 12.3083 30.0879C11.6448 33.3289 11.8796 36.9254 12.4884 40.6564C12.5257 40.8933 12.5667 41.1316 12.6077 41.3698C13.2538 45.0699 14.2303 48.8848 15.0305 52.6023Z" fill="#575A89"/>
<path d="M9.29221 23.934C9.61633 23.9148 9.9328 24.0236 10.2547 24.066C11.4062 24.2179 12.6042 23.3878 12.8584 22.2619C12.8788 22.1119 12.9238 21.9663 12.9916 21.8309C13.1688 21.5434 13.5725 21.4886 13.9052 21.5547C14.2379 21.6208 14.5533 21.7755 14.8922 21.7932C15.4154 21.8204 15.9177 21.5005 16.1965 21.0599C16.46 20.6053 16.572 20.0796 16.5166 19.558L16.2658 19.8195C16.1639 19.6053 16.1245 19.367 16.1522 19.1317C16.0193 19.0966 15.8795 19.0959 15.7463 19.1297C15.613 19.1636 15.4908 19.2309 15.3912 19.3252C15.17 19.3485 15.337 18.9177 15.1727 18.7688C15.0927 18.72 14.9975 18.7023 14.9052 18.7191C14.4347 18.7236 14.0541 18.3661 13.6834 18.0783C13.041 17.5808 12.2898 17.2405 11.4905 17.0847C10.9592 16.9818 10.3942 16.9652 9.8904 17.1617C9.48368 17.3431 9.1166 17.6018 8.80985 17.9231C8.02104 18.6766 7.32253 19.5619 6.99437 20.5989C6.72758 21.4483 6.72002 22.3572 6.97265 23.2109C7.10488 23.6542 7.5034 25.1725 8.08681 25.2079C8.81988 25.2523 8.37975 23.9881 9.29221 23.934Z" fill="#2F2E41"/>
<path d="M10.8785 29.9648L12.2516 30.111C12.2516 30.111 13.5994 32.7085 13.5016 33.2503C13.4037 33.7922 13.1905 33.4632 13.7972 34.3301C14.4038 35.1969 16.1252 37.4376 16.3384 37.7665C16.5516 38.0954 22.3629 33.691 22.0016 32.3713C22.0016 32.3713 23.837 33.6793 24.6233 33.8533C24.6233 33.8533 18.6343 41.6557 17.7997 42.6543C16.9651 43.6528 16.2934 43.4477 15.1464 42.8557C13.9995 42.2636 8.19702 36.3583 8.19702 36.3583L10.8785 29.9648Z" fill="#575A89"/>
<path opacity="0.1" d="M12.6077 41.3701L7.83545 36.6295L9.04312 36.2383L12.4885 40.6567C12.5257 40.8937 12.5667 41.1319 12.6077 41.3701Z" fill="black"/>
</g>
<defs>
<clipPath id="clip0">
<rect width="120" height="90" fill="white"/>
</clipPath>
</defs>
</svg>
