<svg width="165" height="111" viewBox="0 0 165 111" fill="none" xmlns="http://www.w3.org/2000/svg">
<path d="M58.0179 15H4.98214C4.72176 14.9997 4.47212 14.8969 4.288 14.7143C4.10388 14.5316 4.00031 14.284 4 14.0257V0.974334C4.00031 0.716017 4.10388 0.468368 4.288 0.285711C4.47212 0.103053 4.72176 0.000303322 4.98214 0H58.0179C58.2782 0.000303322 58.5279 0.103053 58.712 0.285711C58.8961 0.468368 58.9997 0.716017 59 0.974334V14.0257C58.9997 14.284 58.8961 14.5316 58.712 14.7143C58.5279 14.8969 58.2782 14.9997 58.0179 15ZM4.98214 0.389727C4.82591 0.389896 4.67612 0.451544 4.56565 0.561141C4.45517 0.670739 4.39303 0.819337 4.39286 0.97433V14.0257C4.39303 14.1807 4.45517 14.3293 4.56565 14.4388C4.67612 14.5484 4.82591 14.6101 4.98214 14.6103H58.0179C58.1741 14.6101 58.3239 14.5484 58.4344 14.4388C58.5448 14.3293 58.607 14.1807 58.6072 14.0257V0.974334C58.607 0.81934 58.5448 0.670742 58.4344 0.561145C58.3239 0.451547 58.1741 0.389903 58.0179 0.389734L4.98214 0.389727Z" fill="#3F3D56"/>
<path d="M13.5 10C15.433 10 17 8.433 17 6.5C17 4.567 15.433 3 13.5 3C11.567 3 10 4.567 10 6.5C10 8.433 11.567 10 13.5 10Z" fill="#E7936D"/>
<path d="M22.6715 4C22.4934 4 22.3226 4.05268 22.1967 4.14645C22.0707 4.24021 22 4.36739 22 4.5C22 4.63261 22.0707 4.75979 22.1967 4.85355C22.3226 4.94732 22.4934 5 22.6715 5H54.3285C54.5066 5 54.6774 4.94732 54.8033 4.85355C54.9293 4.75979 55 4.63261 55 4.5C55 4.36739 54.9293 4.24021 54.8033 4.14645C54.6774 4.05268 54.5066 4 54.3285 4H22.6715Z" fill="white"/>
<path d="M22.673 8C22.4945 8 22.3233 8.10536 22.1971 8.29289C22.0709 8.48043 22 8.73478 22 9C22 9.26522 22.0709 9.51957 22.1971 9.7071C22.3233 9.89464 22.4945 10 22.673 10H36.3258C36.4142 10.0002 36.5019 9.97455 36.5837 9.9244C36.6655 9.87425 36.7398 9.80063 36.8024 9.70775C36.8651 9.61487 36.9148 9.50455 36.9487 9.38311C36.9826 9.26166 37 9.13148 37 9C37 8.86852 36.9826 8.73834 36.9487 8.61689C36.9148 8.49545 36.8651 8.38513 36.8024 8.29225C36.7398 8.19936 36.6655 8.12574 36.5837 8.0756C36.5019 8.02545 36.4142 7.99976 36.3258 8H22.673Z" fill="white"/>
<path d="M43.9615 74H19.0385C18.7631 73.9997 18.4992 73.8942 18.3045 73.7067C18.1098 73.5192 18.0003 73.265 18 72.9998V48.0002C18.0003 47.735 18.1098 47.4808 18.3045 47.2933C18.4992 47.1058 18.7631 47.0003 19.0385 47H43.9615C44.2369 47.0003 44.5008 47.1058 44.6955 47.2933C44.8902 47.4808 44.9997 47.735 45 48.0002V72.9998C44.9997 73.265 44.8902 73.5192 44.6955 73.7067C44.5008 73.8942 44.2369 73.9997 43.9615 74ZM19.0385 47.4001C18.8733 47.4002 18.7149 47.4635 18.5981 47.576C18.4813 47.6885 18.4156 47.8411 18.4154 48.0002V72.9998C18.4156 73.1589 18.4813 73.3115 18.5981 73.424C18.7149 73.5365 18.8733 73.5998 19.0385 73.5999H43.9615C44.1267 73.5998 44.2851 73.5365 44.4019 73.424C44.5187 73.3115 44.5844 73.1589 44.5846 72.9998V48.0002C44.5844 47.8411 44.5187 47.6885 44.4019 47.576C44.2851 47.4635 44.1267 47.4002 43.9615 47.4001H19.0385Z" fill="#3F3D56"/>
<path d="M24.6731 52C24.4946 52 24.3234 52.0527 24.1971 52.1464C24.0709 52.2402 24 52.3674 24 52.5C24 52.6326 24.0709 52.7598 24.1971 52.8536C24.3234 52.9473 24.4946 53 24.6731 53H38.3269C38.5054 53 38.6766 52.9473 38.8029 52.8536C38.9291 52.7598 39 52.6326 39 52.5C39 52.3674 38.9291 52.2402 38.8029 52.1464C38.6766 52.0527 38.5054 52 38.3269 52H24.6731Z" fill="white"/>
<path d="M24.6743 56C24.5858 55.9998 24.4981 56.0254 24.4163 56.0756C24.3345 56.1257 24.2602 56.1994 24.1976 56.2923C24.1349 56.3851 24.0852 56.4955 24.0513 56.6169C24.0175 56.7383 24 56.8685 24 57C24 57.1315 24.0175 57.2617 24.0513 57.3831C24.0852 57.5045 24.1349 57.6149 24.1976 57.7077C24.2602 57.8006 24.3345 57.8743 24.4163 57.9244C24.4981 57.9746 24.5858 58.0002 24.6743 58H38.327C38.5055 58 38.6767 57.8946 38.8029 57.7071C38.9291 57.5196 39 57.2652 39 57C39 56.7348 38.9291 56.4804 38.8029 56.2929C38.6767 56.1054 38.5055 56 38.327 56H24.6743Z" fill="white"/>
<path d="M31.5 69C30.61 69 29.74 68.7361 28.9999 68.2416C28.2599 67.7471 27.6831 67.0443 27.3425 66.2221C27.0019 65.3998 26.9128 64.495 27.0865 63.6221C27.2601 62.7492 27.6887 61.9474 28.318 61.318C28.9474 60.6887 29.7492 60.2601 30.6221 60.0865C31.495 59.9128 32.3998 60.0019 33.2221 60.3425C34.0444 60.6831 34.7472 61.2599 35.2416 61.9999C35.7361 62.74 36 63.61 36 64.5C35.9986 65.6931 35.5241 66.8369 34.6805 67.6805C33.8369 68.5241 32.6931 68.9987 31.5 69Z" fill="#E7936D"/>
<path d="M9.48362 35.5853C13.6303 33.2011 18.475 31.5753 23.6254 30.8394C28.8168 30.1051 34.1701 30.3093 39.2327 31.4348C41.7777 31.9973 44.2228 32.7838 46.5161 33.7776C48.8527 34.7916 50.964 36.0399 52.9955 37.3615C55.0534 38.7004 57.0437 40.0989 59.1919 41.3594C65.3252 44.9988 72.9393 46.9872 80.7912 47C81.4398 47.0007 82.088 46.9875 82.7358 46.9602C83.087 46.9458 83.0892 46.5384 82.7358 46.5528C74.7321 46.88 66.8284 45.107 60.4081 41.5442C58.1815 40.3082 56.1485 38.895 54.073 37.5255C52.0607 36.1978 49.9946 34.9062 47.7116 33.8395C42.1275 31.228 35.6312 29.8948 29.033 30.0065C22.4349 30.1181 16.0271 31.6696 10.6091 34.4674C10.0939 34.7333 9.59074 35.0112 9.09563 35.2972C8.81729 35.4581 9.2081 35.7445 9.48362 35.5853V35.5853Z" fill="#3F3D56" stroke="#3F3D56" stroke-width="0.5"/>
<path d="M4.5 41C6.98528 41 9 38.9853 9 36.5C9 34.0147 6.98528 32 4.5 32C2.01472 32 0 34.0147 0 36.5C0 38.9853 2.01472 41 4.5 41Z" fill="#3F3D56"/>
<path d="M162.609 63.7474H84.6362C84.2024 63.7469 83.7865 63.5748 83.4798 63.2687C83.1731 62.9626 83.0005 62.5476 83 62.1148V21.6327C83.0005 21.1998 83.1731 20.7849 83.4798 20.4788C83.7866 20.1727 84.2024 20.0005 84.6362 20H162.609C163.043 20.0005 163.459 20.1727 163.765 20.4788C164.072 20.7848 164.245 21.1998 164.245 21.6327V62.1147C164.245 62.5476 164.072 62.9626 163.765 63.2687C163.459 63.5748 163.043 63.7469 162.609 63.7474ZM84.6362 20.6531C84.3759 20.6534 84.1264 20.7567 83.9423 20.9403C83.7583 21.124 83.6548 21.373 83.6545 21.6327V62.1148C83.6548 62.3745 83.7583 62.6235 83.9423 62.8071C84.1264 62.9908 84.3759 63.0941 84.6362 63.0944H162.609C162.869 63.0941 163.119 62.9908 163.303 62.8071C163.487 62.6235 163.59 62.3745 163.591 62.1148V21.6327C163.59 21.373 163.487 21.124 163.303 20.9403C163.119 20.7567 162.869 20.6534 162.609 20.6531H84.6362Z" fill="#3F3D56"/>
<path d="M99.9211 43.1118C104.252 43.1118 107.763 39.601 107.763 35.2702C107.763 30.9395 104.252 27.4287 99.9211 27.4287C95.5903 27.4287 92.0796 30.9395 92.0796 35.2702C92.0796 39.601 95.5903 43.1118 99.9211 43.1118Z" fill="#E7936D"/>
<path d="M112.881 29.9995C112.733 29.9992 112.585 30.0313 112.448 30.094C112.311 30.1567 112.186 30.2487 112.08 30.3648C111.975 30.4809 111.892 30.6188 111.835 30.7706C111.778 30.9224 111.749 31.0851 111.749 31.2494C111.749 31.4138 111.778 31.5765 111.835 31.7283C111.892 31.8801 111.975 32.018 112.08 32.1341C112.186 32.2502 112.311 32.3422 112.448 32.4049C112.585 32.4676 112.733 32.4997 112.881 32.4994H155.615C155.915 32.4994 156.203 32.3677 156.415 32.1333C156.627 31.8989 156.746 31.5809 156.746 31.2494C156.746 30.9179 156.627 30.6 156.415 30.3656C156.203 30.1312 155.915 29.9995 155.615 29.9995H112.881Z" fill="white"/>
<path d="M112.872 36.249C112.725 36.2487 112.579 36.2808 112.442 36.3435C112.306 36.4062 112.182 36.4982 112.078 36.6143C111.973 36.7304 111.891 36.8683 111.834 37.0201C111.778 37.1719 111.749 37.3346 111.749 37.4989C111.749 37.6633 111.778 37.826 111.834 37.9778C111.891 38.1296 111.973 38.2675 112.078 38.3836C112.182 38.4997 112.306 38.5917 112.442 38.6544C112.579 38.7171 112.725 38.7492 112.872 38.7489H135.625C135.923 38.7489 136.208 38.6172 136.419 38.3828C136.629 38.1484 136.747 37.8304 136.747 37.4989C136.747 37.1674 136.629 36.8495 136.419 36.6151C136.208 36.3807 135.923 36.249 135.625 36.249H112.872Z" fill="white"/>
<path d="M93.2836 47.4985C92.4378 47.4985 91.7495 47.7789 91.7495 48.1235C91.7495 48.4681 92.4378 48.7485 93.2836 48.7485H155.212C156.057 48.7485 156.746 48.4681 156.746 48.1235C156.746 47.7789 156.057 47.4985 155.212 47.4985H93.2836Z" fill="white"/>
<path d="M93.2836 53.748C92.4378 53.748 91.7495 54.3089 91.7495 54.998C91.7495 55.6871 92.4378 56.2479 93.2836 56.2479H155.212C156.057 56.2479 156.746 55.6871 156.746 54.998C156.746 54.3089 156.057 53.748 155.212 53.748H93.2836Z" fill="white"/>
<path d="M145.575 94.0342C147.508 94.0342 149.075 92.4672 149.075 90.5342C149.075 88.6012 147.508 87.0342 145.575 87.0342C143.642 87.0342 142.075 88.6012 142.075 90.5342C142.075 92.4672 143.642 94.0342 145.575 94.0342Z" fill="#3F3D56"/>
<path d="M94.1888 94.7698C98.0495 92.9977 102.36 94.5427 105.999 96.176C107.873 97.0172 109.727 97.9151 111.666 98.5794C113.298 99.1367 114.969 99.5557 116.663 99.8324C120.064 100.384 123.522 100.406 126.929 99.8989C130.352 99.3937 133.689 98.3671 136.835 96.8509C139.963 95.3505 142.855 93.35 145.409 90.9195C145.734 90.609 146.052 90.2914 146.364 89.9666C146.736 89.5814 146.165 88.9777 145.794 89.3628C143.335 91.8992 140.512 94.0078 137.43 95.6104C134.36 97.2075 131.086 98.3204 127.712 98.9136C124.327 99.5176 120.875 99.5806 117.472 99.1007C115.775 98.8578 114.098 98.4721 112.459 97.9474C110.575 97.2992 108.728 96.54 106.925 95.6732C103.252 94.0042 99.1713 92.3698 95.1356 93.5209C94.673 93.6562 94.2204 93.8272 93.7815 94.0325C93.3063 94.2506 93.7167 94.9865 94.1888 94.7698V94.7698Z" fill="#3F3D56"/>
<path d="M91 111H54L62.7073 95.7047C62.8634 95.4306 63.0879 95.2029 63.3582 95.0447C63.6285 94.8864 63.9351 94.803 64.2472 94.803C64.5594 94.803 64.866 94.8864 65.1363 95.0447C65.4066 95.2029 65.6311 95.4306 65.7871 95.7047L69.5068 102.239L75.8315 91.1289C76.0269 90.7857 76.3079 90.5007 76.6463 90.3025C76.9848 90.1043 77.3687 90 77.7595 90C78.1502 90 78.5342 90.1043 78.8726 90.3025C79.211 90.5007 79.4921 90.7857 79.6874 91.1289L91 111Z" fill="#E7936D"/>
<path d="M92.2692 111H50.7307C50.2719 110.999 49.832 110.821 49.5075 110.505C49.183 110.188 49.0005 109.759 49 109.311V86.6889C49.0005 86.2411 49.183 85.8118 49.5075 85.4952C49.832 85.1786 50.2719 85.0005 50.7307 85H92.2692C92.7281 85.0005 93.168 85.1786 93.4925 85.4952C93.8169 85.8118 93.9995 86.2411 94 86.6889V109.311C93.9995 109.759 93.8169 110.188 93.4925 110.505C93.168 110.821 92.7281 110.999 92.2692 111ZM50.7307 85.6755C50.4554 85.6758 50.1915 85.7827 49.9968 85.9727C49.8021 86.1626 49.6926 86.4202 49.6923 86.6889V109.311C49.6926 109.58 49.8021 109.837 49.9968 110.027C50.1915 110.217 50.4554 110.324 50.7307 110.324H92.2692C92.5446 110.324 92.8085 110.217 93.0032 110.027C93.1979 109.837 93.3074 109.58 93.3077 109.311V86.6889C93.3074 86.4202 93.1979 86.1626 93.0032 85.9727C92.8085 85.7827 92.5446 85.6758 92.2692 85.6755H50.7307Z" fill="#3F3D56"/>
</svg>
