<svg width="452" height="224" viewBox="0 0 452 224" fill="none" xmlns="http://www.w3.org/2000/svg">
<path d="M451.366 42.0264H330.652V222.391H451.366V42.0264Z" fill="white"/>
<path d="M444.92 51.6582H337.097V212.761H444.92V51.6582Z" fill="white"/>
<path d="M412.864 166.292H407.645V184.375H412.864V166.292Z" fill="#3F3D56"/>
<path d="M416.42 181.723L403.43 166.091H378.138L362.683 181.16L362.995 181.36H362.883V212.703H416.276V181.36L416.42 181.723Z" fill="#3F3D56"/>
<path d="M403.631 165.89L387.773 184.499V212.703H416.277V180.959L403.631 165.89Z" fill="#E7936D"/>
<path d="M405.036 197.105H399.215V202.255H405.036V197.105Z" fill="#3F3D56"/>
<path d="M405.036 188.192H399.215V193.26H405.036V188.192Z" fill="#3F3D56"/>
<path d="M405.036 197.105H399.215V202.255H405.036V197.105Z" fill="white"/>
<path d="M405.036 188.192H399.215V193.26H405.036V188.192Z" fill="white"/>
<path d="M383.821 211.784C383.821 211.784 383.945 209.167 386.504 209.471L383.821 211.784Z" fill="white"/>
<path d="M383.098 209.294C383.805 209.294 384.378 208.72 384.378 208.012C384.378 207.305 383.805 206.731 383.098 206.731C382.391 206.731 381.817 207.305 381.817 208.012C381.817 208.72 382.391 209.294 383.098 209.294Z" fill="#E7936D"/>
<path d="M383.252 210.17H382.889V212.703H383.252V210.17Z" fill="white"/>
<path d="M286.04 42.0264H165.326V222.391H286.04V42.0264Z" fill="white"/>
<path d="M279.594 51.6582H171.772V212.761H279.594V51.6582Z" fill="white"/>
<path d="M368.876 111.647L371.982 109.159C369.569 108.893 368.577 110.21 368.171 111.253C366.876 110.823 365.465 110.91 364.233 111.497L370.449 113.755C370.136 112.917 369.59 112.185 368.876 111.647Z" fill="#3F3D56"/>
<path d="M234.719 106.776L237.826 104.289C235.412 104.023 234.421 105.34 234.015 106.383C232.72 105.953 231.309 106.04 230.076 106.627L236.293 108.885C235.979 108.047 235.433 107.315 234.719 106.776Z" fill="#3F3D56"/>
<path d="M411.16 88.151L414.267 85.6637C411.853 85.3972 410.861 86.7148 410.455 87.7576C409.16 87.3275 407.749 87.4147 406.517 88.001L412.733 90.2599C412.42 89.4214 411.874 88.6899 411.16 88.151Z" fill="#3F3D56"/>
<path d="M251.475 148.433H246.256V166.515H251.475V148.433Z" fill="#3F3D56"/>
<path d="M251.475 146.625H246.256V164.707H251.475V146.625Z" fill="#3F3D56"/>
<path d="M259.361 169.688L241.547 148.51H206.595L185.236 169.334L185.667 169.612H185.513V212.926H259.301V169.612L259.361 169.688Z" fill="#3F3D56"/>
<path d="M241.825 148.232L219.911 173.948V212.926H259.301V169.056L241.825 148.232Z" fill="#E7936D"/>
<path d="M238.214 190.693H230.169V198.488H238.214V190.693Z" fill="#3F3D56"/>
<path d="M238.214 179.053H230.169V186.848H238.214V179.053Z" fill="#3F3D56"/>
<path d="M238.214 190.693H230.169V198.488H238.214V190.693Z" fill="white"/>
<path d="M238.214 179.053H230.169V186.848H238.214V179.053Z" fill="white"/>
<path d="M249.98 190.693H241.936V198.488H249.98V190.693Z" fill="#3F3D56"/>
<path d="M249.98 179.053H241.936V186.848H249.98V179.053Z" fill="#3F3D56"/>
<path d="M249.98 190.693H241.936V198.488H249.98V190.693Z" fill="white"/>
<path d="M249.98 179.053H241.936V186.848H249.98V179.053Z" fill="white"/>
<path d="M111.668 61.9944C128.771 61.9944 142.636 48.1165 142.636 30.9972C142.636 13.8779 128.771 0 111.668 0C94.5646 0 80.6997 13.8779 80.6997 30.9972C80.6997 48.1165 94.5646 61.9944 111.668 61.9944Z" fill="#F3D990"/>
<path d="M120.714 42.0264H0V222.391H120.714V42.0264Z" fill="white"/>
<path d="M114.269 51.6582H6.44629V212.761H114.269V51.6582Z" fill="white"/>
<path d="M106.057 159.851L84.3176 133.938H41.578L15.4587 159.402L15.9869 159.741H15.7984V212.707H106.026V159.741L106.057 159.851Z" fill="#3F3D56"/>
<path d="M79.6144 104.36L82.5481 102.012C80.269 101.76 79.3326 103.004 78.9494 103.989C77.7266 103.583 76.3943 103.665 75.2307 104.219L81.1004 106.352C80.8043 105.56 80.2888 104.869 79.6144 104.36Z" fill="#3F3D56"/>
<path d="M92.9775 131.512H88.0496V148.586H92.9775V131.512Z" fill="#3F3D56"/>
<path d="M84.6568 133.598L57.8596 165.044V212.707H106.027V159.062L84.6568 133.598Z" fill="#E7936D"/>
<path d="M36.176 211.84C36.176 211.84 36.2938 209.368 38.7094 209.656L36.176 211.84Z" fill="white"/>
<path d="M35.4939 209.488C36.1616 209.488 36.7028 208.946 36.7028 208.278C36.7028 207.609 36.1616 207.067 35.4939 207.067C34.8262 207.067 34.2849 207.609 34.2849 208.278C34.2849 208.946 34.8262 209.488 35.4939 209.488Z" fill="#E7936D"/>
<path d="M35.6392 210.315H35.2971V212.706H35.6392V210.315Z" fill="white"/>
<path d="M46.9795 211.84C46.9795 211.84 47.0973 209.368 49.5128 209.656L46.9795 211.84Z" fill="white"/>
<path d="M46.2973 209.488C46.965 209.488 47.5063 208.946 47.5063 208.278C47.5063 207.609 46.965 207.067 46.2973 207.067C45.6296 207.067 45.0884 207.609 45.0884 208.278C45.0884 208.946 45.6296 209.488 46.2973 209.488Z" fill="#E7936D"/>
<path d="M46.4428 210.315H46.1006V212.706H46.4428V210.315Z" fill="white"/>
<path d="M21.3926 211.84C21.3926 211.84 21.5104 209.368 23.9259 209.656L21.3926 211.84Z" fill="white"/>
<path d="M20.7104 209.488C21.3781 209.488 21.9194 208.946 21.9194 208.278C21.9194 207.609 21.3781 207.067 20.7104 207.067C20.0427 207.067 19.5015 207.609 19.5015 208.278C19.5015 208.946 20.0427 209.488 20.7104 209.488Z" fill="#E7936D"/>
<path d="M20.8558 210.315H20.5137V212.706H20.8558V210.315Z" fill="white"/>
<path d="M73.889 171.285H64.052V181.353H73.889V171.285Z" fill="#3F3D56"/>
<path d="M73.889 184.983H64.052V195.051H73.889V184.983Z" fill="#3F3D56"/>
<path d="M73.889 171.285H64.052V181.353H73.889V171.285Z" fill="white"/>
<path d="M73.889 184.983H64.052V195.051H73.889V184.983Z" fill="white"/>
<path d="M87.4936 171.285H77.6567V181.353H87.4936V171.285Z" fill="#3F3D56"/>
<path d="M87.4936 184.983H77.6567V195.051H87.4936V184.983Z" fill="#3F3D56"/>
<path d="M87.4936 171.285H77.6567V181.353H87.4936V171.285Z" fill="white"/>
<path d="M87.4936 184.983H77.6567V195.051H87.4936V184.983Z" fill="white"/>
<path d="M101.098 171.285H91.2615V181.353H101.098V171.285Z" fill="#3F3D56"/>
<path d="M101.098 184.983H91.2615V195.051H101.098V184.983Z" fill="#3F3D56"/>
<path d="M101.098 171.285H91.2615V181.353H101.098V171.285Z" fill="white"/>
<path d="M101.098 184.983H91.2615V195.051H101.098V184.983Z" fill="white"/>
<path d="M450.335 223.31H0.186279C0.186279 223.31 91.5819 201.281 226.197 201.531C226.952 201.531 227.708 201.533 228.463 201.537C231.149 201.547 233.85 201.566 236.566 201.593C238.693 201.615 240.828 201.643 242.972 201.677C243.898 201.69 244.824 201.706 245.755 201.722C246.128 201.729 246.495 201.735 246.863 201.742C247.716 201.758 248.575 201.775 249.439 201.794C251.059 201.826 252.683 201.863 254.313 201.904C255.741 201.94 257.176 201.979 258.618 202.021C259.167 202.034 259.725 202.05 260.279 202.07C262.892 202.144 265.515 202.231 268.149 202.329C268.759 202.352 269.37 202.375 269.986 202.398C270.829 202.427 271.678 202.462 272.521 202.495C273.639 202.54 274.756 202.587 275.874 202.634C277.328 202.696 278.776 202.761 280.23 202.829C283.273 202.969 286.332 203.122 289.409 203.29C291.696 203.41 293.99 203.54 296.291 203.68C297.269 203.738 298.252 203.8 299.235 203.861C300.741 203.952 302.25 204.049 303.762 204.15C304.725 204.215 305.692 204.28 306.655 204.345C307.819 204.423 308.978 204.504 310.142 204.588C311.301 204.673 312.47 204.757 313.634 204.845C314.804 204.933 315.973 205.021 317.143 205.111C318.317 205.202 319.486 205.293 320.661 205.39C321.82 205.481 322.979 205.578 324.143 205.676C329.1 206.088 334.093 206.537 339.122 207.023C340.085 207.114 341.057 207.208 342.025 207.305C343.023 207.403 344.026 207.503 345.031 207.607C346.428 207.747 347.83 207.892 349.238 208.042C350.443 208.169 351.651 208.297 352.859 208.428C353.951 208.545 355.053 208.665 356.15 208.788L356.492 208.827C357.703 208.961 358.918 209.1 360.129 209.24C361.345 209.379 362.566 209.522 363.782 209.665C365.003 209.808 366.224 209.954 367.445 210.103C368.672 210.252 369.893 210.402 371.119 210.554C372.076 210.674 373.028 210.794 373.985 210.914C374.461 210.976 374.938 211.035 375.414 211.096C376.438 211.229 377.466 211.363 378.497 211.499C379.729 211.661 380.962 211.824 382.197 211.989C382.336 212.008 382.471 212.028 382.611 212.044C384.525 212.304 386.441 212.568 388.359 212.836C388.618 212.872 388.882 212.911 389.146 212.946C390.149 213.086 391.153 213.229 392.157 213.375C393.161 213.521 394.165 213.664 395.173 213.813C395.215 213.816 395.256 213.823 395.298 213.829C396.721 214.037 398.138 214.248 399.566 214.465C400.275 214.569 400.984 214.676 401.693 214.787C402.666 214.933 403.633 215.082 404.606 215.235C405.242 215.335 405.879 215.436 406.52 215.536C406.991 215.605 407.462 215.679 407.933 215.757C408.926 215.91 409.921 216.068 410.918 216.231C411.844 216.38 412.771 216.531 413.697 216.682C413.723 216.685 413.749 216.689 413.774 216.695C413.997 216.731 414.214 216.767 414.437 216.802C415.115 216.913 415.792 217.026 416.475 217.14C417.174 217.257 417.878 217.374 418.581 217.494C419.197 217.598 419.818 217.701 420.434 217.809C420.451 217.809 420.468 217.811 420.485 217.815C420.573 217.828 420.661 217.844 420.749 217.86C421.463 217.981 422.177 218.101 422.891 218.227C423.605 218.351 424.319 218.474 425.039 218.601C425.111 218.61 425.183 218.623 425.256 218.636C425.809 218.73 426.363 218.828 426.917 218.928C426.917 218.928 426.917 218.925 426.922 218.928C427.237 218.98 427.553 219.039 427.869 219.094C428.712 219.243 429.556 219.394 430.399 219.545C430.942 219.642 431.491 219.74 432.034 219.84C433.55 220.116 435.069 220.394 436.592 220.675C438.114 220.957 439.64 221.243 441.161 221.531C442.077 221.703 442.988 221.879 443.903 222.057C444.762 222.22 445.621 222.385 446.48 222.554C447.763 222.804 449.052 223.054 450.335 223.31Z" fill="white"/>
<path d="M450.197 224C449.056 223.772 447.91 223.549 446.768 223.327L446.345 223.245C445.488 223.076 444.63 222.91 443.773 222.749C442.855 222.57 441.945 222.395 441.031 222.223C439.51 221.934 437.987 221.649 436.464 221.366C435.132 221.119 433.802 220.876 432.472 220.635L431.908 220.533C431.444 220.447 430.977 220.364 430.513 220.28L430.275 220.238C429.508 220.099 428.742 219.962 427.976 219.827L427.62 219.765V219.772L426.791 219.621L426.745 219.613L426.666 219.598C426.157 219.506 425.647 219.417 425.138 219.33C425.065 219.317 425.006 219.306 424.946 219.298L422.772 218.921C422.091 218.8 421.412 218.686 420.734 218.572L420.632 218.554C420.542 218.538 420.462 218.523 420.382 218.511C419.77 218.407 419.223 218.315 418.678 218.224L413.583 217.377C412.657 217.224 411.732 217.074 410.806 216.926C409.809 216.763 408.816 216.606 407.827 216.453C407.352 216.374 406.886 216.301 406.42 216.233L404.496 215.93C403.526 215.777 402.56 215.629 401.588 215.483C400.878 215.372 400.172 215.265 399.464 215.162C398.034 214.944 396.617 214.733 395.196 214.526L395.071 214.509C394.424 214.413 393.779 214.319 393.136 214.227L392.056 214.071C391.053 213.925 390.051 213.783 389.049 213.644L388.263 213.533C386.342 213.264 384.427 213 382.517 212.741C382.408 212.729 382.29 212.712 382.169 212.696L371.032 211.252C369.807 211.1 368.586 210.951 367.36 210.802C366.14 210.652 364.92 210.506 363.7 210.364C362.485 210.221 361.264 210.078 360.049 209.939C358.84 209.799 357.624 209.66 356.415 209.527L356.07 209.488C354.976 209.365 353.875 209.245 352.785 209.128C351.652 209.003 350.523 208.883 349.398 208.766L349.164 208.742C347.757 208.593 346.356 208.448 344.961 208.307C343.956 208.204 342.955 208.103 341.957 208.005C340.989 207.908 340.017 207.814 339.057 207.723C334.135 207.247 329.098 206.794 324.085 206.377C322.899 206.278 321.752 206.182 320.606 206.092C319.429 205.994 318.262 205.904 317.088 205.813C315.92 205.722 314.751 205.633 313.582 205.547C312.539 205.468 311.492 205.392 310.452 205.317L310.091 205.291C308.928 205.206 307.771 205.125 306.608 205.048L303.715 204.852C302.206 204.752 300.698 204.656 299.192 204.564L298.93 204.547C298.034 204.491 297.141 204.436 296.249 204.382C293.949 204.246 291.657 204.116 289.373 203.993C286.299 203.824 283.241 203.671 280.198 203.532C278.745 203.464 277.297 203.399 275.844 203.337C274.83 203.293 273.816 203.251 272.803 203.211L271.637 203.164C271.078 203.142 270.518 203.12 269.961 203.101L268.122 203.033C265.491 202.935 262.87 202.849 260.259 202.773C259.703 202.754 259.148 202.737 258.602 202.725C257.155 202.682 255.723 202.643 254.296 202.608C252.668 202.569 251.044 202.532 249.425 202.497L245.743 202.426C244.812 202.41 243.885 202.395 242.962 202.381C240.814 202.345 238.684 202.319 236.558 202.296C233.843 202.267 231.144 202.249 228.461 202.241L228.255 202.24C227.568 202.237 226.883 202.235 226.197 202.235C225.451 202.233 224.697 202.232 223.953 202.232C92.1661 202.232 1.25886 223.775 0.351014 223.994L0.0217285 222.626C0.931294 222.406 92.015 200.825 223.953 200.825C224.706 200.825 225.442 200.825 226.198 200.827C226.885 200.827 227.572 200.829 228.26 200.833L228.466 200.833C231.152 200.843 233.855 200.862 236.574 200.889C238.702 200.911 240.835 200.937 242.983 200.973C243.908 200.986 244.836 201.001 245.767 201.019L249.455 201.09C251.074 201.122 252.699 201.159 254.33 201.201C255.76 201.236 257.196 201.275 258.639 201.318C259.186 201.33 259.747 201.347 260.304 201.366C262.914 201.441 265.537 201.527 268.175 201.626L270.012 201.694C270.569 201.713 271.132 201.735 271.693 201.758L272.86 201.804C273.875 201.845 274.89 201.888 275.904 201.931C277.359 201.993 278.808 202.058 280.263 202.126C283.307 202.265 286.369 202.419 289.448 202.587C291.735 202.707 294.03 202.837 296.332 202.977C297.225 203.03 298.12 203.085 299.018 203.142L299.279 203.159C300.785 203.25 302.295 203.346 303.809 203.448L306.702 203.643C307.867 203.721 309.027 203.802 310.193 203.886L310.554 203.913C311.595 203.988 312.644 204.064 313.688 204.143C314.857 204.231 316.027 204.319 317.197 204.409C318.373 204.5 319.543 204.591 320.719 204.688C321.865 204.778 323.015 204.873 324.168 204.972C329.221 205.392 334.264 205.845 339.191 206.322C340.152 206.413 341.126 206.507 342.095 206.604C343.093 206.702 344.098 206.803 345.103 206.907C346.499 207.046 347.902 207.191 349.312 207.342L349.545 207.366C350.673 207.485 351.804 207.606 352.937 207.728C354.027 207.845 355.13 207.965 356.229 208.089L356.572 208.128C357.78 208.261 358.998 208.401 360.21 208.54C361.425 208.68 362.647 208.823 363.864 208.966C365.086 209.109 366.309 209.255 367.53 209.404C368.758 209.554 369.979 209.703 371.206 209.856L382.365 211.302C382.474 211.317 382.581 211.332 382.691 211.345C384.621 211.606 386.536 211.869 388.457 212.139L389.24 212.248C390.248 212.389 391.254 212.532 392.258 212.678L393.336 212.834C393.982 212.927 394.629 213.021 395.277 213.117C395.294 213.122 395.348 213.124 395.407 213.134C396.823 213.34 398.245 213.552 399.672 213.769C400.379 213.873 401.089 213.98 401.801 214.091C402.771 214.237 403.74 214.386 404.715 214.539L406.629 214.841C407.096 214.909 407.572 214.984 408.048 215.063C409.035 215.214 410.029 215.372 411.031 215.536C411.958 215.685 412.884 215.836 413.811 215.987C413.856 215.993 413.901 216.001 413.945 216.012L418.912 216.835C419.439 216.924 419.968 217.013 420.494 217.104L420.625 217.125C420.685 217.133 420.78 217.15 420.876 217.168L420.967 217.183C421.65 217.298 422.332 217.413 423.015 217.534L425.161 217.907C425.211 217.913 425.292 217.927 425.373 217.942C425.847 218.023 426.321 218.106 426.794 218.191L426.939 218.11L427.175 218.257C427.337 218.285 427.5 218.313 427.662 218.342L428.222 218.441C428.989 218.577 429.756 218.714 430.524 218.852L430.762 218.895C431.228 218.978 431.697 219.062 432.162 219.148L432.723 219.25C434.054 219.492 435.386 219.736 436.721 219.982C438.243 220.265 439.771 220.55 441.292 220.84C442.208 221.012 443.121 221.187 444.038 221.366C444.894 221.528 445.756 221.694 446.616 221.863L447.036 221.945C448.181 222.168 449.329 222.391 450.472 222.62L450.197 224Z" fill="#3F3D56"/>
<path d="M309.8 117.805C339.081 117.805 362.819 94.0459 362.819 64.737C362.819 35.428 339.081 11.6685 309.8 11.6685C280.518 11.6685 256.781 35.428 256.781 64.737C256.781 94.0459 280.518 117.805 309.8 117.805Z" fill="#A5BF84"/>
<path opacity="0.2" d="M349.239 29.292C354.184 40.8712 354.855 53.8332 351.131 65.8619C347.408 77.8906 339.532 88.2021 328.912 94.9538C318.292 101.706 305.62 104.458 293.16 102.718C280.699 100.978 269.263 94.8608 260.894 85.4581C263.915 92.5325 268.436 98.8649 274.145 104.017C279.854 109.168 286.613 113.016 293.955 115.293C301.297 117.57 309.046 118.223 316.665 117.205C324.284 116.187 331.59 113.523 338.078 109.398C344.567 105.273 350.081 99.7858 354.24 93.3158C358.399 86.8458 361.103 79.5481 362.165 71.9282C363.226 64.3084 362.62 56.5486 360.388 49.1866C358.156 41.8246 354.352 35.0362 349.239 29.292Z" fill="black"/>
<path d="M309.945 64.7378H310.091L312.713 215.195H307.178L309.945 64.7378Z" fill="#3F3D56"/>
<path d="M319.599 146.691L318.377 144.369L309.613 148.987L310.835 151.309L319.599 146.691Z" fill="#3F3D56"/>
<path d="M183.22 216.469C183.22 216.469 183.444 211.773 188.035 212.319L183.22 216.469Z" fill="#3F3D56"/>
<path d="M181.923 211.999C183.192 211.999 184.22 210.97 184.22 209.7C184.22 208.43 183.192 207.4 181.923 207.4C180.654 207.4 179.625 208.43 179.625 209.7C179.625 210.97 180.654 211.999 181.923 211.999Z" fill="#E7936D"/>
<path d="M182.197 213.572H181.549V218.116H182.197V213.572Z" fill="#3F3D56"/>
<path d="M266.883 217.442C266.883 217.442 267.107 212.745 271.698 213.291L266.883 217.442Z" fill="#3F3D56"/>
<path d="M265.586 212.973C266.855 212.973 267.883 211.944 267.883 210.674C267.883 209.404 266.855 208.374 265.586 208.374C264.317 208.374 263.288 209.404 263.288 210.674C263.288 211.944 264.317 212.973 265.586 212.973Z" fill="#E7936D"/>
<path d="M265.86 214.546H265.212V219.09H265.86V214.546Z" fill="#3F3D56"/>
<path d="M129.067 209.329C129.067 209.329 129.291 204.632 133.881 205.178L129.067 209.329Z" fill="#3F3D56"/>
<path d="M127.769 204.859C129.038 204.859 130.067 203.83 130.067 202.559C130.067 201.289 129.038 200.26 127.769 200.26C126.5 200.26 125.472 201.289 125.472 202.559C125.472 203.83 126.5 204.859 127.769 204.859Z" fill="#E7936D"/>
<path d="M128.044 206.432H127.396V210.976H128.044V206.432Z" fill="#3F3D56"/>
<path d="M164.413 203.161C164.413 203.161 164.637 198.465 169.227 199.01L164.413 203.161Z" fill="#3F3D56"/>
<path d="M163.115 198.692C164.384 198.692 165.413 197.663 165.413 196.392C165.413 195.122 164.384 194.093 163.115 194.093C161.846 194.093 160.818 195.122 160.818 196.392C160.818 197.663 161.846 198.692 163.115 198.692Z" fill="#E7936D"/>
<path d="M163.39 200.264H162.741V204.808H163.39V200.264Z" fill="#3F3D56"/>
<path d="M252.939 211.924C252.939 211.924 253.163 207.228 257.754 207.774L252.939 211.924Z" fill="#3F3D56"/>
<path d="M251.642 207.455C252.911 207.455 253.939 206.426 253.939 205.156C253.939 203.886 252.911 202.856 251.642 202.856C250.373 202.856 249.344 203.886 249.344 205.156C249.344 206.426 250.373 207.455 251.642 207.455Z" fill="#E7936D"/>
<path d="M251.917 209.029H251.268V213.573H251.917V209.029Z" fill="#3F3D56"/>
<path d="M188.616 12.8095L191.602 10.4197C189.282 10.1636 188.33 11.4296 187.94 12.4316C186.695 12.0183 185.34 12.1021 184.156 12.6654L190.128 14.8358C189.827 14.0302 189.303 13.3273 188.616 12.8095Z" fill="#3F3D56"/>
<path d="M234.015 37.1537L237 34.7639C234.681 34.5078 233.728 35.7738 233.338 36.7758C232.094 36.3626 230.738 36.4463 229.554 37.0096L235.527 39.18C235.225 38.3744 234.701 37.6715 234.015 37.1537Z" fill="#3F3D56"/>
<path d="M185.049 57.9257L188.035 55.5359C185.715 55.2798 184.763 56.5458 184.373 57.5478C183.128 57.1345 181.773 57.2183 180.589 57.7816L186.561 59.952C186.26 59.1464 185.736 58.4435 185.049 57.9257Z" fill="#3F3D56"/>
</svg>
