<svg viewBox="0 0 54 54" fill="none" xmlns="http://www.w3.org/2000/svg">
<path d="M54 27.0025C54 27.9143 53.9563 28.8147 53.8689 29.7038C53.8388 30.0096 53.8034 30.312 53.7628 30.6108C53.7398 30.7812 53.7156 30.9522 53.6894 31.122C52.7132 37.4316 49.5332 43.1915 44.7137 47.3796C39.8943 51.5677 33.7469 53.9131 27.3624 53.9998C27.2425 53.9998 27.1219 53.9998 27.0013 53.9998C26.1423 53.9998 25.293 53.96 24.4532 53.8805C10.7356 52.5974 0 41.0523 0 26.9999C0 12.0884 12.089 0 27.0013 0C41.9136 0 54 12.091 54 27.0025Z" fill="#E7946D"/>
<path d="M29.9502 25.4003C29.8663 26.1343 28.859 27.0249 26.8929 28.8591C24.6273 30.9719 25.8279 29.9627 23.346 32.2597C20.8451 34.5743 18.2794 36.8228 15.7909 39.1486C14.3321 40.5077 13.6033 41.1873 13.0344 41.091C12.9335 41.0739 12.9689 41.0549 11.9314 40.0614C11.3481 39.5018 11.28 39.4507 11.1968 39.275C11.0309 38.9284 11.0735 38.6498 11.2053 37.6524C11.4222 36.0023 11.4084 35.9761 11.4976 35.8542C12.0088 35.149 12.7913 35.5521 13.406 34.8332C13.9742 34.168 13.5843 33.476 14.1269 33.1293C14.7417 32.7361 15.4305 33.4104 15.9331 33.029C16.523 32.5814 15.9331 31.3822 16.5105 30.9732C17.0178 30.6154 17.8075 31.2976 18.24 30.8907C18.4301 30.7118 18.4419 30.4274 18.4642 29.8788C18.4956 29.0852 18.2853 28.865 18.4642 28.6272C18.6732 28.3499 19.1641 28.3755 19.7749 28.4076C20.7134 28.4568 20.8268 28.633 21.0712 28.5118C21.6971 28.2018 21.0359 26.8971 21.6735 25.5346C21.9029 25.0451 22.0602 25.0595 23.9713 23.3864C25.5966 21.9637 25.6418 21.8136 26.0206 21.7396C27.6787 21.4217 30.1495 23.6453 29.9502 25.4003Z" fill="white"/>
<path d="M26.1335 27.3397L14.7865 37.9462C14.6411 38.0822 14.6334 38.3103 14.7694 38.4557C14.9053 38.6011 15.1334 38.6088 15.2788 38.4729L26.6258 27.8663C26.7712 27.7304 26.7789 27.5023 26.643 27.3568C26.507 27.2114 26.2789 27.2037 26.1335 27.3397Z" fill="#DD855A"/>
<g opacity="0.5">
<path opacity="0.5" d="M41.4738 18.3352C41.4692 18.2127 41.4613 18.0908 41.4502 17.9689C41.4502 17.9643 41.4502 17.9597 41.4502 17.9558C41.445 17.8981 41.4391 17.8404 41.4332 17.7834V17.767C41.4266 17.7054 41.4194 17.6445 41.4115 17.5829C41.4037 17.5213 41.3945 17.4584 41.3853 17.3955C41.3761 17.3326 41.3657 17.271 41.3545 17.2087C41.3434 17.1464 41.3355 17.1019 41.325 17.0481C41.325 17.0331 41.3198 17.0187 41.3165 17.0036C41.3054 16.9479 41.2942 16.8922 41.2818 16.8371C41.2693 16.7821 41.2542 16.7133 41.2392 16.6517C41.2241 16.5901 41.209 16.5291 41.1926 16.4675C41.1763 16.4059 41.1612 16.3515 41.1448 16.2932L41.1369 16.267C41.1206 16.2119 41.1042 16.1569 41.0871 16.1018C41.0701 16.0468 41.0485 15.9806 41.0281 15.9203C41.0078 15.86 40.9869 15.7997 40.9626 15.7394C40.9384 15.6792 40.9252 15.6366 40.9056 15.5854C40.8859 15.5343 40.865 15.4799 40.84 15.4275C40.8355 15.4151 40.8302 15.4019 40.825 15.3895C40.7968 15.324 40.768 15.2532 40.7378 15.1857C40.7149 15.1319 40.6906 15.0789 40.6657 15.0258C40.6408 14.9727 40.6094 14.9059 40.5799 14.8462L40.57 14.8272C40.5425 14.7709 40.5143 14.7152 40.4848 14.6601C40.4554 14.6051 40.4232 14.5428 40.3905 14.4851C40.3868 14.4774 40.3827 14.47 40.378 14.4628C40.3538 14.4183 40.3289 14.3744 40.3026 14.3318C40.2889 14.3062 40.2738 14.2807 40.2581 14.2558C40.2378 14.2204 40.2161 14.185 40.1925 14.1496C40.184 14.1339 40.1742 14.1188 40.1644 14.1031C40.1368 14.0585 40.1087 14.0139 40.0792 13.972C40.0726 13.9609 40.0661 13.9504 40.0582 13.9392C40.0274 13.8914 39.9927 13.8429 39.9625 13.7957L39.9435 13.7682C39.9107 13.7197 39.878 13.6719 39.8426 13.6247C39.838 13.6181 39.8334 13.6109 39.8282 13.6044C39.7954 13.5585 39.7626 13.5133 39.7272 13.4681C39.7176 13.4545 39.7071 13.4407 39.6958 13.4268C39.6696 13.3914 39.6427 13.3566 39.6152 13.3226C39.5837 13.2819 39.5496 13.2413 39.5182 13.2013C39.4867 13.1614 39.4585 13.1279 39.4277 13.0912C39.3434 12.9903 39.256 12.8907 39.1656 12.7924C37.5028 11.2659 35.3144 10.441 33.0576 10.4904C30.8009 10.5397 28.6505 11.4594 27.0561 13.0571C25.4616 14.6548 24.5465 16.807 24.5019 19.0637C24.4574 21.3204 25.2869 23.507 26.8171 25.1664C26.8688 25.2143 26.9213 25.2615 26.9743 25.3073C27.0274 25.3532 27.0661 25.3873 27.1126 25.4259C27.1251 25.4371 27.1382 25.4476 27.1513 25.4581C27.1913 25.4915 27.2312 25.5236 27.2719 25.5564L27.3053 25.5832C27.3564 25.6239 27.4082 25.6638 27.46 25.7025L27.4665 25.7077C27.5111 25.7418 27.5557 25.7733 27.5976 25.8067C27.6114 25.8172 27.6251 25.8277 27.6396 25.8375C27.6907 25.8742 27.7424 25.9109 27.7949 25.9463H27.7995C27.8545 25.9836 27.9102 26.021 27.9666 26.057C28.0229 26.0931 28.0688 26.1226 28.1212 26.1547C28.2346 26.2261 28.35 26.2936 28.466 26.3578C28.4968 26.3755 28.5269 26.3919 28.5584 26.4083L28.6134 26.4384C28.6455 26.4561 28.679 26.4732 28.7111 26.4896C28.7622 26.5164 28.8133 26.542 28.8651 26.5675C28.9169 26.5931 28.9496 26.6088 28.9922 26.6285L29.0617 26.6606L29.1403 26.6966L29.1626 26.7065L29.2472 26.7438L29.3586 26.791L29.4366 26.8231C29.489 26.8447 29.5414 26.8651 29.5945 26.8887L29.7911 26.9601C29.8567 26.9824 29.9163 27.0033 29.9792 27.0256C30.0421 27.0479 30.0992 27.0649 30.1601 27.0833L30.1844 27.0905L30.343 27.137L30.396 27.1514L30.5029 27.1803L30.6123 27.2085L30.7486 27.2412H30.7526L30.9033 27.2746L30.9564 27.2858L31.1294 27.3199L31.1602 27.3251C31.2185 27.3362 31.2775 27.3461 31.3358 27.3553H31.3562C31.4165 27.3651 31.4774 27.3736 31.5377 27.3821C31.598 27.3906 31.6445 27.3965 31.6983 27.4024L31.7638 27.4096C31.8189 27.4162 31.8733 27.4214 31.9283 27.4267H31.9407L32.1092 27.4398H32.1577C32.216 27.4437 32.275 27.447 32.3333 27.4496L32.4755 27.4549H32.5024H32.5804H32.7324C33.5389 27.4558 34.3417 27.3455 35.118 27.1272C35.2491 27.0905 35.3784 27.0507 35.506 27.0079C35.5715 26.9863 35.6371 26.964 35.698 26.9424C35.8894 26.8738 36.079 26.798 36.2669 26.715C36.5166 26.6042 36.763 26.4817 37.0035 26.3467C37.1844 26.2449 37.3624 26.1357 37.5376 26.019C37.6543 25.9424 37.769 25.8624 37.883 25.7792C37.997 25.6959 38.1085 25.6101 38.2192 25.521C38.385 25.3899 38.5469 25.2464 38.7055 25.0983C38.8209 24.9908 38.9325 24.8816 39.0404 24.7706C39.0941 24.7143 39.1472 24.6572 39.1997 24.6002C39.2521 24.5432 39.3032 24.4855 39.3537 24.4272C39.4041 24.3689 39.4539 24.3099 39.5024 24.2509C39.5758 24.1636 39.6468 24.0733 39.7154 23.9803L39.781 23.8892C39.9824 23.6163 40.1675 23.3319 40.3354 23.0373C40.3913 22.9394 40.4449 22.8409 40.496 22.7417C40.5307 22.6762 40.5615 22.6106 40.5963 22.5451C40.631 22.4796 40.6618 22.414 40.6913 22.3433C40.8148 22.0743 40.9241 21.7992 41.019 21.5188C41.0662 21.3793 41.1101 21.239 41.15 21.0975C41.3708 20.3123 41.4811 19.5001 41.4777 18.6845C41.4817 18.5672 41.479 18.4512 41.4738 18.3352ZM37.1143 21.5575C37.0815 21.6656 37.014 21.8649 36.8521 21.9356C36.6902 22.0064 36.4936 21.9002 36.4274 21.8642C36.2642 21.7744 36.067 21.5765 35.8494 21.3163L33.5766 23.0536C33.2325 23.3754 32.7554 23.4468 32.412 23.2542C32.3405 23.2148 32.2757 23.1644 32.2199 23.1047L31.8457 22.705L31.077 21.8826C31.6301 22.0064 32.3412 21.8911 32.8648 21.6624C33.1362 21.5444 34.034 21.1525 34.0222 20.5136C34.0157 20.1702 33.7509 19.8261 33.4258 19.6813C33.4017 19.6702 33.3769 19.6604 33.3518 19.6518C33.0896 19.562 32.8471 19.6236 32.6872 19.6642C32.199 19.7894 31.8883 20.1151 31.8693 20.0915C31.8503 20.0679 31.9965 19.9703 32.1459 19.7573C32.2093 19.6693 32.2639 19.5754 32.3091 19.4768C32.3699 19.3539 32.4117 19.2224 32.4329 19.0869C32.4459 18.9839 32.4356 18.8793 32.4028 18.7809C32.2947 18.4663 31.9716 18.3378 31.8942 18.3097C31.4309 18.1432 30.9911 18.4329 30.9112 18.486C30.4249 18.8064 30.2951 19.3654 30.2047 19.7553C30.1421 20.0178 30.12 20.2883 30.1391 20.5575C30.147 20.6584 30.1575 20.7888 30.1817 20.9264L29.6502 20.3582L29.2269 19.9054C28.8913 19.5463 28.9549 18.9421 29.3691 18.5554L31.2696 16.4334C31.1342 16.3031 31.0195 16.1528 30.9295 15.9878C30.8981 15.9223 30.7984 15.7204 30.8869 15.5592C30.9754 15.398 31.17 15.3528 31.2801 15.3266C32.2632 15.0992 35.0531 15.0435 36.4386 15.531C36.5091 15.5551 36.5778 15.584 36.6444 15.6176C36.7623 15.6778 36.8697 15.7568 36.9622 15.8515C37.1151 16.0149 37.2244 16.2141 37.2801 16.4308C37.438 16.982 37.4904 17.7415 37.4767 18.5141C37.4662 19.7252 37.2899 20.9795 37.1143 21.5575Z" fill="#BE5620"/>
</g>
<path d="M41.4738 18.3348C41.4685 18.2129 41.4606 18.0904 41.4502 17.9685C41.4502 17.9639 41.4502 17.9593 41.4502 17.9554C41.4449 17.8977 41.439 17.8401 41.4331 17.783V17.7667C41.4266 17.7051 41.4194 17.6441 41.4115 17.5825C41.4036 17.5209 41.3945 17.458 41.3853 17.3951C41.3761 17.3322 41.3656 17.2706 41.3545 17.2083C41.3433 17.1461 41.3355 17.1015 41.325 17.0478C41.325 17.0327 41.3197 17.0183 41.3165 17.0032C41.3053 16.9475 41.2942 16.8918 41.2817 16.8367C41.2693 16.7817 41.2542 16.7129 41.2391 16.6513C41.224 16.5897 41.209 16.5287 41.1926 16.4671C41.1762 16.4055 41.1611 16.3511 41.1448 16.2928L41.1369 16.2666C41.1205 16.2116 41.1041 16.1565 41.0871 16.1015C41.07 16.0464 41.0484 15.9802 41.0281 15.9199C41.0078 15.8596 40.9868 15.7993 40.9626 15.7391C40.9383 15.6788 40.9252 15.6362 40.9055 15.5851C40.8859 15.5339 40.8649 15.4795 40.84 15.4271C40.8354 15.4147 40.8302 15.4016 40.8249 15.3891C40.7968 15.3236 40.7679 15.2528 40.7378 15.1853C40.7148 15.1316 40.6906 15.0785 40.6657 15.0254C40.6408 14.9723 40.6093 14.9055 40.5798 14.8458L40.57 14.8268C40.5425 14.7705 40.5143 14.7148 40.4848 14.6597C40.4553 14.6047 40.4232 14.5424 40.3904 14.4847C40.3868 14.477 40.3826 14.4696 40.378 14.4625C40.3537 14.4179 40.3288 14.374 40.3026 14.3314C40.2888 14.3058 40.2738 14.2803 40.258 14.2554C40.2377 14.22 40.2161 14.1846 40.1925 14.1492C40.184 14.1335 40.1741 14.1184 40.1643 14.1027C40.1368 14.0581 40.1086 14.0136 40.0791 13.9716C40.0726 13.9605 40.066 13.95 40.0581 13.9389C40.0273 13.891 39.9926 13.8425 39.9625 13.7953L39.9435 13.7678C39.9107 13.7193 39.8779 13.6715 39.8425 13.6243C39.8379 13.6177 39.8334 13.6105 39.8281 13.604C39.7953 13.5581 39.7626 13.5129 39.7272 13.4677C39.7176 13.4541 39.7071 13.4404 39.6957 13.4264C39.6695 13.391 39.6426 13.3563 39.6151 13.3222C39.5837 13.2816 39.5496 13.2409 39.5181 13.2009C39.4867 13.161 39.4585 13.1275 39.4277 13.0908C39.3434 12.9899 39.256 12.8903 39.1655 12.792C39.1511 12.775 39.136 12.7586 39.1203 12.7422C38.3408 11.8831 37.3983 11.1876 36.3475 10.6961C35.2968 10.2047 34.1587 9.92706 32.9997 9.87944C31.8406 9.83183 30.6837 10.0152 29.5961 10.4188C28.5086 10.8224 27.5122 11.4383 26.6649 12.2306C25.8176 13.0228 25.1363 13.9757 24.6606 15.0336C24.185 16.0916 23.9245 17.2336 23.8943 18.3932C23.8641 19.5528 24.0649 20.7068 24.4848 21.7881C24.9048 22.8694 25.5356 23.8563 26.3406 24.6916C26.4952 24.8572 26.6549 25.0153 26.8196 25.1661C26.8714 25.2139 26.9238 25.2611 26.9769 25.307C27.03 25.3528 27.0687 25.3869 27.1152 25.4256C27.1277 25.4367 27.1408 25.4472 27.1539 25.4577C27.1939 25.4911 27.2338 25.5232 27.2745 25.556L27.3079 25.5828C27.359 25.6235 27.4108 25.6635 27.4626 25.7021L27.4691 25.7074C27.5137 25.7414 27.5582 25.7729 27.6002 25.8063C27.6139 25.8168 27.6277 25.8273 27.6421 25.8371C27.6932 25.8738 27.745 25.9105 27.7975 25.9459H27.802C27.8571 25.9833 27.9128 26.0206 27.9692 26.0567C28.0255 26.0927 28.0714 26.1222 28.1238 26.1543C28.2372 26.2257 28.3526 26.2932 28.4686 26.3575C28.4994 26.3751 28.5295 26.3915 28.561 26.4079L28.616 26.4381C28.6481 26.4558 28.6815 26.4728 28.7137 26.4892C28.7648 26.516 28.8159 26.5416 28.8677 26.5672C28.9195 26.5927 28.9522 26.6084 28.9948 26.6281L29.0643 26.6602L29.1429 26.6963L29.1652 26.7061L29.2498 26.7434L29.3612 26.7906L29.4392 26.8227C29.4916 26.8444 29.544 26.8647 29.5971 26.8883L29.7937 26.9597C29.8593 26.982 29.9189 27.003 29.9818 27.0252C30.0447 27.0475 30.1017 27.0646 30.1627 27.0829L30.1869 27.0901L30.3455 27.1366L30.3986 27.1511L30.5055 27.1799L30.6149 27.2081L30.7512 27.2408H30.7551L30.9059 27.2743L30.959 27.2854L31.132 27.3195L31.1628 27.3247C31.2211 27.3359 31.2801 27.3457 31.3384 27.3549H31.3587C31.419 27.3647 31.48 27.3732 31.5403 27.3817C31.6006 27.3903 31.6471 27.3962 31.7008 27.4021L31.7664 27.4093C31.8214 27.4158 31.8758 27.4211 31.9309 27.4263H31.9433L32.1118 27.4394H32.1603C32.2186 27.4433 32.2776 27.4466 32.3359 27.4492L32.4781 27.4545H32.505H32.583H32.735C33.5415 27.4554 34.3442 27.3451 35.1206 27.1268C35.2516 27.0901 35.381 27.0504 35.5086 27.0075C35.5741 26.9859 35.6396 26.9636 35.7006 26.942C35.892 26.8734 36.0816 26.7976 36.2694 26.7146C36.5191 26.6039 36.7656 26.4813 37.0061 26.3463C37.187 26.2445 37.365 26.1353 37.5402 26.0186C37.6569 25.942 37.7716 25.862 37.8856 25.7788C37.9996 25.6956 38.111 25.6097 38.2218 25.5206C38.3876 25.3895 38.5495 25.246 38.7081 25.0979C38.8234 24.9904 38.9351 24.8812 39.043 24.7702C39.0967 24.7139 39.1498 24.6569 39.2022 24.5998C39.2547 24.5428 39.3058 24.4852 39.3562 24.4268C39.4067 24.3685 39.4559 24.3095 39.505 24.2505C39.578 24.1632 39.649 24.073 39.718 23.9799L39.7835 23.8888C39.9845 23.6157 40.1696 23.3312 40.338 23.0369C40.393 22.939 40.4466 22.8405 40.4986 22.7413C40.5326 22.6758 40.5641 22.6102 40.5988 22.5447C40.6336 22.4792 40.6644 22.4136 40.6939 22.3429C40.8168 22.0737 40.9262 21.7986 41.0215 21.5185C41.0681 21.3789 41.112 21.2386 41.1526 21.0971C41.4056 20.1992 41.514 19.2668 41.4738 18.3348ZM36.3311 21.411C36.1652 21.4857 35.9726 21.3756 35.9064 21.3396C35.7432 21.2498 35.5459 21.0519 35.3283 20.7917L33.7961 21.9621L33.0542 22.529C32.758 22.8062 32.3621 22.8966 32.0384 22.7911C31.9712 22.7701 31.9071 22.7404 31.8477 22.7026C31.7926 22.6676 31.7421 22.6258 31.6976 22.5781L30.5546 21.3559C31.1077 21.4798 31.8188 21.3645 32.3425 21.1357C32.6138 21.0178 33.5116 20.6259 33.4998 19.9869C33.4965 19.8805 33.472 19.7758 33.4278 19.6789C33.3696 19.5517 33.2867 19.4372 33.184 19.3421C33.0813 19.2471 32.9608 19.1733 32.8294 19.1252C32.7028 19.0835 32.5686 19.0697 32.4362 19.0845C32.345 19.0953 32.2547 19.1131 32.1662 19.1376C31.6779 19.2628 31.3673 19.5885 31.3483 19.5649C31.3293 19.5413 31.4754 19.4437 31.6248 19.2307C31.6882 19.1427 31.7429 19.0488 31.788 18.9502C31.8535 18.7975 31.961 18.5616 31.8968 18.3073C31.8927 18.2894 31.8877 18.2717 31.8817 18.2542C31.7736 17.9397 31.4505 17.8112 31.3732 17.783C30.9098 17.6166 30.4694 17.9062 30.3901 17.9593C29.9038 18.2798 29.7741 18.8388 29.6836 19.2287C29.621 19.4912 29.5989 19.7617 29.6181 20.0308C29.6253 20.1206 29.6345 20.2347 29.6535 20.3585C29.6535 20.3729 29.6581 20.3874 29.6607 20.4024L28.7058 19.3814C28.3702 19.0223 28.4338 18.4181 28.848 18.0314L30.7486 15.9094C30.6131 15.7791 30.4984 15.6289 30.4085 15.4638C30.377 15.3983 30.2774 15.1964 30.3659 15.0352C30.4543 14.874 30.649 14.8288 30.7591 14.8026C31.7421 14.5752 34.5321 14.5195 35.9175 15.007C36.1152 15.0708 36.2949 15.1807 36.4418 15.3275C36.5251 15.4132 36.5947 15.5111 36.6482 15.6178C36.6946 15.7103 36.7319 15.8071 36.7597 15.9068C36.932 16.5065 36.9779 17.3486 36.9517 18.1972C36.9432 18.4869 36.9261 18.7759 36.9025 19.0557C36.8331 19.8834 36.7059 20.6285 36.5853 21.0335C36.5572 21.141 36.4897 21.3402 36.3311 21.411V21.411Z" fill="white"/>
</svg>
