<svg width="76" height="79" viewBox="0 0 76 79" fill="none" xmlns="http://www.w3.org/2000/svg">
<path opacity="0.3" d="M68.7526 32.5757H64.6964V24.6061C64.6964 15.6131 57.6078 8.13716 48.717 8.00091C46.5732 7.97812 44.446 8.38472 42.4582 9.19726C40.4704 10.0098 38.6613 11.2122 37.135 12.7352C35.6087 14.2582 34.3955 16.0717 33.5652 18.0712C32.735 20.0706 32.3042 22.2165 32.2976 24.3851V32.5757H28.2504C26.4618 32.5813 24.748 33.3024 23.4832 34.5817C22.2185 35.861 21.5055 37.5945 21.5 39.4037V72.172C21.5055 73.9812 22.2185 75.7147 23.4832 76.994C24.748 78.2732 26.4618 78.9944 28.2504 79H68.7526C70.541 78.9944 72.2544 78.2731 73.5187 76.9938C74.783 75.7144 75.4953 73.9809 75.5 72.172V39.4037C75.4953 37.5948 74.783 35.8613 73.5187 34.5819C72.2544 33.3025 70.541 32.5813 68.7526 32.5757ZM50.8664 53.8772V65.6135C50.8703 66.2349 50.6405 66.8346 50.2237 67.2912C49.8068 67.7477 49.234 68.0269 48.6212 68.0722C48.3013 68.0873 47.9817 68.0367 47.6817 67.9233C47.3818 67.8099 47.1076 67.6362 46.8759 67.4126C46.6442 67.189 46.4598 66.9201 46.3337 66.6224C46.2077 66.3246 46.1427 66.004 46.1426 65.6801V53.8711C45.0475 53.3309 44.1657 52.4313 43.6411 51.3189C43.1166 50.2066 42.9802 48.9473 43.2542 47.7464C43.5283 46.5456 44.1966 45.4742 45.1501 44.707C46.1037 43.9398 47.2861 43.5221 48.5045 43.5221C49.7229 43.5221 50.9053 43.9398 51.8589 44.707C52.8124 45.4742 53.4807 46.5456 53.7547 47.7464C54.0288 48.9473 53.8924 50.2066 53.3678 51.3189C52.8433 52.4313 51.9615 53.3309 50.8664 53.8711V53.8772ZM59.9786 32.5757H37.0214V24.3851C37.0214 21.307 38.2303 18.3549 40.3821 16.1783C42.5339 14.0018 45.4524 12.779 48.4955 12.779C51.5386 12.779 54.4571 14.0018 56.609 16.1783C58.7608 18.3549 59.9696 21.307 59.9696 24.3851L59.9786 32.5757Z" fill="#202020" fill-opacity="0.6"/>
<path d="M47.7526 24.2295H43.6964V16.3722C43.6964 7.50592 36.6078 0.135232 27.717 0.000894344C25.5732 -0.0215681 23.446 0.3793 21.4582 1.1804C19.4704 1.9815 17.6613 3.16699 16.135 4.66854C14.6087 6.1701 13.3955 7.95803 12.5652 9.92931C11.735 11.9006 11.3042 14.0162 11.2976 16.1543V24.2295H7.25037C5.46176 24.235 3.74799 24.946 2.48324 26.2073C1.2185 27.4686 0.505527 29.1777 0.5 30.9614V63.2682C0.505527 65.0519 1.2185 66.7609 2.48324 68.0222C3.74799 69.2835 5.46176 69.9945 7.25037 70H47.7526C49.541 69.9945 51.2544 69.2834 52.5187 68.022C53.783 66.7607 54.4953 65.0516 54.5 63.2682V30.9614C54.4953 29.1779 53.783 27.4689 52.5187 26.2075C51.2544 24.9461 49.541 24.235 47.7526 24.2295ZM29.8664 45.231V56.802C29.8703 57.4147 29.6405 58.006 29.2237 58.4561C28.8068 58.9062 28.234 59.1814 27.6212 59.2261C27.3013 59.241 26.9817 59.1911 26.6817 59.0793C26.3818 58.9675 26.1076 58.7962 25.8759 58.5758C25.6442 58.3553 25.4598 58.0903 25.3337 57.7967C25.2077 57.5031 25.1427 57.1871 25.1426 56.8677V45.2251C24.0475 44.6925 23.1657 43.8055 22.6411 42.7088C22.1166 41.6121 21.9802 40.3705 22.2542 39.1866C22.5283 38.0027 23.1966 36.9464 24.1501 36.19C25.1037 35.4336 26.2861 35.0218 27.5045 35.0218C28.7229 35.0218 29.9053 35.4336 30.8589 36.19C31.8124 36.9464 32.4807 38.0027 32.7547 39.1866C33.0288 40.3705 32.8924 41.6121 32.3678 42.7088C31.8433 43.8055 30.9615 44.6925 29.8664 45.2251V45.231ZM38.9786 24.2295H16.0214V16.1543C16.0214 13.1195 17.2303 10.2091 19.3821 8.06315C21.5339 5.91725 24.4524 4.71169 27.4955 4.71169C30.5386 4.71169 33.4571 5.91725 35.609 8.06315C37.7608 10.2091 38.9696 13.1195 38.9696 16.1543L38.9786 24.2295Z" fill="#E7936D"/>
</svg>
