<svg width="142" height="101" viewBox="0 0 142 101" fill="none" xmlns="http://www.w3.org/2000/svg">
<g clip-path="url(#clip0)">
<path opacity="0.1" d="M139.751 67.9013C136.458 74.653 129.77 79.1677 122.84 82.1451C113.51 86.1547 103.235 87.745 93.1018 87.0724C91.3259 86.955 89.5554 86.7673 87.7903 86.5095C81.66 85.6207 75.6833 83.8911 70.0312 81.3702C68.3999 80.6402 66.8017 79.8432 65.2366 78.9792C62.6224 77.5393 60.1176 75.9114 57.7422 74.1085C57.1447 73.6552 56.5555 73.1904 55.9746 72.7141C55.5717 72.3839 55.1726 72.0464 54.7673 71.7187C53.912 71.0277 53.0319 70.3711 52.0501 69.8796C51.7539 69.7312 51.4503 69.598 51.1403 69.4805C48.0315 68.3053 44.4467 68.7488 41.2102 69.6653C38.7485 70.3625 36.3487 71.3172 33.8894 71.9984C32.7955 72.3106 31.6809 72.546 30.5537 72.703C28.0373 73.0196 25.4818 72.7965 23.0594 72.0489L22.8524 71.9848C22.5053 71.8764 22.1611 71.7578 21.8198 71.6288L21.6128 71.55C21.2823 71.4235 20.9587 71.2876 20.6422 71.1422L20.4352 71.0486C20.1047 70.8959 19.7812 70.7345 19.4647 70.5645C19.3506 70.5054 19.2378 70.4413 19.1263 70.381C17.3255 69.3815 15.6887 68.115 14.2722 66.6251C14.2312 66.5844 14.1928 66.5425 14.1482 66.5019C13.9511 66.29 13.7577 66.0744 13.5706 65.8539C13.5011 65.7726 13.4317 65.6913 13.3636 65.6076C13.1413 65.3382 12.9268 65.0627 12.7202 64.781C12.6892 64.7403 12.6595 64.6985 12.6297 64.6578C11.7833 63.4941 11.0816 62.233 10.5398 60.9019C10.5225 60.8613 10.5064 60.8194 10.4915 60.7787C10.3262 60.3558 10.1754 59.9259 10.0391 59.489C9.98328 59.3067 9.92998 59.1195 9.88288 58.9371C9.86676 58.8829 9.85189 58.8275 9.83825 58.7733C9.15402 56.0965 9.07593 53.3138 9.07593 50.5471C9.07593 50.2243 9.07593 49.902 9.07593 49.5801C9.09576 45.1048 9.16518 40.5531 9.82958 36.1394C9.82958 36.1086 9.83825 36.0778 9.84321 36.0483C10.0656 34.5624 10.3681 33.0895 10.7493 31.6358C11.1484 30.1105 11.6583 28.6161 12.2752 27.1642C13.8036 23.5919 16.0261 20.341 18.4941 17.328C24.7105 9.74597 32.863 3.38103 42.4052 0.99865C52.6873 -1.56728 64.1148 0.891479 72.4086 7.45351C74.9373 9.45402 77.2094 11.8229 80.0493 13.3565C82.5284 14.6918 85.4302 15.2449 88.0853 14.1941C90.2793 13.3257 91.7073 12.8946 94.1715 13.0264C99.2731 13.3132 104.302 14.36 109.091 16.1318C109.284 16.2021 109.478 16.2747 109.67 16.3474C122.153 21.0937 132.884 30.5235 138.462 42.6411C138.61 42.9614 138.753 43.2841 138.892 43.6093C142.218 51.3293 143.42 60.3772 139.751 67.9013Z" fill="#E7936D"/>
<path d="M130.647 13.2725H15.9444C15.0894 13.2725 14.3962 13.9613 14.3962 14.811V78.0477C14.3962 78.8974 15.0894 79.5862 15.9444 79.5862H130.647C131.502 79.5862 132.195 78.8974 132.195 78.0477V14.811C132.195 13.9613 131.502 13.2725 130.647 13.2725Z" fill="url(#paint0_linear)"/>
<path d="M130.473 14.2061H16.1317C15.2767 14.2061 14.5835 14.8949 14.5835 15.7446V77.8283C14.5835 78.678 15.2767 79.3668 16.1317 79.3668H130.473C131.329 79.3668 132.022 78.678 132.022 77.8283V15.7446C132.022 14.8949 131.329 14.2061 130.473 14.2061Z" fill="white"/>
<path d="M130.473 14.2061H16.1317C15.2767 14.2061 14.5835 14.8949 14.5835 15.7446V77.8283C14.5835 78.678 15.2767 79.3668 16.1317 79.3668H130.473C131.329 79.3668 132.022 78.678 132.022 77.8283V15.7446C132.022 14.8949 131.329 14.2061 130.473 14.2061Z" fill="white"/>
<path opacity="0.04" d="M130.473 14.2061H16.1317C15.2767 14.2061 14.5835 14.8949 14.5835 15.7446V77.8283C14.5835 78.678 15.2767 79.3668 16.1317 79.3668H130.473C131.329 79.3668 132.022 78.678 132.022 77.8283V15.7446C132.022 14.8949 131.329 14.2061 130.473 14.2061Z" fill="white"/>
<path d="M131.425 13.458H15.1797C15.0216 13.458 14.8699 13.5204 14.7581 13.6316C14.6463 13.7427 14.5835 13.8934 14.5835 14.0505V16.5549H132.017V14.0505C132.017 13.8942 131.955 13.7443 131.844 13.6333C131.733 13.5223 131.583 13.4593 131.425 13.458Z" fill="#5A5773"/>
<path d="M16.9288 15.8075C17.3737 15.8075 17.7345 15.449 17.7345 15.0068C17.7345 14.5645 17.3737 14.2061 16.9288 14.2061C16.4838 14.2061 16.123 14.5645 16.123 15.0068C16.123 15.449 16.4838 15.8075 16.9288 15.8075Z" fill="white"/>
<path d="M19.0979 15.8075C19.5429 15.8075 19.9037 15.449 19.9037 15.0068C19.9037 14.5645 19.5429 14.2061 19.0979 14.2061C18.653 14.2061 18.2922 14.5645 18.2922 15.0068C18.2922 15.449 18.653 15.8075 19.0979 15.8075Z" fill="white"/>
<path d="M21.2671 15.8075C21.7121 15.8075 22.0729 15.449 22.0729 15.0068C22.0729 14.5645 21.7121 14.2061 21.2671 14.2061C20.8222 14.2061 20.4614 14.5645 20.4614 15.0068C20.4614 15.449 20.8222 15.8075 21.2671 15.8075Z" fill="white"/>
<path opacity="0.2" d="M55.7714 22.3789H24.2556V25.0372H55.7714V22.3789Z" fill="#E7936D"/>
<path opacity="0.1" d="M122.349 33.0381H24.2556V73.9303H122.349V33.0381Z" fill="#5A5773"/>
<path opacity="0.1" d="M81.6904 35.705H80.0108V32.4628C80.0108 28.8043 77.0756 25.7628 73.3941 25.7074C72.5064 25.6981 71.6255 25.8635 70.8024 26.1941C69.9793 26.5247 69.2302 27.0138 68.5982 27.6334C67.9662 28.253 67.4638 28.9908 67.12 29.8042C66.7762 30.6177 66.5978 31.4907 66.5951 32.3729V35.705H64.9192C64.1786 35.7073 63.469 36.0007 62.9452 36.5212C62.4215 37.0416 62.1263 37.7468 62.124 38.4828V51.8139C62.1263 52.5499 62.4215 53.2551 62.9452 53.7755C63.469 54.296 64.1786 54.5894 64.9192 54.5917H81.6904C82.431 54.5894 83.1405 54.296 83.664 53.7755C84.1875 53.255 84.4824 52.5498 84.4844 51.8139V38.4828C84.4824 37.7469 84.1875 37.0417 83.664 36.5212C83.1405 36.0007 82.431 35.7073 81.6904 35.705ZM74.2841 44.3711V49.1457C74.2857 49.3985 74.1906 49.6425 74.018 49.8282C73.8453 50.0139 73.6081 50.1275 73.3544 50.1459C73.222 50.1521 73.0896 50.1315 72.9654 50.0854C72.8412 50.0393 72.7277 49.9686 72.6317 49.8776C72.5358 49.7866 72.4594 49.6773 72.4072 49.5561C72.355 49.435 72.3281 49.3046 72.3281 49.1728V44.3686C71.8746 44.1488 71.5095 43.7828 71.2923 43.3303C71.075 42.8778 71.0186 42.3654 71.132 41.8769C71.2455 41.3884 71.5223 40.9525 71.9171 40.6404C72.3119 40.3282 72.8016 40.1583 73.3061 40.1583C73.8106 40.1583 74.3002 40.3282 74.6951 40.6404C75.0899 40.9525 75.3666 41.3884 75.4801 41.8769C75.5936 42.3654 75.5371 42.8778 75.3199 43.3303C75.1027 43.7828 74.7376 44.1488 74.2841 44.3686V44.3711ZM78.0573 35.705H68.5511V32.3729C68.5511 31.1206 69.0517 29.9197 69.9427 29.0342C70.8338 28.1487 72.0423 27.6513 73.3024 27.6513C74.5625 27.6513 75.771 28.1487 76.662 29.0342C77.553 29.9197 78.0536 31.1206 78.0536 32.3729L78.0573 35.705Z" fill="black"/>
<path d="M81.6904 35.458H80.0108V32.2158C80.0108 28.5572 77.0756 25.5158 73.3941 25.4603C72.5064 25.4511 71.6255 25.6165 70.8024 25.947C69.9793 26.2776 69.2302 26.7668 68.5982 27.3864C67.9662 28.006 67.4638 28.7437 67.12 29.5572C66.7762 30.3706 66.5978 31.2436 66.5951 32.1258V35.458H64.9192C64.1786 35.4602 63.469 35.7536 62.9452 36.2741C62.4215 36.7945 62.1263 37.4997 62.124 38.2358V51.5668C62.1263 52.3028 62.4215 53.008 62.9452 53.5285C63.469 54.0489 64.1786 54.3423 64.9192 54.3446H81.6904C82.431 54.3423 83.1405 54.0489 83.664 53.5284C84.1875 53.0079 84.4824 52.3027 84.4844 51.5668V38.2358C84.4824 37.4999 84.1875 36.7946 83.664 36.2741C83.1405 35.7537 82.431 35.4602 81.6904 35.458ZM74.2841 44.124V48.8986C74.2857 49.1514 74.1906 49.3954 74.018 49.5811C73.8453 49.7668 73.6081 49.8804 73.3544 49.8988C73.222 49.905 73.0896 49.8844 72.9654 49.8383C72.8412 49.7922 72.7277 49.7215 72.6317 49.6305C72.5358 49.5395 72.4594 49.4302 72.4072 49.309C72.355 49.1879 72.3281 49.0575 72.3281 48.9257V44.1215C71.8746 43.9017 71.5095 43.5357 71.2923 43.0832C71.075 42.6307 71.0186 42.1183 71.132 41.6298C71.2455 41.1413 71.5223 40.7054 71.9171 40.3933C72.3119 40.0812 72.8016 39.9112 73.3061 39.9112C73.8106 39.9112 74.3002 40.0812 74.6951 40.3933C75.0899 40.7054 75.3666 41.1413 75.4801 41.6298C75.5936 42.1183 75.5371 42.6307 75.3199 43.0832C75.1027 43.5357 74.7376 43.9017 74.2841 44.1215V44.124ZM78.0573 35.458H68.5511V32.1258C68.5511 30.8736 69.0517 29.6726 69.9427 28.7871C70.8338 27.9016 72.0423 27.4042 73.3024 27.4042C74.5625 27.4042 75.771 27.9016 76.662 28.7871C77.553 29.6726 78.0536 30.8736 78.0536 32.1258L78.0573 35.458Z" fill="#E7936D"/>
<path opacity="0.1" d="M122.349 29.1025H112.42V31.432H122.349V29.1025Z" fill="#5A5773"/>
<path d="M125.728 99.6915C125.663 99.3649 125.551 99.0493 125.396 98.7541L123.909 96.5466H123.917C123.917 96.5466 123.683 95.4379 123.917 94.8935C124.152 94.349 123.082 93.01 123.082 93.01C123.082 93.01 122.952 92.6737 123.291 92.2598C123.631 91.8459 123.082 90.6337 123.082 90.6337C123.082 90.6337 122.822 88.1023 122.796 87.7155C122.769 87.3287 122.56 85.1853 122.56 85.1853L122.064 80.641L121.182 68.5973L121.166 68.3719C121.275 68.3189 121.333 68.2857 121.333 68.2857L121.157 61.6263L121.309 61.4896C122.641 60.2922 125.711 57.5206 125.68 57.4602C125.649 57.3999 125.308 52.8322 125.268 51.689C125.234 50.8767 125.056 50.0767 124.74 49.3264C124.664 49.1749 124.442 48.1758 124.35 47.7533C124.325 47.6375 124.309 47.5648 124.309 47.5648C124.309 47.5648 123.409 45.86 123.487 45.0851C123.565 44.3103 123.721 43.7301 121.803 43.4591C121.803 43.4591 120.191 43.2201 119.232 42.5685C118.664 42.1782 118.044 41.8696 117.39 41.652C117.39 41.652 116.852 40.6665 116.478 41.0004C116.319 40.6487 116.2 40.2806 116.124 39.9028L116.113 39.8338C116.824 39.3414 117.335 38.614 117.556 37.7815C117.568 37.7347 117.578 37.6867 117.589 37.6399C117.627 37.6524 117.665 37.6595 117.705 37.6608C118.031 37.6608 118.231 37.2999 118.536 37.1853C118.66 37.1373 118.813 37.1299 118.908 37.0326C118.94 36.9951 118.963 36.9516 118.977 36.9048C118.991 36.858 118.996 36.8089 118.99 36.7603C118.993 36.7267 118.993 36.6929 118.99 36.6593C118.991 36.6474 118.991 36.6355 118.99 36.6236V36.6359C118.907 36.1875 118.557 35.7897 118.596 35.3339C118.633 34.9052 119.012 34.5283 118.981 34.1107C118.981 34.0776 118.978 34.0447 118.973 34.0121V34.0269C118.927 33.8639 118.841 33.7143 118.725 33.5908C118.591 33.4102 118.416 33.264 118.214 33.1646C118.042 33.0895 117.842 33.0722 117.681 32.9823C117.208 32.7261 117.209 32.0584 116.927 31.6026C116.807 31.4124 116.636 31.2589 116.433 31.1591C116.23 31.0593 116.004 31.0172 115.778 31.0372C115.426 31.0717 115.108 31.2577 114.759 31.3181C114.283 31.4018 113.799 31.2479 113.348 31.0717C112.896 30.8955 112.439 30.7021 111.954 30.7021C111.47 30.7021 110.945 30.9485 110.799 31.4031C110.721 31.6494 110.759 31.9143 110.7 32.1643C110.593 32.6053 110.204 32.9207 109.801 33.14C109.553 33.2767 109.258 33.4331 109.181 33.6918C109.181 33.6844 109.181 33.6783 109.181 33.6721C109.176 33.6928 109.172 33.7137 109.169 33.7349C109.167 33.7624 109.167 33.79 109.169 33.8175C109.169 33.9949 109.263 34.1636 109.326 34.3324C109.444 34.6535 109.442 35.006 109.319 35.3253C109.227 35.5593 109.071 35.765 108.982 35.9978C108.94 36.1063 108.912 36.2198 108.9 36.3354V36.3157C108.897 36.3682 108.897 36.4208 108.9 36.4733C108.899 36.6532 108.941 36.8308 109.024 36.9907C109.081 37.1011 109.159 37.1991 109.255 37.2789C109.351 37.3586 109.461 37.4186 109.581 37.4551C109.829 37.5118 109.983 37.2703 110.245 37.3319C110.292 37.3431 110.338 37.3575 110.383 37.375C110.391 37.4305 110.4 37.4859 110.41 37.5401C110.568 38.3692 111.013 39.1173 111.667 39.6552C111.667 39.6847 111.677 39.7143 111.68 39.7451C111.76 40.2362 111.794 40.7334 111.783 41.2307C111.783 41.2307 111.393 40.6628 110.857 41.7592C110.857 41.7592 109.46 42.5599 108.978 42.651C108.496 42.7422 106.784 43.3347 106.784 43.3347C106.526 43.5202 106.215 43.6199 105.897 43.6193C105.362 43.6193 104.919 44.7809 104.983 45.4128C105.048 46.0447 104.945 46.5104 104.448 46.5363C103.951 46.5621 104.222 47.5636 104.226 47.5809L104.18 47.7964C104.083 48.2374 103.872 49.1835 103.798 49.3313C103.483 50.0817 103.304 50.8816 103.269 51.694C103.23 52.8371 102.897 57.3876 102.858 57.4652C102.832 57.5157 104.936 59.4263 106.415 60.7616L106.629 60.9537L105.949 67.2706C105.969 67.514 106.041 67.7502 106.162 67.9629C106.283 68.1756 106.448 68.3597 106.648 68.5025C106.648 68.5764 106.648 68.6515 106.64 68.7291C106.611 69.4682 106.551 70.3626 106.432 70.5966C106.224 71.0105 106.276 73.2303 106.276 73.2303C106.276 73.2303 106.066 77.7487 105.806 78.2402C105.546 78.7317 105.493 79.7627 105.571 79.9648C105.649 80.1668 105.309 85.5931 105.309 85.5931L105.049 88.021C105.049 88.021 105.127 90.3443 104.891 90.396C104.656 90.4477 104.526 92.0491 104.526 92.0491C104.526 92.0491 103.691 93.1849 104.056 93.5976C104.42 94.0102 104.003 94.1925 103.964 94.2948C103.926 94.397 103.168 94.7875 103.716 96.2312C103.721 96.2455 103.727 96.2595 103.734 96.2731C103.22 96.9814 101.594 99.2665 101.693 99.6139C101.767 99.8349 101.922 100.02 102.127 100.131C102.51 100.359 103.167 100.465 104.212 100.131C105.947 99.5757 105.824 99.1753 105.824 99.1753C105.832 98.9882 105.913 98.8115 106.049 98.6818C106.185 98.5521 106.366 98.4792 106.555 98.4781C107.273 98.4264 107.808 97.7686 107.808 97.7686L107.724 97.4569L107.608 97.0258C107.622 96.9026 107.71 96.687 108.104 96.5675C108.705 96.3864 108.548 95.2507 108.548 95.2507C108.548 95.2507 108.496 94.0632 108.756 93.908C109.017 93.7528 108.914 91.7905 108.914 91.7905C108.914 91.7905 109.201 90.3701 109.618 89.4142C110.034 88.4583 110.533 82.7795 110.533 82.7795C110.533 82.7795 110.871 79.9906 111.185 79.1899C111.498 78.3892 111.786 76.1436 111.786 76.1436C111.786 76.1436 113.718 72.4247 113.743 71.5981C113.743 71.5981 113.991 70.8233 114.239 71.6757C114.487 72.5281 115.183 74.5681 115.183 74.5681L115.861 77.0724L116.671 80.816L117.194 83.967C117.194 83.967 117.115 85.1545 117.318 85.5684C117.521 85.9823 117.814 86.9358 117.658 87.1168C117.501 87.2979 117.97 88.1504 118.101 88.3302C118.233 88.5101 118.101 92.3325 118.101 92.3325C118.101 92.3325 118.701 95.5858 119.563 96.1512C119.623 96.1904 119.687 96.2234 119.754 96.2497C119.741 96.602 119.729 97.0738 119.745 97.3202C119.743 97.3753 119.752 97.4301 119.772 97.4816C119.85 97.585 120.738 98.2823 120.921 98.2823C121.105 98.2823 121.756 98.7344 121.783 98.9536C121.81 99.1729 123.69 100.102 123.957 100.129C124.223 100.156 125.515 100.386 125.692 100.025C125.736 99.9197 125.749 99.8039 125.728 99.6915ZM121.108 53.1623L121.242 53.2769C121.242 53.2769 121.38 54.3424 121.478 54.6615C121.576 54.9805 121.458 55.6014 121.458 55.6014C121.467 55.8331 121.513 56.0619 121.596 56.2789C121.712 56.5117 121.36 57.018 121.36 57.018H121.047L120.949 53.0293L121.108 53.1623ZM111.783 41.2529V41.2295C111.781 41.2369 111.78 41.2455 111.78 41.2529H111.783ZM106.968 56.6078C106.919 56.5046 106.912 56.3871 106.948 56.2789C106.976 56.2204 106.998 56.1593 107.013 56.0966C107.052 55.9348 107.076 55.7699 107.085 55.6038C107.086 55.6018 107.086 55.5997 107.085 55.5977C107.074 55.5386 106.974 54.967 107.067 54.6639C107.16 54.3609 107.301 53.2794 107.301 53.2794L107.39 53.2042L107.597 53.0256C107.597 53.0256 107.597 52.9591 107.612 52.8494C107.656 53.7856 107.69 54.8204 107.635 54.8721C107.53 54.9744 107.151 55.9808 107.243 56.0202C107.273 56.0338 107.232 56.4366 107.162 56.9786C107.084 56.8622 107.019 56.7379 106.968 56.6078Z" fill="url(#paint1_linear)"/>
<path d="M125.583 100.034C125.401 100.394 124.122 100.157 123.858 100.137C123.594 100.118 121.729 99.1851 121.703 98.9671C121.677 98.749 121.032 98.2994 120.851 98.2994C120.67 98.2994 119.791 97.6046 119.713 97.5024C119.693 97.4514 119.684 97.3969 119.687 97.3423C119.659 96.9197 119.713 95.832 119.713 95.832L123.462 96.0377L125.285 98.7613C125.438 99.0552 125.549 99.3691 125.614 99.6938C125.636 99.8078 125.626 99.9257 125.583 100.034Z" fill="#3F3D56"/>
<path opacity="0.1" d="M125.583 100.034C125.401 100.394 124.122 100.158 123.858 100.138C123.594 100.118 121.729 99.1856 121.703 98.9676C121.677 98.7495 121.032 98.2999 120.851 98.2999C120.67 98.2999 119.791 97.6052 119.713 97.5029C119.693 97.4519 119.684 97.3974 119.687 97.3428L120.901 98.1065C120.901 98.1065 121.677 98.5993 121.884 98.8912C122.091 99.1832 123.723 99.7904 123.858 99.8028C123.958 99.8126 125.029 99.6081 125.614 99.6944C125.636 99.8083 125.626 99.9262 125.583 100.034Z" fill="black"/>
<path d="M107.858 97.7862C107.858 97.7862 107.327 98.4416 106.618 98.4921C106.431 98.4935 106.251 98.5662 106.117 98.6953C105.982 98.8243 105.902 98.9998 105.894 99.1856C105.894 99.1856 106.018 99.5847 104.304 100.138C103.269 100.469 102.618 100.364 102.239 100.138C102.035 100.026 101.881 99.8423 101.809 99.6229C101.692 99.2127 103.98 96.09 103.98 96.09L106.063 95.9668L107.55 96.6345L107.778 97.4807L107.858 97.7862Z" fill="#3F3D56"/>
<path opacity="0.1" d="M107.858 97.786C107.858 97.786 107.327 98.4414 106.618 98.4919C106.431 98.4933 106.252 98.566 106.117 98.695C105.982 98.8241 105.902 98.9996 105.894 99.1854C105.894 99.1854 106.018 99.5845 104.304 100.138C103.269 100.469 102.618 100.364 102.239 100.138C103.214 100.037 105.37 99.4244 105.586 99.2125C105.845 98.955 106.168 98.248 106.388 98.2356C106.54 98.2258 107.315 97.7626 107.78 97.4756L107.858 97.786Z" fill="black"/>
<path opacity="0.1" d="M116.319 38.7406C116.034 39.1472 116.012 39.6731 116.107 40.1942C115.456 40.6509 114.671 40.8823 113.875 40.8526C113.078 40.823 112.313 40.5341 111.698 40.0304C111.62 39.5081 111.529 39.125 111.529 39.125C111.529 39.125 117.172 37.526 116.319 38.7406Z" fill="black"/>
<path opacity="0.1" d="M118.394 43.1659L117.204 64.2242L110.74 62.8754L109.459 54.4335L110.727 43.1006L111.682 43.2225L113.365 43.4356L115.032 43.5379L116.84 43.3383L118.394 43.1659Z" fill="black"/>
<path d="M113.08 43.8857L115.408 43.9633L114.753 44.8737C114.753 44.8737 114.799 46.7128 115.11 47.24C115.421 47.7673 115.33 55.9122 115.33 55.9122L114.71 57.0812L113.65 55.7705L113.664 45.0166L113.08 43.8857Z" fill="#3F3D56"/>
<path opacity="0.1" d="M116.725 41.4961L114.554 43.8859L115.794 45.1707L117.851 43.1788L116.725 41.4961Z" fill="black"/>
<path opacity="0.1" d="M113.636 43.77L111.437 41.5859L111.23 42.7291L112.239 45.2347L113.636 43.77Z" fill="black"/>
<path opacity="0.1" d="M121.115 68.7492C120.059 69.2489 118.929 69.5739 117.768 69.7113C115.635 69.981 114.239 67.2833 114.239 67.2833L113.425 68.3365C113.165 69.455 109.222 69.7371 107.62 69.3134C107.287 69.2317 106.974 69.0847 106.7 68.881C106.722 68.323 106.727 67.861 106.727 67.861L109.623 66.7819L113.341 65.6006L116.47 67.0911L121.048 67.9645L121.115 68.7492Z" fill="black"/>
<path opacity="0.1" d="M118.394 43.3211L117.205 64.3783L110.74 63.0294L109.457 54.5888L110.724 43.2559L111.678 43.379C111.654 43.7919 111.607 44.2031 111.538 44.6109C111.383 45.3315 112.34 50.4449 112.34 50.4449C112.34 50.4449 114.158 56.1791 114.977 55.3526C115.795 54.526 116.96 50.1616 116.96 50.1616C117.749 48.5429 116.973 44.0024 116.915 43.9112C116.875 43.7769 116.85 43.6385 116.841 43.4985L118.394 43.3211Z" fill="black"/>
<path opacity="0.1" d="M121.186 59.6161L121.241 61.6794L120.644 62.2178L120.241 57.2227H121.133L121.186 59.6161Z" fill="black"/>
<path opacity="0.1" d="M107.147 55.8096C107.138 55.9755 107.115 56.1404 107.077 56.3023C107.077 56.2567 107.077 56.2308 107.067 56.2271C107.03 56.2173 107.074 56.0288 107.147 55.8096Z" fill="black"/>
<path opacity="0.1" d="M108.293 57.2227L107.885 62.2141C107.885 62.2141 107.274 61.6634 106.483 60.9465L106.577 60.0621C106.577 60.0621 106.911 57.8891 107.032 56.8174C107.087 56.9602 107.159 57.0962 107.245 57.2227H108.293Z" fill="black"/>
<path d="M114.566 58.3535C114.88 58.3535 115.135 58.1003 115.135 57.7881C115.135 57.4758 114.88 57.2227 114.566 57.2227C114.252 57.2227 113.997 57.4758 113.997 57.7881C113.997 58.1003 114.252 58.3535 114.566 58.3535Z" fill="#3F3D56"/>
<path d="M114.566 61.0195C114.88 61.0195 115.135 60.7664 115.135 60.4541C115.135 60.1418 114.88 59.8887 114.566 59.8887C114.252 59.8887 113.997 60.1418 113.997 60.4541C113.997 60.7664 114.252 61.0195 114.566 61.0195Z" fill="#3F3D56"/>
<path opacity="0.1" d="M114.566 58.3535C114.88 58.3535 115.135 58.1003 115.135 57.7881C115.135 57.4758 114.88 57.2227 114.566 57.2227C114.252 57.2227 113.997 57.4758 113.997 57.7881C113.997 58.1003 114.252 58.3535 114.566 58.3535Z" fill="black"/>
<path opacity="0.1" d="M114.566 61.0195C114.88 61.0195 115.135 60.7664 115.135 60.4541C115.135 60.1418 114.88 59.8887 114.566 59.8887C114.252 59.8887 113.997 60.1418 113.997 60.4541C113.997 60.7664 114.252 61.0195 114.566 61.0195Z" fill="black"/>
<path opacity="0.1" d="M119.679 94.1494C119.679 94.1494 122.015 94.3293 122.246 94.5091C122.478 94.6889 119.679 94.1494 119.679 94.1494Z" fill="black" stroke="#E7936D" stroke-miterlimit="10"/>
<path opacity="0.1" d="M105.775 92.3252C105.775 92.3252 106.271 92.9411 106.06 93.2244C105.85 93.5077 105.775 92.3252 105.775 92.3252Z" fill="black" stroke="#E7936D" stroke-miterlimit="10"/>
<path opacity="0.1" d="M106.37 94.546C106.37 94.546 107.275 93.9547 107.637 94.3477C107.999 94.7406 106.37 94.546 106.37 94.546Z" fill="black" stroke="#E7936D" stroke-miterlimit="10"/>
<path opacity="0.1" d="M117.638 37.1686C117.638 37.4766 117.599 37.7833 117.521 38.0814C117.445 38.0467 117.381 37.9897 117.338 37.918C117.295 37.8462 117.275 37.7631 117.281 37.6798C117.297 37.5332 117.395 37.3989 117.374 37.2536C117.343 37.0294 117.07 36.9382 116.926 36.7608C116.749 36.5465 116.787 36.2348 116.802 35.9577C116.817 35.6805 116.747 35.3418 116.485 35.2469C116.407 35.2186 116.321 35.2161 116.246 35.1841C116.04 35.0979 115.977 34.8441 115.839 34.6692C115.564 34.3169 115.017 34.3243 114.6 34.4918C114.418 34.5784 114.232 34.6557 114.042 34.7234C113.947 34.7567 113.846 34.7701 113.745 34.7626C113.645 34.7552 113.547 34.7272 113.458 34.6803C113.376 34.6285 113.31 34.5571 113.226 34.5053C112.946 34.3378 112.579 34.5053 112.336 34.7209C112.093 34.9365 111.899 35.226 111.592 35.3578C111.455 35.4194 111.285 35.4563 111.221 35.5894C111.189 35.6618 111.175 35.7409 111.181 35.8197C111.181 36.2989 111.238 36.7855 111.138 37.2548C111.073 37.5566 110.86 37.8991 110.551 37.8621C110.513 37.8565 110.475 37.847 110.438 37.8338C110.346 37.3404 110.357 36.8332 110.473 36.3446C110.588 35.8559 110.805 35.3966 111.109 34.9959C111.413 34.5953 111.798 34.2621 112.239 34.0176C112.681 33.7731 113.168 33.6228 113.671 33.5762C114.174 33.5295 114.681 33.5877 115.16 33.7468C115.639 33.906 116.079 34.1627 116.453 34.5005C116.826 34.8384 117.125 35.2499 117.329 35.7089C117.534 36.1679 117.64 36.6642 117.64 37.1661L117.638 37.1686Z" fill="black"/>
<g opacity="0.1">
<path opacity="0.1" d="M111.139 36.8346C111.074 37.1364 110.86 37.4788 110.551 37.4419C110.456 37.4295 110.369 37.3815 110.275 37.3606C110.016 37.3039 109.862 37.5453 109.618 37.4837C109.497 37.4492 109.384 37.3904 109.286 37.311C109.188 37.2315 109.108 37.1331 109.05 37.0218C108.985 36.8964 108.946 36.7595 108.935 36.619C108.91 36.8371 108.95 37.0576 109.05 37.2534C109.108 37.3647 109.188 37.4631 109.286 37.5425C109.384 37.622 109.497 37.6808 109.618 37.7153C109.866 37.772 110.016 37.5306 110.275 37.5921C110.366 37.6235 110.458 37.6503 110.551 37.6722C110.86 37.7104 111.074 37.368 111.139 37.0662C111.19 36.7995 111.21 36.528 111.198 36.2568C111.197 36.4509 111.177 36.6443 111.139 36.8346Z" fill="black"/>
<path opacity="0.1" d="M109.441 34.9784C109.456 34.7765 109.428 34.5736 109.359 34.3834C109.303 34.2569 109.255 34.1269 109.216 33.9941C109.211 34.0148 109.207 34.0358 109.204 34.057C109.183 34.2504 109.292 34.4265 109.359 34.615C109.402 34.732 109.43 34.8542 109.441 34.9784Z" fill="black"/>
<path opacity="0.1" d="M118.911 34.3301C118.853 34.6799 118.568 35.0088 118.539 35.3771C118.532 35.4402 118.532 35.5038 118.539 35.5668C118.601 35.1369 118.984 34.7563 118.911 34.3301Z" fill="black"/>
<path opacity="0.1" d="M118.932 36.9287C118.921 36.9802 118.897 37.0279 118.861 37.0667C118.769 37.164 118.613 37.1714 118.489 37.2194C118.188 37.334 117.993 37.6961 117.666 37.6925C117.582 37.6877 117.502 37.6579 117.436 37.6069C117.369 37.5559 117.32 37.4861 117.294 37.4067C117.287 37.4334 117.281 37.4605 117.277 37.488C117.273 37.5419 117.281 37.596 117.298 37.6471C117.316 37.6982 117.344 37.7454 117.38 37.7858C117.416 37.8262 117.46 37.8591 117.509 37.8827C117.558 37.9062 117.611 37.9198 117.665 37.9228C117.988 37.9228 118.187 37.5643 118.488 37.451C118.612 37.403 118.763 37.3956 118.86 37.2983C118.896 37.2515 118.922 37.1974 118.935 37.1398C118.949 37.0821 118.949 37.0223 118.937 36.9644C118.936 36.9497 118.933 36.9398 118.932 36.9287Z" fill="black"/>
<path opacity="0.1" d="M117.377 36.8265C117.346 36.6023 117.074 36.5111 116.93 36.3337C116.842 36.2172 116.794 36.0755 116.794 35.9297C116.784 36.1588 116.787 36.3929 116.93 36.5653C117.073 36.7378 117.289 36.8117 117.359 36.9891C117.376 36.9368 117.383 36.8814 117.377 36.8265Z" fill="black"/>
<path opacity="0.1" d="M116.801 35.537C116.811 35.2599 116.744 34.9211 116.482 34.8263C116.406 34.7979 116.32 34.7943 116.244 34.7635C116.039 34.6772 115.974 34.4235 115.838 34.2485C115.561 33.8975 115.015 33.9036 114.598 34.0712C114.412 34.1463 114.235 34.2461 114.042 34.3027C113.947 34.3361 113.846 34.3494 113.745 34.342C113.645 34.3346 113.547 34.3065 113.458 34.2596C113.376 34.2079 113.309 34.1364 113.226 34.0847C112.945 33.9172 112.578 34.0847 112.336 34.3003C112.094 34.5159 111.899 34.8041 111.592 34.9371C111.454 34.9987 111.285 35.0357 111.213 35.1687C111.182 35.2412 111.168 35.3203 111.175 35.3991C111.175 35.4471 111.175 35.4952 111.175 35.5432C111.176 35.4936 111.189 35.4449 111.211 35.4003C111.282 35.2673 111.451 35.2303 111.59 35.1687C111.89 35.0357 112.086 34.7524 112.334 34.5319C112.582 34.3114 112.942 34.1488 113.224 34.3163C113.307 34.3656 113.374 34.4395 113.455 34.49C113.544 34.5372 113.642 34.5654 113.743 34.5728C113.843 34.5802 113.944 34.5667 114.039 34.5331C114.229 34.4661 114.414 34.3892 114.596 34.3027C115.011 34.1352 115.558 34.1278 115.835 34.4789C115.972 34.6538 116.036 34.9076 116.242 34.9938C116.318 35.0258 116.403 35.0295 116.48 35.0579C116.692 35.1367 116.776 35.3732 116.795 35.6073L116.801 35.537Z" fill="black"/>
</g>
<g opacity="0.1">
<path opacity="0.1" d="M110.696 36.8272C110.703 36.6227 110.777 36.4261 110.906 36.2668C111.035 36.1075 111.213 35.9942 111.413 35.9439C111.965 35.8097 112.545 35.8357 113.084 36.0191C114.26 36.4059 112.935 37.7979 112.935 37.7979C112.935 37.7979 112.053 38.6601 111.232 38.0578C110.989 37.8755 110.819 37.6136 110.752 37.3187C110.712 37.158 110.693 36.9927 110.696 36.8272Z" fill="black"/>
<path opacity="0.1" d="M117.163 36.827C117.156 36.6224 117.082 36.4256 116.952 36.2663C116.823 36.107 116.645 35.9938 116.445 35.9438C115.893 35.8097 115.313 35.8358 114.775 36.0189C113.599 36.4057 114.924 37.7977 114.924 37.7977C114.924 37.7977 115.804 38.66 116.627 38.0576C116.87 37.8753 117.04 37.6134 117.107 37.3185C117.147 37.1578 117.166 36.9925 117.163 36.827Z" fill="black"/>
<path opacity="0.1" d="M112.862 35.9056V35.9635H115.01V35.8945L112.862 35.9056Z" fill="black"/>
<path opacity="0.1" d="M113.547 36.5228H113.615V36.3269C113.615 36.3269 113.833 36.1582 114.195 36.3269V36.5019H114.319V36.3873H114.259C114.259 36.3873 114.283 36.1496 113.879 36.1877C113.879 36.1877 113.554 36.157 113.562 36.3614H113.488L113.547 36.5228Z" fill="black"/>
</g>
<path opacity="0.1" d="M113.08 101C123.796 101 132.483 100.161 132.483 99.1273C132.483 98.0932 123.796 97.2549 113.08 97.2549C102.364 97.2549 93.677 98.0932 93.677 99.1273C93.677 100.161 102.364 101 113.08 101Z" fill="#E7936D"/>
<path d="M116.958 42.2372V43.7696L113.795 45.35C113.795 45.35 110.654 43.4616 111.429 42.7102C111.924 42.2347 111.829 40.929 111.695 40.0309C111.617 39.5086 111.527 39.1255 111.527 39.1255C111.527 39.1255 117.169 37.5241 116.316 38.74C116.031 39.1465 116.009 39.6725 116.104 40.1935C116.298 41.2271 116.958 42.2372 116.958 42.2372Z" fill="#C37098"/>
<path d="M108.293 57.2225L107.885 62.214C107.885 62.214 107.274 61.6633 106.483 60.9464C105.016 59.6172 102.934 57.7165 102.959 57.666C102.997 57.5884 103.331 53.0601 103.367 51.9219C103.4 51.114 103.578 50.3183 103.89 49.5716C103.964 49.4237 104.173 48.4826 104.262 48.0428C104.291 47.9061 104.31 47.8174 104.31 47.8174L104.994 47.5439C104.994 47.5439 107.845 50.7049 107.845 50.7628C107.845 50.8206 107.65 53.2486 107.65 53.2486L107.448 53.4235L107.36 53.4987C107.36 53.4987 107.224 54.5593 107.127 54.8771C107.031 55.1949 107.135 55.7468 107.146 55.8059C107.137 55.9719 107.113 56.1368 107.075 56.2987C107.059 56.3609 107.037 56.4215 107.01 56.4797C106.975 56.5876 106.982 56.7045 107.029 56.8074C107.085 56.9502 107.156 57.0862 107.243 57.2127L108.293 57.2225Z" fill="#3F3D56"/>
<path d="M125.571 57.6662C125.601 57.7266 122.56 60.4847 121.242 61.6759L120.645 62.2142L120.241 57.2227H121.288C121.288 57.2227 121.638 56.7214 121.521 56.4898C121.44 56.2739 121.394 56.0463 121.386 55.816C121.386 55.816 121.501 55.2001 121.405 54.881C121.308 54.562 121.172 53.5026 121.172 53.5026L121.039 53.3893L120.882 53.2525C120.882 53.2525 120.687 50.8246 120.687 50.7667C120.687 50.7088 123.538 47.5479 123.538 47.5479L124.217 47.8176C124.217 47.8176 124.232 47.8903 124.257 48.0061C124.349 48.4262 124.568 49.4203 124.644 49.5718C124.956 50.3185 125.133 51.1142 125.167 51.9221C125.199 53.0603 125.531 57.5886 125.571 57.6662Z" fill="#3F3D56"/>
<path opacity="0.1" d="M125.583 100.034C125.401 100.394 124.122 100.157 123.858 100.137C123.594 100.118 121.729 99.1851 121.703 98.9671C121.677 98.749 121.032 98.2994 120.851 98.2994C120.67 98.2994 119.791 97.6046 119.713 97.5024C119.693 97.4514 119.684 97.3969 119.687 97.3423C119.659 96.9197 119.713 95.832 119.713 95.832L123.462 96.0377L125.285 98.7613C125.438 99.0552 125.549 99.3691 125.614 99.6938C125.636 99.8078 125.626 99.9257 125.583 100.034Z" fill="black"/>
<path opacity="0.1" d="M107.858 97.7862C107.858 97.7862 107.327 98.4416 106.618 98.4921C106.431 98.4935 106.251 98.5662 106.117 98.6953C105.982 98.8243 105.902 98.9998 105.894 99.1856C105.894 99.1856 106.018 99.5847 104.304 100.138C103.269 100.469 102.618 100.364 102.239 100.138C102.035 100.026 101.881 99.8423 101.809 99.6229C101.692 99.2127 103.98 96.09 103.98 96.09L106.063 95.9668L107.55 96.6345L107.778 97.4807L107.858 97.7862Z" fill="black"/>
<path d="M123.824 94.9197C123.591 95.4593 123.824 96.5642 123.824 96.5642C123.824 96.5642 120.354 96.7441 119.506 96.1787C118.658 95.6132 118.058 92.3747 118.058 92.3747C118.058 92.3747 118.182 88.572 118.058 88.3922C117.934 88.2123 117.463 87.3648 117.618 87.185C117.773 87.0051 117.494 86.0541 117.282 85.6427C117.07 85.2313 117.158 84.0499 117.158 84.0499L116.64 80.9137L115.839 77.1886L115.159 74.6953C115.159 74.6953 114.461 72.6652 114.224 71.8177C113.987 70.9702 113.737 71.7401 113.737 71.7401C113.712 72.563 111.798 76.2635 111.798 76.2635C111.798 76.2635 111.513 78.4993 111.203 79.295C110.893 80.0908 110.556 82.8674 110.556 82.8674C110.556 82.8674 110.06 88.5203 109.651 89.4713C109.242 90.4223 108.961 91.8352 108.961 91.8352C108.961 91.8352 109.065 93.7889 108.806 93.9429C108.547 94.0968 108.589 95.2794 108.589 95.2794C108.589 95.2794 108.744 96.409 108.149 96.5901C107.554 96.7712 107.653 97.1555 107.653 97.1555C107.653 97.1555 104.343 97.6951 103.801 96.255C103.258 94.815 104.008 94.4319 104.048 94.3284C104.089 94.225 104.502 94.0463 104.14 93.6337C103.778 93.221 104.605 92.0926 104.605 92.0926C104.605 92.0926 104.735 90.4999 104.967 90.4481C105.199 90.3964 105.123 88.0842 105.123 88.0842L105.381 85.6686C105.381 85.6686 105.718 80.2719 105.64 80.0662C105.562 79.8604 105.614 78.8343 105.873 78.3416C106.132 77.8488 106.338 73.3551 106.338 73.3551C106.338 73.3551 106.286 71.1464 106.493 70.735C106.617 70.5021 106.669 69.6066 106.699 68.8761C106.721 68.3181 106.726 67.8561 106.726 67.8561L109.621 66.777L113.34 65.5957L116.469 67.0862L121.046 67.9596L121.104 68.7443L121.977 80.7314L122.473 85.2535C122.473 85.2535 122.68 87.3858 122.706 87.7713C122.732 88.1569 122.99 90.676 122.99 90.676C122.99 90.676 123.533 91.8832 123.197 92.2947C122.861 92.7061 122.99 93.0338 122.99 93.0338C122.99 93.0338 124.057 94.3802 123.824 94.9197Z" fill="#3F3D56"/>
<path d="M117.638 37.1679C117.638 37.8818 117.425 38.5796 117.025 39.1732C116.626 39.7667 116.059 40.2293 115.396 40.5025C114.732 40.7757 114.002 40.8471 113.297 40.7079C112.593 40.5686 111.945 40.2249 111.438 39.7201C110.93 39.2153 110.584 38.5722 110.444 37.8721C110.303 37.1719 110.375 36.4462 110.65 35.7867C110.925 35.1272 111.391 34.5635 111.988 34.1669C112.585 33.7703 113.287 33.5586 114.006 33.5586C114.483 33.5564 114.957 33.6481 115.398 33.8287C115.84 34.0093 116.241 34.2751 116.579 34.6107C116.917 34.9463 117.184 35.3451 117.366 35.784C117.547 36.2229 117.64 36.6933 117.638 37.1679Z" fill="#C37098"/>
<path d="M118.394 43.3199L117.204 64.3783L110.739 63.0294L109.459 54.5876L110.727 43.2559L111.682 43.3766L113.365 43.5897L115.032 43.6919L116.839 43.4924L118.394 43.3199Z" fill="#E7936D"/>
<path opacity="0.1" d="M113.08 43.8857L115.407 43.9633L114.753 44.8737C114.753 44.8737 114.799 46.7128 115.11 47.24C115.421 47.7673 115.329 55.9122 115.329 55.9122L114.71 57.0812L113.65 55.7705L113.663 45.0166L113.08 43.8857Z" fill="black"/>
<path d="M116.725 41.3418L114.554 43.7316L115.794 45.0164L117.851 43.0245L116.725 41.3418Z" fill="#E7936D"/>
<path d="M113.713 43.6147L111.515 41.4307L111.308 42.5738L112.317 45.0794L113.713 43.6147Z" fill="#E7936D"/>
<path d="M111.799 41.5084C111.799 41.5084 111.413 40.943 110.882 42.0344C110.882 42.0344 109.499 42.8314 109.023 42.9214C108.547 43.0113 106.853 43.6026 106.853 43.6026C106.598 43.7863 106.29 43.885 105.975 43.8847C105.444 43.8847 105.004 45.0414 105.069 45.6708C105.133 46.3003 105.03 46.7635 104.539 46.7893C104.048 46.8152 104.319 47.829 104.319 47.829L107.59 51.5553C107.59 51.5553 107.797 54.986 107.694 55.0895C107.591 55.193 107.215 56.1982 107.306 56.2327C107.396 56.2671 106.81 60.0612 106.81 60.0612L106.022 67.424C106.022 67.424 106.022 68.6558 107.626 69.0808C109.23 69.5058 113.175 69.2249 113.429 68.1064L114.244 67.0519C114.244 67.0519 115.639 69.7509 117.773 69.4811C119.906 69.2114 121.265 68.4402 121.265 68.4402L121.032 59.6165L120.877 53.2565L124.207 47.8179C124.207 47.8179 123.315 46.1217 123.393 45.3542C123.471 44.5868 123.625 44.0054 121.724 43.7356C121.724 43.7356 120.122 43.4979 119.177 42.8487C118.616 42.4614 118.002 42.1545 117.355 41.9371C117.355 41.9371 116.822 40.9516 116.451 41.2892C116.451 41.2892 116.823 42.6824 116.792 42.8906C116.761 43.0987 116.851 44.0399 116.909 44.1372C116.967 44.2345 117.743 48.7689 116.953 50.3876C116.953 50.3876 115.794 54.752 114.97 55.5785C114.146 56.4051 112.334 50.6709 112.334 50.6709C112.334 50.6709 111.377 45.5563 111.532 44.8369C111.687 44.1175 111.799 41.5084 111.799 41.5084Z" fill="#3F3D56"/>
<path d="M110.276 37.6282C110.369 37.6491 110.457 37.6972 110.552 37.7095C110.861 37.7464 111.074 37.404 111.139 37.1022C111.239 36.6329 111.187 36.1463 111.183 35.6671C111.176 35.5883 111.19 35.5091 111.222 35.4367C111.292 35.3037 111.462 35.2667 111.594 35.2052C111.893 35.0721 112.089 34.7888 112.337 34.5683C112.585 34.3478 112.946 34.1852 113.226 34.3527C113.309 34.402 113.376 34.4759 113.458 34.5276C113.547 34.5739 113.645 34.6015 113.746 34.609C113.846 34.6164 113.948 34.6034 114.043 34.5708C114.235 34.5141 114.415 34.4143 114.599 34.3392C115.013 34.1716 115.561 34.1655 115.839 34.5153C115.977 34.6915 116.04 34.944 116.246 35.0302C116.321 35.0623 116.407 35.066 116.485 35.0943C116.746 35.1916 116.813 35.5279 116.802 35.8051C116.791 36.0822 116.754 36.3939 116.926 36.6082C117.07 36.7831 117.343 36.8743 117.374 37.101C117.393 37.2463 117.297 37.3818 117.281 37.5272C117.277 37.5812 117.284 37.6354 117.302 37.6867C117.319 37.7379 117.347 37.7852 117.383 37.8258C117.419 37.8664 117.463 37.8994 117.512 37.923C117.561 37.9466 117.614 37.9603 117.669 37.9633C117.991 37.9633 118.19 37.6048 118.492 37.4902C118.616 37.4422 118.766 37.4348 118.864 37.3375C118.9 37.2907 118.926 37.2366 118.939 37.179C118.952 37.1213 118.953 37.0615 118.94 37.0036C118.88 36.5318 118.499 36.1216 118.54 35.6486C118.578 35.1953 119.001 34.7999 118.912 34.354C118.866 34.1895 118.781 34.0386 118.664 33.9142C118.531 33.7352 118.358 33.5897 118.158 33.4892C117.986 33.4153 117.786 33.398 117.629 33.3081C117.16 33.0531 117.162 32.3879 116.885 31.9346C116.767 31.7473 116.598 31.596 116.399 31.4973C116.2 31.3987 115.977 31.3565 115.755 31.3754C115.406 31.4098 115.09 31.5934 114.746 31.655C114.273 31.7387 113.795 31.5848 113.347 31.4086C112.9 31.2325 112.448 31.0391 111.968 31.0391C111.488 31.0391 110.969 31.2854 110.823 31.7363C110.746 31.9827 110.784 32.2463 110.725 32.4939C110.62 32.9336 110.229 33.2465 109.835 33.4646C109.563 33.6148 109.237 33.7873 109.205 34.094C109.184 34.2887 109.292 34.4636 109.36 34.6521C109.476 34.9709 109.473 35.3205 109.352 35.6375C109.262 35.8704 109.111 36.0748 109.019 36.3064C108.954 36.4636 108.923 36.6327 108.929 36.8026C108.934 36.9725 108.976 37.1393 109.051 37.2919C109.109 37.4032 109.189 37.5016 109.286 37.581C109.384 37.6604 109.497 37.7193 109.618 37.7538C109.862 37.8117 110.016 37.5715 110.276 37.6282Z" fill="#3F3D56"/>
<path d="M110.696 36.7474C110.703 36.543 110.777 36.3463 110.906 36.187C111.035 36.0278 111.213 35.9145 111.413 35.8642C111.965 35.7308 112.545 35.7569 113.084 35.9393C114.26 36.3274 112.935 37.7181 112.935 37.7181C112.935 37.7181 112.053 38.5804 111.232 37.978C110.988 37.7961 110.818 37.5341 110.752 37.2389C110.712 37.0782 110.693 36.913 110.696 36.7474Z" fill="#E7936D"/>
<path d="M117.163 36.7474C117.156 36.5428 117.082 36.346 116.952 36.1868C116.823 36.0275 116.645 35.9143 116.445 35.8642C115.893 35.7308 115.313 35.7569 114.775 35.9393C113.599 36.3274 114.924 37.7181 114.924 37.7181C114.924 37.7181 115.804 38.5804 116.627 37.978C116.871 37.7962 117.041 37.5341 117.107 37.2389C117.147 37.0783 117.166 36.913 117.163 36.7474Z" fill="#E7936D"/>
<path d="M112.862 35.8285V35.8876H115.01V35.8174L112.862 35.8285Z" fill="#E7936D"/>
<path d="M113.547 36.4444H113.615V36.2486C113.615 36.2486 113.833 36.0811 114.195 36.2486V36.4247H114.319V36.3089H114.259C114.259 36.3089 114.283 36.0724 113.879 36.1094C113.879 36.1094 113.554 36.0798 113.562 36.2831H113.488L113.547 36.4444Z" fill="#E7936D"/>
</g>
<defs>
<linearGradient id="paint0_linear" x1="73.2951" y1="79.5862" x2="73.2951" y2="13.2725" gradientUnits="userSpaceOnUse">
<stop stop-color="#808080" stop-opacity="0.25"/>
<stop offset="0.54" stop-color="#808080" stop-opacity="0.12"/>
<stop offset="1" stop-color="#808080" stop-opacity="0.1"/>
</linearGradient>
<linearGradient id="paint1_linear" x1="22812" y1="59551.3" x2="22812" y2="20177.3" gradientUnits="userSpaceOnUse">
<stop stop-color="#808080" stop-opacity="0.25"/>
<stop offset="0.54" stop-color="#808080" stop-opacity="0.12"/>
<stop offset="1" stop-color="#808080" stop-opacity="0.1"/>
</linearGradient>
<clipPath id="clip0">
<rect width="142" height="101" fill="white"/>
</clipPath>
</defs>
</svg>
