<svg width="54" height="54" viewBox="0 0 54 54" fill="none" xmlns="http://www.w3.org/2000/svg">
<path d="M0 27C0 41.9117 3 54 27 54C41.9117 54 54 41.9117 54 27C54 12.0883 54 0 27 0C12.0883 0 0 12.0883 0 27Z" fill="#E7936D"/>
<path d="M21.2112 37.167V34.3691L28.1252 26.9424C29.1702 25.7607 29.8928 24.7939 30.2932 24.042C30.6936 23.29 30.8938 22.5527 30.8938 21.8301C30.8938 21 30.6545 20.2969 30.176 19.7207C29.6975 19.1445 29.0042 18.8564 28.0959 18.8564C27.1096 18.8564 26.3625 19.1787 25.8547 19.8232C25.3469 20.458 25.093 21.3369 25.093 22.46H20.9329L20.9036 22.3721C20.8743 21.0928 21.1477 19.9355 21.7239 18.9004C22.3098 17.8652 23.1497 17.0449 24.2434 16.4395C25.3372 15.834 26.636 15.5312 28.1399 15.5312C29.595 15.5312 30.8499 15.7949 31.9045 16.3223C32.9592 16.8496 33.7698 17.582 34.3362 18.5195C34.9026 19.4473 35.1858 20.5264 35.1858 21.7568C35.1858 22.5967 35.0344 23.3926 34.7317 24.1445C34.429 24.8965 33.9553 25.6875 33.3108 26.5176C32.6663 27.3477 31.8362 28.2998 30.8206 29.374L26.675 33.8271L26.7043 33.9004H32.2268L32.4465 31.8643H35.7571V37.167H21.2112Z" fill="#FFFAF8"/>
</svg>
