<svg width="409" height="118" viewBox="0 0 409 118" fill="none" xmlns="http://www.w3.org/2000/svg">
<g filter="url(#filter0_d)">
<rect x="2" y="6" width="389" height="97.9999" rx="49" fill="#E7936D"/>
<path d="M34.567 45.9745C37.8705 39.9705 44.147 36.25 51 36.25C55.6425 36.25 60.0885 37.969 63.5495 41.0965L58.988 45.658C56.791 43.781 53.9635 42.75 51 42.75C46.1535 42.75 41.802 45.5775 39.8245 49.9805L34.567 45.9745Z" fill="#F78F8F"/>
<path d="M51 36.5C55.493 36.5 59.8 38.1325 63.1855 41.107L58.973 45.3195C56.757 43.498 53.9445 42.5 51 42.5C46.16 42.5 41.804 45.263 39.7285 49.5935L34.8905 45.9075C38.177 40.0935 44.31 36.5 51 36.5ZM51 36C43.746 36 37.446 40.0675 34.245 46.044L39.927 50.373C41.7385 46.043 46.013 43 51 43C54.059 43 56.8805 44.1155 59 46L63.911 41.089C60.5205 37.9405 55.992 36 51 36Z" fill="#C74343"/>
<path d="M39.5175 50.0612C41.3705 45.7607 45.5665 42.7072 50.5 42.5127V36.5127C43.6205 36.6957 37.6775 40.6322 34.6455 46.3492L39.5175 50.0612Z" fill="#F78F8F"/>
<path d="M34.104 63.0909C32.8735 60.5324 32.25 57.8119 32.25 54.9999C32.25 54.7309 32.256 54.4634 32.267 54.1979C32.3825 51.4629 33.076 48.8484 34.329 46.4219L39.6235 50.4559C39.0435 51.9034 38.75 53.4309 38.75 54.9999C38.75 56.4509 39.0105 57.8844 39.525 59.2644L34.104 63.0909Z" fill="#FFEEA3"/>
<path d="M34.416 46.8024L39.3215 50.5399C38.776 51.9649 38.5 53.4634 38.5 54.9999C38.5 56.4174 38.7435 57.8184 39.225 59.1704L34.2035 62.7149C33.0725 60.2689 32.5 57.6764 32.5 54.9999C32.5 54.7369 32.5055 54.4704 32.5165 54.2084C32.6265 51.6099 33.265 49.1214 34.416 46.8024ZM34.245 46.0439C32.9355 48.4884 32.1415 51.2509 32.017 54.1874C32.006 54.4569 32 54.7274 32 54.9999C32 58.0454 32.735 60.9129 34.009 63.4644L39.828 59.3569C39.3 58.0049 39 56.5389 39 54.9999C39 53.3594 39.331 51.7969 39.927 50.3729L34.245 46.0439Z" fill="#BA9B48"/>
<path d="M39.4006 59.6581C38.8216 58.2181 38.5001 56.6466 38.5001 54.9996C38.5001 53.2446 38.8646 51.5756 39.5176 50.0606L34.6456 46.3486C33.2766 48.9296 32.5001 51.8736 32.5001 54.9996C32.5001 57.9381 33.1881 60.7151 34.4076 63.1826L39.4006 59.6581Z" fill="#FFEEA3"/>
<path d="M51 73.7497C43.93 73.7497 37.562 69.8447 34.329 63.5442L39.715 59.7422C41.633 64.3137 46.0285 67.2497 51 67.2497C53.726 67.2497 56.297 66.3737 58.449 64.7142L63.4445 68.9957C59.9985 72.0637 55.5905 73.7497 51 73.7497Z" fill="#BAE0BD"/>
<path d="M39.6074 60.1244C41.6254 64.6259 46.0304 67.4999 50.9999 67.4999C53.7134 67.4999 56.2769 66.6489 58.4394 65.0354L63.0629 68.9984C59.6954 71.9054 55.4339 73.4999 50.9999 73.4999C44.0964 73.4999 37.8714 69.7264 34.6514 63.6229L39.6074 60.1244ZM39.8279 59.3564L34.0079 63.4649C37.1229 69.7044 43.5519 73.9999 50.9999 73.9999C55.9489 73.9999 60.4419 72.0919 63.8229 68.9909L58.4559 64.3909C56.4109 66.0224 53.8219 66.9999 50.9999 66.9999C45.9114 66.9999 41.5729 63.8274 39.8279 59.3564Z" fill="#5E9C76"/>
<path d="M58.8481 64.7272C56.7026 66.4607 53.9731 67.5007 51.0001 67.5007C45.7436 67.5007 41.2481 64.2547 39.4006 59.6592L34.4076 63.1837C37.4276 69.2957 43.7216 73.5007 51.0001 73.5007C55.7981 73.5007 60.1696 71.6737 63.4566 68.6777L58.8481 64.7272Z" fill="#BAE0BD"/>
<path d="M63.248 55L63.245 57.5C62.6555 60.399 61.0665 62.935 58.8485 64.7265L63.4575 68.677C67.1695 65.2935 69.5 60.419 69.5 55H63.248Z" fill="#8BB7F0"/>
<path d="M58.8456 64.3955C60.4491 63.05 61.6866 61.3075 62.4336 59.3385C62.6156 58.86 62.7471 58.4545 62.8486 58.0625L62.9291 57.75H51.2501V51.25H69.3671C69.6211 52.4995 69.7501 53.76 69.7501 55C69.7501 60.1485 67.5906 65.113 63.8166 68.6565L58.8456 64.3955Z" fill="#8BB7F0"/>
<path d="M69.1615 51.5C69.3865 52.667 69.5 53.842 69.5 55C69.5 60.0055 67.4305 64.8345 63.808 68.3195L59.2295 64.395C60.7575 63.05 61.94 61.344 62.668 59.427C62.8535 58.9385 62.988 58.5245 63.091 58.1245L63.252 57.5H62.6065H51.5V51.5H69.1615ZM69.57 51H51V58H62.6065C62.496 58.4275 62.355 58.842 62.2 59.25C61.4275 61.2845 60.127 63.058 58.456 64.391L63.823 68.991C67.6105 65.518 70 60.544 70 55C70 53.627 69.847 52.2905 69.57 51Z" fill="#4E7AB5"/>
<path d="M92.26 62.24C91.1533 62.24 90.08 62.0933 89.04 61.8C88.0133 61.4933 87.1867 61.1 86.56 60.62L87.66 58.18C88.26 58.62 88.9733 58.9733 89.8 59.24C90.6267 59.5067 91.4533 59.64 92.28 59.64C93.2 59.64 93.88 59.5067 94.32 59.24C94.76 58.96 94.98 58.5933 94.98 58.14C94.98 57.8067 94.8467 57.5333 94.58 57.32C94.3267 57.0933 93.9933 56.9133 93.58 56.78C93.18 56.6467 92.6333 56.5 91.94 56.34C90.8733 56.0867 90 55.8333 89.32 55.58C88.64 55.3267 88.0533 54.92 87.56 54.36C87.08 53.8 86.84 53.0533 86.84 52.12C86.84 51.3067 87.06 50.5733 87.5 49.92C87.94 49.2533 88.6 48.7267 89.48 48.34C90.3733 47.9533 91.46 47.76 92.74 47.76C93.6333 47.76 94.5067 47.8667 95.36 48.08C96.2133 48.2933 96.96 48.6 97.6 49L96.6 51.46C95.3067 50.7267 94.0133 50.36 92.72 50.36C91.8133 50.36 91.14 50.5067 90.7 50.8C90.2733 51.0933 90.06 51.48 90.06 51.96C90.06 52.44 90.3067 52.8 90.8 53.04C91.3067 53.2667 92.0733 53.4933 93.1 53.72C94.1667 53.9733 95.04 54.2267 95.72 54.48C96.4 54.7333 96.98 55.1333 97.46 55.68C97.9533 56.2267 98.2 56.9667 98.2 57.9C98.2 58.7 97.9733 59.4333 97.52 60.1C97.08 60.7533 96.4133 61.2733 95.52 61.66C94.6267 62.0467 93.54 62.24 92.26 62.24ZM107.134 61.48C106.827 61.7067 106.447 61.88 105.994 62C105.554 62.1067 105.087 62.16 104.594 62.16C103.314 62.16 102.321 61.8333 101.614 61.18C100.921 60.5267 100.574 59.5667 100.574 58.3V53.88H98.9139V51.48H100.574V48.86H103.694V51.48H106.374V53.88H103.694V58.26C103.694 58.7133 103.807 59.0667 104.034 59.32C104.274 59.56 104.607 59.68 105.034 59.68C105.527 59.68 105.947 59.5467 106.294 59.28L107.134 61.48ZM113.225 51.08C114.892 51.08 116.172 51.48 117.065 52.28C117.959 53.0667 118.405 54.26 118.405 55.86V62H115.485V60.66C114.899 61.66 113.805 62.16 112.205 62.16C111.379 62.16 110.659 62.02 110.045 61.74C109.445 61.46 108.985 61.0733 108.665 60.58C108.345 60.0867 108.185 59.5267 108.185 58.9C108.185 57.9 108.559 57.1133 109.305 56.54C110.065 55.9667 111.232 55.68 112.805 55.68H115.285C115.285 55 115.079 54.48 114.665 54.12C114.252 53.7467 113.632 53.56 112.805 53.56C112.232 53.56 111.665 53.6533 111.105 53.84C110.559 54.0133 110.092 54.2533 109.705 54.56L108.585 52.38C109.172 51.9667 109.872 51.6467 110.685 51.42C111.512 51.1933 112.359 51.08 113.225 51.08ZM112.985 60.06C113.519 60.06 113.992 59.94 114.405 59.7C114.819 59.4467 115.112 59.08 115.285 58.6V57.5H113.145C111.865 57.5 111.225 57.92 111.225 58.76C111.225 59.16 111.379 59.48 111.685 59.72C112.005 59.9467 112.439 60.06 112.985 60.06ZM124.209 52.66C124.582 52.14 125.082 51.7467 125.709 51.48C126.349 51.2133 127.082 51.08 127.909 51.08V53.96C127.562 53.9333 127.329 53.92 127.209 53.92C126.316 53.92 125.616 54.1733 125.109 54.68C124.602 55.1733 124.349 55.92 124.349 56.92V62H121.229V51.24H124.209V52.66ZM137.075 61.48C136.769 61.7067 136.389 61.88 135.935 62C135.495 62.1067 135.029 62.16 134.535 62.16C133.255 62.16 132.262 61.8333 131.555 61.18C130.862 60.5267 130.515 59.5667 130.515 58.3V53.88H128.855V51.48H130.515V48.86H133.635V51.48H136.315V53.88H133.635V58.26C133.635 58.7133 133.749 59.0667 133.975 59.32C134.215 59.56 134.549 59.68 134.975 59.68C135.469 59.68 135.889 59.5467 136.235 59.28L137.075 61.48ZM161.771 51.24L157.871 62H154.871L152.451 55.32L149.951 62H146.951L143.071 51.24H146.011L148.551 58.52L151.191 51.24H153.831L156.391 58.52L159.011 51.24H161.771ZM163.221 51.24H166.341V62H163.221V51.24ZM164.781 49.74C164.208 49.74 163.741 49.5733 163.381 49.24C163.021 48.9067 162.841 48.4933 162.841 48C162.841 47.5067 163.021 47.0933 163.381 46.76C163.741 46.4267 164.208 46.26 164.781 46.26C165.355 46.26 165.821 46.42 166.181 46.74C166.541 47.06 166.721 47.46 166.721 47.94C166.721 48.46 166.541 48.8933 166.181 49.24C165.821 49.5733 165.355 49.74 164.781 49.74ZM176.177 61.48C175.87 61.7067 175.49 61.88 175.037 62C174.597 62.1067 174.13 62.16 173.637 62.16C172.357 62.16 171.364 61.8333 170.657 61.18C169.964 60.5267 169.617 59.5667 169.617 58.3V53.88H167.957V51.48H169.617V48.86H172.737V51.48H175.417V53.88H172.737V58.26C172.737 58.7133 172.85 59.0667 173.077 59.32C173.317 59.56 173.65 59.68 174.077 59.68C174.57 59.68 174.99 59.5467 175.337 59.28L176.177 61.48ZM184.468 51.08C185.802 51.08 186.875 51.48 187.688 52.28C188.515 53.08 188.928 54.2667 188.928 55.84V62H185.808V56.32C185.808 55.4667 185.622 54.8333 185.248 54.42C184.875 53.9933 184.335 53.78 183.628 53.78C182.842 53.78 182.215 54.0267 181.748 54.52C181.282 55 181.048 55.72 181.048 56.68V62H177.928V47.16H181.048V52.36C181.462 51.9467 181.962 51.6333 182.548 51.42C183.135 51.1933 183.775 51.08 184.468 51.08ZM202.24 62.24C201.134 62.24 200.06 62.0933 199.02 61.8C197.994 61.4933 197.167 61.1 196.54 60.62L197.64 58.18C198.24 58.62 198.954 58.9733 199.78 59.24C200.607 59.5067 201.434 59.64 202.26 59.64C203.18 59.64 203.86 59.5067 204.3 59.24C204.74 58.96 204.96 58.5933 204.96 58.14C204.96 57.8067 204.827 57.5333 204.56 57.32C204.307 57.0933 203.974 56.9133 203.56 56.78C203.16 56.6467 202.614 56.5 201.92 56.34C200.854 56.0867 199.98 55.8333 199.3 55.58C198.62 55.3267 198.034 54.92 197.54 54.36C197.06 53.8 196.82 53.0533 196.82 52.12C196.82 51.3067 197.04 50.5733 197.48 49.92C197.92 49.2533 198.58 48.7267 199.46 48.34C200.354 47.9533 201.44 47.76 202.72 47.76C203.614 47.76 204.487 47.8667 205.34 48.08C206.194 48.2933 206.94 48.6 207.58 49L206.58 51.46C205.287 50.7267 203.994 50.36 202.7 50.36C201.794 50.36 201.12 50.5067 200.68 50.8C200.254 51.0933 200.04 51.48 200.04 51.96C200.04 52.44 200.287 52.8 200.78 53.04C201.287 53.2667 202.054 53.4933 203.08 53.72C204.147 53.9733 205.02 54.2267 205.7 54.48C206.38 54.7333 206.96 55.1333 207.44 55.68C207.934 56.2267 208.18 56.9667 208.18 57.9C208.18 58.7 207.954 59.4333 207.5 60.1C207.06 60.7533 206.394 61.2733 205.5 61.66C204.607 62.0467 203.52 62.24 202.24 62.24ZM215.374 62.16C214.228 62.16 213.194 61.9267 212.274 61.46C211.368 60.98 210.654 60.32 210.134 59.48C209.628 58.64 209.374 57.6867 209.374 56.62C209.374 55.5533 209.628 54.6 210.134 53.76C210.654 52.92 211.368 52.2667 212.274 51.8C213.194 51.32 214.228 51.08 215.374 51.08C216.508 51.08 217.494 51.32 218.334 51.8C219.188 52.2667 219.808 52.94 220.194 53.82L217.774 55.12C217.214 54.1333 216.408 53.64 215.354 53.64C214.541 53.64 213.868 53.9067 213.334 54.44C212.801 54.9733 212.534 55.7 212.534 56.62C212.534 57.54 212.801 58.2667 213.334 58.8C213.868 59.3333 214.541 59.6 215.354 59.6C216.421 59.6 217.228 59.1067 217.774 58.12L220.194 59.44C219.808 60.2933 219.188 60.96 218.334 61.44C217.494 61.92 216.508 62.16 215.374 62.16ZM228.453 51.08C229.786 51.08 230.859 51.48 231.673 52.28C232.499 53.08 232.913 54.2667 232.913 55.84V62H229.793V56.32C229.793 55.4667 229.606 54.8333 229.233 54.42C228.859 53.9933 228.319 53.78 227.613 53.78C226.826 53.78 226.199 54.0267 225.733 54.52C225.266 55 225.033 55.72 225.033 56.68V62H221.913V47.16H225.033V52.36C225.446 51.9467 225.946 51.6333 226.533 51.42C227.119 51.1933 227.759 51.08 228.453 51.08ZM240.978 62.16C239.845 62.16 238.825 61.9267 237.918 61.46C237.025 60.98 236.325 60.32 235.818 59.48C235.311 58.64 235.058 57.6867 235.058 56.62C235.058 55.5533 235.311 54.6 235.818 53.76C236.325 52.92 237.025 52.2667 237.918 51.8C238.825 51.32 239.845 51.08 240.978 51.08C242.111 51.08 243.125 51.32 244.018 51.8C244.911 52.2667 245.611 52.92 246.118 53.76C246.625 54.6 246.878 55.5533 246.878 56.62C246.878 57.6867 246.625 58.64 246.118 59.48C245.611 60.32 244.911 60.98 244.018 61.46C243.125 61.9267 242.111 62.16 240.978 62.16ZM240.978 59.6C241.778 59.6 242.431 59.3333 242.938 58.8C243.458 58.2533 243.718 57.5267 243.718 56.62C243.718 55.7133 243.458 54.9933 242.938 54.46C242.431 53.9133 241.778 53.64 240.978 53.64C240.178 53.64 239.518 53.9133 238.998 54.46C238.478 54.9933 238.218 55.7133 238.218 56.62C238.218 57.5267 238.478 58.2533 238.998 58.8C239.518 59.3333 240.178 59.6 240.978 59.6ZM254.083 62.16C252.95 62.16 251.93 61.9267 251.023 61.46C250.13 60.98 249.43 60.32 248.923 59.48C248.417 58.64 248.163 57.6867 248.163 56.62C248.163 55.5533 248.417 54.6 248.923 53.76C249.43 52.92 250.13 52.2667 251.023 51.8C251.93 51.32 252.95 51.08 254.083 51.08C255.217 51.08 256.23 51.32 257.123 51.8C258.017 52.2667 258.717 52.92 259.223 53.76C259.73 54.6 259.983 55.5533 259.983 56.62C259.983 57.6867 259.73 58.64 259.223 59.48C258.717 60.32 258.017 60.98 257.123 61.46C256.23 61.9267 255.217 62.16 254.083 62.16ZM254.083 59.6C254.883 59.6 255.537 59.3333 256.043 58.8C256.563 58.2533 256.823 57.5267 256.823 56.62C256.823 55.7133 256.563 54.9933 256.043 54.46C255.537 53.9133 254.883 53.64 254.083 53.64C253.283 53.64 252.623 53.9133 252.103 54.46C251.583 54.9933 251.323 55.7133 251.323 56.62C251.323 57.5267 251.583 58.2533 252.103 58.8C252.623 59.3333 253.283 59.6 254.083 59.6ZM262.069 47.16H265.189V62H262.069V47.16ZM283.189 59H276.689L275.449 62H272.129L278.369 48H281.569L287.829 62H284.429L283.189 59ZM282.169 56.54L279.949 51.18L277.729 56.54H282.169ZM294.163 62.16C293.017 62.16 291.983 61.9267 291.063 61.46C290.157 60.98 289.443 60.32 288.923 59.48C288.417 58.64 288.163 57.6867 288.163 56.62C288.163 55.5533 288.417 54.6 288.923 53.76C289.443 52.92 290.157 52.2667 291.063 51.8C291.983 51.32 293.017 51.08 294.163 51.08C295.297 51.08 296.283 51.32 297.123 51.8C297.977 52.2667 298.597 52.94 298.983 53.82L296.563 55.12C296.003 54.1333 295.197 53.64 294.143 53.64C293.33 53.64 292.657 53.9067 292.123 54.44C291.59 54.9733 291.323 55.7 291.323 56.62C291.323 57.54 291.59 58.2667 292.123 58.8C292.657 59.3333 293.33 59.6 294.143 59.6C295.21 59.6 296.017 59.1067 296.563 58.12L298.983 59.44C298.597 60.2933 297.977 60.96 297.123 61.44C296.283 61.92 295.297 62.16 294.163 62.16ZM305.843 62.16C304.696 62.16 303.663 61.9267 302.743 61.46C301.836 60.98 301.123 60.32 300.603 59.48C300.096 58.64 299.843 57.6867 299.843 56.62C299.843 55.5533 300.096 54.6 300.603 53.76C301.123 52.92 301.836 52.2667 302.743 51.8C303.663 51.32 304.696 51.08 305.843 51.08C306.976 51.08 307.963 51.32 308.803 51.8C309.656 52.2667 310.276 52.94 310.663 53.82L308.243 55.12C307.683 54.1333 306.876 53.64 305.823 53.64C305.01 53.64 304.336 53.9067 303.803 54.44C303.27 54.9733 303.003 55.7 303.003 56.62C303.003 57.54 303.27 58.2667 303.803 58.8C304.336 59.3333 305.01 59.6 305.823 59.6C306.89 59.6 307.696 59.1067 308.243 58.12L310.663 59.44C310.276 60.2933 309.656 60.96 308.803 61.44C307.963 61.92 306.976 62.16 305.843 62.16ZM317.443 62.16C316.309 62.16 315.289 61.9267 314.383 61.46C313.489 60.98 312.789 60.32 312.283 59.48C311.776 58.64 311.523 57.6867 311.523 56.62C311.523 55.5533 311.776 54.6 312.283 53.76C312.789 52.92 313.489 52.2667 314.383 51.8C315.289 51.32 316.309 51.08 317.443 51.08C318.576 51.08 319.589 51.32 320.483 51.8C321.376 52.2667 322.076 52.92 322.583 53.76C323.089 54.6 323.343 55.5533 323.343 56.62C323.343 57.6867 323.089 58.64 322.583 59.48C322.076 60.32 321.376 60.98 320.483 61.46C319.589 61.9267 318.576 62.16 317.443 62.16ZM317.443 59.6C318.243 59.6 318.896 59.3333 319.403 58.8C319.923 58.2533 320.183 57.5267 320.183 56.62C320.183 55.7133 319.923 54.9933 319.403 54.46C318.896 53.9133 318.243 53.64 317.443 53.64C316.643 53.64 315.983 53.9133 315.463 54.46C314.943 54.9933 314.683 55.7133 314.683 56.62C314.683 57.5267 314.943 58.2533 315.463 58.8C315.983 59.3333 316.643 59.6 317.443 59.6ZM336.268 51.24V62H333.308V60.72C332.895 61.1867 332.402 61.5467 331.828 61.8C331.255 62.04 330.635 62.16 329.968 62.16C328.555 62.16 327.435 61.7533 326.608 60.94C325.782 60.1267 325.368 58.92 325.368 57.32V51.24H328.488V56.86C328.488 58.5933 329.215 59.46 330.668 59.46C331.415 59.46 332.015 59.22 332.468 58.74C332.922 58.2467 333.148 57.52 333.148 56.56V51.24H336.268ZM345.699 51.08C347.032 51.08 348.105 51.48 348.919 52.28C349.745 53.08 350.159 54.2667 350.159 55.84V62H347.039V56.32C347.039 55.4667 346.852 54.8333 346.479 54.42C346.105 53.9933 345.565 53.78 344.859 53.78C344.072 53.78 343.445 54.0267 342.979 54.52C342.512 55 342.279 55.72 342.279 56.68V62H339.159V51.24H342.139V52.5C342.552 52.0467 343.065 51.7 343.679 51.46C344.292 51.2067 344.965 51.08 345.699 51.08ZM359.927 61.48C359.62 61.7067 359.24 61.88 358.787 62C358.347 62.1067 357.88 62.16 357.387 62.16C356.107 62.16 355.114 61.8333 354.407 61.18C353.714 60.5267 353.367 59.5667 353.367 58.3V53.88H351.707V51.48H353.367V48.86H356.487V51.48H359.167V53.88H356.487V58.26C356.487 58.7133 356.6 59.0667 356.827 59.32C357.067 59.56 357.4 59.68 357.827 59.68C358.32 59.68 358.74 59.5467 359.087 59.28L359.927 61.48Z" fill="white"/>
</g>
<defs>
<filter id="filter0_d" x="0" y="0" width="409" height="118" filterUnits="userSpaceOnUse" color-interpolation-filters="sRGB">
<feFlood flood-opacity="0" result="BackgroundImageFix"/>
<feColorMatrix in="SourceAlpha" type="matrix" values="0 0 0 0 0 0 0 0 0 0 0 0 0 0 0 0 0 0 127 0"/>
<feOffset dx="8" dy="4"/>
<feGaussianBlur stdDeviation="5"/>
<feColorMatrix type="matrix" values="0 0 0 0 0.643137 0 0 0 0 0.380392 0 0 0 0 0.243137 0 0 0 0.1 0"/>
<feBlend mode="normal" in2="BackgroundImageFix" result="effect1_dropShadow"/>
<feBlend mode="normal" in="SourceGraphic" in2="effect1_dropShadow" result="shape"/>
</filter>
</defs>
</svg>
