<svg width="415" height="104" viewBox="0 0 415 104" fill="none" xmlns="http://www.w3.org/2000/svg">
<g filter="url(#filter0_d)">
<rect x="6" y="4" width="399" height="87.9999" rx="44" fill="#E7936D"/>
<rect x="36" y="24" width="48" height="47.9999" rx="24" fill="white"/>
<path d="M43.5671 38.9745C46.8706 32.9705 53.1471 29.25 60.0001 29.25C64.6426 29.25 69.0886 30.969 72.5496 34.0965L67.9881 38.658C65.7911 36.781 62.9636 35.75 60.0001 35.75C55.1536 35.75 50.8021 38.5775 48.8246 42.9805L43.5671 38.9745Z" fill="#EB5757"/>
<path d="M60 29.5C64.493 29.5 68.8 31.1325 72.1855 34.107L67.973 38.3195C65.757 36.498 62.9445 35.5 60 35.5C55.16 35.5 50.804 38.263 48.7285 42.5935L43.8905 38.9075C47.177 33.0935 53.31 29.5 60 29.5ZM60 29C52.746 29 46.446 33.0675 43.245 39.044L48.927 43.373C50.7385 39.043 55.013 36 60 36C63.059 36 65.8805 37.1155 68 39L72.911 34.089C69.5205 30.9405 64.992 29 60 29Z" fill="#C74343"/>
<path d="M48.5176 43.0612C50.3706 38.7607 54.5666 35.7072 59.5001 35.5127V29.5127C52.6206 29.6957 46.6776 33.6322 43.6456 39.3492L48.5176 43.0612Z" fill="#EB5757"/>
<path d="M43.1041 56.0909C41.8736 53.5324 41.2501 50.8119 41.2501 47.9999C41.2501 47.7309 41.2561 47.4634 41.2671 47.1979C41.3826 44.4629 42.0761 41.8484 43.3291 39.4219L48.6236 43.4559C48.0436 44.9034 47.7501 46.4309 47.7501 47.9999C47.7501 49.4509 48.0106 50.8844 48.5251 52.2644L43.1041 56.0909Z" fill="#FFEEA3"/>
<path d="M43.416 39.8024L48.3215 43.5399C47.776 44.9649 47.5 46.4634 47.5 47.9999C47.5 49.4174 47.7435 50.8184 48.225 52.1704L43.2035 55.7149C42.0725 53.2689 41.5 50.6764 41.5 47.9999C41.5 47.7369 41.5055 47.4704 41.5165 47.2084C41.6265 44.6099 42.265 42.1214 43.416 39.8024ZM43.245 39.0439C41.9355 41.4884 41.1415 44.2509 41.017 47.1874C41.006 47.4569 41 47.7274 41 47.9999C41 51.0454 41.735 53.9129 43.009 56.4644L48.828 52.3569C48.3 51.0049 48 49.5389 48 47.9999C48 46.3594 48.331 44.7969 48.927 43.3729L43.245 39.0439Z" fill="#BA9B48"/>
<path d="M48.4006 52.6581C47.8216 51.2181 47.5001 49.6466 47.5001 47.9996C47.5001 46.2446 47.8646 44.5756 48.5176 43.0606L43.6456 39.3486C42.2766 41.9296 41.5001 44.8736 41.5001 47.9996C41.5001 50.9381 42.1881 53.7151 43.4076 56.1826L48.4006 52.6581Z" fill="#F2C94C"/>
<path d="M60 66.7497C52.93 66.7497 46.562 62.8447 43.329 56.5442L48.715 52.7422C50.633 57.3137 55.0285 60.2497 60 60.2497C62.726 60.2497 65.297 59.3737 67.449 57.7142L72.4445 61.9957C68.9985 65.0637 64.5905 66.7497 60 66.7497Z" fill="#BAE0BD"/>
<path d="M48.6075 53.1244C50.6255 57.6259 55.0305 60.4999 60 60.4999C62.7135 60.4999 65.277 59.6489 67.4395 58.0354L72.063 61.9984C68.6955 64.9054 64.434 66.4999 60 66.4999C53.0965 66.4999 46.8715 62.7264 43.6515 56.6229L48.6075 53.1244ZM48.828 52.3564L43.008 56.4649C46.123 62.7044 52.552 66.9999 60 66.9999C64.949 66.9999 69.442 65.0919 72.823 61.9909L67.456 57.3909C65.411 59.0224 62.822 59.9999 60 59.9999C54.9115 59.9999 50.573 56.8274 48.828 52.3564Z" fill="#5E9C76"/>
<path d="M67.8481 57.7272C65.7026 59.4607 62.9731 60.5007 60.0001 60.5007C54.7436 60.5007 50.2481 57.2547 48.4006 52.6592L43.4076 56.1837C46.4276 62.2957 52.7216 66.5007 60.0001 66.5007C64.7981 66.5007 69.1696 64.6737 72.4566 61.6777L67.8481 57.7272Z" fill="#27AE60"/>
<path d="M72.2481 48L72.2451 50.5C71.6556 53.399 70.0666 55.935 67.8486 57.7265L72.4576 61.677C76.1696 58.2935 78.5001 53.419 78.5001 48H72.2481Z" fill="#8BB7F0"/>
<path d="M67.8456 57.3955C69.4491 56.05 70.6866 54.3075 71.4336 52.3385C71.6156 51.86 71.7471 51.4545 71.8486 51.0625L71.9291 50.75H60.2501V44.25H78.3671C78.6211 45.4995 78.7501 46.76 78.7501 48C78.7501 53.1485 76.5906 58.113 72.8166 61.6565L67.8456 57.3955Z" fill="#2F80ED"/>
<path d="M78.1616 44.5C78.3866 45.667 78.5001 46.842 78.5001 48C78.5001 53.0055 76.4306 57.8345 72.8081 61.3195L68.2296 57.395C69.7576 56.05 70.9401 54.344 71.6681 52.427C71.8536 51.9385 71.9881 51.5245 72.0911 51.1245L72.2521 50.5H71.6066H60.5001V44.5H78.1616ZM78.5701 44H60.0001V51H71.6066C71.4961 51.4275 71.3551 51.842 71.2001 52.25C70.4276 54.2845 69.1271 56.058 67.4561 57.391L72.8231 61.991C76.6106 58.518 79.0001 53.544 79.0001 48C79.0001 46.627 78.8471 45.2905 78.5701 44Z" fill="#4E7AB5"/>
<path d="M106.26 55.24C105.153 55.24 104.08 55.0933 103.04 54.8C102.013 54.4933 101.187 54.1 100.56 53.62L101.66 51.18C102.26 51.62 102.973 51.9733 103.8 52.24C104.627 52.5067 105.453 52.64 106.28 52.64C107.2 52.64 107.88 52.5067 108.32 52.24C108.76 51.96 108.98 51.5933 108.98 51.14C108.98 50.8067 108.847 50.5333 108.58 50.32C108.327 50.0933 107.993 49.9133 107.58 49.78C107.18 49.6467 106.633 49.5 105.94 49.34C104.873 49.0867 104 48.8333 103.32 48.58C102.64 48.3267 102.053 47.92 101.56 47.36C101.08 46.8 100.84 46.0533 100.84 45.12C100.84 44.3067 101.06 43.5733 101.5 42.92C101.94 42.2533 102.6 41.7267 103.48 41.34C104.373 40.9533 105.46 40.76 106.74 40.76C107.633 40.76 108.507 40.8667 109.36 41.08C110.213 41.2933 110.96 41.6 111.6 42L110.6 44.46C109.307 43.7267 108.013 43.36 106.72 43.36C105.813 43.36 105.14 43.5067 104.7 43.8C104.273 44.0933 104.06 44.48 104.06 44.96C104.06 45.44 104.307 45.8 104.8 46.04C105.307 46.2667 106.073 46.4933 107.1 46.72C108.167 46.9733 109.04 47.2267 109.72 47.48C110.4 47.7333 110.98 48.1333 111.46 48.68C111.953 49.2267 112.2 49.9667 112.2 50.9C112.2 51.7 111.973 52.4333 111.52 53.1C111.08 53.7533 110.413 54.2733 109.52 54.66C108.627 55.0467 107.54 55.24 106.26 55.24ZM121.134 54.48C120.827 54.7067 120.447 54.88 119.994 55C119.554 55.1067 119.087 55.16 118.594 55.16C117.314 55.16 116.321 54.8333 115.614 54.18C114.921 53.5267 114.574 52.5667 114.574 51.3V46.88H112.914V44.48H114.574V41.86H117.694V44.48H120.374V46.88H117.694V51.26C117.694 51.7133 117.807 52.0667 118.034 52.32C118.274 52.56 118.607 52.68 119.034 52.68C119.527 52.68 119.947 52.5467 120.294 52.28L121.134 54.48ZM127.225 44.08C128.892 44.08 130.172 44.48 131.065 45.28C131.959 46.0667 132.405 47.26 132.405 48.86V55H129.485V53.66C128.899 54.66 127.805 55.16 126.205 55.16C125.379 55.16 124.659 55.02 124.045 54.74C123.445 54.46 122.985 54.0733 122.665 53.58C122.345 53.0867 122.185 52.5267 122.185 51.9C122.185 50.9 122.559 50.1133 123.305 49.54C124.065 48.9667 125.232 48.68 126.805 48.68H129.285C129.285 48 129.079 47.48 128.665 47.12C128.252 46.7467 127.632 46.56 126.805 46.56C126.232 46.56 125.665 46.6533 125.105 46.84C124.559 47.0133 124.092 47.2533 123.705 47.56L122.585 45.38C123.172 44.9667 123.872 44.6467 124.685 44.42C125.512 44.1933 126.359 44.08 127.225 44.08ZM126.985 53.06C127.519 53.06 127.992 52.94 128.405 52.7C128.819 52.4467 129.112 52.08 129.285 51.6V50.5H127.145C125.865 50.5 125.225 50.92 125.225 51.76C125.225 52.16 125.379 52.48 125.685 52.72C126.005 52.9467 126.439 53.06 126.985 53.06ZM138.209 45.66C138.582 45.14 139.082 44.7467 139.709 44.48C140.349 44.2133 141.082 44.08 141.909 44.08V46.96C141.562 46.9333 141.329 46.92 141.209 46.92C140.316 46.92 139.616 47.1733 139.109 47.68C138.602 48.1733 138.349 48.92 138.349 49.92V55H135.229V44.24H138.209V45.66ZM151.075 54.48C150.769 54.7067 150.389 54.88 149.935 55C149.495 55.1067 149.029 55.16 148.535 55.16C147.255 55.16 146.262 54.8333 145.555 54.18C144.862 53.5267 144.515 52.5667 144.515 51.3V46.88H142.855V44.48H144.515V41.86H147.635V44.48H150.315V46.88H147.635V51.26C147.635 51.7133 147.749 52.0667 147.975 52.32C148.215 52.56 148.549 52.68 148.975 52.68C149.469 52.68 149.889 52.5467 150.235 52.28L151.075 54.48ZM175.771 44.24L171.871 55H168.871L166.451 48.32L163.951 55H160.951L157.071 44.24H160.011L162.551 51.52L165.191 44.24H167.831L170.391 51.52L173.011 44.24H175.771ZM177.221 44.24H180.341V55H177.221V44.24ZM178.781 42.74C178.208 42.74 177.741 42.5733 177.381 42.24C177.021 41.9067 176.841 41.4933 176.841 41C176.841 40.5067 177.021 40.0933 177.381 39.76C177.741 39.4267 178.208 39.26 178.781 39.26C179.355 39.26 179.821 39.42 180.181 39.74C180.541 40.06 180.721 40.46 180.721 40.94C180.721 41.46 180.541 41.8933 180.181 42.24C179.821 42.5733 179.355 42.74 178.781 42.74ZM190.177 54.48C189.87 54.7067 189.49 54.88 189.037 55C188.597 55.1067 188.13 55.16 187.637 55.16C186.357 55.16 185.364 54.8333 184.657 54.18C183.964 53.5267 183.617 52.5667 183.617 51.3V46.88H181.957V44.48H183.617V41.86H186.737V44.48H189.417V46.88H186.737V51.26C186.737 51.7133 186.85 52.0667 187.077 52.32C187.317 52.56 187.65 52.68 188.077 52.68C188.57 52.68 188.99 52.5467 189.337 52.28L190.177 54.48ZM198.468 44.08C199.802 44.08 200.875 44.48 201.688 45.28C202.515 46.08 202.928 47.2667 202.928 48.84V55H199.808V49.32C199.808 48.4667 199.622 47.8333 199.248 47.42C198.875 46.9933 198.335 46.78 197.628 46.78C196.842 46.78 196.215 47.0267 195.748 47.52C195.282 48 195.048 48.72 195.048 49.68V55H191.928V40.16H195.048V45.36C195.462 44.9467 195.962 44.6333 196.548 44.42C197.135 44.1933 197.775 44.08 198.468 44.08ZM216.24 55.24C215.134 55.24 214.06 55.0933 213.02 54.8C211.994 54.4933 211.167 54.1 210.54 53.62L211.64 51.18C212.24 51.62 212.954 51.9733 213.78 52.24C214.607 52.5067 215.434 52.64 216.26 52.64C217.18 52.64 217.86 52.5067 218.3 52.24C218.74 51.96 218.96 51.5933 218.96 51.14C218.96 50.8067 218.827 50.5333 218.56 50.32C218.307 50.0933 217.974 49.9133 217.56 49.78C217.16 49.6467 216.614 49.5 215.92 49.34C214.854 49.0867 213.98 48.8333 213.3 48.58C212.62 48.3267 212.034 47.92 211.54 47.36C211.06 46.8 210.82 46.0533 210.82 45.12C210.82 44.3067 211.04 43.5733 211.48 42.92C211.92 42.2533 212.58 41.7267 213.46 41.34C214.354 40.9533 215.44 40.76 216.72 40.76C217.614 40.76 218.487 40.8667 219.34 41.08C220.194 41.2933 220.94 41.6 221.58 42L220.58 44.46C219.287 43.7267 217.994 43.36 216.7 43.36C215.794 43.36 215.12 43.5067 214.68 43.8C214.254 44.0933 214.04 44.48 214.04 44.96C214.04 45.44 214.287 45.8 214.78 46.04C215.287 46.2667 216.054 46.4933 217.08 46.72C218.147 46.9733 219.02 47.2267 219.7 47.48C220.38 47.7333 220.96 48.1333 221.44 48.68C221.934 49.2267 222.18 49.9667 222.18 50.9C222.18 51.7 221.954 52.4333 221.5 53.1C221.06 53.7533 220.394 54.2733 219.5 54.66C218.607 55.0467 217.52 55.24 216.24 55.24ZM229.374 55.16C228.228 55.16 227.194 54.9267 226.274 54.46C225.368 53.98 224.654 53.32 224.134 52.48C223.628 51.64 223.374 50.6867 223.374 49.62C223.374 48.5533 223.628 47.6 224.134 46.76C224.654 45.92 225.368 45.2667 226.274 44.8C227.194 44.32 228.228 44.08 229.374 44.08C230.508 44.08 231.494 44.32 232.334 44.8C233.188 45.2667 233.808 45.94 234.194 46.82L231.774 48.12C231.214 47.1333 230.408 46.64 229.354 46.64C228.541 46.64 227.868 46.9067 227.334 47.44C226.801 47.9733 226.534 48.7 226.534 49.62C226.534 50.54 226.801 51.2667 227.334 51.8C227.868 52.3333 228.541 52.6 229.354 52.6C230.421 52.6 231.228 52.1067 231.774 51.12L234.194 52.44C233.808 53.2933 233.188 53.96 232.334 54.44C231.494 54.92 230.508 55.16 229.374 55.16ZM242.453 44.08C243.786 44.08 244.859 44.48 245.673 45.28C246.499 46.08 246.913 47.2667 246.913 48.84V55H243.793V49.32C243.793 48.4667 243.606 47.8333 243.233 47.42C242.859 46.9933 242.319 46.78 241.613 46.78C240.826 46.78 240.199 47.0267 239.733 47.52C239.266 48 239.033 48.72 239.033 49.68V55H235.913V40.16H239.033V45.36C239.446 44.9467 239.946 44.6333 240.533 44.42C241.119 44.1933 241.759 44.08 242.453 44.08ZM254.978 55.16C253.845 55.16 252.825 54.9267 251.918 54.46C251.025 53.98 250.325 53.32 249.818 52.48C249.311 51.64 249.058 50.6867 249.058 49.62C249.058 48.5533 249.311 47.6 249.818 46.76C250.325 45.92 251.025 45.2667 251.918 44.8C252.825 44.32 253.845 44.08 254.978 44.08C256.111 44.08 257.125 44.32 258.018 44.8C258.911 45.2667 259.611 45.92 260.118 46.76C260.625 47.6 260.878 48.5533 260.878 49.62C260.878 50.6867 260.625 51.64 260.118 52.48C259.611 53.32 258.911 53.98 258.018 54.46C257.125 54.9267 256.111 55.16 254.978 55.16ZM254.978 52.6C255.778 52.6 256.431 52.3333 256.938 51.8C257.458 51.2533 257.718 50.5267 257.718 49.62C257.718 48.7133 257.458 47.9933 256.938 47.46C256.431 46.9133 255.778 46.64 254.978 46.64C254.178 46.64 253.518 46.9133 252.998 47.46C252.478 47.9933 252.218 48.7133 252.218 49.62C252.218 50.5267 252.478 51.2533 252.998 51.8C253.518 52.3333 254.178 52.6 254.978 52.6ZM268.083 55.16C266.95 55.16 265.93 54.9267 265.023 54.46C264.13 53.98 263.43 53.32 262.923 52.48C262.417 51.64 262.163 50.6867 262.163 49.62C262.163 48.5533 262.417 47.6 262.923 46.76C263.43 45.92 264.13 45.2667 265.023 44.8C265.93 44.32 266.95 44.08 268.083 44.08C269.217 44.08 270.23 44.32 271.123 44.8C272.017 45.2667 272.717 45.92 273.223 46.76C273.73 47.6 273.983 48.5533 273.983 49.62C273.983 50.6867 273.73 51.64 273.223 52.48C272.717 53.32 272.017 53.98 271.123 54.46C270.23 54.9267 269.217 55.16 268.083 55.16ZM268.083 52.6C268.883 52.6 269.537 52.3333 270.043 51.8C270.563 51.2533 270.823 50.5267 270.823 49.62C270.823 48.7133 270.563 47.9933 270.043 47.46C269.537 46.9133 268.883 46.64 268.083 46.64C267.283 46.64 266.623 46.9133 266.103 47.46C265.583 47.9933 265.323 48.7133 265.323 49.62C265.323 50.5267 265.583 51.2533 266.103 51.8C266.623 52.3333 267.283 52.6 268.083 52.6ZM276.069 40.16H279.189V55H276.069V40.16ZM297.189 52H290.689L289.449 55H286.129L292.369 41H295.569L301.829 55H298.429L297.189 52ZM296.169 49.54L293.949 44.18L291.729 49.54H296.169ZM308.163 55.16C307.017 55.16 305.983 54.9267 305.063 54.46C304.157 53.98 303.443 53.32 302.923 52.48C302.417 51.64 302.163 50.6867 302.163 49.62C302.163 48.5533 302.417 47.6 302.923 46.76C303.443 45.92 304.157 45.2667 305.063 44.8C305.983 44.32 307.017 44.08 308.163 44.08C309.297 44.08 310.283 44.32 311.123 44.8C311.977 45.2667 312.597 45.94 312.983 46.82L310.563 48.12C310.003 47.1333 309.197 46.64 308.143 46.64C307.33 46.64 306.657 46.9067 306.123 47.44C305.59 47.9733 305.323 48.7 305.323 49.62C305.323 50.54 305.59 51.2667 306.123 51.8C306.657 52.3333 307.33 52.6 308.143 52.6C309.21 52.6 310.017 52.1067 310.563 51.12L312.983 52.44C312.597 53.2933 311.977 53.96 311.123 54.44C310.283 54.92 309.297 55.16 308.163 55.16ZM319.843 55.16C318.696 55.16 317.663 54.9267 316.743 54.46C315.836 53.98 315.123 53.32 314.603 52.48C314.096 51.64 313.843 50.6867 313.843 49.62C313.843 48.5533 314.096 47.6 314.603 46.76C315.123 45.92 315.836 45.2667 316.743 44.8C317.663 44.32 318.696 44.08 319.843 44.08C320.976 44.08 321.963 44.32 322.803 44.8C323.656 45.2667 324.276 45.94 324.663 46.82L322.243 48.12C321.683 47.1333 320.876 46.64 319.823 46.64C319.01 46.64 318.336 46.9067 317.803 47.44C317.27 47.9733 317.003 48.7 317.003 49.62C317.003 50.54 317.27 51.2667 317.803 51.8C318.336 52.3333 319.01 52.6 319.823 52.6C320.89 52.6 321.696 52.1067 322.243 51.12L324.663 52.44C324.276 53.2933 323.656 53.96 322.803 54.44C321.963 54.92 320.976 55.16 319.843 55.16ZM331.443 55.16C330.309 55.16 329.289 54.9267 328.383 54.46C327.489 53.98 326.789 53.32 326.283 52.48C325.776 51.64 325.523 50.6867 325.523 49.62C325.523 48.5533 325.776 47.6 326.283 46.76C326.789 45.92 327.489 45.2667 328.383 44.8C329.289 44.32 330.309 44.08 331.443 44.08C332.576 44.08 333.589 44.32 334.483 44.8C335.376 45.2667 336.076 45.92 336.583 46.76C337.089 47.6 337.343 48.5533 337.343 49.62C337.343 50.6867 337.089 51.64 336.583 52.48C336.076 53.32 335.376 53.98 334.483 54.46C333.589 54.9267 332.576 55.16 331.443 55.16ZM331.443 52.6C332.243 52.6 332.896 52.3333 333.403 51.8C333.923 51.2533 334.183 50.5267 334.183 49.62C334.183 48.7133 333.923 47.9933 333.403 47.46C332.896 46.9133 332.243 46.64 331.443 46.64C330.643 46.64 329.983 46.9133 329.463 47.46C328.943 47.9933 328.683 48.7133 328.683 49.62C328.683 50.5267 328.943 51.2533 329.463 51.8C329.983 52.3333 330.643 52.6 331.443 52.6ZM350.268 44.24V55H347.308V53.72C346.895 54.1867 346.402 54.5467 345.828 54.8C345.255 55.04 344.635 55.16 343.968 55.16C342.555 55.16 341.435 54.7533 340.608 53.94C339.782 53.1267 339.368 51.92 339.368 50.32V44.24H342.488V49.86C342.488 51.5933 343.215 52.46 344.668 52.46C345.415 52.46 346.015 52.22 346.468 51.74C346.922 51.2467 347.148 50.52 347.148 49.56V44.24H350.268ZM359.699 44.08C361.032 44.08 362.105 44.48 362.919 45.28C363.745 46.08 364.159 47.2667 364.159 48.84V55H361.039V49.32C361.039 48.4667 360.852 47.8333 360.479 47.42C360.105 46.9933 359.565 46.78 358.859 46.78C358.072 46.78 357.445 47.0267 356.979 47.52C356.512 48 356.279 48.72 356.279 49.68V55H353.159V44.24H356.139V45.5C356.552 45.0467 357.065 44.7 357.679 44.46C358.292 44.2067 358.965 44.08 359.699 44.08ZM373.927 54.48C373.62 54.7067 373.24 54.88 372.787 55C372.347 55.1067 371.88 55.16 371.387 55.16C370.107 55.16 369.114 54.8333 368.407 54.18C367.714 53.5267 367.367 52.5667 367.367 51.3V46.88H365.707V44.48H367.367V41.86H370.487V44.48H373.167V46.88H370.487V51.26C370.487 51.7133 370.6 52.0667 370.827 52.32C371.067 52.56 371.4 52.68 371.827 52.68C372.32 52.68 372.74 52.5467 373.087 52.28L373.927 54.48Z" fill="white"/>
</g>
<defs>
<filter id="filter0_d" x="0" y="0" width="415" height="104" filterUnits="userSpaceOnUse" color-interpolation-filters="sRGB">
<feFlood flood-opacity="0" result="BackgroundImageFix"/>
<feColorMatrix in="SourceAlpha" type="matrix" values="0 0 0 0 0 0 0 0 0 0 0 0 0 0 0 0 0 0 127 0"/>
<feOffset dx="2" dy="4"/>
<feGaussianBlur stdDeviation="4"/>
<feColorMatrix type="matrix" values="0 0 0 0 0.643137 0 0 0 0 0.380392 0 0 0 0 0.243137 0 0 0 0.3 0"/>
<feBlend mode="normal" in2="BackgroundImageFix" result="effect1_dropShadow"/>
<feBlend mode="normal" in="SourceGraphic" in2="effect1_dropShadow" result="shape"/>
</filter>
</defs>
</svg>
