<svg width="24" height="24" viewBox="0 0 40 40" fill="none" xmlns="http://www.w3.org/2000/svg">
<path d="M21.5854 14.0322H23.0605L18.7142 26.439H17.239L21.5854 14.0322Z" fill="#202020"/>
<path d="M30.8283 26.1756C29.5873 26.1756 28.4634 25.9063 27.4566 25.3678C26.4615 24.8176 25.6771 24.0624 25.1034 23.1024C24.5415 22.1424 24.2605 21.0595 24.2605 19.8537C24.2605 18.6478 24.5473 17.5649 25.121 16.6049C25.6946 15.6449 26.479 14.8956 27.4741 14.3571C28.481 13.8068 29.6049 13.5317 30.8458 13.5317C31.8527 13.5317 32.7717 13.7073 33.6029 14.0585C34.4341 14.4098 35.1366 14.919 35.7102 15.5863L34.2351 16.9737C33.3454 16.0137 32.2507 15.5337 30.9512 15.5337C30.1083 15.5337 29.3532 15.721 28.6858 16.0956C28.0185 16.4585 27.4975 16.9678 27.1229 17.6234C26.7483 18.279 26.561 19.0224 26.561 19.8537C26.561 20.6849 26.7483 21.4283 27.1229 22.0839C27.4975 22.7395 28.0185 23.2546 28.6858 23.6293C29.3532 23.9922 30.1083 24.1737 30.9512 24.1737C32.2507 24.1737 33.3454 23.6878 34.2351 22.7161L35.7102 24.121C35.1366 24.7883 34.4283 25.2976 33.5854 25.6488C32.7541 26 31.8351 26.1756 30.8283 26.1756Z" fill="#202020"/>
<path d="M12.6234 23.1551H6.47707L5.26537 26H2.9122L8.4439 13.7073H10.6917L16.241 26H13.8527L12.6234 23.1551ZM11.8683 21.3639L9.55024 15.9902L7.24976 21.3639H11.8683Z" fill="#202020"/>
</svg>
