<svg width="24" height="24" viewBox="0 0 40 40" fill="none" xmlns="http://www.w3.org/2000/svg">
<path d="M32.5 23.405V17C32.5 10.37 27.13 5 20.5 5C13.87 5 8.5 10.37 8.5 17V23.405C7.6 23.915 7 24.89 7 26V32C7 33.65 8.35 35 10 35H31C32.65 35 34 33.65 34 32V26C34 24.89 33.4 23.915 32.5 23.405ZM13 32H10V26H13V32ZM19 32H16V26H19V32ZM19 23H11.5V17C11.5 12.545 14.74 8.84 19 8.12V23ZM22 8.12C24.0981 8.47465 26.0027 9.56124 27.3758 11.1869C28.7488 12.8125 29.5014 14.8721 29.5 17V23H22V8.12ZM25 32H22V26H25V32ZM31 32H28V26H31V32ZM14.5 18.5C14.5 17.675 15.175 17 16 17C16.825 17 17.5 17.675 17.5 18.5C17.5 19.325 16.825 20 16 20C15.175 20 14.5 19.325 14.5 18.5ZM26.5 18.5C26.5 19.325 25.825 20 25 20C24.175 20 23.5 19.325 23.5 18.5C23.5 17.675 24.175 17 25 17C25.825 17 26.5 17.675 26.5 18.5Z" fill="black"/>
</svg>
