<svg width="24" height="24" viewBox="0 0 40 40" fill="none" xmlns="http://www.w3.org/2000/svg">
<path d="M13.25 16.3158H33.55C33.9346 16.3158 34.3034 16.4711 34.5753 16.7474C34.8472 17.0238 35 17.3986 35 17.7895V20.7368C35 24.3259 32.8801 27.4142 29.8498 28.7979C29.4666 28.9729 29.2 29.3438 29.2 29.7651V32.55C29.2 33.3508 28.5508 34 27.75 34C26.9492 34 26.3 33.3508 26.3 32.55V30.5789C26.3 30.0267 25.8523 29.5789 25.3 29.5789H15.7C15.1477 29.5789 14.7 30.0267 14.7 30.5789V32.55C14.7 33.3508 14.0508 34 13.25 34C12.4492 34 11.8 33.3508 11.8 32.55V29.7651C11.8 29.3438 11.5334 28.9729 11.1502 28.7979C8.11992 27.4142 6 24.3259 6 20.7368V17.7895C6 17.3986 6.15277 17.0238 6.4247 16.7474C6.69662 16.4711 7.06544 16.3158 7.45 16.3158H10.35V11.8947C10.35 8.64379 12.9513 6 16.15 6C18.8614 6 21.1436 7.89967 21.776 10.4585C21.9681 11.236 21.3008 11.8947 20.5 11.8947C19.6992 11.8947 19.08 11.2086 18.7049 10.501C18.215 9.57678 17.2536 8.94737 16.15 8.94737C14.5506 8.94737 13.25 10.2693 13.25 11.8947V16.3158Z" fill="#202020"/>
</svg>
