<svg width="24" height="24" viewBox="0 0 40 40" fill="none" xmlns="http://www.w3.org/2000/svg">
<path d="M12 18H15.3333V21.3333H12V18ZM12 24.6667H15.3333V28H12V24.6667ZM18.6667 18H22V21.3333H18.6667V18ZM18.6667 24.6667H22V28H18.6667V24.6667ZM25.3334 18H28.6667V21.3333H25.3334V18ZM25.3334 24.6667H28.6667V28H25.3334V24.6667Z" fill="#202020"/>
<path d="M9.16667 35.6667H31.3334C33.0798 35.6667 34.5001 34.2465 34.5001 32.5001V10.3333C34.5001 8.58693 33.0798 7.16667 31.3334 7.16667H28.1667V4H25V7.16667H15.5V4H12.3333V7.16667H9.16667C7.42025 7.16667 6 8.58693 6 10.3333V32.5001C6 34.2465 7.42025 35.6667 9.16667 35.6667ZM31.3334 13.5L31.335 32.5001H9.16667V13.5H31.3334Z" fill="#202020"/>
</svg>
