<svg width="24" height="24" viewBox="0 0 40 40" fill="none" xmlns="http://www.w3.org/2000/svg">
<path d="M7.14286 20C7.14286 20.7083 6.78572 22.125 6.07143 24.25C5.35714 26.375 5 27.7917 5 28.5C5 29.9388 5.21763 31.3001 5.6529 32.584C6.08817 33.8678 6.72433 34.9248 7.56138 35.7549C8.39844 36.585 9.33036 37 10.3571 37H25.3571C25.6473 37 25.8984 36.8949 26.1105 36.6846C26.3225 36.4743 26.4286 36.2253 26.4286 35.9375C26.4286 35.6497 26.3225 35.4007 26.1105 35.1904C25.8984 34.9801 25.6473 34.875 25.3571 34.875C25.0446 34.875 24.7879 34.7754 24.5871 34.5762C24.3862 34.377 24.2857 34.1224 24.2857 33.8125C24.2857 33.237 24.5089 32.5674 24.9554 31.8037C25.4018 31.04 25.9375 30.2542 26.5625 29.4463C27.1875 28.6383 27.8125 27.8027 28.4375 26.9395C29.0625 26.0762 29.5982 25.1243 30.0446 24.084C30.4911 23.0436 30.7143 22.0365 30.7143 21.0625C30.7143 19.4023 30.0446 18.0299 28.7054 16.9453C28.9732 16.1484 29.6429 15.75 30.7143 15.75C31.3616 15.75 32.0368 15.5231 32.74 15.0693C33.4431 14.6156 33.9955 14.1396 34.3973 13.6416C34.7991 13.1436 35 12.7839 35 12.5625C35 12.2747 34.894 12.0257 34.6819 11.8154C34.4699 11.6051 34.2188 11.5 33.9286 11.5C33.75 11.5 33.5603 11.3451 33.3594 11.0352C33.1585 10.7253 32.9297 10.3379 32.673 9.87305C32.4163 9.4082 32.1205 8.93783 31.7857 8.46191C31.4509 7.986 31.0045 7.54329 30.4464 7.13379C29.8884 6.72428 29.2634 6.44206 28.5714 6.28711V3C28.058 3 27.4554 3.3929 26.7634 4.17871C26.0714 4.96452 25.625 5.77799 25.4241 6.61914C24.3527 7.06185 23.5379 7.83105 22.9799 8.92676C22.4219 10.0225 22.1429 11.2344 22.1429 12.5625C22.1429 13.2044 22.0033 13.8132 21.7243 14.3887C21.4453 14.9642 21.0491 15.4788 20.5357 15.9326C20.0223 16.3864 19.6038 16.7295 19.2801 16.9619C18.9565 17.1943 18.5491 17.4544 18.058 17.7422C17.9688 17.8086 17.9018 17.8529 17.8571 17.875C16.5625 18.6055 15.4911 19.3138 14.6429 20C13.1027 21.2617 11.8248 22.8444 10.8092 24.748C9.79353 26.6517 9.28572 28.2565 9.28572 29.5625C9.28572 29.651 9.27456 29.7507 9.25223 29.8613C9.22991 29.972 9.12947 30.127 8.95089 30.3262C8.77232 30.5254 8.52679 30.625 8.21429 30.625C7.90179 30.625 7.64509 30.4535 7.4442 30.1104C7.24331 29.7673 7.14286 29.2305 7.14286 28.5C7.14286 27.7253 7.28795 26.9505 7.57812 26.1758C7.86831 25.401 8.22545 24.665 8.64956 23.9678C9.07366 23.2705 9.49777 22.5456 9.92188 21.793C10.346 21.0404 10.7031 20.1383 10.9933 19.0869C11.2835 18.0355 11.4286 16.9232 11.4286 15.75C11.4286 14.6875 10.9821 13.7135 10.0893 12.8281C9.19643 11.9427 8.21429 11.5 7.14286 11.5C6.54018 11.5 6.03237 11.7048 5.61942 12.1143C5.20647 12.5238 5 13.0273 5 13.625C5 13.9792 5.06697 14.2946 5.20089 14.5713C5.33482 14.848 5.50781 15.1025 5.71987 15.335C5.93192 15.5674 6.04911 15.7057 6.07143 15.75C6.78572 16.9232 7.14286 18.3398 7.14286 20Z" fill="#202020"/>
</svg>
