<svg width="24" height="24" viewBox="0 0 40 40" fill="none" xmlns="http://www.w3.org/2000/svg">
<path d="M31.2476 20.9225C32.5801 21.6086 33.6064 22.4461 34.3264 23.435C35.0464 24.4238 35.4333 25.4429 35.487 26.4923C35.5407 27.5417 35.4279 28.5507 35.1485 29.5194C34.8691 30.4881 34.45 31.3962 33.8912 32.2438C33.1819 33.3335 32.3222 34.2063 31.312 34.8622C30.3019 35.5181 29.2111 35.8914 28.0398 35.9822C26.8684 36.073 25.6702 35.8157 24.4451 35.2103C24.1657 35.0691 23.9347 34.8622 23.752 34.5898C23.5693 34.3173 23.4296 34.0348 23.3329 33.7422C23.2362 33.4496 23.1717 33.056 23.1394 32.5616C23.1072 32.0672 23.0911 31.6485 23.0911 31.3054C23.0911 30.9623 23.0965 30.4578 23.1072 29.7918C23.118 29.1259 23.1233 28.6113 23.1233 28.248C23.1018 26.6739 22.9621 25.2714 22.7042 24.0404C22.1669 24.2624 21.6188 24.3734 21.06 24.3734C20.5442 24.3734 20.0391 24.2825 19.5448 24.1009C18.1693 25.5943 17.0301 26.6134 16.1274 27.1583C15.0098 27.8242 13.8868 28.1824 12.7585 28.2329C11.6301 28.2833 10.6199 28.0714 9.728 27.5972C8.83605 27.123 8.05157 26.5428 7.37455 25.8566C6.69753 25.1705 6.11185 24.4036 5.61752 23.556C5.01572 22.4865 4.65572 21.4119 4.53751 20.3322C4.4193 19.2525 4.58049 18.2385 5.02109 17.29C5.4617 16.3415 6.18707 15.5645 7.19723 14.9591C7.54111 14.8179 7.87425 14.7371 8.19664 14.7169C8.51903 14.6968 8.92739 14.7724 9.42173 14.944C9.91606 15.1155 10.3782 15.3123 10.808 15.5343C11.2379 15.7562 11.7376 16.0337 12.3071 16.3667C12.8767 16.6997 13.414 17.0175 13.9191 17.3202C14.4242 17.623 14.9776 17.9307 15.5794 18.2435C16.1812 18.5563 16.74 18.8136 17.2558 19.0154C17.4707 18.5311 17.7824 18.0972 18.1907 17.7138C17.3525 15.4132 16.9334 13.6373 16.9334 12.3861C16.9334 11.3165 17.1269 10.3529 17.5137 9.49522C17.9006 8.63755 18.411 7.93627 19.0451 7.3914C19.6791 6.84652 20.4099 6.38741 21.2373 6.01407C22.0648 5.64073 22.8923 5.37839 23.7197 5.22703C24.5472 5.07568 25.3801 5 26.2183 5C28.2816 5 30.001 5.48938 31.3765 6.46814C32.7521 7.44689 33.4398 8.80404 33.4398 10.5396C33.4398 11.1248 33.0852 11.7201 32.3759 12.3255C31.6667 12.931 30.8553 13.4658 29.9419 13.9299C29.0284 14.3941 27.9377 14.9642 26.6696 15.6402C25.4015 16.3163 24.3914 16.9368 23.6391 17.5019C24.2194 17.9458 24.6386 18.4806 24.8965 19.1062C27.8195 19.6309 29.9365 20.2363 31.2476 20.9225ZM21.0439 18.5613C20.4743 18.5613 19.9908 18.7531 19.5931 19.1365C19.1955 19.5199 18.9967 19.979 18.9967 20.5138C18.9967 21.0486 19.1955 21.5027 19.5931 21.876C19.9908 22.2493 20.4743 22.436 21.0439 22.436C21.6135 22.436 22.1024 22.2493 22.5108 21.876C22.9191 21.5027 23.1233 21.0486 23.1233 20.5138C23.1233 19.979 22.9191 19.5199 22.5108 19.1365C22.1024 18.7531 21.6135 18.5613 21.0439 18.5613Z" fill="#202020"/>
</svg>
