<svg width="24" height="24" viewBox="0 0 40 40" fill="none" xmlns="http://www.w3.org/2000/svg">
<path d="M20.473 32.0938H17.1674V24.5121L27.128 14.296C28.0441 13.3563 27.3954 11.75 26.0997 11.75H4.45718C3.16148 11.75 2.51275 13.3563 3.42888 14.296L13.3895 24.5121V32.0938H10.0838C8.77989 32.0938 7.72268 33.1781 7.72268 34.5156C7.72268 34.7832 7.934 35 8.19491 35H22.3619C22.6229 35 22.8342 34.7832 22.8342 34.5156C22.8342 33.1781 21.777 32.0938 20.473 32.0938ZM28.501 4C24.8052 4 21.692 6.43398 20.5214 9.8125H23.6228C24.6057 8.08389 26.4131 6.90625 28.501 6.90625C31.6254 6.90625 34.1678 9.5134 34.1678 12.7188C34.1678 15.9241 31.6254 18.5312 28.501 18.5312C27.6722 18.5312 26.8901 18.3375 26.18 18.0081L24.0986 20.143C25.386 20.9483 26.883 21.4375 28.501 21.4375C33.1956 21.4375 37.0012 17.534 37.0012 12.7188C37.0012 7.90346 33.1956 4 28.501 4Z" fill="#333333"/>
</svg>
