<svg width="24" height="24" viewBox="0 0 40 40" fill="none" xmlns="http://www.w3.org/2000/svg">
<path d="M32.125 2H8.875C7.84729 2 6.86166 2.37928 6.13496 3.05442C5.40826 3.72955 5 4.64522 5 5.6V34.4C5 35.3548 5.40826 36.2705 6.13496 36.9456C6.86166 37.6207 7.84729 38 8.875 38H32.125C33.1527 38 34.1383 37.6207 34.865 36.9456C35.5917 36.2705 36 35.3548 36 34.4V5.6C36 4.64522 35.5917 3.72955 34.865 3.05442C34.1383 2.37928 33.1527 2 32.125 2ZM16.625 5.6C17.1389 5.6 17.6317 5.78964 17.995 6.12721C18.3584 6.46477 18.5625 6.92261 18.5625 7.4C18.5625 7.87739 18.3584 8.33523 17.995 8.67279C17.6317 9.01036 17.1389 9.2 16.625 9.2C16.1111 9.2 15.6183 9.01036 15.255 8.67279C14.8916 8.33523 14.6875 7.87739 14.6875 7.4C14.6875 6.92261 14.8916 6.46477 15.255 6.12721C15.6183 5.78964 16.1111 5.6 16.625 5.6ZM10.8125 5.6C11.3264 5.6 11.8192 5.78964 12.1825 6.12721C12.5459 6.46477 12.75 6.92261 12.75 7.4C12.75 7.87739 12.5459 8.33523 12.1825 8.67279C11.8192 9.01036 11.3264 9.2 10.8125 9.2C10.2986 9.2 9.80583 9.01036 9.44248 8.67279C9.07913 8.33523 8.875 7.87739 8.875 7.4C8.875 6.92261 9.07913 6.46477 9.44248 6.12721C9.80583 5.78964 10.2986 5.6 10.8125 5.6ZM32.125 32.7333C32.125 33.6538 31.3788 34.4 30.4583 34.4H10.5417C9.62119 34.4 8.875 33.6538 8.875 32.7333V17.8C8.875 15.0386 11.1136 12.8 13.875 12.8H27.125C29.8864 12.8 32.125 15.0386 32.125 17.8V32.7333ZM25.6731 25.994C25.7119 27.254 25.1694 28.478 24.2006 29.378C23.7148 29.8297 23.1379 30.1881 22.5029 30.4326C21.868 30.6771 21.1874 30.8029 20.5 30.8029C19.8126 30.8029 19.132 30.6771 18.4971 30.4326C17.8621 30.1881 17.2852 29.8297 16.7994 29.378C15.8306 28.478 15.2881 27.254 15.3269 25.994C15.4625 24.716 15.9081 23.492 16.625 22.394C17.3419 20.9 18.1944 19.514 19.2019 18.2L20.5 16.4C23.9681 21.062 25.6731 24.248 25.6731 25.994Z" fill="#202020"/>
</svg>
