<svg width="24" height="24" viewBox="0 0 40 40" fill="none" xmlns="http://www.w3.org/2000/svg">
<path d="M20.2663 16.4013L31.6875 20.4173V36.8001C31.6875 37.1183 31.5591 37.4235 31.3305 37.6486C31.102 37.8736 30.792 38 30.4688 38H25.5938C25.2705 38 24.9605 37.8736 24.732 37.6486C24.5034 37.4235 24.375 37.1183 24.375 36.8001V28.4006H12.1875V36.8001C12.1875 37.1183 12.0591 37.4235 11.8305 37.6486C11.602 37.8736 11.292 38 10.9688 38H6.09375C5.77052 38 5.46052 37.8736 5.23196 37.6486C5.0034 37.4235 4.875 37.1183 4.875 36.8001V20.7578C2.04445 19.7641 0 17.1257 0 14.0014C0 13.3649 0.256807 12.7545 0.713927 12.3045C1.17105 11.8544 1.79103 11.6016 2.4375 11.6016C3.08397 11.6016 3.70395 11.8544 4.16107 12.3045C4.61819 12.7545 4.875 13.3649 4.875 14.0014C4.87621 14.6375 5.1334 15.2473 5.59026 15.6971C6.04712 16.1469 6.66641 16.4001 7.3125 16.4013H20.2663ZM39 8.00179V10.4016C39 11.6746 38.4864 12.8954 37.5721 13.7956C36.6579 14.6957 35.4179 15.2014 34.125 15.2014H31.6875V17.8697L21.9375 14.4417V3.20207C21.9375 2.13339 23.2492 1.59792 24.0178 2.35387L26.0957 4.402H30.1808C31.0119 4.402 31.9899 4.99597 32.3609 5.72867L32.9062 6.80186H37.7812C38.1045 6.80186 38.4145 6.92828 38.643 7.15331C38.8716 7.37834 39 7.68355 39 8.00179ZM30.4688 8.00179C30.4688 7.76446 30.3973 7.53247 30.2634 7.33514C30.1294 7.13781 29.9391 6.98402 29.7164 6.8932C29.4937 6.80238 29.2486 6.77861 29.0122 6.82491C28.7758 6.87121 28.5587 6.9855 28.3882 7.15331C28.2178 7.32112 28.1017 7.53493 28.0547 7.76769C28.0076 8.00045 28.0318 8.24172 28.124 8.46098C28.2163 8.68024 28.3725 8.86764 28.5729 8.99949C28.7733 9.13134 29.009 9.20171 29.25 9.20171C29.5732 9.20171 29.8832 9.07529 30.1118 8.85026C30.3403 8.62523 30.4688 8.32003 30.4688 8.00179Z" fill="#202020"/>
</svg>
