<svg width="24" height="24" viewBox="0 0 40 40" fill="none" xmlns="http://www.w3.org/2000/svg">
<path d="M31.9444 5H7.05556C5.1 5 3.5 6.55 3.5 8.44444V32.5556C3.5 34.45 5.1 36 7.05556 36H31.9444C33.9 36 35.5 34.45 35.5 32.5556V8.44444C35.5 6.55 33.9 5 31.9444 5ZM13.2778 10.1667C13.8671 10.1667 14.4324 10.3935 14.8491 10.7972C15.2659 11.2009 15.5 11.7485 15.5 12.3194C15.5 12.8904 15.2659 13.438 14.8491 13.8417C14.4324 14.2454 13.8671 14.4722 13.2778 14.4722C12.6884 14.4722 12.1232 14.2454 11.7064 13.8417C11.2897 13.438 11.0556 12.8904 11.0556 12.3194C11.0556 11.7485 11.2897 11.2009 11.7064 10.7972C12.1232 10.3935 12.6884 10.1667 13.2778 10.1667ZM17.7222 22.2222C17.7222 23.1694 16.9222 23.9444 15.9444 23.9444V29.1111C15.9444 30.0583 15.1444 30.8333 14.1667 30.8333H12.3889C11.4111 30.8333 10.6111 30.0583 10.6111 29.1111V23.9444C9.63333 23.9444 8.83333 23.1694 8.83333 22.2222V19.6389C8.83333 17.7444 10.4333 16.1944 12.3889 16.1944H14.1667C16.1222 16.1944 17.7222 17.7444 17.7222 19.6389V22.2222ZM29.3133 23.5311L26.4689 27.94C26.1133 28.4739 25.3133 28.4739 24.9578 27.94L22.1133 23.5311C21.7578 22.9628 22.1844 22.2222 22.8778 22.2222H28.5667C29.26 22.2222 29.6867 22.9628 29.3133 23.5311ZM28.5667 18.7778H22.8778C22.1844 18.7778 21.7578 18.0372 22.1311 17.4517L24.9756 13.0428C25.3311 12.5089 26.1311 12.5089 26.4867 13.0428L29.3311 17.4517C29.6867 18.0372 29.26 18.7778 28.5667 18.7778Z" fill="#202020"/>
</svg>
