<svg width="24" height="24" viewBox="0 0 40 40" fill="none" xmlns="http://www.w3.org/2000/svg">
<path d="M33.25 17.7734C32.462 17.4275 31.6106 17.2493 30.75 17.25H8.25C7.38946 17.2492 6.53813 17.4272 5.75 17.7727C4.6361 18.2598 3.68823 19.0609 3.02226 20.078C2.35629 21.0951 2.00106 22.2842 2 23.5V32.25C2 32.5815 2.1317 32.8995 2.36612 33.1339C2.60054 33.3683 2.91848 33.5 3.25 33.5C3.58152 33.5 3.89946 33.3683 4.13388 33.1339C4.3683 32.8995 4.5 32.5815 4.5 32.25V31.625C4.50203 31.4599 4.56853 31.3021 4.6853 31.1853C4.80207 31.0685 4.95987 31.002 5.125 31H33.875C34.0401 31.002 34.1979 31.0685 34.3147 31.1853C34.4315 31.3021 34.498 31.4599 34.5 31.625V32.25C34.5 32.5815 34.6317 32.8995 34.8661 33.1339C35.1005 33.3683 35.4185 33.5 35.75 33.5C36.0815 33.5 36.3995 33.3683 36.6339 33.1339C36.8683 32.8995 37 32.5815 37 32.25V23.5C36.9988 22.2844 36.6435 21.0954 35.9775 20.0785C35.3116 19.0615 34.3638 18.2605 33.25 17.7734Z" fill="#202020"/>
<path d="M28.875 6H10.125C8.96468 6 7.85188 6.46094 7.03141 7.28141C6.21094 8.10188 5.75 9.21468 5.75 10.375V16C5.75004 16.0484 5.76132 16.0962 5.78298 16.1395C5.80463 16.1828 5.83605 16.2205 5.87477 16.2496C5.91348 16.2787 5.95842 16.2984 6.00605 16.3071C6.05368 16.3159 6.10269 16.3134 6.14922 16.3C6.83161 16.1004 7.53902 15.9994 8.25 16H8.58047C8.6576 16.0005 8.73219 15.9724 8.78988 15.9212C8.84758 15.87 8.88429 15.7993 8.89297 15.7227C8.96115 15.1119 9.25192 14.5476 9.70976 14.1376C10.1676 13.7276 10.7604 13.5006 11.375 13.5H15.75C16.365 13.5 16.9584 13.7268 17.4167 14.1368C17.875 14.5469 18.1662 15.1115 18.2344 15.7227C18.2431 15.7993 18.2798 15.87 18.3375 15.9212C18.3952 15.9724 18.4697 16.0005 18.5469 16H20.4578C20.5349 16.0005 20.6095 15.9724 20.6672 15.9212C20.7249 15.87 20.7616 15.7993 20.7703 15.7227C20.8384 15.1123 21.1289 14.5483 21.5862 14.1384C22.0436 13.7284 22.6358 13.5012 23.25 13.5H27.625C28.24 13.5 28.8334 13.7268 29.2917 14.1368C29.75 14.5469 30.0411 15.1115 30.1094 15.7227C30.118 15.7993 30.1548 15.87 30.2125 15.9212C30.2702 15.9724 30.3447 16.0005 30.4219 16H30.75C31.461 15.9997 32.1684 16.1009 32.8508 16.3008C32.8974 16.3142 32.9464 16.3167 32.9941 16.3079C33.0418 16.2991 33.0868 16.2793 33.1255 16.2501C33.1643 16.221 33.1957 16.1832 33.2173 16.1398C33.2389 16.0963 33.2501 16.0485 33.25 16V10.375C33.25 9.21468 32.7891 8.10188 31.9686 7.28141C31.1481 6.46094 30.0353 6 28.875 6Z" fill="#202020"/>
</svg>
