<svg width="24" height="24" viewBox="0 0 40 40" fill="none" xmlns="http://www.w3.org/2000/svg">
<path d="M14.5766 34.4017C14.7024 34.5382 14.7693 34.7187 14.7628 34.9042C14.7562 35.0897 14.6768 35.2651 14.5416 35.3923L13.0222 36.8131C12.8865 36.9392 12.7063 37.0062 12.5212 36.9995C12.3362 36.9929 12.1613 36.913 12.0351 36.7775L3.18631 27.241C3.06057 27.1045 2.99378 26.9239 3.00046 26.7384C3.00714 26.5529 3.08675 26.3776 3.22199 26.2504L4.74354 24.8317C4.81068 24.7692 4.88948 24.7206 4.97543 24.6885C5.06138 24.6565 5.1528 24.6417 5.24447 24.645C5.33614 24.6483 5.42626 24.6697 5.50968 24.7078C5.59309 24.746 5.66817 24.8002 5.73062 24.8674L14.5766 34.4017ZM25.8675 16.458C25.9933 16.5945 26.0601 16.7751 26.0534 16.9606C26.0467 17.1461 25.9671 17.3214 25.8318 17.4486L16.2688 26.382C16.1332 26.508 15.953 26.5751 15.7679 26.5684C15.5828 26.5617 15.408 26.4818 15.2817 26.3463L12.9991 23.8831C12.8733 23.7466 12.8065 23.566 12.8132 23.3805C12.8199 23.195 12.8995 23.0197 13.0348 22.8925L22.5957 13.9591C22.6628 13.8967 22.7415 13.848 22.8274 13.816C22.9133 13.784 23.0047 13.7692 23.0963 13.7725C23.1879 13.7758 23.2779 13.7971 23.3613 13.8353C23.4446 13.8734 23.5197 13.9277 23.5821 13.9948L25.8675 16.458ZM17.8303 31.3607C18.0919 31.6427 18.0758 32.0883 17.7946 32.3513L16.273 33.7714C16.2059 33.8339 16.1271 33.8826 16.0411 33.9146C15.9552 33.9467 15.8638 33.9614 15.7721 33.9581C15.6804 33.9548 15.5903 33.9335 15.5069 33.8953C15.4235 33.8572 15.3484 33.8029 15.2859 33.7358L6.44208 24.1993C6.31624 24.0629 6.24933 23.8823 6.25588 23.6968C6.26243 23.5114 6.34191 23.336 6.47706 23.2087L7.99581 21.7893C8.13148 21.6633 8.31165 21.5962 8.49673 21.6029C8.68181 21.6096 8.85666 21.6895 8.98289 21.825L17.8303 31.3607ZM32.5651 16.8001C32.6908 16.9367 32.7575 17.1173 32.7507 17.3028C32.7438 17.4883 32.6641 17.6636 32.5288 17.7906L31.0079 19.2107C30.8722 19.3369 30.692 19.4041 30.5068 19.3976C30.3216 19.391 30.1466 19.3112 30.0201 19.1758L21.1749 9.64144C21.0489 9.5051 20.9818 9.32449 20.9884 9.13895C20.9949 8.95341 21.0745 8.77798 21.2098 8.65086L22.7349 7.22725C22.802 7.16477 22.8807 7.11613 22.9666 7.0841C23.0525 7.05207 23.1439 7.03729 23.2355 7.04061C23.3271 7.04392 23.4171 7.06526 23.5005 7.10341C23.5839 7.14156 23.6589 7.19576 23.7213 7.26293L32.5651 16.8001ZM35.8139 13.764C35.9395 13.9007 36.0062 14.0814 35.9995 14.2669C35.9929 14.4525 35.9133 14.6279 35.7782 14.7552L34.2602 16.1747C34.1931 16.2372 34.1144 16.2859 34.0286 16.318C33.9427 16.35 33.8513 16.3649 33.7597 16.3616C33.6681 16.3584 33.5781 16.3371 33.4947 16.299C33.4113 16.2609 33.3362 16.2068 33.2738 16.1397L24.4299 6.60114C24.3042 6.46452 24.2374 6.28387 24.2439 6.09832C24.2505 5.91278 24.3299 5.73729 24.4649 5.60986L25.9844 4.18765C26.0513 4.12506 26.1299 4.07631 26.2157 4.04418C26.3016 4.01205 26.3929 3.99719 26.4845 4.00044C26.576 4.00369 26.6661 4.02499 26.7494 4.06312C26.8327 4.10125 26.9077 4.15546 26.97 4.22263L35.8139 13.764Z" fill="#202020"/>
</svg>
