<svg width="24" height="24" viewBox="0 0 40 40" fill="none" xmlns="http://www.w3.org/2000/svg">
<path d="M15.2381 11.6667C15.2381 10.7437 15.5089 9.84143 16.0161 9.07401C16.5233 8.30658 17.2442 7.70844 18.0876 7.35523C18.9311 7.00202 19.8592 6.90961 20.7546 7.08967C21.65 7.26973 22.4725 7.71419 23.1181 8.36684C23.7636 9.01948 24.2033 9.851 24.3814 10.7562C24.5595 11.6615 24.4681 12.5998 24.1187 13.4525C23.7693 14.3052 23.1777 15.0341 22.4186 15.5469C21.6595 16.0596 20.767 16.3333 19.8541 16.3333V19.4444M19.8541 19.4444L33.1235 27.9813C33.354 28.1295 33.5307 28.3492 33.6271 28.6076C33.7235 28.866 33.7343 29.149 33.658 29.4142C33.5817 29.6793 33.4223 29.9123 33.2038 30.078C32.9854 30.2437 32.7196 30.3333 32.4464 30.3333H7.26175C6.98861 30.3333 6.72283 30.2437 6.50436 30.078C6.28589 29.9123 6.12652 29.6793 6.0502 29.4142C5.97388 29.149 5.98473 28.866 6.08112 28.6076C6.17751 28.3492 6.35424 28.1295 6.58474 27.9813L19.8541 19.4444Z" stroke="black" stroke-width="2.91666" stroke-linecap="round" stroke-linejoin="round"/>
</svg>
