<svg width="24" height="24" viewBox="0 0 40 40" fill="none" xmlns="http://www.w3.org/2000/svg">
<path d="M6.7 37H33.9C34.3509 37 34.7833 36.8209 35.1021 36.5021C35.4209 36.1833 35.6 35.7509 35.6 35.3V8.1C35.6 5.2882 33.3118 3 30.5 3H10.1C7.2882 3 5 5.2882 5 8.1V35.3C5 35.7509 5.17911 36.1833 5.49792 36.5021C5.81673 36.8209 6.24913 37 6.7 37ZM30.5 6.2708C30.7232 6.2708 30.9443 6.31477 31.1506 6.40021C31.3568 6.48564 31.5442 6.61086 31.7021 6.76872C31.8599 6.92658 31.9852 7.11398 32.0706 7.32024C32.156 7.52649 32.2 7.74755 32.2 7.9708C32.2 8.19405 32.156 8.41511 32.0706 8.62136C31.9852 8.82762 31.8599 9.01502 31.7021 9.17288C31.5442 9.33074 31.3568 9.45596 31.1506 9.5414C30.9443 9.62683 30.7232 9.6708 30.5 9.6708C30.0491 9.6708 29.6167 9.49169 29.2979 9.17288C28.9791 8.85407 28.8 8.42167 28.8 7.9708C28.8 7.51993 28.9791 7.08753 29.2979 6.76872C29.6167 6.44991 30.0491 6.2708 30.5 6.2708ZM25.4 6.2708C25.6232 6.2708 25.8443 6.31477 26.0506 6.40021C26.2568 6.48564 26.4442 6.61086 26.6021 6.76872C26.7599 6.92658 26.8852 7.11398 26.9706 7.32024C27.056 7.52649 27.1 7.74755 27.1 7.9708C27.1 8.19405 27.056 8.41511 26.9706 8.62136C26.8852 8.82762 26.7599 9.01502 26.6021 9.17288C26.4442 9.33074 26.2568 9.45596 26.0506 9.5414C25.8443 9.62683 25.6232 9.6708 25.4 9.6708C24.9491 9.6708 24.5167 9.49169 24.1979 9.17288C23.8791 8.85407 23.7 8.42167 23.7 7.9708C23.7 7.51993 23.8791 7.08753 24.1979 6.76872C24.5167 6.44991 24.9491 6.2708 25.4 6.2708ZM20.3 11.5C25.9253 11.5 30.5 16.0747 30.5 21.7C30.5 27.3253 25.9253 31.9 20.3 31.9C14.6747 31.9 10.1 27.3253 10.1 21.7C10.1 16.0747 14.6747 11.5 20.3 11.5Z" fill="#202020"/>
<path d="M21.6025 28.3783C23.9808 27.9346 25.9732 26.1428 26.7416 23.8478C27.298 22.237 27.2047 20.4728 26.4815 18.9297C26.4023 18.7599 26.2673 18.6225 26.099 18.5402C25.9307 18.4579 25.7393 18.4358 25.5567 18.4775C24.5299 18.7308 23.8244 19.2391 23.0067 19.8392C21.6705 20.8201 20.0062 22.039 16.9003 22.039C15.5182 22.039 14.4353 21.7908 13.5275 21.4372L13.5054 21.4525C13.4695 22.4758 13.6647 23.494 14.0767 24.4314C14.4886 25.3688 15.1067 26.2013 15.8848 26.8669C16.6629 27.5324 17.5811 28.0139 18.571 28.2756C19.561 28.5373 20.5972 28.5724 21.6025 28.3783Z" fill="#202020"/>
</svg>
