<svg width="24" height="24" viewBox="0 0 40 40" fill="none" xmlns="http://www.w3.org/2000/svg">
<path fill-rule="evenodd" clip-rule="evenodd" d="M8.63033 9.34885L17.1247 4.40692C17.9757 3.91186 19.0153 3.8658 19.9067 4.28365L34.2733 11.0183C35.327 11.5123 36 12.571 36 13.7347V19.5742V24.5319V27.9404V33.6165C36 35.2733 34.6569 36.6165 33 36.6165H6C4.34314 36.6165 3 35.2733 3 33.6165V13.7848C3 12.5954 3.70263 11.5184 4.79116 11.0391L8.63033 9.34885ZM11.4519 18.2141C11.7666 17.4777 12.4902 17 13.291 17H25.2973C26.0844 17 26.7983 17.4617 27.1212 18.1795L29.2544 22.9214C29.4237 23.2979 29.7054 23.6127 30.0608 23.8228L31.0175 24.3881C31.6264 24.748 32 25.4027 32 26.11V32.7573C32 33.4436 31.4436 34 30.7573 34H30.1787C29.8119 34 29.5146 33.7027 29.5146 33.3359C29.5146 32.9692 29.2173 32.6719 28.8506 32.6719H9.85704C9.49029 32.6719 9.19298 32.9692 9.19298 33.3359C9.19298 33.7027 8.89567 34 8.52892 34H8.09649C7.49092 34 7 33.5091 7 32.9035V26.0364C7 25.3692 7.3327 24.7459 7.88705 24.3746L8.69999 23.8302C9.02172 23.6147 9.27398 23.3105 9.42615 22.9544L11.4519 18.2141ZM10.5967 29.1935C11.4786 29.1935 12.1935 28.4786 12.1935 27.5968C12.1935 26.7149 11.4786 26 10.5967 26C9.71485 26 8.99995 26.7149 8.99995 27.5968C8.99995 28.4786 9.71485 29.1935 10.5967 29.1935ZM30.1935 27.5968C30.1935 28.4786 29.4786 29.1935 28.5967 29.1935C27.7149 29.1935 27 28.4786 27 27.5968C27 26.7149 27.7149 26 28.5967 26C29.4786 26 30.1935 26.7149 30.1935 27.5968ZM15.7742 29.1648C15.1863 29.1648 14.7097 29.6414 14.7097 30.2294C14.7097 30.8173 15.1863 31.2939 15.7742 31.2939H23.2258C23.8137 31.2939 24.2903 30.8173 24.2903 30.2294C24.2903 29.6414 23.8137 29.1648 23.2258 29.1648H15.7742Z" fill="#202020"/>
</svg>
