<svg width="24" height="24" viewBox="0 0 40 40" fill="none" xmlns="http://www.w3.org/2000/svg">
<path d="M34.0001 5H22.0001C20.3501 5 19.0001 6.35 19.0001 7.99999V13.25H21.2501C22.9001 13.25 24.2501 14.6 24.2501 16.25V23.6749C25.8101 24.3949 27.6101 24.6949 29.5001 24.3799C33.8951 23.6449 37.0001 19.6249 37.0001 15.17V7.99999C37.0001 6.35 35.6501 5 34.0001 5ZM23.5001 11.75C23.5001 10.925 24.1751 10.25 25.0001 10.25C25.8251 10.25 26.5001 10.925 26.5001 11.75C26.5001 12.575 25.8251 13.25 25.0001 13.25C24.1751 13.25 23.5001 12.575 23.5001 11.75ZM30.7751 18.32H25.1951C24.6251 18.32 24.2501 17.705 24.5351 17.195C25.1201 16.205 26.4401 15.5 27.9851 15.5C29.5301 15.5 30.8501 16.205 31.4351 17.21C31.7201 17.705 31.3451 18.32 30.7751 18.32ZM31.0001 13.25C30.1751 13.25 29.5001 12.575 29.5001 11.75C29.5001 10.925 30.1751 10.25 31.0001 10.25C31.8251 10.25 32.5001 10.925 32.5001 11.75C32.5001 12.575 31.8251 13.25 31.0001 13.25Z" fill="#333333"/>
<path d="M19 15.5H6.99999C5.35 15.5 4 16.85 4 18.5V25.685C4 30.26 7.28499 34.3399 11.815 34.9249C17.305 35.6299 21.9999 31.3549 21.9999 26V18.5C21.9999 16.85 20.6499 15.5 19 15.5ZM8.49999 22.25C8.49999 21.425 9.17498 20.75 9.99998 20.75C10.825 20.75 11.5 21.425 11.5 22.25C11.5 23.075 10.825 23.75 9.99998 23.75C9.17498 23.75 8.49999 23.075 8.49999 22.25ZM16.45 27.125C15.88 28.13 14.545 28.835 13 28.835C11.455 28.835 10.135 28.13 9.54998 27.125C9.26498 26.615 9.63998 26 10.21 26H15.79C16.36 26 16.735 26.615 16.45 27.125ZM16 23.75C15.175 23.75 14.5 23.075 14.5 22.25C14.5 21.425 15.175 20.75 16 20.75C16.825 20.75 17.5 21.425 17.5 22.25C17.5 23.075 16.825 23.75 16 23.75Z" fill="#333333"/>
</svg>
