<svg width="24" height="24" viewBox="0 0 40 40" fill="none" xmlns="http://www.w3.org/2000/svg">
<path d="M18.1152 4.45442C19.6503 3.84853 21.3497 3.84853 22.8848 4.45442L33.8721 8.78984C35.1541 9.29654 36 10.5622 36 11.971V27.0268C36.0001 27.7156 35.7968 28.3882 35.4169 28.9561C35.0371 29.5239 34.4985 29.9604 33.8721 30.2079L22.8848 34.5456C21.3497 35.1515 19.6503 35.1515 18.1152 34.5456L7.13014 30.2079C6.50334 29.9608 5.96425 29.5245 5.58398 28.9566C5.2037 28.3887 5.00009 27.7158 5 27.0268V11.971C5.00009 11.2819 5.2037 10.6091 5.58398 10.0412C5.96425 9.47326 6.50334 9.03698 7.13014 8.78984L18.1152 4.45442ZM22.0899 6.57441C21.0665 6.17048 19.9335 6.17048 18.9101 6.57441L15.8456 7.78551L28.2234 12.5936L32.5369 10.6985L22.0899 6.57441ZM33.7857 12.6185L21.6071 17.9765V32.5824C21.771 32.5392 21.9304 32.4869 22.0899 32.4233L33.0771 28.0879C33.2859 28.0052 33.4654 27.8596 33.5919 27.6702C33.7184 27.4807 33.7859 27.2564 33.7857 27.0268V12.6208V12.6185ZM19.3929 32.5824V17.9765L7.21429 12.6208V27.0268C7.21405 27.2564 7.28163 27.4807 7.40813 27.6702C7.53462 27.8596 7.71408 28.0052 7.92286 28.0879L18.9101 32.4233C19.0696 32.4869 19.229 32.5392 19.3929 32.5824ZM8.46314 10.6985L20.5 15.9928L25.2917 13.8842L12.7434 9.00797L8.46314 10.6985Z" fill="#333333"/>
</svg>
