<svg width="24" height="24" viewBox="0 0 40 40" fill="none" xmlns="http://www.w3.org/2000/svg">
<path fill-rule="evenodd" clip-rule="evenodd" d="M10.586 18.7225C9.7852 18.7225 9.0616 19.2002 8.74691 19.9365L6.55629 25.0626C6.40412 25.4187 6.15186 25.7229 5.83013 25.9384L4.88705 26.57C4.3327 26.9413 4 27.5645 4 28.2317V35.5697C4 36.2112 4.52005 36.7313 5.16156 36.7313H5.61965C6.00816 36.7313 6.32312 36.4163 6.32312 36.0278C6.32312 35.6393 6.63807 35.3243 7.02659 35.3243H27.1472C27.5357 35.3243 27.8507 35.6393 27.8507 36.0278C27.8507 36.4163 28.1656 36.7313 28.5541 36.7313H29.1671C29.8942 36.7313 30.4835 36.1419 30.4835 35.4149V28.3053C30.4835 27.598 30.11 26.9433 29.5011 26.5835L28.3968 25.931C28.0415 25.7209 27.7598 25.4061 27.5904 25.0296L25.2838 19.902C24.9609 19.1842 24.2469 18.7225 23.4598 18.7225H10.586ZM7.81006 31.6396C8.74427 31.6396 9.50159 30.8823 9.50159 29.9481C9.50159 29.0139 8.74427 28.2565 7.81006 28.2565C6.87586 28.2565 6.11853 29.0139 6.11853 29.9481C6.11853 30.8823 6.87586 31.6396 7.81006 31.6396ZM28.5696 29.9481C28.5696 30.8823 27.8123 31.6396 26.8781 31.6396C25.9439 31.6396 25.1866 30.8823 25.1866 29.9481C25.1866 29.0139 25.9439 28.2566 26.8781 28.2566C27.8123 28.2566 28.5696 29.0139 28.5696 29.9481ZM13.2947 31.6092C12.6719 31.6092 12.167 32.1141 12.167 32.7369C12.167 33.3597 12.6719 33.8646 13.2947 33.8646H21.1885C21.8113 33.8646 22.3162 33.3597 22.3162 32.7369C22.3162 32.1141 21.8113 31.6092 21.1885 31.6092H13.2947Z" fill="#202020"/>
<path fill-rule="evenodd" clip-rule="evenodd" d="M36.0002 2C36.0002 2 32.3178 2.63436 30.4147 4.85463C28.9004 6.62127 27.1853 7.91935 26.4412 8.48255C26.2501 8.62716 26.1231 8.72332 26.0799 8.76652C25.8684 8.97797 25.061 10.0199 24.8112 10.9868C24.5736 11.9062 24.4436 12.5429 24.8112 13.4185C25.0054 13.8813 25.4258 14.0764 25.8341 14.2659C26.2821 14.4739 26.7156 14.6751 26.82 15.2159C26.9083 15.6734 26.6962 15.9953 26.4768 16.3284C26.2842 16.6207 26.086 16.9216 26.0799 17.3304C26.0663 18.2443 26.3325 18.7776 26.82 19.5507C27.0943 19.9857 27.4565 20.206 27.8156 20.4243C28.1914 20.6529 28.5639 20.8794 28.8288 21.348C29.0582 21.7539 29.06 22.1475 29.0617 22.5347C29.0635 22.9546 29.0653 23.3671 29.3574 23.7797C30.1505 24.8999 32.635 25.0485 32.635 25.0485H33.6739V37.489H35.9999V25.0485H36.0002V2Z" fill="#202020"/>
</svg>
