<svg width="24" height="24" viewBox="0 0 40 40" fill="none" xmlns="http://www.w3.org/2000/svg">
<path d="M21.6667 11.6666H16.6667C16.2247 11.6666 15.8008 11.8422 15.4882 12.1548C15.1756 12.4674 15 12.8913 15 13.3333V26.6666C15 27.1087 15.1756 27.5326 15.4882 27.8452C15.8008 28.1577 16.2247 28.3333 16.6667 28.3333C17.1087 28.3333 17.5327 28.1577 17.8452 27.8452C18.1578 27.5326 18.3334 27.1087 18.3334 26.6666V23.3333H21.6667C22.9928 23.3333 24.2646 22.8065 25.2022 21.8688C26.1399 20.9312 26.6667 19.6594 26.6667 18.3333V16.6666C26.6667 15.3406 26.1399 14.0688 25.2022 13.1311C24.2646 12.1934 22.9928 11.6666 21.6667 11.6666ZM23.3334 18.3333C23.3334 18.7753 23.1578 19.1993 22.8452 19.5118C22.5327 19.8244 22.1087 20 21.6667 20H18.3334V15H21.6667C22.1087 15 22.5327 15.1756 22.8452 15.4881C23.1578 15.8007 23.3334 16.2246 23.3334 16.6666V18.3333ZM20 3.33331C16.7037 3.33331 13.4814 4.3108 10.7405 6.14215C7.99972 7.97351 5.86352 10.5765 4.60206 13.6219C3.3406 16.6674 3.01054 20.0185 3.65363 23.2515C4.29671 26.4845 5.88406 29.4542 8.21494 31.7851C10.5458 34.116 13.5155 35.7033 16.7485 36.3464C19.9816 36.9895 23.3327 36.6594 26.3781 35.398C29.4235 34.1365 32.0265 32.0003 33.8579 29.2595C35.6892 26.5187 36.6667 23.2963 36.6667 20C36.6667 17.8113 36.2356 15.644 35.398 13.6219C34.5605 11.5998 33.3328 9.76251 31.7852 8.21487C30.2375 6.66722 28.4002 5.43957 26.3781 4.60199C24.356 3.76441 22.1887 3.33331 20 3.33331ZM20 33.3333C17.363 33.3333 14.7851 32.5513 12.5924 31.0862C10.3998 29.6212 8.69082 27.5388 7.68165 25.1024C6.67249 22.6661 6.40844 19.9852 6.92291 17.3988C7.43738 14.8124 8.70726 12.4366 10.572 10.5719C12.4367 8.70719 14.8124 7.43731 17.3988 6.92284C19.9853 6.40837 22.6661 6.67242 25.1025 7.68159C27.5388 8.69075 29.6212 10.3997 31.0863 12.5924C32.5514 14.785 33.3334 17.3629 33.3334 20C33.3334 23.5362 31.9286 26.9276 29.4281 29.4281C26.9277 31.9286 23.5363 33.3333 20 33.3333Z" fill="black"/>
</svg>
