<svg width="24" height="24" viewBox="0 0 40 40" fill="none" xmlns="http://www.w3.org/2000/svg">
<path d="M7.50004 20C9.80123 20 11.6667 18.1345 11.6667 15.8333C11.6667 13.5321 9.80123 11.6666 7.50004 11.6666C5.19885 11.6666 3.33337 13.5321 3.33337 15.8333C3.33337 18.1345 5.19885 20 7.50004 20Z" fill="#202020"/>
<path d="M15 13.3333C17.3012 13.3333 19.1667 11.4679 19.1667 9.16667C19.1667 6.86548 17.3012 5 15 5C12.6989 5 10.8334 6.86548 10.8334 9.16667C10.8334 11.4679 12.6989 13.3333 15 13.3333Z" fill="#202020"/>
<path d="M25 13.3333C27.3012 13.3333 29.1667 11.4679 29.1667 9.16667C29.1667 6.86548 27.3012 5 25 5C22.6989 5 20.8334 6.86548 20.8334 9.16667C20.8334 11.4679 22.6989 13.3333 25 13.3333Z" fill="#202020"/>
<path d="M32.5 20C34.8012 20 36.6667 18.1345 36.6667 15.8333C36.6667 13.5321 34.8012 11.6666 32.5 11.6666C30.1989 11.6666 28.3334 13.5321 28.3334 15.8333C28.3334 18.1345 30.1989 20 32.5 20Z" fill="#202020"/>
<path d="M28.9 24.7667C27.45 23.0667 26.2334 21.6167 24.7667 19.9167C24 19.0167 23.0167 18.1167 21.85 17.7167C21.6667 17.65 21.4834 17.6 21.3 17.5667C20.8834 17.5 20.4334 17.5 20 17.5C19.5667 17.5 19.1167 17.5 18.6834 17.5833C18.5 17.6167 18.3167 17.6667 18.1334 17.7333C16.9667 18.1333 16 19.0333 15.2167 19.9333C13.7667 21.6333 12.55 23.0833 11.0834 24.7833C8.90004 26.9667 6.2167 29.3833 6.7167 32.7667C7.20004 34.4667 8.4167 36.15 10.6 36.6333C11.8167 36.8833 15.7 35.9 19.8334 35.9H20.1334C24.2667 35.9 28.15 36.8667 29.3667 36.6333C31.55 36.15 32.7667 34.45 33.25 32.7667C33.7667 29.3667 31.0834 26.95 28.9 24.7667Z" fill="#202020"/>
</svg>
