<svg width="24" height="24" viewBox="0 0 40 40" fill="none" xmlns="http://www.w3.org/2000/svg">
<path d="M20.5 35C29.0604 35 36 28.0604 36 19.5C36 10.9396 29.0604 4 20.5 4C11.9396 4 5 10.9396 5 19.5C5 28.0604 11.9396 35 20.5 35Z" fill="#333333"/>
<path d="M27.305 21.0406C30.1855 18.6582 30.4715 14.2492 27.9437 11.1928C25.4159 8.13632 21.0315 7.58982 18.151 9.97214C15.2704 12.3545 14.9845 16.7635 17.5123 19.8199C20.0401 22.8764 24.4244 23.4229 27.305 21.0406Z" fill="#F5F5F5"/>
<path d="M27.3715 14.9533C28.3015 16.4517 27.7848 18.2083 25.8732 19.3967C23.9615 20.585 22.1532 20.275 21.2232 18.7767C20.6548 17.8467 20.6548 16.8133 21.2232 15.8833C20.3448 15.8833 19.6215 15.5217 19.1048 14.7467C18.2265 13.3517 18.7432 11.6467 20.3965 10.665C21.9982 9.68333 23.7548 9.94167 24.6332 11.3367C25.1498 12.1633 25.1498 12.99 24.7365 13.7133C25.8215 13.5583 26.7515 14.0233 27.3715 14.9533ZM25.7698 15.78C25.3048 15.005 24.2715 14.7983 23.3932 15.3667C22.4632 15.935 22.2048 16.9167 22.6698 17.6917C23.1865 18.5183 24.1682 18.725 25.0982 18.1567C25.9765 17.5883 26.2348 16.555 25.7698 15.78ZM20.4998 13.9717C20.9648 14.695 21.8948 14.9533 22.7215 14.385C23.5482 13.8683 23.7548 12.9383 23.2898 12.215C22.8248 11.4917 21.8948 11.285 21.0682 11.8017C20.2932 12.3183 20.0865 13.1967 20.4998 13.9717Z" fill="#333333"/>
</svg>
