<svg width="24" height="24" viewBox="0 0 40 40" fill="none" xmlns="http://www.w3.org/2000/svg">
<path d="M8.33337 15.25V11.6666C8.33337 9.83331 9.83337 8.33331 11.6667 8.33331H28.3334C30.1667 8.33331 31.6667 9.83331 31.6667 11.6666V15.2666C29.7334 15.95 28.3334 17.7833 28.3334 19.95V23.3333H11.6667V19.9333C11.6667 17.7833 10.2667 15.9333 8.33337 15.25ZM33.3334 16.6666C31.5 16.6666 30 18.1666 30 20V25H10V20C10 19.1159 9.64885 18.2681 9.02373 17.643C8.39861 17.0178 7.55076 16.6666 6.66671 16.6666C5.78265 16.6666 4.93481 17.0178 4.30968 17.643C3.68456 18.2681 3.33337 19.1159 3.33337 20V28.3333C3.33337 30.1666 4.83337 31.6666 6.66671 31.6666V35H10V31.6666H30V35H33.3334V31.6666C35.1667 31.6666 36.6667 30.1666 36.6667 28.3333V20C36.6667 18.1666 35.1667 16.6666 33.3334 16.6666Z" fill="#202020"/>
</svg>
