<svg width="24" height="24" viewBox="0 0 40 40" fill="none" xmlns="http://www.w3.org/2000/svg">
<path fill-rule="evenodd" clip-rule="evenodd" d="M28.0004 20.9996C28.0004 20.4473 28.4481 19.9996 29.0004 19.9996C29.5526 19.9996 30.0004 20.4473 30.0004 20.9996V21.9996C30.0004 22.5519 29.5526 22.9996 29.0004 22.9996C28.4481 22.9996 28.0004 22.5519 28.0004 21.9996V20.9996Z" fill="#202020"/>
<path fill-rule="evenodd" clip-rule="evenodd" d="M30.9998 20.9996C30.9998 20.4473 31.4475 19.9996 31.9998 19.9996C32.552 19.9996 32.9998 20.4473 32.9998 20.9996V21.9996C32.9998 22.5519 32.552 22.9996 31.9998 22.9996C31.4475 22.9996 30.9998 22.5519 30.9998 21.9996V20.9996Z" fill="#202020"/>
<path fill-rule="evenodd" clip-rule="evenodd" d="M9.00037 21.4996C9.00037 20.6712 9.67194 19.9996 10.5004 19.9996H25.5004C26.3288 19.9996 27.0004 20.6712 27.0004 21.4996C27.0004 22.3281 26.3288 22.9996 25.5004 22.9996H10.5004C9.67194 22.9996 9.00037 22.3281 9.00037 21.4996Z" fill="#202020"/>
<path fill-rule="evenodd" clip-rule="evenodd" d="M30.818 14.9189C29.8488 14.19 28.9471 14.0226 27.8644 13.7094C25.4751 13.0183 24.406 10.1997 24.2953 8.00201C23.9794 9.47611 24.1333 10.9664 24.3358 11.941C24.6328 13.4044 25.4535 14.7786 26.7737 15.5156C27.886 16.1285 29.3601 16.1798 30.5481 16.7899C31.6982 17.3758 32.6539 18.1641 32.9968 18.6582C32.9995 18.6582 32.3785 16.0934 30.818 14.9189Z" fill="#202020"/>
<path fill-rule="evenodd" clip-rule="evenodd" d="M20.501 4C11.401 4 4 11.3996 4 20.5021C4 29.6004 11.401 37 20.501 37C29.5969 37 37 29.6004 37 20.5021C37 11.4016 29.5969 4 20.501 4ZM35.2347 20.662C35.2367 23.6936 34.3067 26.6426 32.5853 29.1136C32.2462 29.6003 31.5532 29.6335 31.1346 29.2133L11.9001 9.90715C11.4822 9.4877 11.5169 8.79631 12.003 8.45822C14.4669 6.7445 17.4017 5.81873 20.4182 5.81926C28.5879 5.81926 35.2347 12.4753 35.2347 20.662ZM5.93935 20.446C5.93935 17.2694 6.94711 14.3226 8.65661 11.9155C8.99836 11.4343 9.68724 11.4046 10.1034 11.8231L29.1959 31.0215C29.6097 31.4376 29.5793 32.1217 29.1017 32.4628C26.6323 34.2263 23.6672 35.1804 20.6171 35.1766C12.5219 35.1766 5.93935 28.5662 5.93935 20.446Z" fill="#202020" stroke="#202020"/>
</svg>
