<svg width="24" height="24" viewBox="0 0 40 40" fill="none" xmlns="http://www.w3.org/2000/svg">
<path d="M36.15 28.5714H35.3C33.9166 28.5714 32.8669 28.1204 32.3202 27.6125C31.8474 27.1727 31.2758 26.8571 30.6324 26.8571H29.7665C29.1232 26.8571 28.5515 27.1727 28.0787 27.6125C27.5331 28.1204 26.4834 28.5714 25.1 28.5714C23.7166 28.5714 22.6669 28.1204 22.1202 27.6125C21.6474 27.1727 21.0758 26.8571 20.4324 26.8571H19.5665C18.9232 26.8571 18.3515 27.1727 17.8787 27.6125C17.3331 28.1204 16.2834 28.5714 14.9 28.5714C13.5166 28.5714 12.4669 28.1204 11.9202 27.6125C11.4474 27.1727 10.8758 26.8571 10.2324 26.8571H9.3665C8.72316 26.8571 8.15153 27.1727 7.67872 27.6125C7.13313 28.1204 6.08338 28.5714 4.7 28.5714H3.85C3.38037 28.5714 3 28.955 3 29.4286V31.1429C3 31.6164 3.38037 32 3.85 32H4.7C6.75169 32 8.56325 31.347 9.8 30.2943C11.0367 31.3475 12.8483 32 14.9 32C16.9517 32 18.7633 31.347 20 30.2943C21.2367 31.3475 23.0483 32 25.1 32C27.1517 32 28.9633 31.347 30.2 30.2943C31.4368 31.3475 33.2483 32 35.3 32H36.15C36.6196 32 37 31.6164 37 31.1429V29.4286C37 28.955 36.6196 28.5714 36.15 28.5714ZM14.9 26.8571V21.7143H25.1V26.8571C26.1158 26.8571 26.7394 26.5271 26.927 26.3525C27.4141 25.8993 27.947 25.5843 28.5 25.3845V13.1429C28.5 12.1979 29.2629 11.4286 30.2 11.4286C31.1371 11.4286 31.9 12.1979 31.9 13.1429V14C31.9 14.4736 32.2804 14.8571 32.75 14.8571H34.45C34.9196 14.8571 35.3 14.4736 35.3 14V13.1429C35.3 10.3068 33.0124 8 30.2 8C27.3876 8 25.1 10.3068 25.1 13.1429V18.2857H14.9V13.1429C14.9 12.1979 15.6629 11.4286 16.6 11.4286C17.5371 11.4286 18.3 12.1979 18.3 13.1429V14C18.3 14.4736 18.6804 14.8571 19.15 14.8571H20.85C21.3196 14.8571 21.7 14.4736 21.7 14V13.1429C21.7 10.3068 19.4124 8 16.6 8C13.7876 8 11.5 10.3068 11.5 13.1429V25.3839C12.053 25.5837 12.5859 25.8993 13.073 26.352C13.2606 26.5271 13.8843 26.8571 14.9 26.8571Z" fill="#202020"/>
</svg>
