<svg width="24" height="24" viewBox="0 0 40 40" fill="none" xmlns="http://www.w3.org/2000/svg">
<path d="M30.4771 6.0966C27.161 2.799 21.0958 3.46133 16.9436 7.59039C14.6763 9.84516 13.3725 13.0441 13.3442 15.2848C13.3158 17.5114 13.7126 20.7667 11.4311 23.0356L6.41451 28.0102C5.86183 28.5598 5.86183 29.4476 6.41451 30.0113C6.96718 30.5609 7.85996 30.5609 8.4268 30.0113L13.4292 25.0226C15.7108 22.7537 18.9843 23.1483 21.2233 23.1201C23.4624 23.092 26.6934 21.7955 28.9608 19.5407C33.1129 15.4257 33.7931 9.39421 30.4771 6.0966ZM17.4396 19.0475C15.2715 16.8913 15.9517 12.5509 18.9418 9.57741C21.9319 6.60393 26.2824 5.92749 28.4648 8.08362C30.633 10.2397 29.9527 14.5802 26.9626 17.5537C23.9725 20.5272 19.622 21.2036 17.4396 19.0475ZM28.3231 26.5446C29.0741 26.5446 29.7969 26.8405 30.3212 27.376C31.4265 28.4752 31.4265 30.265 30.3212 31.3642C29.7969 31.8856 29.0741 32.1815 28.3231 32.1815C27.572 32.1815 26.8493 31.8856 26.3249 31.3501C25.2196 30.2509 25.2196 28.4611 26.3249 27.3619C26.8493 26.8405 27.572 26.5446 28.3231 26.5446ZM28.3231 23.7261C27.2007 23.7239 26.1029 24.0532 25.1691 24.6723C24.2352 25.2914 23.5073 26.1724 23.0776 27.2035C22.648 28.2347 22.536 29.3694 22.7559 30.464C22.9758 31.5585 23.5176 32.5634 24.3126 33.3512C25.418 34.4504 26.8776 35 28.3231 35C29.4454 35.0022 30.5432 34.6729 31.4771 34.0538C32.4109 33.4347 33.1388 32.5537 33.5685 31.5226C33.9981 30.4914 34.1101 29.3567 33.8902 28.2622C33.6703 27.1677 33.1285 26.1627 32.3335 25.3749C31.8068 24.8515 31.1815 24.4365 30.4933 24.1535C29.8052 23.8706 29.0677 23.7254 28.3231 23.7261Z" fill="#333333"/>
</svg>
