<svg width="24" height="24" viewBox="0 0 24 24" fill="none" xmlns="http://www.w3.org/2000/svg">
<circle cx="12" cy="12" r="11.5" fill="white" stroke="#E7946D"/>
<path d="M16.8 10.5342V6.59998H15.6V7.79998H8.4V6.59998H7.2V10.5342C6.486 10.95 6 11.715 6 12.6V15C6 15.1591 6.06321 15.3117 6.17574 15.4242C6.28826 15.5368 6.44087 15.6 6.6 15.6H7.2V18H8.4V15.6H15.6V18H16.8V15.6H17.4C17.5591 15.6 17.7117 15.5368 17.8243 15.4242C17.9368 15.3117 18 15.1591 18 15V12.6C18 11.715 17.5134 10.95 16.8 10.5342ZM15.6 8.99998V10.2H12.6V8.99998H15.6ZM8.4 8.99998H11.4V10.2H8.4V8.99998ZM16.8 14.4H7.2V12.6C7.2 11.9382 7.7382 11.4 8.4 11.4H15.6C16.2618 11.4 16.8 11.9382 16.8 12.6V14.4Z" fill="#E7946D"/>
</svg>
