<svg width="24" height="24" viewBox="0 0 24 24" fill="none" xmlns="http://www.w3.org/2000/svg">
<circle cx="12" cy="12" r="11.5" fill="white" stroke="#E7946D"/>
<path d="M16.421 5.68457H10.1052C9.40861 5.68457 8.84209 6.2511 8.84209 6.94773V10.4757L5.86924 13.4486C5.78094 13.5369 5.72081 13.6494 5.69645 13.7719C5.6721 13.8944 5.6846 14.0214 5.7324 14.1368C5.78019 14.2522 5.86112 14.3508 5.96495 14.4202C6.06879 14.4896 6.19088 14.5266 6.31577 14.5267V17.6846C6.31577 17.8521 6.38231 18.0127 6.50076 18.1312C6.6192 18.2496 6.77984 18.3161 6.94735 18.3161H17.0526C17.2201 18.3161 17.3808 18.2496 17.4992 18.1312C17.6177 18.0127 17.6842 17.8521 17.6842 17.6846V6.94773C17.6842 6.2511 17.1177 5.68457 16.421 5.68457ZM11.3684 17.053H7.57893V13.525L9.47367 11.6303L11.3684 13.525V17.053ZM16.421 17.053H12.6316V14.5267C12.7566 14.527 12.8789 14.4901 12.9829 14.4207C13.087 14.3514 13.168 14.2527 13.2159 14.1372C13.2637 14.0217 13.2762 13.8945 13.2516 13.7719C13.2271 13.6493 13.1667 13.5368 13.0781 13.4486L10.1052 10.4757V6.94773H16.421V17.053Z" fill="#E7946D"/>
<path d="M11.3686 8.21094H12.6318V9.4741H11.3686V8.21094ZM13.8949 8.21094H15.1581V9.4741H13.8949V8.21094ZM13.8949 10.7568H15.1581V12.0004H13.8949V10.7568ZM13.8949 13.2636H15.1581V14.5267H13.8949V13.2636ZM8.84229 13.8951H10.1054V15.1583H8.84229V13.8951Z" fill="#E7946D"/>
</svg>
