<svg width="24" height="24" viewBox="0 0 24 24" fill="none" xmlns="http://www.w3.org/2000/svg">
<circle cx="12" cy="12" r="11.5" fill="white" stroke="#E7946D"/>
<path d="M8.84229 11.3687H10.1054V12.6318H8.84229V11.3687ZM8.84229 13.895H10.1054V15.1581H8.84229V13.895ZM11.3686 11.3687H12.6318V12.6318H11.3686V11.3687ZM11.3686 13.895H12.6318V15.1581H11.3686V13.895ZM13.8949 11.3687H15.1581V12.6318H13.8949V11.3687ZM13.8949 13.895H15.1581V15.1581H13.8949V13.895Z" fill="#E7946D"/>
<path d="M7.57908 18.3161H16.4212C17.1178 18.3161 17.6843 17.7496 17.6843 17.053V8.21089C17.6843 7.51425 17.1178 6.94773 16.4212 6.94773H15.158V5.68457H13.8949V6.94773H10.1054V5.68457H8.84223V6.94773H7.57908C6.88244 6.94773 6.31592 7.51425 6.31592 8.21089V17.053C6.31592 17.7496 6.88244 18.3161 7.57908 18.3161ZM16.4212 9.47404L16.4218 17.053H7.57908V9.47404H16.4212Z" fill="#E7946D"/>
</svg>
