<svg width="24" height="24" viewBox="0 0 24 24" fill="none" xmlns="http://www.w3.org/2000/svg">
<circle cx="12" cy="12" r="11.5" fill="white" stroke="#E7946D"/>
<path d="M12.0002 10.6771C10.1054 10.6771 10.1054 10.0504 10.1054 9.67607C10.1054 9.19159 10.7695 8.67507 12.0002 8.67507C12.7158 8.67507 13.0527 8.93462 13.2063 9.22134C13.3352 9.46203 13.5455 9.68993 13.8185 9.68473L14.2739 9.67607H14.7212C14.9974 9.67607 15.2244 9.45064 15.1752 9.1789C15.0037 8.22999 14.3381 7.14161 12.9475 6.79419V6.18408C12.9475 5.90794 12.7237 5.68408 12.4475 5.68408H11.5528C11.2767 5.68408 11.0528 5.90794 11.0528 6.18408V6.75816C9.18554 7.08949 8.21069 8.38678 8.21069 9.67607C8.21069 10.7972 8.70332 12.6791 12.0002 12.6791C13.8949 12.6791 13.8949 13.3558 13.8949 13.6801C13.8949 14.0955 13.3075 14.6811 12.0002 14.6811C10.9654 14.6811 10.4952 14.3791 10.2817 14.1036C10.1212 13.8965 9.90256 13.6801 9.64051 13.6801H8.71069C8.43455 13.6801 8.20812 13.9057 8.26438 14.1761C8.45604 15.0971 9.1968 16.2953 11.0528 16.603V17.1841C11.0528 17.4602 11.2767 17.6841 11.5528 17.6841H12.4475C12.7237 17.6841 12.9475 17.4602 12.9475 17.1841V16.598C14.8148 16.2667 15.7896 14.9694 15.7896 13.6801C15.7896 12.559 15.297 10.6771 12.0002 10.6771Z" fill="#E7946D"/>
</svg>
