<svg width="24" height="24" viewBox="0 0 24 24" fill="none" xmlns="http://www.w3.org/2000/svg">
<circle cx="12" cy="12" r="11.5" fill="white" stroke="#E7946D"/>
<path d="M9.29966 11.4C9.79671 11.4 10.1997 10.997 10.1997 10.5C10.1997 10.0029 9.79671 9.59998 9.29966 9.59998C8.8026 9.59998 8.39966 10.0029 8.39966 10.5C8.39966 10.997 8.8026 11.4 9.29966 11.4Z" fill="#E7946D"/>
<path d="M11.0997 13.1999L10.1997 11.9999L8.39966 14.3999H15.5997L12.8997 10.7999L11.0997 13.1999Z" fill="#E7946D"/>
<path d="M16.7995 7.19995H7.19951C6.53771 7.19995 5.99951 7.73815 5.99951 8.39995V15.5999C5.99951 16.2618 6.53771 16.7999 7.19951 16.7999H16.7995C17.4613 16.7999 17.9995 16.2618 17.9995 15.5999V8.39995C17.9995 7.73815 17.4613 7.19995 16.7995 7.19995ZM7.19951 15.5999V8.39995H16.7995L16.8007 15.5999H7.19951Z" fill="#E7946D"/>
</svg>
