<svg width="24" height="24" viewBox="0 0 24 24" fill="none" xmlns="http://www.w3.org/2000/svg">
<circle cx="12" cy="12" r="11.5" fill="white" stroke="#E7946D"/>
<path d="M10.737 15.7896C11.858 15.7894 12.9467 15.4141 13.8298 14.7235L16.6062 17.4999L17.4993 16.6069L14.7229 13.8304C15.4138 12.9473 15.7893 11.8583 15.7896 10.737C15.7896 7.95106 13.5229 5.68433 10.737 5.68433C7.95106 5.68433 5.68433 7.95106 5.68433 10.737C5.68433 13.5229 7.95106 15.7896 10.737 15.7896ZM10.737 6.94748C12.8269 6.94748 14.5264 8.64706 14.5264 10.737C14.5264 12.8269 12.8269 14.5264 10.737 14.5264C8.64706 14.5264 6.94748 12.8269 6.94748 10.737C6.94748 8.64706 8.64706 6.94748 10.737 6.94748Z" fill="#E7946D"/>
<path d="M11.6288 9.84388C11.8681 10.0839 12.0001 10.4009 12.0001 10.7369H13.2633C13.2639 10.405 13.1986 10.0762 13.0714 9.76966C12.9441 9.46309 12.7573 9.18478 12.5218 8.95083C11.5656 7.99588 9.90773 7.99588 8.95215 8.95083L9.84394 9.84515C10.3239 9.36641 11.1513 9.36767 11.6288 9.84388Z" fill="#E7946D"/>
</svg>
