<svg width="24" height="24" viewBox="0 0 24 24" fill="none" xmlns="http://www.w3.org/2000/svg">
<circle cx="12" cy="12" r="11.5" fill="white" stroke="#E7946D"/>
<path d="M9.40113 16.2102L9.40058 14.2734L9.40055 14.1722H9.2994H7.95C7.69664 14.1722 7.45469 14.0768 7.27712 13.9086C7.09974 13.7406 7.00118 13.5138 7.00118 13.2787V8.44728C7.00118 7.95917 7.42105 7.55376 7.95 7.55376H16.05C16.5789 7.55376 16.9988 7.95917 16.9988 8.44728V10.6328V10.7132L17.0771 10.7313C17.3995 10.8061 17.6943 10.9609 17.9315 11.179L18.1012 11.3351V11.1046V8.44728C18.1012 8.19062 18.0478 7.93661 17.9443 7.69981C17.8407 7.46303 17.6892 7.24825 17.4984 7.06758C17.3077 6.88693 17.0816 6.7439 16.8332 6.6464C16.5847 6.54891 16.3186 6.49879 16.05 6.49879H7.95C7.40771 6.49879 6.88659 6.70282 6.50155 7.06758C6.11633 7.43252 5.89882 7.92869 5.89882 8.44728V13.2787C5.89882 13.7973 6.11633 14.2934 6.50155 14.6584C6.88659 15.0231 7.40771 15.2272 7.95 15.2272H8.29882V16.6891V16.6892C8.29891 16.841 8.34362 16.9893 8.42736 17.1176C8.51106 17.2459 8.63029 17.3488 8.77112 17.4155C8.91193 17.4823 9.0692 17.5104 9.22546 17.4972C9.38172 17.4839 9.53147 17.4297 9.65791 17.34C9.65792 17.34 9.65792 17.34 9.65792 17.34L10.9329 16.4363L10.9629 16.4151L10.9722 16.3796L11.2098 15.4798L11.2099 15.4796C11.2502 15.3256 11.3106 15.1776 11.3879 15.0365L11.2407 14.9053L9.40113 16.2102Z" fill="#E7946D" stroke="#E7946D" stroke-width="0.202367"/>
<path d="M15.6588 11.5281L12.1176 14.8828C11.911 15.0782 11.7644 15.3232 11.6934 15.5916L11.4186 16.6323C11.3913 16.7358 11.3928 16.8443 11.4229 16.9472C11.453 17.0501 11.5107 17.1438 11.5904 17.2192C11.6701 17.2947 11.769 17.3493 11.8776 17.3777C11.9862 17.4061 12.1008 17.4074 12.21 17.3815L13.308 17.1217C13.5915 17.0546 13.8504 16.9157 14.0568 16.7198L17.598 13.3651C17.7254 13.2445 17.8264 13.1013 17.8953 12.9437C17.9642 12.7861 17.9997 12.6172 17.9997 12.4466C17.9997 12.276 17.9642 12.1071 17.8953 11.9495C17.8264 11.7919 17.7254 11.6487 17.598 11.5281C17.4707 11.4074 17.3196 11.3117 17.1532 11.2465C16.9868 11.1812 16.8085 11.1476 16.6284 11.1476C16.4484 11.1476 16.2701 11.1812 16.1037 11.2465C15.9373 11.3117 15.7862 11.4074 15.6588 11.5281Z" fill="#E7946D"/>
</svg>
