<svg width="66" height="66" viewBox="0 0 66 66" fill="none" xmlns="http://www.w3.org/2000/svg">
<path d="M66 33.0031C66 34.1175 65.9466 35.218 65.8398 36.3047C65.803 36.6785 65.7597 37.048 65.71 37.4132C65.682 37.6215 65.6524 37.8305 65.6203 38.038C64.4272 45.7498 60.5406 52.7896 54.6501 57.9084C48.7597 63.0272 41.2462 65.8938 33.443 65.9998C33.2964 65.9998 33.149 65.9998 33.0016 65.9998C31.9517 65.9998 30.9136 65.9512 29.8873 65.854C13.1213 64.2857 0 50.175 0 32.9999C0 14.7747 14.7754 0 33.0016 0C51.2278 0 66 14.7779 66 33.0031Z" fill="#FFFFFE"/>
<path opacity="0.5" d="M65.8363 36.3049C65.7995 36.6787 65.7562 37.0482 65.7065 37.4135C65.6785 37.6217 65.6489 37.8308 65.6168 38.0382C64.4237 45.7501 60.5371 52.7899 54.6466 57.9087C48.7562 63.0274 41.2427 65.8941 33.4395 66C33.2929 66 33.1455 66 32.9981 66C31.9483 66 30.9101 65.9514 29.8838 65.8542L15.7476 50.7368L16.3147 50.2033L35.2882 32.4699L36.5514 31.2885L39.6185 28.421L41.3062 26.8423L43.1773 25.4118C43.4433 25.7322 43.6844 25.9724 43.8838 26.0814C43.9639 26.1254 44.2042 26.26 44.4029 26.1687C44.6015 26.0774 44.6792 25.8387 44.7233 25.7065C44.8747 25.2091 45.0261 24.3008 45.111 23.2892L45.8183 22.6276L49.9034 18.8086C55.2136 24.6407 60.5245 30.4728 65.8363 36.3049Z" fill="#EAEDE7"/>
<path d="M36.6059 31.0448C36.5034 31.9419 35.2722 33.0304 32.8692 35.2723C30.1001 37.8546 31.5676 36.6211 28.5341 39.4285C25.4775 42.2576 22.3415 45.0057 19.3001 47.8483C17.5171 49.5095 16.6263 50.3401 15.9311 50.2224C15.8077 50.2015 15.8509 50.1783 14.583 48.9641C13.8701 48.28 13.7867 48.2176 13.685 48.0029C13.4824 47.5792 13.5344 47.2388 13.6954 46.0197C13.9606 44.0029 13.9437 43.9708 14.0527 43.8218C14.6775 42.96 15.6339 43.4526 16.3852 42.5739C17.0797 41.761 16.6031 40.9151 17.2663 40.4914C18.0177 40.0108 18.8595 40.835 19.4739 40.3689C20.1948 39.8218 19.4739 38.356 20.1796 37.8562C20.7996 37.4189 21.7648 38.2527 22.2935 37.7553C22.5258 37.5366 22.5402 37.189 22.5674 36.5186C22.6059 35.5486 22.3487 35.2795 22.5674 34.9888C22.8229 34.65 23.4229 34.6812 24.1694 34.7204C25.3165 34.7805 25.4551 34.996 25.7538 34.8478C26.5188 34.4689 25.7106 32.8742 26.49 31.209C26.7703 30.6107 26.9626 30.6283 29.2983 28.5834C31.2848 26.8445 31.3401 26.6611 31.8031 26.5706C33.8296 26.1821 36.8494 28.8998 36.6059 31.0448Z" fill="#4D5E3B" stroke="#4D5E3B"/>
<path d="M31.9406 33.4156L18.0724 46.3789C17.8947 46.545 17.8853 46.8238 18.0515 47.0015C18.2176 47.1792 18.4964 47.1886 18.6741 47.0225L32.5423 34.0592C32.72 33.8931 32.7294 33.6143 32.5633 33.4365C32.3971 33.2588 32.1183 33.2494 31.9406 33.4156Z" fill="white"/>
<g opacity="0.5">
<path opacity="0.5" d="M50.69 22.4086C50.6844 22.2588 50.6748 22.1099 50.6612 21.9609C50.6612 21.9553 50.6612 21.9497 50.6612 21.9449C50.6548 21.8744 50.6476 21.8039 50.6404 21.7342V21.7142C50.6324 21.6389 50.6235 21.5644 50.6139 21.4891C50.6043 21.4138 50.5931 21.3369 50.5819 21.26C50.5707 21.1831 50.5579 21.1078 50.5442 21.0318C50.5306 20.9557 50.521 20.9012 50.5082 20.8355C50.5082 20.8171 50.5018 20.7995 50.4978 20.781C50.4842 20.713 50.4705 20.6449 50.4553 20.5776C50.4401 20.5103 50.4217 20.4262 50.4033 20.3509C50.3848 20.2756 50.3664 20.2011 50.3464 20.1259C50.3264 20.0506 50.3079 19.9841 50.2879 19.9128L50.2783 19.8808C50.2583 19.8135 50.2383 19.7462 50.2174 19.6789C50.1966 19.6116 50.1702 19.5307 50.1453 19.457C50.1205 19.3834 50.0949 19.3097 50.0652 19.236C50.0356 19.1623 50.0196 19.1102 49.9955 19.0478C49.9715 18.9853 49.9459 18.9188 49.9154 18.8547C49.9098 18.8395 49.9034 18.8235 49.897 18.8083C49.8626 18.7282 49.8273 18.6417 49.7905 18.5592C49.7625 18.4935 49.7328 18.4286 49.7024 18.3637C49.6719 18.2988 49.6335 18.2171 49.5974 18.1443L49.5854 18.121C49.5518 18.0521 49.5174 17.9841 49.4813 17.9168C49.4453 17.8495 49.406 17.7734 49.366 17.7029C49.3615 17.6935 49.3564 17.6844 49.3507 17.6757C49.3211 17.6212 49.2907 17.5676 49.2586 17.5155C49.2418 17.4843 49.2234 17.453 49.2041 17.4226C49.1793 17.3793 49.1529 17.3361 49.124 17.2928C49.1136 17.2736 49.1016 17.2552 49.0896 17.236C49.056 17.1815 49.0215 17.127 48.9855 17.0758C48.9775 17.0622 48.9695 17.0493 48.9598 17.0357C48.9222 16.9773 48.8797 16.918 48.8429 16.8603L48.8197 16.8267C48.7796 16.7674 48.7396 16.7089 48.6963 16.6513C48.6907 16.6432 48.6851 16.6344 48.6787 16.6264C48.6386 16.5704 48.5986 16.5151 48.5553 16.4598C48.5436 16.4433 48.5308 16.4265 48.5169 16.4094C48.4848 16.3661 48.452 16.3237 48.4184 16.282C48.3799 16.2324 48.3383 16.1827 48.2998 16.1338C48.2614 16.085 48.2269 16.0441 48.1893 15.9993C48.0862 15.8759 47.9794 15.7542 47.8689 15.634C45.8366 13.7682 43.1618 12.7601 40.4036 12.8204C37.6453 12.8807 35.0172 14.0047 33.0684 15.9575C31.1196 17.9103 30.0011 20.5408 29.9467 23.299C29.8922 26.0572 30.9061 28.7297 32.7762 30.7579C32.8395 30.8164 32.9036 30.874 32.9685 30.9301C33.0334 30.9862 33.0806 31.0278 33.1375 31.0751C33.1527 31.0887 33.1687 31.1015 33.1848 31.1143C33.2336 31.1552 33.2825 31.1944 33.3321 31.2345L33.373 31.2673C33.4355 31.317 33.4987 31.3658 33.562 31.4131L33.57 31.4195C33.6245 31.4612 33.679 31.4996 33.7302 31.5405C33.7471 31.5533 33.7639 31.5661 33.7815 31.5781C33.844 31.6229 33.9073 31.6678 33.9713 31.7111H33.977C34.0442 31.7567 34.1123 31.8024 34.1812 31.8464C34.2501 31.8905 34.3062 31.9265 34.3703 31.9658C34.5088 32.0531 34.6498 32.1356 34.7916 32.2141C34.8292 32.2357 34.8661 32.2557 34.9045 32.2757L34.9718 32.3126C35.0111 32.3342 35.0519 32.355 35.0912 32.3751C35.1536 32.4079 35.2161 32.4391 35.2794 32.4704C35.3427 32.5016 35.3827 32.5208 35.4348 32.5449L35.5197 32.5841L35.6158 32.6282L35.6431 32.6402L35.7464 32.6858L35.8826 32.7435L35.9779 32.7827C36.042 32.8092 36.106 32.834 36.1709 32.8628L36.4112 32.9502C36.4913 32.9774 36.5642 33.003 36.6411 33.0303C36.718 33.0575 36.7877 33.0783 36.8622 33.1007L36.8918 33.1095L37.0857 33.1664L37.1506 33.184L37.2811 33.2193L37.4149 33.2537L37.5815 33.2938H37.5863L37.7705 33.3346L37.8354 33.3482L38.0469 33.3899L38.0845 33.3963C38.1558 33.4099 38.2279 33.4219 38.2992 33.4331H38.324C38.3977 33.4452 38.4722 33.4556 38.5459 33.466C38.6196 33.4764 38.6765 33.4836 38.7422 33.4908L38.8223 33.4996C38.8895 33.5076 38.956 33.514 39.0233 33.5204H39.0385L39.2444 33.5365H39.3037C39.375 33.5413 39.4471 33.5453 39.5183 33.5485L39.6922 33.5549H39.725H39.8203H40.0062C40.9918 33.556 41.973 33.4212 42.9218 33.1544C43.082 33.1095 43.2401 33.061 43.396 33.0086C43.4761 32.9822 43.5562 32.955 43.6307 32.9285C43.8646 32.8447 44.0964 32.752 44.326 32.6506C44.6312 32.5152 44.9324 32.3654 45.2263 32.2004C45.4474 32.076 45.665 31.9425 45.8792 31.8C46.0217 31.7063 46.1619 31.6085 46.3013 31.5068C46.4407 31.4051 46.5768 31.3002 46.7122 31.1912C46.9149 31.031 47.1127 30.8556 47.3066 30.6746C47.4475 30.5432 47.584 30.4098 47.7159 30.2741C47.7816 30.2052 47.8464 30.1356 47.9105 30.0659C47.9746 29.9962 48.0371 29.9257 48.0988 29.8544C48.1604 29.7831 48.2213 29.711 48.2806 29.639C48.3703 29.5322 48.4571 29.4219 48.5409 29.3082L48.621 29.1968C48.8672 28.8633 49.0934 28.5157 49.2987 28.1556C49.367 28.0359 49.4324 27.9155 49.4949 27.7943C49.5374 27.7142 49.575 27.6341 49.6175 27.554C49.6599 27.4739 49.6976 27.3938 49.7336 27.3073C49.8845 26.9787 50.0182 26.6423 50.1341 26.2997C50.1918 26.1291 50.2455 25.9577 50.2943 25.7847C50.5641 24.825 50.6989 23.8324 50.6948 22.8355C50.6996 22.6922 50.6964 22.5504 50.69 22.4086ZM45.3617 26.347C45.3217 26.4791 45.2392 26.7226 45.0413 26.8091C44.8435 26.8956 44.6032 26.7659 44.5223 26.7218C44.3228 26.6121 44.0817 26.3702 43.8158 26.0522L41.0379 28.1756C40.6173 28.5689 40.0342 28.6562 39.6145 28.4207C39.5271 28.3725 39.4479 28.3109 39.3798 28.2381L38.9224 27.7495L37.9828 26.7443C38.6589 26.8956 39.528 26.7547 40.168 26.4751C40.4996 26.331 41.597 25.852 41.5825 25.071C41.5745 24.6513 41.2509 24.2308 40.8536 24.0538C40.8241 24.0403 40.7939 24.0282 40.7631 24.0178C40.4427 23.908 40.1463 23.9833 39.9509 24.033C39.3541 24.186 38.9745 24.584 38.9512 24.5552C38.928 24.5264 39.1066 24.407 39.2892 24.1467C39.3667 24.0392 39.4335 23.9244 39.4887 23.8039C39.5631 23.6536 39.6141 23.4929 39.6401 23.3273C39.656 23.2015 39.6434 23.0736 39.6032 22.9533C39.4711 22.5688 39.0762 22.4118 38.9817 22.3774C38.4153 22.1739 37.8779 22.528 37.7801 22.5928C37.1858 22.9845 37.0272 23.6677 36.9167 24.1443C36.8401 24.4651 36.8131 24.7957 36.8366 25.1247C36.8462 25.248 36.859 25.4074 36.8886 25.5756L36.239 24.8812L35.7216 24.3277C35.3114 23.8888 35.3891 23.1503 35.8954 22.6777L38.2183 20.0842C38.0527 19.9249 37.9125 19.7413 37.8026 19.5395C37.7641 19.4595 37.6424 19.2128 37.7505 19.0157C37.8586 18.8187 38.0965 18.7634 38.2311 18.7314C39.4326 18.4534 42.8425 18.3854 44.5359 18.9813C44.622 19.0107 44.7061 19.046 44.7874 19.087C44.9316 19.1606 45.0628 19.2572 45.1759 19.3729C45.3628 19.5726 45.4964 19.8161 45.5644 20.081C45.7574 20.7546 45.8215 21.6829 45.8047 22.6273C45.7919 24.1075 45.5764 25.6405 45.3617 26.347Z" fill="#F1F1F1"/>
</g>
<path d="M50.69 22.4089C50.6836 22.2599 50.674 22.1101 50.6612 21.9611C50.6612 21.9555 50.6612 21.9499 50.6612 21.9451C50.6548 21.8746 50.6476 21.8041 50.6404 21.7344V21.7144C50.6324 21.6391 50.6235 21.5646 50.6139 21.4893C50.6043 21.414 50.5931 21.3372 50.5819 21.2603C50.5707 21.1834 50.5579 21.1081 50.5442 21.032C50.5306 20.9559 50.521 20.9014 50.5082 20.8358C50.5082 20.8173 50.5018 20.7997 50.4978 20.7813C50.4842 20.7132 50.4706 20.6451 50.4553 20.5778C50.4401 20.5106 50.4217 20.4265 50.4033 20.3512C50.3848 20.2759 50.3664 20.2014 50.3464 20.1261C50.3264 20.0508 50.3079 19.9843 50.2879 19.913L50.2783 19.881C50.2583 19.8137 50.2383 19.7464 50.2174 19.6792C50.1966 19.6119 50.1702 19.531 50.1453 19.4573C50.1205 19.3836 50.0949 19.3099 50.0652 19.2362C50.0356 19.1625 50.0196 19.1105 49.9956 19.048C49.9715 18.9855 49.9459 18.919 49.9155 18.855C49.9098 18.8397 49.9034 18.8237 49.897 18.8085C49.8626 18.7284 49.8273 18.6419 49.7905 18.5594C49.7625 18.4937 49.7328 18.4288 49.7024 18.364C49.6719 18.2991 49.6335 18.2174 49.5975 18.1445L49.5854 18.1213C49.5518 18.0524 49.5174 17.9843 49.4813 17.917C49.4453 17.8497 49.406 17.7737 49.366 17.7032C49.3615 17.6938 49.3564 17.6847 49.3507 17.6759C49.3211 17.6215 49.2907 17.5678 49.2586 17.5157C49.2418 17.4845 49.2234 17.4533 49.2042 17.4228C49.1793 17.3796 49.1529 17.3363 49.1241 17.2931C49.1136 17.2738 49.1016 17.2554 49.0896 17.2362C49.056 17.1817 49.0215 17.1273 48.9855 17.076C48.9775 17.0624 48.9695 17.0496 48.9599 17.036C48.9222 16.9775 48.8797 16.9182 48.8429 16.8605L48.8197 16.8269C48.7796 16.7676 48.7396 16.7092 48.6963 16.6515C48.6907 16.6435 48.6851 16.6347 48.6787 16.6267C48.6386 16.5706 48.5986 16.5153 48.5553 16.4601C48.5436 16.4435 48.5308 16.4267 48.5169 16.4096C48.4848 16.3663 48.452 16.3239 48.4184 16.2822C48.3799 16.2326 48.3383 16.1829 48.2998 16.1341C48.2614 16.0852 48.2269 16.0444 48.1893 15.9995C48.0862 15.8762 47.9794 15.7544 47.8689 15.6343C47.8513 15.6134 47.8328 15.5934 47.8136 15.5734C46.8609 14.5234 45.7089 13.6733 44.4247 13.0726C43.1404 12.4719 41.7495 12.1326 40.3328 12.0744C38.9162 12.0162 37.5022 12.2403 36.1729 12.7337C34.8437 13.227 33.6259 13.9797 32.5903 14.948C31.5547 15.9164 30.722 17.0809 30.1406 18.374C29.5593 19.6671 29.2409 21.0629 29.2041 22.4802C29.1672 23.8974 29.4125 25.3079 29.9258 26.6295C30.4391 27.9511 31.2101 29.1574 32.1939 30.1782C32.383 30.3806 32.5781 30.5739 32.7795 30.7581C32.8427 30.8166 32.9068 30.8743 32.9717 30.9304C33.0366 30.9864 33.0838 31.0281 33.1407 31.0753C33.1559 31.0889 33.1719 31.1018 33.188 31.1146C33.2368 31.1554 33.2857 31.1947 33.3354 31.2347L33.3762 31.2676C33.4387 31.3172 33.502 31.3661 33.5652 31.4133L33.5732 31.4197C33.6277 31.4614 33.6822 31.4998 33.7335 31.5407C33.7503 31.5535 33.7671 31.5663 33.7847 31.5783C33.8472 31.6232 33.9105 31.668 33.9746 31.7113H33.9802C34.0475 31.757 34.1155 31.8026 34.1844 31.8467C34.2533 31.8907 34.3094 31.9268 34.3735 31.966C34.512 32.0533 34.653 32.1358 34.7948 32.2143C34.8324 32.2359 34.8693 32.256 34.9077 32.276L34.975 32.3128C35.0143 32.3344 35.0551 32.3553 35.0944 32.3753C35.1568 32.4081 35.2193 32.4394 35.2826 32.4706C35.3459 32.5019 35.3859 32.5211 35.438 32.5451L35.5229 32.5844L35.619 32.6284L35.6463 32.6404L35.7496 32.6861L35.8858 32.7437L35.9811 32.783C36.0452 32.8094 36.1093 32.8343 36.1741 32.8631L36.4144 32.9504C36.4945 32.9776 36.5674 33.0033 36.6443 33.0305C36.7212 33.0577 36.7909 33.0786 36.8654 33.101L36.895 33.1098L37.0889 33.1667L37.1538 33.1843L37.2843 33.2195L37.4181 33.254L37.5847 33.294H37.5895L37.7737 33.3349L37.8386 33.3485L38.0501 33.3901L38.0877 33.3965C38.159 33.4102 38.2311 33.4222 38.3024 33.4334H38.3272C38.4009 33.4454 38.4754 33.4558 38.5491 33.4662C38.6228 33.4766 38.6797 33.4838 38.7454 33.4911L38.8255 33.4999C38.8928 33.5079 38.9592 33.5143 39.0265 33.5207H39.0417L39.2476 33.5367H39.3069C39.3782 33.5415 39.4503 33.5455 39.5215 33.5487L39.6954 33.5551H39.7282H39.8235H40.0094C40.995 33.5562 41.9762 33.4215 42.925 33.1546C43.0852 33.1098 43.2433 33.0612 43.3992 33.0089C43.4793 32.9824 43.5594 32.9552 43.6339 32.9288C43.8678 32.8449 44.0996 32.7523 44.3292 32.6508C44.6344 32.5155 44.9356 32.3657 45.2295 32.2007C45.4506 32.0763 45.6682 31.9428 45.8824 31.8002C46.0249 31.7065 46.1651 31.6088 46.3045 31.507C46.4439 31.4053 46.58 31.3004 46.7154 31.1915C46.9181 31.0313 47.1159 30.8559 47.3098 30.6748C47.4507 30.5435 47.5872 30.41 47.7191 30.2744C47.7848 30.2055 47.8496 30.1358 47.9137 30.0661C47.9778 29.9964 48.0403 29.9259 48.102 29.8547C48.1636 29.7834 48.2237 29.7113 48.2838 29.6392C48.373 29.5324 48.4597 29.4221 48.5441 29.3084L48.6242 29.1971C48.8698 28.8632 49.0961 28.5155 49.3019 28.1558C49.3692 28.0362 49.4346 27.9158 49.4981 27.7946C49.5398 27.7145 49.5782 27.6344 49.6207 27.5543C49.6631 27.4742 49.7008 27.3941 49.7368 27.3076C49.8871 26.9786 50.0207 26.6423 50.1373 26.3C50.1942 26.1293 50.2479 25.9579 50.2975 25.7849C50.6068 24.6875 50.7393 23.5479 50.69 22.4089ZM44.4045 26.1686C44.2019 26.2599 43.9663 26.1253 43.8854 26.0813C43.686 25.9716 43.4449 25.7297 43.179 25.4117L41.3062 26.8422L40.3995 27.5351C40.0374 27.8739 39.5536 27.9844 39.1579 27.8554C39.0758 27.8298 38.9974 27.7934 38.9248 27.7473C38.8575 27.7045 38.7958 27.6534 38.7414 27.5951L37.3444 26.1013C38.0205 26.2527 38.8895 26.1117 39.5296 25.8322C39.8612 25.688 40.9586 25.209 40.9441 24.4281C40.9401 24.298 40.9101 24.17 40.856 24.0516C40.7849 23.8961 40.6837 23.7562 40.5582 23.64C40.4326 23.5238 40.2853 23.4337 40.1247 23.3748C39.9699 23.3239 39.806 23.307 39.6441 23.3252C39.5326 23.3384 39.4223 23.3601 39.3141 23.39C38.7173 23.543 38.3377 23.9411 38.3144 23.9123C38.2912 23.8834 38.4698 23.7641 38.6525 23.5038C38.7299 23.3963 38.7967 23.2815 38.8519 23.161C38.932 22.9743 39.0634 22.686 38.9849 22.3752C38.9799 22.3533 38.9737 22.3316 38.9665 22.3103C38.8343 21.9259 38.4394 21.7689 38.3449 21.7344C37.7786 21.531 37.2403 21.885 37.1434 21.9499C36.549 22.3416 36.3904 23.0248 36.2799 23.5014C36.2033 23.8222 36.1763 24.1528 36.1998 24.4818C36.2086 24.5915 36.2198 24.7309 36.243 24.8822C36.243 24.8999 36.2486 24.9175 36.2518 24.9359L35.0848 23.688C34.6746 23.2491 34.7523 22.5106 35.2586 22.038L37.5815 19.4445C37.4159 19.2852 37.2757 19.1015 37.1658 18.8998C37.1273 18.8197 37.0056 18.573 37.1137 18.376C37.2219 18.1789 37.4598 18.1237 37.5943 18.0916C38.7958 17.8137 42.2057 17.7456 43.8991 18.3415C44.1407 18.4195 44.3603 18.5537 44.5399 18.7332C44.6416 18.8379 44.7267 18.9576 44.7922 19.088C44.8489 19.2011 44.8945 19.3194 44.9284 19.4413C45.139 20.1742 45.1951 21.2034 45.1631 22.2406C45.1526 22.5947 45.1318 22.9479 45.103 23.2899C45.0181 24.3015 44.8627 25.2122 44.7153 25.7072C44.6809 25.8386 44.5984 26.0821 44.4045 26.1686Z" fill="#4D5E3B"/>
</svg>
