<svg width="23" height="19" viewBox="0 0 23 19" fill="none" xmlns="http://www.w3.org/2000/svg">
<path d="M19.55 0H3.45C2.535 0 1.65748 0.375334 1.01048 1.04343C0.363481 1.71153 0 2.61767 0 3.5625V15.4375C0 16.3823 0.363481 17.2885 1.01048 17.9566C1.65748 18.6247 2.535 19 3.45 19H19.55C20.465 19 21.3425 18.6247 21.9895 17.9566C22.6365 17.2885 23 16.3823 23 15.4375V3.5625C23 2.61767 22.6365 1.71153 21.9895 1.04343C21.3425 0.375334 20.465 0 19.55 0ZM19.55 2.375L12.075 7.68313C11.9002 7.78735 11.7019 7.84222 11.5 7.84222C11.2981 7.84222 11.0998 7.78735 10.925 7.68313L3.45 2.375H19.55Z" fill="#4D5E3B"/>
</svg>
