<svg width="22" height="20" viewBox="0 0 22 20" fill="none" xmlns="http://www.w3.org/2000/svg">
<path d="M9.14476 11.6793C10.4933 12.9493 12.125 13.9298 13.9252 14.5519L16.3607 12.7528C16.4329 12.7066 16.5185 12.6819 16.6062 12.6819C16.6938 12.6819 16.7794 12.7066 16.8516 12.7528L21.3737 15.4575C21.5454 15.5533 21.6907 15.6848 21.7982 15.8417C21.9057 15.9987 21.9724 16.1766 21.9931 16.3616C22.0138 16.5465 21.9878 16.7334 21.9173 16.9075C21.8468 17.0816 21.7337 17.238 21.5869 17.3645L19.468 19.3075C19.1645 19.5859 18.7916 19.7902 18.3824 19.9021C17.9732 20.0141 17.5405 20.0303 17.123 19.9492C12.9576 19.1506 9.11836 17.2803 6.04392 14.5519C3.03771 11.7964 0.957424 8.29031 0.0554183 4.4589C-0.0336882 4.07728 -0.0150904 3.68075 0.109409 3.30776C0.233909 2.93477 0.460088 2.59795 0.766028 2.32996L2.96246 0.362933C3.09838 0.23327 3.26413 0.133832 3.44732 0.072064C3.6305 0.0102964 3.82636 -0.0122 4.02024 0.00625935C4.21412 0.0247187 4.40098 0.0836555 4.56684 0.178657C4.73271 0.273658 4.87327 0.402261 4.97801 0.554838L7.98841 4.69879C8.04033 4.76386 8.06836 4.84269 8.06836 4.92367C8.06836 5.00465 8.04033 5.08349 7.98841 5.14856L6.00516 7.36147C6.69353 8.99922 7.76601 10.4742 9.14476 11.6793Z" fill="#4D5E3B"/>
</svg>
