<svg width="25" height="24" viewBox="0 0 25 24" fill="none" xmlns="http://www.w3.org/2000/svg">
<path d="M19.5762 4H5.57617C4.78052 4 4.01746 4.31607 3.45485 4.87868C2.89224 5.44129 2.57617 6.20435 2.57617 7V17C2.57617 17.7956 2.89224 18.5587 3.45485 19.1213C4.01746 19.6839 4.78052 20 5.57617 20H19.5762C20.3718 20 21.1349 19.6839 21.6975 19.1213C22.2601 18.5587 22.5762 17.7956 22.5762 17V7C22.5762 6.20435 22.2601 5.44129 21.6975 4.87868C21.1349 4.31607 20.3718 4 19.5762 4ZM18.9062 6L12.5762 10.75L6.24617 6H18.9062ZM19.5762 18H5.57617C5.31096 18 5.0566 17.8946 4.86907 17.7071C4.68153 17.5196 4.57617 17.2652 4.57617 17V7.25L11.9762 12.8C12.1493 12.9298 12.3598 13 12.5762 13C12.7925 13 13.0031 12.9298 13.1762 12.8L20.5762 7.25V17C20.5762 17.2652 20.4708 17.5196 20.2833 17.7071C20.0957 17.8946 19.8414 18 19.5762 18Z" fill="#E7946D"/>
</svg>
