<svg width="25" height="24" viewBox="0 0 25 24" fill="none" xmlns="http://www.w3.org/2000/svg">
<path d="M12.5762 22C7.05317 22 2.57617 17.523 2.57617 12C2.57617 6.477 7.05317 2 12.5762 2C18.0992 2 22.5762 6.477 22.5762 12C22.5762 17.523 18.0992 22 12.5762 22ZM9.23858 19.2717C9.63161 19.4523 9.99995 19.0411 9.84034 18.6391C9.18461 16.9875 8.77802 15.2463 8.635 13.4726C8.61364 13.2078 8.39512 13 8.12947 13H5.20537C4.90434 13 4.67038 13.2645 4.72919 13.5597C4.99396 14.8891 5.5926 16.1328 6.47274 17.1717C7.2329 18.069 8.17823 18.7843 9.23858 19.2717ZM11.1381 13C10.8498 13 10.6205 13.2433 10.6478 13.5303C10.8311 15.4579 11.3562 17.2857 12.1616 18.9524C12.3323 19.3058 12.8201 19.3058 12.9909 18.9525C13.8136 17.2503 14.3267 15.414 14.505 13.5298C14.5321 13.243 14.3029 13 14.0147 13H11.1381ZM20.4232 13.5597C20.482 13.2645 20.248 13 19.947 13H17.0229C16.7572 13 16.5387 13.2078 16.5173 13.4726C16.3743 15.2463 15.9677 16.9875 15.312 18.6391C15.1524 19.0411 15.5207 19.4523 15.9138 19.2717C16.9741 18.7843 17.9194 18.069 18.6796 17.1717C19.5597 16.1328 20.1584 14.8891 20.4232 13.5597ZM4.72919 10.4403C4.67038 10.7355 4.90434 11 5.20538 11H8.12947C8.39513 11 8.61364 10.7922 8.635 10.5274C8.77802 8.75373 9.18461 7.0125 9.84034 5.36091C9.99995 4.95888 9.63161 4.54769 9.23858 4.72834C8.17822 5.21571 7.2329 5.93099 6.47274 6.8283C5.5926 7.86723 4.99396 9.11092 4.72919 10.4403ZM10.6072 11H14.0138C14.3019 11 14.5311 10.757 14.504 10.4702C14.326 8.5861 13.8132 6.7498 12.9908 5.0475C12.82 4.69416 12.3322 4.69412 12.1615 5.04744C11.262 6.90858 10.7326 8.92999 10.6062 10.999C10.6062 10.9995 10.6066 11 10.6072 11ZM15.9138 4.72834C15.5207 4.54769 15.1524 4.95888 15.312 5.36091C15.9677 7.0125 16.3743 8.75373 16.5173 10.5274C16.5387 10.7922 16.7572 11 17.0229 11H19.947C20.248 11 20.482 10.7355 20.4232 10.4403C20.1584 9.11092 19.5597 7.86723 18.6796 6.8283C17.9194 5.93099 16.9741 5.21571 15.9138 4.72834Z" fill="#E7946D"/>
</svg>
