<svg width="25" height="24" viewBox="0 0 25 24" fill="none" xmlns="http://www.w3.org/2000/svg">
<path d="M12.5 22C6.977 22 2.5 17.523 2.5 12C2.5 6.477 6.977 2 12.5 2C18.023 2 22.5 6.477 22.5 12C22.5 17.523 18.023 22 12.5 22ZM9.16241 19.2717C9.55544 19.4523 9.92378 19.0411 9.76417 18.6391C9.10844 16.9875 8.70184 15.2463 8.55882 13.4726C8.53747 13.2078 8.31895 13 8.0533 13H5.1292C4.82817 13 4.59421 13.2645 4.65301 13.5597C4.91778 14.8891 5.51643 16.1328 6.39657 17.1717C7.15673 18.069 8.10205 18.7843 9.16241 19.2717ZM11.0619 13C10.7736 13 10.5443 13.2433 10.5716 13.5303C10.755 15.4579 11.28 17.2857 12.0854 18.9524C12.2561 19.3058 12.744 19.3058 12.9147 18.9525C13.7374 17.2503 14.2505 15.414 14.4288 13.5298C14.4559 13.243 14.2267 13 13.9386 13H11.0619ZM20.347 13.5597C20.4058 13.2645 20.1718 13 19.8708 13H16.9467C16.681 13 16.4625 13.2078 16.4412 13.4726C16.2982 15.2463 15.8916 16.9875 15.2358 18.6391C15.0762 19.0411 15.4446 19.4523 15.8376 19.2717C16.8979 18.7843 17.8433 18.069 18.6034 17.1717C19.4836 16.1328 20.0822 14.8891 20.347 13.5597ZM4.65301 10.4403C4.59421 10.7355 4.82817 11 5.1292 11H8.0533C8.31895 11 8.53747 10.7922 8.55882 10.5274C8.70184 8.75373 9.10844 7.0125 9.76417 5.36091C9.92378 4.95888 9.55544 4.54769 9.16241 4.72834C8.10205 5.21571 7.15673 5.93099 6.39657 6.8283C5.51643 7.86723 4.91778 9.11092 4.65301 10.4403ZM10.531 11H13.9376C14.2257 11 14.455 10.757 14.4279 10.4702C14.2498 8.5861 13.737 6.7498 12.9146 5.0475C12.7439 4.69416 12.2561 4.69412 12.0853 5.04744C11.1858 6.90858 10.6564 8.92999 10.5301 10.999C10.53 10.9995 10.5305 11 10.531 11ZM15.8376 4.72834C15.4446 4.54769 15.0762 4.95888 15.2358 5.36091C15.8916 7.0125 16.2982 8.75373 16.4412 10.5274C16.4625 10.7922 16.681 11 16.9467 11H19.8708C20.1718 11 20.4058 10.7355 20.347 10.4403C20.0822 9.11092 19.4836 7.86723 18.6034 6.8283C17.8433 5.93099 16.8979 5.21571 15.8376 4.72834Z" fill="white"/>
</svg>
