<svg width="25" height="24" viewBox="0 0 25 24" fill="none" xmlns="http://www.w3.org/2000/svg">
<path d="M5.45828 7.15539C6.65307 7.15539 7.62163 6.18517 7.62163 4.98834C7.62163 3.79151 6.65307 2.82129 5.45828 2.82129C4.26349 2.82129 3.29492 3.79151 3.29492 4.98834C3.29492 6.18517 4.26349 7.15539 5.45828 7.15539Z" fill="white"/>
<path d="M9.66462 8.79762V20.8204H13.3912V14.8749C13.3912 13.306 13.6858 11.7867 15.6277 11.7867C17.5429 11.7867 17.5666 13.5804 17.5666 14.9739V20.8214H21.2951V14.2281C21.2951 10.9894 20.5991 8.50049 16.8201 8.50049C15.0058 8.50049 13.7896 9.49785 13.2923 10.4417H13.2419V8.79762H9.66462ZM3.5918 8.79762H7.32428V20.8204H3.5918V8.79762Z" fill="white"/>
</svg>
