<svg width="25" height="24" viewBox="0 0 25 24" fill="none" xmlns="http://www.w3.org/2000/svg">
<path d="M20.076 21.75H19.9485C5.21099 20.9025 3.11849 8.4675 2.82599 4.6725C2.80242 4.37744 2.83731 4.08062 2.92865 3.79906C3.01999 3.5175 3.16599 3.25673 3.35828 3.03169C3.55057 2.80665 3.78538 2.62177 4.04925 2.48763C4.31312 2.35349 4.60086 2.27274 4.89599 2.25H9.02849C9.32891 2.24971 9.62249 2.33963 9.87122 2.50812C10.1199 2.67661 10.3123 2.9159 10.4235 3.195L11.5635 6C11.6733 6.27266 11.7005 6.57156 11.6418 6.85957C11.5832 7.14758 11.4412 7.412 11.2335 7.62L9.63599 9.2325C9.88553 10.6506 10.5646 11.9578 11.5814 12.9772C12.5982 13.9967 13.9036 14.6792 15.321 14.9325L16.9485 13.32C17.1596 13.1146 17.4265 12.9759 17.716 12.9213C18.0054 12.8666 18.3045 12.8983 18.576 13.0125L21.4035 14.145C21.6784 14.2597 21.9129 14.4536 22.0772 14.702C22.2415 14.9504 22.3281 15.2422 22.326 15.54V19.5C22.326 20.0967 22.0889 20.669 21.667 21.091C21.245 21.5129 20.6727 21.75 20.076 21.75ZM5.07599 3.75C4.87708 3.75 4.68631 3.82902 4.54566 3.96967C4.40501 4.11032 4.32599 4.30109 4.32599 4.5V4.56C4.67099 9 6.88349 19.5 20.031 20.25C20.1295 20.2561 20.2283 20.2427 20.3216 20.2105C20.4149 20.1783 20.501 20.1281 20.5749 20.0626C20.6487 19.9971 20.7089 19.9176 20.752 19.8288C20.7951 19.74 20.8203 19.6436 20.826 19.545V15.54L17.9985 14.4075L15.846 16.545L15.486 16.5C8.96099 15.6825 8.07599 9.1575 8.07599 9.09L8.03099 8.73L10.161 6.5775L9.03599 3.75H5.07599Z" fill="#E7946D" stroke="#E7946D" stroke-width="0.5"/>
</svg>
