<svg width="39" height="24" viewBox="0 0 39 40" fill="none" xmlns="http://www.w3.org/2000/svg">
<path d="M31.6477 27.3334C30.8246 27.3365 30.0105 27.506 29.2544 27.8315C28.4983 28.1571 27.8158 28.632 27.2477 29.2279L12.3489 21.7723C12.7154 20.661 12.7154 19.4614 12.3489 18.3501L27.2722 10.7601C28.3411 11.8865 29.7907 12.5753 31.3391 12.6925C32.8876 12.8097 34.4243 12.347 35.6506 11.3943C36.8769 10.4416 37.7052 9.06696 37.9745 7.53759C38.2437 6.00823 37.9347 4.43338 37.1075 3.11915C36.2803 1.80492 34.994 0.845189 33.4987 0.426507C32.0033 0.00782582 30.4056 0.1601 29.0163 0.853733C27.6269 1.54737 26.5451 2.7328 25.9811 4.17964C25.417 5.62647 25.4111 7.23133 25.9644 8.6823L11.1877 16.199C10.3897 15.223 9.3093 14.5177 8.09468 14.1798C6.88006 13.8419 5.59066 13.8879 4.40323 14.3116C3.2158 14.7352 2.18846 15.5158 1.46205 16.5462C0.735635 17.5767 0.345703 18.8066 0.345703 20.0673C0.345703 21.328 0.735635 22.5579 1.46205 23.5884C2.18846 24.6188 3.2158 25.3994 4.40323 25.823C5.59066 26.2467 6.88006 26.2927 8.09468 25.9548C9.3093 25.6169 10.3897 24.9116 11.1877 23.9356L25.9277 31.3545C25.6787 32.0233 25.5504 32.7309 25.5489 33.4445C25.5489 34.6532 25.9073 35.8347 26.5788 36.8397C27.2503 37.8446 28.2047 38.6279 29.3213 39.0904C30.438 39.553 31.6667 39.674 32.8522 39.4382C34.0376 39.2024 35.1265 38.6204 35.9812 37.7657C36.8358 36.9111 37.4179 35.8222 37.6537 34.6367C37.8895 33.4513 37.7684 32.2226 37.3059 31.1059C36.8434 29.9892 36.0601 29.0348 35.0551 28.3633C34.0502 27.6918 32.8686 27.3334 31.66 27.3334H31.6477Z" fill="#4D5E3B"/>
</svg>
