<svg width="86" height="86" viewBox="0 0 86 86" fill="none" xmlns="http://www.w3.org/2000/svg">
<rect width="86" height="86" rx="43" fill="#E7936D"/>
<path fill-rule="evenodd" clip-rule="evenodd" d="M43.0002 24.7119C43.5391 24.7119 44.056 24.926 44.437 25.3071C44.8181 25.6881 45.0322 26.2049 45.0322 26.7438V42.9993C45.0322 43.5382 44.8181 44.055 44.437 44.4361C44.056 44.8171 43.5391 45.0312 43.0002 45.0312H26.7448C26.2059 45.0312 25.6891 44.8171 25.308 44.4361C24.927 44.055 24.7129 43.5382 24.7129 42.9993C24.7129 42.4604 24.927 41.9435 25.308 41.5625C25.6891 41.1814 26.2059 40.9673 26.7448 40.9673H40.9683V26.7438C40.9683 26.2049 41.1824 25.6881 41.5635 25.3071C41.9445 24.926 42.4613 24.7119 43.0002 24.7119Z" fill="#FFFCFB"/>
<path fill-rule="evenodd" clip-rule="evenodd" d="M40.9683 42.9986C40.9683 42.4597 41.1823 41.9429 41.5634 41.5618C41.9445 41.1808 42.4613 40.9667 43.0002 40.9667H59.2556C59.7945 40.9667 60.3113 41.1808 60.6924 41.5618C61.0735 41.9429 61.2875 42.4597 61.2875 42.9986C61.2875 43.5375 61.0735 44.0543 60.6924 44.4354C60.3113 44.8165 59.7945 45.0305 59.2556 45.0305H45.0321V59.254C45.0321 59.7929 44.818 60.3098 44.437 60.6908C44.0559 61.0719 43.5391 61.286 43.0002 61.286C42.4613 61.286 41.9445 61.0719 41.5634 60.6908C41.1823 60.3098 40.9683 59.7929 40.9683 59.254V42.9986Z" fill="#FFFCFB"/>
</svg>
