<svg width="40" height="40" viewBox="0 0 40 40" fill="none" xmlns="http://www.w3.org/2000/svg">
<path d="M6.66699 11H33.667" stroke="white" stroke-width="3.33333" stroke-linecap="round" stroke-linejoin="round"/>
<path d="M14.1665 11V8C14.1665 7.20435 14.4826 6.44129 15.0452 5.87868C15.6078 5.31607 16.3709 5 17.1665 5H23.1665C23.9622 5 24.7252 5.31607 25.2878 5.87868C25.8504 6.44129 26.1665 7.20435 26.1665 8V11M30.6665 11V32C30.6665 32.7956 30.3504 33.5587 29.7878 34.1213C29.2252 34.6839 28.4622 35 27.6665 35H12.6665C11.8709 35 11.1078 34.6839 10.5452 34.1213C9.98257 33.5587 9.6665 32.7956 9.6665 32V11H30.6665Z" stroke="white" stroke-width="3.33333" stroke-linecap="round" stroke-linejoin="round"/>
<path d="M17.1665 18.5V27.5" stroke="white" stroke-width="3.33333" stroke-linecap="round" stroke-linejoin="round"/>
<path d="M23.167 18.5V27.5" stroke="white" stroke-width="3.33333" stroke-linecap="round" stroke-linejoin="round"/>
</svg>
