<svg width="100" height="100" viewBox="0 0 100 100" fill="none" xmlns="http://www.w3.org/2000/svg">
<g clip-path="url(#clip0)">
<path d="M37.2922 63.2251C25.9019 59.7105 8.12549 54.2253 8.12549 54.2253L93.6255 12.7253M37.2922 63.2251C59.2917 43.5037 93.6255 12.7253 93.6255 12.7253M37.2922 63.2251C39.5702 72.012 40.8474 76.9385 43.1255 85.7253M93.6255 12.7253L81.6255 80.7253C81.6255 80.7253 59.1182 71.8431 53 69.5M93.6255 12.7253L70.4588 39.9752L47.2922 67.2251M43.1255 85.7253C44.7527 78.5005 47.2922 67.2251 47.2922 67.2251M43.1255 85.7253C47.1208 80.1198 48.5741 74.7721 53 69.5M47.2922 67.2251C47.2922 67.2251 49.9409 68.3284 53 69.5" stroke="#E7946D" stroke-width="6" stroke-linecap="round" stroke-linejoin="round"/>
<path d="M38.1248 90.7253C38.1248 90.7253 27.1252 95.2253 19.6252 94.2253C10.194 92.9678 3.62524 87.7253 3.62524 87.7253" stroke="#E7946D" stroke-width="4" stroke-linecap="round" stroke-dasharray="10 10"/>
</g>
<defs>
<clipPath id="clip0">
<rect width="100" height="100" fill="white"/>
</clipPath>
</defs>
</svg>
