<svg width="17" height="21" viewBox="0 0 17 21" fill="none" xmlns="http://www.w3.org/2000/svg">
<path id="Vector" d="M8.5 0.5C4.25 0.5 0 1.02632 0 4.71053V14.7105C0 15.7105 0.40375 16.6158 1.0625 17.2789V18.9211C1.0625 19.7947 1.77437 20.5 2.65625 20.5C3.53813 20.5 4.25 19.7947 4.25 18.9211V18.3947H12.75V18.9211C12.75 19.7842 13.4619 20.5 14.3438 20.5C15.215 20.5 15.9375 19.7947 15.9375 18.9211V17.2789C16.5963 16.6158 17 15.7105 17 14.7105V4.71053C17 1.02632 13.1962 0.5 8.5 0.5ZM4.78125 15.2368C3.89937 15.2368 3.1875 14.5316 3.1875 13.6579C3.1875 12.7842 3.89937 12.0789 4.78125 12.0789C5.66313 12.0789 6.375 12.7842 6.375 13.6579C6.375 14.5316 5.66313 15.2368 4.78125 15.2368ZM12.2188 15.2368C11.3369 15.2368 10.625 14.5316 10.625 13.6579C10.625 12.7842 11.3369 12.0789 12.2188 12.0789C13.1006 12.0789 13.8125 12.7842 13.8125 13.6579C13.8125 14.5316 13.1006 15.2368 12.2188 15.2368ZM14.875 8.92105H2.125V5.76316H14.875V8.92105Z" fill="#202020"/>
</svg>
