<svg width="24" height="24" viewBox="0 0 24 24" fill="none" xmlns="http://www.w3.org/2000/svg">
<path d="M17.2251 8.0533H16.4001L15.5501 8.0689C15.5126 8.06959 15.4554 8.05733 15.3717 7.98695C15.284 7.91312 15.1938 7.79554 15.1179 7.64981C14.7335 6.91171 13.9165 6.38496 12.5001 6.38496C11.3696 6.38496 10.4466 6.61459 9.78395 6.99646C9.136 7.36984 8.6501 7.95099 8.6501 8.6533L8.65008 8.67459C8.64975 8.99602 8.64905 9.66222 9.27187 10.1821C9.84969 10.6644 10.8493 10.9216 12.5001 10.9216C15.2181 10.9216 16.6558 11.6725 17.4252 12.5253C18.2052 13.3899 18.4001 14.4707 18.4001 15.3266C18.4001 17.1325 16.9914 19.0868 14.0232 19.5986L13.5251 19.6844V20.5C13.5251 20.997 13.1222 21.4 12.6251 21.4H12.3751C11.878 21.4 11.4751 20.997 11.4751 20.5V19.6871L10.9705 19.6058C8.03433 19.1328 6.94536 17.3194 6.67294 15.9995C6.67163 15.9931 6.67172 15.9884 6.67172 15.9884L6.67209 15.9859C6.67209 15.9859 6.67417 15.9794 6.68245 15.9705C6.70071 15.9509 6.74137 15.9266 6.8001 15.9266H8.5078C8.54689 15.9266 8.61581 15.9421 8.72266 16.0215C8.83066 16.1019 8.94229 16.2221 9.05234 16.3668C9.55979 17.0337 10.5753 17.595 12.5001 17.595C13.704 17.595 14.6333 17.3334 15.2826 16.9301C15.9123 16.539 16.3501 15.9586 16.3501 15.3266L16.3501 15.3128C16.3503 15.0223 16.3507 14.3645 15.7352 13.8349C15.1594 13.3396 14.1607 13.0583 12.5001 13.0583C9.78209 13.0583 8.34435 12.3074 7.57497 11.4546C6.79496 10.59 6.6001 9.50924 6.6001 8.6533C6.6001 6.84739 8.00875 4.89315 10.977 4.38138L11.4751 4.2955V3.49998C11.4751 3.00292 11.878 2.59998 12.3751 2.59998H12.6251C13.1222 2.59998 13.5251 3.00292 13.5251 3.49998V4.32193L13.9836 4.43322C16.1097 4.94935 17.1104 6.55939 17.3617 7.96361C17.364 7.97644 17.3624 7.98221 17.3615 7.98487C17.3603 7.98872 17.3569 7.99666 17.3471 8.00697C17.3262 8.02917 17.2838 8.0533 17.2251 8.0533Z" fill="#E7946D"/>
</svg>
