<svg width="24" height="25" viewBox="0 0 24 25" fill="none" xmlns="http://www.w3.org/2000/svg">
<path fill-rule="evenodd" clip-rule="evenodd" d="M11.9998 0.657959C7.67162 0.657959 3.70752 3.00775 1.62109 6.79975L1.74675 6.89549C1.72111 6.94227 1.69579 6.98924 1.67078 7.0364L4.74783 9.38082C4.76927 9.33106 4.79121 9.28156 4.81364 9.23234L4.94162 9.32986C6.19057 6.54902 8.93889 4.76322 11.9998 4.76322C13.8715 4.76322 15.6573 5.41438 17.0449 6.59986L19.9258 3.71891C17.7399 1.74364 14.9319 0.657959 11.9998 0.657959Z" fill="#E16161"/>
<path d="M12.0001 0.81579C14.8378 0.81579 17.558 1.84684 19.6962 3.72548L17.0357 6.386C15.6361 5.23558 13.8598 4.60527 12.0001 4.60527C8.94324 4.60527 6.19208 6.35032 4.88123 9.08537L1.82565 6.75737C3.90134 3.08537 7.77481 0.81579 12.0001 0.81579ZM12.0001 0.5C7.4186 0.5 3.43965 3.06895 1.41797 6.84358L5.0066 9.57769C6.15071 6.84295 8.85039 4.92105 12.0001 4.92105C13.9321 4.92105 15.7141 5.62558 17.0527 6.81579L20.1544 3.71411C18.013 1.72558 15.1529 0.5 12.0001 0.5Z" fill="#C93B3B"/>
<path d="M1.32891 17.6101C0.551749 15.9942 0.157959 14.276 0.157959 12.5C0.157959 12.3301 0.161748 12.1611 0.168696 11.9934C0.241643 10.2661 0.679643 8.6148 1.47101 7.08228L4.81491 9.63007C4.44859 10.5443 4.26322 11.509 4.26322 12.5C4.26322 13.4164 4.42775 14.3218 4.7527 15.1933L1.32891 17.6101Z" fill="#BA9B48"/>
<path d="M1.5259 7.32256L4.62411 9.68309C4.27958 10.5831 4.10527 11.5295 4.10527 12.4999C4.10527 13.3952 4.25906 14.28 4.56316 15.1339L1.39169 17.3726C0.677369 15.8277 0.31579 14.1904 0.31579 12.4999C0.31579 12.3338 0.319263 12.1655 0.326211 12C0.395685 10.3589 0.798948 8.78719 1.5259 7.32256ZM1.4179 6.84351C0.590843 8.3874 0.0893685 10.1321 0.0107368 11.9868C0.00378945 12.157 0 12.3278 0 12.4999C0 14.4234 0.464211 16.2345 1.26884 17.8459L4.944 15.2517C4.61053 14.3978 4.42106 13.4719 4.42106 12.4999C4.42106 11.4638 4.63011 10.477 5.00653 9.57761L1.4179 6.84351Z" fill="#BA9B48"/>
<path d="M4.67413 15.4419C4.30844 14.5324 4.10539 13.5399 4.10539 12.4997C4.10539 11.3913 4.3356 10.3372 4.74802 9.38031L1.67097 7.03589C0.806339 8.66599 0.315918 10.5254 0.315918 12.4997C0.315918 14.3556 0.750444 16.1095 1.52066 17.6679L4.67413 15.4419Z" fill="#F3D990"/>
<path d="M12 24.342C7.53474 24.342 3.51284 21.8756 1.47095 17.8964L4.87263 15.4951C6.084 18.3824 8.86011 20.2367 12 20.2367C13.7217 20.2367 15.3455 19.6834 16.7046 18.6353L19.8597 21.3394C17.6833 23.2771 14.8993 24.342 12 24.342Z" fill="#BAE0BD"/>
<path d="M4.80459 15.7365C6.07912 18.5796 8.86123 20.3947 11.9999 20.3947C13.7137 20.3947 15.3327 19.8573 16.6985 18.8382L19.6186 21.3412C17.4918 23.1772 14.8003 24.1842 11.9999 24.1842C7.63975 24.1842 3.70817 21.8009 1.67449 17.9461L4.80459 15.7365ZM4.94386 15.2515L1.26807 17.8463C3.23544 21.787 7.29586 24.5 11.9999 24.5C15.1255 24.5 17.9632 23.2949 20.0986 21.3364L16.7089 18.4312C15.4173 19.4616 13.7822 20.0789 11.9999 20.0789C8.78607 20.0789 6.04596 18.0753 4.94386 15.2515Z" fill="#62853E"/>
<path d="M16.9566 18.6435C15.6016 19.7383 13.8777 20.3952 12 20.3952C8.68009 20.3952 5.84083 18.345 4.67398 15.4426L1.52051 17.6686C3.42788 21.5288 7.40304 24.1846 12 24.1846C15.0303 24.1846 17.7913 23.0307 19.8673 21.1385L16.9566 18.6435Z" fill="#A5BF84"/>
<path d="M16.9551 18.434C17.9679 17.5842 18.7494 16.4837 19.2212 15.2401C19.3362 14.9379 19.4192 14.6818 19.4833 14.4342L19.5342 14.2369H12.158V10.1316H23.6003C23.7607 10.9208 23.8422 11.7169 23.8422 12.5C23.8422 15.7517 22.4783 18.8872 20.0947 21.1252L16.9551 18.434Z" fill="#91A9E7"/>
<path d="M23.4704 10.2894C23.6125 11.0265 23.6842 11.7686 23.6842 12.4999C23.6842 15.6613 22.3772 18.7112 20.0893 20.9123L17.1976 18.4336C18.1626 17.5842 18.9095 16.5067 19.3693 15.296C19.4864 14.9874 19.5714 14.726 19.6364 14.4733L19.7381 14.0789H19.3304H12.3158V10.2894H23.4704ZM23.7284 9.97363H12V14.3947H19.3304C19.2606 14.6647 19.1716 14.9265 19.0737 15.1842C18.5858 16.4691 17.7644 17.5892 16.7091 18.4311L20.0987 21.3364C22.4908 19.1429 24 16.0014 24 12.4999C24 11.6328 23.9034 10.7887 23.7284 9.97363Z" fill="#2C67B7"/>
</svg>
