<svg width="18" height="21" viewBox="0 0 18 21" fill="none" xmlns="http://www.w3.org/2000/svg">
<path d="M16.5073 12.99C17.1612 11.7619 17.5023 10.3914 17.5003 9C17.5003 4.3055 13.6948 0.5 9.00026 0.5C4.30576 0.5 0.500257 4.3055 0.500257 9C0.496816 11.0051 1.2056 12.9463 2.50026 14.4775L2.51026 14.49C2.51376 14.493 2.51676 14.497 2.51926 14.5H2.50026L7.54426 19.855C7.73124 20.0535 7.95683 20.2116 8.20718 20.3197C8.45752 20.4278 8.72732 20.4836 9.00001 20.4836C9.27269 20.4836 9.54249 20.4278 9.79284 20.3197C10.0432 20.2116 10.2688 20.0535 10.4558 19.855L15.5003 14.5H15.4813L15.4893 14.4905L15.4903 14.4895C15.5263 14.4465 15.5623 14.4035 15.5978 14.3595C15.9446 13.9332 16.2493 13.4744 16.5078 12.9895L16.5073 12.99ZM9.00226 12.25C8.20661 12.25 7.44355 11.9339 6.88094 11.3713C6.31833 10.8087 6.00226 10.0456 6.00226 9.25C6.00226 8.45435 6.31833 7.69129 6.88094 7.12868C7.44355 6.56607 8.20661 6.25 9.00226 6.25C9.79791 6.25 10.561 6.56607 11.1236 7.12868C11.6862 7.69129 12.0023 8.45435 12.0023 9.25C12.0023 10.0456 11.6862 10.8087 11.1236 11.3713C10.561 11.9339 9.79791 12.25 9.00226 12.25Z" fill="#202020"/>
</svg>
