<svg width="24" height="24" viewBox="0 0 24 24" fill="none" xmlns="http://www.w3.org/2000/svg">
<path d="M6.4897 4.55251C8.08375 2.91817 10.2457 2 12.5001 2C14.7544 2 16.9164 2.91817 18.5104 4.55251C20.1045 6.18686 21 8.4035 21 10.7148C21 13.0261 20.1045 15.2428 18.5104 16.8771L17.3517 18.0521C16.4975 18.9109 15.3896 20.0158 14.0268 21.367C13.6172 21.773 13.0698 22 12.5001 22C11.9303 22 11.3829 21.773 10.9733 21.367L7.56545 17.9681C7.13691 17.5367 6.77865 17.1734 6.4897 16.8771C5.70037 16.0679 5.07424 15.1072 4.64705 14.0499C4.21987 12.9925 4 11.8593 4 10.7148C4 9.57036 4.21987 8.43711 4.64705 7.37978C5.07424 6.32244 5.70037 5.36173 6.4897 4.55251ZM17.4747 5.61342C16.1551 4.26072 14.3654 3.50088 12.4994 3.50107C10.6333 3.50125 8.84381 4.26145 7.52445 5.61442C6.2051 6.9674 5.464 8.80232 5.46418 10.7155C5.46436 12.6287 6.20582 14.4635 7.52543 15.8162L8.97604 17.2855C9.97807 18.2893 10.9829 19.2901 11.9905 20.2881C12.127 20.4235 12.3096 20.4992 12.4996 20.4992C12.6896 20.4992 12.8721 20.4235 13.0087 20.2881L16.3218 16.9852C16.7806 16.5238 17.1643 16.1345 17.4737 15.8162C18.793 14.4635 19.5342 12.6288 19.5342 10.7158C19.5342 8.80281 18.793 6.96815 17.4737 5.61543L17.4747 5.61342ZM12.5001 7.98647C12.8849 7.98647 13.266 8.06418 13.6215 8.21518C13.9771 8.36617 14.3001 8.58749 14.5722 8.86649C14.8444 9.14549 15.0602 9.47671 15.2075 9.84125C15.3548 10.2058 15.4306 10.5965 15.4306 10.9911C15.4306 11.3856 15.3548 11.7763 15.2075 12.1409C15.0602 12.5054 14.8444 12.8366 14.5722 13.1156C14.3001 13.3946 13.9771 13.6159 13.6215 13.7669C13.266 13.9179 12.8849 13.9956 12.5001 13.9956C11.7322 13.9813 11.0006 13.6585 10.4625 13.0966C9.9245 12.5348 9.62304 11.7789 9.62304 10.9916C9.62304 10.2042 9.9245 9.44828 10.4625 8.88647C11.0006 8.32466 11.7322 8.00184 12.5001 7.98747V7.98647ZM12.5001 9.48776C12.3075 9.48776 12.1169 9.52664 11.939 9.60219C11.7611 9.67774 11.5994 9.78847 11.4633 9.92806C11.3271 10.0677 11.2191 10.2334 11.1454 10.4158C11.0718 10.5982 11.0338 10.7936 11.0338 10.9911C11.0338 11.1885 11.0718 11.384 11.1454 11.5663C11.2191 11.7487 11.3271 11.9144 11.4633 12.054C11.5994 12.1936 11.7611 12.3044 11.939 12.3799C12.1169 12.4555 12.3075 12.4943 12.5001 12.4943C12.8888 12.4943 13.2616 12.336 13.5365 12.0542C13.8114 11.7724 13.9658 11.3901 13.9658 10.9916C13.9658 10.593 13.8114 10.2107 13.5365 9.92892C13.2616 9.64709 12.8888 9.48876 12.5001 9.48876V9.48776Z" fill="#E7946D" stroke="#E7946D" stroke-width="0.5"/>
</svg>
