<svg width="66" height="66" viewBox="0 0 66 66" fill="none" xmlns="http://www.w3.org/2000/svg">
<path d="M66 33.0031C66 34.1175 65.9466 35.218 65.8398 36.3047C65.803 36.6785 65.7597 37.048 65.71 37.4132C65.682 37.6215 65.6524 37.8305 65.6203 38.038C64.4272 45.7498 60.5406 52.7896 54.6501 57.9084C48.7597 63.0272 41.2462 65.8938 33.443 65.9998C33.2964 65.9998 33.149 65.9998 33.0016 65.9998C31.9517 65.9998 30.9136 65.9512 29.8873 65.854C13.1213 64.2857 0 50.175 0 32.9999C0 14.7747 14.7754 0 33.0016 0C51.2278 0 66 14.7779 66 33.0031Z" fill="#E7946D"/>
<path d="M36.6058 31.0448C36.5033 31.9419 35.2721 33.0304 32.8691 35.2723C30.1 37.8546 31.5674 36.6211 28.534 39.4285C25.4774 42.2576 22.3414 45.0057 19.3 47.8483C17.5169 49.5095 16.6262 50.3401 15.9309 50.2224C15.8076 50.2016 15.8508 50.1783 14.5828 48.9641C13.8699 48.28 13.7866 48.2176 13.6849 48.0029C13.4822 47.5792 13.5343 47.2388 13.6953 46.0197C13.9604 44.0029 13.9436 43.9708 14.0526 43.8218C14.6773 42.96 15.6338 43.4526 16.3851 42.5739C17.0796 41.761 16.603 40.9151 17.2662 40.4914C18.0176 40.0108 18.8594 40.835 19.4738 40.3689C20.1947 39.8218 19.4738 38.356 20.1795 37.8562C20.7995 37.4189 21.7647 38.2527 22.2934 37.7553C22.5256 37.5366 22.5401 37.189 22.5673 36.5186C22.6057 35.5486 22.3486 35.2795 22.5673 34.9888C22.8228 34.65 23.4228 34.6812 24.1693 34.7204C25.3164 34.7805 25.4549 34.996 25.7537 34.8478C26.5187 34.4689 25.7105 32.8742 26.4898 31.209C26.7702 30.6107 26.9624 30.6283 29.2982 28.5834C31.2847 26.8445 31.34 26.6611 31.8029 26.5706C33.8295 26.1821 36.8493 28.8998 36.6058 31.0448Z" fill="white"/>
<path d="M31.9408 33.4152L18.0723 46.3788C17.8946 46.545 17.8852 46.8238 18.0513 47.0015C18.2175 47.1793 18.4963 47.1886 18.6741 47.0225L32.5426 34.0589C32.7203 33.8927 32.7297 33.6139 32.5635 33.4362C32.3974 33.2585 32.1186 33.2491 31.9408 33.4152Z" fill="#DD855A"/>
<g opacity="0.5">
<path opacity="0.5" d="M50.6903 22.4096C50.6847 22.2598 50.6751 22.1108 50.6614 21.9618C50.6614 21.9562 50.6614 21.9506 50.6614 21.9458C50.655 21.8753 50.6478 21.8049 50.6406 21.7352V21.7151C50.6326 21.6399 50.6238 21.5654 50.6142 21.4901C50.6046 21.4148 50.5934 21.3379 50.5821 21.261C50.5709 21.1841 50.5581 21.1088 50.5445 21.0327C50.5309 20.9566 50.5213 20.9022 50.5084 20.8365C50.5084 20.8181 50.502 20.8004 50.498 20.782C50.4844 20.7139 50.4708 20.6459 50.4556 20.5786C50.4404 20.5113 50.4219 20.4272 50.4035 20.3519C50.3851 20.2766 50.3667 20.2021 50.3466 20.1268C50.3266 20.0515 50.3082 19.9851 50.2882 19.9138L50.2786 19.8817C50.2585 19.8145 50.2385 19.7472 50.2177 19.6799C50.1969 19.6126 50.1704 19.5317 50.1456 19.458C50.1208 19.3843 50.0951 19.3106 50.0655 19.237C50.0358 19.1633 50.0198 19.1112 49.9958 19.0487C49.9718 18.9863 49.9461 18.9198 49.9157 18.8557C49.9101 18.8405 49.9037 18.8245 49.8973 18.8092C49.8628 18.7291 49.8276 18.6426 49.7907 18.5601C49.7627 18.4945 49.7331 18.4296 49.7026 18.3647C49.6722 18.2998 49.6337 18.2181 49.5977 18.1452L49.5857 18.122C49.552 18.0531 49.5176 17.985 49.4816 17.9178C49.4455 17.8505 49.4063 17.7744 49.3662 17.7039C49.3617 17.6945 49.3567 17.6854 49.351 17.6767C49.3214 17.6222 49.2909 17.5685 49.2589 17.5165C49.242 17.4852 49.2236 17.454 49.2044 17.4236C49.1796 17.3803 49.1531 17.3371 49.1243 17.2938C49.1139 17.2746 49.1019 17.2562 49.0899 17.2369C49.0562 17.1825 49.0218 17.128 48.9857 17.0767C48.9777 17.0631 48.9697 17.0503 48.9601 17.0367C48.9224 16.9782 48.88 16.919 48.8431 16.8613L48.8199 16.8276C48.7799 16.7684 48.7398 16.7099 48.6966 16.6522C48.691 16.6442 48.6853 16.6354 48.6789 16.6274C48.6389 16.5713 48.5988 16.5161 48.5556 16.4608C48.5438 16.4442 48.531 16.4274 48.5171 16.4103C48.4851 16.3671 48.4523 16.3246 48.4186 16.283C48.3802 16.2333 48.3385 16.1837 48.3001 16.1348C48.2616 16.0859 48.2272 16.0451 48.1895 16.0002C48.0865 15.8769 47.9797 15.7551 47.8691 15.635C45.8369 13.7692 43.1621 12.7611 40.4038 12.8214C37.6456 12.8817 35.0174 14.0057 33.0686 15.9585C31.1199 17.9113 30.0014 20.5418 29.9469 23.3C29.8925 26.0582 30.9063 28.7307 32.7765 30.7589C32.8398 30.8173 32.9038 30.875 32.9687 30.9311C33.0336 30.9872 33.0809 31.0288 33.1377 31.0761C33.153 31.0897 33.169 31.1025 33.185 31.1153C33.2339 31.1562 33.2827 31.1954 33.3324 31.2355L33.3732 31.2683C33.4357 31.318 33.499 31.3668 33.5623 31.4141L33.5703 31.4205C33.6248 31.4621 33.6792 31.5006 33.7305 31.5414C33.7473 31.5542 33.7641 31.5671 33.7818 31.5791C33.8442 31.6239 33.9075 31.6688 33.9716 31.712H33.9772C34.0445 31.7577 34.1126 31.8033 34.1815 31.8474C34.2503 31.8914 34.3064 31.9275 34.3705 31.9667C34.5091 32.054 34.65 32.1365 34.7918 32.215C34.8295 32.2367 34.8663 32.2567 34.9048 32.2767L34.9721 32.3136C35.0113 32.3352 35.0522 32.356 35.0914 32.376C35.1539 32.4089 35.2164 32.4401 35.2796 32.4713C35.3429 32.5026 35.383 32.5218 35.435 32.5458L35.5199 32.5851L35.6161 32.6291L35.6433 32.6412L35.7466 32.6868L35.8828 32.7445L35.9781 32.7837C36.0422 32.8102 36.1063 32.835 36.1712 32.8638L36.4115 32.9511C36.4916 32.9784 36.5645 33.004 36.6414 33.0312C36.7183 33.0585 36.7879 33.0793 36.8624 33.1017L36.8921 33.1105L37.0859 33.1674L37.1508 33.185L37.2814 33.2203L37.4151 33.2547L37.5817 33.2947H37.5866L37.7708 33.3356L37.8357 33.3492L38.0471 33.3909L38.0848 33.3973C38.1561 33.4109 38.2282 33.4229 38.2994 33.4341H38.3243C38.398 33.4461 38.4725 33.4565 38.5462 33.467C38.6199 33.4774 38.6767 33.4846 38.7424 33.4918L38.8225 33.5006C38.8898 33.5086 38.9563 33.515 39.0236 33.5214H39.0388L39.2446 33.5374H39.3039C39.3752 33.5422 39.4473 33.5462 39.5186 33.5494L39.6924 33.5559H39.7252H39.8206H40.0064C40.9921 33.557 41.9732 33.4222 42.9221 33.1554C43.0823 33.1105 43.2403 33.0619 43.3963 33.0096C43.4764 32.9832 43.5565 32.9559 43.631 32.9295C43.8649 32.8457 44.0966 32.753 44.3262 32.6516C44.6314 32.5162 44.9326 32.3664 45.2266 32.2014C45.4477 32.077 45.6653 31.9435 45.8794 31.8009C46.022 31.7072 46.1622 31.6095 46.3015 31.5078C46.4409 31.4061 46.5771 31.3011 46.7125 31.1922C46.9151 31.032 47.113 30.8566 47.3068 30.6756C47.4478 30.5442 47.5842 30.4107 47.7161 30.2751C47.7818 30.2062 47.8467 30.1365 47.9108 30.0668C47.9748 29.9972 48.0373 29.9267 48.099 29.8554C48.1607 29.7841 48.2216 29.712 48.2808 29.6399C48.3705 29.5331 48.4573 29.4229 48.5412 29.3091L48.6213 29.1978C48.8674 28.8643 49.0937 28.5166 49.2989 28.1565C49.3673 28.0369 49.4327 27.9165 49.4952 27.7953C49.5376 27.7152 49.5753 27.6351 49.6177 27.555C49.6602 27.4749 49.6978 27.3948 49.7339 27.3083C49.8848 26.9796 50.0185 26.6433 50.1344 26.3007C50.192 26.1301 50.2457 25.9587 50.2946 25.7857C50.5644 24.826 50.6992 23.8334 50.6951 22.8365C50.6999 22.6931 50.6967 22.5514 50.6903 22.4096ZM45.362 26.3479C45.3219 26.4801 45.2394 26.7236 45.0416 26.8101C44.8437 26.8966 44.6034 26.7669 44.5225 26.7228C44.323 26.6131 44.0819 26.3712 43.816 26.0532L41.0381 28.1766C40.6176 28.5698 40.0344 28.6571 39.6147 28.4217C39.5273 28.3735 39.4481 28.3119 39.38 28.239L38.9226 27.7504L37.983 26.7452C38.6591 26.8966 39.5282 26.7556 40.1682 26.4761C40.4998 26.3319 41.5972 25.853 41.5828 25.072C41.5748 24.6523 41.2512 24.2318 40.8539 24.0548C40.8243 24.0413 40.7941 24.0292 40.7634 24.0187C40.4429 23.909 40.1466 23.9843 39.9511 24.034C39.3544 24.1869 38.9747 24.585 38.9515 24.5562C38.9282 24.5273 39.1069 24.408 39.2895 24.1477C39.367 24.0402 39.4338 23.9254 39.489 23.8049C39.5633 23.6546 39.6143 23.4939 39.6403 23.3283C39.6562 23.2024 39.6436 23.0746 39.6035 22.9542C39.4713 22.5698 39.0764 22.4128 38.9819 22.3784C38.4156 22.1749 37.8781 22.5289 37.7804 22.5938C37.186 22.9855 37.0274 23.6687 36.9169 24.1453C36.8404 24.4661 36.8134 24.7967 36.8368 25.1257C36.8464 25.249 36.8592 25.4084 36.8889 25.5766L36.2392 24.8822L35.7218 24.3287C35.3117 23.8898 35.3894 23.1513 35.8956 22.6787L38.2185 20.0852C38.053 19.9259 37.9128 19.7422 37.8028 19.5405C37.7644 19.4604 37.6426 19.2137 37.7508 19.0167C37.8589 18.8197 38.0968 18.7644 38.2314 18.7323C39.4329 18.4544 42.8428 18.3863 44.5361 18.9822C44.6223 19.0117 44.7063 19.047 44.7876 19.088C44.9318 19.1616 45.063 19.2581 45.1761 19.3739C45.363 19.5736 45.4966 19.8171 45.5646 20.082C45.7577 20.7556 45.8217 21.6839 45.8049 22.6283C45.7921 24.1084 45.5766 25.6415 45.362 26.3479Z" fill="#BE5620"/>
</g>
<path d="M50.6903 22.4098C50.6839 22.2609 50.6743 22.1111 50.6614 21.9621C50.6614 21.9565 50.6614 21.9509 50.6614 21.9461C50.655 21.8756 50.6478 21.8051 50.6406 21.7354V21.7154C50.6326 21.6401 50.6238 21.5656 50.6142 21.4903C50.6046 21.415 50.5934 21.3381 50.5821 21.2612C50.5709 21.1843 50.5581 21.1091 50.5445 21.033C50.5309 20.9569 50.5213 20.9024 50.5084 20.8367C50.5084 20.8183 50.502 20.8007 50.498 20.7823C50.4844 20.7142 50.4708 20.6461 50.4556 20.5788C50.4404 20.5115 50.4219 20.4274 50.4035 20.3521C50.3851 20.2769 50.3667 20.2024 50.3466 20.1271C50.3266 20.0518 50.3082 19.9853 50.2882 19.914L50.2786 19.882C50.2585 19.8147 50.2385 19.7474 50.2177 19.6801C50.1969 19.6128 50.1704 19.5319 50.1456 19.4583C50.1208 19.3846 50.0951 19.3109 50.0655 19.2372C50.0358 19.1635 50.0198 19.1114 49.9958 19.049C49.9718 18.9865 49.9461 18.92 49.9157 18.8559C49.9101 18.8407 49.9037 18.8247 49.8973 18.8095C49.8628 18.7294 49.8276 18.6429 49.7907 18.5604C49.7627 18.4947 49.7331 18.4298 49.7026 18.3649C49.6722 18.3001 49.6337 18.2184 49.5977 18.1455L49.5857 18.1222C49.552 18.0534 49.5176 17.9853 49.4816 17.918C49.4455 17.8507 49.4063 17.7746 49.3662 17.7041C49.3617 17.6947 49.3567 17.6856 49.351 17.6769C49.3214 17.6224 49.2909 17.5688 49.2589 17.5167C49.2421 17.4855 49.2236 17.4542 49.2044 17.4238C49.1796 17.3806 49.1531 17.3373 49.1243 17.294C49.1139 17.2748 49.1019 17.2564 49.0899 17.2372C49.0562 17.1827 49.0218 17.1282 48.9857 17.077C48.9777 17.0634 48.9697 17.0506 48.9601 17.0369C48.9225 16.9785 48.88 16.9192 48.8431 16.8615L48.8199 16.8279C48.7799 16.7686 48.7398 16.7101 48.6966 16.6525C48.691 16.6445 48.6854 16.6357 48.6789 16.6276C48.6389 16.5716 48.5988 16.5163 48.5556 16.461C48.5438 16.4445 48.531 16.4277 48.5171 16.4106C48.4851 16.3673 48.4523 16.3249 48.4186 16.2832C48.3802 16.2336 48.3385 16.1839 48.3001 16.135C48.2616 16.0862 48.2272 16.0453 48.1895 16.0005C48.0865 15.8771 47.9797 15.7554 47.8691 15.6352C47.8515 15.6144 47.8331 15.5944 47.8138 15.5744C46.8612 14.5244 45.7092 13.6743 44.4249 13.0736C43.1406 12.4729 41.7497 12.1336 40.3331 12.0754C38.9165 12.0172 37.5024 12.2413 36.1732 12.7346C34.844 13.228 33.6261 13.9807 32.5905 14.949C31.5549 15.9173 30.7222 17.0819 30.1409 18.375C29.5596 19.6681 29.2412 21.0639 29.2043 22.4812C29.1674 23.8984 29.4128 25.3089 29.926 26.6305C30.4393 27.952 31.2103 29.1584 32.1942 30.1792C32.3832 30.3816 32.5784 30.5749 32.7797 30.7591C32.843 30.8176 32.9071 30.8753 32.9719 30.9313C33.0368 30.9874 33.0841 31.0291 33.141 31.0763C33.1562 31.0899 33.1722 31.1027 33.1882 31.1156C33.2371 31.1564 33.2859 31.1957 33.3356 31.2357L33.3764 31.2685C33.4389 31.3182 33.5022 31.3671 33.5655 31.4143L33.5735 31.4207C33.628 31.4624 33.6824 31.5008 33.7337 31.5417C33.7505 31.5545 33.7673 31.5673 33.785 31.5793C33.8474 31.6242 33.9107 31.669 33.9748 31.7123H33.9804C34.0477 31.7579 34.1158 31.8036 34.1847 31.8476C34.2536 31.8917 34.3096 31.9277 34.3737 31.967C34.5123 32.0543 34.6533 32.1368 34.795 32.2153C34.8327 32.2369 34.8695 32.2569 34.908 32.277L34.9753 32.3138C35.0145 32.3354 35.0554 32.3563 35.0946 32.3763C35.1571 32.4091 35.2196 32.4404 35.2829 32.4716C35.3461 32.5028 35.3862 32.5221 35.4382 32.5461L35.5232 32.5853L35.6193 32.6294L35.6465 32.6414L35.7498 32.6871L35.886 32.7447L35.9813 32.784C36.0454 32.8104 36.1095 32.8352 36.1744 32.8641L36.4147 32.9514C36.4948 32.9786 36.5677 33.0042 36.6446 33.0315C36.7215 33.0587 36.7912 33.0795 36.8657 33.102L36.8953 33.1108L37.0891 33.1676L37.154 33.1853L37.2846 33.2205L37.4183 33.2549L37.585 33.295H37.5898L37.774 33.3358L37.8389 33.3495L38.0503 33.3911L38.088 33.3975C38.1593 33.4111 38.2314 33.4231 38.3027 33.4344H38.3275C38.4012 33.4464 38.4757 33.4568 38.5494 33.4672C38.6231 33.4776 38.6799 33.4848 38.7456 33.492L38.8257 33.5008C38.893 33.5088 38.9595 33.5153 39.0268 33.5217H39.042L39.2479 33.5377H39.3071C39.3784 33.5425 39.4505 33.5465 39.5218 33.5497L39.6956 33.5561H39.7285H39.8238H40.0096C40.9953 33.5572 41.9764 33.4224 42.9253 33.1556C43.0855 33.1108 43.2436 33.0622 43.3995 33.0098C43.4796 32.9834 43.5597 32.9562 43.6342 32.9297C43.8681 32.8459 44.0998 32.7533 44.3295 32.6518C44.6346 32.5164 44.9358 32.3667 45.2298 32.2017C45.4509 32.0773 45.6685 31.9438 45.8826 31.8012C46.0252 31.7075 46.1654 31.6097 46.3047 31.508C46.4441 31.4063 46.5803 31.3014 46.7157 31.1924C46.9183 31.0323 47.1162 30.8568 47.31 30.6758C47.451 30.5445 47.5874 30.411 47.7193 30.2753C47.785 30.2065 47.8499 30.1368 47.914 30.0671C47.9781 29.9974 48.0405 29.9269 48.1022 29.8556C48.1639 29.7843 48.224 29.7123 48.284 29.6402C48.3732 29.5334 48.46 29.4231 48.5444 29.3094L48.6245 29.198C48.8701 28.8642 49.0963 28.5165 49.3021 28.1568C49.3694 28.0372 49.4348 27.9168 49.4984 27.7955C49.54 27.7154 49.5785 27.6353 49.6209 27.5553C49.6634 27.4752 49.701 27.3951 49.7371 27.3086C49.8873 26.9796 50.021 26.6433 50.1376 26.3009C50.1945 26.1303 50.2481 25.9589 50.2978 25.7859C50.607 24.6885 50.7395 23.5489 50.6903 22.4098ZM44.4048 26.1696C44.2021 26.2609 43.9666 26.1263 43.8857 26.0823C43.6862 25.9725 43.4451 25.7306 43.1792 25.4127L41.3064 26.8432L40.3997 27.536C40.0376 27.8748 39.5538 27.9854 39.1581 27.8564C39.076 27.8308 38.9976 27.7944 38.925 27.7483C38.8577 27.7055 38.7961 27.6544 38.7416 27.5961L37.3447 26.1023C38.0207 26.2537 38.8898 26.1127 39.5298 25.8332C39.8614 25.689 40.9588 25.21 40.9444 24.4291C40.9403 24.299 40.9104 24.171 40.8563 24.0526C40.7852 23.8971 40.6839 23.7571 40.5584 23.641C40.4329 23.5248 40.2855 23.4347 40.125 23.3758C39.9702 23.3249 39.8063 23.308 39.6443 23.3261C39.5329 23.3393 39.4225 23.361 39.3143 23.391C38.7176 23.544 38.3379 23.9421 38.3147 23.9132C38.2914 23.8844 38.4701 23.7651 38.6527 23.5048C38.7302 23.3972 38.797 23.2824 38.8521 23.1619C38.9323 22.9753 39.0636 22.687 38.9851 22.3762C38.9801 22.3543 38.9739 22.3326 38.9667 22.3113C38.8345 21.9268 38.4396 21.7699 38.3451 21.7354C37.7788 21.532 37.2405 21.886 37.1436 21.9509C36.5493 22.3425 36.3906 23.0258 36.2801 23.5024C36.2036 23.8232 36.1766 24.1538 36.2 24.4827C36.2088 24.5925 36.22 24.7318 36.2433 24.8832C36.2433 24.9008 36.2489 24.9185 36.2521 24.9369L35.085 23.689C34.6749 23.25 34.7526 22.5116 35.2588 22.039L37.5817 19.4454C37.4162 19.2862 37.276 19.1025 37.166 18.9008C37.1276 18.8207 37.0058 18.574 37.114 18.377C37.2221 18.1799 37.46 18.1246 37.5946 18.0926C38.7961 17.8147 42.206 17.7466 43.8993 18.3425C44.1409 18.4205 44.3606 18.5547 44.5401 18.7342C44.6419 18.8389 44.727 18.9585 44.7924 19.089C44.8491 19.2021 44.8947 19.3204 44.9286 19.4422C45.1393 20.1751 45.1953 21.2044 45.1633 22.2416C45.1529 22.5957 45.1321 22.9489 45.1032 23.2909C45.0183 24.3025 44.8629 25.2132 44.7155 25.7082C44.6811 25.8396 44.5986 26.0831 44.4048 26.1696V26.1696Z" fill="white"/>
</svg>
