<svg width="24" height="24" viewBox="0 0 24 24" fill="none" xmlns="http://www.w3.org/2000/svg">
<path d="M21.513 5.83818C22.1623 5.18891 22.1623 4.13623 21.513 3.48696C20.8638 2.83768 19.8111 2.83768 19.1618 3.48696L12.5 10.1488L5.8382 3.48696C5.18893 2.83768 4.13625 2.83768 3.48698 3.48696C2.8377 4.13623 2.8377 5.18891 3.48698 5.83818L10.1488 12.5L3.48695 19.1618C2.83768 19.8111 2.83768 20.8638 3.48695 21.513C4.13623 22.1623 5.18891 22.1623 5.83818 21.513L12.5 14.8512L19.1618 21.513C19.8111 22.1623 20.8638 22.1623 21.513 21.513C22.1623 20.8638 22.1623 19.8111 21.513 19.1618L14.8512 12.5L21.513 5.83818Z" fill="#E7946D"/>
</svg>
