<svg width="21" height="21" viewBox="0 0 21 21" fill="none" xmlns="http://www.w3.org/2000/svg">
<path d="M9.23502 6.06045V10.5026C9.23502 10.8024 9.35722 11.08 9.55718 11.291L12.6565 14.3894C12.7594 14.4922 12.8815 14.5738 13.0158 14.6294C13.1502 14.685 13.2942 14.7137 13.4397 14.7137C13.5851 14.7137 13.7291 14.685 13.8635 14.6294C13.9979 14.5738 14.12 14.4922 14.2228 14.3894C14.3257 14.2866 14.4073 14.1645 14.4629 14.0302C14.5186 13.8959 14.5472 13.7519 14.5472 13.6065C14.5472 13.4611 14.5186 13.3171 14.4629 13.1828C14.4073 13.0484 14.3257 12.9264 14.2228 12.8236L11.4457 10.0472V6.06045C11.4457 5.44966 10.9458 4.94992 10.3348 4.94992C10.0421 4.95285 9.76238 5.07114 9.55645 5.27909C9.35052 5.48704 9.23501 5.76783 9.23502 6.06045V6.06045ZM19.3995 2.56229L17.9443 4.01708C17.0378 2.94949 15.9163 2.08511 14.6529 1.48041C13.3895 0.875703 12.0128 0.544289 10.6125 0.507819C5.18034 0.374556 0.503571 4.79445 0.348049 10.2138C0.275935 12.6729 1.11328 15.0722 2.6999 16.9528C4.28651 18.8334 6.51099 20.0631 8.94777 20.4068C11.3845 20.7505 13.8625 20.184 15.9077 18.8156C17.9528 17.4473 19.4215 15.3732 20.0327 12.9901C20.2104 12.2905 19.6661 11.6131 18.944 11.6131C18.4442 11.6131 17.9998 11.9462 17.8776 12.4238C17.3884 14.3325 16.1938 15.985 14.5345 17.0483C12.8751 18.1116 10.8743 18.5068 8.93509 18.1541C5.84686 17.6099 3.33629 15.1445 2.73642 12.0795C1.74775 7.10434 5.54693 2.72887 10.3459 2.72887C12.7676 2.72887 14.9227 3.86161 16.3557 5.60513L14.6339 7.32645C14.2784 7.68182 14.5228 8.2815 15.0227 8.2815H19.7883C20.0993 8.2815 20.3437 8.03718 20.3437 7.72624V2.96208C20.3444 2.85246 20.3126 2.74509 20.2523 2.65352C20.192 2.56196 20.1059 2.49028 20.0049 2.44752C19.904 2.40477 19.7926 2.39285 19.6848 2.41328C19.5771 2.4337 19.4778 2.48555 19.3995 2.56229V2.56229Z" fill="#202020" fill-opacity="0.38"/>
</svg>
