<svg width="262" height="167" viewBox="0 0 262 167" fill="none" xmlns="http://www.w3.org/2000/svg">
<path d="M238.379 112.404C233.883 150.108 74.904 155.042 30.7235 141.597C-2.09102 131.611 -12.1609 109.936 53.8632 91.7759C85.7869 82.9953 111.433 56.366 231.96 66.7382C276.371 70.5601 240.576 93.984 238.379 112.404Z" fill="#D3AB98" fill-opacity="0.5"/>
<path d="M118.522 32.4185L202.272 43.4371V121.945L118.522 108.86V32.4185Z" fill="#D5B09A"/>
<path d="M118.522 32.4185L53.5433 43.9702V106.061L118.522 95.2979V32.4185Z" fill="#A6623F"/>
<path d="M172.531 22.6298C172.461 23.1162 172.368 23.5932 172.253 24.0606C172.213 24.2214 172.171 24.38 172.126 24.5362C172.1 24.6253 172.074 24.7147 172.047 24.8032C171.036 28.0932 168.877 30.9188 165.955 32.7786C163.032 34.6384 159.534 35.4121 156.081 34.9625C156.017 34.9531 155.952 34.9438 155.887 34.9344C155.423 34.8677 154.968 34.7805 154.52 34.6729C147.215 32.923 142.307 25.9305 143.386 18.4343C144.531 10.4798 151.983 4.97031 160.032 6.12854C168.08 7.28676 173.676 14.6754 172.531 22.6298Z" fill="#FFFFFE"/>
<path d="M151.778 31.7663C151.448 33.0234 149.471 34.3218 145.588 37.0232C141.113 40.1346 143.457 38.6781 138.559 42.0559C133.625 45.4598 128.593 48.7321 123.677 52.1585C120.796 54.1597 119.357 55.1605 118.391 54.8502C118.219 54.7952 118.285 54.771 116.728 52.781C115.852 51.6603 115.747 51.5542 115.646 51.2275C115.444 50.5823 115.588 50.108 116.067 48.4042C116.858 45.5851 116.841 45.536 117.027 45.3461C118.094 44.2463 119.355 45.1442 120.606 44.0464C121.762 43.0305 121.256 41.7277 122.288 41.2601C123.457 40.7294 124.487 42.0762 125.458 41.5381C126.598 40.9065 125.871 38.6703 126.979 38.1029C127.952 37.607 129.156 38.9928 130.011 38.3925C130.387 38.1286 130.479 37.6363 130.655 36.6868C130.909 35.3127 130.598 34.8766 130.969 34.5072C131.402 34.0769 132.251 34.2444 133.306 34.4533C134.928 34.7741 135.081 35.1095 135.537 34.9596C136.705 34.5767 135.88 32.1389 137.332 29.9263C137.854 29.1313 138.125 29.1958 141.872 26.7613C145.058 24.6912 145.175 24.4412 145.853 24.4072C148.82 24.2692 152.565 28.7603 151.778 31.7663Z" fill="#4D5E3B" stroke="#4D5E3B"/>
<path d="M144.645 34.1878L122.229 49.8135C121.942 50.0138 121.871 50.409 122.072 50.6963C122.272 50.9836 122.667 51.0542 122.954 50.8539L145.37 35.2281C145.658 35.0279 145.728 34.6326 145.528 34.3453C145.328 34.0581 144.932 33.9875 144.645 34.1878Z" fill="white"/>
<path d="M173.615 22.3504C173.636 22.1369 173.653 21.9215 173.665 21.7066C173.666 21.6986 173.668 21.6906 173.669 21.6838C173.674 21.5821 173.678 21.4802 173.682 21.3794L173.686 21.3509C173.69 21.242 173.693 21.134 173.695 21.0248C173.696 20.9156 173.696 20.8037 173.696 20.6919C173.696 20.58 173.693 20.4701 173.689 20.3589C173.685 20.2477 173.683 20.1681 173.678 20.0719C173.682 20.0457 173.676 20.0193 173.674 19.9922C173.669 19.8924 173.664 19.7926 173.656 19.6937C173.648 19.5947 173.639 19.4711 173.628 19.36C173.617 19.249 173.606 19.1391 173.593 19.0277C173.58 18.9163 173.567 18.8178 173.553 18.7122L173.546 18.6646C173.532 18.5646 173.517 18.4646 173.501 18.3645C173.485 18.2644 173.464 18.1437 173.444 18.0336C173.423 17.9235 173.402 17.8133 173.375 17.7022C173.348 17.5912 173.336 17.5137 173.314 17.4198C173.293 17.3258 173.27 17.2259 173.24 17.1283C173.235 17.1055 173.229 17.0814 173.223 17.0584C173.19 16.9372 173.158 16.8067 173.122 16.6816C173.096 16.5823 173.067 16.4838 173.037 16.3851C173.007 16.2865 172.969 16.1622 172.932 16.0509L172.92 16.0154C172.886 15.9103 172.851 15.8063 172.813 15.703C172.776 15.5998 172.736 15.4833 172.693 15.3747C172.689 15.3604 172.683 15.3464 172.677 15.3328C172.646 15.2491 172.613 15.1664 172.578 15.0857C172.561 15.0377 172.541 14.9894 172.52 14.9421C172.493 14.8754 172.465 14.8084 172.432 14.7408C172.421 14.7113 172.408 14.6826 172.395 14.6528C172.358 14.5683 172.32 14.4836 172.279 14.4032C172.271 14.3821 172.262 14.3622 172.251 14.3409C172.21 14.2498 172.161 14.1567 172.121 14.067L172.094 14.0143C172.049 13.9216 172.004 13.8301 171.955 13.7391C171.948 13.7265 171.942 13.7128 171.935 13.7001C171.889 13.612 171.843 13.525 171.793 13.4374C171.78 13.4114 171.765 13.3849 171.748 13.3577C171.712 13.2895 171.674 13.2223 171.634 13.156C171.59 13.0774 171.54 12.9981 171.496 12.9206C171.451 12.8431 171.41 12.7778 171.366 12.7062C171.244 12.5094 171.117 12.314 170.984 12.1202C170.963 12.0869 170.941 12.0546 170.918 12.0221C169.776 10.3308 168.309 8.88354 166.602 7.76442C164.896 6.64531 162.984 5.87672 160.977 5.50337C158.971 5.13002 156.91 5.15936 154.915 5.5897C152.921 6.02003 151.031 6.84276 149.357 8.01002C147.683 9.17728 146.258 10.6658 145.165 12.3889C144.071 14.112 143.332 16.0353 142.989 18.0469C142.645 20.0586 142.706 22.1184 143.166 24.1065C143.626 26.0946 144.478 27.9713 145.67 29.6275C145.898 29.9546 146.136 30.27 146.385 30.5738C146.463 30.67 146.543 30.7653 146.624 30.8585C146.705 30.9517 146.764 31.0207 146.835 31.0997C146.854 31.1222 146.874 31.1438 146.894 31.1653C146.955 31.2335 147.017 31.2995 147.08 31.3667L147.131 31.4219C147.21 31.5054 147.29 31.588 147.371 31.6683L147.381 31.6791C147.45 31.7496 147.519 31.8155 147.584 31.8843C147.605 31.906 147.627 31.9277 147.649 31.9484C147.729 32.0251 147.81 32.102 147.893 32.1768L147.901 32.1779C147.987 32.2567 148.075 32.3357 148.164 32.4126C148.253 32.4895 148.325 32.5524 148.409 32.6214C148.588 32.7742 148.772 32.9207 148.958 33.0616C149.007 33.1001 149.056 33.1362 149.106 33.1726L149.195 33.2389C149.246 33.2777 149.3 33.3158 149.352 33.3523C149.434 33.4119 149.517 33.4693 149.601 33.5267C149.684 33.5842 149.737 33.6198 149.807 33.6647L149.92 33.7381L150.047 33.8205L150.084 33.8432L150.222 33.9295L150.404 34.0395L150.532 34.115C150.617 34.1658 150.704 34.2143 150.79 34.2687L151.115 34.4423C151.223 34.4976 151.322 34.549 151.426 34.6036C151.53 34.6582 151.625 34.7021 151.726 34.7493L151.767 34.768L152.031 34.8887L152.12 34.9271L152.299 35.0041L152.482 35.0806L152.712 35.1718L152.718 35.1728L152.972 35.2688L153.062 35.3015L153.355 35.4042L153.407 35.421C153.506 35.455 153.606 35.4869 153.705 35.5175L153.741 35.5226C153.843 35.5549 153.947 35.585 154.05 35.6149C154.153 35.6448 154.233 35.6668 154.325 35.6905L154.437 35.7195C154.531 35.7447 154.625 35.7675 154.719 35.7904L154.741 35.7935L155.031 35.8585L155.115 35.8707C155.216 35.8921 155.318 35.9126 155.419 35.9318L155.665 35.9766L155.712 35.9833L155.848 36.0029L156.112 36.041C157.517 36.2446 158.942 36.2538 160.349 36.0682C160.586 36.0371 160.821 36.0003 161.054 35.9577C161.174 35.9365 161.293 35.9141 161.405 35.8917C161.755 35.8202 162.104 35.7357 162.452 35.6383C162.915 35.508 163.375 35.3563 163.827 35.1815C164.168 35.0496 164.505 34.904 164.84 34.7448C165.062 34.6405 165.282 34.53 165.501 34.4137C165.721 34.2973 165.936 34.1757 166.151 34.0483C166.473 33.8616 166.791 33.6523 167.104 33.4341C167.332 33.2759 167.554 33.1137 167.769 32.9475C167.877 32.8628 167.984 32.7768 168.089 32.6907C168.195 32.6045 168.298 32.5169 168.401 32.428C168.503 32.3391 168.604 32.2487 168.704 32.1583C168.853 32.0244 168.999 31.8851 169.143 31.7404L169.28 31.5982C169.698 31.1729 170.092 30.724 170.459 30.2536C170.579 30.097 170.697 29.9389 170.812 29.7792C170.888 29.6736 170.959 29.5674 171.036 29.462C171.113 29.3566 171.183 29.2502 171.252 29.1343C171.534 28.6964 171.793 28.2447 172.029 27.7808C172.145 27.5494 172.257 27.3162 172.363 27.0799C173.029 25.5799 173.451 23.9834 173.615 22.3504ZM163.889 26.4183C163.581 26.5069 163.273 26.2669 163.167 26.1875C162.905 25.9903 162.612 25.5962 162.298 25.0887L159.336 26.7428L157.902 27.544C157.317 27.9525 156.605 28.0108 156.068 27.7459C155.956 27.6926 155.852 27.6247 155.758 27.5441C155.671 27.4693 155.594 27.3838 155.528 27.2897L153.844 24.875C154.776 25.2293 156.043 25.2066 157.012 24.9396C157.514 24.8022 159.176 24.3447 159.315 23.2292C159.336 23.043 159.32 22.8545 159.267 22.6748C159.198 22.4386 159.082 22.2185 158.927 22.0272C158.772 21.8359 158.581 21.6773 158.364 21.5605C158.154 21.4563 157.924 21.3986 157.689 21.3913C157.528 21.3872 157.366 21.3955 157.206 21.416C156.324 21.5116 155.702 22.0009 155.675 21.9551C155.647 21.9093 155.926 21.7759 156.24 21.4424C156.372 21.3051 156.491 21.1553 156.594 20.9949C156.747 20.7454 156.993 20.3616 156.945 19.9027C156.942 19.8704 156.938 19.8383 156.932 19.8065C156.823 19.2316 156.292 18.927 156.165 18.8585C155.399 18.4526 154.56 18.8466 154.409 18.9192C153.481 19.3554 153.115 20.2962 152.86 20.9526C152.685 21.3939 152.579 21.8594 152.545 22.3329C152.535 22.4911 152.523 22.6919 152.525 22.9124C152.521 22.9375 152.525 22.9637 152.526 22.9906L151.119 20.9734C150.625 20.264 150.887 19.2278 151.705 18.6583L155.546 15.4395C155.343 15.1786 155.181 14.8882 155.066 14.5783C155.027 14.4563 154.905 14.0798 155.099 13.8213C155.293 13.5627 155.644 13.5328 155.842 13.5147C157.611 13.3651 162.483 13.9672 164.773 15.1634C165.102 15.3239 165.387 15.5602 165.606 15.8528C165.729 16.0228 165.826 16.2107 165.893 16.41C165.95 16.5827 165.991 16.7606 166.014 16.9412C166.164 18.0285 166.033 19.5064 165.775 20.9776C165.687 21.4799 165.585 21.9789 165.474 22.4602C165.146 23.8841 164.738 25.1497 164.426 25.8248C164.35 26.0048 164.183 26.3348 163.889 26.4183Z" fill="#4D5E3B"/>
<path d="M53.5432 43.9702L145.957 55.3443V136.384L53.5432 122.878V43.9702Z" fill="#E7936D"/>
<path d="M85.3105 114.392L102.638 116.169V130.059L85.3105 127.498V114.392Z" fill="#F2D7B4"/>
<path d="M202.272 43.9702L145.957 55.3443V136.384L202.272 122.878V43.9702Z" fill="#F8E6D8"/>
<path d="M146.031 56.1811L107.766 79.2847L16.7273 64.9078L53.617 44.6294L146.031 56.1811Z" fill="#FDF4F0"/>
<path d="M223.21 68.5177L202.273 43.2481L145.958 54.7998L164.729 82.2353L223.21 68.5177Z" fill="#FDF4F0"/>
<path d="M182.779 114.003L166.173 117.946V131.331L182.779 127.721V114.003Z" fill="#E6CBA9"/>
</svg>
