<svg width="24" height="24" viewBox="0 0 24 24" fill="current" stroke="current" xmlns="http://www.w3.org/2000/svg">
<path d="M19.1193 11.7862C20.022 12.251 20.7172 12.8183 21.205 13.4882C21.6927 14.1581 21.9548 14.8484 21.9912 15.5593C22.0276 16.2702 21.9512 16.9537 21.7619 17.6099C21.5726 18.2661 21.2887 18.8813 20.9101 19.4555C20.4297 20.1937 19.8473 20.7849 19.163 21.2292C18.4787 21.6735 17.7398 21.9264 16.9463 21.988C16.1528 22.0495 15.3411 21.8752 14.5112 21.4651C14.3219 21.3694 14.1654 21.2292 14.0417 21.0447C13.9179 20.8601 13.8233 20.6687 13.7578 20.4705C13.6922 20.2723 13.6486 20.0057 13.6267 19.6708C13.6049 19.3358 13.594 19.0522 13.594 18.8198C13.594 18.5874 13.5976 18.2456 13.6049 17.7945C13.6122 17.3433 13.6158 16.9947 13.6158 16.7487C13.6012 15.6823 13.5066 14.7322 13.3319 13.8983C12.9679 14.0487 12.5966 14.1239 12.2181 14.1239C11.8687 14.1239 11.5265 14.0624 11.1916 13.9393C10.2598 14.951 9.48816 15.6413 8.87666 16.0104C8.11956 16.4616 7.35882 16.7042 6.59445 16.7384C5.83007 16.7726 5.14577 16.629 4.54155 16.3078C3.93732 15.9865 3.4059 15.5935 2.94727 15.1287C2.48865 14.6639 2.0919 14.1444 1.75703 13.5702C1.34936 12.8457 1.10549 12.1177 1.02541 11.3863C0.945332 10.6549 1.05453 9.96799 1.353 9.32547C1.65147 8.68294 2.14286 8.15662 2.82716 7.7465C3.06011 7.6508 3.28578 7.59612 3.50418 7.58245C3.72257 7.56878 3.9992 7.62004 4.33407 7.73624C4.66894 7.85245 4.98197 7.98574 5.27316 8.13611C5.56436 8.28649 5.90287 8.47446 6.28869 8.70003C6.67452 8.9256 7.03851 9.14091 7.38066 9.34597C7.72281 9.55103 8.09772 9.75951 8.50539 9.97141C8.91306 10.1833 9.29161 10.3576 9.64104 10.4943C9.78663 10.1662 9.99775 9.87229 10.2744 9.61255C9.70655 8.05409 9.42264 6.85107 9.42264 6.00348C9.42264 5.27893 9.55368 4.62616 9.81575 4.04515C10.0778 3.46415 10.4236 2.98909 10.8531 2.61998C11.2826 2.25087 11.7777 1.93986 12.3382 1.68695C12.8987 1.43405 13.4593 1.25633 14.0198 1.1538C14.5804 1.05127 15.1446 1 15.7124 1C17.1101 1 18.2749 1.33151 19.2067 1.99454C20.1385 2.65757 20.6044 3.57693 20.6044 4.75261C20.6044 5.14906 20.3642 5.55235 19.8837 5.96247C19.4032 6.37259 18.8536 6.73486 18.2348 7.04929C17.616 7.36372 16.8771 7.74992 16.0181 8.20788C15.1591 8.66585 14.4748 9.08623 13.9652 9.46901C14.3583 9.76976 14.6422 10.132 14.817 10.5558C16.7971 10.9113 18.2312 11.3214 19.1193 11.7862ZM12.2072 10.1867C11.8213 10.1867 11.4937 10.3166 11.2244 10.5763C10.955 10.8361 10.8204 11.1471 10.8204 11.5094C10.8204 11.8716 10.955 12.1792 11.2244 12.4321C11.4937 12.685 11.8213 12.8115 12.2072 12.8115C12.593 12.8115 12.9242 12.685 13.2009 12.4321C13.4775 12.1792 13.6158 11.8716 13.6158 11.5094C13.6158 11.1471 13.4775 10.8361 13.2009 10.5763C12.9242 10.3166 12.593 10.1867 12.2072 10.1867Z" fill="current" stroke="current" />
</svg>
