<svg width="24" height="24" viewBox="0 0 24 24" fill="current" stroke="current" xmlns="http://www.w3.org/2000/svg">
<path d="M21.3333 0H2.66667C1.2 0 0 1.2 0 2.66667V21.3333C0 22.8 1.2 24 2.66667 24H21.3333C22.8 24 24 22.8 24 21.3333V2.66667C24 1.2 22.8 0 21.3333 0ZM7.33333 4C7.77536 4 8.19928 4.17559 8.51184 4.48816C8.82441 4.80072 9 5.22464 9 5.66667C9 6.10869 8.82441 6.53262 8.51184 6.84518C8.19928 7.15774 7.77536 7.33333 7.33333 7.33333C6.89131 7.33333 6.46738 7.15774 6.15482 6.84518C5.84226 6.53262 5.66667 6.10869 5.66667 5.66667C5.66667 5.22464 5.84226 4.80072 6.15482 4.48816C6.46738 4.17559 6.89131 4 7.33333 4ZM10.6667 13.3333C10.6667 14.0667 10.0667 14.6667 9.33333 14.6667V18.6667C9.33333 19.4 8.73333 20 8 20H6.66667C5.93333 20 5.33333 19.4 5.33333 18.6667V14.6667C4.6 14.6667 4 14.0667 4 13.3333V11.3333C4 9.86667 5.2 8.66667 6.66667 8.66667H8C9.46667 8.66667 10.6667 9.86667 10.6667 11.3333V13.3333ZM19.36 14.3467L17.2267 17.76C16.96 18.1733 16.36 18.1733 16.0933 17.76L13.96 14.3467C13.6933 13.9067 14.0133 13.3333 14.5333 13.3333H18.8C19.32 13.3333 19.64 13.9067 19.36 14.3467ZM18.8 10.6667H14.5333C14.0133 10.6667 13.6933 10.0933 13.9733 9.64L16.1067 6.22667C16.3733 5.81333 16.9733 5.81333 17.24 6.22667L19.3733 9.64C19.64 10.0933 19.32 10.6667 18.8 10.6667Z" fill="current" stroke="current" />
</svg>
