<svg width="24" height="24" viewBox="0 0 24 24" fill="current" stroke="current" xmlns="http://www.w3.org/2000/svg">
<path d="M8.41934 22.1104C8.51085 22.2096 8.55952 22.3409 8.55476 22.4758C8.54999 22.6107 8.49219 22.7383 8.3939 22.8308L7.28885 23.8641C7.19017 23.9558 7.05914 24.0045 6.92454 23.9997C6.78993 23.9948 6.66277 23.9367 6.57097 23.8381L0.135501 16.9026C0.0440484 16.8033 -0.00452626 16.6719 0.000332337 16.537C0.00519093 16.4021 0.0630902 16.2746 0.161448 16.1821L1.26803 15.1503C1.31686 15.1049 1.37416 15.0695 1.43668 15.0462C1.49919 15.0229 1.56568 15.0122 1.63234 15.0146C1.69901 15.017 1.76455 15.0325 1.82522 15.0602C1.88589 15.088 1.94049 15.1274 1.98591 15.1763L8.41934 22.1104ZM16.6309 9.06034C16.7224 9.15963 16.771 9.29099 16.7661 9.42589C16.7612 9.56079 16.7033 9.68832 16.605 9.78076L9.65006 16.2778C9.55138 16.3695 9.42035 16.4182 9.28575 16.4134C9.15115 16.4085 9.02398 16.3504 8.93218 16.2518L7.27206 14.4605C7.1806 14.3612 7.13203 14.2298 7.13689 14.0949C7.14175 13.96 7.19965 13.8325 7.298 13.74L14.2514 7.24301C14.3002 7.19757 14.3575 7.16219 14.4199 7.1389C14.4824 7.11561 14.5488 7.10486 14.6155 7.10727C14.6821 7.10968 14.7476 7.1252 14.8082 7.15294C14.8688 7.18069 14.9234 7.22011 14.9688 7.26896L16.6309 9.06034ZM10.7856 19.8987C10.9759 20.1038 10.9642 20.4278 10.7597 20.6191L9.65311 21.6519C9.60428 21.6974 9.54698 21.7328 9.48447 21.7561C9.42195 21.7794 9.35546 21.7901 9.2888 21.7877C9.22213 21.7853 9.15659 21.7698 9.09592 21.7421C9.03526 21.7143 8.98065 21.6749 8.93523 21.626L2.50333 14.6904C2.41181 14.5912 2.36315 14.4599 2.36791 14.325C2.37267 14.1901 2.43048 14.0625 2.52877 13.97L3.63331 12.9377C3.73199 12.846 3.86302 12.7973 3.99762 12.8021C4.13222 12.807 4.25939 12.8651 4.35119 12.9636L10.7856 19.8987ZM21.5019 9.30913C21.5933 9.40848 21.6418 9.53989 21.6368 9.67478C21.6319 9.80968 21.5739 9.93717 21.4755 10.0296L20.3694 11.0624C20.2707 11.1541 20.1396 11.203 20.0049 11.1982C19.8703 11.1935 19.743 11.1354 19.651 11.0369L13.2181 4.10287C13.1264 4.00371 13.0777 3.87235 13.0825 3.73742C13.0872 3.60248 13.1451 3.47489 13.2435 3.38244L14.3526 2.34709C14.4014 2.30165 14.4587 2.26627 14.5212 2.24298C14.5836 2.21969 14.6501 2.20894 14.7167 2.21135C14.7833 2.21376 14.8488 2.22928 14.9095 2.25703C14.9701 2.28477 15.0246 2.32419 15.07 2.37304L21.5019 9.30913ZM23.8647 7.10106C23.956 7.20049 24.0045 7.33191 23.9997 7.46685C23.9948 7.60179 23.937 7.72939 23.8387 7.82199L22.7347 8.85429C22.6859 8.89976 22.6287 8.93518 22.5662 8.95851C22.5038 8.98185 22.4373 8.99264 22.3707 8.99028C22.3041 8.98792 22.2386 8.97244 22.1779 8.94474C22.1173 8.91704 22.0627 8.87766 22.0173 8.82885L15.5854 1.89174C15.494 1.79238 15.4454 1.66099 15.4501 1.52605C15.4549 1.39111 15.5126 1.26348 15.6108 1.17081L16.7159 0.136476C16.7646 0.0909564 16.8218 0.0554967 16.8842 0.0321313C16.9466 0.00876603 17.013 -0.00204504 17.0796 0.000318454C17.1462 0.00268195 17.2117 0.0181735 17.2723 0.0459042C17.3329 0.0736349 17.3874 0.113059 17.4328 0.161914L23.8647 7.10106Z" fill="current" stroke="current" />
</svg>
