<svg width="24" height="24" viewBox="0 0 24 24" fill="current" stroke="current" xmlns="http://www.w3.org/2000/svg">
<rect width="2.68133" height="8.04825" transform="matrix(0.739133 0.67356 -0.742524 0.66982 7.69141 3.11719)" fill="current" stroke="current" stroke-linecap="round" stroke-linejoin="round"/>
<rect width="2.68133" height="8.04825" transform="matrix(0.739133 0.67356 -0.742524 0.66982 20.0176 3.11719)" fill="current" stroke="current" stroke-linecap="round" stroke-linejoin="round"/>
<rect width="2.68133" height="8.04825" transform="matrix(0.739133 0.67356 -0.742524 0.66982 7.69141 7.0293)" fill="current" stroke="current" stroke-linecap="round" stroke-linejoin="round"/>
<rect width="2.68133" height="8.04825" transform="matrix(0.739133 -0.67356 -0.742524 -0.66982 13.8545 20.373)" fill="current" stroke="current" stroke-linecap="round" stroke-linejoin="round"/>
<rect width="2.68133" height="8.04825" transform="matrix(-0.739133 -0.67356 0.742524 -0.66982 16.0239 22.0498)" fill="current" stroke="current" stroke-linecap="round" stroke-linejoin="round"/>
<rect width="2.68133" height="8.04825" transform="matrix(0.739133 0.67356 -0.742524 0.66982 7.69141 10.9404)" fill="current" stroke="current" stroke-linecap="round" stroke-linejoin="round"/>
<rect width="2.68133" height="8.04825" transform="matrix(0.739133 -0.67356 -0.742524 -0.66982 13.8545 16.4609)" fill="current" stroke="current" stroke-linecap="round" stroke-linejoin="round"/>
<rect width="2.68133" height="8.04825" transform="matrix(-0.739133 -0.67356 0.742524 -0.66982 16.0239 18.1377)" fill="current" stroke="current" stroke-linecap="round" stroke-linejoin="round"/>
<rect width="2.68133" height="8.04825" transform="matrix(0.739133 0.67356 -0.742524 0.66982 7.69141 14.8525)" fill="current" stroke="current" stroke-linecap="round" stroke-linejoin="round"/>
<rect width="2.68133" height="8.04825" transform="matrix(0.739133 -0.67356 -0.742524 -0.66982 13.8545 12.5498)" fill="current" stroke="current" stroke-linecap="round" stroke-linejoin="round"/>
<rect width="2.68133" height="8.04825" transform="matrix(-0.739133 -0.67356 0.742524 -0.66982 16.0239 14.2266)" fill="current" stroke="current" stroke-linecap="round" stroke-linejoin="round"/>
<path d="M3.15425 6.79614L1.09279 5.02361L3.35553 3.16858" fill="current" stroke="current" stroke-linecap="round" stroke-linejoin="round"/>
<path d="M19.7896 18.7634L21.8511 20.536L19.5883 22.391" fill="current" stroke="current" stroke-linecap="round" stroke-linejoin="round"/>
<path d="M8.27374 18.7639L10.3695 20.7186M12.2184 22.3951L10.3695 20.7186M8.27372 22.6743L10.3695 20.7186" fill="current" stroke="current" stroke-linecap="round" stroke-linejoin="round"/>
<path d="M16.4714 6.23615L14.3756 4.28136M12.5267 2.6049L14.3756 4.28136M16.4714 2.32568L14.3756 4.28136" fill="current" stroke="current" stroke-linecap="round" stroke-linejoin="round"/>
</svg>
