<svg width="24" height="24" viewBox="0 0 24 24" fill="current" stroke="current" xmlns="http://www.w3.org/2000/svg">
<path fill-rule="evenodd" clip-rule="evenodd" d="M5.17825 5.60944L10.6372 2.43349C10.9208 2.26847 11.2674 2.25312 11.5645 2.3924L21.0245 6.82696C21.3757 6.99161 21.6 7.34451 21.6 7.73241V11.7447V14.7193V16.7644V20.97C21.6 21.5223 21.1523 21.97 20.6 21.97H2.80005C2.24777 21.97 1.80005 21.5223 1.80005 20.97V7.74912C1.80005 7.35267 2.03426 6.99365 2.3971 6.8339L5.17825 5.60944ZM6.66368 11.4141C6.97837 10.6777 7.70197 10.2 8.50278 10.2H14.6611C15.4482 10.2 16.1621 10.6617 16.485 11.3795L17.4549 13.5356C17.6201 13.9029 17.8949 14.21 18.2416 14.4149C18.8356 14.7659 19.2 15.4046 19.2 16.0945V19.6544C19.2 20.0662 18.8662 20.4 18.4544 20.4H18.1073C17.8872 20.4 17.7088 20.2216 17.7088 20.0016C17.7088 19.7815 17.5304 19.6031 17.3104 19.6031H5.91428C5.69422 19.6031 5.51584 19.7815 5.51584 20.0016C5.51584 20.2216 5.33745 20.4 5.1174 20.4H4.85794C4.4946 20.4 4.20005 20.1055 4.20005 19.7421V15.9992C4.20005 15.3631 4.51726 14.7688 5.0458 14.4148C5.35255 14.2094 5.59307 13.9193 5.73815 13.5798L6.66368 11.4141ZM6.35809 17.5161C6.88721 17.5161 7.31615 17.0872 7.31615 16.5581C7.31615 16.029 6.88721 15.6 6.35809 15.6C5.82896 15.6 5.40002 16.029 5.40002 16.5581C5.40002 17.0872 5.82896 17.5161 6.35809 17.5161ZM18.1162 16.5581C18.1162 17.0872 17.6872 17.5161 17.1581 17.5161C16.629 17.5161 16.2 17.0872 16.2 16.5581C16.2 16.029 16.629 15.6 17.1581 15.6C17.6872 15.6 18.1162 16.029 18.1162 16.5581ZM9.46457 17.4989C9.11182 17.4989 8.82586 17.7848 8.82586 18.1376C8.82586 18.4903 9.11182 18.7763 9.46457 18.7763H13.9355C14.2883 18.7763 14.5743 18.4903 14.5743 18.1376C14.5743 17.7848 14.2883 17.4989 13.9355 17.4989H9.46457Z" fill="current" stroke="current" />
</svg>
