<svg width="24" height="24" viewBox="0 0 24 24" fill="current" stroke="current" xmlns="http://www.w3.org/2000/svg">
<path d="M3.11111 23.2222H20.8889C21.1836 23.2222 21.4662 23.1052 21.6746 22.8968C21.8829 22.6884 22 22.4058 22 22.1111V4.33333C22 2.49556 20.5044 1 18.6667 1H5.33333C3.49556 1 2 2.49556 2 4.33333V22.1111C2 22.4058 2.11706 22.6884 2.32544 22.8968C2.53381 23.1052 2.81643 23.2222 3.11111 23.2222ZM18.6667 3.13778C18.8126 3.13778 18.9571 3.16652 19.0919 3.22236C19.2267 3.27819 19.3492 3.36004 19.4523 3.46321C19.5555 3.56639 19.6374 3.68888 19.6932 3.82368C19.749 3.95849 19.7778 4.10298 19.7778 4.24889C19.7778 4.3948 19.749 4.53929 19.6932 4.67409C19.6374 4.8089 19.5555 4.93139 19.4523 5.03456C19.3492 5.13774 19.2267 5.21958 19.0919 5.27542C18.9571 5.33126 18.8126 5.36 18.6667 5.36C18.372 5.36 18.0894 5.24294 17.881 5.03456C17.6726 4.82619 17.5556 4.54357 17.5556 4.24889C17.5556 3.9542 17.6726 3.67159 17.881 3.46321C18.0894 3.25484 18.372 3.13778 18.6667 3.13778ZM15.3333 3.13778C15.4792 3.13778 15.6237 3.16652 15.7585 3.22236C15.8933 3.27819 16.0158 3.36004 16.119 3.46321C16.2222 3.56639 16.304 3.68888 16.3599 3.82368C16.4157 3.95849 16.4444 4.10298 16.4444 4.24889C16.4444 4.3948 16.4157 4.53929 16.3599 4.67409C16.304 4.8089 16.2222 4.93139 16.119 5.03456C16.0158 5.13774 15.8933 5.21958 15.7585 5.27542C15.6237 5.33126 15.4792 5.36 15.3333 5.36C15.0386 5.36 14.756 5.24294 14.5477 5.03456C14.3393 4.82619 14.2222 4.54357 14.2222 4.24889C14.2222 3.9542 14.3393 3.67159 14.5477 3.46321C14.756 3.25484 15.0386 3.13778 15.3333 3.13778ZM12 6.55556C15.6767 6.55556 18.6667 9.54556 18.6667 13.2222C18.6667 16.8989 15.6767 19.8889 12 19.8889C8.32333 19.8889 5.33333 16.8989 5.33333 13.2222C5.33333 9.54556 8.32333 6.55556 12 6.55556Z" fill="current" stroke="current" />
<path d="M12.8514 17.5871C14.4058 17.2971 15.708 16.126 16.2103 14.626C16.5739 13.5732 16.5129 12.4201 16.0403 11.4115C15.9885 11.3006 15.9002 11.2108 15.7902 11.157C15.6803 11.1032 15.5552 11.0887 15.4358 11.116C14.7647 11.2815 14.3036 11.6137 13.7691 12.006C12.8958 12.6471 11.808 13.4437 9.77803 13.4437C8.8747 13.4437 8.16692 13.2815 7.57358 13.0504L7.55914 13.0604C7.53564 13.7292 7.66327 14.3948 7.93251 15.0074C8.20176 15.6201 8.6057 16.1642 9.11427 16.5992C9.62285 17.0342 10.223 17.349 10.87 17.52C11.517 17.691 12.1943 17.714 12.8514 17.5871Z" fill="current" stroke="current" />
</svg>
