<svg width="24" height="24" viewBox="0 0 24 24" fill="current" stroke="current" xmlns="http://www.w3.org/2000/svg">
<path fill-rule="evenodd" clip-rule="evenodd" d="M6.87962 11.2334C6.07881 11.2334 5.35521 11.7111 5.04051 12.4475L4.02694 14.8192C3.87477 15.1753 3.61757 15.4828 3.29584 15.6983C2.74149 16.0696 2.3999 16.6988 2.3999 17.366V21.3417C2.3999 21.7267 2.71193 22.0387 3.09684 22.0387H3.37169C3.6048 22.0387 3.79377 21.8497 3.79377 21.6166C3.79377 21.3835 3.98275 21.1945 4.21586 21.1945H16.2882C16.5213 21.1945 16.7103 21.3835 16.7103 21.6166C16.7103 21.8497 16.8993 22.0387 17.1324 22.0387H17.5002C17.9364 22.0387 18.29 21.6851 18.29 21.2488V17.4396C18.29 16.7323 17.9165 16.0776 17.3075 15.7178L17.2565 15.6876C16.9011 15.4776 16.6194 15.1627 16.45 14.7863L15.3824 12.4129C15.0595 11.6951 14.3456 11.2334 13.5585 11.2334H6.87962ZM4.68594 18.9836C5.24647 18.9836 5.70086 18.5292 5.70086 17.9687C5.70086 17.4082 5.24647 16.9538 4.68594 16.9538C4.12542 16.9538 3.67102 17.4082 3.67102 17.9687C3.67102 18.5292 4.12542 18.9836 4.68594 18.9836ZM17.1417 17.9687C17.1417 18.5292 16.6873 18.9836 16.1268 18.9836C15.5662 18.9836 15.1118 18.5292 15.1118 17.9687C15.1118 17.4082 15.5662 16.9538 16.1268 16.9538C16.6873 16.9538 17.1417 17.4082 17.1417 17.9687ZM7.97672 18.9654C7.60304 18.9654 7.30011 19.2684 7.30011 19.642C7.30011 20.0157 7.60304 20.3187 7.97672 20.3187H12.713C13.0867 20.3187 13.3896 20.0157 13.3896 19.642C13.3896 19.2684 13.0867 18.9654 12.713 18.9654H7.97672Z" fill="current" stroke="current" />
<path fill-rule="evenodd" clip-rule="evenodd" d="M21.5999 1.2002C21.5999 1.2002 19.3905 1.58081 18.2486 2.91297C17.34 3.97296 16.311 4.7518 15.8645 5.08972C15.7499 5.17649 15.6736 5.23419 15.6477 5.26011C15.5208 5.38698 15.0364 6.01214 14.8865 6.59227C14.7439 7.14393 14.6659 7.52592 14.8865 8.0513C15.003 8.32897 15.2553 8.44603 15.5002 8.55973C15.7691 8.68451 16.0292 8.80524 16.0918 9.12971C16.1447 9.40426 16.0175 9.59737 15.8858 9.79723C15.7703 9.97259 15.6514 10.1531 15.6477 10.3984C15.6395 10.9468 15.7993 11.2667 16.0918 11.7306C16.2564 11.9916 16.4737 12.1238 16.6891 12.2548C16.9146 12.3919 17.1381 12.5278 17.2971 12.809C17.4347 13.0525 17.4358 13.2887 17.4368 13.521C17.4379 13.773 17.439 14.0204 17.6142 14.268C18.0901 14.9402 19.5808 15.0293 19.5808 15.0293H20.2041V22.4934H21.5997V15.0293H21.5999V1.2002Z" fill="current" stroke="current" />
</svg>
