<svg width="24" height="24" viewBox="0 0 24 24" fill="current" stroke="current" xmlns="http://www.w3.org/2000/svg">
<path fill-rule="evenodd" clip-rule="evenodd" d="M17.2729 11.818C17.2729 11.4665 17.5579 11.1816 17.9093 11.1816C18.2608 11.1816 18.5457 11.4666 18.5457 11.818V12.4544C18.5457 12.8058 18.2608 13.0907 17.9093 13.0907C17.5579 13.0907 17.2729 12.8058 17.2729 12.4544V11.818Z" fill="current" stroke="current" />
<path fill-rule="evenodd" clip-rule="evenodd" d="M19.1816 11.818C19.1816 11.4665 19.4666 11.1816 19.818 11.1816C20.1695 11.1816 20.4544 11.4666 20.4544 11.818V12.4544C20.4544 12.8058 20.1695 13.0907 19.818 13.0907C19.4666 13.0907 19.1816 12.8058 19.1816 12.4544V11.818Z" fill="current" stroke="current" />
<path fill-rule="evenodd" clip-rule="evenodd" d="M5.18213 12.1362C5.18213 11.609 5.60949 11.1816 6.13667 11.1816H15.6821C16.2093 11.1816 16.6367 11.609 16.6367 12.1362C16.6367 12.6634 16.2093 13.0907 15.6821 13.0907H6.13667C5.60949 13.0907 5.18213 12.6634 5.18213 12.1362Z" fill="current" stroke="current" />
<path fill-rule="evenodd" clip-rule="evenodd" d="M19.0661 7.94856C18.4493 7.48468 17.8755 7.37816 17.1865 7.17887C15.6661 6.73904 14.9857 4.94538 14.9153 3.54688C14.7142 4.48494 14.8122 5.43331 14.941 6.05353C15.13 6.98473 15.6523 7.85922 16.4924 8.32825C17.2003 8.71825 18.1384 8.7509 18.8943 9.13918C19.6262 9.512 20.2344 10.0137 20.4526 10.3281C20.4543 10.3281 20.0591 8.69592 19.0661 7.94856Z" fill="current" stroke="current" />
<path fill-rule="evenodd" clip-rule="evenodd" d="M12.5007 1C6.70974 1 2 5.70881 2 11.5013C2 17.2912 6.70974 22 12.5007 22C18.2889 22 23 17.2912 23 11.5013C23 5.71013 18.2889 1 12.5007 1ZM21.8766 11.6031C21.8778 13.3967 21.3663 15.145 20.414 16.6456C20.0962 17.1464 19.4014 17.1793 18.9828 16.7591L7.31125 5.04409C6.89335 4.62464 6.92779 3.93143 7.42791 3.61448C8.92362 2.66657 10.6633 2.1574 12.4479 2.15771C17.6468 2.15771 21.8766 6.39339 21.8766 11.6031ZM3.23413 11.4656C3.23413 9.58762 3.78763 7.83589 4.73847 6.36845C5.05943 5.87312 5.75015 5.84375 6.16635 6.26225L17.7538 17.914C18.1676 18.3301 18.1376 19.0161 17.6459 19.3364C16.1431 20.3154 14.3823 20.8419 12.5745 20.8396C7.42305 20.8396 3.23413 16.633 3.23413 11.4656Z" fill="current" stroke="current" />
</svg>
