<svg width="24" height="24" viewBox="0 0 24 24" fill="current" stroke="current" xmlns="http://www.w3.org/2000/svg">
<path d="M23.4 17.6165H22.8C21.8235 17.6165 21.0825 17.296 20.6966 16.9352C20.3629 16.6227 19.9594 16.3985 19.5053 16.3985H18.894C18.4399 16.3985 18.0364 16.6227 17.7026 16.9352C17.3175 17.296 16.5765 17.6165 15.6 17.6165C14.6235 17.6165 13.8825 17.296 13.4966 16.9352C13.1629 16.6227 12.7594 16.3985 12.3053 16.3985H11.694C11.2399 16.3985 10.8364 16.6227 10.5026 16.9352C10.1175 17.296 9.3765 17.6165 8.4 17.6165C7.4235 17.6165 6.6825 17.296 6.29663 16.9352C5.96288 16.6227 5.55938 16.3985 5.10525 16.3985H4.494C4.03988 16.3985 3.63638 16.6227 3.30263 16.9352C2.9175 17.296 2.1765 17.6165 1.2 17.6165H0.6C0.2685 17.6165 0 17.8891 0 18.2256V19.4436C0 19.7801 0.2685 20.0526 0.6 20.0526H1.2C2.64825 20.0526 3.927 19.5886 4.8 18.8407C5.673 19.589 6.95175 20.0526 8.4 20.0526C9.84825 20.0526 11.127 19.5886 12 18.8407C12.873 19.589 14.1518 20.0526 15.6 20.0526C17.0483 20.0526 18.327 19.5886 19.2 18.8407C20.073 19.589 21.3518 20.0526 22.8 20.0526H23.4C23.7315 20.0526 24 19.7801 24 19.4436V18.2256C24 17.8891 23.7315 17.6165 23.4 17.6165ZM8.4 16.3985V12.7444H15.6V16.3985C16.317 16.3985 16.7573 16.164 16.8896 16.0399C17.2335 15.7179 17.6096 15.4941 18 15.3521V6.65414C18 5.98269 18.5385 5.43609 19.2 5.43609C19.8615 5.43609 20.4 5.98269 20.4 6.65414V7.26316C20.4 7.59964 20.6685 7.87218 21 7.87218H22.2C22.5315 7.87218 22.8 7.59964 22.8 7.26316V6.65414C22.8 4.63903 21.1853 3 19.2 3C17.2148 3 15.6 4.63903 15.6 6.65414V10.3083H8.4V6.65414C8.4 5.98269 8.9385 5.43609 9.6 5.43609C10.2615 5.43609 10.8 5.98269 10.8 6.65414V7.26316C10.8 7.59964 11.0685 7.87218 11.4 7.87218H12.6C12.9315 7.87218 13.2 7.59964 13.2 7.26316V6.65414C13.2 4.63903 11.5853 3 9.6 3C7.61475 3 6 4.63903 6 6.65414V15.3517C6.39038 15.4937 6.7665 15.7179 7.11038 16.0396C7.24275 16.164 7.683 16.3985 8.4 16.3985Z" fill="current" stroke="current" />
</svg>
